<svg width="192" height="193" viewBox="0 0 192 193" fill="none" xmlns="http://www.w3.org/2000/svg">
<path d="M40.3685 191.827C31.9072 189.018 28.2358 186.442 17.7512 175.958C4.07663 162.283 0.673807 155.606 0.759421 142.617C0.832921 131.464 3.59198 124.724 11.1968 117.12C16.3218 111.994 18.8076 110.68 34.7007 104.692C46.3494 100.303 52.3494 96.0723 58.7771 87.7141C61.9779 83.552 65.738 80.2823 69.4834 78.404C76.1787 75.0464 78.2283 74.8968 85.9 77.2057C89.0007 78.1388 92.1652 78.5327 92.9323 78.081C93.6995 77.6294 106.196 66.5189 120.702 53.3913C143.797 32.4916 147.379 28.7798 149.502 23.5493C152.517 16.1201 166.497 1.6899 170.679 1.6899C175.655 1.6899 183.938 7.78029 187.845 14.3125C189.86 17.6807 191.508 21.3246 191.508 22.41C191.508 26.0377 176.296 40.558 169.036 43.8603C163.043 46.5864 159.739 49.803 138.321 73.7584C117.367 97.1954 114.414 100.972 115.053 103.519C118.519 117.349 116.48 125.353 107.673 132.493C95.9648 141.986 92.294 147.423 86.3198 164.122C79.6986 182.63 69.0519 191.618 52.2972 192.845C47.9433 193.163 43.1681 192.756 40.3685 191.827ZM63.0477 182.339C70.8305 178.395 75.0895 172.766 79.3929 160.735C85.3912 143.967 90.4206 136.687 103.667 125.601C105.645 123.945 107.888 120.506 108.652 117.959C110.753 110.944 108.209 105.866 100.488 101.664C95.8562 99.1427 93.7769 97.0728 91.6398 92.8554C88.2933 86.2514 84.955 83.6787 79.7323 83.6787C74.0552 83.6787 69.7604 86.3638 64.945 92.9236C57.9881 102.401 46.0477 109.838 28.4033 115.683C11.7169 121.211 3.82438 140.455 11.8176 156.123C15.6023 163.542 31.2869 179.298 38.0343 182.459C46.0909 186.234 55.4494 186.189 63.0477 182.339ZM37.5848 155.53C25.6522 143.362 25.5679 143.031 32.8406 136.912C37.4724 133.014 38.1253 133.379 50.1765 146.579L59.7482 157.064L55.4663 161.803C53.1112 164.41 50.5544 166.543 49.7845 166.543C49.0146 166.543 43.5247 161.587 37.5848 155.53ZM69.6852 135.027C65.2685 133.657 60.8792 129.521 58.8917 124.856C54.0631 113.524 62.3544 101.185 74.798 101.185C88.2297 101.185 96.9344 116.212 89.6785 126.873C84.6821 134.214 77.0707 137.319 69.6852 135.027ZM79.3829 126.321C86.6177 122.58 85.7317 112.403 77.9124 109.43C72.3633 107.32 65.4612 112.131 65.4612 118.108C65.4612 121.249 68.5669 125.601 71.7133 126.871C75.2028 128.279 75.6591 128.247 79.3829 126.321ZM109.617 92.6003C110.001 90.5837 103.504 82.5116 101.496 82.5116C99.5222 82.5116 97.2261 86.1456 97.8038 88.3547C99.2994 94.074 108.692 97.4497 109.617 92.6003ZM119.348 82.9143C122.326 80.2192 122.045 78.8468 117.643 74.5804C114.03 71.078 113.653 70.9657 111.224 72.667C107.774 75.0836 107.962 76.4448 112.374 80.9972C116.708 85.4689 116.568 85.4302 119.348 82.9143ZM131.421 69.6534C133.497 67.3589 133.466 67.2106 130.216 63.8179C126.249 59.6773 125.715 59.6052 122.538 62.7824L120.092 65.2281L123.339 68.6179C127.182 72.6283 128.567 72.8059 131.421 69.6534ZM141.523 58.4052C144.336 55.8587 144.215 54.265 140.974 51.2206C138.5 48.8964 138.091 48.8403 135.722 50.4998C132.497 52.7585 132.491 54.2295 135.691 57.6355C138.717 60.8569 138.801 60.868 141.523 58.4052ZM153.577 45.1644C155.616 42.9119 155.616 42.7485 153.577 40.496C152.415 39.2122 150.84 38.1618 150.076 38.1618C149.312 38.1618 147.736 39.2122 146.575 40.496C144.536 42.7485 144.536 42.9119 146.575 45.1644C147.736 46.4482 149.312 47.4986 150.076 47.4986C150.84 47.4986 152.415 46.4482 153.577 45.1644ZM167.932 35.3356C169.665 34.4231 173.656 31.0435 176.8 27.8254C182.331 22.1653 182.469 21.8579 181.04 18.4074C180.227 16.4456 177.742 13.7154 175.517 12.3404L171.472 9.84037L165.021 16.1231C161.473 19.5787 157.806 24.1791 156.872 26.3463C155.241 30.1289 155.302 30.4211 158.387 33.6407C162.022 37.4355 163.459 37.6905 167.932 35.3356ZM167.616 191.502C166.635 190.521 165.832 188.679 165.832 187.409C165.832 181.246 161.511 177.294 152.652 175.356C146.323 173.971 147.532 168.582 154.516 167.048C160.812 165.665 163.398 163.159 165.309 156.588C166.296 153.192 167.853 150.126 168.768 149.774C170.915 148.95 174.001 152.04 174.001 155.013C174.001 161.089 177.968 164.914 187.198 167.741C190.733 168.824 191.568 169.606 191.283 171.569C191.022 173.367 189.526 174.44 185.765 175.525C179.034 177.467 175.69 180.747 174.132 186.932C172.726 192.516 170.319 194.205 167.616 191.502ZM172.447 172.871C172.836 171.859 172.401 170.278 171.482 169.359C170.046 167.922 169.496 167.917 167.573 169.325C165.672 170.716 165.57 171.243 166.894 172.838C168.879 175.23 171.536 175.247 172.447 172.871ZM135.014 143.8C130.145 141.192 128.564 138.601 128.522 133.159C128.473 126.896 132.354 122.535 138.908 121.487L143.657 120.728V107.001C143.657 95.6109 144.005 92.8696 145.699 90.8983C148.066 88.1453 171.773 77.8432 175.742 77.8432C177.215 77.8432 178.739 78.6739 179.129 79.6893C179.518 80.7046 179.837 90.9721 179.837 102.506C179.837 118.927 179.455 124.215 178.074 126.885C172.647 137.379 156.495 133.11 156.495 121.181C156.495 114.736 160.191 110.587 166.709 109.713L171.667 109.048V98.5708V88.094L168.7 88.8389C167.067 89.2485 162.735 91.0124 159.071 92.7585L152.41 95.9333L151.827 117.209C151.257 137.986 151.174 138.554 148.325 141.399C144.528 145.189 139.351 146.123 135.014 143.8ZM142.256 135.965C145.472 132.749 142.638 128.316 138.405 129.941C136.288 130.753 136.068 135.767 138.113 136.592C140.395 137.513 140.764 137.457 142.256 135.965ZM171.084 121.026C171.084 118.887 170.381 118.008 168.453 117.735C165.585 117.328 163.956 119.83 165.118 122.858C165.54 123.958 166.874 124.541 168.453 124.317C170.381 124.043 171.084 123.165 171.084 121.026ZM4.52512 65.1245C-3.04041 58.3648 0.895972 46.9721 11.3854 45.2695L15.8594 44.5433L16.1796 24.2231C16.493 4.33848 17.1434 0.814575 20.5007 0.814575C21.2914 0.814575 28.6108 6.63396 36.766 13.7466C48.3241 23.8269 51.5141 27.2342 51.233 29.1987C50.6769 33.0849 47.4631 32.8935 36.8715 28.3434C31.5112 26.0406 26.6063 24.1566 25.9716 24.1566C25.2753 24.1566 24.6613 31.6005 24.4234 42.9278L24.0291 61.699L20.2176 65.1027C15.0767 69.6936 9.64726 69.7011 4.52512 65.1245ZM81.8416 58.0792C81.1771 56.8376 80.6335 54.7771 80.6335 53.5004C80.6335 49.7586 75.1138 44.1623 70.5855 43.3128C61.8868 41.6809 61.372 36.597 69.6934 34.5017C75.2632 33.0992 80.6335 27.9393 80.6335 23.9903C80.6335 20.3882 82.8228 17.154 85.2611 17.154C86.9289 17.154 87.9947 18.8037 89.5967 23.8648C91.3647 29.4503 92.4059 30.9108 95.8057 32.5741C98.0524 33.6733 101.335 34.8649 103.1 35.2223C105.556 35.7197 106.31 36.5464 106.31 38.7453C106.31 40.9319 105.543 41.7861 103.1 42.3193C94.2406 44.2534 91.2271 46.8176 89.4775 53.9111C87.8877 60.3565 84.1518 62.3958 81.8416 58.0792ZM88.2196 38.7613C88.2196 36.1865 84.5912 34.9043 82.6887 36.8068C80.7271 38.7684 82.6619 41.8687 85.5884 41.4532C87.3101 41.2089 88.2196 40.2782 88.2196 38.7613Z" fill="#557788"/>
</svg>
