<?xml version="1.0" encoding="UTF-8" standalone="no"?>
<!-- Created with Inkscape (http://www.inkscape.org/) -->

<svg
   width="210mm"
   height="55mm"
   viewBox="0 0 210 55"
   version="1.1"
   id="svg1"
   xml:space="preserve"
   inkscape:version="1.3-dev (616e24e5a, 2023-03-06)"
   sodipodi:docname="logo.svg"
   xmlns:inkscape="http://www.inkscape.org/namespaces/inkscape"
   xmlns:sodipodi="http://sodipodi.sourceforge.net/DTD/sodipodi-0.dtd"
   xmlns="http://www.w3.org/2000/svg"
   xmlns:svg="http://www.w3.org/2000/svg"><sodipodi:namedview
     id="namedview1"
     pagecolor="#ffffff"
     bordercolor="#000000"
     borderopacity="0.25"
     inkscape:showpageshadow="2"
     inkscape:pageopacity="0.0"
     inkscape:pagecheckerboard="0"
     inkscape:deskcolor="#d1d1d1"
     inkscape:document-units="mm"
     inkscape:zoom="1.0519801"
     inkscape:cx="336.50828"
     inkscape:cy="321.77416"
     inkscape:window-width="1920"
     inkscape:window-height="991"
     inkscape:window-x="2391"
     inkscape:window-y="-9"
     inkscape:window-maximized="1"
     inkscape:current-layer="layer1"
     showguides="true" /><defs
     id="defs1" /><g
     inkscape:label="Шар 1"
     inkscape:groupmode="layer"
     id="layer1"><path
       style="fill:#578;stroke-width:1.45887"
       d="M 12.268347,53.135362 C 10.029617,52.392313 9.0582456,51.710771 6.2841746,48.936691 2.6661226,45.318637 1.7657911,43.552057 1.788443,40.115385 1.80789,37.164562 2.5378918,35.381219 4.5499983,33.369124 c 1.3560024,-1.356009 2.013704,-1.703761 6.2187537,-3.28807 3.082047,-1.161206 4.669531,-2.280674 6.37021,-4.492124 0.846867,-1.101217 1.841719,-1.96633 2.832696,-2.463296 1.771468,-0.888367 2.313757,-0.927946 4.343571,-0.317057 0.820381,0.2469 1.657665,0.351108 1.860631,0.231596 0.202966,-0.119481 3.509327,-3.059143 7.347471,-6.532491 6.110445,-5.52969 7.058229,-6.5117756 7.619915,-7.8956789 0.797796,-1.9656442 4.496623,-5.7836365 5.603121,-5.7836365 1.316649,0 3.508054,1.6114148 4.541807,3.3397293 0.533034,0.8911683 0.969151,1.8552804 0.969151,2.1424745 0,0.959823 -4.024756,4.8016386 -5.945617,5.6753736 -1.585714,0.721282 -2.460039,1.572346 -8.126735,7.91053 -5.544106,6.201064 -6.325304,7.200248 -6.156388,7.874277 0.917003,3.659136 0.37766,5.776692 -1.95253,7.66595 -3.097851,2.511657 -4.06908,3.950283 -5.64975,8.368573 -1.75188,4.896874 -4.568813,7.274957 -9.001819,7.59944 -1.151976,0.08432 -2.415416,-0.02349 -3.156139,-0.269352 z m 6.000527,-2.510301 c 2.059205,-1.043489 3.186076,-2.532869 4.324684,-5.715915 1.587033,-4.436658 2.917735,-6.362752 6.422389,-9.295936 0.523511,-0.438144 1.11705,-1.348045 1.318973,-2.022001 0.556075,-1.856024 -0.117002,-3.199546 -2.15996,-4.311457 -1.225508,-0.667012 -1.775642,-1.214659 -2.34109,-2.330523 -0.885425,-1.747295 -1.768689,-2.427991 -3.150531,-2.427991 -1.502058,0 -2.638384,0.710428 -3.912452,2.446052 -1.840687,2.507514 -4.999924,4.4752 -9.668347,6.021783 -4.4149231,1.462595 -6.503161,6.554287 -4.3882753,10.699811 1.0013572,1.962814 5.1512479,6.131608 6.9364923,6.968068 2.131647,0.998775 4.607733,0.986842 6.618117,-0.03195 z M 11.531815,43.53188 C 8.3746533,40.312464 8.3523559,40.224961 10.27659,38.605829 c 1.225489,-1.031177 1.398252,-0.934833 4.586788,2.557787 l 2.532521,2.774036 -1.132931,1.254019 c -0.623112,0.689713 -1.2996,1.25402 -1.503305,1.25402 -0.203707,0 -1.656239,-1.311222 -3.227848,-2.913811 z m 8.493251,-5.424651 c -1.168584,-0.362545 -2.329931,-1.456905 -2.855794,-2.691055 -1.277575,-2.998338 0.916177,-6.263008 4.208533,-6.263008 3.553819,0 5.856943,3.975857 3.937138,6.796635 -1.321953,1.942346 -3.335797,2.763678 -5.289877,2.157428 z M 22.5909,35.80368 c 1.914218,-0.98989 1.679798,-3.682594 -0.389075,-4.469175 -1.468197,-0.55821 -3.294383,0.714644 -3.294383,2.296181 0,0.830888 0.821722,1.982611 1.654217,2.318561 0.923261,0.372582 1.04398,0.363931 2.029241,-0.145596 z m 7.999338,-8.921939 c 0.101756,-0.533569 -1.617407,-2.669303 -2.148662,-2.669303 -0.522154,0 -1.129662,0.9615 -0.976813,1.545999 0.395723,1.513232 2.880782,2.406385 3.125475,1.123304 z m 2.574669,-2.562762 c 0.78793,-0.713068 0.713661,-1.076197 -0.450975,-2.205001 -0.956076,-0.926678 -1.055741,-0.95638 -1.698372,-0.506259 -0.912877,0.639396 -0.863158,0.999548 0.304267,2.204024 1.146752,1.183148 1.109514,1.172906 1.84508,0.507236 z m 3.194281,-3.508608 C 36.908593,20.203289 36.900496,20.16406 36.040479,19.2664 34.990883,18.170858 34.849537,18.15179 34.008903,18.992423 l -0.647096,0.647099 0.859266,0.896872 c 1.016598,1.061098 1.383254,1.108088 2.138115,0.273977 z m 2.672826,-2.97609 c 0.744488,-0.673753 0.712299,-1.095411 -0.145114,-1.900914 -0.654579,-0.614945 -0.762716,-0.629782 -1.389578,-0.190705 -0.853226,0.597614 -0.854946,0.986813 -0.0083,1.887974 0.80072,0.852333 0.822991,0.855266 1.543032,0.203645 z m 3.189467,-3.503284 c 0.539352,-0.59598 0.539352,-0.639206 0,-1.235186 -0.307402,-0.33967 -0.724276,-0.617585 -0.926385,-0.617585 -0.202111,0 -0.618985,0.277915 -0.926386,0.617585 -0.539353,0.59598 -0.539353,0.639206 0,1.235186 0.307401,0.339669 0.724275,0.617585 0.926386,0.617585 0.202109,0 0.618983,-0.277916 0.926385,-0.617585 z m 3.798076,-2.600532 c 0.458618,-0.241444 1.514508,-1.135617 2.346419,-1.9870752 1.463209,-1.4975789 1.499811,-1.5788965 1.12165,-2.4918604 -0.215004,-0.5190531 -0.872541,-1.241415 -1.461194,-1.6052147 l -1.070276,-0.6614684 -1.706857,1.662315 c -0.938773,0.9142769 -1.909049,2.1314745 -2.156172,2.7048853 -0.431318,1.0008024 -0.415263,1.0781084 0.400877,1.9299744 0.961926,1.004027 1.341972,1.071514 2.525553,0.448444 z m -0.08359,41.319144 c -0.259671,-0.259665 -0.472128,-0.747017 -0.472128,-1.082996 0,-1.630628 -1.143333,-2.676218 -3.487169,-3.189056 -1.674498,-0.366397 -1.354551,-1.792272 0.493224,-2.198116 1.665877,-0.365886 2.350059,-1.029032 2.855498,-2.767676 0.26122,-0.898564 0.673129,-1.709816 0.915352,-1.80276 0.568106,-0.218 1.384662,0.599407 1.384662,1.38612 0,1.607491 1.04935,2.619585 3.491524,3.367594 0.935254,0.28645 1.156186,0.493494 1.080782,1.01281 -0.06908,0.475797 -0.464828,0.759548 -1.459814,1.046669 -1.781028,0.513977 -2.665865,1.381613 -3.077942,3.018121 -0.372051,1.477548 -1.008968,1.924314 -1.723989,1.20929 z m 1.278163,-4.929494 c 0.102807,-0.267923 -0.01211,-0.686153 -0.255337,-0.929406 -0.380022,-0.380022 -0.525573,-0.38135 -1.034154,-0.0088 -0.503043,0.367841 -0.530022,0.507338 -0.179738,0.929406 0.525308,0.632962 1.228236,0.637484 1.469229,0.0088 z M 70.36977,42.925572 C 68.890592,42.37543 67.831449,41.403119 66.972249,39.8066 66.341465,38.63451 66.307511,38.169188 66.307511,30.697137 v -7.874278 l 2.847593,-0.0887 c 2.747334,-0.08549 2.853253,-0.06375 3.008322,0.617585 0.08841,0.388455 0.196563,3.67142 0.240359,7.295484 l 0.07962,6.589212 0.866407,0.744668 c 1.605725,1.380111 4.712671,0.625785 5.51862,-1.33983 0.195813,-0.477578 0.42888,-3.686271 0.532695,-7.33375 l 0.184568,-6.484699 h 2.779157 2.779157 l 0.08142,10.113038 0.08142,10.113052 h -2.937777 c -1.615775,0 -2.939901,-0.104164 -2.942502,-0.231597 -0.0026,-0.127359 -0.119993,-0.413343 -0.260863,-0.635456 -0.202391,-0.319129 -0.502667,-0.258411 -1.431089,0.289367 -1.492326,0.880504 -5.54656,1.130585 -7.364856,0.454309 z m 45.65377,-0.02859 c -0.67936,-0.238526 -1.66969,-0.930558 -2.20073,-1.537844 -1.59486,-1.823871 -1.81362,-3.184432 -1.81362,-11.279554 v -7.256695 h 2.93355 2.93357 l 0.16657,6.947891 c 0.0916,3.821333 0.28215,7.196207 0.42341,7.499697 0.66443,1.427523 3.54399,1.902985 4.92864,0.813819 1.48771,-1.170237 1.57481,-1.602283 1.73806,-8.622316 l 0.1544,-6.639091 h 2.93355 2.93355 v 10.035848 10.035834 l -2.88214,0.08914 c -2.67921,0.08286 -2.89373,0.04479 -3.04677,-0.540396 -0.20668,-0.790346 -0.23796,-0.788172 -2.0749,0.143699 -1.20725,0.612479 -1.96795,0.767922 -3.70554,0.757141 -1.20254,-0.0073 -2.74226,-0.208706 -3.4216,-0.447232 z m 56.04633,-0.01692 c -0.8034,-0.36539 -1.21841,-0.406778 -1.61699,-0.161293 -0.29491,0.181644 -1.79004,0.33026 -3.32251,0.33026 h -2.78631 l 0.0801,-14.899373 0.0801,-14.899372 h 2.93356 2.93355 l 0.0848,5.195535 c 0.0645,3.955987 0.17505,5.157546 0.46319,5.036342 3.13883,-1.320296 5.71827,-1.340093 8.42451,-0.06463 2.07936,0.979985 3.45219,2.42341 4.57416,4.809371 0.82255,1.749235 0.94342,2.344441 0.94055,4.631928 -0.003,2.205818 -0.13903,2.920477 -0.85387,4.47752 -1.71003,3.724814 -4.60947,5.736719 -8.53819,5.924564 -1.65638,0.07922 -2.62378,-0.02918 -3.39675,-0.38081 z m 4.14405,-4.756501 c 2.79693,-1.728606 3.42551,-6.64907 1.18896,-9.307068 -3.00144,-3.567007 -7.59349,-1.027646 -7.60595,4.206024 -0.0102,4.236296 3.41314,6.957521 6.41699,5.101044 z m 17.88306,4.662652 c -4.4559,-1.539843 -6.80623,-5.381629 -6.52845,-10.671203 0.11,-2.09566 0.29846,-2.812361 1.16842,-4.444419 1.18142,-2.21641 2.2765,-3.255538 4.4854,-4.256297 4.05163,-1.835629 9.15423,-1.009672 12.06905,1.953609 1.74376,1.772766 2.66458,4.037743 2.71275,6.672719 l 0.0404,2.207744 -7.0251,0.08301 -7.02509,0.08301 v 0.707569 c 0,1.711129 3.20115,3.580852 5.35255,3.126325 1.13929,-0.2407 2.98492,-1.297479 2.98492,-1.709116 0,-0.155982 0.24792,-0.283605 0.55094,-0.283605 0.79661,0 3.90198,3.230722 3.67469,3.823026 -0.2999,0.781519 -2.67472,2.32689 -4.3322,2.819115 -2.12888,0.632203 -6.13526,0.577277 -8.12824,-0.111458 z m 7.30843,-12.987926 c 0,-0.324585 -0.42754,-0.949888 -0.95008,-1.389578 -0.77115,-0.648893 -1.27128,-0.799449 -2.65563,-0.799449 -1.53512,0 -1.81279,0.107227 -2.77853,1.072959 -0.59013,0.590129 -0.9849,1.215447 -0.87728,1.389578 0.11525,0.186444 1.64823,0.31662 3.7286,0.31662 3.27228,0 3.53292,-0.04348 3.53292,-0.59013 z M 89.145416,42.663018 c -0.08141,-0.212295 -0.11175,-6.917007 -0.06755,-14.899358 l 0.08038,-14.513383 h 2.933549 2.93355 l 0.08345,6.784264 c 0.04581,3.73135 0.200377,6.901237 0.343332,7.044192 0.14297,0.14297 1.465075,-0.790856 2.938057,-2.075133 l 2.678136,-2.33506 h 4.18067 c 3.36883,0 4.16126,0.08155 4.08082,0.420141 -0.0549,0.231086 -1.95227,1.985937 -4.21632,3.899689 -2.26407,1.913752 -4.19056,3.672557 -4.28109,3.908487 -0.0964,0.251305 1.64289,2.660929 4.20003,5.818649 2.40055,2.964332 4.44611,5.602051 4.54571,5.861599 0.15619,0.407026 -0.32324,0.471917 -3.487,0.471917 h -3.66811 l -2.893314,-3.703996 c -1.591326,-2.037187 -3.092683,-3.869447 -3.336359,-4.071676 -0.772241,-0.640898 -1.003852,0.311222 -1.008841,4.147319 l -0.0044,3.628353 H 92.23688 c -2.069823,0 -2.987148,-0.114522 -3.091195,-0.386004 z m 51.805874,0 c -0.52937,-0.64936 -8.09842,-18.814219 -8.09842,-19.435292 0,-0.535348 0.2359,-0.574534 2.96935,-0.493172 l 2.96936,0.08841 1.92626,5.234486 c 1.05943,2.878959 2.0714,5.282849 2.24878,5.341992 0.1774,0.05908 0.54602,-0.489934 0.81913,-1.220145 0.27313,-0.73021 1.16216,-3.134115 1.97559,-5.341991 l 1.479,-4.014342 2.9965,-0.08841 c 2.46911,-0.0728 2.99652,-0.0088 2.99652,0.365025 0,0.517944 -7.65338,18.974958 -8.11217,19.563439 -0.17871,0.229233 -1.02271,0.386004 -2.07808,0.386004 -1.04803,0 -1.90625,-0.158376 -2.09182,-0.386004 z m 13.97072,0.0088 c -0.0845,-0.220275 -0.11686,-4.776385 -0.0719,-10.124708 l 0.0817,-9.724204 h 2.93355 2.93355 v 10.035849 10.035834 l -2.86157,0.08884 c -2.12545,0.06594 -2.9011,-0.01459 -3.01526,-0.31163 z M 37.310001,40.428401 c -1.288333,-0.690077 -1.706634,-1.37569 -1.717792,-2.815482 -0.01284,-1.657151 1.013857,-2.810946 2.748055,-3.088264 l 1.256462,-0.200916 v -3.631854 c 0,-3.013598 0.092,-3.738878 0.540392,-4.260469 0.626193,-0.728402 6.898733,-3.454164 7.948746,-3.454164 0.389753,0 0.792988,0.219809 0.896078,0.488446 0.103085,0.268652 0.187435,2.985237 0.187435,6.036854 0,4.344835 -0.101173,5.744028 -0.466389,6.450284 -1.43587,2.776662 -5.709515,1.647026 -5.709515,-1.509192 0,-1.70506 0.977831,-2.802951 2.702441,-3.03427 L 47.00781,31.233405 V 28.46144 25.689461 l -0.785186,0.197065 c -0.431852,0.108394 -1.578255,0.575074 -2.547561,1.03707 l -1.762373,0.839991 -0.154397,5.629332 c -0.150771,5.497069 -0.172537,5.647436 -0.926386,6.400025 -1.004577,1.002875 -2.3745,1.250052 -3.521906,0.635457 z m 1.916171,-2.073149 c 0.850902,-0.850903 0.101085,-2.023707 -1.019024,-1.593879 -0.559979,0.214878 -0.618177,1.541637 -0.0772,1.759929 0.603841,0.243661 0.701281,0.228897 1.096224,-0.16605 z m 7.627241,-3.952573 c 0,-0.565941 -0.185814,-0.798369 -0.69617,-0.870846 -0.758742,-0.107665 -1.189682,0.554474 -0.882224,1.355688 0.111604,0.290827 0.464647,0.445293 0.882224,0.386004 0.510356,-0.07251 0.69617,-0.304905 0.69617,-0.870846 z M 2.7847845,19.612109 C 0.78307104,17.823587 1.824572,14.809274 4.5999079,14.358803 L 5.7836477,14.166654 5.8683647,8.7902776 C 5.9512727,3.5291371 6.1233833,2.5967702 7.011647,2.5967702 c 0.2092187,0 2.1458139,1.5397111 4.303545,3.4215868 3.058074,2.6671005 3.902105,3.5686122 3.827724,4.08838 -0.147142,1.028229 -0.997452,0.977592 -3.799824,-0.2263005 C 9.9248567,9.2711666 8.6270926,8.7726836 8.4591732,8.7726836 c -0.1842354,0 -0.3466812,1.9695254 -0.4096375,4.9665494 l -0.1043241,4.966536 -1.008456,0.900563 c -1.3602068,1.214674 -2.7967405,1.216673 -4.1519725,0.0058 z M 155.76112,19.118222 c -1.16681,-0.981794 -1.42471,-2.020484 -0.84574,-3.406167 0.88167,-2.110131 3.76339,-2.49275 5.27193,-0.699968 2.37837,2.826541 -1.58132,6.499944 -4.42619,4.106135 z M 23.24144,17.748032 c -0.175812,-0.32851 -0.31966,-0.873677 -0.31966,-1.211479 0,-0.990007 -1.460401,-2.470692 -2.658525,-2.695461 -2.301534,-0.431769 -2.437725,-1.776895 -0.236037,-2.331282 1.473675,-0.37108 2.894562,-1.7362799 2.894562,-2.7811261 0,-0.9530537 0.579258,-1.8087714 1.224411,-1.8087714 0.441257,0 0.723253,0.4364808 1.147117,1.7755675 0.467783,1.477826 0.743261,1.864238 1.64281,2.304322 0.59443,0.290826 1.462918,0.606118 1.92997,0.700683 0.649877,0.13159 0.849187,0.350334 0.849187,0.932133 0,0.578532 -0.202956,0.804526 -0.849187,0.945599 -2.344083,0.51173 -3.141392,1.19018 -3.604321,3.067008 -0.420631,1.705351 -1.409093,2.244916 -2.020327,1.102807 z m 1.68751,-5.111183 c 0,-0.681251 -0.960014,-1.020512 -1.463381,-0.517142 -0.51901,0.519009 -0.0071,1.339306 0.76721,1.229365 0.455528,-0.06463 0.696171,-0.310887 0.696171,-0.712223 z"
       id="path2" /></g></svg>
