<svg width="52" height="106" viewBox="0 0 52 106" fill="none" xmlns="http://www.w3.org/2000/svg">
<rect x="0.5" y="21.5" width="51" height="84" rx="1.5" stroke="#535353"/>
<line y1="37.4999" x2="52" y2="37.4999" stroke="#535353"/>
<line y1="53.5" x2="52" y2="53.5" stroke="#535353"/>
<path d="M0 88H51" stroke="#535353"/>
<path d="M0 71H51.5" stroke="#535353"/>
<line x1="18.5" y1="21" x2="18.5" y2="106" stroke="#535353"/>
<path d="M35.5 21L35.5 106" stroke="#535353"/>
<path d="M17.9098 15H16.4325L20.7053 3.36364H22.1598L26.4325 15H24.9553L21.478 5.20455H21.3871L17.9098 15ZM18.4553 10.4545H24.4098V11.7045H18.4553V10.4545ZM28.4041 15L33.6087 4.70455V4.61364H27.6087V3.36364H35.0632V4.68182L29.8814 15H28.4041Z" fill="#F32851"/>
<path d="M22.5252 28.6195C22.8435 29.1626 22.8435 29.8374 22.5252 30.3805C21.6989 31.7909 20.7909 32.6989 19.3805 33.5252C18.8374 33.8435 18.1626 33.8435 17.6195 33.5252C16.2091 32.6989 15.3011 31.7909 14.4748 30.3805C14.1565 29.8374 14.1565 29.1626 14.4748 28.6195C15.3011 27.2091 16.2091 26.3011 17.6195 25.4748C18.1626 25.1565 18.8374 25.1565 19.3805 25.4748C20.7909 26.3011 21.6989 27.2091 22.5252 28.6195Z" fill="#F32851"/>
</svg>
