<svg width="60" height="106" viewBox="0 0 60 106" fill="none" xmlns="http://www.w3.org/2000/svg">
<rect x="4.5" y="21.5" width="51" height="84" rx="1.5" stroke="#535353"/>
<line x1="4" y1="37.4999" x2="56" y2="37.4999" stroke="#535353"/>
<line x1="4" y1="53.5" x2="56" y2="53.5" stroke="#535353"/>
<path d="M4 88H55" stroke="#535353"/>
<path d="M4 71H55.5" stroke="#535353"/>
<line x1="22.5" y1="21" x2="22.5" y2="106" stroke="#535353"/>
<path d="M39.5 21L39.5 106" stroke="#535353"/>
<path d="M21.4879 15H20.0107L24.2834 3.36364H25.7379L30.0107 15H28.5334L25.0561 5.20455H24.9652L21.4879 15ZM22.0334 10.4545H27.9879V11.7045H22.0334V10.4545ZM35.3232 3.20455C35.8004 3.20833 36.2777 3.29924 36.755 3.47727C37.2322 3.6553 37.6679 3.95076 38.0618 4.36364C38.4557 4.77273 38.772 5.33144 39.0107 6.03977C39.2493 6.74811 39.3686 7.63636 39.3686 8.70455C39.3686 9.73864 39.2701 10.6572 39.0732 11.4602C38.88 12.2595 38.5997 12.9337 38.2322 13.483C37.8686 14.0322 37.4254 14.4489 36.9027 14.733C36.3838 15.017 35.7966 15.1591 35.1413 15.1591C34.4898 15.1591 33.9084 15.0303 33.397 14.7727C32.8894 14.5114 32.4728 14.1496 32.147 13.6875C31.825 13.2216 31.6186 12.6818 31.5277 12.0682H32.9141C33.0391 12.6023 33.2872 13.0436 33.6584 13.392C34.0334 13.7367 34.5277 13.9091 35.1413 13.9091C36.0391 13.9091 36.7474 13.517 37.2663 12.733C37.7891 11.9489 38.0504 10.8409 38.0504 9.40909H37.9595C37.7474 9.72727 37.4955 10.0019 37.2038 10.233C36.9122 10.464 36.5883 10.642 36.2322 10.767C35.8762 10.892 35.4974 10.9545 35.0959 10.9545C34.4292 10.9545 33.8175 10.7898 33.2607 10.4602C32.7076 10.1269 32.2644 9.67045 31.9311 9.09091C31.6016 8.50758 31.4368 7.84091 31.4368 7.09091C31.4368 6.37879 31.5959 5.72727 31.9141 5.13636C32.236 4.54167 32.6868 4.06818 33.2663 3.71591C33.8497 3.36364 34.5353 3.19318 35.3232 3.20455ZM35.3232 4.45455C34.8459 4.45455 34.416 4.57386 34.0334 4.8125C33.6546 5.04735 33.3535 5.36553 33.13 5.76705C32.9103 6.16477 32.8004 6.60606 32.8004 7.09091C32.8004 7.57576 32.9065 8.01705 33.1186 8.41477C33.3345 8.80871 33.6281 9.12311 33.9993 9.35795C34.3743 9.58902 34.8004 9.70455 35.2777 9.70455C35.6375 9.70455 35.9728 9.63447 36.2834 9.49432C36.594 9.35038 36.8648 9.1553 37.0959 8.90909C37.3307 8.65909 37.5144 8.37689 37.647 8.0625C37.7796 7.74432 37.8459 7.41288 37.8459 7.06818C37.8459 6.61364 37.736 6.1875 37.5163 5.78977C37.3004 5.39205 37.0012 5.07008 36.6186 4.82386C36.2398 4.57765 35.808 4.45455 35.3232 4.45455Z" fill="#F32851"/>
<path d="M26.5252 28.6195C26.8435 29.1626 26.8435 29.8374 26.5252 30.3805C25.6989 31.7909 24.7909 32.6989 23.3805 33.5252C22.8374 33.8435 22.1626 33.8435 21.6195 33.5252C20.2091 32.6989 19.3011 31.7909 18.4748 30.3805C18.1565 29.8374 18.1565 29.1626 18.4748 28.6195C19.3011 27.2091 20.2091 26.3011 21.6195 25.4748C22.1626 25.1565 22.8374 25.1565 23.3805 25.4748C24.7909 26.3011 25.6989 27.2091 26.5252 28.6195Z" fill="#F32851"/>
<path d="M43.5252 61.6195C43.8435 62.1626 43.8435 62.8374 43.5252 63.3805C42.6989 64.7909 41.7909 65.6989 40.3805 66.5252C39.8374 66.8435 39.1626 66.8435 38.6195 66.5252C37.2091 65.6989 36.3011 64.7909 35.4748 63.3805C35.1565 62.8374 35.1565 62.1626 35.4748 61.6195C36.3011 60.2091 37.2091 59.3011 38.6195 58.4748C39.1626 58.1565 39.8374 58.1565 40.3805 58.4748C41.7909 59.3011 42.6989 60.2091 43.5252 61.6195Z" fill="#F32851"/>
<path d="M59.5252 44.6195C59.8435 45.1626 59.8435 45.8374 59.5252 46.3805C58.6989 47.7909 57.7909 48.6989 56.3805 49.5252C55.8374 49.8435 55.1626 49.8435 54.6195 49.5252C53.2091 48.6989 52.3011 47.7909 51.4748 46.3805C51.1565 45.8374 51.1565 45.1626 51.4748 44.6195C52.3011 43.2091 53.2091 42.3011 54.6195 41.4748C55.1626 41.1565 55.8374 41.1565 56.3805 41.4748C57.7909 42.3011 58.6989 43.2091 59.5252 44.6195Z" fill="#F32851"/>
<path d="M8.52523 44.6195C8.84348 45.1626 8.84348 45.8374 8.52523 46.3805C7.69886 47.7909 6.79088 48.6989 5.38054 49.5252C4.83739 49.8435 4.16261 49.8435 3.61946 49.5252C2.20912 48.6989 1.30114 47.7909 0.474768 46.3805C0.15652 45.8374 0.15652 45.1626 0.474768 44.6195C1.30114 43.2091 2.20912 42.3011 3.61946 41.4748C4.16261 41.1565 4.83739 41.1565 5.38054 41.4748C6.79088 42.3011 7.69886 43.2091 8.52523 44.6195Z" fill="#F32851"/>
</svg>
