<svg width="56" height="106" viewBox="0 0 56 106" fill="none" xmlns="http://www.w3.org/2000/svg">
<rect x="4.5" y="21.5" width="51" height="84" rx="1.5" stroke="#535353"/>
<line x1="4" y1="37.4999" x2="56" y2="37.4999" stroke="#535353"/>
<line x1="4" y1="53.5" x2="56" y2="53.5" stroke="#535353"/>
<path d="M4 88H55" stroke="#535353"/>
<path d="M4 71H55.5" stroke="#535353"/>
<line x1="22.5" y1="21" x2="22.5" y2="106" stroke="#535353"/>
<path d="M39.5 21L39.5 106" stroke="#535353"/>
<path d="M12.6598 15H11.1825L15.4553 3.36364H16.9098L21.1825 15H19.7053L16.228 5.20455H16.1371L12.6598 15ZM13.2053 10.4545H19.1598V11.7045H13.2053V10.4545ZM26.1087 15.1818C25.3814 15.1818 24.7393 14.9981 24.1825 14.6307C23.6257 14.2595 23.1901 13.7367 22.8757 13.0625C22.5613 12.3845 22.4041 11.5833 22.4041 10.6591C22.4041 9.74242 22.5613 8.94697 22.8757 8.27273C23.1901 7.59848 23.6276 7.07765 24.1882 6.71023C24.7488 6.3428 25.3965 6.15909 26.1314 6.15909C26.6996 6.15909 27.1484 6.25379 27.478 6.44318C27.8113 6.62879 28.0651 6.84091 28.2393 7.07955C28.4174 7.31439 28.5556 7.50758 28.6541 7.65909H28.7678V3.36364H30.1087V15H28.8132V13.6591H28.6541C28.5556 13.8182 28.4155 14.0189 28.2337 14.2614C28.0518 14.5 27.7924 14.714 27.4553 14.9034C27.1181 15.089 26.6693 15.1818 26.1087 15.1818ZM26.2905 13.9773C26.8284 13.9773 27.2829 13.8371 27.6541 13.5568C28.0253 13.2727 28.3075 12.8807 28.5007 12.3807C28.6939 11.8769 28.7905 11.2955 28.7905 10.6364C28.7905 9.98485 28.6958 9.41477 28.5064 8.92614C28.317 8.43371 28.0367 8.05114 27.6655 7.77841C27.2943 7.50189 26.8359 7.36364 26.2905 7.36364C25.7223 7.36364 25.2488 7.50947 24.87 7.80114C24.495 8.08902 24.2128 8.48106 24.0234 8.97727C23.8378 9.4697 23.745 10.0227 23.745 10.6364C23.745 11.2576 23.8397 11.822 24.0291 12.3295C24.2223 12.8333 24.5064 13.2348 24.8814 13.5341C25.2602 13.8295 25.7299 13.9773 26.2905 13.9773ZM32.7507 15V6.27273H34.0916V15H32.7507ZM33.4325 4.81818C33.1712 4.81818 32.9458 4.72917 32.7564 4.55114C32.5708 4.37311 32.478 4.15909 32.478 3.90909C32.478 3.65909 32.5708 3.44508 32.7564 3.26705C32.9458 3.08902 33.1712 3 33.4325 3C33.6939 3 33.9174 3.08902 34.103 3.26705C34.2924 3.44508 34.3871 3.65909 34.3871 3.90909C34.3871 4.15909 34.2924 4.37311 34.103 4.55114C33.9174 4.72917 33.6939 4.81818 33.4325 4.81818ZM36.5476 15V6.27273H37.843V7.63636H37.9567C38.1385 7.17045 38.4321 6.80871 38.8374 6.55114C39.2427 6.28977 39.7294 6.15909 40.2976 6.15909C40.8733 6.15909 41.3525 6.28977 41.7351 6.55114C42.1214 6.80871 42.4226 7.17045 42.6385 7.63636H42.7294C42.9529 7.18561 43.2881 6.82765 43.7351 6.5625C44.1821 6.29356 44.718 6.15909 45.343 6.15909C46.1233 6.15909 46.7616 6.40341 47.2578 6.89205C47.754 7.37689 48.0021 8.13258 48.0021 9.15909V15H46.6612V9.15909C46.6612 8.51515 46.4851 8.05492 46.1328 7.77841C45.7805 7.50189 45.3658 7.36364 44.8885 7.36364C44.2749 7.36364 43.7995 7.54924 43.4624 7.92045C43.1252 8.28788 42.9567 8.75379 42.9567 9.31818V15H41.593V9.02273C41.593 8.52652 41.4321 8.12689 41.1101 7.82386C40.7881 7.51705 40.3733 7.36364 39.8658 7.36364C39.5173 7.36364 39.1915 7.45644 38.8885 7.64205C38.5893 7.82765 38.3468 8.08523 38.1612 8.41477C37.9794 8.74053 37.8885 9.11742 37.8885 9.54545V15H36.5476Z" fill="#F32851"/>
<path d="M26.5252 61.6195C26.8435 62.1626 26.8435 62.8374 26.5252 63.3805C25.6989 64.7909 24.7909 65.6989 23.3805 66.5252C22.8374 66.8435 22.1626 66.8435 21.6195 66.5252C20.2091 65.6989 19.3011 64.7909 18.4748 63.3805C18.1565 62.8374 18.1565 62.1626 18.4748 61.6195C19.3011 60.2091 20.2091 59.3011 21.6195 58.4748C22.1626 58.1565 22.8374 58.1565 23.3805 58.4748C24.7909 59.3011 25.6989 60.2091 26.5252 61.6195Z" fill="#F32851"/>
<path d="M8.52523 44.6195C8.84348 45.1626 8.84348 45.8374 8.52523 46.3805C7.69886 47.7909 6.79088 48.6989 5.38054 49.5252C4.83739 49.8435 4.16261 49.8435 3.61946 49.5252C2.20912 48.6989 1.30114 47.7909 0.474768 46.3805C0.15652 45.8374 0.15652 45.1626 0.474768 44.6195C1.30114 43.2091 2.20912 42.3011 3.61946 41.4748C4.16261 41.1565 4.83739 41.1565 5.38054 41.4748C6.79088 42.3011 7.69886 43.2091 8.52523 44.6195Z" fill="#F32851"/>
</svg>
