<svg width="56" height="106" viewBox="0 0 56 106" fill="none" xmlns="http://www.w3.org/2000/svg">
<rect x="4.5" y="21.5" width="51" height="84" rx="1.5" stroke="#535353"/>
<line x1="4" y1="37.4999" x2="56" y2="37.4999" stroke="#535353"/>
<line x1="4" y1="53.5" x2="56" y2="53.5" stroke="#535353"/>
<path d="M4 88H55" stroke="#535353"/>
<path d="M4 71H55.5" stroke="#535353"/>
<line x1="22.5" y1="21" x2="22.5" y2="106" stroke="#535353"/>
<path d="M39.5 21L39.5 106" stroke="#535353"/>
<path d="M19.527 15H18.0497L22.3224 3.36364H23.777L28.0497 15H26.5724L23.0952 5.20455H23.0043L19.527 15ZM20.0724 10.4545H26.027V11.7045H20.0724V10.4545ZM29.6804 15V6.27273H30.9759V7.63636H31.0895C31.2713 7.17045 31.5649 6.80871 31.9702 6.55114C32.3755 6.28977 32.8622 6.15909 33.4304 6.15909C34.0062 6.15909 34.4853 6.28977 34.8679 6.55114C35.2543 6.80871 35.5554 7.17045 35.7713 7.63636H35.8622C36.0857 7.18561 36.4209 6.82765 36.8679 6.5625C37.3149 6.29356 37.8509 6.15909 38.4759 6.15909C39.2562 6.15909 39.8944 6.40341 40.3906 6.89205C40.8868 7.37689 41.1349 8.13258 41.1349 9.15909V15H39.794V9.15909C39.794 8.51515 39.6179 8.05492 39.2656 7.77841C38.9134 7.50189 38.4986 7.36364 38.0213 7.36364C37.4077 7.36364 36.9323 7.54924 36.5952 7.92045C36.258 8.28788 36.0895 8.75379 36.0895 9.31818V15H34.7259V9.02273C34.7259 8.52652 34.5649 8.12689 34.2429 7.82386C33.9209 7.51705 33.5062 7.36364 32.9986 7.36364C32.6501 7.36364 32.3243 7.45644 32.0213 7.64205C31.7221 7.82765 31.4796 8.08523 31.294 8.41477C31.1122 8.74053 31.0213 9.11742 31.0213 9.54545V15H29.6804Z" fill="#F32851"/>
<path d="M8.52523 44.6195C8.84348 45.1626 8.84348 45.8374 8.52523 46.3805C7.69886 47.7909 6.79088 48.6989 5.38054 49.5252C4.83739 49.8435 4.16261 49.8435 3.61946 49.5252C2.20912 48.6989 1.30114 47.7909 0.474768 46.3805C0.15652 45.8374 0.15652 45.1626 0.474768 44.6195C1.30114 43.2091 2.20912 42.3011 3.61946 41.4748C4.16261 41.1565 4.83739 41.1565 5.38054 41.4748C6.79088 42.3011 7.69886 43.2091 8.52523 44.6195Z" fill="#F32851"/>
</svg>
