<svg width="59" height="106" viewBox="0 0 59 106" fill="none" xmlns="http://www.w3.org/2000/svg">
<rect x="3.5" y="21.5" width="51" height="84" rx="1.5" stroke="#535353"/>
<line x1="3" y1="37.4999" x2="55" y2="37.4999" stroke="#535353"/>
<line x1="3" y1="53.5" x2="55" y2="53.5" stroke="#535353"/>
<path d="M3 88H54" stroke="#535353"/>
<path d="M3 71H54.5" stroke="#535353"/>
<line x1="21.5" y1="21" x2="21.5" y2="106" stroke="#535353"/>
<path d="M38.5 21L38.5 106" stroke="#535353"/>
<path d="M13.5348 15H12.0575L16.3303 3.36364H17.7848L22.0575 15H20.5803L17.103 5.20455H17.0121L13.5348 15ZM14.0803 10.4545H20.0348V11.7045H14.0803V10.4545ZM23.6882 15V6.27273H24.9837V7.63636H25.0973C25.2791 7.17045 25.5727 6.80871 25.978 6.55114C26.3833 6.28977 26.87 6.15909 27.4382 6.15909C28.014 6.15909 28.4931 6.28977 28.8757 6.55114C29.2621 6.80871 29.5632 7.17045 29.7791 7.63636H29.87C30.0935 7.18561 30.4287 6.82765 30.8757 6.5625C31.3227 6.29356 31.8587 6.15909 32.4837 6.15909C33.264 6.15909 33.9022 6.40341 34.3984 6.89205C34.8947 7.37689 35.1428 8.13258 35.1428 9.15909V15H33.8018V9.15909C33.8018 8.51515 33.6257 8.05492 33.2734 7.77841C32.9212 7.50189 32.5064 7.36364 32.0291 7.36364C31.4155 7.36364 30.9401 7.54924 30.603 7.92045C30.2659 8.28788 30.0973 8.75379 30.0973 9.31818V15H28.7337V9.02273C28.7337 8.52652 28.5727 8.12689 28.2507 7.82386C27.9287 7.51705 27.514 7.36364 27.0064 7.36364C26.6579 7.36364 26.3321 7.45644 26.0291 7.64205C25.7299 7.82765 25.4875 8.08523 25.3018 8.41477C25.12 8.74053 25.0291 9.11742 25.0291 9.54545V15H23.6882ZM41.4354 15.1591C40.9581 15.1515 40.4808 15.0606 40.0036 14.8864C39.5263 14.7121 39.0907 14.4186 38.6967 14.0057C38.3028 13.589 37.9865 13.0265 37.7479 12.3182C37.5092 11.6061 37.3899 10.7121 37.3899 9.63636C37.3899 8.60606 37.4865 7.69318 37.6797 6.89773C37.8729 6.09848 38.1532 5.42614 38.5206 4.88068C38.888 4.33144 39.3312 3.91477 39.8501 3.63068C40.3729 3.34659 40.9619 3.20455 41.6172 3.20455C42.2687 3.20455 42.8482 3.33523 43.3558 3.59659C43.8672 3.85417 44.2839 4.21401 44.6058 4.67614C44.9278 5.13826 45.1361 5.67045 45.2308 6.27273H43.8445C43.7157 5.75 43.4657 5.31629 43.0945 4.97159C42.7232 4.62689 42.2308 4.45455 41.6172 4.45455C40.7157 4.45455 40.0054 4.84659 39.4865 5.63068C38.9714 6.41477 38.7119 7.51515 38.7081 8.93182H38.799C39.0111 8.60985 39.263 8.33523 39.5547 8.10795C39.8501 7.87689 40.1759 7.69886 40.532 7.57386C40.888 7.44886 41.2649 7.38636 41.6626 7.38636C42.3293 7.38636 42.9392 7.55303 43.4922 7.88636C44.0452 8.21591 44.4884 8.67235 44.8217 9.25568C45.1551 9.83523 45.3217 10.5 45.3217 11.25C45.3217 11.9697 45.1607 12.6288 44.8388 13.2273C44.5168 13.822 44.0642 14.2955 43.4808 14.6477C42.9013 14.9962 42.2195 15.1667 41.4354 15.1591ZM41.4354 13.9091C41.9126 13.9091 42.3407 13.7898 42.7195 13.5511C43.102 13.3125 43.4032 12.9924 43.6229 12.5909C43.8464 12.1894 43.9581 11.7424 43.9581 11.25C43.9581 10.7689 43.8501 10.3314 43.6342 9.9375C43.4221 9.53977 43.1286 9.22348 42.7536 8.98864C42.3823 8.75379 41.9581 8.63636 41.4808 8.63636C41.121 8.63636 40.7857 8.70833 40.4751 8.85227C40.1645 8.99242 39.8918 9.18561 39.657 9.43182C39.4259 9.67803 39.2441 9.96023 39.1115 10.2784C38.9789 10.5928 38.9126 10.9242 38.9126 11.2727C38.9126 11.7348 39.0206 12.1667 39.2365 12.5682C39.4562 12.9697 39.7554 13.2936 40.1342 13.5398C40.5168 13.786 40.9505 13.9091 41.4354 13.9091Z" fill="#F32851"/>
<path d="M58.5252 61.6195C58.8435 62.1626 58.8435 62.8374 58.5252 63.3805C57.6989 64.7909 56.7909 65.6989 55.3805 66.5252C54.8374 66.8435 54.1626 66.8435 53.6195 66.5252C52.2091 65.6989 51.3011 64.7909 50.4748 63.3805C50.1565 62.8374 50.1565 62.1626 50.4748 61.6195C51.3011 60.2091 52.2091 59.3011 53.6195 58.4748C54.1626 58.1565 54.8374 58.1565 55.3805 58.4748C56.7909 59.3011 57.6989 60.2091 58.5252 61.6195Z" fill="#F32851"/>
<path d="M25.5252 78.6195C25.8435 79.1626 25.8435 79.8374 25.5252 80.3805C24.6989 81.7909 23.7909 82.6989 22.3805 83.5252C21.8374 83.8435 21.1626 83.8435 20.6195 83.5252C19.2091 82.6989 18.3011 81.7909 17.4748 80.3805C17.1565 79.8374 17.1565 79.1626 17.4748 78.6195C18.3011 77.2091 19.2091 76.3011 20.6195 75.4748C21.1626 75.1565 21.8374 75.1565 22.3805 75.4748C23.7909 76.3011 24.6989 77.2091 25.5252 78.6195Z" fill="#F32851"/>
<path d="M3 45H55" stroke="#F32851" stroke-width="5" stroke-linecap="round"/>
</svg>
