<svg width="56" height="106" viewBox="0 0 56 106" fill="none" xmlns="http://www.w3.org/2000/svg">
<rect x="0.5" y="21.5" width="51" height="84" rx="1.5" stroke="#535353"/>
<line y1="37.4999" x2="52" y2="37.4999" stroke="#535353"/>
<line y1="53.5" x2="52" y2="53.5" stroke="#535353"/>
<path d="M0 88H51" stroke="#535353"/>
<path d="M0 71H51.5" stroke="#535353"/>
<line x1="18.5" y1="21" x2="18.5" y2="106" stroke="#535353"/>
<path d="M35.5 21L35.5 106" stroke="#535353"/>
<path d="M10.9567 15H9.4794L13.7521 3.36364H15.2067L19.4794 15H18.0021L14.5249 5.20455H14.4339L10.9567 15ZM11.5021 10.4545H17.4567V11.7045H11.5021V10.4545ZM21.1101 15V6.27273H22.4055V7.63636H22.5192C22.701 7.17045 22.9946 6.80871 23.3999 6.55114C23.8052 6.28977 24.2919 6.15909 24.8601 6.15909C25.4358 6.15909 25.915 6.28977 26.2976 6.55114C26.6839 6.80871 26.9851 7.17045 27.201 7.63636H27.2919C27.5154 7.18561 27.8506 6.82765 28.2976 6.5625C28.7446 6.29356 29.2805 6.15909 29.9055 6.15909C30.6858 6.15909 31.3241 6.40341 31.8203 6.89205C32.3165 7.37689 32.5646 8.13258 32.5646 9.15909V15H31.2237V9.15909C31.2237 8.51515 31.0476 8.05492 30.6953 7.77841C30.343 7.50189 29.9283 7.36364 29.451 7.36364C28.8374 7.36364 28.362 7.54924 28.0249 7.92045C27.6877 8.28788 27.5192 8.75379 27.5192 9.31818V15H26.1555V9.02273C26.1555 8.52652 25.9946 8.12689 25.6726 7.82386C25.3506 7.51705 24.9358 7.36364 24.4283 7.36364C24.0798 7.36364 23.754 7.45644 23.451 7.64205C23.1518 7.82765 22.9093 8.08523 22.7237 8.41477C22.5419 8.74053 22.451 9.11742 22.451 9.54545V15H21.1101ZM35.3572 15L40.5618 4.70455V4.61364H34.5618V3.36364H42.0163V4.68182L36.8345 15H35.3572Z" fill="#F32851"/>
<path d="M55.5252 61.6195C55.8435 62.1626 55.8435 62.8374 55.5252 63.3805C54.6989 64.7909 53.7909 65.6989 52.3805 66.5252C51.8374 66.8435 51.1626 66.8435 50.6195 66.5252C49.2091 65.6989 48.3011 64.7909 47.4748 63.3805C47.1565 62.8374 47.1565 62.1626 47.4748 61.6195C48.3011 60.2091 49.2091 59.3011 50.6195 58.4748C51.1626 58.1565 51.8374 58.1565 52.3805 58.4748C53.7909 59.3011 54.6989 60.2091 55.5252 61.6195Z" fill="#F32851"/>
<path d="M22.5252 78.6195C22.8435 79.1626 22.8435 79.8374 22.5252 80.3805C21.6989 81.7909 20.7909 82.6989 19.3805 83.5252C18.8374 83.8435 18.1626 83.8435 17.6195 83.5252C16.2091 82.6989 15.3011 81.7909 14.4748 80.3805C14.1565 79.8374 14.1565 79.1626 14.4748 78.6195C15.3011 77.2091 16.2091 76.3011 17.6195 75.4748C18.1626 75.1565 18.8374 75.1565 19.3805 75.4748C20.7909 76.3011 21.6989 77.2091 22.5252 78.6195Z" fill="#F32851"/>
<path d="M39.5252 61.6195C39.8435 62.1626 39.8435 62.8374 39.5252 63.3805C38.6989 64.7909 37.7909 65.6989 36.3805 66.5252C35.8374 66.8435 35.1626 66.8435 34.6195 66.5252C33.2091 65.6989 32.3011 64.7909 31.4748 63.3805C31.1565 62.8374 31.1565 62.1626 31.4748 61.6195C32.3011 60.2091 33.2091 59.3011 34.6195 58.4748C35.1626 58.1565 35.8374 58.1565 36.3805 58.4748C37.7909 59.3011 38.6989 60.2091 39.5252 61.6195Z" fill="#F32851"/>
</svg>
