<svg width="56" height="106" viewBox="0 0 56 106" fill="none" xmlns="http://www.w3.org/2000/svg">
<rect x="4.5" y="21.5" width="51" height="84" rx="1.5" stroke="#535353"/>
<line x1="4" y1="37.4999" x2="56" y2="37.4999" stroke="#535353"/>
<line x1="4" y1="53.5" x2="56" y2="53.5" stroke="#535353"/>
<path d="M4 88H55" stroke="#535353"/>
<path d="M4 71H55.5" stroke="#535353"/>
<line x1="22.5" y1="21" x2="22.5" y2="106" stroke="#535353"/>
<path d="M39.5 21L39.5 106" stroke="#535353"/>
<path d="M8.55043 15H7.07315L11.3459 3.36364H12.8004L17.0732 15H15.5959L12.1186 5.20455H12.0277L8.55043 15ZM9.09588 10.4545H15.0504V11.7045H9.09588V10.4545ZM18.7038 15V6.27273H19.9993V7.63636H20.1129C20.2947 7.17045 20.5883 6.80871 20.9936 6.55114C21.3989 6.28977 21.8857 6.15909 22.4538 6.15909C23.0296 6.15909 23.5088 6.28977 23.8913 6.55114C24.2777 6.80871 24.5788 7.17045 24.7947 7.63636H24.8857C25.1091 7.18561 25.4444 6.82765 25.8913 6.5625C26.3383 6.29356 26.8743 6.15909 27.4993 6.15909C28.2796 6.15909 28.9179 6.40341 29.4141 6.89205C29.9103 7.37689 30.1584 8.13258 30.1584 9.15909V15H28.8175V9.15909C28.8175 8.51515 28.6413 8.05492 28.2891 7.77841C27.9368 7.50189 27.522 7.36364 27.0447 7.36364C26.4311 7.36364 25.9557 7.54924 25.6186 7.92045C25.2815 8.28788 25.1129 8.75379 25.1129 9.31818V15H23.7493V9.02273C23.7493 8.52652 23.5883 8.12689 23.2663 7.82386C22.9444 7.51705 22.5296 7.36364 22.022 7.36364C21.6735 7.36364 21.3478 7.45644 21.0447 7.64205C20.7455 7.82765 20.5031 8.08523 20.3175 8.41477C20.1357 8.74053 20.0447 9.11742 20.0447 9.54545V15H18.7038ZM35.1783 15.2045C34.6252 15.2045 34.1233 15.1004 33.6726 14.892C33.2218 14.6799 32.8639 14.375 32.5987 13.9773C32.3336 13.5758 32.201 13.0909 32.201 12.5227C32.201 12.0227 32.2995 11.6174 32.4964 11.3068C32.6934 10.9924 32.9567 10.7462 33.2862 10.5682C33.6158 10.3902 33.9794 10.2576 34.3771 10.1705C34.7786 10.0795 35.1821 10.0076 35.5874 9.95455C36.1177 9.88636 36.5476 9.83523 36.8771 9.80114C37.2105 9.76326 37.4529 9.70076 37.6044 9.61364C37.7597 9.52652 37.8374 9.375 37.8374 9.15909V9.11364C37.8374 8.55303 37.6839 8.11742 37.3771 7.80682C37.0741 7.49621 36.6139 7.34091 35.9964 7.34091C35.3563 7.34091 34.8544 7.48106 34.4908 7.76136C34.1271 8.04167 33.8714 8.34091 33.7237 8.65909L32.451 8.20455C32.6783 7.67424 32.9813 7.26136 33.3601 6.96591C33.7427 6.66667 34.1593 6.45833 34.6101 6.34091C35.0646 6.2197 35.5116 6.15909 35.951 6.15909C36.2313 6.15909 36.5533 6.19318 36.9169 6.26136C37.2843 6.32576 37.6385 6.46023 37.9794 6.66477C38.3241 6.86932 38.6101 7.17803 38.8374 7.59091C39.0646 8.00379 39.1783 8.55682 39.1783 9.25V15H37.8374V13.8182H37.7692C37.6783 14.0076 37.5268 14.2102 37.3146 14.4261C37.1025 14.642 36.8203 14.8258 36.468 14.9773C36.1158 15.1288 35.6858 15.2045 35.1783 15.2045ZM35.3828 14C35.9131 14 36.3601 13.8958 36.7237 13.6875C37.0911 13.4792 37.3677 13.2102 37.5533 12.8807C37.7427 12.5511 37.8374 12.2045 37.8374 11.8409V10.6136C37.7805 10.6818 37.6555 10.7443 37.4624 10.8011C37.273 10.8542 37.0533 10.9015 36.8033 10.9432C36.5571 10.9811 36.3165 11.0152 36.0817 11.0455C35.8506 11.072 35.6631 11.0947 35.5192 11.1136C35.1707 11.1591 34.8449 11.233 34.5419 11.3352C34.2427 11.4337 34.0002 11.5833 33.8146 11.7841C33.6328 11.9811 33.5419 12.25 33.5419 12.5909C33.5419 13.0568 33.7143 13.4091 34.0589 13.6477C34.4074 13.8826 34.8487 14 35.3828 14ZM41.6257 6.27273H42.9666V15.6364C42.9666 16.1742 42.8738 16.6402 42.6882 17.0341C42.5064 17.428 42.2299 17.733 41.8587 17.9489C41.4912 18.1648 41.0272 18.2727 40.4666 18.2727C40.4212 18.2727 40.3757 18.2727 40.3303 18.2727C40.2848 18.2727 40.2393 18.2727 40.1939 18.2727V17.0227C40.2393 17.0227 40.281 17.0227 40.3189 17.0227C40.3568 17.0227 40.3984 17.0227 40.4439 17.0227C40.853 17.0227 41.1522 16.9015 41.3416 16.6591C41.531 16.4205 41.6257 16.0795 41.6257 15.6364V6.27273ZM42.2848 4.81818C42.0234 4.81818 41.7981 4.72917 41.6087 4.55114C41.4231 4.37311 41.3303 4.15909 41.3303 3.90909C41.3303 3.65909 41.4231 3.44508 41.6087 3.26705C41.7981 3.08902 42.0234 3 42.2848 3C42.5462 3 42.7696 3.08902 42.9553 3.26705C43.1446 3.44508 43.2393 3.65909 43.2393 3.90909C43.2393 4.15909 43.1446 4.37311 42.9553 4.55114C42.7696 4.72917 42.5462 4.81818 42.2848 4.81818ZM45.7635 15L50.968 4.70455V4.61364H44.968V3.36364H52.4226V4.68182L47.2408 15H45.7635Z" fill="#F32851"/>
<path d="M26.5252 28.6195C26.8435 29.1626 26.8435 29.8374 26.5252 30.3805C25.6989 31.7909 24.7909 32.6989 23.3805 33.5252C22.8374 33.8435 22.1626 33.8435 21.6195 33.5252C20.2091 32.6989 19.3011 31.7909 18.4748 30.3805C18.1565 29.8374 18.1565 29.1626 18.4748 28.6195C19.3011 27.2091 20.2091 26.3011 21.6195 25.4748C22.1626 25.1565 22.8374 25.1565 23.3805 25.4748C24.7909 26.3011 25.6989 27.2091 26.5252 28.6195Z" fill="#F32851"/>
<path d="M8.52523 28.6195C8.84348 29.1626 8.84348 29.8374 8.52523 30.3805C7.69886 31.7909 6.79088 32.6989 5.38054 33.5252C4.83739 33.8435 4.16261 33.8435 3.61946 33.5252C2.20912 32.6989 1.30114 31.7909 0.474768 30.3805C0.15652 29.8374 0.15652 29.1626 0.474768 28.6195C1.30114 27.2091 2.20912 26.3011 3.61946 25.4748C4.16261 25.1565 4.83739 25.1565 5.38054 25.4748C6.79088 26.3011 7.69886 27.2091 8.52523 28.6195Z" fill="#F32851"/>
</svg>
