<svg width="60" height="106" viewBox="0 0 60 106" fill="none" xmlns="http://www.w3.org/2000/svg">
<rect x="4.5" y="21.5" width="51" height="84" rx="1.5" stroke="#535353"/>
<line x1="4" y1="37.4999" x2="56" y2="37.4999" stroke="#535353"/>
<line x1="4" y1="53.5" x2="56" y2="53.5" stroke="#535353"/>
<path d="M4 88H55" stroke="#535353"/>
<path d="M4 71H55.5" stroke="#535353"/>
<line x1="22.5" y1="21" x2="22.5" y2="106" stroke="#535353"/>
<path d="M39.5 21L39.5 106" stroke="#535353"/>
<path d="M21.4332 15H19.956L24.2287 3.36364H25.6832L29.956 15H28.4787L25.0014 5.20455H24.9105L21.4332 15ZM21.9787 10.4545H27.9332V11.7045H21.9787V10.4545ZM35.9276 15L37.8366 3.36364H38.973L37.0639 15H35.9276ZM30.6321 11.7727L30.8139 10.6364H39.4957L39.3139 11.7727H30.6321ZM31.8366 15L33.7457 3.36364H34.8821L32.973 15H31.8366ZM31.3139 7.72727L31.4957 6.59091H40.1776L39.9957 7.72727H31.3139Z" fill="#F32851"/>
<path d="M43.5252 28.6195C43.8435 29.1626 43.8435 29.8374 43.5252 30.3805C42.6989 31.7909 41.7909 32.6989 40.3805 33.5252C39.8374 33.8435 39.1626 33.8435 38.6195 33.5252C37.2091 32.6989 36.3011 31.7909 35.4748 30.3805C35.1565 29.8374 35.1565 29.1626 35.4748 28.6195C36.3011 27.2091 37.2091 26.3011 38.6195 25.4748C39.1626 25.1565 39.8374 25.1565 40.3805 25.4748C41.7909 26.3011 42.6989 27.2091 43.5252 28.6195Z" fill="#F32851"/>
<path d="M8.52523 61.6195C8.84348 62.1626 8.84348 62.8374 8.52523 63.3805C7.69886 64.7909 6.79088 65.6989 5.38054 66.5252C4.83739 66.8435 4.16261 66.8435 3.61946 66.5252C2.20912 65.6989 1.30114 64.7909 0.474768 63.3805C0.15652 62.8374 0.15652 62.1626 0.474768 61.6195C1.30114 60.2091 2.20912 59.3011 3.61946 58.4748C4.16261 58.1565 4.83739 58.1565 5.38054 58.4748C6.79088 59.3011 7.69886 60.2091 8.52523 61.6195Z" fill="#F32851"/>
<path d="M59.5252 28.6195C59.8435 29.1626 59.8435 29.8374 59.5252 30.3805C58.6989 31.7909 57.7909 32.6989 56.3805 33.5252C55.8374 33.8435 55.1626 33.8435 54.6195 33.5252C53.2091 32.6989 52.3011 31.7909 51.4748 30.3805C51.1565 29.8374 51.1565 29.1626 51.4748 28.6195C52.3011 27.2091 53.2091 26.3011 54.6195 25.4748C55.1626 25.1565 55.8374 25.1565 56.3805 25.4748C57.7909 26.3011 58.6989 27.2091 59.5252 28.6195Z" fill="#F32851"/>
<path d="M26.5252 44.6195C26.8435 45.1626 26.8435 45.8374 26.5252 46.3805C25.6989 47.7909 24.7909 48.6989 23.3805 49.5252C22.8374 49.8435 22.1626 49.8435 21.6195 49.5252C20.2091 48.6989 19.3011 47.7909 18.4748 46.3805C18.1565 45.8374 18.1565 45.1626 18.4748 44.6195C19.3011 43.2091 20.2091 42.3011 21.6195 41.4748C22.1626 41.1565 22.8374 41.1565 23.3805 41.4748C24.7909 42.3011 25.6989 43.2091 26.5252 44.6195Z" fill="#F32851"/>
</svg>
