<svg width="56" height="106" viewBox="0 0 56 106" fill="none" xmlns="http://www.w3.org/2000/svg">
<rect x="0.5" y="21.5" width="51" height="84" rx="1.5" stroke="#535353"/>
<line y1="37.4999" x2="52" y2="37.4999" stroke="#535353"/>
<line y1="53.5" x2="52" y2="53.5" stroke="#535353"/>
<path d="M0 88H51" stroke="#535353"/>
<path d="M0 71H51.5" stroke="#535353"/>
<line x1="18.5" y1="21" x2="18.5" y2="106" stroke="#535353"/>
<path d="M35.5 21L35.5 106" stroke="#535353"/>
<path d="M12.5661 15H11.0888L15.3615 3.36364H16.8161L21.0888 15H19.6115L16.1342 5.20455H16.0433L12.5661 15ZM13.1115 10.4545H19.0661V11.7045H13.1115V10.4545ZM27.0604 15L28.9695 3.36364H30.1058L28.1967 15H27.0604ZM21.7649 11.7727L21.9467 10.6364H30.6286L30.4467 11.7727H21.7649ZM22.9695 15L24.8786 3.36364H26.0149L24.1058 15H22.9695ZM22.4467 7.72727L22.6286 6.59091H31.3104L31.1286 7.72727H22.4467ZM36.4268 15.1591C35.7602 15.1591 35.1598 15.0265 34.6257 14.7614C34.0916 14.4962 33.6636 14.1326 33.3416 13.6705C33.0196 13.2083 32.8435 12.6818 32.8132 12.0909H34.1768C34.2299 12.6174 34.4685 13.053 34.8928 13.3977C35.3208 13.7386 35.8321 13.9091 36.4268 13.9091C36.9041 13.9091 37.3284 13.7973 37.6996 13.5739C38.0746 13.3504 38.3681 13.0436 38.5803 12.6534C38.7962 12.2595 38.9041 11.8144 38.9041 11.3182C38.9041 10.8106 38.7924 10.358 38.5689 9.96023C38.3492 9.55871 38.0462 9.24242 37.6598 9.01136C37.2734 8.7803 36.8321 8.66288 36.3359 8.65909C35.9799 8.6553 35.6143 8.71023 35.2393 8.82386C34.8643 8.93371 34.5556 9.07576 34.3132 9.25L32.995 9.09091L33.6996 3.36364H39.745V4.61364H34.8814L34.4723 8.04545H34.5405C34.7791 7.85606 35.0784 7.69886 35.4382 7.57386C35.7981 7.44886 36.1731 7.38636 36.5632 7.38636C37.2753 7.38636 37.9098 7.55682 38.4666 7.89773C39.0272 8.23485 39.4666 8.69697 39.7848 9.28409C40.1068 9.87121 40.2678 10.5417 40.2678 11.2955C40.2678 12.0379 40.1011 12.7008 39.7678 13.2841C39.4382 13.8636 38.9837 14.322 38.4041 14.6591C37.8246 14.9924 37.1655 15.1591 36.4268 15.1591Z" fill="#F32851"/>
<path d="M55.5252 28.6195C55.8435 29.1626 55.8435 29.8374 55.5252 30.3805C54.6989 31.7909 53.7909 32.6989 52.3805 33.5252C51.8374 33.8435 51.1626 33.8435 50.6195 33.5252C49.2091 32.6989 48.3011 31.7909 47.4748 30.3805C47.1565 29.8374 47.1565 29.1626 47.4748 28.6195C48.3011 27.2091 49.2091 26.3011 50.6195 25.4748C51.1626 25.1565 51.8374 25.1565 52.3805 25.4748C53.7909 26.3011 54.6989 27.2091 55.5252 28.6195Z" fill="#F32851"/>
<path d="M39.5252 28.6195C39.8435 29.1626 39.8435 29.8374 39.5252 30.3805C38.6989 31.7909 37.7909 32.6989 36.3805 33.5252C35.8374 33.8435 35.1626 33.8435 34.6195 33.5252C33.2091 32.6989 32.3011 31.7909 31.4748 30.3805C31.1565 29.8374 31.1565 29.1626 31.4748 28.6195C32.3011 27.2091 33.2091 26.3011 34.6195 25.4748C35.1626 25.1565 35.8374 25.1565 36.3805 25.4748C37.7909 26.3011 38.6989 27.2091 39.5252 28.6195Z" fill="#F32851"/>
<path d="M16.407 17.2727L18.4979 20.8409L20.5888 17.2727H22.1342L19.3161 21.6364L22.1342 26H20.5888L18.4979 22.6136L16.407 26H14.8615L17.6342 21.6364L14.8615 17.2727H16.407Z" fill="#F32851"/>
</svg>
