<svg width="56" height="106" viewBox="0 0 56 106" fill="none" xmlns="http://www.w3.org/2000/svg">
<rect x="0.5" y="21.5" width="51" height="84" rx="1.5" stroke="#535353"/>
<line y1="37.4999" x2="52" y2="37.4999" stroke="#535353"/>
<line y1="53.5" x2="52" y2="53.5" stroke="#535353"/>
<path d="M0 88H51" stroke="#535353"/>
<path d="M0 71H51.5" stroke="#535353"/>
<line x1="18.5" y1="21" x2="18.5" y2="106" stroke="#535353"/>
<path d="M35.5 21L35.5 106" stroke="#535353"/>
<path d="M12.4411 15H10.9638L15.2365 3.36364H16.6911L20.9638 15H19.4865L16.0092 5.20455H15.9183L12.4411 15ZM12.9865 10.4545H18.9411V11.7045H12.9865V10.4545ZM26.9354 15L28.8445 3.36364H29.9808L28.0717 15H26.9354ZM21.6399 11.7727L21.8217 10.6364H30.5036L30.3217 11.7727H21.6399ZM22.8445 15L24.7536 3.36364H25.8899L23.9808 15H22.8445ZM22.3217 7.72727L22.5036 6.59091H31.1854L31.0036 7.72727H22.3217ZM36.5291 15.1591C36.0518 15.1515 35.5746 15.0606 35.0973 14.8864C34.62 14.7121 34.1844 14.4186 33.7905 14.0057C33.3965 13.589 33.0803 13.0265 32.8416 12.3182C32.603 11.6061 32.4837 10.7121 32.4837 9.63636C32.4837 8.60606 32.5803 7.69318 32.7734 6.89773C32.9666 6.09848 33.2469 5.42614 33.6143 4.88068C33.9818 4.33144 34.425 3.91477 34.9439 3.63068C35.4666 3.34659 36.0556 3.20455 36.7109 3.20455C37.3625 3.20455 37.942 3.33523 38.4496 3.59659C38.9609 3.85417 39.3776 4.21401 39.6996 4.67614C40.0215 5.13826 40.2299 5.67045 40.3246 6.27273H38.9382C38.8094 5.75 38.5594 5.31629 38.1882 4.97159C37.817 4.62689 37.3246 4.45455 36.7109 4.45455C35.8094 4.45455 35.0992 4.84659 34.5803 5.63068C34.0651 6.41477 33.8056 7.51515 33.8018 8.93182H33.8928C34.1049 8.60985 34.3568 8.33523 34.6484 8.10795C34.9439 7.87689 35.2696 7.69886 35.6257 7.57386C35.9818 7.44886 36.3587 7.38636 36.7564 7.38636C37.4231 7.38636 38.0329 7.55303 38.5859 7.88636C39.139 8.21591 39.5821 8.67235 39.9155 9.25568C40.2488 9.83523 40.4155 10.5 40.4155 11.25C40.4155 11.9697 40.2545 12.6288 39.9325 13.2273C39.6106 13.822 39.1579 14.2955 38.5746 14.6477C37.995 14.9962 37.3132 15.1667 36.5291 15.1591ZM36.5291 13.9091C37.0064 13.9091 37.4344 13.7898 37.8132 13.5511C38.1958 13.3125 38.4969 12.9924 38.7166 12.5909C38.9401 12.1894 39.0518 11.7424 39.0518 11.25C39.0518 10.7689 38.9439 10.3314 38.728 9.9375C38.5159 9.53977 38.2223 9.22348 37.8473 8.98864C37.4761 8.75379 37.0518 8.63636 36.5746 8.63636C36.2147 8.63636 35.8795 8.70833 35.5689 8.85227C35.2583 8.99242 34.9856 9.18561 34.7507 9.43182C34.5196 9.67803 34.3378 9.96023 34.2053 10.2784C34.0727 10.5928 34.0064 10.9242 34.0064 11.2727C34.0064 11.7348 34.1143 12.1667 34.3303 12.5682C34.55 12.9697 34.8492 13.2936 35.228 13.5398C35.6106 13.786 36.0443 13.9091 36.5291 13.9091Z" fill="#F32851"/>
<path d="M39.5252 28.6195C39.8435 29.1626 39.8435 29.8374 39.5252 30.3805C38.6989 31.7909 37.7909 32.6989 36.3805 33.5252C35.8374 33.8435 35.1626 33.8435 34.6195 33.5252C33.2091 32.6989 32.3011 31.7909 31.4748 30.3805C31.1565 29.8374 31.1565 29.1626 31.4748 28.6195C32.3011 27.2091 33.2091 26.3011 34.6195 25.4748C35.1626 25.1565 35.8374 25.1565 36.3805 25.4748C37.7909 26.3011 38.6989 27.2091 39.5252 28.6195Z" fill="#F32851"/>
<path d="M55.5252 28.6195C55.8435 29.1626 55.8435 29.8374 55.5252 30.3805C54.6989 31.7909 53.7909 32.6989 52.3805 33.5252C51.8374 33.8435 51.1626 33.8435 50.6195 33.5252C49.2091 32.6989 48.3011 31.7909 47.4748 30.3805C47.1565 29.8374 47.1565 29.1626 47.4748 28.6195C48.3011 27.2091 49.2091 26.3011 50.6195 25.4748C51.1626 25.1565 51.8374 25.1565 52.3805 25.4748C53.7909 26.3011 54.6989 27.2091 55.5252 28.6195Z" fill="#F32851"/>
<path d="M22.5252 44.6195C22.8435 45.1626 22.8435 45.8374 22.5252 46.3805C21.6989 47.7909 20.7909 48.6989 19.3805 49.5252C18.8374 49.8435 18.1626 49.8435 17.6195 49.5252C16.2091 48.6989 15.3011 47.7909 14.4748 46.3805C14.1565 45.8374 14.1565 45.1626 14.4748 44.6195C15.3011 43.2091 16.2091 42.3011 17.6195 41.4748C18.1626 41.1565 18.8374 41.1565 19.3805 41.4748C20.7909 42.3011 21.6989 43.2091 22.5252 44.6195Z" fill="#F32851"/>
</svg>
