<svg width="58" height="106" viewBox="0 0 58 106" fill="none" xmlns="http://www.w3.org/2000/svg">
<rect x="3.5" y="21.5" width="51" height="84" rx="1.5" stroke="#535353"/>
<line x1="3" y1="37.4999" x2="55" y2="37.4999" stroke="#535353"/>
<line x1="3" y1="53.5" x2="55" y2="53.5" stroke="#535353"/>
<path d="M3 88H54" stroke="#535353"/>
<path d="M3 71H54.5" stroke="#535353"/>
<line x1="21.5" y1="21" x2="21.5" y2="106" stroke="#535353"/>
<path d="M38.5 21L38.5 106" stroke="#535353"/>
<path d="M15.8629 15H14.3857L18.6584 3.36364H20.1129L24.3857 15H22.9084L19.4311 5.20455H19.3402L15.8629 15ZM16.4084 10.4545H22.3629V11.7045H16.4084V10.4545ZM30.3572 15L32.2663 3.36364H33.4027L31.4936 15H30.3572ZM25.0618 11.7727L25.2436 10.6364H33.9254L33.7436 11.7727H25.0618ZM26.2663 15L28.1754 3.36364H29.3118L27.4027 15H26.2663ZM25.7436 7.72727L25.9254 6.59091H34.6072L34.4254 7.72727H25.7436ZM36.451 15L41.6555 4.70455V4.61364H35.6555V3.36364H43.1101V4.68182L37.9283 15H36.451Z" fill="#F32851"/>
<path d="M25.5252 45.6195C25.8435 46.1626 25.8435 46.8374 25.5252 47.3805C24.6989 48.7909 23.7909 49.6989 22.3805 50.5252C21.8374 50.8435 21.1626 50.8435 20.6195 50.5252C19.2091 49.6989 18.3011 48.7909 17.4748 47.3805C17.1565 46.8374 17.1565 46.1626 17.4748 45.6195C18.3011 44.2091 19.2091 43.3011 20.6195 42.4748C21.1626 42.1565 21.8374 42.1565 22.3805 42.4748C23.7909 43.3011 24.6989 44.2091 25.5252 45.6195Z" fill="#F32851"/>
<path d="M3 30H55" stroke="#F32851" stroke-width="5" stroke-linecap="round"/>
</svg>
