<svg width="60" height="106" viewBox="0 0 60 106" fill="none" xmlns="http://www.w3.org/2000/svg">
<rect x="4.5" y="21.5" width="51" height="84" rx="1.5" stroke="#535353"/>
<line x1="4" y1="37.4999" x2="56" y2="37.4999" stroke="#535353"/>
<line x1="4" y1="53.5" x2="56" y2="53.5" stroke="#535353"/>
<path d="M4 88H55" stroke="#535353"/>
<path d="M4 71H55.5" stroke="#535353"/>
<line x1="22.5" y1="21" x2="22.5" y2="106" stroke="#535353"/>
<path d="M39.5 21L39.5 106" stroke="#535353"/>
<path d="M7.61293 15H6.13565L10.4084 3.36364H11.8629L16.1357 15H14.6584L11.1811 5.20455H11.0902L7.61293 15ZM8.15838 10.4545H14.1129V11.7045H8.15838V10.4545ZM22.1072 15L24.0163 3.36364H25.1527L23.2436 15H22.1072ZM16.8118 11.7727L16.9936 10.6364H25.6754L25.4936 11.7727H16.8118ZM18.0163 15L19.9254 3.36364H21.0618L19.1527 15H18.0163ZM17.4936 7.72727L17.6754 6.59091H26.3572L26.1754 7.72727H17.4936ZM31.1555 15.1818C30.4283 15.1818 29.7862 14.9981 29.2294 14.6307C28.6726 14.2595 28.237 13.7367 27.9226 13.0625C27.6082 12.3845 27.451 11.5833 27.451 10.6591C27.451 9.74242 27.6082 8.94697 27.9226 8.27273C28.237 7.59848 28.6745 7.07765 29.2351 6.71023C29.7957 6.3428 30.4434 6.15909 31.1783 6.15909C31.7464 6.15909 32.1953 6.25379 32.5249 6.44318C32.8582 6.62879 33.112 6.84091 33.2862 7.07955C33.4643 7.31439 33.6025 7.50758 33.701 7.65909H33.8146V3.36364H35.1555V15H33.8601V13.6591H33.701C33.6025 13.8182 33.4624 14.0189 33.2805 14.2614C33.0987 14.5 32.8393 14.714 32.5021 14.9034C32.165 15.089 31.7161 15.1818 31.1555 15.1818ZM31.3374 13.9773C31.8752 13.9773 32.3298 13.8371 32.701 13.5568C33.0722 13.2727 33.3544 12.8807 33.5476 12.3807C33.7408 11.8769 33.8374 11.2955 33.8374 10.6364C33.8374 9.98485 33.7427 9.41477 33.5533 8.92614C33.3639 8.43371 33.0836 8.05114 32.7124 7.77841C32.3411 7.50189 31.8828 7.36364 31.3374 7.36364C30.7692 7.36364 30.2957 7.50947 29.9169 7.80114C29.5419 8.08902 29.2597 8.48106 29.0703 8.97727C28.8847 9.4697 28.7919 10.0227 28.7919 10.6364C28.7919 11.2576 28.8866 11.822 29.076 12.3295C29.2692 12.8333 29.5533 13.2348 29.9283 13.5341C30.3071 13.8295 30.7768 13.9773 31.3374 13.9773ZM37.7976 15V6.27273H39.1385V15H37.7976ZM38.4794 4.81818C38.218 4.81818 37.9927 4.72917 37.8033 4.55114C37.6177 4.37311 37.5249 4.15909 37.5249 3.90909C37.5249 3.65909 37.6177 3.44508 37.8033 3.26705C37.9927 3.08902 38.218 3 38.4794 3C38.7408 3 38.9643 3.08902 39.1499 3.26705C39.3393 3.44508 39.4339 3.65909 39.4339 3.90909C39.4339 4.15909 39.3393 4.37311 39.1499 4.55114C38.9643 4.72917 38.7408 4.81818 38.4794 4.81818ZM41.5945 15V6.27273H42.8899V7.63636H43.0036C43.1854 7.17045 43.4789 6.80871 43.8842 6.55114C44.2895 6.28977 44.7763 6.15909 45.3445 6.15909C45.9202 6.15909 46.3994 6.28977 46.782 6.55114C47.1683 6.80871 47.4695 7.17045 47.6854 7.63636H47.7763C47.9998 7.18561 48.335 6.82765 48.782 6.5625C49.2289 6.29356 49.7649 6.15909 50.3899 6.15909C51.1702 6.15909 51.8085 6.40341 52.3047 6.89205C52.8009 7.37689 53.049 8.13258 53.049 9.15909V15H51.7081V9.15909C51.7081 8.51515 51.532 8.05492 51.1797 7.77841C50.8274 7.50189 50.4126 7.36364 49.9354 7.36364C49.3217 7.36364 48.8464 7.54924 48.5092 7.92045C48.1721 8.28788 48.0036 8.75379 48.0036 9.31818V15H46.6399V9.02273C46.6399 8.52652 46.4789 8.12689 46.157 7.82386C45.835 7.51705 45.4202 7.36364 44.9126 7.36364C44.5642 7.36364 44.2384 7.45644 43.9354 7.64205C43.6361 7.82765 43.3937 8.08523 43.2081 8.41477C43.0263 8.74053 42.9354 9.11742 42.9354 9.54545V15H41.5945Z" fill="#F32851"/>
<path d="M26.5252 28.6195C26.8435 29.1626 26.8435 29.8374 26.5252 30.3805C25.6989 31.7909 24.7909 32.6989 23.3805 33.5252C22.8374 33.8435 22.1626 33.8435 21.6195 33.5252C20.2091 32.6989 19.3011 31.7909 18.4748 30.3805C18.1565 29.8374 18.1565 29.1626 18.4748 28.6195C19.3011 27.2091 20.2091 26.3011 21.6195 25.4748C22.1626 25.1565 22.8374 25.1565 23.3805 25.4748C24.7909 26.3011 25.6989 27.2091 26.5252 28.6195Z" fill="#F32851"/>
<path d="M59.5252 28.6195C59.8435 29.1626 59.8435 29.8374 59.5252 30.3805C58.6989 31.7909 57.7909 32.6989 56.3805 33.5252C55.8374 33.8435 55.1626 33.8435 54.6195 33.5252C53.2091 32.6989 52.3011 31.7909 51.4748 30.3805C51.1565 29.8374 51.1565 29.1626 51.4748 28.6195C52.3011 27.2091 53.2091 26.3011 54.6195 25.4748C55.1626 25.1565 55.8374 25.1565 56.3805 25.4748C57.7909 26.3011 58.6989 27.2091 59.5252 28.6195Z" fill="#F32851"/>
<path d="M8.52544 61.6195C8.84369 62.1626 8.84369 62.8374 8.52544 63.3805C7.69908 64.7909 6.79109 65.6989 5.38075 66.5252C4.83761 66.8435 4.16282 66.8435 3.61967 66.5252C2.20933 65.6989 1.30135 64.7909 0.47498 63.3805C0.156732 62.8374 0.156732 62.1626 0.47498 61.6195C1.30135 60.2091 2.20933 59.3011 3.61967 58.4748C4.16282 58.1565 4.83761 58.1565 5.38075 58.4748C6.79109 59.3011 7.69908 60.2091 8.52544 61.6195Z" fill="#F32851"/>
</svg>
