<svg width="55" height="106" viewBox="0 0 55 106" fill="none" xmlns="http://www.w3.org/2000/svg">
<rect x="0.5" y="21.5" width="51" height="84" rx="1.5" stroke="#535353"/>
<line y1="37.4999" x2="52" y2="37.4999" stroke="#535353"/>
<line y1="53.5" x2="52" y2="53.5" stroke="#535353"/>
<path d="M0 88H51" stroke="#535353"/>
<path d="M0 71H51.5" stroke="#535353"/>
<line x1="18.5" y1="21" x2="18.5" y2="106" stroke="#535353"/>
<path d="M35.5 21L35.5 106" stroke="#535353"/>
<path d="M5.48793 15H4.01065L8.28338 3.36364H9.73793L14.0107 15H12.5334L9.05611 5.20455H8.9652L5.48793 15ZM6.03338 10.4545H11.9879V11.7045H6.03338V10.4545ZM19.9822 15L21.8913 3.36364H23.0277L21.1186 15H19.9822ZM14.6868 11.7727L14.8686 10.6364H23.5504L23.3686 11.7727H14.6868ZM15.8913 15L17.8004 3.36364H18.9368L17.0277 15H15.8913ZM15.3686 7.72727L15.5504 6.59091H24.2322L24.0504 7.72727H15.3686ZM25.7351 15V6.27273H27.0305V7.63636H27.1442C27.326 7.17045 27.6196 6.80871 28.0249 6.55114C28.4302 6.28977 28.9169 6.15909 29.4851 6.15909C30.0608 6.15909 30.54 6.28977 30.9226 6.55114C31.3089 6.80871 31.6101 7.17045 31.826 7.63636H31.9169C32.1404 7.18561 32.4756 6.82765 32.9226 6.5625C33.3696 6.29356 33.9055 6.15909 34.5305 6.15909C35.3108 6.15909 35.9491 6.40341 36.4453 6.89205C36.9415 7.37689 37.1896 8.13258 37.1896 9.15909V15H35.8487V9.15909C35.8487 8.51515 35.6726 8.05492 35.3203 7.77841C34.968 7.50189 34.5533 7.36364 34.076 7.36364C33.4624 7.36364 32.987 7.54924 32.6499 7.92045C32.3127 8.28788 32.1442 8.75379 32.1442 9.31818V15H30.7805V9.02273C30.7805 8.52652 30.6196 8.12689 30.2976 7.82386C29.9756 7.51705 29.5608 7.36364 29.0533 7.36364C28.7048 7.36364 28.379 7.45644 28.076 7.64205C27.7768 7.82765 27.5343 8.08523 27.3487 8.41477C27.1669 8.74053 27.076 9.11742 27.076 9.54545V15H25.7351ZM43.4822 15.1591C43.005 15.1515 42.5277 15.0606 42.0504 14.8864C41.5732 14.7121 41.1375 14.4186 40.7436 14.0057C40.3497 13.589 40.0334 13.0265 39.7947 12.3182C39.5561 11.6061 39.4368 10.7121 39.4368 9.63636C39.4368 8.60606 39.5334 7.69318 39.7266 6.89773C39.9197 6.09848 40.2 5.42614 40.5675 4.88068C40.9349 4.33144 41.3781 3.91477 41.897 3.63068C42.4197 3.34659 43.0088 3.20455 43.6641 3.20455C44.3156 3.20455 44.8951 3.33523 45.4027 3.59659C45.9141 3.85417 46.3307 4.21401 46.6527 4.67614C46.9747 5.13826 47.183 5.67045 47.2777 6.27273H45.8913C45.7625 5.75 45.5125 5.31629 45.1413 4.97159C44.7701 4.62689 44.2777 4.45455 43.6641 4.45455C42.7625 4.45455 42.0523 4.84659 41.5334 5.63068C41.0182 6.41477 40.7588 7.51515 40.755 8.93182H40.8459C41.058 8.60985 41.3099 8.33523 41.6016 8.10795C41.897 7.87689 42.2228 7.69886 42.5788 7.57386C42.9349 7.44886 43.3118 7.38636 43.7095 7.38636C44.3762 7.38636 44.986 7.55303 45.5391 7.88636C46.0921 8.21591 46.5353 8.67235 46.8686 9.25568C47.2019 9.83523 47.3686 10.5 47.3686 11.25C47.3686 11.9697 47.2076 12.6288 46.8857 13.2273C46.5637 13.822 46.111 14.2955 45.5277 14.6477C44.9482 14.9962 44.2663 15.1667 43.4822 15.1591ZM43.4822 13.9091C43.9595 13.9091 44.3875 13.7898 44.7663 13.5511C45.1489 13.3125 45.45 12.9924 45.6697 12.5909C45.8932 12.1894 46.005 11.7424 46.005 11.25C46.005 10.7689 45.897 10.3314 45.6811 9.9375C45.469 9.53977 45.1754 9.22348 44.8004 8.98864C44.4292 8.75379 44.005 8.63636 43.5277 8.63636C43.1679 8.63636 42.8326 8.70833 42.522 8.85227C42.2114 8.99242 41.9387 9.18561 41.7038 9.43182C41.4728 9.67803 41.291 9.96023 41.1584 10.2784C41.0258 10.5928 40.9595 10.9242 40.9595 11.2727C40.9595 11.7348 41.0675 12.1667 41.2834 12.5682C41.5031 12.9697 41.8023 13.2936 42.1811 13.5398C42.5637 13.786 42.9974 13.9091 43.4822 13.9091Z" fill="#F32851"/>
<path d="M18 29L52 29" stroke="#F32851" stroke-width="5" stroke-linecap="round"/>
</svg>
