<svg width="60" height="106" viewBox="0 0 60 106" fill="none" xmlns="http://www.w3.org/2000/svg">
<rect x="4.5" y="21.5" width="51" height="84" rx="1.5" stroke="#535353"/>
<line x1="4" y1="37.4999" x2="56" y2="37.4999" stroke="#535353"/>
<line x1="4" y1="53.5" x2="56" y2="53.5" stroke="#535353"/>
<path d="M4 88H55" stroke="#535353"/>
<path d="M4 71H55.5" stroke="#535353"/>
<line x1="22.5" y1="21" x2="22.5" y2="106" stroke="#535353"/>
<path d="M39.5 21L39.5 106" stroke="#535353"/>
<path d="M9.48793 15H8.01065L12.2834 3.36364H13.7379L18.0107 15H16.5334L13.0561 5.20455H12.9652L9.48793 15ZM10.0334 10.4545H15.9879V11.7045H10.0334V10.4545ZM23.9822 15L25.8913 3.36364H27.0277L25.1186 15H23.9822ZM18.6868 11.7727L18.8686 10.6364H27.5504L27.3686 11.7727H18.6868ZM19.8913 15L21.8004 3.36364H22.9368L21.0277 15H19.8913ZM19.3686 7.72727L19.5504 6.59091H28.2322L28.0504 7.72727H19.3686ZM29.7351 15V6.27273H31.0305V7.63636H31.1442C31.326 7.17045 31.6196 6.80871 32.0249 6.55114C32.4302 6.28977 32.9169 6.15909 33.4851 6.15909C34.0608 6.15909 34.54 6.28977 34.9226 6.55114C35.3089 6.80871 35.6101 7.17045 35.826 7.63636H35.9169C36.1404 7.18561 36.4756 6.82765 36.9226 6.5625C37.3696 6.29356 37.9055 6.15909 38.5305 6.15909C39.3108 6.15909 39.9491 6.40341 40.4453 6.89205C40.9415 7.37689 41.1896 8.13258 41.1896 9.15909V15H39.8487V9.15909C39.8487 8.51515 39.6726 8.05492 39.3203 7.77841C38.968 7.50189 38.5533 7.36364 38.076 7.36364C37.4624 7.36364 36.987 7.54924 36.6499 7.92045C36.3127 8.28788 36.1442 8.75379 36.1442 9.31818V15H34.7805V9.02273C34.7805 8.52652 34.6196 8.12689 34.2976 7.82386C33.9756 7.51705 33.5608 7.36364 33.0533 7.36364C32.7048 7.36364 32.379 7.45644 32.076 7.64205C31.7768 7.82765 31.5343 8.08523 31.3487 8.41477C31.1669 8.74053 31.076 9.11742 31.076 9.54545V15H29.7351ZM47.3232 3.20455C47.8004 3.20833 48.2777 3.29924 48.755 3.47727C49.2322 3.6553 49.6679 3.95076 50.0618 4.36364C50.4557 4.77273 50.772 5.33144 51.0107 6.03977C51.2493 6.74811 51.3686 7.63636 51.3686 8.70455C51.3686 9.73864 51.2701 10.6572 51.0732 11.4602C50.88 12.2595 50.5997 12.9337 50.2322 13.483C49.8686 14.0322 49.4254 14.4489 48.9027 14.733C48.3838 15.017 47.7966 15.1591 47.1413 15.1591C46.4898 15.1591 45.9084 15.0303 45.397 14.7727C44.8894 14.5114 44.4728 14.1496 44.147 13.6875C43.825 13.2216 43.6186 12.6818 43.5277 12.0682H44.9141C45.0391 12.6023 45.2872 13.0436 45.6584 13.392C46.0334 13.7367 46.5277 13.9091 47.1413 13.9091C48.0391 13.9091 48.7474 13.517 49.2663 12.733C49.7891 11.9489 50.0504 10.8409 50.0504 9.40909H49.9595C49.7474 9.72727 49.4955 10.0019 49.2038 10.233C48.9122 10.464 48.5883 10.642 48.2322 10.767C47.8762 10.892 47.4974 10.9545 47.0959 10.9545C46.4292 10.9545 45.8175 10.7898 45.2607 10.4602C44.7076 10.1269 44.2644 9.67045 43.9311 9.09091C43.6016 8.50758 43.4368 7.84091 43.4368 7.09091C43.4368 6.37879 43.5959 5.72727 43.9141 5.13636C44.236 4.54167 44.6868 4.06818 45.2663 3.71591C45.8497 3.36364 46.5353 3.19318 47.3232 3.20455ZM47.3232 4.45455C46.8459 4.45455 46.416 4.57386 46.0334 4.8125C45.6546 5.04735 45.3535 5.36553 45.13 5.76705C44.9103 6.16477 44.8004 6.60606 44.8004 7.09091C44.8004 7.57576 44.9065 8.01705 45.1186 8.41477C45.3345 8.80871 45.6281 9.12311 45.9993 9.35795C46.3743 9.58902 46.8004 9.70455 47.2777 9.70455C47.6375 9.70455 47.9728 9.63447 48.2834 9.49432C48.594 9.35038 48.8648 9.1553 49.0959 8.90909C49.3307 8.65909 49.5144 8.37689 49.647 8.0625C49.7796 7.74432 49.8459 7.41288 49.8459 7.06818C49.8459 6.61364 49.736 6.1875 49.5163 5.78977C49.3004 5.39205 49.0012 5.07008 48.6186 4.82386C48.2398 4.57765 47.808 4.45455 47.3232 4.45455Z" fill="#F32851"/>
<path d="M43.5252 78.6195C43.8435 79.1626 43.8435 79.8374 43.5252 80.3805C42.6989 81.7909 41.7909 82.6989 40.3805 83.5252C39.8374 83.8435 39.1626 83.8435 38.6195 83.5252C37.2091 82.6989 36.3011 81.7909 35.4748 80.3805C35.1565 79.8374 35.1565 79.1626 35.4748 78.6195C36.3011 77.2091 37.2091 76.3011 38.6195 75.4748C39.1626 75.1565 39.8374 75.1565 40.3805 75.4748C41.7909 76.3011 42.6989 77.2091 43.5252 78.6195Z" fill="#F32851"/>
<path d="M8.52523 61.6195C8.84348 62.1626 8.84348 62.8374 8.52523 63.3805C7.69886 64.7909 6.79088 65.6989 5.38054 66.5252C4.83739 66.8435 4.16261 66.8435 3.61946 66.5252C2.20912 65.6989 1.30114 64.7909 0.474768 63.3805C0.15652 62.8374 0.15652 62.1626 0.474768 61.6195C1.30114 60.2091 2.20912 59.3011 3.61946 58.4748C4.16261 58.1565 4.83739 58.1565 5.38054 58.4748C6.79088 59.3011 7.69886 60.2091 8.52523 61.6195Z" fill="#F32851"/>
<path d="M59.5252 78.6195C59.8435 79.1626 59.8435 79.8374 59.5252 80.3805C58.6989 81.7909 57.7909 82.6989 56.3805 83.5252C55.8374 83.8435 55.1626 83.8435 54.6195 83.5252C53.2091 82.6989 52.3011 81.7909 51.4748 80.3805C51.1565 79.8374 51.1565 79.1626 51.4748 78.6195C52.3011 77.2091 53.2091 76.3011 54.6195 75.4748C55.1626 75.1565 55.8374 75.1565 56.3805 75.4748C57.7909 76.3011 58.6989 77.2091 59.5252 78.6195Z" fill="#F32851"/>
</svg>
