<svg width="59" height="106" viewBox="0 0 59 106" fill="none" xmlns="http://www.w3.org/2000/svg">
<rect x="4.5" y="21.5" width="51" height="84" rx="1.5" stroke="#535353"/>
<line x1="4" y1="37.4999" x2="56" y2="37.4999" stroke="#535353"/>
<line x1="4" y1="53.5" x2="56" y2="53.5" stroke="#535353"/>
<path d="M4 88H55" stroke="#535353"/>
<path d="M4 71H55.5" stroke="#535353"/>
<line x1="22.5" y1="21" x2="22.5" y2="106" stroke="#535353"/>
<path d="M39.5 21L39.5 106" stroke="#535353"/>
<path d="M6.81561 14H5.52299L9.26163 3.81818H10.5344L14.273 14H12.9804L9.93777 5.42898H9.85822L6.81561 14ZM7.29288 10.0227H12.5031V11.1165H7.29288V10.0227ZM19.4981 14L21.1686 3.81818H22.1629L20.4925 14H19.4981ZM14.8646 11.1761L15.0237 10.1818H22.6203L22.4612 11.1761H14.8646ZM15.9186 14L17.589 3.81818H18.5834L16.9129 14H15.9186ZM15.4612 7.63636L15.6203 6.64205H23.2169L23.0578 7.63636H15.4612ZM24.5319 14V6.36364H25.6654V7.55682H25.7648C25.9239 7.14915 26.1808 6.83262 26.5354 6.60724C26.8901 6.37855 27.316 6.2642 27.8131 6.2642C28.3169 6.2642 28.7362 6.37855 29.0709 6.60724C29.409 6.83262 29.6725 7.14915 29.8614 7.55682H29.941C30.1365 7.16241 30.4298 6.84919 30.8209 6.61719C31.212 6.38187 31.681 6.2642 32.2279 6.2642C32.9107 6.2642 33.4691 6.47798 33.9033 6.90554C34.3375 7.32978 34.5546 7.991 34.5546 8.8892V14H33.3813V8.8892C33.3813 8.32576 33.2272 7.92306 32.9189 7.68111C32.6107 7.43916 32.2478 7.31818 31.8302 7.31818C31.2932 7.31818 30.8773 7.48059 30.5823 7.8054C30.2873 8.12689 30.1398 8.53456 30.1398 9.02841V14H28.9466V8.76989C28.9466 8.3357 28.8058 7.98603 28.5241 7.72088C28.2423 7.45241 27.8794 7.31818 27.4353 7.31818C27.1304 7.31818 26.8453 7.39938 26.5802 7.56179C26.3183 7.72419 26.1062 7.94957 25.9438 8.23793C25.7847 8.52296 25.7052 8.85275 25.7052 9.22727V14H24.5319ZM38.947 14.179C38.4631 14.179 38.0239 14.0878 37.6295 13.9055C37.2351 13.7199 36.9219 13.4531 36.6899 13.1051C36.4579 12.7538 36.3419 12.3295 36.3419 11.8324C36.3419 11.3949 36.4281 11.0402 36.6004 10.7685C36.7728 10.4934 37.0031 10.2779 37.2915 10.1222C37.5798 9.96638 37.898 9.85038 38.246 9.77415C38.5973 9.6946 38.9503 9.63163 39.305 9.58523C39.769 9.52557 40.1452 9.48082 40.4335 9.45099C40.7252 9.41785 40.9373 9.36316 41.0699 9.28693C41.2058 9.2107 41.2737 9.07812 41.2737 8.8892V8.84943C41.2737 8.3589 41.1395 7.97775 40.871 7.70597C40.6059 7.43419 40.2032 7.2983 39.6629 7.2983C39.1028 7.2983 38.6636 7.42093 38.3454 7.66619C38.0273 7.91146 37.8035 8.1733 37.6743 8.4517L36.5606 8.05398C36.7595 7.58996 37.0247 7.22869 37.3561 6.97017C37.6908 6.70833 38.0554 6.52604 38.4498 6.4233C38.8476 6.31723 39.2387 6.2642 39.6231 6.2642C39.8684 6.2642 40.1501 6.29403 40.4683 6.35369C40.7898 6.41004 41.0997 6.5277 41.398 6.70668C41.6996 6.88565 41.9498 7.15578 42.1487 7.51705C42.3476 7.87831 42.447 8.36222 42.447 8.96875V14H41.2737V12.9659H41.214C41.1345 13.1316 41.0019 13.3089 40.8163 13.4979C40.6307 13.6868 40.3838 13.8475 40.0756 13.9801C39.7673 14.1127 39.3911 14.179 38.947 14.179ZM39.126 13.125C39.59 13.125 39.9811 13.0339 40.2993 12.8516C40.6208 12.6693 40.8627 12.4339 41.0251 12.1456C41.1908 11.8572 41.2737 11.554 41.2737 11.2358V10.1619C41.224 10.2216 41.1146 10.2763 40.9456 10.326C40.7799 10.3724 40.5876 10.4138 40.3689 10.4503C40.1534 10.4834 39.943 10.5133 39.7375 10.5398C39.5353 10.563 39.3712 10.5829 39.2453 10.5994C38.9404 10.6392 38.6553 10.7038 38.3902 10.7933C38.1283 10.8795 37.9162 11.0104 37.7538 11.1861C37.5947 11.3584 37.5152 11.5937 37.5152 11.892C37.5152 12.2997 37.666 12.608 37.9676 12.8168C38.2725 13.0223 38.6586 13.125 39.126 13.125ZM44.5885 6.36364H45.7618V14.5568C45.7618 15.0275 45.6806 15.4351 45.5182 15.7798C45.3591 16.1245 45.1172 16.3913 44.7923 16.5803C44.4709 16.7692 44.0648 16.8636 43.5743 16.8636C43.5345 16.8636 43.4948 16.8636 43.455 16.8636C43.4152 16.8636 43.3754 16.8636 43.3357 16.8636V15.7699C43.3754 15.7699 43.4119 15.7699 43.445 15.7699C43.4782 15.7699 43.5146 15.7699 43.5544 15.7699C43.9124 15.7699 44.1742 15.6638 44.3399 15.4517C44.5057 15.2429 44.5885 14.9446 44.5885 14.5568V6.36364ZM45.1652 5.09091C44.9365 5.09091 44.7393 5.01302 44.5736 4.85724C44.4112 4.70147 44.33 4.5142 44.33 4.29545C44.33 4.0767 44.4112 3.88944 44.5736 3.73366C44.7393 3.57789 44.9365 3.5 45.1652 3.5C45.3939 3.5 45.5895 3.57789 45.7519 3.73366C45.9176 3.88944 46.0004 4.0767 46.0004 4.29545C46.0004 4.5142 45.9176 4.70147 45.7519 4.85724C45.5895 5.01302 45.3939 5.09091 45.1652 5.09091ZM48.2091 14L52.7631 4.99148V4.91193H47.5131V3.81818H54.0358V4.97159L49.5017 14H48.2091Z" fill="#F32851"/>
<path d="M26.5252 44.6195C26.8435 45.1626 26.8435 45.8374 26.5252 46.3805C25.6989 47.7909 24.7909 48.6989 23.3805 49.5252C22.8374 49.8435 22.1626 49.8435 21.6195 49.5252C20.2091 48.6989 19.3011 47.7909 18.4748 46.3805C18.1565 45.8374 18.1565 45.1626 18.4748 44.6195C19.3011 43.2091 20.2091 42.3011 21.6195 41.4748C22.1626 41.1565 22.8374 41.1565 23.3805 41.4748C24.7909 42.3011 25.6989 43.2091 26.5252 44.6195Z" fill="#F32851"/>
<path d="M4 29H56" stroke="#F32851" stroke-width="5" stroke-linecap="round"/>
<path d="M8.52523 44.6195C8.84348 45.1626 8.84348 45.8374 8.52523 46.3805C7.69886 47.7909 6.79088 48.6989 5.38054 49.5252C4.83739 49.8435 4.16261 49.8435 3.61946 49.5252C2.20912 48.6989 1.30114 47.7909 0.474768 46.3805C0.15652 45.8374 0.15652 45.1626 0.474768 44.6195C1.30114 43.2091 2.20912 42.3011 3.61946 41.4748C4.16261 41.1565 4.83739 41.1565 5.38054 41.4748C6.79088 42.3011 7.69886 43.2091 8.52523 44.6195Z" fill="#F32851"/>
</svg>
