<svg width="58" height="106" viewBox="0 0 58 106" fill="none" xmlns="http://www.w3.org/2000/svg">
<rect x="3.5" y="21.5" width="51" height="84" rx="1.5" stroke="#535353"/>
<line x1="3" y1="37.4999" x2="55" y2="37.4999" stroke="#535353"/>
<line x1="3" y1="53.5" x2="55" y2="53.5" stroke="#535353"/>
<path d="M3 88H54" stroke="#535353"/>
<path d="M3 71H54.5" stroke="#535353"/>
<line x1="21.5" y1="21" x2="21.5" y2="106" stroke="#535353"/>
<path d="M38.5 21L38.5 106" stroke="#535353"/>
<path d="M20.6357 15V3.36364H24.7038C25.5144 3.36364 26.183 3.50379 26.7095 3.78409C27.236 4.06061 27.6281 4.43371 27.8857 4.90341C28.1432 5.36932 28.272 5.88636 28.272 6.45455C28.272 6.95455 28.183 7.36742 28.005 7.69318C27.8307 8.01894 27.5997 8.27652 27.3118 8.46591C27.0277 8.6553 26.719 8.79545 26.3857 8.88636V9C26.7417 9.02273 27.0997 9.14773 27.4595 9.375C27.8194 9.60227 28.1205 9.92803 28.3629 10.3523C28.6054 10.7765 28.7266 11.2955 28.7266 11.9091C28.7266 12.4924 28.594 13.017 28.3288 13.483C28.0637 13.9489 27.6451 14.3182 27.0732 14.5909C26.5012 14.8636 25.7569 15 24.8402 15H20.6357ZM22.0447 13.75H24.8402C25.7607 13.75 26.4141 13.572 26.8004 13.2159C27.1906 12.8561 27.3857 12.4205 27.3857 11.9091C27.3857 11.5152 27.2853 11.1515 27.0845 10.8182C26.8838 10.4811 26.5978 10.2121 26.2266 10.0114C25.8554 9.80682 25.416 9.70455 24.9084 9.70455H22.0447V13.75ZM22.0447 8.47727H24.6584C25.0826 8.47727 25.4652 8.39394 25.8061 8.22727C26.1508 8.06061 26.4235 7.82576 26.6243 7.52273C26.8288 7.2197 26.9311 6.86364 26.9311 6.45455C26.9311 5.94318 26.7531 5.50947 26.397 5.15341C26.041 4.79356 25.4766 4.61364 24.7038 4.61364H22.0447V8.47727ZM31.201 15L36.4055 4.70455V4.61364H30.4055V3.36364H37.8601V4.68182L32.6783 15H31.201Z" fill="#F32851"/>
<path d="M25.5252 61.6195C25.8435 62.1626 25.8435 62.8374 25.5252 63.3805C24.6989 64.7909 23.7909 65.6989 22.3805 66.5252C21.8374 66.8435 21.1626 66.8435 20.6195 66.5252C19.2091 65.6989 18.3011 64.7909 17.4748 63.3805C17.1565 62.8374 17.1565 62.1626 17.4748 61.6195C18.3011 60.2091 19.2091 59.3011 20.6195 58.4748C21.1626 58.1565 21.8374 58.1565 22.3805 58.4748C23.7909 59.3011 24.6989 60.2091 25.5252 61.6195Z" fill="#F32851"/>
<path d="M3 46H55" stroke="#F32851" stroke-width="5" stroke-linecap="round"/>
</svg>
