<svg width="60" height="106" viewBox="0 0 60 106" fill="none" xmlns="http://www.w3.org/2000/svg">
<rect x="4.5" y="21.5" width="51" height="84" rx="1.5" stroke="#535353"/>
<line x1="4" y1="37.4999" x2="56" y2="37.4999" stroke="#535353"/>
<line x1="4" y1="53.5" x2="56" y2="53.5" stroke="#535353"/>
<path d="M4 88H55" stroke="#535353"/>
<path d="M4 71H55.5" stroke="#535353"/>
<line x1="22.5" y1="21" x2="22.5" y2="106" stroke="#535353"/>
<path d="M39.5 21L39.5 106" stroke="#535353"/>
<path d="M21.2138 15V3.36364H25.282C26.0926 3.36364 26.7611 3.50379 27.2876 3.78409C27.8142 4.06061 28.2062 4.43371 28.4638 4.90341C28.7214 5.36932 28.8501 5.88636 28.8501 6.45455C28.8501 6.95455 28.7611 7.36742 28.5831 7.69318C28.4089 8.01894 28.1778 8.27652 27.8899 8.46591C27.6058 8.6553 27.2971 8.79545 26.9638 8.88636V9C27.3198 9.02273 27.6778 9.14773 28.0376 9.375C28.3975 9.60227 28.6986 9.92803 28.9411 10.3523C29.1835 10.7765 29.3047 11.2955 29.3047 11.9091C29.3047 12.4924 29.1721 13.017 28.907 13.483C28.6418 13.9489 28.2232 14.3182 27.6513 14.5909C27.0793 14.8636 26.335 15 25.4183 15H21.2138ZM22.6229 13.75H25.4183C26.3388 13.75 26.9922 13.572 27.3786 13.2159C27.7687 12.8561 27.9638 12.4205 27.9638 11.9091C27.9638 11.5152 27.8634 11.1515 27.6626 10.8182C27.4619 10.4811 27.1759 10.2121 26.8047 10.0114C26.4335 9.80682 25.9941 9.70455 25.4865 9.70455H22.6229V13.75ZM22.6229 8.47727H25.2365C25.6607 8.47727 26.0433 8.39394 26.3842 8.22727C26.7289 8.06061 27.0017 7.82576 27.2024 7.52273C27.407 7.2197 27.5092 6.86364 27.5092 6.45455C27.5092 5.94318 27.3312 5.50947 26.9751 5.15341C26.6191 4.79356 26.0547 4.61364 25.282 4.61364H22.6229V8.47727ZM35.12 3.20455C35.5973 3.20833 36.0746 3.29924 36.5518 3.47727C37.0291 3.6553 37.4647 3.95076 37.8587 4.36364C38.2526 4.77273 38.5689 5.33144 38.8075 6.03977C39.0462 6.74811 39.1655 7.63636 39.1655 8.70455C39.1655 9.73864 39.067 10.6572 38.87 11.4602C38.6768 12.2595 38.3965 12.9337 38.0291 13.483C37.6655 14.0322 37.2223 14.4489 36.6996 14.733C36.1806 15.017 35.5935 15.1591 34.9382 15.1591C34.2867 15.1591 33.7053 15.0303 33.1939 14.7727C32.6863 14.5114 32.2696 14.1496 31.9439 13.6875C31.6219 13.2216 31.4155 12.6818 31.3246 12.0682H32.7109C32.8359 12.6023 33.084 13.0436 33.4553 13.392C33.8303 13.7367 34.3246 13.9091 34.9382 13.9091C35.8359 13.9091 36.5443 13.517 37.0632 12.733C37.5859 11.9489 37.8473 10.8409 37.8473 9.40909H37.7564C37.5443 9.72727 37.2924 10.0019 37.0007 10.233C36.709 10.464 36.3852 10.642 36.0291 10.767C35.6731 10.892 35.2943 10.9545 34.8928 10.9545C34.2261 10.9545 33.6143 10.7898 33.0575 10.4602C32.5045 10.1269 32.0613 9.67045 31.728 9.09091C31.3984 8.50758 31.2337 7.84091 31.2337 7.09091C31.2337 6.37879 31.3928 5.72727 31.7109 5.13636C32.0329 4.54167 32.4837 4.06818 33.0632 3.71591C33.6465 3.36364 34.3321 3.19318 35.12 3.20455ZM35.12 4.45455C34.6428 4.45455 34.2128 4.57386 33.8303 4.8125C33.4515 5.04735 33.1503 5.36553 32.9268 5.76705C32.7071 6.16477 32.5973 6.60606 32.5973 7.09091C32.5973 7.57576 32.7034 8.01705 32.9155 8.41477C33.1314 8.80871 33.425 9.12311 33.7962 9.35795C34.1712 9.58902 34.5973 9.70455 35.0746 9.70455C35.4344 9.70455 35.7696 9.63447 36.0803 9.49432C36.3909 9.35038 36.6617 9.1553 36.8928 8.90909C37.1276 8.65909 37.3113 8.37689 37.4439 8.0625C37.5765 7.74432 37.6428 7.41288 37.6428 7.06818C37.6428 6.61364 37.5329 6.1875 37.3132 5.78977C37.0973 5.39205 36.7981 5.07008 36.4155 4.82386C36.0367 4.57765 35.6049 4.45455 35.12 4.45455Z" fill="#F32851"/>
<path d="M59.5252 78.6195C59.8435 79.1626 59.8435 79.8374 59.5252 80.3805C58.6989 81.7909 57.7909 82.6989 56.3805 83.5252C55.8374 83.8435 55.1626 83.8435 54.6195 83.5252C53.2091 82.6989 52.3011 81.7909 51.4748 80.3805C51.1565 79.8374 51.1565 79.1626 51.4748 78.6195C52.3011 77.2091 53.2091 76.3011 54.6195 75.4748C55.1626 75.1565 55.8374 75.1565 56.3805 75.4748C57.7909 76.3011 58.6989 77.2091 59.5252 78.6195Z" fill="#F32851"/>
<path d="M43.5252 95.6195C43.8435 96.1626 43.8435 96.8374 43.5252 97.3805C42.6989 98.7909 41.7909 99.6989 40.3805 100.525C39.8374 100.843 39.1626 100.843 38.6195 100.525C37.2091 99.6989 36.3011 98.7909 35.4748 97.3805C35.1565 96.8374 35.1565 96.1626 35.4748 95.6195C36.3011 94.2091 37.2091 93.3011 38.6195 92.4748C39.1626 92.1565 39.8374 92.1565 40.3805 92.4748C41.7909 93.3011 42.6989 94.2091 43.5252 95.6195Z" fill="#F32851"/>
<path d="M26.5252 61.6195C26.8435 62.1626 26.8435 62.8374 26.5252 63.3805C25.6989 64.7909 24.7909 65.6989 23.3805 66.5252C22.8374 66.8435 22.1626 66.8435 21.6195 66.5252C20.2091 65.6989 19.3011 64.7909 18.4748 63.3805C18.1565 62.8374 18.1565 62.1626 18.4748 61.6195C19.3011 60.2091 20.2091 59.3011 21.6195 58.4748C22.1626 58.1565 22.8374 58.1565 23.3805 58.4748C24.7909 59.3011 25.6989 60.2091 26.5252 61.6195Z" fill="#F32851"/>
<path d="M8.52523 78.6195C8.84348 79.1626 8.84348 79.8374 8.52523 80.3805C7.69886 81.7909 6.79088 82.6989 5.38054 83.5252C4.83739 83.8435 4.16261 83.8435 3.61946 83.5252C2.20912 82.6989 1.30114 81.7909 0.474768 80.3805C0.15652 79.8374 0.15652 79.1626 0.474768 78.6195C1.30114 77.2091 2.20912 76.3011 3.61946 75.4748C4.16261 75.1565 4.83739 75.1565 5.38054 75.4748C6.79088 76.3011 7.69886 77.2091 8.52523 78.6195Z" fill="#F32851"/>
</svg>
