<svg width="58" height="106" viewBox="0 0 58 106" fill="none" xmlns="http://www.w3.org/2000/svg">
<rect x="3.5" y="21.5" width="51" height="84" rx="1.5" stroke="#535353"/>
<line x1="3" y1="37.4999" x2="55" y2="37.4999" stroke="#535353"/>
<line x1="3" y1="53.5" x2="55" y2="53.5" stroke="#535353"/>
<path d="M3 88H54" stroke="#535353"/>
<path d="M3 71H54.5" stroke="#535353"/>
<line x1="21.5" y1="21" x2="21.5" y2="106" stroke="#535353"/>
<path d="M38.5 21L38.5 106" stroke="#535353"/>
<path d="M13.6825 15V3.36364H17.7507C18.5613 3.36364 19.2299 3.50379 19.7564 3.78409C20.2829 4.06061 20.675 4.43371 20.9325 4.90341C21.1901 5.36932 21.3189 5.88636 21.3189 6.45455C21.3189 6.95455 21.2299 7.36742 21.0518 7.69318C20.8776 8.01894 20.6465 8.27652 20.3587 8.46591C20.0746 8.6553 19.7659 8.79545 19.4325 8.88636V9C19.7886 9.02273 20.1465 9.14773 20.5064 9.375C20.8662 9.60227 21.1674 9.92803 21.4098 10.3523C21.6522 10.7765 21.7734 11.2955 21.7734 11.9091C21.7734 12.4924 21.6409 13.017 21.3757 13.483C21.1106 13.9489 20.692 14.3182 20.12 14.5909C19.5481 14.8636 18.8037 15 17.8871 15H13.6825ZM15.0916 13.75H17.8871C18.8075 13.75 19.4609 13.572 19.8473 13.2159C20.2375 12.8561 20.4325 12.4205 20.4325 11.9091C20.4325 11.5152 20.3321 11.1515 20.1314 10.8182C19.9306 10.4811 19.6446 10.2121 19.2734 10.0114C18.9022 9.80682 18.4628 9.70455 17.9553 9.70455H15.0916V13.75ZM15.0916 8.47727H17.7053C18.1295 8.47727 18.5121 8.39394 18.853 8.22727C19.1977 8.06061 19.4704 7.82576 19.6712 7.52273C19.8757 7.2197 19.978 6.86364 19.978 6.45455C19.978 5.94318 19.8 5.50947 19.4439 5.15341C19.0878 4.79356 18.5234 4.61364 17.7507 4.61364H15.0916V8.47727ZM23.907 15V6.27273H25.2024V7.63636H25.3161C25.4979 7.17045 25.7914 6.80871 26.1967 6.55114C26.602 6.28977 27.0888 6.15909 27.657 6.15909C28.2327 6.15909 28.7119 6.28977 29.0945 6.55114C29.4808 6.80871 29.782 7.17045 29.9979 7.63636H30.0888C30.3123 7.18561 30.6475 6.82765 31.0945 6.5625C31.5414 6.29356 32.0774 6.15909 32.7024 6.15909C33.4827 6.15909 34.121 6.40341 34.6172 6.89205C35.1134 7.37689 35.3615 8.13258 35.3615 9.15909V15H34.0206V9.15909C34.0206 8.51515 33.8445 8.05492 33.4922 7.77841C33.1399 7.50189 32.7251 7.36364 32.2479 7.36364C31.6342 7.36364 31.1589 7.54924 30.8217 7.92045C30.4846 8.28788 30.3161 8.75379 30.3161 9.31818V15H28.9524V9.02273C28.9524 8.52652 28.7914 8.12689 28.4695 7.82386C28.1475 7.51705 27.7327 7.36364 27.2251 7.36364C26.8767 7.36364 26.5509 7.45644 26.2479 7.64205C25.9486 7.82765 25.7062 8.08523 25.5206 8.41477C25.3388 8.74053 25.2479 9.11742 25.2479 9.54545V15H23.907ZM38.1541 15L43.3587 4.70455V4.61364H37.3587V3.36364H44.8132V4.68182L39.6314 15H38.1541Z" fill="#F32851"/>
<path d="M3 46H55" stroke="#F32851" stroke-width="5" stroke-linecap="round"/>
</svg>
