<svg width="59" height="106" viewBox="0 0 59 106" fill="none" xmlns="http://www.w3.org/2000/svg">
<rect x="4.5" y="21.5" width="51" height="84" rx="1.5" stroke="#535353"/>
<line x1="4" y1="37.4999" x2="56" y2="37.4999" stroke="#535353"/>
<line x1="4" y1="53.5" x2="56" y2="53.5" stroke="#535353"/>
<path d="M4 88H55" stroke="#535353"/>
<path d="M4 71H55.5" stroke="#535353"/>
<line x1="22.5" y1="21" x2="22.5" y2="106" stroke="#535353"/>
<path d="M39.5 21L39.5 106" stroke="#535353"/>
<path d="M8.27628 15V3.36364H12.3445C13.1551 3.36364 13.8236 3.50379 14.3501 3.78409C14.8767 4.06061 15.2687 4.43371 15.5263 4.90341C15.7839 5.36932 15.9126 5.88636 15.9126 6.45455C15.9126 6.95455 15.8236 7.36742 15.6456 7.69318C15.4714 8.01894 15.2403 8.27652 14.9524 8.46591C14.6683 8.6553 14.3596 8.79545 14.0263 8.88636V9C14.3823 9.02273 14.7403 9.14773 15.1001 9.375C15.46 9.60227 15.7611 9.92803 16.0036 10.3523C16.246 10.7765 16.3672 11.2955 16.3672 11.9091C16.3672 12.4924 16.2346 13.017 15.9695 13.483C15.7043 13.9489 15.2857 14.3182 14.7138 14.5909C14.1418 14.8636 13.3975 15 12.4808 15H8.27628ZM9.68537 13.75H12.4808C13.4013 13.75 14.0547 13.572 14.4411 13.2159C14.8312 12.8561 15.0263 12.4205 15.0263 11.9091C15.0263 11.5152 14.9259 11.1515 14.7251 10.8182C14.5244 10.4811 14.2384 10.2121 13.8672 10.0114C13.496 9.80682 13.0566 9.70455 12.549 9.70455H9.68537V13.75ZM9.68537 8.47727H12.299C12.7232 8.47727 13.1058 8.39394 13.4467 8.22727C13.7914 8.06061 14.0642 7.82576 14.2649 7.52273C14.4695 7.2197 14.5717 6.86364 14.5717 6.45455C14.5717 5.94318 14.3937 5.50947 14.0376 5.15341C13.6816 4.79356 13.1172 4.61364 12.3445 4.61364H9.68537V8.47727ZM18.5007 15V6.27273H19.7962V7.63636H19.9098C20.0916 7.17045 20.3852 6.80871 20.7905 6.55114C21.1958 6.28977 21.6825 6.15909 22.2507 6.15909C22.8265 6.15909 23.3056 6.28977 23.6882 6.55114C24.0746 6.80871 24.3757 7.17045 24.5916 7.63636H24.6825C24.906 7.18561 25.2412 6.82765 25.6882 6.5625C26.1352 6.29356 26.6712 6.15909 27.2962 6.15909C28.0765 6.15909 28.7147 6.40341 29.2109 6.89205C29.7072 7.37689 29.9553 8.13258 29.9553 9.15909V15H28.6143V9.15909C28.6143 8.51515 28.4382 8.05492 28.0859 7.77841C27.7337 7.50189 27.3189 7.36364 26.8416 7.36364C26.228 7.36364 25.7526 7.54924 25.4155 7.92045C25.0784 8.28788 24.9098 8.75379 24.9098 9.31818V15H23.5462V9.02273C23.5462 8.52652 23.3852 8.12689 23.0632 7.82386C22.7412 7.51705 22.3265 7.36364 21.8189 7.36364C21.4704 7.36364 21.1446 7.45644 20.8416 7.64205C20.5424 7.82765 20.3 8.08523 20.1143 8.41477C19.9325 8.74053 19.8416 9.11742 19.8416 9.54545V15H18.5007ZM34.9751 15.2045C34.4221 15.2045 33.9202 15.1004 33.4695 14.892C33.0187 14.6799 32.6607 14.375 32.3956 13.9773C32.1304 13.5758 31.9979 13.0909 31.9979 12.5227C31.9979 12.0227 32.0964 11.6174 32.2933 11.3068C32.4903 10.9924 32.7536 10.7462 33.0831 10.5682C33.4126 10.3902 33.7763 10.2576 34.174 10.1705C34.5755 10.0795 34.9789 10.0076 35.3842 9.95455C35.9145 9.88636 36.3445 9.83523 36.674 9.80114C37.0073 9.76326 37.2498 9.70076 37.4013 9.61364C37.5566 9.52652 37.6342 9.375 37.6342 9.15909V9.11364C37.6342 8.55303 37.4808 8.11742 37.174 7.80682C36.871 7.49621 36.4107 7.34091 35.7933 7.34091C35.1532 7.34091 34.6513 7.48106 34.2876 7.76136C33.924 8.04167 33.6683 8.34091 33.5206 8.65909L32.2479 8.20455C32.4751 7.67424 32.7782 7.26136 33.157 6.96591C33.5395 6.66667 33.9562 6.45833 34.407 6.34091C34.8615 6.2197 35.3085 6.15909 35.7479 6.15909C36.0282 6.15909 36.3501 6.19318 36.7138 6.26136C37.0812 6.32576 37.4354 6.46023 37.7763 6.66477C38.121 6.86932 38.407 7.17803 38.6342 7.59091C38.8615 8.00379 38.9751 8.55682 38.9751 9.25V15H37.6342V13.8182H37.5661C37.4751 14.0076 37.3236 14.2102 37.1115 14.4261C36.8994 14.642 36.6172 14.8258 36.2649 14.9773C35.9126 15.1288 35.4827 15.2045 34.9751 15.2045ZM35.1797 14C35.71 14 36.157 13.8958 36.5206 13.6875C36.888 13.4792 37.1645 13.2102 37.3501 12.8807C37.5395 12.5511 37.6342 12.2045 37.6342 11.8409V10.6136C37.5774 10.6818 37.4524 10.7443 37.2592 10.8011C37.0698 10.8542 36.8501 10.9015 36.6001 10.9432C36.3539 10.9811 36.1134 11.0152 35.8786 11.0455C35.6475 11.072 35.46 11.0947 35.3161 11.1136C34.9676 11.1591 34.6418 11.233 34.3388 11.3352C34.0395 11.4337 33.7971 11.5833 33.6115 11.7841C33.4297 11.9811 33.3388 12.25 33.3388 12.5909C33.3388 13.0568 33.5111 13.4091 33.8558 13.6477C34.2043 13.8826 34.6456 14 35.1797 14ZM41.4226 6.27273H42.7635V15.6364C42.7635 16.1742 42.6707 16.6402 42.4851 17.0341C42.3033 17.428 42.0268 17.733 41.6555 17.9489C41.2881 18.1648 40.8241 18.2727 40.2635 18.2727C40.218 18.2727 40.1726 18.2727 40.1271 18.2727C40.0817 18.2727 40.0362 18.2727 39.9908 18.2727V17.0227C40.0362 17.0227 40.0779 17.0227 40.1158 17.0227C40.1536 17.0227 40.1953 17.0227 40.2408 17.0227C40.6499 17.0227 40.9491 16.9015 41.1385 16.6591C41.3279 16.4205 41.4226 16.0795 41.4226 15.6364V6.27273ZM42.0817 4.81818C41.8203 4.81818 41.5949 4.72917 41.4055 4.55114C41.2199 4.37311 41.1271 4.15909 41.1271 3.90909C41.1271 3.65909 41.2199 3.44508 41.4055 3.26705C41.5949 3.08902 41.8203 3 42.0817 3C42.343 3 42.5665 3.08902 42.7521 3.26705C42.9415 3.44508 43.0362 3.65909 43.0362 3.90909C43.0362 4.15909 42.9415 4.37311 42.7521 4.55114C42.5665 4.72917 42.343 4.81818 42.0817 4.81818ZM45.5604 15L50.7649 4.70455V4.61364H44.7649V3.36364H52.2195V4.68182L47.0376 15H45.5604Z" fill="#F32851"/>
<path d="M27.5252 61.6195C27.8435 62.1626 27.8435 62.8374 27.5252 63.3805C26.6989 64.7909 25.7909 65.6989 24.3805 66.5252C23.8374 66.8435 23.1626 66.8435 22.6195 66.5252C21.2091 65.6989 20.3011 64.7909 19.4748 63.3805C19.1565 62.8374 19.1565 62.1626 19.4748 61.6195C20.3011 60.2091 21.2091 59.3011 22.6195 58.4748C23.1626 58.1565 23.8374 58.1565 24.3805 58.4748C25.7909 59.3011 26.6989 60.2091 27.5252 61.6195Z" fill="#F32851"/>
<path d="M8.52523 61.6195C8.84348 62.1626 8.84348 62.8374 8.52523 63.3805C7.69886 64.7909 6.79088 65.6989 5.38054 66.5252C4.83739 66.8435 4.16261 66.8435 3.61946 66.5252C2.20912 65.6989 1.30114 64.7909 0.474768 63.3805C0.15652 62.8374 0.15652 62.1626 0.474768 61.6195C1.30114 60.2091 2.20912 59.3011 3.61946 58.4748C4.16261 58.1565 4.83739 58.1565 5.38054 58.4748C6.79088 59.3011 7.69886 60.2091 8.52523 61.6195Z" fill="#F32851"/>
<path d="M39 45L56 45" stroke="#F32851" stroke-width="5" stroke-linecap="round"/>
</svg>
