<svg width="59" height="106" viewBox="0 0 59 106" fill="none" xmlns="http://www.w3.org/2000/svg">
<rect x="4.5" y="21.5" width="51" height="84" rx="1.5" stroke="#535353"/>
<line x1="4" y1="37.4999" x2="56" y2="37.4999" stroke="#535353"/>
<line x1="4" y1="53.5" x2="56" y2="53.5" stroke="#535353"/>
<path d="M4 88H55" stroke="#535353"/>
<path d="M4 71H55.5" stroke="#535353"/>
<line x1="22.5" y1="21" x2="22.5" y2="106" stroke="#535353"/>
<path d="M39.5 21L39.5 106" stroke="#535353"/>
<path d="M8.06534 15V3.36364H12.1335C12.9441 3.36364 13.6127 3.50379 14.1392 3.78409C14.6657 4.06061 15.0578 4.43371 15.3153 4.90341C15.5729 5.36932 15.7017 5.88636 15.7017 6.45455C15.7017 6.95455 15.6127 7.36742 15.4347 7.69318C15.2604 8.01894 15.0294 8.27652 14.7415 8.46591C14.4574 8.6553 14.1487 8.79545 13.8153 8.88636V9C14.1714 9.02273 14.5294 9.14773 14.8892 9.375C15.2491 9.60227 15.5502 9.92803 15.7926 10.3523C16.035 10.7765 16.1562 11.2955 16.1562 11.9091C16.1562 12.4924 16.0237 13.017 15.7585 13.483C15.4934 13.9489 15.0748 14.3182 14.5028 14.5909C13.9309 14.8636 13.1866 15 12.2699 15H8.06534ZM9.47443 13.75H12.2699C13.1903 13.75 13.8438 13.572 14.2301 13.2159C14.6203 12.8561 14.8153 12.4205 14.8153 11.9091C14.8153 11.5152 14.715 11.1515 14.5142 10.8182C14.3134 10.4811 14.0275 10.2121 13.6562 10.0114C13.285 9.80682 12.8456 9.70455 12.3381 9.70455H9.47443V13.75ZM9.47443 8.47727H12.0881C12.5123 8.47727 12.8949 8.39394 13.2358 8.22727C13.5805 8.06061 13.8532 7.82576 14.054 7.52273C14.2585 7.2197 14.3608 6.86364 14.3608 6.45455C14.3608 5.94318 14.1828 5.50947 13.8267 5.15341C13.4706 4.79356 12.9063 4.61364 12.1335 4.61364H9.47443V8.47727ZM24.4716 8.22727L23.267 8.56818C23.1913 8.36742 23.0795 8.17235 22.9318 7.98295C22.7879 7.78977 22.5909 7.63068 22.3409 7.50568C22.0909 7.38068 21.7708 7.31818 21.3807 7.31818C20.8466 7.31818 20.4015 7.44129 20.0455 7.6875C19.6932 7.92992 19.517 8.23864 19.517 8.61364C19.517 8.94697 19.6383 9.21023 19.8807 9.40341C20.1231 9.59659 20.5019 9.75758 21.017 9.88636L22.3125 10.2045C23.0928 10.3939 23.6742 10.6837 24.0568 11.0739C24.4394 11.4602 24.6307 11.9583 24.6307 12.5682C24.6307 13.0682 24.4867 13.5152 24.1989 13.9091C23.9148 14.303 23.517 14.6136 23.0057 14.8409C22.4943 15.0682 21.8996 15.1818 21.2216 15.1818C20.3314 15.1818 19.5947 14.9886 19.0114 14.6023C18.428 14.2159 18.0587 13.6515 17.9034 12.9091L19.1761 12.5909C19.2973 13.0606 19.5265 13.4129 19.8636 13.6477C20.2045 13.8826 20.6496 14 21.1989 14C21.8239 14 22.3201 13.8674 22.6875 13.6023C23.0587 13.3333 23.2443 13.0114 23.2443 12.6364C23.2443 12.3333 23.1383 12.0795 22.9261 11.875C22.714 11.6667 22.3883 11.5114 21.9489 11.4091L20.4943 11.0682C19.6951 10.8788 19.108 10.5852 18.733 10.1875C18.3617 9.78598 18.1761 9.28409 18.1761 8.68182C18.1761 8.18939 18.3144 7.75379 18.5909 7.375C18.8712 6.99621 19.2519 6.69886 19.733 6.48295C20.2178 6.26705 20.767 6.15909 21.3807 6.15909C22.2443 6.15909 22.9223 6.34848 23.4148 6.72727C23.911 7.10606 24.2633 7.60606 24.4716 8.22727ZM32.1491 11.4318V6.27273H33.4901V15H32.1491V13.5227H32.0582C31.8537 13.9659 31.5355 14.3428 31.1037 14.6534C30.6719 14.9602 30.1264 15.1136 29.4673 15.1136C28.9219 15.1136 28.437 14.9943 28.0128 14.7557C27.5885 14.5133 27.2552 14.1496 27.0128 13.6648C26.7704 13.1761 26.6491 12.5606 26.6491 11.8182V6.27273H27.9901V11.7273C27.9901 12.3636 28.1681 12.8712 28.5241 13.25C28.884 13.6288 29.3423 13.8182 29.8991 13.8182C30.2325 13.8182 30.5715 13.733 30.9162 13.5625C31.2647 13.392 31.5563 13.1307 31.7912 12.7784C32.0298 12.4261 32.1491 11.9773 32.1491 11.4318ZM42.1278 8.22727L40.9233 8.56818C40.8475 8.36742 40.7358 8.17235 40.5881 7.98295C40.4441 7.78977 40.2472 7.63068 39.9972 7.50568C39.7472 7.38068 39.4271 7.31818 39.0369 7.31818C38.5028 7.31818 38.0578 7.44129 37.7017 7.6875C37.3494 7.92992 37.1733 8.23864 37.1733 8.61364C37.1733 8.94697 37.2945 9.21023 37.5369 9.40341C37.7794 9.59659 38.1581 9.75758 38.6733 9.88636L39.9688 10.2045C40.7491 10.3939 41.3305 10.6837 41.7131 11.0739C42.0956 11.4602 42.2869 11.9583 42.2869 12.5682C42.2869 13.0682 42.143 13.5152 41.8551 13.9091C41.571 14.303 41.1733 14.6136 40.6619 14.8409C40.1506 15.0682 39.5559 15.1818 38.8778 15.1818C37.9877 15.1818 37.2509 14.9886 36.6676 14.6023C36.0843 14.2159 35.715 13.6515 35.5597 12.9091L36.8324 12.5909C36.9536 13.0606 37.1828 13.4129 37.5199 13.6477C37.8608 13.8826 38.3059 14 38.8551 14C39.4801 14 39.9763 13.8674 40.3438 13.6023C40.715 13.3333 40.9006 13.0114 40.9006 12.6364C40.9006 12.3333 40.7945 12.0795 40.5824 11.875C40.3703 11.6667 40.0445 11.5114 39.6051 11.4091L38.1506 11.0682C37.3513 10.8788 36.7642 10.5852 36.3892 10.1875C36.018 9.78598 35.8324 9.28409 35.8324 8.68182C35.8324 8.18939 35.9706 7.75379 36.2472 7.375C36.5275 6.99621 36.9081 6.69886 37.3892 6.48295C37.8741 6.26705 38.4233 6.15909 39.0369 6.15909C39.9006 6.15909 40.5786 6.34848 41.071 6.72727C41.5672 7.10606 41.9195 7.60606 42.1278 8.22727ZM44.0099 12.6136V11.4545L49.1236 3.36364H49.9645V5.15909H49.3963L45.5327 11.2727V11.3636H52.419V12.6136H44.0099ZM49.4872 15V12.2614V11.7216V3.36364H50.8281V15H49.4872Z" fill="#F32851"/>
<path d="M26.5252 78.6195C26.8435 79.1626 26.8435 79.8374 26.5252 80.3805C25.6989 81.7909 24.7909 82.6989 23.3805 83.5252C22.8374 83.8435 22.1626 83.8435 21.6195 83.5252C20.2091 82.6989 19.3011 81.7909 18.4748 80.3805C18.1565 79.8374 18.1565 79.1626 18.4748 78.6195C19.3011 77.2091 20.2091 76.3011 21.6195 75.4748C22.1626 75.1565 22.8374 75.1565 23.3805 75.4748C24.7909 76.3011 25.6989 77.2091 26.5252 78.6195Z" fill="#F32851"/>
<path d="M8.52523 78.6195C8.84348 79.1626 8.84348 79.8374 8.52523 80.3805C7.69886 81.7909 6.79088 82.6989 5.38054 83.5252C4.83739 83.8435 4.16261 83.8435 3.61946 83.5252C2.20912 82.6989 1.30114 81.7909 0.474768 80.3805C0.15652 79.8374 0.15652 79.1626 0.474768 78.6195C1.30114 77.2091 2.20912 76.3011 3.61946 75.4748C4.16261 75.1565 4.83739 75.1565 5.38054 75.4748C6.79088 76.3011 7.69886 77.2091 8.52523 78.6195Z" fill="#F32851"/>
<path d="M39 46L56 46" stroke="#F32851" stroke-width="5" stroke-linecap="round"/>
</svg>
