<svg width="56" height="106" viewBox="0 0 56 106" fill="none" xmlns="http://www.w3.org/2000/svg">
<rect x="0.5" y="21.5" width="51" height="84" rx="1.5" stroke="#535353"/>
<line y1="37.4999" x2="52" y2="37.4999" stroke="#535353"/>
<line y1="53.5" x2="52" y2="53.5" stroke="#535353"/>
<path d="M0 88H51" stroke="#535353"/>
<path d="M0 71H51.5" stroke="#535353"/>
<line x1="18.5" y1="21" x2="18.5" y2="106" stroke="#535353"/>
<path d="M35.5 21L35.5 106" stroke="#535353"/>
<path d="M55.5252 61.6195C55.8435 62.1626 55.8435 62.8374 55.5252 63.3805C54.6989 64.7909 53.7909 65.6989 52.3805 66.5252C51.8374 66.8435 51.1626 66.8435 50.6195 66.5252C49.2091 65.6989 48.3011 64.7909 47.4748 63.3805C47.1565 62.8374 47.1565 62.1626 47.4748 61.6195C48.3011 60.2091 49.2091 59.3011 50.6195 58.4748C51.1626 58.1565 51.8374 58.1565 52.3805 58.4748C53.7909 59.3011 54.6989 60.2091 55.5252 61.6195Z" fill="#F32851"/>
<path d="M31.4524 7H30.0433C29.96 6.5947 29.8142 6.23864 29.6058 5.93182C29.4013 5.625 29.1513 5.36742 28.8558 5.15909C28.5642 4.94697 28.2403 4.78788 27.8842 4.68182C27.5282 4.57576 27.157 4.52273 26.7706 4.52273C26.0661 4.52273 25.4278 4.70076 24.8558 5.05682C24.2876 5.41288 23.835 5.9375 23.4979 6.63068C23.1645 7.32386 22.9979 8.17424 22.9979 9.18182C22.9979 10.1894 23.1645 11.0398 23.4979 11.733C23.835 12.4261 24.2876 12.9508 24.8558 13.3068C25.4278 13.6629 26.0661 13.8409 26.7706 13.8409C27.157 13.8409 27.5282 13.7879 27.8842 13.6818C28.2403 13.5758 28.5642 13.4186 28.8558 13.2102C29.1513 12.9981 29.4013 12.7386 29.6058 12.4318C29.8142 12.1212 29.96 11.7652 30.0433 11.3636H31.4524C31.3464 11.9583 31.1532 12.4905 30.8729 12.9602C30.5926 13.4299 30.2441 13.8295 29.8274 14.1591C29.4107 14.4848 28.9429 14.733 28.424 14.9034C27.9089 15.0739 27.3577 15.1591 26.7706 15.1591C25.7782 15.1591 24.8956 14.9167 24.1229 14.4318C23.3501 13.947 22.7422 13.2576 22.299 12.3636C21.8558 11.4697 21.6342 10.4091 21.6342 9.18182C21.6342 7.95455 21.8558 6.89394 22.299 6C22.7422 5.10606 23.3501 4.41667 24.1229 3.93182C24.8956 3.44697 25.7782 3.20455 26.7706 3.20455C27.3577 3.20455 27.9089 3.28977 28.424 3.46023C28.9429 3.63068 29.4107 3.88068 29.8274 4.21023C30.2441 4.53598 30.5926 4.93371 30.8729 5.40341C31.1532 5.86932 31.3464 6.40151 31.4524 7Z" fill="#F32851"/>
</svg>
