<svg width="52" height="106" viewBox="0 0 52 106" fill="none" xmlns="http://www.w3.org/2000/svg">
<rect x="0.5" y="21.5" width="51" height="84" rx="1.5" stroke="#535353"/>
<line y1="37.4999" x2="52" y2="37.4999" stroke="#535353"/>
<line y1="53.5" x2="52" y2="53.5" stroke="#535353"/>
<path d="M0 88H51" stroke="#535353"/>
<path d="M0 71H51.5" stroke="#535353"/>
<line x1="18.5" y1="21" x2="18.5" y2="106" stroke="#535353"/>
<path d="M35.5 21L35.5 106" stroke="#535353"/>
<path d="M26.4602 7H25.0511C24.9678 6.5947 24.822 6.23864 24.6136 5.93182C24.4091 5.625 24.1591 5.36742 23.8636 5.15909C23.572 4.94697 23.2481 4.78788 22.892 4.68182C22.536 4.57576 22.1648 4.52273 21.7784 4.52273C21.0739 4.52273 20.4356 4.70076 19.8636 5.05682C19.2955 5.41288 18.8428 5.9375 18.5057 6.63068C18.1723 7.32386 18.0057 8.17424 18.0057 9.18182C18.0057 10.1894 18.1723 11.0398 18.5057 11.733C18.8428 12.4261 19.2955 12.9508 19.8636 13.3068C20.4356 13.6629 21.0739 13.8409 21.7784 13.8409C22.1648 13.8409 22.536 13.7879 22.892 13.6818C23.2481 13.5758 23.572 13.4186 23.8636 13.2102C24.1591 12.9981 24.4091 12.7386 24.6136 12.4318C24.822 12.1212 24.9678 11.7652 25.0511 11.3636H26.4602C26.3542 11.9583 26.161 12.4905 25.8807 12.9602C25.6004 13.4299 25.2519 13.8295 24.8352 14.1591C24.4186 14.4848 23.9508 14.733 23.4318 14.9034C22.9167 15.0739 22.3655 15.1591 21.7784 15.1591C20.786 15.1591 19.9034 14.9167 19.1307 14.4318C18.358 13.947 17.75 13.2576 17.3068 12.3636C16.8636 11.4697 16.642 10.4091 16.642 9.18182C16.642 7.95455 16.8636 6.89394 17.3068 6C17.75 5.10606 18.358 4.41667 19.1307 3.93182C19.9034 3.44697 20.786 3.20455 21.7784 3.20455C22.3655 3.20455 22.9167 3.28977 23.4318 3.46023C23.9508 3.63068 24.4186 3.88068 24.8352 4.21023C25.2519 4.53598 25.6004 4.93371 25.8807 5.40341C26.161 5.86932 26.3542 6.40151 26.4602 7ZM32.3963 15.1591C31.919 15.1515 31.4418 15.0606 30.9645 14.8864C30.4872 14.7121 30.0516 14.4186 29.6577 14.0057C29.2637 13.589 28.9474 13.0265 28.7088 12.3182C28.4702 11.6061 28.3509 10.7121 28.3509 9.63636C28.3509 8.60606 28.4474 7.69318 28.6406 6.89773C28.8338 6.09848 29.1141 5.42614 29.4815 4.88068C29.849 4.33144 30.2921 3.91477 30.8111 3.63068C31.3338 3.34659 31.9228 3.20455 32.5781 3.20455C33.2296 3.20455 33.8092 3.33523 34.3168 3.59659C34.8281 3.85417 35.2448 4.21401 35.5668 4.67614C35.8887 5.13826 36.0971 5.67045 36.1918 6.27273H34.8054C34.6766 5.75 34.4266 5.31629 34.0554 4.97159C33.6842 4.62689 33.1918 4.45455 32.5781 4.45455C31.6766 4.45455 30.9664 4.84659 30.4474 5.63068C29.9323 6.41477 29.6728 7.51515 29.669 8.93182H29.7599C29.9721 8.60985 30.224 8.33523 30.5156 8.10795C30.8111 7.87689 31.1368 7.69886 31.4929 7.57386C31.849 7.44886 32.2259 7.38636 32.6236 7.38636C33.2902 7.38636 33.9001 7.55303 34.4531 7.88636C35.0062 8.21591 35.4493 8.67235 35.7827 9.25568C36.116 9.83523 36.2827 10.5 36.2827 11.25C36.2827 11.9697 36.1217 12.6288 35.7997 13.2273C35.4777 13.822 35.0251 14.2955 34.4418 14.6477C33.8622 14.9962 33.1804 15.1667 32.3963 15.1591ZM32.3963 13.9091C32.8736 13.9091 33.3016 13.7898 33.6804 13.5511C34.063 13.3125 34.3641 12.9924 34.5838 12.5909C34.8073 12.1894 34.919 11.7424 34.919 11.25C34.919 10.7689 34.8111 10.3314 34.5952 9.9375C34.383 9.53977 34.0895 9.22348 33.7145 8.98864C33.3433 8.75379 32.919 8.63636 32.4418 8.63636C32.0819 8.63636 31.7467 8.70833 31.4361 8.85227C31.1255 8.99242 30.8527 9.18561 30.6179 9.43182C30.3868 9.67803 30.205 9.96023 30.0724 10.2784C29.9399 10.5928 29.8736 10.9242 29.8736 11.2727C29.8736 11.7348 29.9815 12.1667 30.1974 12.5682C30.4171 12.9697 30.7164 13.2936 31.0952 13.5398C31.4777 13.786 31.9115 13.9091 32.3963 13.9091Z" fill="#F32851"/>
</svg>
