<svg width="56" height="106" viewBox="0 0 56 106" fill="none" xmlns="http://www.w3.org/2000/svg">
<rect x="0.5" y="21.5" width="51" height="84" rx="1.5" stroke="#535353"/>
<line y1="37.4999" x2="52" y2="37.4999" stroke="#535353"/>
<line y1="53.5" x2="52" y2="53.5" stroke="#535353"/>
<path d="M0 88H51" stroke="#535353"/>
<path d="M0 71H51.5" stroke="#535353"/>
<line x1="18.5" y1="21" x2="18.5" y2="106" stroke="#535353"/>
<path d="M35.5 21L35.5 106" stroke="#535353"/>
<path d="M55.5252 28.6195C55.8435 29.1626 55.8435 29.8374 55.5252 30.3805C54.6989 31.7909 53.7909 32.6989 52.3805 33.5252C51.8374 33.8435 51.1626 33.8435 50.6195 33.5252C49.2091 32.6989 48.3011 31.7909 47.4748 30.3805C47.1565 29.8374 47.1565 29.1626 47.4748 28.6195C48.3011 27.2091 49.2091 26.3011 50.6195 25.4748C51.1626 25.1565 51.8374 25.1565 52.3805 25.4748C53.7909 26.3011 54.6989 27.2091 55.5252 28.6195Z" fill="#F32851"/>
<path d="M26.8821 7H25.473C25.3897 6.5947 25.2438 6.23864 25.0355 5.93182C24.831 5.625 24.581 5.36742 24.2855 5.15909C23.9938 4.94697 23.67 4.78788 23.3139 4.68182C22.9579 4.57576 22.5866 4.52273 22.2003 4.52273C21.4957 4.52273 20.8575 4.70076 20.2855 5.05682C19.7173 5.41288 19.2647 5.9375 18.9276 6.63068C18.5942 7.32386 18.4276 8.17424 18.4276 9.18182C18.4276 10.1894 18.5942 11.0398 18.9276 11.733C19.2647 12.4261 19.7173 12.9508 20.2855 13.3068C20.8575 13.6629 21.4957 13.8409 22.2003 13.8409C22.5866 13.8409 22.9579 13.7879 23.3139 13.6818C23.67 13.5758 23.9938 13.4186 24.2855 13.2102C24.581 12.9981 24.831 12.7386 25.0355 12.4318C25.2438 12.1212 25.3897 11.7652 25.473 11.3636H26.8821C26.776 11.9583 26.5829 12.4905 26.3026 12.9602C26.0223 13.4299 25.6738 13.8295 25.2571 14.1591C24.8404 14.4848 24.3726 14.733 23.8537 14.9034C23.3385 15.0739 22.7874 15.1591 22.2003 15.1591C21.2079 15.1591 20.3253 14.9167 19.5526 14.4318C18.7798 13.947 18.1719 13.2576 17.7287 12.3636C17.2855 11.4697 17.0639 10.4091 17.0639 9.18182C17.0639 7.95455 17.2855 6.89394 17.7287 6C18.1719 5.10606 18.7798 4.41667 19.5526 3.93182C20.3253 3.44697 21.2079 3.20455 22.2003 3.20455C22.7874 3.20455 23.3385 3.28977 23.8537 3.46023C24.3726 3.63068 24.8404 3.88068 25.2571 4.21023C25.6738 4.53598 26.0223 4.93371 26.3026 5.40341C26.5829 5.86932 26.776 6.40151 26.8821 7ZM29.3182 15L34.5227 4.70455V4.61364H28.5227V3.36364H35.9773V4.68182L30.7955 15H29.3182Z" fill="#F32851"/>
</svg>
