<svg width="56" height="106" viewBox="0 0 56 106" fill="none" xmlns="http://www.w3.org/2000/svg">
<rect x="0.5" y="21.5" width="51" height="84" rx="1.5" stroke="#535353"/>
<line y1="37.4999" x2="52" y2="37.4999" stroke="#535353"/>
<line y1="53.5" x2="52" y2="53.5" stroke="#535353"/>
<path d="M0 88H51" stroke="#535353"/>
<path d="M0 71H51.5" stroke="#535353"/>
<line x1="18.5" y1="21" x2="18.5" y2="106" stroke="#535353"/>
<path d="M35.5 21L35.5 106" stroke="#535353"/>
<path d="M55.5252 61.6195C55.8435 62.1626 55.8435 62.8374 55.5252 63.3805C54.6989 64.7909 53.7909 65.6989 52.3805 66.5252C51.8374 66.8435 51.1626 66.8435 50.6195 66.5252C49.2091 65.6989 48.3011 64.7909 47.4748 63.3805C47.1565 62.8374 47.1565 62.1626 47.4748 61.6195C48.3011 60.2091 49.2091 59.3011 50.6195 58.4748C51.1626 58.1565 51.8374 58.1565 52.3805 58.4748C53.7909 59.3011 54.6989 60.2091 55.5252 61.6195Z" fill="#F32851"/>
<path d="M22.5252 61.6195C22.8435 62.1626 22.8435 62.8374 22.5252 63.3805C21.6989 64.7909 20.7909 65.6989 19.3805 66.5252C18.8374 66.8435 18.1626 66.8435 17.6195 66.5252C16.2091 65.6989 15.3011 64.7909 14.4748 63.3805C14.1565 62.8374 14.1565 62.1626 14.4748 61.6195C15.3011 60.2091 16.2091 59.3011 17.6195 58.4748C18.1626 58.1565 18.8374 58.1565 19.3805 58.4748C20.7909 59.3011 21.6989 60.2091 22.5252 61.6195Z" fill="#F32851"/>
<path d="M39.5252 61.6195C39.8435 62.1626 39.8435 62.8374 39.5252 63.3805C38.6989 64.7909 37.7909 65.6989 36.3805 66.5252C35.8374 66.8435 35.1626 66.8435 34.6195 66.5252C33.2091 65.6989 32.3011 64.7909 31.4748 63.3805C31.1565 62.8374 31.1565 62.1626 31.4748 61.6195C32.3011 60.2091 33.2091 59.3011 34.6195 58.4748C35.1626 58.1565 35.8374 58.1565 36.3805 58.4748C37.7909 59.3011 38.6989 60.2091 39.5252 61.6195Z" fill="#F32851"/>
<path d="M23.9993 7H22.5902C22.5069 6.5947 22.361 6.23864 22.1527 5.93182C21.9482 5.625 21.6982 5.36742 21.4027 5.15909C21.111 4.94697 20.7872 4.78788 20.4311 4.68182C20.075 4.57576 19.7038 4.52273 19.3175 4.52273C18.6129 4.52273 17.9747 4.70076 17.4027 5.05682C16.8345 5.41288 16.3819 5.9375 16.0447 6.63068C15.7114 7.32386 15.5447 8.17424 15.5447 9.18182C15.5447 10.1894 15.7114 11.0398 16.0447 11.733C16.3819 12.4261 16.8345 12.9508 17.4027 13.3068C17.9747 13.6629 18.6129 13.8409 19.3175 13.8409C19.7038 13.8409 20.075 13.7879 20.4311 13.6818C20.7872 13.5758 21.111 13.4186 21.4027 13.2102C21.6982 12.9981 21.9482 12.7386 22.1527 12.4318C22.361 12.1212 22.5069 11.7652 22.5902 11.3636H23.9993C23.8932 11.9583 23.7 12.4905 23.4197 12.9602C23.1394 13.4299 22.791 13.8295 22.3743 14.1591C21.9576 14.4848 21.4898 14.733 20.9709 14.9034C20.4557 15.0739 19.9046 15.1591 19.3175 15.1591C18.325 15.1591 17.4425 14.9167 16.6697 14.4318C15.897 13.947 15.2891 13.2576 14.8459 12.3636C14.4027 11.4697 14.1811 10.4091 14.1811 9.18182C14.1811 7.95455 14.4027 6.89394 14.8459 6C15.2891 5.10606 15.897 4.41667 16.6697 3.93182C17.4425 3.44697 18.325 3.20455 19.3175 3.20455C19.9046 3.20455 20.4557 3.28977 20.9709 3.46023C21.4898 3.63068 21.9576 3.88068 22.3743 4.21023C22.791 4.53598 23.1394 4.93371 23.4197 5.40341C23.7 5.86932 23.8932 6.40151 23.9993 7ZM26.0945 15V6.27273H27.3899V7.63636H27.5036C27.6854 7.17045 27.9789 6.80871 28.3842 6.55114C28.7895 6.28977 29.2763 6.15909 29.8445 6.15909C30.4202 6.15909 30.8994 6.28977 31.282 6.55114C31.6683 6.80871 31.9695 7.17045 32.1854 7.63636H32.2763C32.4998 7.18561 32.835 6.82765 33.282 6.5625C33.7289 6.29356 34.2649 6.15909 34.8899 6.15909C35.6702 6.15909 36.3085 6.40341 36.8047 6.89205C37.3009 7.37689 37.549 8.13258 37.549 9.15909V15H36.2081V9.15909C36.2081 8.51515 36.032 8.05492 35.6797 7.77841C35.3274 7.50189 34.9126 7.36364 34.4354 7.36364C33.8217 7.36364 33.3464 7.54924 33.0092 7.92045C32.6721 8.28788 32.5036 8.75379 32.5036 9.31818V15H31.1399V9.02273C31.1399 8.52652 30.9789 8.12689 30.657 7.82386C30.335 7.51705 29.9202 7.36364 29.4126 7.36364C29.0642 7.36364 28.7384 7.45644 28.4354 7.64205C28.1361 7.82765 27.8937 8.08523 27.7081 8.41477C27.5263 8.74053 27.4354 9.11742 27.4354 9.54545V15H26.0945Z" fill="#F32851"/>
</svg>
