<svg width="60" height="106" viewBox="0 0 60 106" fill="none" xmlns="http://www.w3.org/2000/svg">
<rect x="4.5" y="21.5" width="51" height="84" rx="1.5" stroke="#535353"/>
<line x1="4" y1="37.4999" x2="56" y2="37.4999" stroke="#535353"/>
<line x1="4" y1="53.5" x2="56" y2="53.5" stroke="#535353"/>
<path d="M4 88H55" stroke="#535353"/>
<path d="M4 71H55.5" stroke="#535353"/>
<line x1="22.5" y1="21" x2="22.5" y2="106" stroke="#535353"/>
<path d="M39.5 21L39.5 106" stroke="#535353"/>
<path d="M59.5252 61.6195C59.8435 62.1626 59.8435 62.8374 59.5252 63.3805C58.6989 64.7909 57.7909 65.6989 56.3805 66.5252C55.8374 66.8435 55.1626 66.8435 54.6195 66.5252C53.2091 65.6989 52.3011 64.7909 51.4748 63.3805C51.1565 62.8374 51.1565 62.1626 51.4748 61.6195C52.3011 60.2091 53.2091 59.3011 54.6195 58.4748C55.1626 58.1565 55.8374 58.1565 56.3805 58.4748C57.7909 59.3011 58.6989 60.2091 59.5252 61.6195Z" fill="#F32851"/>
<path d="M26.5252 61.6195C26.8435 62.1626 26.8435 62.8374 26.5252 63.3805C25.6989 64.7909 24.7909 65.6989 23.3805 66.5252C22.8374 66.8435 22.1626 66.8435 21.6195 66.5252C20.2091 65.6989 19.3011 64.7909 18.4748 63.3805C18.1565 62.8374 18.1565 62.1626 18.4748 61.6195C19.3011 60.2091 20.2091 59.3011 21.6195 58.4748C22.1626 58.1565 22.8374 58.1565 23.3805 58.4748C24.7909 59.3011 25.6989 60.2091 26.5252 61.6195Z" fill="#F32851"/>
<path d="M8.52523 44.6195C8.84348 45.1626 8.84348 45.8374 8.52523 46.3805C7.69886 47.7909 6.79088 48.6989 5.38054 49.5252C4.83739 49.8435 4.16261 49.8435 3.61946 49.5252C2.20912 48.6989 1.30114 47.7909 0.474768 46.3805C0.15652 45.8374 0.15652 45.1626 0.474768 44.6195C1.30114 43.2091 2.20912 42.3011 3.61946 41.4748C4.16261 41.1565 4.83739 41.1565 5.38054 41.4748C6.79088 42.3011 7.69886 43.2091 8.52523 44.6195Z" fill="#F32851"/>
<path d="M43.5252 61.6195C43.8435 62.1626 43.8435 62.8374 43.5252 63.3805C42.6989 64.7909 41.7909 65.6989 40.3805 66.5252C39.8374 66.8435 39.1626 66.8435 38.6195 66.5252C37.2091 65.6989 36.3011 64.7909 35.4748 63.3805C35.1565 62.8374 35.1565 62.1626 35.4748 61.6195C36.3011 60.2091 37.2091 59.3011 38.6195 58.4748C39.1626 58.1565 39.8374 58.1565 40.3805 58.4748C41.7909 59.3011 42.6989 60.2091 43.5252 61.6195Z" fill="#F32851"/>
<path d="M23.0071 7H21.598C21.5147 6.5947 21.3688 6.23864 21.1605 5.93182C20.956 5.625 20.706 5.36742 20.4105 5.15909C20.1188 4.94697 19.795 4.78788 19.4389 4.68182C19.0829 4.57576 18.7116 4.52273 18.3253 4.52273C17.6207 4.52273 16.9825 4.70076 16.4105 5.05682C15.8423 5.41288 15.3897 5.9375 15.0526 6.63068C14.7192 7.32386 14.5526 8.17424 14.5526 9.18182C14.5526 10.1894 14.7192 11.0398 15.0526 11.733C15.3897 12.4261 15.8423 12.9508 16.4105 13.3068C16.9825 13.6629 17.6207 13.8409 18.3253 13.8409C18.7116 13.8409 19.0829 13.7879 19.4389 13.6818C19.795 13.5758 20.1188 13.4186 20.4105 13.2102C20.706 12.9981 20.956 12.7386 21.1605 12.4318C21.3688 12.1212 21.5147 11.7652 21.598 11.3636H23.0071C22.901 11.9583 22.7079 12.4905 22.4276 12.9602C22.1473 13.4299 21.7988 13.8295 21.3821 14.1591C20.9654 14.4848 20.4976 14.733 19.9787 14.9034C19.4635 15.0739 18.9124 15.1591 18.3253 15.1591C17.3329 15.1591 16.4503 14.9167 15.6776 14.4318C14.9048 13.947 14.2969 13.2576 13.8537 12.3636C13.4105 11.4697 13.1889 10.4091 13.1889 9.18182C13.1889 7.95455 13.4105 6.89394 13.8537 6C14.2969 5.10606 14.9048 4.41667 15.6776 3.93182C16.4503 3.44697 17.3329 3.20455 18.3253 3.20455C18.9124 3.20455 19.4635 3.28977 19.9787 3.46023C20.4976 3.63068 20.9654 3.88068 21.3821 4.21023C21.7988 4.53598 22.1473 4.93371 22.4276 5.40341C22.7079 5.86932 22.901 6.40151 23.0071 7ZM25.1023 15V6.27273H26.3977V7.63636H26.5114C26.6932 7.17045 26.9867 6.80871 27.392 6.55114C27.7973 6.28977 28.2841 6.15909 28.8523 6.15909C29.428 6.15909 29.9072 6.28977 30.2898 6.55114C30.6761 6.80871 30.9773 7.17045 31.1932 7.63636H31.2841C31.5076 7.18561 31.8428 6.82765 32.2898 6.5625C32.7367 6.29356 33.2727 6.15909 33.8977 6.15909C34.678 6.15909 35.3163 6.40341 35.8125 6.89205C36.3087 7.37689 36.5568 8.13258 36.5568 9.15909V15H35.2159V9.15909C35.2159 8.51515 35.0398 8.05492 34.6875 7.77841C34.3352 7.50189 33.9205 7.36364 33.4432 7.36364C32.8295 7.36364 32.3542 7.54924 32.017 7.92045C31.6799 8.28788 31.5114 8.75379 31.5114 9.31818V15H30.1477V9.02273C30.1477 8.52652 29.9867 8.12689 29.6648 7.82386C29.3428 7.51705 28.928 7.36364 28.4205 7.36364C28.072 7.36364 27.7462 7.45644 27.4432 7.64205C27.1439 7.82765 26.9015 8.08523 26.7159 8.41477C26.5341 8.74053 26.4432 9.11742 26.4432 9.54545V15H25.1023ZM42.8494 15.1591C42.3722 15.1515 41.8949 15.0606 41.4176 14.8864C40.9403 14.7121 40.5047 14.4186 40.1108 14.0057C39.7169 13.589 39.4006 13.0265 39.1619 12.3182C38.9233 11.6061 38.804 10.7121 38.804 9.63636C38.804 8.60606 38.9006 7.69318 39.0938 6.89773C39.2869 6.09848 39.5672 5.42614 39.9347 4.88068C40.3021 4.33144 40.7453 3.91477 41.2642 3.63068C41.7869 3.34659 42.3759 3.20455 43.0312 3.20455C43.6828 3.20455 44.2623 3.33523 44.7699 3.59659C45.2813 3.85417 45.6979 4.21401 46.0199 4.67614C46.3419 5.13826 46.5502 5.67045 46.6449 6.27273H45.2585C45.1297 5.75 44.8797 5.31629 44.5085 4.97159C44.1373 4.62689 43.6449 4.45455 43.0312 4.45455C42.1297 4.45455 41.4195 4.84659 40.9006 5.63068C40.3854 6.41477 40.1259 7.51515 40.1222 8.93182H40.2131C40.4252 8.60985 40.6771 8.33523 40.9688 8.10795C41.2642 7.87689 41.59 7.69886 41.946 7.57386C42.3021 7.44886 42.679 7.38636 43.0767 7.38636C43.7434 7.38636 44.3532 7.55303 44.9062 7.88636C45.4593 8.21591 45.9025 8.67235 46.2358 9.25568C46.5691 9.83523 46.7358 10.5 46.7358 11.25C46.7358 11.9697 46.5748 12.6288 46.2528 13.2273C45.9309 13.822 45.4782 14.2955 44.8949 14.6477C44.3153 14.9962 43.6335 15.1667 42.8494 15.1591ZM42.8494 13.9091C43.3267 13.9091 43.7547 13.7898 44.1335 13.5511C44.5161 13.3125 44.8172 12.9924 45.0369 12.5909C45.2604 12.1894 45.3722 11.7424 45.3722 11.25C45.3722 10.7689 45.2642 10.3314 45.0483 9.9375C44.8362 9.53977 44.5426 9.22348 44.1676 8.98864C43.7964 8.75379 43.3722 8.63636 42.8949 8.63636C42.535 8.63636 42.1998 8.70833 41.8892 8.85227C41.5786 8.99242 41.3059 9.18561 41.071 9.43182C40.84 9.67803 40.6581 9.96023 40.5256 10.2784C40.393 10.5928 40.3267 10.9242 40.3267 11.2727C40.3267 11.7348 40.4347 12.1667 40.6506 12.5682C40.8703 12.9697 41.1695 13.2936 41.5483 13.5398C41.9309 13.786 42.3646 13.9091 42.8494 13.9091Z" fill="#F32851"/>
</svg>
