<svg width="60" height="106" viewBox="0 0 60 106" fill="none" xmlns="http://www.w3.org/2000/svg">
<rect x="4.5" y="21.5" width="51" height="84" rx="1.5" stroke="#535353"/>
<line x1="4" y1="37.4999" x2="56" y2="37.4999" stroke="#535353"/>
<line x1="4" y1="53.5" x2="56" y2="53.5" stroke="#535353"/>
<path d="M4 88H55" stroke="#535353"/>
<path d="M4 71H55.5" stroke="#535353"/>
<line x1="22.5" y1="21" x2="22.5" y2="106" stroke="#535353"/>
<path d="M39.5 21L39.5 106" stroke="#535353"/>
<path d="M59.5252 96.6195C59.8435 97.1626 59.8435 97.8374 59.5252 98.3805C58.6989 99.7909 57.7909 100.699 56.3805 101.525C55.8374 101.843 55.1626 101.843 54.6195 101.525C53.2091 100.699 52.3011 99.7909 51.4748 98.3805C51.1565 97.8374 51.1565 97.1626 51.4748 96.6195C52.3011 95.2091 53.2091 94.3011 54.6195 93.4748C55.1626 93.1565 55.8374 93.1565 56.3805 93.4748C57.7909 94.3011 58.6989 95.2091 59.5252 96.6195Z" fill="#F32851"/>
<path d="M26.5252 27.6195C26.8435 28.1626 26.8435 28.8374 26.5252 29.3805C25.6989 30.7909 24.7909 31.6989 23.3805 32.5252C22.8374 32.8435 22.1626 32.8435 21.6195 32.5252C20.2091 31.6989 19.3011 30.7909 18.4748 29.3805C18.1565 28.8374 18.1565 28.1626 18.4748 27.6195C19.3011 26.2091 20.2091 25.3011 21.6195 24.4748C22.1626 24.1565 22.8374 24.1565 23.3805 24.4748C24.7909 25.3011 25.6989 26.2091 26.5252 27.6195Z" fill="#F32851"/>
<path d="M8.52523 78.6195C8.84348 79.1626 8.84348 79.8374 8.52523 80.3805C7.69886 81.7909 6.79088 82.6989 5.38054 83.5252C4.83739 83.8435 4.16261 83.8435 3.61946 83.5252C2.20912 82.6989 1.30114 81.7909 0.474768 80.3805C0.15652 79.8374 0.15652 79.1626 0.474768 78.6195C1.30114 77.2091 2.20912 76.3011 3.61946 75.4748C4.16261 75.1565 4.83739 75.1565 5.38054 75.4748C6.79088 76.3011 7.69886 77.2091 8.52523 78.6195Z" fill="#F32851"/>
<path d="M43.5252 96.6195C43.8435 97.1626 43.8435 97.8374 43.5252 98.3805C42.6989 99.7909 41.7909 100.699 40.3805 101.525C39.8374 101.843 39.1626 101.843 38.6195 101.525C37.2091 100.699 36.3011 99.7909 35.4748 98.3805C35.1565 97.8374 35.1565 97.1626 35.4748 96.6195C36.3011 95.2091 37.2091 94.3011 38.6195 93.4748C39.1626 93.1565 39.8374 93.1565 40.3805 93.4748C41.7909 94.3011 42.6989 95.2091 43.5252 96.6195Z" fill="#F32851"/>
<path d="M23.0071 7H21.598C21.5147 6.5947 21.3688 6.23864 21.1605 5.93182C20.956 5.625 20.706 5.36742 20.4105 5.15909C20.1188 4.94697 19.795 4.78788 19.4389 4.68182C19.0829 4.57576 18.7116 4.52273 18.3253 4.52273C17.6207 4.52273 16.9825 4.70076 16.4105 5.05682C15.8423 5.41288 15.3897 5.9375 15.0526 6.63068C14.7192 7.32386 14.5526 8.17424 14.5526 9.18182C14.5526 10.1894 14.7192 11.0398 15.0526 11.733C15.3897 12.4261 15.8423 12.9508 16.4105 13.3068C16.9825 13.6629 17.6207 13.8409 18.3253 13.8409C18.7116 13.8409 19.0829 13.7879 19.4389 13.6818C19.795 13.5758 20.1188 13.4186 20.4105 13.2102C20.706 12.9981 20.956 12.7386 21.1605 12.4318C21.3688 12.1212 21.5147 11.7652 21.598 11.3636H23.0071C22.901 11.9583 22.7079 12.4905 22.4276 12.9602C22.1473 13.4299 21.7988 13.8295 21.3821 14.1591C20.9654 14.4848 20.4976 14.733 19.9787 14.9034C19.4635 15.0739 18.9124 15.1591 18.3253 15.1591C17.3329 15.1591 16.4503 14.9167 15.6776 14.4318C14.9048 13.947 14.2969 13.2576 13.8537 12.3636C13.4105 11.4697 13.1889 10.4091 13.1889 9.18182C13.1889 7.95455 13.4105 6.89394 13.8537 6C14.2969 5.10606 14.9048 4.41667 15.6776 3.93182C16.4503 3.44697 17.3329 3.20455 18.3253 3.20455C18.9124 3.20455 19.4635 3.28977 19.9787 3.46023C20.4976 3.63068 20.9654 3.88068 21.3821 4.21023C21.7988 4.53598 22.1473 4.93371 22.4276 5.40341C22.7079 5.86932 22.901 6.40151 23.0071 7ZM25.1023 15V6.27273H26.3977V7.63636H26.5114C26.6932 7.17045 26.9867 6.80871 27.392 6.55114C27.7973 6.28977 28.2841 6.15909 28.8523 6.15909C29.428 6.15909 29.9072 6.28977 30.2898 6.55114C30.6761 6.80871 30.9773 7.17045 31.1932 7.63636H31.2841C31.5076 7.18561 31.8428 6.82765 32.2898 6.5625C32.7367 6.29356 33.2727 6.15909 33.8977 6.15909C34.678 6.15909 35.3163 6.40341 35.8125 6.89205C36.3087 7.37689 36.5568 8.13258 36.5568 9.15909V15H35.2159V9.15909C35.2159 8.51515 35.0398 8.05492 34.6875 7.77841C34.3352 7.50189 33.9205 7.36364 33.4432 7.36364C32.8295 7.36364 32.3542 7.54924 32.017 7.92045C31.6799 8.28788 31.5114 8.75379 31.5114 9.31818V15H30.1477V9.02273C30.1477 8.52652 29.9867 8.12689 29.6648 7.82386C29.3428 7.51705 28.928 7.36364 28.4205 7.36364C28.072 7.36364 27.7462 7.45644 27.4432 7.64205C27.1439 7.82765 26.9015 8.08523 26.7159 8.41477C26.5341 8.74053 26.4432 9.11742 26.4432 9.54545V15H25.1023ZM42.6903 3.20455C43.1676 3.20833 43.6449 3.29924 44.1222 3.47727C44.5994 3.6553 45.035 3.95076 45.429 4.36364C45.8229 4.77273 46.1392 5.33144 46.3778 6.03977C46.6165 6.74811 46.7358 7.63636 46.7358 8.70455C46.7358 9.73864 46.6373 10.6572 46.4403 11.4602C46.2472 12.2595 45.9669 12.9337 45.5994 13.483C45.2358 14.0322 44.7926 14.4489 44.2699 14.733C43.7509 15.017 43.1638 15.1591 42.5085 15.1591C41.857 15.1591 41.2756 15.0303 40.7642 14.7727C40.2566 14.5114 39.84 14.1496 39.5142 13.6875C39.1922 13.2216 38.9858 12.6818 38.8949 12.0682H40.2812C40.4062 12.6023 40.6544 13.0436 41.0256 13.392C41.4006 13.7367 41.8949 13.9091 42.5085 13.9091C43.4063 13.9091 44.1146 13.517 44.6335 12.733C45.1563 11.9489 45.4176 10.8409 45.4176 9.40909H45.3267C45.1146 9.72727 44.8627 10.0019 44.571 10.233C44.2794 10.464 43.9555 10.642 43.5994 10.767C43.2434 10.892 42.8646 10.9545 42.4631 10.9545C41.7964 10.9545 41.1847 10.7898 40.6278 10.4602C40.0748 10.1269 39.6316 9.67045 39.2983 9.09091C38.9688 8.50758 38.804 7.84091 38.804 7.09091C38.804 6.37879 38.9631 5.72727 39.2812 5.13636C39.6032 4.54167 40.054 4.06818 40.6335 3.71591C41.2169 3.36364 41.9025 3.19318 42.6903 3.20455ZM42.6903 4.45455C42.2131 4.45455 41.7831 4.57386 41.4006 4.8125C41.0218 5.04735 40.7206 5.36553 40.4972 5.76705C40.2775 6.16477 40.1676 6.60606 40.1676 7.09091C40.1676 7.57576 40.2737 8.01705 40.4858 8.41477C40.7017 8.80871 40.9953 9.12311 41.3665 9.35795C41.7415 9.58902 42.1676 9.70455 42.6449 9.70455C43.0047 9.70455 43.34 9.63447 43.6506 9.49432C43.9612 9.35038 44.232 9.1553 44.4631 8.90909C44.6979 8.65909 44.8816 8.37689 45.0142 8.0625C45.1468 7.74432 45.2131 7.41288 45.2131 7.06818C45.2131 6.61364 45.1032 6.1875 44.8835 5.78977C44.6676 5.39205 44.3684 5.07008 43.9858 4.82386C43.607 4.57765 43.1752 4.45455 42.6903 4.45455Z" fill="#F32851"/>
<path d="M29.9737 86.1591C29.3071 86.1591 28.7067 86.0265 28.1726 85.7614C27.6385 85.4962 27.2105 85.1326 26.8885 84.6705C26.5665 84.2083 26.3904 83.6818 26.3601 83.0909H27.7237C27.7768 83.6174 28.0154 84.053 28.4396 84.3977C28.8677 84.7386 29.379 84.9091 29.9737 84.9091C30.451 84.9091 30.8752 84.7973 31.2464 84.5739C31.6214 84.3504 31.915 84.0436 32.1271 83.6534C32.343 83.2595 32.451 82.8144 32.451 82.3182C32.451 81.8106 32.3393 81.358 32.1158 80.9602C31.8961 80.5587 31.593 80.2424 31.2067 80.0114C30.8203 79.7803 30.379 79.6629 29.8828 79.6591C29.5268 79.6553 29.1612 79.7102 28.7862 79.8239C28.4112 79.9337 28.1025 80.0758 27.8601 80.25L26.5419 80.0909L27.2464 74.3636H33.2919V75.6136H28.4283L28.0192 79.0455H28.0874C28.326 78.8561 28.6252 78.6989 28.9851 78.5739C29.3449 78.4489 29.7199 78.3864 30.1101 78.3864C30.8222 78.3864 31.4567 78.5568 32.0135 78.8977C32.5741 79.2348 33.0135 79.697 33.3317 80.2841C33.6536 80.8712 33.8146 81.5417 33.8146 82.2955C33.8146 83.0379 33.648 83.7008 33.3146 84.2841C32.9851 84.8636 32.5305 85.322 31.951 85.6591C31.3714 85.9924 30.7124 86.1591 29.9737 86.1591Z" fill="#F32851"/>
<path d="M27.3608 35V33.9773L31.2017 29.7727C31.6525 29.2803 32.0237 28.8523 32.3153 28.4886C32.607 28.1212 32.8229 27.7765 32.9631 27.4545C33.107 27.1288 33.179 26.7879 33.179 26.4318C33.179 26.0227 33.0805 25.6686 32.8835 25.3693C32.6903 25.0701 32.4252 24.839 32.0881 24.6761C31.7509 24.5133 31.3722 24.4318 30.9517 24.4318C30.5047 24.4318 30.1146 24.5246 29.7812 24.7102C29.4517 24.892 29.196 25.1477 29.0142 25.4773C28.8362 25.8068 28.7472 26.1932 28.7472 26.6364H27.4062C27.4062 25.9545 27.5634 25.3561 27.8778 24.8409C28.1922 24.3258 28.6203 23.9242 29.1619 23.6364C29.7074 23.3485 30.3191 23.2045 30.9972 23.2045C31.679 23.2045 32.2831 23.3485 32.8097 23.6364C33.3362 23.9242 33.7491 24.3125 34.0483 24.8011C34.3475 25.2898 34.4972 25.8333 34.4972 26.4318C34.4972 26.8598 34.4195 27.2784 34.2642 27.6875C34.1127 28.0928 33.8475 28.5455 33.4688 29.0455C33.0938 29.5417 32.5729 30.1477 31.9062 30.8636L29.2926 33.6591V33.75H34.7017V35H27.3608Z" fill="#F32851"/>
</svg>
