<svg width="59" height="106" viewBox="0 0 59 106" fill="none" xmlns="http://www.w3.org/2000/svg">
<rect x="3.5" y="21.5" width="51" height="84" rx="1.5" stroke="#535353"/>
<line x1="3" y1="37.4999" x2="55" y2="37.4999" stroke="#535353"/>
<line x1="3" y1="53.5" x2="55" y2="53.5" stroke="#535353"/>
<path d="M3 88H54" stroke="#535353"/>
<path d="M3 71H54.5" stroke="#535353"/>
<line x1="21.5" y1="21" x2="21.5" y2="106" stroke="#535353"/>
<path d="M38.5 21L38.5 106" stroke="#535353"/>
<path d="M28.9055 7H27.4964C27.4131 6.5947 27.2673 6.23864 27.0589 5.93182C26.8544 5.625 26.6044 5.36742 26.3089 5.15909C26.0173 4.94697 25.6934 4.78788 25.3374 4.68182C24.9813 4.57576 24.6101 4.52273 24.2237 4.52273C23.5192 4.52273 22.8809 4.70076 22.3089 5.05682C21.7408 5.41288 21.2881 5.9375 20.951 6.63068C20.6177 7.32386 20.451 8.17424 20.451 9.18182C20.451 10.1894 20.6177 11.0398 20.951 11.733C21.2881 12.4261 21.7408 12.9508 22.3089 13.3068C22.8809 13.6629 23.5192 13.8409 24.2237 13.8409C24.6101 13.8409 24.9813 13.7879 25.3374 13.6818C25.6934 13.5758 26.0173 13.4186 26.3089 13.2102C26.6044 12.9981 26.8544 12.7386 27.0589 12.4318C27.2673 12.1212 27.4131 11.7652 27.4964 11.3636H28.9055C28.7995 11.9583 28.6063 12.4905 28.326 12.9602C28.0457 13.4299 27.6972 13.8295 27.2805 14.1591C26.8639 14.4848 26.3961 14.733 25.8771 14.9034C25.362 15.0739 24.8108 15.1591 24.2237 15.1591C23.2313 15.1591 22.3487 14.9167 21.576 14.4318C20.8033 13.947 20.1953 13.2576 19.7521 12.3636C19.3089 11.4697 19.0874 10.4091 19.0874 9.18182C19.0874 7.95455 19.3089 6.89394 19.7521 6C20.1953 5.10606 20.8033 4.41667 21.576 3.93182C22.3487 3.44697 23.2313 3.20455 24.2237 3.20455C24.8108 3.20455 25.362 3.28977 25.8771 3.46023C26.3961 3.63068 26.8639 3.88068 27.2805 4.21023C27.6972 4.53598 28.0457 4.93371 28.326 5.40341C28.6063 5.86932 28.7995 6.40151 28.9055 7ZM35.3416 15L37.2507 3.36364H38.3871L36.478 15H35.3416ZM30.0462 11.7727L30.228 10.6364H38.9098L38.728 11.7727H30.0462ZM31.2507 15L33.1598 3.36364H34.2962L32.3871 15H31.2507ZM30.728 7.72727L30.9098 6.59091H39.5916L39.4098 7.72727H30.728Z" fill="#F32851"/>
<path d="M3 29H55" stroke="#F32851" stroke-width="5" stroke-linecap="round"/>
<path d="M58.5252 61.6195C58.8435 62.1626 58.8435 62.8374 58.5252 63.3805C57.6989 64.7909 56.7909 65.6989 55.3805 66.5252C54.8374 66.8435 54.1626 66.8435 53.6195 66.5252C52.2091 65.6989 51.3011 64.7909 50.4748 63.3805C50.1565 62.8374 50.1565 62.1626 50.4748 61.6195C51.3011 60.2091 52.2091 59.3011 53.6195 58.4748C54.1626 58.1565 54.8374 58.1565 55.3805 58.4748C56.7909 59.3011 57.6989 60.2091 58.5252 61.6195Z" fill="#F32851"/>
</svg>
