<svg width="59" height="106" viewBox="0 0 59 106" fill="none" xmlns="http://www.w3.org/2000/svg">
<rect x="3.5" y="21.5" width="51" height="84" rx="1.5" stroke="#535353"/>
<line x1="3" y1="37.4999" x2="55" y2="37.4999" stroke="#535353"/>
<line x1="3" y1="53.5" x2="55" y2="53.5" stroke="#535353"/>
<path d="M3 88H54" stroke="#535353"/>
<path d="M3 71H54.5" stroke="#535353"/>
<line x1="21.5" y1="21" x2="21.5" y2="106" stroke="#535353"/>
<path d="M38.5 21L38.5 106" stroke="#535353"/>
<path d="M24.0384 7H22.6293C22.5459 6.5947 22.4001 6.23864 22.1918 5.93182C21.9872 5.625 21.7372 5.36742 21.4418 5.15909C21.1501 4.94697 20.8262 4.78788 20.4702 4.68182C20.1141 4.57576 19.7429 4.52273 19.3565 4.52273C18.652 4.52273 18.0137 4.70076 17.4418 5.05682C16.8736 5.41288 16.4209 5.9375 16.0838 6.63068C15.7505 7.32386 15.5838 8.17424 15.5838 9.18182C15.5838 10.1894 15.7505 11.0398 16.0838 11.733C16.4209 12.4261 16.8736 12.9508 17.4418 13.3068C18.0137 13.6629 18.652 13.8409 19.3565 13.8409C19.7429 13.8409 20.1141 13.7879 20.4702 13.6818C20.8262 13.5758 21.1501 13.4186 21.4418 13.2102C21.7372 12.9981 21.9872 12.7386 22.1918 12.4318C22.4001 12.1212 22.5459 11.7652 22.6293 11.3636H24.0384C23.9323 11.9583 23.7391 12.4905 23.4588 12.9602C23.1785 13.4299 22.83 13.8295 22.4134 14.1591C21.9967 14.4848 21.5289 14.733 21.0099 14.9034C20.4948 15.0739 19.9437 15.1591 19.3565 15.1591C18.3641 15.1591 17.4815 14.9167 16.7088 14.4318C15.9361 13.947 15.3281 13.2576 14.8849 12.3636C14.4418 11.4697 14.2202 10.4091 14.2202 9.18182C14.2202 7.95455 14.4418 6.89394 14.8849 6C15.3281 5.10606 15.9361 4.41667 16.7088 3.93182C17.4815 3.44697 18.3641 3.20455 19.3565 3.20455C19.9437 3.20455 20.4948 3.28977 21.0099 3.46023C21.5289 3.63068 21.9967 3.88068 22.4134 4.21023C22.83 4.53598 23.1785 4.93371 23.4588 5.40341C23.7391 5.86932 23.9323 6.40151 24.0384 7ZM30.4744 15L32.3835 3.36364H33.5199L31.6108 15H30.4744ZM25.179 11.7727L25.3608 10.6364H34.0426L33.8608 11.7727H25.179ZM26.3835 15L28.2926 3.36364H29.429L27.5199 15H26.3835ZM25.8608 7.72727L26.0426 6.59091H34.7244L34.5426 7.72727H25.8608ZM39.8409 15.1591C39.1742 15.1591 38.5739 15.0265 38.0398 14.7614C37.5057 14.4962 37.0777 14.1326 36.7557 13.6705C36.4337 13.2083 36.2576 12.6818 36.2273 12.0909H37.5909C37.6439 12.6174 37.8826 13.053 38.3068 13.3977C38.7348 13.7386 39.2462 13.9091 39.8409 13.9091C40.3182 13.9091 40.7424 13.7973 41.1136 13.5739C41.4886 13.3504 41.7822 13.0436 41.9943 12.6534C42.2102 12.2595 42.3182 11.8144 42.3182 11.3182C42.3182 10.8106 42.2064 10.358 41.983 9.96023C41.7633 9.55871 41.4602 9.24242 41.0739 9.01136C40.6875 8.7803 40.2462 8.66288 39.75 8.65909C39.3939 8.6553 39.0284 8.71023 38.6534 8.82386C38.2784 8.93371 37.9697 9.07576 37.7273 9.25L36.4091 9.09091L37.1136 3.36364H43.1591V4.61364H38.2955L37.8864 8.04545H37.9545C38.1932 7.85606 38.4924 7.69886 38.8523 7.57386C39.2121 7.44886 39.5871 7.38636 39.9773 7.38636C40.6894 7.38636 41.3239 7.55682 41.8807 7.89773C42.4413 8.23485 42.8807 8.69697 43.1989 9.28409C43.5208 9.87121 43.6818 10.5417 43.6818 11.2955C43.6818 12.0379 43.5152 12.7008 43.1818 13.2841C42.8523 13.8636 42.3977 14.322 41.8182 14.6591C41.2386 14.9924 40.5795 15.1591 39.8409 15.1591Z" fill="#F32851"/>
<path d="M3 28H55" stroke="#F32851" stroke-width="5" stroke-linecap="round"/>
<path d="M58.5252 78.6195C58.8435 79.1626 58.8435 79.8374 58.5252 80.3805C57.6989 81.7909 56.7909 82.6989 55.3805 83.5252C54.8374 83.8435 54.1626 83.8435 53.6195 83.5252C52.2091 82.6989 51.3011 81.7909 50.4748 80.3805C50.1565 79.8374 50.1565 79.1626 50.4748 78.6195C51.3011 77.2091 52.2091 76.3011 53.6195 75.4748C54.1626 75.1565 54.8374 75.1565 55.3805 75.4748C56.7909 76.3011 57.6989 77.2091 58.5252 78.6195Z" fill="#F32851"/>
<path d="M42.5252 78.6195C42.8435 79.1626 42.8435 79.8374 42.5252 80.3805C41.6989 81.7909 40.7909 82.6989 39.3805 83.5252C38.8374 83.8435 38.1626 83.8435 37.6195 83.5252C36.2091 82.6989 35.3011 81.7909 34.4748 80.3805C34.1565 79.8374 34.1565 79.1626 34.4748 78.6195C35.3011 77.2091 36.2091 76.3011 37.6195 75.4748C38.1626 75.1565 38.8374 75.1565 39.3805 75.4748C40.7909 76.3011 41.6989 77.2091 42.5252 78.6195Z" fill="#F32851"/>
</svg>
