<svg width="59" height="106" viewBox="0 0 59 106" fill="none" xmlns="http://www.w3.org/2000/svg">
<rect x="3.5" y="21.5" width="51" height="84" rx="1.5" stroke="#535353"/>
<line x1="3" y1="37.4999" x2="55" y2="37.4999" stroke="#535353"/>
<line x1="3" y1="53.5" x2="55" y2="53.5" stroke="#535353"/>
<path d="M3 88H54" stroke="#535353"/>
<path d="M3 71H54.5" stroke="#535353"/>
<line x1="21.5" y1="21" x2="21.5" y2="106" stroke="#535353"/>
<path d="M38.5 21L38.5 106" stroke="#535353"/>
<path d="M23.9134 7H22.5043C22.4209 6.5947 22.2751 6.23864 22.0668 5.93182C21.8622 5.625 21.6122 5.36742 21.3168 5.15909C21.0251 4.94697 20.7012 4.78788 20.3452 4.68182C19.9891 4.57576 19.6179 4.52273 19.2315 4.52273C18.527 4.52273 17.8887 4.70076 17.3168 5.05682C16.7486 5.41288 16.2959 5.9375 15.9588 6.63068C15.6255 7.32386 15.4588 8.17424 15.4588 9.18182C15.4588 10.1894 15.6255 11.0398 15.9588 11.733C16.2959 12.4261 16.7486 12.9508 17.3168 13.3068C17.8887 13.6629 18.527 13.8409 19.2315 13.8409C19.6179 13.8409 19.9891 13.7879 20.3452 13.6818C20.7012 13.5758 21.0251 13.4186 21.3168 13.2102C21.6122 12.9981 21.8622 12.7386 22.0668 12.4318C22.2751 12.1212 22.4209 11.7652 22.5043 11.3636H23.9134C23.8073 11.9583 23.6141 12.4905 23.3338 12.9602C23.0535 13.4299 22.705 13.8295 22.2884 14.1591C21.8717 14.4848 21.4039 14.733 20.8849 14.9034C20.3698 15.0739 19.8187 15.1591 19.2315 15.1591C18.2391 15.1591 17.3565 14.9167 16.5838 14.4318C15.8111 13.947 15.2031 13.2576 14.7599 12.3636C14.3168 11.4697 14.0952 10.4091 14.0952 9.18182C14.0952 7.95455 14.3168 6.89394 14.7599 6C15.2031 5.10606 15.8111 4.41667 16.5838 3.93182C17.3565 3.44697 18.2391 3.20455 19.2315 3.20455C19.8187 3.20455 20.3698 3.28977 20.8849 3.46023C21.4039 3.63068 21.8717 3.88068 22.2884 4.21023C22.705 4.53598 23.0535 4.93371 23.3338 5.40341C23.6141 5.86932 23.8073 6.40151 23.9134 7ZM30.3494 15L32.2585 3.36364H33.3949L31.4858 15H30.3494ZM25.054 11.7727L25.2358 10.6364H33.9176L33.7358 11.7727H25.054ZM26.2585 15L28.1676 3.36364H29.304L27.3949 15H26.2585ZM25.7358 7.72727L25.9176 6.59091H34.5994L34.4176 7.72727H25.7358ZM39.7841 3.20455C40.2614 3.20833 40.7386 3.29924 41.2159 3.47727C41.6932 3.6553 42.1288 3.95076 42.5227 4.36364C42.9167 4.77273 43.233 5.33144 43.4716 6.03977C43.7102 6.74811 43.8295 7.63636 43.8295 8.70455C43.8295 9.73864 43.7311 10.6572 43.5341 11.4602C43.3409 12.2595 43.0606 12.9337 42.6932 13.483C42.3295 14.0322 41.8864 14.4489 41.3636 14.733C40.8447 15.017 40.2576 15.1591 39.6023 15.1591C38.9508 15.1591 38.3693 15.0303 37.858 14.7727C37.3504 14.5114 36.9337 14.1496 36.608 13.6875C36.286 13.2216 36.0795 12.6818 35.9886 12.0682H37.375C37.5 12.6023 37.7481 13.0436 38.1193 13.392C38.4943 13.7367 38.9886 13.9091 39.6023 13.9091C40.5 13.9091 41.2083 13.517 41.7273 12.733C42.25 11.9489 42.5114 10.8409 42.5114 9.40909H42.4205C42.2083 9.72727 41.9564 10.0019 41.6648 10.233C41.3731 10.464 41.0492 10.642 40.6932 10.767C40.3371 10.892 39.9583 10.9545 39.5568 10.9545C38.8902 10.9545 38.2784 10.7898 37.7216 10.4602C37.1686 10.1269 36.7254 9.67045 36.392 9.09091C36.0625 8.50758 35.8977 7.84091 35.8977 7.09091C35.8977 6.37879 36.0568 5.72727 36.375 5.13636C36.697 4.54167 37.1477 4.06818 37.7273 3.71591C38.3106 3.36364 38.9962 3.19318 39.7841 3.20455ZM39.7841 4.45455C39.3068 4.45455 38.8769 4.57386 38.4943 4.8125C38.1155 5.04735 37.8144 5.36553 37.5909 5.76705C37.3712 6.16477 37.2614 6.60606 37.2614 7.09091C37.2614 7.57576 37.3674 8.01705 37.5795 8.41477C37.7955 8.80871 38.089 9.12311 38.4602 9.35795C38.8352 9.58902 39.2614 9.70455 39.7386 9.70455C40.0985 9.70455 40.4337 9.63447 40.7443 9.49432C41.0549 9.35038 41.3258 9.1553 41.5568 8.90909C41.7917 8.65909 41.9754 8.37689 42.108 8.0625C42.2405 7.74432 42.3068 7.41288 42.3068 7.06818C42.3068 6.61364 42.197 6.1875 41.9773 5.78977C41.7614 5.39205 41.4621 5.07008 41.0795 4.82386C40.7008 4.57765 40.2689 4.45455 39.7841 4.45455Z" fill="#F32851"/>
<path d="M3 28H55" stroke="#F32851" stroke-width="5" stroke-linecap="round"/>
<path d="M58.5252 44.6195C58.8435 45.1626 58.8435 45.8374 58.5252 46.3805C57.6989 47.7909 56.7909 48.6989 55.3805 49.5252C54.8374 49.8435 54.1626 49.8435 53.6195 49.5252C52.2091 48.6989 51.3011 47.7909 50.4748 46.3805C50.1565 45.8374 50.1565 45.1626 50.4748 44.6195C51.3011 43.2091 52.2091 42.3011 53.6195 41.4748C54.1626 41.1565 54.8374 41.1565 55.3805 41.4748C56.7909 42.3011 57.6989 43.2091 58.5252 44.6195Z" fill="#F32851"/>
<path d="M25.5252 61.6195C25.8435 62.1626 25.8435 62.8374 25.5252 63.3805C24.6989 64.7909 23.7909 65.6989 22.3805 66.5252C21.8374 66.8435 21.1626 66.8435 20.6195 66.5252C19.2091 65.6989 18.3011 64.7909 17.4748 63.3805C17.1565 62.8374 17.1565 62.1626 17.4748 61.6195C18.3011 60.2091 19.2091 59.3011 20.6195 58.4748C21.1626 58.1565 21.8374 58.1565 22.3805 58.4748C23.7909 59.3011 24.6989 60.2091 25.5252 61.6195Z" fill="#F32851"/>
</svg>
