<svg width="60" height="106" viewBox="0 0 60 106" fill="none" xmlns="http://www.w3.org/2000/svg">
<rect x="4.5" y="21.5" width="51" height="84" rx="1.5" stroke="#535353"/>
<line x1="4" y1="37.4999" x2="56" y2="37.4999" stroke="#535353"/>
<line x1="4" y1="53.5" x2="56" y2="53.5" stroke="#535353"/>
<path d="M4 88H55" stroke="#535353"/>
<path d="M4 71H55.5" stroke="#535353"/>
<line x1="22.5" y1="21" x2="22.5" y2="106" stroke="#535353"/>
<path d="M39.5 21L39.5 106" stroke="#535353"/>
<path d="M17.9602 7H16.5511C16.4678 6.5947 16.322 6.23864 16.1136 5.93182C15.9091 5.625 15.6591 5.36742 15.3636 5.15909C15.072 4.94697 14.7481 4.78788 14.392 4.68182C14.036 4.57576 13.6648 4.52273 13.2784 4.52273C12.5739 4.52273 11.9356 4.70076 11.3636 5.05682C10.7955 5.41288 10.3428 5.9375 10.0057 6.63068C9.67235 7.32386 9.50568 8.17424 9.50568 9.18182C9.50568 10.1894 9.67235 11.0398 10.0057 11.733C10.3428 12.4261 10.7955 12.9508 11.3636 13.3068C11.9356 13.6629 12.5739 13.8409 13.2784 13.8409C13.6648 13.8409 14.036 13.7879 14.392 13.6818C14.7481 13.5758 15.072 13.4186 15.3636 13.2102C15.6591 12.9981 15.9091 12.7386 16.1136 12.4318C16.322 12.1212 16.4678 11.7652 16.5511 11.3636H17.9602C17.8542 11.9583 17.661 12.4905 17.3807 12.9602C17.1004 13.4299 16.7519 13.8295 16.3352 14.1591C15.9186 14.4848 15.4508 14.733 14.9318 14.9034C14.4167 15.0739 13.8655 15.1591 13.2784 15.1591C12.286 15.1591 11.4034 14.9167 10.6307 14.4318C9.85795 13.947 9.25 13.2576 8.80682 12.3636C8.36364 11.4697 8.14205 10.4091 8.14205 9.18182C8.14205 7.95455 8.36364 6.89394 8.80682 6C9.25 5.10606 9.85795 4.41667 10.6307 3.93182C11.4034 3.44697 12.286 3.20455 13.2784 3.20455C13.8655 3.20455 14.4167 3.28977 14.9318 3.46023C15.4508 3.63068 15.9186 3.88068 16.3352 4.21023C16.7519 4.53598 17.1004 4.93371 17.3807 5.40341C17.661 5.86932 17.8542 6.40151 17.9602 7ZM24.3963 15L26.3054 3.36364H27.4418L25.5327 15H24.3963ZM19.1009 11.7727L19.2827 10.6364H27.9645L27.7827 11.7727H19.1009ZM20.3054 15L22.2145 3.36364H23.3509L21.4418 15H20.3054ZM19.7827 7.72727L19.9645 6.59091H28.6463L28.4645 7.72727H19.7827ZM30.1491 15V6.27273H31.4446V7.63636H31.5582C31.7401 7.17045 32.0336 6.80871 32.4389 6.55114C32.8442 6.28977 33.331 6.15909 33.8991 6.15909C34.4749 6.15909 34.9541 6.28977 35.3366 6.55114C35.723 6.80871 36.0241 7.17045 36.2401 7.63636H36.331C36.5545 7.18561 36.8897 6.82765 37.3366 6.5625C37.7836 6.29356 38.3196 6.15909 38.9446 6.15909C39.7249 6.15909 40.3632 6.40341 40.8594 6.89205C41.3556 7.37689 41.6037 8.13258 41.6037 9.15909V15H40.2628V9.15909C40.2628 8.51515 40.0866 8.05492 39.7344 7.77841C39.3821 7.50189 38.9673 7.36364 38.4901 7.36364C37.8764 7.36364 37.401 7.54924 37.0639 7.92045C36.7268 8.28788 36.5582 8.75379 36.5582 9.31818V15H35.1946V9.02273C35.1946 8.52652 35.0336 8.12689 34.7116 7.82386C34.3897 7.51705 33.9749 7.36364 33.4673 7.36364C33.1188 7.36364 32.7931 7.45644 32.4901 7.64205C32.1908 7.82765 31.9484 8.08523 31.7628 8.41477C31.581 8.74053 31.4901 9.11742 31.4901 9.54545V15H30.1491ZM47.8963 15.1591C47.419 15.1515 46.9418 15.0606 46.4645 14.8864C45.9872 14.7121 45.5516 14.4186 45.1577 14.0057C44.7637 13.589 44.4474 13.0265 44.2088 12.3182C43.9702 11.6061 43.8509 10.7121 43.8509 9.63636C43.8509 8.60606 43.9474 7.69318 44.1406 6.89773C44.3338 6.09848 44.6141 5.42614 44.9815 4.88068C45.349 4.33144 45.7921 3.91477 46.3111 3.63068C46.8338 3.34659 47.4228 3.20455 48.0781 3.20455C48.7296 3.20455 49.3092 3.33523 49.8168 3.59659C50.3281 3.85417 50.7448 4.21401 51.0668 4.67614C51.3887 5.13826 51.5971 5.67045 51.6918 6.27273H50.3054C50.1766 5.75 49.9266 5.31629 49.5554 4.97159C49.1842 4.62689 48.6918 4.45455 48.0781 4.45455C47.1766 4.45455 46.4664 4.84659 45.9474 5.63068C45.4323 6.41477 45.1728 7.51515 45.169 8.93182H45.2599C45.4721 8.60985 45.724 8.33523 46.0156 8.10795C46.3111 7.87689 46.6368 7.69886 46.9929 7.57386C47.349 7.44886 47.7259 7.38636 48.1236 7.38636C48.7902 7.38636 49.4001 7.55303 49.9531 7.88636C50.5062 8.21591 50.9493 8.67235 51.2827 9.25568C51.616 9.83523 51.7827 10.5 51.7827 11.25C51.7827 11.9697 51.6217 12.6288 51.2997 13.2273C50.9777 13.822 50.5251 14.2955 49.9418 14.6477C49.3622 14.9962 48.6804 15.1667 47.8963 15.1591ZM47.8963 13.9091C48.3736 13.9091 48.8016 13.7898 49.1804 13.5511C49.563 13.3125 49.8641 12.9924 50.0838 12.5909C50.3073 12.1894 50.419 11.7424 50.419 11.25C50.419 10.7689 50.3111 10.3314 50.0952 9.9375C49.883 9.53977 49.5895 9.22348 49.2145 8.98864C48.8433 8.75379 48.419 8.63636 47.9418 8.63636C47.5819 8.63636 47.2467 8.70833 46.9361 8.85227C46.6255 8.99242 46.3527 9.18561 46.1179 9.43182C45.8868 9.67803 45.705 9.96023 45.5724 10.2784C45.4399 10.5928 45.3736 10.9242 45.3736 11.2727C45.3736 11.7348 45.4815 12.1667 45.6974 12.5682C45.9171 12.9697 46.2164 13.2936 46.5952 13.5398C46.9777 13.786 47.4115 13.9091 47.8963 13.9091Z" fill="#F32851"/>
<path d="M26.5252 29.6195C26.8435 30.1626 26.8435 30.8374 26.5252 31.3805C25.6989 32.7909 24.7909 33.6989 23.3805 34.5252C22.8374 34.8435 22.1626 34.8435 21.6195 34.5252C20.2091 33.6989 19.3011 32.7909 18.4748 31.3805C18.1565 30.8374 18.1565 30.1626 18.4748 29.6195C19.3011 28.2091 20.2091 27.3011 21.6195 26.4748C22.1626 26.1565 22.8374 26.1565 23.3805 26.4748C24.7909 27.3011 25.6989 28.2091 26.5252 29.6195Z" fill="#F32851"/>
<path d="M59.5252 29.6195C59.8435 30.1626 59.8435 30.8374 59.5252 31.3805C58.6989 32.7909 57.7909 33.6989 56.3805 34.5252C55.8374 34.8435 55.1626 34.8435 54.6195 34.5252C53.2091 33.6989 52.3011 32.7909 51.4748 31.3805C51.1565 30.8374 51.1565 30.1626 51.4748 29.6195C52.3011 28.2091 53.2091 27.3011 54.6195 26.4748C55.1626 26.1565 55.8374 26.1565 56.3805 26.4748C57.7909 27.3011 58.6989 28.2091 59.5252 29.6195Z" fill="#F32851"/>
<path d="M8.52523 29.6195C8.84348 30.1626 8.84348 30.8374 8.52523 31.3805C7.69886 32.7909 6.79088 33.6989 5.38054 34.5252C4.83739 34.8435 4.16261 34.8435 3.61946 34.5252C2.20912 33.6989 1.30114 32.7909 0.474768 31.3805C0.15652 30.8374 0.15652 30.1626 0.474768 29.6195C1.30114 28.2091 2.20912 27.3011 3.61946 26.4748C4.16261 26.1565 4.83739 26.1565 5.38054 26.4748C6.79088 27.3011 7.69886 28.2091 8.52523 29.6195Z" fill="#F32851"/>
</svg>
