<svg width="58" height="106" viewBox="0 0 58 106" fill="none" xmlns="http://www.w3.org/2000/svg">
<rect x="3.5" y="21.5" width="51" height="84" rx="1.5" stroke="#535353"/>
<line x1="3" y1="37.4999" x2="55" y2="37.4999" stroke="#535353"/>
<line x1="3" y1="53.5" x2="55" y2="53.5" stroke="#535353"/>
<path d="M3 88H54" stroke="#535353"/>
<path d="M3 71H54.5" stroke="#535353"/>
<line x1="21.5" y1="21" x2="21.5" y2="106" stroke="#535353"/>
<path d="M38.5 21L38.5 106" stroke="#535353"/>
<path d="M17.3821 7H15.973C15.8897 6.5947 15.7438 6.23864 15.5355 5.93182C15.331 5.625 15.081 5.36742 14.7855 5.15909C14.4938 4.94697 14.17 4.78788 13.8139 4.68182C13.4579 4.57576 13.0866 4.52273 12.7003 4.52273C11.9957 4.52273 11.3575 4.70076 10.7855 5.05682C10.2173 5.41288 9.76468 5.9375 9.42756 6.63068C9.09422 7.32386 8.92756 8.17424 8.92756 9.18182C8.92756 10.1894 9.09422 11.0398 9.42756 11.733C9.76468 12.4261 10.2173 12.9508 10.7855 13.3068C11.3575 13.6629 11.9957 13.8409 12.7003 13.8409C13.0866 13.8409 13.4579 13.7879 13.8139 13.6818C14.17 13.5758 14.4938 13.4186 14.7855 13.2102C15.081 12.9981 15.331 12.7386 15.5355 12.4318C15.7438 12.1212 15.8897 11.7652 15.973 11.3636H17.3821C17.276 11.9583 17.0829 12.4905 16.8026 12.9602C16.5223 13.4299 16.1738 13.8295 15.7571 14.1591C15.3404 14.4848 14.8726 14.733 14.3537 14.9034C13.8385 15.0739 13.2874 15.1591 12.7003 15.1591C11.7079 15.1591 10.8253 14.9167 10.0526 14.4318C9.27983 13.947 8.67188 13.2576 8.22869 12.3636C7.78551 11.4697 7.56392 10.4091 7.56392 9.18182C7.56392 7.95455 7.78551 6.89394 8.22869 6C8.67188 5.10606 9.27983 4.41667 10.0526 3.93182C10.8253 3.44697 11.7079 3.20455 12.7003 3.20455C13.2874 3.20455 13.8385 3.28977 14.3537 3.46023C14.8726 3.63068 15.3404 3.88068 15.7571 4.21023C16.1738 4.53598 16.5223 4.93371 16.8026 5.40341C17.0829 5.86932 17.276 6.40151 17.3821 7ZM23.8182 15L25.7273 3.36364H26.8636L24.9545 15H23.8182ZM18.5227 11.7727L18.7045 10.6364H27.3864L27.2045 11.7727H18.5227ZM19.7273 15L21.6364 3.36364H22.7727L20.8636 15H19.7273ZM19.2045 7.72727L19.3864 6.59091H28.0682L27.8864 7.72727H19.2045ZM29.571 15V6.27273H30.8665V7.63636H30.9801C31.1619 7.17045 31.4555 6.80871 31.8608 6.55114C32.2661 6.28977 32.7528 6.15909 33.321 6.15909C33.8968 6.15909 34.3759 6.28977 34.7585 6.55114C35.1449 6.80871 35.446 7.17045 35.6619 7.63636H35.7528C35.9763 7.18561 36.3116 6.82765 36.7585 6.5625C37.2055 6.29356 37.7415 6.15909 38.3665 6.15909C39.1468 6.15909 39.785 6.40341 40.2812 6.89205C40.7775 7.37689 41.0256 8.13258 41.0256 9.15909V15H39.6847V9.15909C39.6847 8.51515 39.5085 8.05492 39.1562 7.77841C38.804 7.50189 38.3892 7.36364 37.9119 7.36364C37.2983 7.36364 36.8229 7.54924 36.4858 7.92045C36.1487 8.28788 35.9801 8.75379 35.9801 9.31818V15H34.6165V9.02273C34.6165 8.52652 34.4555 8.12689 34.1335 7.82386C33.8116 7.51705 33.3968 7.36364 32.8892 7.36364C32.5407 7.36364 32.215 7.45644 31.9119 7.64205C31.6127 7.82765 31.3703 8.08523 31.1847 8.41477C31.0028 8.74053 30.9119 9.11742 30.9119 9.54545V15H29.571ZM43.8182 15L49.0227 4.70455V4.61364H43.0227V3.36364H50.4773V4.68182L45.2955 15H43.8182Z" fill="#F32851"/>
<path d="M3 80H55" stroke="#F32851" stroke-width="5" stroke-linecap="round"/>
</svg>
