<svg width="60" height="106" viewBox="0 0 60 106" fill="none" xmlns="http://www.w3.org/2000/svg">
<rect x="4.5" y="21.5" width="51" height="84" rx="1.5" stroke="#535353"/>
<line x1="4" y1="37.4999" x2="56" y2="37.4999" stroke="#535353"/>
<line x1="4" y1="53.5" x2="56" y2="53.5" stroke="#535353"/>
<path d="M4 88H55" stroke="#535353"/>
<path d="M4 71H55.5" stroke="#535353"/>
<line x1="22.5" y1="21" x2="22.5" y2="106" stroke="#535353"/>
<path d="M39.5 21L39.5 106" stroke="#535353"/>
<path d="M17.9602 7H16.5511C16.4678 6.5947 16.322 6.23864 16.1136 5.93182C15.9091 5.625 15.6591 5.36742 15.3636 5.15909C15.072 4.94697 14.7481 4.78788 14.392 4.68182C14.036 4.57576 13.6648 4.52273 13.2784 4.52273C12.5739 4.52273 11.9356 4.70076 11.3636 5.05682C10.7955 5.41288 10.3428 5.9375 10.0057 6.63068C9.67235 7.32386 9.50568 8.17424 9.50568 9.18182C9.50568 10.1894 9.67235 11.0398 10.0057 11.733C10.3428 12.4261 10.7955 12.9508 11.3636 13.3068C11.9356 13.6629 12.5739 13.8409 13.2784 13.8409C13.6648 13.8409 14.036 13.7879 14.392 13.6818C14.7481 13.5758 15.072 13.4186 15.3636 13.2102C15.6591 12.9981 15.9091 12.7386 16.1136 12.4318C16.322 12.1212 16.4678 11.7652 16.5511 11.3636H17.9602C17.8542 11.9583 17.661 12.4905 17.3807 12.9602C17.1004 13.4299 16.7519 13.8295 16.3352 14.1591C15.9186 14.4848 15.4508 14.733 14.9318 14.9034C14.4167 15.0739 13.8655 15.1591 13.2784 15.1591C12.286 15.1591 11.4034 14.9167 10.6307 14.4318C9.85795 13.947 9.25 13.2576 8.80682 12.3636C8.36364 11.4697 8.14205 10.4091 8.14205 9.18182C8.14205 7.95455 8.36364 6.89394 8.80682 6C9.25 5.10606 9.85795 4.41667 10.6307 3.93182C11.4034 3.44697 12.286 3.20455 13.2784 3.20455C13.8655 3.20455 14.4167 3.28977 14.9318 3.46023C15.4508 3.63068 15.9186 3.88068 16.3352 4.21023C16.7519 4.53598 17.1004 4.93371 17.3807 5.40341C17.661 5.86932 17.8542 6.40151 17.9602 7ZM24.3963 15L26.3054 3.36364H27.4418L25.5327 15H24.3963ZM19.1009 11.7727L19.2827 10.6364H27.9645L27.7827 11.7727H19.1009ZM20.3054 15L22.2145 3.36364H23.3509L21.4418 15H20.3054ZM19.7827 7.72727L19.9645 6.59091H28.6463L28.4645 7.72727H19.7827ZM30.1491 15V6.27273H31.4446V7.63636H31.5582C31.7401 7.17045 32.0336 6.80871 32.4389 6.55114C32.8442 6.28977 33.331 6.15909 33.8991 6.15909C34.4749 6.15909 34.9541 6.28977 35.3366 6.55114C35.723 6.80871 36.0241 7.17045 36.2401 7.63636H36.331C36.5545 7.18561 36.8897 6.82765 37.3366 6.5625C37.7836 6.29356 38.3196 6.15909 38.9446 6.15909C39.7249 6.15909 40.3632 6.40341 40.8594 6.89205C41.3556 7.37689 41.6037 8.13258 41.6037 9.15909V15H40.2628V9.15909C40.2628 8.51515 40.0866 8.05492 39.7344 7.77841C39.3821 7.50189 38.9673 7.36364 38.4901 7.36364C37.8764 7.36364 37.401 7.54924 37.0639 7.92045C36.7268 8.28788 36.5582 8.75379 36.5582 9.31818V15H35.1946V9.02273C35.1946 8.52652 35.0336 8.12689 34.7116 7.82386C34.3897 7.51705 33.9749 7.36364 33.4673 7.36364C33.1188 7.36364 32.7931 7.45644 32.4901 7.64205C32.1908 7.82765 31.9484 8.08523 31.7628 8.41477C31.581 8.74053 31.4901 9.11742 31.4901 9.54545V15H30.1491ZM47.7372 3.20455C48.2145 3.20833 48.6918 3.29924 49.169 3.47727C49.6463 3.6553 50.0819 3.95076 50.4759 4.36364C50.8698 4.77273 51.1861 5.33144 51.4247 6.03977C51.6634 6.74811 51.7827 7.63636 51.7827 8.70455C51.7827 9.73864 51.6842 10.6572 51.4872 11.4602C51.294 12.2595 51.0137 12.9337 50.6463 13.483C50.2827 14.0322 49.8395 14.4489 49.3168 14.733C48.7978 15.017 48.2107 15.1591 47.5554 15.1591C46.9039 15.1591 46.3224 15.0303 45.8111 14.7727C45.3035 14.5114 44.8868 14.1496 44.5611 13.6875C44.2391 13.2216 44.0327 12.6818 43.9418 12.0682H45.3281C45.4531 12.6023 45.7012 13.0436 46.0724 13.392C46.4474 13.7367 46.9418 13.9091 47.5554 13.9091C48.4531 13.9091 49.1615 13.517 49.6804 12.733C50.2031 11.9489 50.4645 10.8409 50.4645 9.40909H50.3736C50.1615 9.72727 49.9096 10.0019 49.6179 10.233C49.3262 10.464 49.0024 10.642 48.6463 10.767C48.2902 10.892 47.9115 10.9545 47.5099 10.9545C46.8433 10.9545 46.2315 10.7898 45.6747 10.4602C45.1217 10.1269 44.6785 9.67045 44.3452 9.09091C44.0156 8.50758 43.8509 7.84091 43.8509 7.09091C43.8509 6.37879 44.0099 5.72727 44.3281 5.13636C44.6501 4.54167 45.1009 4.06818 45.6804 3.71591C46.2637 3.36364 46.9493 3.19318 47.7372 3.20455ZM47.7372 4.45455C47.2599 4.45455 46.83 4.57386 46.4474 4.8125C46.0687 5.04735 45.7675 5.36553 45.544 5.76705C45.3243 6.16477 45.2145 6.60606 45.2145 7.09091C45.2145 7.57576 45.3205 8.01705 45.5327 8.41477C45.7486 8.80871 46.0421 9.12311 46.4134 9.35795C46.7884 9.58902 47.2145 9.70455 47.6918 9.70455C48.0516 9.70455 48.3868 9.63447 48.6974 9.49432C49.008 9.35038 49.2789 9.1553 49.5099 8.90909C49.7448 8.65909 49.9285 8.37689 50.0611 8.0625C50.1937 7.74432 50.2599 7.41288 50.2599 7.06818C50.2599 6.61364 50.1501 6.1875 49.9304 5.78977C49.7145 5.39205 49.4152 5.07008 49.0327 4.82386C48.6539 4.57765 48.2221 4.45455 47.7372 4.45455Z" fill="#F32851"/>
<path d="M26.5252 61.6195C26.8435 62.1626 26.8435 62.8374 26.5252 63.3805C25.6989 64.7909 24.7909 65.6989 23.3805 66.5252C22.8374 66.8435 22.1626 66.8435 21.6195 66.5252C20.2091 65.6989 19.3011 64.7909 18.4748 63.3805C18.1565 62.8374 18.1565 62.1626 18.4748 61.6195C19.3011 60.2091 20.2091 59.3011 21.6195 58.4748C22.1626 58.1565 22.8374 58.1565 23.3805 58.4748C24.7909 59.3011 25.6989 60.2091 26.5252 61.6195Z" fill="#F32851"/>
<path d="M59.5252 78.6195C59.8435 79.1626 59.8435 79.8374 59.5252 80.3805C58.6989 81.7909 57.7909 82.6989 56.3805 83.5252C55.8374 83.8435 55.1626 83.8435 54.6195 83.5252C53.2091 82.6989 52.3011 81.7909 51.4748 80.3805C51.1565 79.8374 51.1565 79.1626 51.4748 78.6195C52.3011 77.2091 53.2091 76.3011 54.6195 75.4748C55.1626 75.1565 55.8374 75.1565 56.3805 75.4748C57.7909 76.3011 58.6989 77.2091 59.5252 78.6195Z" fill="#F32851"/>
<path d="M8.52523 78.6195C8.84348 79.1626 8.84348 79.8374 8.52523 80.3805C7.69886 81.7909 6.79088 82.6989 5.38054 83.5252C4.83739 83.8435 4.16261 83.8435 3.61946 83.5252C2.20912 82.6989 1.30114 81.7909 0.474768 80.3805C0.15652 79.8374 0.15652 79.1626 0.474768 78.6195C1.30114 77.2091 2.20912 76.3011 3.61946 75.4748C4.16261 75.1565 4.83739 75.1565 5.38054 75.4748C6.79088 76.3011 7.69886 77.2091 8.52523 78.6195Z" fill="#F32851"/>
</svg>
