<svg width="56" height="106" viewBox="0 0 56 106" fill="none" xmlns="http://www.w3.org/2000/svg">
<rect x="0.5" y="21.5" width="51" height="84" rx="1.5" stroke="#535353"/>
<line y1="37.4999" x2="52" y2="37.4999" stroke="#535353"/>
<line y1="53.5" x2="52" y2="53.5" stroke="#535353"/>
<path d="M0 88H51" stroke="#535353"/>
<path d="M0 71H51.5" stroke="#535353"/>
<line x1="18.5" y1="21" x2="18.5" y2="106" stroke="#535353"/>
<path d="M35.5 21L35.5 106" stroke="#535353"/>
<path d="M55.5252 61.6195C55.8435 62.1626 55.8435 62.8374 55.5252 63.3805C54.6989 64.7909 53.7909 65.6989 52.3805 66.5252C51.8374 66.8435 51.1626 66.8435 50.6195 66.5252C49.2091 65.6989 48.3011 64.7909 47.4748 63.3805C47.1565 62.8374 47.1565 62.1626 47.4748 61.6195C48.3011 60.2091 49.2091 59.3011 50.6195 58.4748C51.1626 58.1565 51.8374 58.1565 52.3805 58.4748C53.7909 59.3011 54.6989 60.2091 55.5252 61.6195Z" fill="#F32851"/>
<path d="M39.5252 27.6195C39.8435 28.1626 39.8435 28.8374 39.5252 29.3805C38.6989 30.7909 37.7909 31.6989 36.3805 32.5252C35.8374 32.8435 35.1626 32.8435 34.6195 32.5252C33.2091 31.6989 32.3011 30.7909 31.4748 29.3805C31.1565 28.8374 31.1565 28.1626 31.4748 27.6195C32.3011 26.2091 33.2091 25.3011 34.6195 24.4748C35.1626 24.1565 35.8374 24.1565 36.3805 24.4748C37.7909 25.3011 38.6989 26.2091 39.5252 27.6195Z" fill="#F32851"/>
<path d="M13.8118 7H12.4027C12.3194 6.5947 12.1735 6.23864 11.9652 5.93182C11.7607 5.625 11.5107 5.36742 11.2152 5.15909C10.9235 4.94697 10.5997 4.78788 10.2436 4.68182C9.88755 4.57576 9.51634 4.52273 9.12997 4.52273C8.42543 4.52273 7.78717 4.70076 7.2152 5.05682C6.64702 5.41288 6.19437 5.9375 5.85724 6.63068C5.52391 7.32386 5.35724 8.17424 5.35724 9.18182C5.35724 10.1894 5.52391 11.0398 5.85724 11.733C6.19437 12.4261 6.64702 12.9508 7.2152 13.3068C7.78717 13.6629 8.42543 13.8409 9.12997 13.8409C9.51634 13.8409 9.88755 13.7879 10.2436 13.6818C10.5997 13.5758 10.9235 13.4186 11.2152 13.2102C11.5107 12.9981 11.7607 12.7386 11.9652 12.4318C12.1735 12.1212 12.3194 11.7652 12.4027 11.3636H13.8118C13.7057 11.9583 13.5125 12.4905 13.2322 12.9602C12.9519 13.4299 12.6035 13.8295 12.1868 14.1591C11.7701 14.4848 11.3023 14.733 10.7834 14.9034C10.2682 15.0739 9.71709 15.1591 9.12997 15.1591C8.13755 15.1591 7.25497 14.9167 6.48224 14.4318C5.70952 13.947 5.10156 13.2576 4.65838 12.3636C4.2152 11.4697 3.99361 10.4091 3.99361 9.18182C3.99361 7.95455 4.2152 6.89394 4.65838 6C5.10156 5.10606 5.70952 4.41667 6.48224 3.93182C7.25497 3.44697 8.13755 3.20455 9.12997 3.20455C9.71709 3.20455 10.2682 3.28977 10.7834 3.46023C11.3023 3.63068 11.7701 3.88068 12.1868 4.21023C12.6035 4.53598 12.9519 4.93371 13.2322 5.40341C13.5125 5.86932 13.7057 6.40151 13.8118 7ZM22.0888 8.22727L20.8842 8.56818C20.8085 8.36742 20.6967 8.17235 20.549 7.98295C20.4051 7.78977 20.2081 7.63068 19.9581 7.50568C19.7081 7.38068 19.388 7.31818 18.9979 7.31818C18.4638 7.31818 18.0187 7.44129 17.6626 7.6875C17.3104 7.92992 17.1342 8.23864 17.1342 8.61364C17.1342 8.94697 17.2554 9.21023 17.4979 9.40341C17.7403 9.59659 18.1191 9.75758 18.6342 9.88636L19.9297 10.2045C20.71 10.3939 21.2914 10.6837 21.674 11.0739C22.0566 11.4602 22.2479 11.9583 22.2479 12.5682C22.2479 13.0682 22.1039 13.5152 21.8161 13.9091C21.532 14.303 21.1342 14.6136 20.6229 14.8409C20.1115 15.0682 19.5168 15.1818 18.8388 15.1818C17.9486 15.1818 17.2119 14.9886 16.6286 14.6023C16.0452 14.2159 15.6759 13.6515 15.5206 12.9091L16.7933 12.5909C16.9145 13.0606 17.1437 13.4129 17.4808 13.6477C17.8217 13.8826 18.2668 14 18.8161 14C19.4411 14 19.9373 13.8674 20.3047 13.6023C20.6759 13.3333 20.8615 13.0114 20.8615 12.6364C20.8615 12.3333 20.7554 12.0795 20.5433 11.875C20.3312 11.6667 20.0054 11.5114 19.5661 11.4091L18.1115 11.0682C17.3123 10.8788 16.7251 10.5852 16.3501 10.1875C15.9789 9.78598 15.7933 9.28409 15.7933 8.68182C15.7933 8.18939 15.9316 7.75379 16.2081 7.375C16.4884 6.99621 16.8691 6.69886 17.3501 6.48295C17.835 6.26705 18.3842 6.15909 18.9979 6.15909C19.8615 6.15909 20.5395 6.34848 21.032 6.72727C21.5282 7.10606 21.8804 7.60606 22.0888 8.22727ZM29.7663 11.4318V6.27273H31.1072V15H29.7663V13.5227H29.6754C29.4709 13.9659 29.1527 14.3428 28.7209 14.6534C28.2891 14.9602 27.7436 15.1136 27.0845 15.1136C26.5391 15.1136 26.0542 14.9943 25.63 14.7557C25.2057 14.5133 24.8724 14.1496 24.63 13.6648C24.3875 13.1761 24.2663 12.5606 24.2663 11.8182V6.27273H25.6072V11.7273C25.6072 12.3636 25.7853 12.8712 26.1413 13.25C26.5012 13.6288 26.9595 13.8182 27.5163 13.8182C27.8497 13.8182 28.1887 13.733 28.5334 13.5625C28.8819 13.392 29.1735 13.1307 29.4084 12.7784C29.647 12.4261 29.7663 11.9773 29.7663 11.4318ZM39.745 8.22727L38.5405 8.56818C38.4647 8.36742 38.353 8.17235 38.2053 7.98295C38.0613 7.78977 37.8643 7.63068 37.6143 7.50568C37.3643 7.38068 37.0443 7.31818 36.6541 7.31818C36.12 7.31818 35.675 7.44129 35.3189 7.6875C34.9666 7.92992 34.7905 8.23864 34.7905 8.61364C34.7905 8.94697 34.9117 9.21023 35.1541 9.40341C35.3965 9.59659 35.7753 9.75758 36.2905 9.88636L37.5859 10.2045C38.3662 10.3939 38.9477 10.6837 39.3303 11.0739C39.7128 11.4602 39.9041 11.9583 39.9041 12.5682C39.9041 13.0682 39.7602 13.5152 39.4723 13.9091C39.1882 14.303 38.7905 14.6136 38.2791 14.8409C37.7678 15.0682 37.1731 15.1818 36.495 15.1818C35.6049 15.1818 34.8681 14.9886 34.2848 14.6023C33.7015 14.2159 33.3321 13.6515 33.1768 12.9091L34.4496 12.5909C34.5708 13.0606 34.8 13.4129 35.1371 13.6477C35.478 13.8826 35.9231 14 36.4723 14C37.0973 14 37.5935 13.8674 37.9609 13.6023C38.3321 13.3333 38.5178 13.0114 38.5178 12.6364C38.5178 12.3333 38.4117 12.0795 38.1996 11.875C37.9875 11.6667 37.6617 11.5114 37.2223 11.4091L35.7678 11.0682C34.9685 10.8788 34.3814 10.5852 34.0064 10.1875C33.6352 9.78598 33.4496 9.28409 33.4496 8.68182C33.4496 8.18939 33.5878 7.75379 33.8643 7.375C34.1446 6.99621 34.5253 6.69886 35.0064 6.48295C35.4912 6.26705 36.0405 6.15909 36.6541 6.15909C37.5178 6.15909 38.1958 6.34848 38.6882 6.72727C39.1844 7.10606 39.5367 7.60606 39.745 8.22727ZM41.6271 12.6136V11.4545L46.7408 3.36364H47.5817V5.15909H47.0135L43.1499 11.2727V11.3636H50.0362V12.6136H41.6271ZM47.1044 15V12.2614V11.7216V3.36364H48.4453V15H47.1044Z" fill="#F32851"/>
</svg>
