<svg width="56" height="106" viewBox="0 0 56 106" fill="none" xmlns="http://www.w3.org/2000/svg">
<rect x="4.5" y="21.5" width="51" height="84" rx="1.5" stroke="#535353"/>
<line x1="4" y1="37.4999" x2="56" y2="37.4999" stroke="#535353"/>
<line x1="4" y1="53.5" x2="56" y2="53.5" stroke="#535353"/>
<path d="M4 88H55" stroke="#535353"/>
<path d="M4 71H55.5" stroke="#535353"/>
<line x1="22.5" y1="21" x2="22.5" y2="106" stroke="#535353"/>
<path d="M39.5 21L39.5 106" stroke="#535353"/>
<path d="M22.2969 15H18.706V3.36364H22.456C23.5848 3.36364 24.5507 3.59659 25.3537 4.0625C26.1567 4.52462 26.7723 5.18939 27.2003 6.05682C27.6283 6.92045 27.8423 7.95455 27.8423 9.15909C27.8423 10.3712 27.6264 11.4148 27.1946 12.2898C26.7628 13.161 26.134 13.8314 25.3082 14.3011C24.4825 14.767 23.4787 15 22.2969 15ZM20.1151 13.75H22.206C23.1681 13.75 23.9654 13.5644 24.598 13.1932C25.2306 12.822 25.7022 12.2936 26.0128 11.608C26.3234 10.9223 26.4787 10.1061 26.4787 9.15909C26.4787 8.2197 26.3253 7.41098 26.0185 6.73295C25.7116 6.05114 25.2533 5.52841 24.6435 5.16477C24.0336 4.79735 23.2741 4.61364 22.3651 4.61364H20.1151V13.75ZM30.0241 15V6.27273H31.3196V7.63636H31.4332C31.6151 7.17045 31.9086 6.80871 32.3139 6.55114C32.7192 6.28977 33.206 6.15909 33.7741 6.15909C34.3499 6.15909 34.8291 6.28977 35.2116 6.55114C35.598 6.80871 35.8991 7.17045 36.1151 7.63636H36.206C36.4295 7.18561 36.7647 6.82765 37.2116 6.5625C37.6586 6.29356 38.1946 6.15909 38.8196 6.15909C39.5999 6.15909 40.2382 6.40341 40.7344 6.89205C41.2306 7.37689 41.4787 8.13258 41.4787 9.15909V15H40.1378V9.15909C40.1378 8.51515 39.9616 8.05492 39.6094 7.77841C39.2571 7.50189 38.8423 7.36364 38.3651 7.36364C37.7514 7.36364 37.276 7.54924 36.9389 7.92045C36.6018 8.28788 36.4332 8.75379 36.4332 9.31818V15H35.0696V9.02273C35.0696 8.52652 34.9086 8.12689 34.5866 7.82386C34.2647 7.51705 33.8499 7.36364 33.3423 7.36364C32.9938 7.36364 32.6681 7.45644 32.3651 7.64205C32.0658 7.82765 31.8234 8.08523 31.6378 8.41477C31.456 8.74053 31.3651 9.11742 31.3651 9.54545V15H30.0241Z" fill="#F32851"/>
<path d="M43.5252 29.6195C43.8435 30.1626 43.8435 30.8374 43.5252 31.3805C42.6989 32.7909 41.7909 33.6989 40.3805 34.5252C39.8374 34.8435 39.1626 34.8435 38.6195 34.5252C37.2091 33.6989 36.3011 32.7909 35.4748 31.3805C35.1565 30.8374 35.1565 30.1626 35.4748 29.6195C36.3011 28.2091 37.2091 27.3011 38.6195 26.4748C39.1626 26.1565 39.8374 26.1565 40.3805 26.4748C41.7909 27.3011 42.6989 28.2091 43.5252 29.6195Z" fill="#F32851"/>
<path d="M8.52523 44.6195C8.84348 45.1626 8.84348 45.8374 8.52523 46.3805C7.69886 47.7909 6.79088 48.6989 5.38054 49.5252C4.83739 49.8435 4.16261 49.8435 3.61946 49.5252C2.20912 48.6989 1.30114 47.7909 0.474768 46.3805C0.15652 45.8374 0.15652 45.1626 0.474768 44.6195C1.30114 43.2091 2.20912 42.3011 3.61946 41.4748C4.16261 41.1565 4.83739 41.1565 5.38054 41.4748C6.79088 42.3011 7.69886 43.2091 8.52523 44.6195Z" fill="#F32851"/>
<path d="M26.5252 44.6195C26.8435 45.1626 26.8435 45.8374 26.5252 46.3805C25.6989 47.7909 24.7909 48.6989 23.3805 49.5252C22.8374 49.8435 22.1626 49.8435 21.6195 49.5252C20.2091 48.6989 19.3011 47.7909 18.4748 46.3805C18.1565 45.8374 18.1565 45.1626 18.4748 44.6195C19.3011 43.2091 20.2091 42.3011 21.6195 41.4748C22.1626 41.1565 22.8374 41.1565 23.3805 41.4748C24.7909 42.3011 25.6989 43.2091 26.5252 44.6195Z" fill="#F32851"/>
</svg>
