<svg width="60" height="106" viewBox="0 0 60 106" fill="none" xmlns="http://www.w3.org/2000/svg">
<rect x="4.5" y="21.5" width="51" height="84" rx="1.5" stroke="#535353"/>
<line x1="4" y1="37.4999" x2="56" y2="37.4999" stroke="#535353"/>
<line x1="4" y1="53.5" x2="56" y2="53.5" stroke="#535353"/>
<path d="M4 88H55" stroke="#535353"/>
<path d="M4 71H55.5" stroke="#535353"/>
<line x1="22.5" y1="21" x2="22.5" y2="106" stroke="#535353"/>
<path d="M39.5 21L39.5 106" stroke="#535353"/>
<path d="M17.3047 15H13.7138V3.36364H17.4638C18.5926 3.36364 19.5585 3.59659 20.3615 4.0625C21.1645 4.52462 21.7801 5.18939 22.2081 6.05682C22.6361 6.92045 22.8501 7.95455 22.8501 9.15909C22.8501 10.3712 22.6342 11.4148 22.2024 12.2898C21.7706 13.161 21.1418 13.8314 20.3161 14.3011C19.4903 14.767 18.4865 15 17.3047 15ZM15.1229 13.75H17.2138C18.1759 13.75 18.9732 13.5644 19.6058 13.1932C20.2384 12.822 20.71 12.2936 21.0206 11.608C21.3312 10.9223 21.4865 10.1061 21.4865 9.15909C21.4865 8.2197 21.3331 7.41098 21.0263 6.73295C20.7195 6.05114 20.2611 5.52841 19.6513 5.16477C19.0414 4.79735 18.282 4.61364 17.3729 4.61364H15.1229V13.75ZM25.032 15V6.27273H26.3274V7.63636H26.4411C26.6229 7.17045 26.9164 6.80871 27.3217 6.55114C27.727 6.28977 28.2138 6.15909 28.782 6.15909C29.3577 6.15909 29.8369 6.28977 30.2195 6.55114C30.6058 6.80871 30.907 7.17045 31.1229 7.63636H31.2138C31.4373 7.18561 31.7725 6.82765 32.2195 6.5625C32.6664 6.29356 33.2024 6.15909 33.8274 6.15909C34.6077 6.15909 35.246 6.40341 35.7422 6.89205C36.2384 7.37689 36.4865 8.13258 36.4865 9.15909V15H35.1456V9.15909C35.1456 8.51515 34.9695 8.05492 34.6172 7.77841C34.2649 7.50189 33.8501 7.36364 33.3729 7.36364C32.7592 7.36364 32.2839 7.54924 31.9467 7.92045C31.6096 8.28788 31.4411 8.75379 31.4411 9.31818V15H30.0774V9.02273C30.0774 8.52652 29.9164 8.12689 29.5945 7.82386C29.2725 7.51705 28.8577 7.36364 28.3501 7.36364C28.0017 7.36364 27.6759 7.45644 27.3729 7.64205C27.0736 7.82765 26.8312 8.08523 26.6456 8.41477C26.4638 8.74053 26.3729 9.11742 26.3729 9.54545V15H25.032ZM42.7791 15.1591C42.3018 15.1515 41.8246 15.0606 41.3473 14.8864C40.87 14.7121 40.4344 14.4186 40.0405 14.0057C39.6465 13.589 39.3303 13.0265 39.0916 12.3182C38.853 11.6061 38.7337 10.7121 38.7337 9.63636C38.7337 8.60606 38.8303 7.69318 39.0234 6.89773C39.2166 6.09848 39.4969 5.42614 39.8643 4.88068C40.2318 4.33144 40.675 3.91477 41.1939 3.63068C41.7166 3.34659 42.3056 3.20455 42.9609 3.20455C43.6125 3.20455 44.192 3.33523 44.6996 3.59659C45.2109 3.85417 45.6276 4.21401 45.9496 4.67614C46.2715 5.13826 46.4799 5.67045 46.5746 6.27273H45.1882C45.0594 5.75 44.8094 5.31629 44.4382 4.97159C44.067 4.62689 43.5746 4.45455 42.9609 4.45455C42.0594 4.45455 41.3492 4.84659 40.8303 5.63068C40.3151 6.41477 40.0556 7.51515 40.0518 8.93182H40.1428C40.3549 8.60985 40.6068 8.33523 40.8984 8.10795C41.1939 7.87689 41.5196 7.69886 41.8757 7.57386C42.2318 7.44886 42.6087 7.38636 43.0064 7.38636C43.6731 7.38636 44.2829 7.55303 44.8359 7.88636C45.389 8.21591 45.8321 8.67235 46.1655 9.25568C46.4988 9.83523 46.6655 10.5 46.6655 11.25C46.6655 11.9697 46.5045 12.6288 46.1825 13.2273C45.8606 13.822 45.4079 14.2955 44.8246 14.6477C44.245 14.9962 43.5632 15.1667 42.7791 15.1591ZM42.7791 13.9091C43.2564 13.9091 43.6844 13.7898 44.0632 13.5511C44.4458 13.3125 44.7469 12.9924 44.9666 12.5909C45.1901 12.1894 45.3018 11.7424 45.3018 11.25C45.3018 10.7689 45.1939 10.3314 44.978 9.9375C44.7659 9.53977 44.4723 9.22348 44.0973 8.98864C43.7261 8.75379 43.3018 8.63636 42.8246 8.63636C42.4647 8.63636 42.1295 8.70833 41.8189 8.85227C41.5083 8.99242 41.2356 9.18561 41.0007 9.43182C40.7696 9.67803 40.5878 9.96023 40.4553 10.2784C40.3227 10.5928 40.2564 10.9242 40.2564 11.2727C40.2564 11.7348 40.3643 12.1667 40.5803 12.5682C40.8 12.9697 41.0992 13.2936 41.478 13.5398C41.8606 13.786 42.2943 13.9091 42.7791 13.9091Z" fill="#F32851"/>
<path d="M59.5252 44.6195C59.8435 45.1626 59.8435 45.8374 59.5252 46.3805C58.6989 47.7909 57.7909 48.6989 56.3805 49.5252C55.8374 49.8435 55.1626 49.8435 54.6195 49.5252C53.2091 48.6989 52.3011 47.7909 51.4748 46.3805C51.1565 45.8374 51.1565 45.1626 51.4748 44.6195C52.3011 43.2091 53.2091 42.3011 54.6195 41.4748C55.1626 41.1565 55.8374 41.1565 56.3805 41.4748C57.7909 42.3011 58.6989 43.2091 59.5252 44.6195Z" fill="#F32851"/>
<path d="M43.5252 29.6195C43.8435 30.1626 43.8435 30.8374 43.5252 31.3805C42.6989 32.7909 41.7909 33.6989 40.3805 34.5252C39.8374 34.8435 39.1626 34.8435 38.6195 34.5252C37.2091 33.6989 36.3011 32.7909 35.4748 31.3805C35.1565 30.8374 35.1565 30.1626 35.4748 29.6195C36.3011 28.2091 37.2091 27.3011 38.6195 26.4748C39.1626 26.1565 39.8374 26.1565 40.3805 26.4748C41.7909 27.3011 42.6989 28.2091 43.5252 29.6195Z" fill="#F32851"/>
<path d="M26.5252 44.6195C26.8435 45.1626 26.8435 45.8374 26.5252 46.3805C25.6989 47.7909 24.7909 48.6989 23.3805 49.5252C22.8374 49.8435 22.1626 49.8435 21.6195 49.5252C20.2091 48.6989 19.3011 47.7909 18.4748 46.3805C18.1565 45.8374 18.1565 45.1626 18.4748 44.6195C19.3011 43.2091 20.2091 42.3011 21.6195 41.4748C22.1626 41.1565 22.8374 41.1565 23.3805 41.4748C24.7909 42.3011 25.6989 43.2091 26.5252 44.6195Z" fill="#F32851"/>
<path d="M8.52523 44.6195C8.84348 45.1626 8.84348 45.8374 8.52523 46.3805C7.69886 47.7909 6.79088 48.6989 5.38054 49.5252C4.83739 49.8435 4.16261 49.8435 3.61946 49.5252C2.20912 48.6989 1.30114 47.7909 0.474768 46.3805C0.15652 45.8374 0.15652 45.1626 0.474768 44.6195C1.30114 43.2091 2.20912 42.3011 3.61946 41.4748C4.16261 41.1565 4.83739 41.1565 5.38054 41.4748C6.79088 42.3011 7.69886 43.2091 8.52523 44.6195Z" fill="#F32851"/>
</svg>
