<svg width="58" height="106" viewBox="0 0 58 106" fill="none" xmlns="http://www.w3.org/2000/svg">
<rect x="3.5" y="21.5" width="51" height="84" rx="1.5" stroke="#535353"/>
<line x1="3" y1="37.4999" x2="55" y2="37.4999" stroke="#535353"/>
<line x1="3" y1="53.5" x2="55" y2="53.5" stroke="#535353"/>
<path d="M3 88H54" stroke="#535353"/>
<path d="M3 71H54.5" stroke="#535353"/>
<line x1="21.5" y1="21" x2="21.5" y2="106" stroke="#535353"/>
<path d="M38.5 21L38.5 106" stroke="#535353"/>
<path d="M16.7266 15H13.1357V3.36364H16.8857C18.0144 3.36364 18.9804 3.59659 19.7834 4.0625C20.5864 4.52462 21.2019 5.18939 21.63 6.05682C22.058 6.92045 22.272 7.95455 22.272 9.15909C22.272 10.3712 22.0561 11.4148 21.6243 12.2898C21.1925 13.161 20.5637 13.8314 19.7379 14.3011C18.9122 14.767 17.9084 15 16.7266 15ZM14.5447 13.75H16.6357C17.5978 13.75 18.3951 13.5644 19.0277 13.1932C19.6603 12.822 20.1319 12.2936 20.4425 11.608C20.7531 10.9223 20.9084 10.1061 20.9084 9.15909C20.9084 8.2197 20.755 7.41098 20.4482 6.73295C20.1413 6.05114 19.683 5.52841 19.0732 5.16477C18.4633 4.79735 17.7038 4.61364 16.7947 4.61364H14.5447V13.75ZM24.4538 15V6.27273H25.7493V7.63636H25.8629C26.0447 7.17045 26.3383 6.80871 26.7436 6.55114C27.1489 6.28977 27.6357 6.15909 28.2038 6.15909C28.7796 6.15909 29.2588 6.28977 29.6413 6.55114C30.0277 6.80871 30.3288 7.17045 30.5447 7.63636H30.6357C30.8591 7.18561 31.1944 6.82765 31.6413 6.5625C32.0883 6.29356 32.6243 6.15909 33.2493 6.15909C34.0296 6.15909 34.6679 6.40341 35.1641 6.89205C35.6603 7.37689 35.9084 8.13258 35.9084 9.15909V15H34.5675V9.15909C34.5675 8.51515 34.3913 8.05492 34.0391 7.77841C33.6868 7.50189 33.272 7.36364 32.7947 7.36364C32.1811 7.36364 31.7057 7.54924 31.3686 7.92045C31.0315 8.28788 30.8629 8.75379 30.8629 9.31818V15H29.4993V9.02273C29.4993 8.52652 29.3383 8.12689 29.0163 7.82386C28.6944 7.51705 28.2796 7.36364 27.772 7.36364C27.4235 7.36364 27.0978 7.45644 26.7947 7.64205C26.4955 7.82765 26.2531 8.08523 26.0675 8.41477C25.8857 8.74053 25.7947 9.11742 25.7947 9.54545V15H24.4538ZM38.701 15L43.9055 4.70455V4.61364H37.9055V3.36364H45.3601V4.68182L40.1783 15H38.701Z" fill="#F32851"/>
<path d="M3 96H55" stroke="#F32851" stroke-width="5" stroke-linecap="round"/>
</svg>
