<svg width="55" height="106" viewBox="0 0 55 106" fill="none" xmlns="http://www.w3.org/2000/svg">
<rect x="0.5" y="21.5" width="51" height="84" rx="1.5" stroke="#535353"/>
<line y1="37.4999" x2="52" y2="37.4999" stroke="#535353"/>
<line y1="53.5" x2="52" y2="53.5" stroke="#535353"/>
<path d="M0 88H51" stroke="#535353"/>
<path d="M0 71H51.5" stroke="#535353"/>
<line x1="18.5" y1="21" x2="18.5" y2="106" stroke="#535353"/>
<path d="M35.5 21L35.5 106" stroke="#535353"/>
<path d="M20.2031 15H16.6122V3.36364H20.3622C21.491 3.36364 22.4569 3.59659 23.2599 4.0625C24.063 4.52462 24.6785 5.18939 25.1065 6.05682C25.5346 6.92045 25.7486 7.95455 25.7486 9.15909C25.7486 10.3712 25.5327 11.4148 25.1009 12.2898C24.669 13.161 24.0402 13.8314 23.2145 14.3011C22.3887 14.767 21.3849 15 20.2031 15ZM18.0213 13.75H20.1122C21.0743 13.75 21.8717 13.5644 22.5043 13.1932C23.1368 12.822 23.6084 12.2936 23.919 11.608C24.2296 10.9223 24.3849 10.1061 24.3849 9.15909C24.3849 8.2197 24.2315 7.41098 23.9247 6.73295C23.6179 6.05114 23.1596 5.52841 22.5497 5.16477C21.9399 4.79735 21.1804 4.61364 20.2713 4.61364H18.0213V13.75ZM32.2713 15L34.1804 3.36364H35.3168L33.4077 15H32.2713ZM26.9759 11.7727L27.1577 10.6364H35.8395L35.6577 11.7727H26.9759ZM28.1804 15L30.0895 3.36364H31.2259L29.3168 15H28.1804ZM27.6577 7.72727L27.8395 6.59091H36.5213L36.3395 7.72727H27.6577Z" fill="#F32851"/>
<path d="M54.5252 29.6195C54.8435 30.1626 54.8435 30.8374 54.5252 31.3805C53.6989 32.7909 52.7909 33.6989 51.3805 34.5252C50.8374 34.8435 50.1626 34.8435 49.6195 34.5252C48.2091 33.6989 47.3011 32.7909 46.4748 31.3805C46.1565 30.8374 46.1565 30.1626 46.4748 29.6195C47.3011 28.2091 48.2091 27.3011 49.6195 26.4748C50.1626 26.1565 50.8374 26.1565 51.3805 26.4748C52.7909 27.3011 53.6989 28.2091 54.5252 29.6195Z" fill="#F32851"/>
<path d="M39.5252 61.6195C39.8435 62.1626 39.8435 62.8374 39.5252 63.3805C38.6989 64.7909 37.7909 65.6989 36.3805 66.5252C35.8374 66.8435 35.1626 66.8435 34.6195 66.5252C33.2091 65.6989 32.3011 64.7909 31.4748 63.3805C31.1565 62.8374 31.1565 62.1626 31.4748 61.6195C32.3011 60.2091 33.2091 59.3011 34.6195 58.4748C35.1626 58.1565 35.8374 58.1565 36.3805 58.4748C37.7909 59.3011 38.6989 60.2091 39.5252 61.6195Z" fill="#F32851"/>
<path d="M21.5252 62.6195C21.8435 63.1626 21.8435 63.8374 21.5252 64.3805C20.6989 65.7909 19.7909 66.6989 18.3805 67.5252C17.8374 67.8435 17.1626 67.8435 16.6195 67.5252C15.2091 66.6989 14.3011 65.7909 13.4748 64.3805C13.1565 63.8374 13.1565 63.1626 13.4748 62.6195C14.3011 61.2091 15.2091 60.3011 16.6195 59.4748C17.1626 59.1565 17.8374 59.1565 18.3805 59.4748C19.7909 60.3011 20.6989 61.2091 21.5252 62.6195Z" fill="#F32851"/>
</svg>
