<svg width="59" height="106" viewBox="0 0 59 106" fill="none" xmlns="http://www.w3.org/2000/svg">
<rect x="3.5" y="21.5" width="51" height="84" rx="1.5" stroke="#535353"/>
<line x1="3" y1="37.4999" x2="55" y2="37.4999" stroke="#535353"/>
<line x1="3" y1="53.5" x2="55" y2="53.5" stroke="#535353"/>
<path d="M3 88H54" stroke="#535353"/>
<path d="M3 71H54.5" stroke="#535353"/>
<line x1="21.5" y1="21" x2="21.5" y2="106" stroke="#535353"/>
<path d="M38.5 21L38.5 106" stroke="#535353"/>
<path d="M18.3359 15H14.745V3.36364H18.495C19.6238 3.36364 20.5897 3.59659 21.3928 4.0625C22.1958 4.52462 22.8113 5.18939 23.2393 6.05682C23.6674 6.92045 23.8814 7.95455 23.8814 9.15909C23.8814 10.3712 23.6655 11.4148 23.2337 12.2898C22.8018 13.161 22.1731 13.8314 21.3473 14.3011C20.5215 14.767 19.5178 15 18.3359 15ZM16.1541 13.75H18.245C19.2071 13.75 20.0045 13.5644 20.6371 13.1932C21.2696 12.822 21.7412 12.2936 22.0518 11.608C22.3625 10.9223 22.5178 10.1061 22.5178 9.15909C22.5178 8.2197 22.3643 7.41098 22.0575 6.73295C21.7507 6.05114 21.2924 5.52841 20.6825 5.16477C20.0727 4.79735 19.3132 4.61364 18.4041 4.61364H16.1541V13.75ZM30.4041 15L32.3132 3.36364H33.4496L31.5405 15H30.4041ZM25.1087 11.7727L25.2905 10.6364H33.9723L33.7905 11.7727H25.1087ZM26.3132 15L28.2223 3.36364H29.3587L27.4496 15H26.3132ZM25.7905 7.72727L25.9723 6.59091H34.6541L34.4723 7.72727H25.7905ZM39.7706 15.1591C39.1039 15.1591 38.5036 15.0265 37.9695 14.7614C37.4354 14.4962 37.0073 14.1326 36.6854 13.6705C36.3634 13.2083 36.1873 12.6818 36.157 12.0909H37.5206C37.5736 12.6174 37.8123 13.053 38.2365 13.3977C38.6645 13.7386 39.1759 13.9091 39.7706 13.9091C40.2479 13.9091 40.6721 13.7973 41.0433 13.5739C41.4183 13.3504 41.7119 13.0436 41.924 12.6534C42.1399 12.2595 42.2479 11.8144 42.2479 11.3182C42.2479 10.8106 42.1361 10.358 41.9126 9.96023C41.6929 9.55871 41.3899 9.24242 41.0036 9.01136C40.6172 8.7803 40.1759 8.66288 39.6797 8.65909C39.3236 8.6553 38.9581 8.71023 38.5831 8.82386C38.2081 8.93371 37.8994 9.07576 37.657 9.25L36.3388 9.09091L37.0433 3.36364H43.0888V4.61364H38.2251L37.8161 8.04545H37.8842C38.1229 7.85606 38.4221 7.69886 38.782 7.57386C39.1418 7.44886 39.5168 7.38636 39.907 7.38636C40.6191 7.38636 41.2536 7.55682 41.8104 7.89773C42.371 8.23485 42.8104 8.69697 43.1286 9.28409C43.4505 9.87121 43.6115 10.5417 43.6115 11.2955C43.6115 12.0379 43.4448 12.7008 43.1115 13.2841C42.782 13.8636 42.3274 14.322 41.7479 14.6591C41.1683 14.9924 40.5092 15.1591 39.7706 15.1591Z" fill="#F32851"/>
<path d="M3 28.5H55" stroke="#F32851" stroke-width="5" stroke-linecap="round"/>
<path d="M58.5252 78.6195C58.8435 79.1626 58.8435 79.8374 58.5252 80.3805C57.6989 81.7909 56.7909 82.6989 55.3805 83.5252C54.8374 83.8435 54.1626 83.8435 53.6195 83.5252C52.2091 82.6989 51.3011 81.7909 50.4748 80.3805C50.1565 79.8374 50.1565 79.1626 50.4748 78.6195C51.3011 77.2091 52.2091 76.3011 53.6195 75.4748C54.1626 75.1565 54.8374 75.1565 55.3805 75.4748C56.7909 76.3011 57.6989 77.2091 58.5252 78.6195Z" fill="#F32851"/>
<path d="M42.5252 78.6195C42.8435 79.1626 42.8435 79.8374 42.5252 80.3805C41.6989 81.7909 40.7909 82.6989 39.3805 83.5252C38.8374 83.8435 38.1626 83.8435 37.6195 83.5252C36.2091 82.6989 35.3011 81.7909 34.4748 80.3805C34.1565 79.8374 34.1565 79.1626 34.4748 78.6195C35.3011 77.2091 36.2091 76.3011 37.6195 75.4748C38.1626 75.1565 38.8374 75.1565 39.3805 75.4748C40.7909 76.3011 41.6989 77.2091 42.5252 78.6195Z" fill="#F32851"/>
</svg>
