<svg width="59" height="106" viewBox="0 0 59 106" fill="none" xmlns="http://www.w3.org/2000/svg">
<rect x="3.5" y="21.5" width="51" height="84" rx="1.5" stroke="#535353"/>
<line x1="3" y1="37.4999" x2="55" y2="37.4999" stroke="#535353"/>
<line x1="3" y1="53.5" x2="55" y2="53.5" stroke="#535353"/>
<path d="M3 88H54" stroke="#535353"/>
<path d="M3 71H54.5" stroke="#535353"/>
<line x1="21.5" y1="21" x2="21.5" y2="106" stroke="#535353"/>
<path d="M38.5 21L38.5 106" stroke="#535353"/>
<path d="M18.6328 15H15.0419V3.36364H18.7919C19.9207 3.36364 20.8866 3.59659 21.6896 4.0625C22.4927 4.52462 23.1082 5.18939 23.5362 6.05682C23.9643 6.92045 24.1783 7.95455 24.1783 9.15909C24.1783 10.3712 23.9624 11.4148 23.5305 12.2898C23.0987 13.161 22.4699 13.8314 21.6442 14.3011C20.8184 14.767 19.8146 15 18.6328 15ZM16.451 13.75H18.5419C19.504 13.75 20.3014 13.5644 20.9339 13.1932C21.5665 12.822 22.0381 12.2936 22.3487 11.608C22.6593 10.9223 22.8146 10.1061 22.8146 9.15909C22.8146 8.2197 22.6612 7.41098 22.3544 6.73295C22.0476 6.05114 21.5893 5.52841 20.9794 5.16477C20.3696 4.79735 19.6101 4.61364 18.701 4.61364H16.451V13.75ZM30.701 15L32.6101 3.36364H33.7464L31.8374 15H30.701ZM25.4055 11.7727L25.5874 10.6364H34.2692L34.0874 11.7727H25.4055ZM26.6101 15L28.5192 3.36364H29.6555L27.7464 15H26.6101ZM26.0874 7.72727L26.2692 6.59091H34.951L34.7692 7.72727H26.0874ZM36.7947 15L41.9993 4.70455V4.61364H35.9993V3.36364H43.4538V4.68182L38.272 15H36.7947Z" fill="#F32851"/>
<path d="M3 61H55" stroke="#F32851" stroke-width="5" stroke-linecap="round"/>
<path d="M58.5252 78.6195C58.8435 79.1626 58.8435 79.8374 58.5252 80.3805C57.6989 81.7909 56.7909 82.6989 55.3805 83.5252C54.8374 83.8435 54.1626 83.8435 53.6195 83.5252C52.2091 82.6989 51.3011 81.7909 50.4748 80.3805C50.1565 79.8374 50.1565 79.1626 50.4748 78.6195C51.3011 77.2091 52.2091 76.3011 53.6195 75.4748C54.1626 75.1565 54.8374 75.1565 55.3805 75.4748C56.7909 76.3011 57.6989 77.2091 58.5252 78.6195Z" fill="#F32851"/>
</svg>
