<svg width="60" height="106" viewBox="0 0 60 106" fill="none" xmlns="http://www.w3.org/2000/svg">
<rect x="4.5" y="21.5" width="51" height="84" rx="1.5" stroke="#535353"/>
<line x1="4" y1="37.4999" x2="56" y2="37.4999" stroke="#535353"/>
<line x1="4" y1="53.5" x2="56" y2="53.5" stroke="#535353"/>
<path d="M4 88H55" stroke="#535353"/>
<path d="M4 71H55.5" stroke="#535353"/>
<line x1="22.5" y1="21" x2="22.5" y2="106" stroke="#535353"/>
<path d="M39.5 21L39.5 106" stroke="#535353"/>
<path d="M17.25 15H13.6591V3.36364H17.4091C18.5379 3.36364 19.5038 3.59659 20.3068 4.0625C21.1098 4.52462 21.7254 5.18939 22.1534 6.05682C22.5814 6.92045 22.7955 7.95455 22.7955 9.15909C22.7955 10.3712 22.5795 11.4148 22.1477 12.2898C21.7159 13.161 21.0871 13.8314 20.2614 14.3011C19.4356 14.767 18.4318 15 17.25 15ZM15.0682 13.75H17.1591C18.1212 13.75 18.9186 13.5644 19.5511 13.1932C20.1837 12.822 20.6553 12.2936 20.9659 11.608C21.2765 10.9223 21.4318 10.1061 21.4318 9.15909C21.4318 8.2197 21.2784 7.41098 20.9716 6.73295C20.6648 6.05114 20.2064 5.52841 19.5966 5.16477C18.9867 4.79735 18.2273 4.61364 17.3182 4.61364H15.0682V13.75ZM29.3182 15L31.2273 3.36364H32.3636L30.4545 15H29.3182ZM24.0227 11.7727L24.2045 10.6364H32.8864L32.7045 11.7727H24.0227ZM25.2273 15L27.1364 3.36364H28.2727L26.3636 15H25.2273ZM24.7045 7.72727L24.8864 6.59091H33.5682L33.3864 7.72727H24.7045ZM35.071 15V6.27273H36.3665V7.63636H36.4801C36.6619 7.17045 36.9555 6.80871 37.3608 6.55114C37.7661 6.28977 38.2528 6.15909 38.821 6.15909C39.3968 6.15909 39.8759 6.28977 40.2585 6.55114C40.6449 6.80871 40.946 7.17045 41.1619 7.63636H41.2528C41.4763 7.18561 41.8116 6.82765 42.2585 6.5625C42.7055 6.29356 43.2415 6.15909 43.8665 6.15909C44.6468 6.15909 45.285 6.40341 45.7812 6.89205C46.2775 7.37689 46.5256 8.13258 46.5256 9.15909V15H45.1847V9.15909C45.1847 8.51515 45.0085 8.05492 44.6562 7.77841C44.304 7.50189 43.8892 7.36364 43.4119 7.36364C42.7983 7.36364 42.3229 7.54924 41.9858 7.92045C41.6487 8.28788 41.4801 8.75379 41.4801 9.31818V15H40.1165V9.02273C40.1165 8.52652 39.9555 8.12689 39.6335 7.82386C39.3116 7.51705 38.8968 7.36364 38.3892 7.36364C38.0407 7.36364 37.715 7.45644 37.4119 7.64205C37.1127 7.82765 36.8703 8.08523 36.6847 8.41477C36.5028 8.74053 36.4119 9.11742 36.4119 9.54545V15H35.071Z" fill="#F32851"/>
<path d="M59.5252 29.6195C59.8435 30.1626 59.8435 30.8374 59.5252 31.3805C58.6989 32.7909 57.7909 33.6989 56.3805 34.5252C55.8374 34.8435 55.1626 34.8435 54.6195 34.5252C53.2091 33.6989 52.3011 32.7909 51.4748 31.3805C51.1565 30.8374 51.1565 30.1626 51.4748 29.6195C52.3011 28.2091 53.2091 27.3011 54.6195 26.4748C55.1626 26.1565 55.8374 26.1565 56.3805 26.4748C57.7909 27.3011 58.6989 28.2091 59.5252 29.6195Z" fill="#F32851"/>
<path d="M43.5252 44.6195C43.8435 45.1626 43.8435 45.8374 43.5252 46.3805C42.6989 47.7909 41.7909 48.6989 40.3805 49.5252C39.8374 49.8435 39.1626 49.8435 38.6195 49.5252C37.2091 48.6989 36.3011 47.7909 35.4748 46.3805C35.1565 45.8374 35.1565 45.1626 35.4748 44.6195C36.3011 43.2091 37.2091 42.3011 38.6195 41.4748C39.1626 41.1565 39.8374 41.1565 40.3805 41.4748C41.7909 42.3011 42.6989 43.2091 43.5252 44.6195Z" fill="#F32851"/>
<path d="M26.5252 61.6195C26.8435 62.1626 26.8435 62.8374 26.5252 63.3805C25.6989 64.7909 24.7909 65.6989 23.3805 66.5252C22.8374 66.8435 22.1626 66.8435 21.6195 66.5252C20.2091 65.6989 19.3011 64.7909 18.4748 63.3805C18.1565 62.8374 18.1565 62.1626 18.4748 61.6195C19.3011 60.2091 20.2091 59.3011 21.6195 58.4748C22.1626 58.1565 22.8374 58.1565 23.3805 58.4748C24.7909 59.3011 25.6989 60.2091 26.5252 61.6195Z" fill="#F32851"/>
<path d="M8.52523 61.6195C8.84348 62.1626 8.84348 62.8374 8.52523 63.3805C7.69886 64.7909 6.79088 65.6989 5.38054 66.5252C4.83739 66.8435 4.16261 66.8435 3.61946 66.5252C2.20912 65.6989 1.30114 64.7909 0.474768 63.3805C0.15652 62.8374 0.15652 62.1626 0.474768 61.6195C1.30114 60.2091 2.20912 59.3011 3.61946 58.4748C4.16261 58.1565 4.83739 58.1565 5.38054 58.4748C6.79088 59.3011 7.69886 60.2091 8.52523 61.6195Z" fill="#F32851"/>
</svg>
