<svg width="60" height="106" viewBox="0 0 60 106" fill="none" xmlns="http://www.w3.org/2000/svg">
<rect x="4.5" y="21.5" width="51" height="84" rx="1.5" stroke="#535353"/>
<line x1="4" y1="37.4999" x2="56" y2="37.4999" stroke="#535353"/>
<line x1="4" y1="53.5" x2="56" y2="53.5" stroke="#535353"/>
<path d="M4 88H55" stroke="#535353"/>
<path d="M4 71H55.5" stroke="#535353"/>
<line x1="22.5" y1="21" x2="22.5" y2="106" stroke="#535353"/>
<path d="M39.5 21L39.5 106" stroke="#535353"/>
<path d="M12.2578 15H8.6669V3.36364H12.4169C13.5457 3.36364 14.5116 3.59659 15.3146 4.0625C16.1177 4.52462 16.7332 5.18939 17.1612 6.05682C17.5893 6.92045 17.8033 7.95455 17.8033 9.15909C17.8033 10.3712 17.5874 11.4148 17.1555 12.2898C16.7237 13.161 16.0949 13.8314 15.2692 14.3011C14.4434 14.767 13.4396 15 12.2578 15ZM10.076 13.75H12.1669C13.129 13.75 13.9264 13.5644 14.5589 13.1932C15.1915 12.822 15.6631 12.2936 15.9737 11.608C16.2843 10.9223 16.4396 10.1061 16.4396 9.15909C16.4396 8.2197 16.2862 7.41098 15.9794 6.73295C15.6726 6.05114 15.2143 5.52841 14.6044 5.16477C13.9946 4.79735 13.2351 4.61364 12.326 4.61364H10.076V13.75ZM24.326 15L26.2351 3.36364H27.3714L25.4624 15H24.326ZM19.0305 11.7727L19.2124 10.6364H27.8942L27.7124 11.7727H19.0305ZM20.2351 15L22.1442 3.36364H23.2805L21.3714 15H20.2351ZM19.7124 7.72727L19.8942 6.59091H28.576L28.3942 7.72727H19.7124ZM30.0788 15V6.27273H31.3743V7.63636H31.4879C31.6697 7.17045 31.9633 6.80871 32.3686 6.55114C32.7739 6.28977 33.2607 6.15909 33.8288 6.15909C34.4046 6.15909 34.8838 6.28977 35.2663 6.55114C35.6527 6.80871 35.9538 7.17045 36.1697 7.63636H36.2607C36.4841 7.18561 36.8194 6.82765 37.2663 6.5625C37.7133 6.29356 38.2493 6.15909 38.8743 6.15909C39.6546 6.15909 40.2929 6.40341 40.7891 6.89205C41.2853 7.37689 41.5334 8.13258 41.5334 9.15909V15H40.1925V9.15909C40.1925 8.51515 40.0163 8.05492 39.6641 7.77841C39.3118 7.50189 38.897 7.36364 38.4197 7.36364C37.8061 7.36364 37.3307 7.54924 36.9936 7.92045C36.6565 8.28788 36.4879 8.75379 36.4879 9.31818V15H35.1243V9.02273C35.1243 8.52652 34.9633 8.12689 34.6413 7.82386C34.3194 7.51705 33.9046 7.36364 33.397 7.36364C33.0485 7.36364 32.7228 7.45644 32.4197 7.64205C32.1205 7.82765 31.8781 8.08523 31.6925 8.41477C31.5107 8.74053 31.4197 9.11742 31.4197 9.54545V15H30.0788ZM47.6669 3.20455C48.1442 3.20833 48.6214 3.29924 49.0987 3.47727C49.576 3.6553 50.0116 3.95076 50.4055 4.36364C50.7995 4.77273 51.1158 5.33144 51.3544 6.03977C51.593 6.74811 51.7124 7.63636 51.7124 8.70455C51.7124 9.73864 51.6139 10.6572 51.4169 11.4602C51.2237 12.2595 50.9434 12.9337 50.576 13.483C50.2124 14.0322 49.7692 14.4489 49.2464 14.733C48.7275 15.017 48.1404 15.1591 47.4851 15.1591C46.8336 15.1591 46.2521 15.0303 45.7408 14.7727C45.2332 14.5114 44.8165 14.1496 44.4908 13.6875C44.1688 13.2216 43.9624 12.6818 43.8714 12.0682H45.2578C45.3828 12.6023 45.6309 13.0436 46.0021 13.392C46.3771 13.7367 46.8714 13.9091 47.4851 13.9091C48.3828 13.9091 49.0911 13.517 49.6101 12.733C50.1328 11.9489 50.3942 10.8409 50.3942 9.40909H50.3033C50.0911 9.72727 49.8393 10.0019 49.5476 10.233C49.2559 10.464 48.9321 10.642 48.576 10.767C48.2199 10.892 47.8411 10.9545 47.4396 10.9545C46.773 10.9545 46.1612 10.7898 45.6044 10.4602C45.0514 10.1269 44.6082 9.67045 44.2749 9.09091C43.9453 8.50758 43.7805 7.84091 43.7805 7.09091C43.7805 6.37879 43.9396 5.72727 44.2578 5.13636C44.5798 4.54167 45.0305 4.06818 45.6101 3.71591C46.1934 3.36364 46.879 3.19318 47.6669 3.20455ZM47.6669 4.45455C47.1896 4.45455 46.7597 4.57386 46.3771 4.8125C45.9983 5.04735 45.6972 5.36553 45.4737 5.76705C45.254 6.16477 45.1442 6.60606 45.1442 7.09091C45.1442 7.57576 45.2502 8.01705 45.4624 8.41477C45.6783 8.80871 45.9718 9.12311 46.343 9.35795C46.718 9.58902 47.1442 9.70455 47.6214 9.70455C47.9813 9.70455 48.3165 9.63447 48.6271 9.49432C48.9377 9.35038 49.2086 9.1553 49.4396 8.90909C49.6745 8.65909 49.8582 8.37689 49.9908 8.0625C50.1233 7.74432 50.1896 7.41288 50.1896 7.06818C50.1896 6.61364 50.0798 6.1875 49.8601 5.78977C49.6442 5.39205 49.3449 5.07008 48.9624 4.82386C48.5836 4.57765 48.1518 4.45455 47.6669 4.45455Z" fill="#F32851"/>
<path d="M59.5252 95.6195C59.8435 96.1626 59.8435 96.8374 59.5252 97.3805C58.6989 98.7909 57.7909 99.6989 56.3805 100.525C55.8374 100.843 55.1626 100.843 54.6195 100.525C53.2091 99.6989 52.3011 98.7909 51.4748 97.3805C51.1565 96.8374 51.1565 96.1626 51.4748 95.6195C52.3011 94.2091 53.2091 93.3011 54.6195 92.4748C55.1626 92.1565 55.8374 92.1565 56.3805 92.4748C57.7909 93.3011 58.6989 94.2091 59.5252 95.6195Z" fill="#F32851"/>
<path d="M43.5252 28.6195C43.8435 29.1626 43.8435 29.8374 43.5252 30.3805C42.6989 31.7909 41.7909 32.6989 40.3805 33.5252C39.8374 33.8435 39.1626 33.8435 38.6195 33.5252C37.2091 32.6989 36.3011 31.7909 35.4748 30.3805C35.1565 29.8374 35.1565 29.1626 35.4748 28.6195C36.3011 27.2091 37.2091 26.3011 38.6195 25.4748C39.1626 25.1565 39.8374 25.1565 40.3805 25.4748C41.7909 26.3011 42.6989 27.2091 43.5252 28.6195Z" fill="#F32851"/>
<path d="M26.5252 78.6195C26.8435 79.1626 26.8435 79.8374 26.5252 80.3805C25.6989 81.7909 24.7909 82.6989 23.3805 83.5252C22.8374 83.8435 22.1626 83.8435 21.6195 83.5252C20.2091 82.6989 19.3011 81.7909 18.4748 80.3805C18.1565 79.8374 18.1565 79.1626 18.4748 78.6195C19.3011 77.2091 20.2091 76.3011 21.6195 75.4748C22.1626 75.1565 22.8374 75.1565 23.3805 75.4748C24.7909 76.3011 25.6989 77.2091 26.5252 78.6195Z" fill="#F32851"/>
<path d="M8.52523 95.6195C8.84348 96.1626 8.84348 96.8374 8.52523 97.3805C7.69886 98.7909 6.79088 99.6989 5.38054 100.525C4.83739 100.843 4.16261 100.843 3.61946 100.525C2.20912 99.6989 1.30114 98.7909 0.474768 97.3805C0.15652 96.8374 0.15652 96.1626 0.474768 95.6195C1.30114 94.2091 2.20912 93.3011 3.61946 92.4748C4.16261 92.1565 4.83739 92.1565 5.38054 92.4748C6.79088 93.3011 7.69886 94.2091 8.52523 95.6195Z" fill="#F32851"/>
</svg>
