<svg width="59" height="106" viewBox="0 0 59 106" fill="none" xmlns="http://www.w3.org/2000/svg">
<rect x="3.5" y="21.5" width="51" height="84" rx="1.5" stroke="#535353"/>
<line x1="3" y1="37.4999" x2="55" y2="37.4999" stroke="#535353"/>
<line x1="3" y1="53.5" x2="55" y2="53.5" stroke="#535353"/>
<path d="M3 88H54" stroke="#535353"/>
<path d="M3 71H54.5" stroke="#535353"/>
<line x1="21.5" y1="21" x2="21.5" y2="106" stroke="#535353"/>
<path d="M38.5 21L38.5 106" stroke="#535353"/>
<path d="M8.23926 14H5.09721V3.81818H8.37846C9.36615 3.81818 10.2113 4.02202 10.914 4.42969C11.6166 4.83404 12.1552 5.41572 12.5297 6.17472C12.9043 6.9304 13.0915 7.83523 13.0915 8.8892C13.0915 9.94981 12.9026 10.8629 12.5248 11.6286C12.1469 12.3909 11.5967 12.9775 10.8742 13.3885C10.1517 13.7962 9.27335 14 8.23926 14ZM6.33017 12.9062H8.15971C9.00157 12.9062 9.69925 12.7438 10.2528 12.419C10.8063 12.0942 11.2189 11.6319 11.4907 11.032C11.7625 10.4321 11.8983 9.7178 11.8983 8.8892C11.8983 8.06723 11.7641 7.35961 11.4956 6.76633C11.2272 6.16974 10.8261 5.71236 10.2925 5.39418C9.75891 5.07268 9.09437 4.91193 8.29892 4.91193H6.33017V12.9062ZM18.7989 14L20.4694 3.81818H21.4637L19.7932 14H18.7989ZM14.1654 11.1761L14.3245 10.1818H21.9211L21.762 11.1761H14.1654ZM15.2194 14L16.8898 3.81818H17.8841L16.2137 14H15.2194ZM14.762 7.63636L14.9211 6.64205H22.5177L22.3586 7.63636H14.762ZM23.8327 14V6.36364H24.9662V7.55682H25.0656C25.2247 7.14915 25.4816 6.83262 25.8362 6.60724C26.1908 6.37855 26.6167 6.2642 27.1139 6.2642C27.6177 6.2642 28.037 6.37855 28.3717 6.60724C28.7098 6.83262 28.9733 7.14915 29.1622 7.55682H29.2417C29.4373 7.16241 29.7306 6.84919 30.1217 6.61719C30.5128 6.38187 30.9818 6.2642 31.5287 6.2642C32.2114 6.2642 32.7699 6.47798 33.2041 6.90554C33.6383 7.32978 33.8554 7.991 33.8554 8.8892V14H32.6821V8.8892C32.6821 8.32576 32.528 7.92306 32.2197 7.68111C31.9115 7.43916 31.5486 7.31818 31.1309 7.31818C30.594 7.31818 30.1781 7.48059 29.8831 7.8054C29.5881 8.12689 29.4406 8.53456 29.4406 9.02841V14H28.2474V8.76989C28.2474 8.3357 28.1066 7.98603 27.8248 7.72088C27.5431 7.45241 27.1802 7.31818 26.7361 7.31818C26.4311 7.31818 26.1461 7.39938 25.8809 7.56179C25.6191 7.72419 25.407 7.94957 25.2446 8.23793C25.0855 8.52296 25.0059 8.85275 25.0059 9.22727V14H23.8327ZM38.2478 14.179C37.7639 14.179 37.3247 14.0878 36.9303 13.9055C36.5359 13.7199 36.2227 13.4531 35.9907 13.1051C35.7587 12.7538 35.6427 12.3295 35.6427 11.8324C35.6427 11.3949 35.7288 11.0402 35.9012 10.7685C36.0735 10.4934 36.3039 10.2779 36.5922 10.1222C36.8806 9.96638 37.1988 9.85038 37.5468 9.77415C37.8981 9.6946 38.2511 9.63163 38.6057 9.58523C39.0698 9.52557 39.4459 9.48082 39.7343 9.45099C40.026 9.41785 40.2381 9.36316 40.3706 9.28693C40.5065 9.2107 40.5745 9.07812 40.5745 8.8892V8.84943C40.5745 8.3589 40.4403 7.97775 40.1718 7.70597C39.9066 7.43419 39.5039 7.2983 38.9637 7.2983C38.4036 7.2983 37.9644 7.42093 37.6462 7.66619C37.328 7.91146 37.1043 8.1733 36.9751 8.4517L35.8614 8.05398C36.0603 7.58996 36.3254 7.22869 36.6569 6.97017C36.9916 6.70833 37.3562 6.52604 37.7506 6.4233C38.1483 6.31723 38.5394 6.2642 38.9239 6.2642C39.1692 6.2642 39.4509 6.29403 39.7691 6.35369C40.0906 6.41004 40.4005 6.5277 40.6988 6.70668C41.0004 6.88565 41.2506 7.15578 41.4495 7.51705C41.6483 7.87831 41.7478 8.36222 41.7478 8.96875V14H40.5745V12.9659H40.5148C40.4353 13.1316 40.3027 13.3089 40.1171 13.4979C39.9315 13.6868 39.6846 13.8475 39.3763 13.9801C39.0681 14.1127 38.6919 14.179 38.2478 14.179ZM38.4268 13.125C38.8908 13.125 39.2819 13.0339 39.6001 12.8516C39.9215 12.6693 40.1635 12.4339 40.3259 12.1456C40.4916 11.8572 40.5745 11.554 40.5745 11.2358V10.1619C40.5248 10.2216 40.4154 10.2763 40.2464 10.326C40.0806 10.3724 39.8884 10.4138 39.6697 10.4503C39.4542 10.4834 39.2438 10.5133 39.0383 10.5398C38.8361 10.563 38.672 10.5829 38.5461 10.5994C38.2412 10.6392 37.9561 10.7038 37.691 10.7933C37.4291 10.8795 37.217 11.0104 37.0546 11.1861C36.8955 11.3584 36.816 11.5937 36.816 11.892C36.816 12.2997 36.9668 12.608 37.2684 12.8168C37.5733 13.0223 37.9594 13.125 38.4268 13.125ZM43.8893 6.36364H45.0626V14.5568C45.0626 15.0275 44.9814 15.4351 44.819 15.7798C44.6599 16.1245 44.4179 16.3913 44.0931 16.5803C43.7716 16.7692 43.3656 16.8636 42.8751 16.8636C42.8353 16.8636 42.7955 16.8636 42.7558 16.8636C42.716 16.8636 42.6762 16.8636 42.6365 16.8636V15.7699C42.6762 15.7699 42.7127 15.7699 42.7458 15.7699C42.779 15.7699 42.8154 15.7699 42.8552 15.7699C43.2132 15.7699 43.475 15.6638 43.6407 15.4517C43.8064 15.2429 43.8893 14.9446 43.8893 14.5568V6.36364ZM44.466 5.09091C44.2373 5.09091 44.0401 5.01302 43.8744 4.85724C43.712 4.70147 43.6308 4.5142 43.6308 4.29545C43.6308 4.0767 43.712 3.88944 43.8744 3.73366C44.0401 3.57789 44.2373 3.5 44.466 3.5C44.6947 3.5 44.8902 3.57789 45.0526 3.73366C45.2184 3.88944 45.3012 4.0767 45.3012 4.29545C45.3012 4.5142 45.2184 4.70147 45.0526 4.85724C44.8902 5.01302 44.6947 5.09091 44.466 5.09091ZM47.5099 14L52.0638 4.99148V4.91193H46.8138V3.81818H53.3366V4.97159L48.8025 14H47.5099Z" fill="#F32851"/>
<path d="M3 62H55" stroke="#F32851" stroke-width="5" stroke-linecap="round"/>
<path d="M58.5252 96.6195C58.8435 97.1626 58.8435 97.8374 58.5252 98.3805C57.6989 99.7909 56.7909 100.699 55.3805 101.525C54.8374 101.843 54.1626 101.843 53.6195 101.525C52.2091 100.699 51.3011 99.7909 50.4748 98.3805C50.1565 97.8374 50.1565 97.1626 50.4748 96.6195C51.3011 95.2091 52.2091 94.3011 53.6195 93.4748C54.1626 93.1565 54.8374 93.1565 55.3805 93.4748C56.7909 94.3011 57.6989 95.2091 58.5252 96.6195Z" fill="#F32851"/>
</svg>
