<svg width="60" height="106" viewBox="0 0 60 106" fill="none" xmlns="http://www.w3.org/2000/svg">
<rect x="4.5" y="21.5" width="51" height="84" rx="1.5" stroke="#535353"/>
<line x1="4" y1="37.4999" x2="56" y2="37.4999" stroke="#535353"/>
<line x1="4" y1="53.5" x2="56" y2="53.5" stroke="#535353"/>
<path d="M4 88H55" stroke="#535353"/>
<path d="M4 71H55.5" stroke="#535353"/>
<line x1="22.5" y1="21" x2="22.5" y2="106" stroke="#535353"/>
<path d="M39.5 21L39.5 106" stroke="#535353"/>
<path d="M9.46387 15H5.87296V3.36364H9.62296C10.7517 3.36364 11.7177 3.59659 12.5207 4.0625C13.3237 4.52462 13.9392 5.18939 14.3673 6.05682C14.7953 6.92045 15.0093 7.95455 15.0093 9.15909C15.0093 10.3712 14.7934 11.4148 14.3616 12.2898C13.9298 13.161 13.301 13.8314 12.4752 14.3011C11.6495 14.767 10.6457 15 9.46387 15ZM7.28205 13.75H9.37296C10.3351 13.75 11.1324 13.5644 11.765 13.1932C12.3976 12.822 12.8692 12.2936 13.1798 11.608C13.4904 10.9223 13.6457 10.1061 13.6457 9.15909C13.6457 8.2197 13.4923 7.41098 13.1855 6.73295C12.8786 6.05114 12.4203 5.52841 11.8105 5.16477C11.2006 4.79735 10.4411 4.61364 9.53205 4.61364H7.28205V13.75ZM21.532 15L23.4411 3.36364H24.5775L22.6684 15H21.532ZM16.2366 11.7727L16.4184 10.6364H25.1002L24.9184 11.7727H16.2366ZM17.4411 15L19.3502 3.36364H20.4866L18.5775 15H17.4411ZM16.9184 7.72727L17.1002 6.59091H25.782L25.6002 7.72727H16.9184ZM32.0775 9.49716L31.0988 9.77415C31.0373 9.61103 30.9465 9.45253 30.8264 9.29865C30.7095 9.14169 30.5494 9.01243 30.3463 8.91087C30.1432 8.8093 29.8831 8.75852 29.5661 8.75852C29.1322 8.75852 28.7706 8.85855 28.4813 9.05859C28.195 9.25556 28.0519 9.50639 28.0519 9.81108C28.0519 10.0819 28.1504 10.2958 28.3474 10.4528C28.5444 10.6097 28.8521 10.7405 29.2707 10.8452L30.3232 11.1037C30.9572 11.2576 31.4297 11.493 31.7405 11.81C32.0513 12.1239 32.2068 12.5286 32.2068 13.0241C32.2068 13.4304 32.0898 13.7936 31.8559 14.1136C31.6251 14.4337 31.3019 14.6861 30.8865 14.8707C30.471 15.0554 29.9878 15.1477 29.4369 15.1477C28.7136 15.1477 28.115 14.9908 27.6411 14.6768C27.1671 14.3629 26.867 13.9044 26.7409 13.3011L27.7749 13.0426C27.8734 13.4242 28.0596 13.7105 28.3335 13.9013C28.6105 14.0921 28.9722 14.1875 29.4184 14.1875C29.9262 14.1875 30.3294 14.0798 30.6279 13.8643C30.9295 13.6458 31.0803 13.3842 31.0803 13.0795C31.0803 12.8333 30.9942 12.6271 30.8218 12.4609C30.6495 12.2917 30.3848 12.1655 30.0278 12.0824L28.846 11.8054C28.1966 11.6515 27.7195 11.413 27.4149 11.0898C27.1133 10.7636 26.9624 10.3558 26.9624 9.86648C26.9624 9.46638 27.0748 9.11245 27.2994 8.80469C27.5272 8.49692 27.8365 8.25533 28.2274 8.0799C28.6213 7.90447 29.0676 7.81676 29.5661 7.81676C30.2678 7.81676 30.8187 7.97064 31.2188 8.27841C31.622 8.58617 31.9082 8.99242 32.0775 9.49716ZM38.3155 12.1009V7.90909H39.405V15H38.3155V13.7997H38.2417C38.0755 14.1598 37.8169 14.466 37.4661 14.7184C37.1152 14.9677 36.6721 15.0923 36.1365 15.0923C35.6934 15.0923 35.2994 14.9954 34.9547 14.8015C34.61 14.6045 34.3392 14.3091 34.1422 13.9151C33.9453 13.5181 33.8468 13.018 33.8468 12.4148V7.90909H34.9363V12.3409C34.9363 12.858 35.0809 13.2704 35.3702 13.5781C35.6626 13.8859 36.035 14.0398 36.4874 14.0398C36.7582 14.0398 37.0337 13.9705 37.3137 13.832C37.5969 13.6935 37.8339 13.4812 38.0247 13.195C38.2186 12.9087 38.3155 12.544 38.3155 12.1009ZM46.4232 9.49716L45.4445 9.77415C45.383 9.61103 45.2922 9.45253 45.1721 9.29865C45.0552 9.14169 44.8952 9.01243 44.692 8.91087C44.4889 8.8093 44.2288 8.75852 43.9118 8.75852C43.4779 8.75852 43.1163 8.85855 42.827 9.05859C42.5407 9.25556 42.3976 9.50639 42.3976 9.81108C42.3976 10.0819 42.4961 10.2958 42.6931 10.4528C42.8901 10.6097 43.1978 10.7405 43.6164 10.8452L44.6689 11.1037C45.3029 11.2576 45.7754 11.493 46.0862 11.81C46.397 12.1239 46.5525 12.5286 46.5525 13.0241C46.5525 13.4304 46.4355 13.7936 46.2016 14.1136C45.9708 14.4337 45.6476 14.6861 45.2322 14.8707C44.8167 15.0554 44.3335 15.1477 43.7826 15.1477C43.0593 15.1477 42.4607 14.9908 41.9868 14.6768C41.5128 14.3629 41.2127 13.9044 41.0866 13.3011L42.1206 13.0426C42.2191 13.4242 42.4053 13.7105 42.6792 13.9013C42.9562 14.0921 43.3179 14.1875 43.7641 14.1875C44.2719 14.1875 44.6751 14.0798 44.9736 13.8643C45.2752 13.6458 45.426 13.3842 45.426 13.0795C45.426 12.8333 45.3399 12.6271 45.1675 12.4609C44.9952 12.2917 44.7305 12.1655 44.3735 12.0824L43.1917 11.8054C42.5423 11.6515 42.0653 11.413 41.7606 11.0898C41.459 10.7636 41.3081 10.3558 41.3081 9.86648C41.3081 9.46638 41.4205 9.11245 41.6452 8.80469C41.8729 8.49692 42.1822 8.25533 42.5731 8.0799C42.967 7.90447 43.4133 7.81676 43.9118 7.81676C44.6135 7.81676 45.1644 7.97064 45.5645 8.27841C45.9677 8.58617 46.2539 8.99242 46.4232 9.49716ZM47.9524 13.0611V12.1193L52.1072 5.54545H52.7905V7.00426H52.3288L49.1896 11.9716V12.0455H54.7848V13.0611H47.9524ZM52.4027 15V12.7749V12.3363V5.54545H53.4922V15H52.4027Z" fill="#F32851"/>
<path d="M26.5252 60.6195C26.8435 61.1626 26.8435 61.8374 26.5252 62.3805C25.6989 63.7909 24.7909 64.6989 23.3805 65.5252C22.8374 65.8435 22.1626 65.8435 21.6195 65.5252C20.2091 64.6989 19.3011 63.7909 18.4748 62.3805C18.1565 61.8374 18.1565 61.1626 18.4748 60.6195C19.3011 59.2091 20.2091 58.3011 21.6195 57.4748C22.1626 57.1565 22.8374 57.1565 23.3805 57.4748C24.7909 58.3011 25.6989 59.2091 26.5252 60.6195Z" fill="#F32851"/>
<path d="M43.5252 78.6195C43.8435 79.1626 43.8435 79.8374 43.5252 80.3805C42.6989 81.7909 41.7909 82.6989 40.3805 83.5252C39.8374 83.8435 39.1626 83.8435 38.6195 83.5252C37.2091 82.6989 36.3011 81.7909 35.4748 80.3805C35.1565 79.8374 35.1565 79.1626 35.4748 78.6195C36.3011 77.2091 37.2091 76.3011 38.6195 75.4748C39.1626 75.1565 39.8374 75.1565 40.3805 75.4748C41.7909 76.3011 42.6989 77.2091 43.5252 78.6195Z" fill="#F32851"/>
<path d="M59.5252 28.6195C59.8435 29.1626 59.8435 29.8374 59.5252 30.3805C58.6989 31.7909 57.7909 32.6989 56.3805 33.5252C55.8374 33.8435 55.1626 33.8435 54.6195 33.5252C53.2091 32.6989 52.3011 31.7909 51.4748 30.3805C51.1565 29.8374 51.1565 29.1626 51.4748 28.6195C52.3011 27.2091 53.2091 26.3011 54.6195 25.4748C55.1626 25.1565 55.8374 25.1565 56.3805 25.4748C57.7909 26.3011 58.6989 27.2091 59.5252 28.6195Z" fill="#F32851"/>
<path d="M8.52523 27.6195C8.84348 28.1626 8.84348 28.8374 8.52523 29.3805C7.69886 30.7909 6.79088 31.6989 5.38054 32.5252C4.83739 32.8435 4.16261 32.8435 3.61946 32.5252C2.20912 31.6989 1.30114 30.7909 0.474768 29.3805C0.15652 28.8374 0.15652 28.1626 0.474768 27.6195C1.30114 26.2091 2.20912 25.3011 3.61946 24.4748C4.16261 24.1565 4.83739 24.1565 5.38054 24.4748C6.79088 25.3011 7.69886 26.2091 8.52523 27.6195Z" fill="#F32851"/>
</svg>
