<svg width="60" height="106" viewBox="0 0 60 106" fill="none" xmlns="http://www.w3.org/2000/svg">
<rect x="4.5" y="21.5" width="51" height="84" rx="1.5" stroke="#535353"/>
<line x1="4" y1="37.4999" x2="56" y2="37.4999" stroke="#535353"/>
<line x1="4" y1="53.5" x2="56" y2="53.5" stroke="#535353"/>
<path d="M4 88H55" stroke="#535353"/>
<path d="M4 71H55.5" stroke="#535353"/>
<line x1="22.5" y1="21" x2="22.5" y2="106" stroke="#535353"/>
<path d="M39.5 21L39.5 106" stroke="#535353"/>
<path d="M26.6278 15V3.36364H33.6506V4.61364H28.0369V8.54545H33.2869V9.79545H28.0369V13.75H33.7415V15H26.6278Z" fill="#F32851"/>
<path d="M59.5252 44.6195C59.8435 45.1626 59.8435 45.8374 59.5252 46.3805C58.6989 47.7909 57.7909 48.6989 56.3805 49.5252C55.8374 49.8435 55.1626 49.8435 54.6195 49.5252C53.2091 48.6989 52.3011 47.7909 51.4748 46.3805C51.1565 45.8374 51.1565 45.1626 51.4748 44.6195C52.3011 43.2091 53.2091 42.3011 54.6195 41.4748C55.1626 41.1565 55.8374 41.1565 56.3805 41.4748C57.7909 42.3011 58.6989 43.2091 59.5252 44.6195Z" fill="#F32851"/>
<path d="M26.5252 78.6195C26.8435 79.1626 26.8435 79.8374 26.5252 80.3805C25.6989 81.7909 24.7909 82.6989 23.3805 83.5252C22.8374 83.8435 22.1626 83.8435 21.6195 83.5252C20.2091 82.6989 19.3011 81.7909 18.4748 80.3805C18.1565 79.8374 18.1565 79.1626 18.4748 78.6195C19.3011 77.2091 20.2091 76.3011 21.6195 75.4748C22.1626 75.1565 22.8374 75.1565 23.3805 75.4748C24.7909 76.3011 25.6989 77.2091 26.5252 78.6195Z" fill="#F32851"/>
<path d="M8.52523 28.6195C8.84348 29.1626 8.84348 29.8374 8.52523 30.3805C7.69886 31.7909 6.79088 32.6989 5.38054 33.5252C4.83739 33.8435 4.16261 33.8435 3.61946 33.5252C2.20912 32.6989 1.30114 31.7909 0.474768 30.3805C0.15652 29.8374 0.15652 29.1626 0.474768 28.6195C1.30114 27.2091 2.20912 26.3011 3.61946 25.4748C4.16261 25.1565 4.83739 25.1565 5.38054 25.4748C6.79088 26.3011 7.69886 27.2091 8.52523 28.6195Z" fill="#F32851"/>
</svg>
