<svg width="60" height="106" viewBox="0 0 60 106" fill="none" xmlns="http://www.w3.org/2000/svg">
<rect x="4.5" y="21.5" width="51" height="84" rx="1.5" stroke="#535353"/>
<line x1="4" y1="37.4999" x2="56" y2="37.4999" stroke="#535353"/>
<line x1="4" y1="53.5" x2="56" y2="53.5" stroke="#535353"/>
<path d="M4 88H55" stroke="#535353"/>
<path d="M4 71H55.5" stroke="#535353"/>
<line x1="22.5" y1="21" x2="22.5" y2="106" stroke="#535353"/>
<path d="M39.5 21L39.5 106" stroke="#535353"/>
<path d="M21.6357 15V3.36364H28.6584V4.61364H23.0447V8.54545H28.2947V9.79545H23.0447V13.75H28.7493V15H21.6357ZM34.8572 15.1591C34.38 15.1515 33.9027 15.0606 33.4254 14.8864C32.9482 14.7121 32.5125 14.4186 32.1186 14.0057C31.7247 13.589 31.4084 13.0265 31.1697 12.3182C30.9311 11.6061 30.8118 10.7121 30.8118 9.63636C30.8118 8.60606 30.9084 7.69318 31.1016 6.89773C31.2947 6.09848 31.575 5.42614 31.9425 4.88068C32.3099 4.33144 32.7531 3.91477 33.272 3.63068C33.7947 3.34659 34.3838 3.20455 35.0391 3.20455C35.6906 3.20455 36.2701 3.33523 36.7777 3.59659C37.2891 3.85417 37.7057 4.21401 38.0277 4.67614C38.3497 5.13826 38.558 5.67045 38.6527 6.27273H37.2663C37.1375 5.75 36.8875 5.31629 36.5163 4.97159C36.1451 4.62689 35.6527 4.45455 35.0391 4.45455C34.1375 4.45455 33.4273 4.84659 32.9084 5.63068C32.3932 6.41477 32.1338 7.51515 32.13 8.93182H32.2209C32.433 8.60985 32.6849 8.33523 32.9766 8.10795C33.272 7.87689 33.5978 7.69886 33.9538 7.57386C34.3099 7.44886 34.6868 7.38636 35.0845 7.38636C35.7512 7.38636 36.361 7.55303 36.9141 7.88636C37.4671 8.21591 37.9103 8.67235 38.2436 9.25568C38.5769 9.83523 38.7436 10.5 38.7436 11.25C38.7436 11.9697 38.5826 12.6288 38.2607 13.2273C37.9387 13.822 37.486 14.2955 36.9027 14.6477C36.3232 14.9962 35.6413 15.1667 34.8572 15.1591ZM34.8572 13.9091C35.3345 13.9091 35.7625 13.7898 36.1413 13.5511C36.5239 13.3125 36.825 12.9924 37.0447 12.5909C37.2682 12.1894 37.38 11.7424 37.38 11.25C37.38 10.7689 37.272 10.3314 37.0561 9.9375C36.844 9.53977 36.5504 9.22348 36.1754 8.98864C35.8042 8.75379 35.38 8.63636 34.9027 8.63636C34.5429 8.63636 34.2076 8.70833 33.897 8.85227C33.5864 8.99242 33.3137 9.18561 33.0788 9.43182C32.8478 9.67803 32.666 9.96023 32.5334 10.2784C32.4008 10.5928 32.3345 10.9242 32.3345 11.2727C32.3345 11.7348 32.4425 12.1667 32.6584 12.5682C32.8781 12.9697 33.1773 13.2936 33.5561 13.5398C33.9387 13.786 34.3724 13.9091 34.8572 13.9091Z" fill="#F32851"/>
<path d="M59.5252 45.6195C59.8435 46.1626 59.8435 46.8374 59.5252 47.3805C58.6989 48.7909 57.7909 49.6989 56.3805 50.5252C55.8374 50.8435 55.1626 50.8435 54.6195 50.5252C53.2091 49.6989 52.3011 48.7909 51.4748 47.3805C51.1565 46.8374 51.1565 46.1626 51.4748 45.6195C52.3011 44.2091 53.2091 43.3011 54.6195 42.4748C55.1626 42.1565 55.8374 42.1565 56.3805 42.4748C57.7909 43.3011 58.6989 44.2091 59.5252 45.6195Z" fill="#F32851"/>
<path d="M26.5252 28.6195C26.8435 29.1626 26.8435 29.8374 26.5252 30.3805C25.6989 31.7909 24.7909 32.6989 23.3805 33.5252C22.8374 33.8435 22.1626 33.8435 21.6195 33.5252C20.2091 32.6989 19.3011 31.7909 18.4748 30.3805C18.1565 29.8374 18.1565 29.1626 18.4748 28.6195C19.3011 27.2091 20.2091 26.3011 21.6195 25.4748C22.1626 25.1565 22.8374 25.1565 23.3805 25.4748C24.7909 26.3011 25.6989 27.2091 26.5252 28.6195Z" fill="#F32851"/>
<path d="M8.52523 28.6195C8.84348 29.1626 8.84348 29.8374 8.52523 30.3805C7.69886 31.7909 6.79088 32.6989 5.38054 33.5252C4.83739 33.8435 4.16261 33.8435 3.61946 33.5252C2.20912 32.6989 1.30114 31.7909 0.474768 30.3805C0.15652 29.8374 0.15652 29.1626 0.474768 28.6195C1.30114 27.2091 2.20912 26.3011 3.61946 25.4748C4.16261 25.1565 4.83739 25.1565 5.38054 25.4748C6.79088 26.3011 7.69886 27.2091 8.52523 28.6195Z" fill="#F32851"/>
</svg>
