<svg width="60" height="106" viewBox="0 0 60 106" fill="none" xmlns="http://www.w3.org/2000/svg">
<rect x="4.5" y="21.5" width="51" height="84" rx="1.5" stroke="#535353"/>
<line x1="4" y1="37.4999" x2="56" y2="37.4999" stroke="#535353"/>
<line x1="4" y1="53.5" x2="56" y2="53.5" stroke="#535353"/>
<path d="M4 88H55" stroke="#535353"/>
<path d="M4 71H55.5" stroke="#535353"/>
<line x1="22.5" y1="21" x2="22.5" y2="106" stroke="#535353"/>
<path d="M39.5 21L39.5 106" stroke="#535353"/>
<path d="M21.6357 15V3.36364H28.6584V4.61364H23.0447V8.54545H28.2947V9.79545H23.0447V13.75H28.7493V15H21.6357ZM34.6982 3.20455C35.1754 3.20833 35.6527 3.29924 36.13 3.47727C36.6072 3.6553 37.0429 3.95076 37.4368 4.36364C37.8307 4.77273 38.147 5.33144 38.3857 6.03977C38.6243 6.74811 38.7436 7.63636 38.7436 8.70455C38.7436 9.73864 38.6451 10.6572 38.4482 11.4602C38.255 12.2595 37.9747 12.9337 37.6072 13.483C37.2436 14.0322 36.8004 14.4489 36.2777 14.733C35.7588 15.017 35.1716 15.1591 34.5163 15.1591C33.8648 15.1591 33.2834 15.0303 32.772 14.7727C32.2644 14.5114 31.8478 14.1496 31.522 13.6875C31.2 13.2216 30.9936 12.6818 30.9027 12.0682H32.2891C32.4141 12.6023 32.6622 13.0436 33.0334 13.392C33.4084 13.7367 33.9027 13.9091 34.5163 13.9091C35.4141 13.9091 36.1224 13.517 36.6413 12.733C37.1641 11.9489 37.4254 10.8409 37.4254 9.40909H37.3345C37.1224 9.72727 36.8705 10.0019 36.5788 10.233C36.2872 10.464 35.9633 10.642 35.6072 10.767C35.2512 10.892 34.8724 10.9545 34.4709 10.9545C33.8042 10.9545 33.1925 10.7898 32.6357 10.4602C32.0826 10.1269 31.6394 9.67045 31.3061 9.09091C30.9766 8.50758 30.8118 7.84091 30.8118 7.09091C30.8118 6.37879 30.9709 5.72727 31.2891 5.13636C31.611 4.54167 32.0618 4.06818 32.6413 3.71591C33.2247 3.36364 33.9103 3.19318 34.6982 3.20455ZM34.6982 4.45455C34.2209 4.45455 33.791 4.57386 33.4084 4.8125C33.0296 5.04735 32.7285 5.36553 32.505 5.76705C32.2853 6.16477 32.1754 6.60606 32.1754 7.09091C32.1754 7.57576 32.2815 8.01705 32.4936 8.41477C32.7095 8.80871 33.0031 9.12311 33.3743 9.35795C33.7493 9.58902 34.1754 9.70455 34.6527 9.70455C35.0125 9.70455 35.3478 9.63447 35.6584 9.49432C35.969 9.35038 36.2398 9.1553 36.4709 8.90909C36.7057 8.65909 36.8894 8.37689 37.022 8.0625C37.1546 7.74432 37.2209 7.41288 37.2209 7.06818C37.2209 6.61364 37.111 6.1875 36.8913 5.78977C36.6754 5.39205 36.3762 5.07008 35.9936 4.82386C35.6148 4.57765 35.183 4.45455 34.6982 4.45455Z" fill="#F32851"/>
<path d="M26.5252 78.6195C26.8435 79.1626 26.8435 79.8374 26.5252 80.3805C25.6989 81.7909 24.7909 82.6989 23.3805 83.5252C22.8374 83.8435 22.1626 83.8435 21.6195 83.5252C20.2091 82.6989 19.3011 81.7909 18.4748 80.3805C18.1565 79.8374 18.1565 79.1626 18.4748 78.6195C19.3011 77.2091 20.2091 76.3011 21.6195 75.4748C22.1626 75.1565 22.8374 75.1565 23.3805 75.4748C24.7909 76.3011 25.6989 77.2091 26.5252 78.6195Z" fill="#F32851"/>
<path d="M59.5252 96.6195C59.8435 97.1626 59.8435 97.8374 59.5252 98.3805C58.6989 99.7909 57.7909 100.699 56.3805 101.525C55.8374 101.843 55.1626 101.843 54.6195 101.525C53.2091 100.699 52.3011 99.7909 51.4748 98.3805C51.1565 97.8374 51.1565 97.1626 51.4748 96.6195C52.3011 95.2091 53.2091 94.3011 54.6195 93.4748C55.1626 93.1565 55.8374 93.1565 56.3805 93.4748C57.7909 94.3011 58.6989 95.2091 59.5252 96.6195Z" fill="#F32851"/>
<path d="M43.5252 44.6195C43.8435 45.1626 43.8435 45.8374 43.5252 46.3805C42.6989 47.7909 41.7909 48.6989 40.3805 49.5252C39.8374 49.8435 39.1626 49.8435 38.6195 49.5252C37.2091 48.6989 36.3011 47.7909 35.4748 46.3805C35.1565 45.8374 35.1565 45.1626 35.4748 44.6195C36.3011 43.2091 37.2091 42.3011 38.6195 41.4748C39.1626 41.1565 39.8374 41.1565 40.3805 41.4748C41.7909 42.3011 42.6989 43.2091 43.5252 44.6195Z" fill="#F32851"/>
<path d="M8.52523 28.6195C8.84348 29.1626 8.84348 29.8374 8.52523 30.3805C7.69886 31.7909 6.79088 32.6989 5.38054 33.5252C4.83739 33.8435 4.16261 33.8435 3.61946 33.5252C2.20912 32.6989 1.30114 31.7909 0.474768 30.3805C0.15652 29.8374 0.15652 29.1626 0.474768 28.6195C1.30114 27.2091 2.20912 26.3011 3.61946 25.4748C4.16261 25.1565 4.83739 25.1565 5.38054 25.4748C6.79088 26.3011 7.69886 27.2091 8.52523 28.6195Z" fill="#F32851"/>
</svg>
