<svg width="56" height="106" viewBox="0 0 56 106" fill="none" xmlns="http://www.w3.org/2000/svg">
<rect x="0.5" y="21.5" width="51" height="84" rx="1.5" stroke="#535353"/>
<line y1="37.4999" x2="52" y2="37.4999" stroke="#535353"/>
<line y1="53.5" x2="52" y2="53.5" stroke="#535353"/>
<path d="M0 88H51" stroke="#535353"/>
<path d="M0 71H51.5" stroke="#535353"/>
<line x1="18.5" y1="21" x2="18.5" y2="106" stroke="#535353"/>
<path d="M35.5 21L35.5 106" stroke="#535353"/>
<path d="M10.6825 15V3.36364H17.7053V4.61364H12.0916V8.54545H17.3416V9.79545H12.0916V13.75H17.7962V15H10.6825ZM20.0632 15V6.27273H21.3587V7.63636H21.4723C21.6541 7.17045 21.9477 6.80871 22.353 6.55114C22.7583 6.28977 23.245 6.15909 23.8132 6.15909C24.389 6.15909 24.8681 6.28977 25.2507 6.55114C25.6371 6.80871 25.9382 7.17045 26.1541 7.63636H26.245C26.4685 7.18561 26.8037 6.82765 27.2507 6.5625C27.6977 6.29356 28.2337 6.15909 28.8587 6.15909C29.639 6.15909 30.2772 6.40341 30.7734 6.89205C31.2697 7.37689 31.5178 8.13258 31.5178 9.15909V15H30.1768V9.15909C30.1768 8.51515 30.0007 8.05492 29.6484 7.77841C29.2962 7.50189 28.8814 7.36364 28.4041 7.36364C27.7905 7.36364 27.3151 7.54924 26.978 7.92045C26.6409 8.28788 26.4723 8.75379 26.4723 9.31818V15H25.1087V9.02273C25.1087 8.52652 24.9477 8.12689 24.6257 7.82386C24.3037 7.51705 23.889 7.36364 23.3814 7.36364C23.0329 7.36364 22.7071 7.45644 22.4041 7.64205C22.1049 7.82765 21.8625 8.08523 21.6768 8.41477C21.495 8.74053 21.4041 9.11742 21.4041 9.54545V15H20.0632ZM37.8104 15.1591C37.3331 15.1515 36.8558 15.0606 36.3786 14.8864C35.9013 14.7121 35.4657 14.4186 35.0717 14.0057C34.6778 13.589 34.3615 13.0265 34.1229 12.3182C33.8842 11.6061 33.7649 10.7121 33.7649 9.63636C33.7649 8.60606 33.8615 7.69318 34.0547 6.89773C34.2479 6.09848 34.5282 5.42614 34.8956 4.88068C35.263 4.33144 35.7062 3.91477 36.2251 3.63068C36.7479 3.34659 37.3369 3.20455 37.9922 3.20455C38.6437 3.20455 39.2232 3.33523 39.7308 3.59659C40.2422 3.85417 40.6589 4.21401 40.9808 4.67614C41.3028 5.13826 41.5111 5.67045 41.6058 6.27273H40.2195C40.0907 5.75 39.8407 5.31629 39.4695 4.97159C39.0982 4.62689 38.6058 4.45455 37.9922 4.45455C37.0907 4.45455 36.3804 4.84659 35.8615 5.63068C35.3464 6.41477 35.0869 7.51515 35.0831 8.93182H35.174C35.3861 8.60985 35.638 8.33523 35.9297 8.10795C36.2251 7.87689 36.5509 7.69886 36.907 7.57386C37.263 7.44886 37.6399 7.38636 38.0376 7.38636C38.7043 7.38636 39.3142 7.55303 39.8672 7.88636C40.4202 8.21591 40.8634 8.67235 41.1967 9.25568C41.5301 9.83523 41.6967 10.5 41.6967 11.25C41.6967 11.9697 41.5357 12.6288 41.2138 13.2273C40.8918 13.822 40.4392 14.2955 39.8558 14.6477C39.2763 14.9962 38.5945 15.1667 37.8104 15.1591ZM37.8104 13.9091C38.2876 13.9091 38.7157 13.7898 39.0945 13.5511C39.477 13.3125 39.7782 12.9924 39.9979 12.5909C40.2214 12.1894 40.3331 11.7424 40.3331 11.25C40.3331 10.7689 40.2251 10.3314 40.0092 9.9375C39.7971 9.53977 39.5036 9.22348 39.1286 8.98864C38.7573 8.75379 38.3331 8.63636 37.8558 8.63636C37.496 8.63636 37.1607 8.70833 36.8501 8.85227C36.5395 8.99242 36.2668 9.18561 36.032 9.43182C35.8009 9.67803 35.6191 9.96023 35.4865 10.2784C35.3539 10.5928 35.2876 10.9242 35.2876 11.2727C35.2876 11.7348 35.3956 12.1667 35.6115 12.5682C35.8312 12.9697 36.1304 13.2936 36.5092 13.5398C36.8918 13.786 37.3255 13.9091 37.8104 13.9091Z" fill="#F32851"/>
<path d="M55.5252 44.6195C55.8435 45.1626 55.8435 45.8374 55.5252 46.3805C54.6989 47.7909 53.7909 48.6989 52.3805 49.5252C51.8374 49.8435 51.1626 49.8435 50.6195 49.5252C49.2091 48.6989 48.3011 47.7909 47.4748 46.3805C47.1565 45.8374 47.1565 45.1626 47.4748 44.6195C48.3011 43.2091 49.2091 42.3011 50.6195 41.4748C51.1626 41.1565 51.8374 41.1565 52.3805 41.4748C53.7909 42.3011 54.6989 43.2091 55.5252 44.6195Z" fill="#F32851"/>
<path d="M22.5252 28.6195C22.8435 29.1626 22.8435 29.8374 22.5252 30.3805C21.6989 31.7909 20.7909 32.6989 19.3805 33.5252C18.8374 33.8435 18.1626 33.8435 17.6195 33.5252C16.2091 32.6989 15.3011 31.7909 14.4748 30.3805C14.1565 29.8374 14.1565 29.1626 14.4748 28.6195C15.3011 27.2091 16.2091 26.3011 17.6195 25.4748C18.1626 25.1565 18.8374 25.1565 19.3805 25.4748C20.7909 26.3011 21.6989 27.2091 22.5252 28.6195Z" fill="#F32851"/>
</svg>
