<svg width="56" height="106" viewBox="0 0 56 106" fill="none" xmlns="http://www.w3.org/2000/svg">
<rect x="0.5" y="21.5" width="51" height="84" rx="1.5" stroke="#535353"/>
<line y1="37.4999" x2="52" y2="37.4999" stroke="#535353"/>
<line y1="53.5" x2="52" y2="53.5" stroke="#535353"/>
<path d="M0 88H51" stroke="#535353"/>
<path d="M0 71H51.5" stroke="#535353"/>
<line x1="18.5" y1="21" x2="18.5" y2="106" stroke="#535353"/>
<path d="M35.5 21L35.5 106" stroke="#535353"/>
<path d="M11.1044 15V3.36364H18.1271V4.61364H12.5135V8.54545H17.7635V9.79545H12.5135V13.75H18.218V15H11.1044ZM20.4851 15V6.27273H21.7805V7.63636H21.8942C22.076 7.17045 22.3696 6.80871 22.7749 6.55114C23.1802 6.28977 23.6669 6.15909 24.2351 6.15909C24.8108 6.15909 25.29 6.28977 25.6726 6.55114C26.0589 6.80871 26.3601 7.17045 26.576 7.63636H26.6669C26.8904 7.18561 27.2256 6.82765 27.6726 6.5625C28.1196 6.29356 28.6555 6.15909 29.2805 6.15909C30.0608 6.15909 30.6991 6.40341 31.1953 6.89205C31.6915 7.37689 31.9396 8.13258 31.9396 9.15909V15H30.5987V9.15909C30.5987 8.51515 30.4226 8.05492 30.0703 7.77841C29.718 7.50189 29.3033 7.36364 28.826 7.36364C28.2124 7.36364 27.737 7.54924 27.3999 7.92045C27.0627 8.28788 26.8942 8.75379 26.8942 9.31818V15H25.5305V9.02273C25.5305 8.52652 25.3696 8.12689 25.0476 7.82386C24.7256 7.51705 24.3108 7.36364 23.8033 7.36364C23.4548 7.36364 23.129 7.45644 22.826 7.64205C22.5268 7.82765 22.2843 8.08523 22.0987 8.41477C21.9169 8.74053 21.826 9.11742 21.826 9.54545V15H20.4851ZM34.7322 15L39.9368 4.70455V4.61364H33.9368V3.36364H41.3913V4.68182L36.2095 15H34.7322Z" fill="#F32851"/>
<path d="M55.5252 44.6195C55.8435 45.1626 55.8435 45.8374 55.5252 46.3805C54.6989 47.7909 53.7909 48.6989 52.3805 49.5252C51.8374 49.8435 51.1626 49.8435 50.6195 49.5252C49.2091 48.6989 48.3011 47.7909 47.4748 46.3805C47.1565 45.8374 47.1565 45.1626 47.4748 44.6195C48.3011 43.2091 49.2091 42.3011 50.6195 41.4748C51.1626 41.1565 51.8374 41.1565 52.3805 41.4748C53.7909 42.3011 54.6989 43.2091 55.5252 44.6195Z" fill="#F32851"/>
<path d="M22.5252 44.6195C22.8435 45.1626 22.8435 45.8374 22.5252 46.3805C21.6989 47.7909 20.7909 48.6989 19.3805 49.5252C18.8374 49.8435 18.1626 49.8435 17.6195 49.5252C16.2091 48.6989 15.3011 47.7909 14.4748 46.3805C14.1565 45.8374 14.1565 45.1626 14.4748 44.6195C15.3011 43.2091 16.2091 42.3011 17.6195 41.4748C18.1626 41.1565 18.8374 41.1565 19.3805 41.4748C20.7909 42.3011 21.6989 43.2091 22.5252 44.6195Z" fill="#F32851"/>
</svg>
