<svg width="56" height="106" viewBox="0 0 56 106" fill="none" xmlns="http://www.w3.org/2000/svg">
<rect x="0.5" y="21.5" width="51" height="84" rx="1.5" stroke="#535353"/>
<line y1="37.4999" x2="52" y2="37.4999" stroke="#535353"/>
<line y1="53.5" x2="52" y2="53.5" stroke="#535353"/>
<path d="M0 88H51" stroke="#535353"/>
<path d="M0 71H51.5" stroke="#535353"/>
<line x1="18.5" y1="21" x2="18.5" y2="106" stroke="#535353"/>
<path d="M35.5 21L35.5 106" stroke="#535353"/>
<path d="M10.6825 15V3.36364H17.7053V4.61364H12.0916V8.54545H17.3416V9.79545H12.0916V13.75H17.7962V15H10.6825ZM20.0632 15V6.27273H21.3587V7.63636H21.4723C21.6541 7.17045 21.9477 6.80871 22.353 6.55114C22.7583 6.28977 23.245 6.15909 23.8132 6.15909C24.389 6.15909 24.8681 6.28977 25.2507 6.55114C25.6371 6.80871 25.9382 7.17045 26.1541 7.63636H26.245C26.4685 7.18561 26.8037 6.82765 27.2507 6.5625C27.6977 6.29356 28.2337 6.15909 28.8587 6.15909C29.639 6.15909 30.2772 6.40341 30.7734 6.89205C31.2697 7.37689 31.5178 8.13258 31.5178 9.15909V15H30.1768V9.15909C30.1768 8.51515 30.0007 8.05492 29.6484 7.77841C29.2962 7.50189 28.8814 7.36364 28.4041 7.36364C27.7905 7.36364 27.3151 7.54924 26.978 7.92045C26.6409 8.28788 26.4723 8.75379 26.4723 9.31818V15H25.1087V9.02273C25.1087 8.52652 24.9477 8.12689 24.6257 7.82386C24.3037 7.51705 23.889 7.36364 23.3814 7.36364C23.0329 7.36364 22.7071 7.45644 22.4041 7.64205C22.1049 7.82765 21.8625 8.08523 21.6768 8.41477C21.495 8.74053 21.4041 9.11742 21.4041 9.54545V15H20.0632ZM37.6513 3.20455C38.1286 3.20833 38.6058 3.29924 39.0831 3.47727C39.5604 3.6553 39.996 3.95076 40.3899 4.36364C40.7839 4.77273 41.1001 5.33144 41.3388 6.03977C41.5774 6.74811 41.6967 7.63636 41.6967 8.70455C41.6967 9.73864 41.5982 10.6572 41.4013 11.4602C41.2081 12.2595 40.9278 12.9337 40.5604 13.483C40.1967 14.0322 39.7536 14.4489 39.2308 14.733C38.7119 15.017 38.1248 15.1591 37.4695 15.1591C36.8179 15.1591 36.2365 15.0303 35.7251 14.7727C35.2176 14.5114 34.8009 14.1496 34.4751 13.6875C34.1532 13.2216 33.9467 12.6818 33.8558 12.0682H35.2422C35.3672 12.6023 35.6153 13.0436 35.9865 13.392C36.3615 13.7367 36.8558 13.9091 37.4695 13.9091C38.3672 13.9091 39.0755 13.517 39.5945 12.733C40.1172 11.9489 40.3786 10.8409 40.3786 9.40909H40.2876C40.0755 9.72727 39.8236 10.0019 39.532 10.233C39.2403 10.464 38.9164 10.642 38.5604 10.767C38.2043 10.892 37.8255 10.9545 37.424 10.9545C36.7573 10.9545 36.1456 10.7898 35.5888 10.4602C35.0357 10.1269 34.5926 9.67045 34.2592 9.09091C33.9297 8.50758 33.7649 7.84091 33.7649 7.09091C33.7649 6.37879 33.924 5.72727 34.2422 5.13636C34.5642 4.54167 35.0149 4.06818 35.5945 3.71591C36.1778 3.36364 36.8634 3.19318 37.6513 3.20455ZM37.6513 4.45455C37.174 4.45455 36.7441 4.57386 36.3615 4.8125C35.9827 5.04735 35.6816 5.36553 35.4581 5.76705C35.2384 6.16477 35.1286 6.60606 35.1286 7.09091C35.1286 7.57576 35.2346 8.01705 35.4467 8.41477C35.6626 8.80871 35.9562 9.12311 36.3274 9.35795C36.7024 9.58902 37.1286 9.70455 37.6058 9.70455C37.9657 9.70455 38.3009 9.63447 38.6115 9.49432C38.9221 9.35038 39.1929 9.1553 39.424 8.90909C39.6589 8.65909 39.8426 8.37689 39.9751 8.0625C40.1077 7.74432 40.174 7.41288 40.174 7.06818C40.174 6.61364 40.0642 6.1875 39.8445 5.78977C39.6286 5.39205 39.3293 5.07008 38.9467 4.82386C38.5679 4.57765 38.1361 4.45455 37.6513 4.45455Z" fill="#F32851"/>
<path d="M22.5252 78.6195C22.8435 79.1626 22.8435 79.8374 22.5252 80.3805C21.6989 81.7909 20.7909 82.6989 19.3805 83.5252C18.8374 83.8435 18.1626 83.8435 17.6195 83.5252C16.2091 82.6989 15.3011 81.7909 14.4748 80.3805C14.1565 79.8374 14.1565 79.1626 14.4748 78.6195C15.3011 77.2091 16.2091 76.3011 17.6195 75.4748C18.1626 75.1565 18.8374 75.1565 19.3805 75.4748C20.7909 76.3011 21.6989 77.2091 22.5252 78.6195Z" fill="#F32851"/>
<path d="M55.5252 96.6195C55.8435 97.1626 55.8435 97.8374 55.5252 98.3805C54.6989 99.7909 53.7909 100.699 52.3805 101.525C51.8374 101.843 51.1626 101.843 50.6195 101.525C49.2091 100.699 48.3011 99.7909 47.4748 98.3805C47.1565 97.8374 47.1565 97.1626 47.4748 96.6195C48.3011 95.2091 49.2091 94.3011 50.6195 93.4748C51.1626 93.1565 51.8374 93.1565 52.3805 93.4748C53.7909 94.3011 54.6989 95.2091 55.5252 96.6195Z" fill="#F32851"/>
<path d="M39.5252 44.6195C39.8435 45.1626 39.8435 45.8374 39.5252 46.3805C38.6989 47.7909 37.7909 48.6989 36.3805 49.5252C35.8374 49.8435 35.1626 49.8435 34.6195 49.5252C33.2091 48.6989 32.3011 47.7909 31.4748 46.3805C31.1565 45.8374 31.1565 45.1626 31.4748 44.6195C32.3011 43.2091 33.2091 42.3011 34.6195 41.4748C35.1626 41.1565 35.8374 41.1565 36.3805 41.4748C37.7909 42.3011 38.6989 43.2091 39.5252 44.6195Z" fill="#F32851"/>
</svg>
