<svg width="60" height="106" viewBox="0 0 60 106" fill="none" xmlns="http://www.w3.org/2000/svg">
<rect x="4.5" y="21.5" width="51" height="84" rx="1.5" stroke="#535353"/>
<line x1="4" y1="37.4999" x2="56" y2="37.4999" stroke="#535353"/>
<line x1="4" y1="53.5" x2="56" y2="53.5" stroke="#535353"/>
<path d="M4 88H55" stroke="#535353"/>
<path d="M4 71H55.5" stroke="#535353"/>
<line x1="22.5" y1="21" x2="22.5" y2="106" stroke="#535353"/>
<path d="M39.5 21L39.5 106" stroke="#535353"/>
<path d="M13.2138 15V3.36364H20.1911V4.61364H14.6229V8.54545H19.6683V9.79545H14.6229V15H13.2138ZM25.0774 15.1818C24.3501 15.1818 23.7081 14.9981 23.1513 14.6307C22.5945 14.2595 22.1589 13.7367 21.8445 13.0625C21.5301 12.3845 21.3729 11.5833 21.3729 10.6591C21.3729 9.74242 21.5301 8.94697 21.8445 8.27273C22.1589 7.59848 22.5964 7.07765 23.157 6.71023C23.7176 6.3428 24.3653 6.15909 25.1001 6.15909C25.6683 6.15909 26.1172 6.25379 26.4467 6.44318C26.7801 6.62879 27.0339 6.84091 27.2081 7.07955C27.3861 7.31439 27.5244 7.50758 27.6229 7.65909H27.7365V3.36364H29.0774V15H27.782V13.6591H27.6229C27.5244 13.8182 27.3842 14.0189 27.2024 14.2614C27.0206 14.5 26.7611 14.714 26.424 14.9034C26.0869 15.089 25.638 15.1818 25.0774 15.1818ZM25.2592 13.9773C25.7971 13.9773 26.2517 13.8371 26.6229 13.5568C26.9941 13.2727 27.2763 12.8807 27.4695 12.3807C27.6626 11.8769 27.7592 11.2955 27.7592 10.6364C27.7592 9.98485 27.6645 9.41477 27.4751 8.92614C27.2857 8.43371 27.0054 8.05114 26.6342 7.77841C26.263 7.50189 25.8047 7.36364 25.2592 7.36364C24.6911 7.36364 24.2176 7.50947 23.8388 7.80114C23.4638 8.08902 23.1816 8.48106 22.9922 8.97727C22.8066 9.4697 22.7138 10.0227 22.7138 10.6364C22.7138 11.2576 22.8085 11.822 22.9979 12.3295C23.1911 12.8333 23.4751 13.2348 23.8501 13.5341C24.2289 13.8295 24.6986 13.9773 25.2592 13.9773ZM31.7195 15V6.27273H33.0604V15H31.7195ZM32.4013 4.81818C32.1399 4.81818 31.9145 4.72917 31.7251 4.55114C31.5395 4.37311 31.4467 4.15909 31.4467 3.90909C31.4467 3.65909 31.5395 3.44508 31.7251 3.26705C31.9145 3.08902 32.1399 3 32.4013 3C32.6626 3 32.8861 3.08902 33.0717 3.26705C33.2611 3.44508 33.3558 3.65909 33.3558 3.90909C33.3558 4.15909 33.2611 4.37311 33.0717 4.55114C32.8861 4.72917 32.6626 4.81818 32.4013 4.81818ZM35.5163 15V6.27273H36.8118V7.63636H36.9254C37.1072 7.17045 37.4008 6.80871 37.8061 6.55114C38.2114 6.28977 38.6982 6.15909 39.2663 6.15909C39.8421 6.15909 40.3213 6.28977 40.7038 6.55114C41.0902 6.80871 41.3913 7.17045 41.6072 7.63636H41.6982C41.9216 7.18561 42.2569 6.82765 42.7038 6.5625C43.1508 6.29356 43.6868 6.15909 44.3118 6.15909C45.0921 6.15909 45.7304 6.40341 46.2266 6.89205C46.7228 7.37689 46.9709 8.13258 46.9709 9.15909V15H45.63V9.15909C45.63 8.51515 45.4538 8.05492 45.1016 7.77841C44.7493 7.50189 44.3345 7.36364 43.8572 7.36364C43.2436 7.36364 42.7682 7.54924 42.4311 7.92045C42.094 8.28788 41.9254 8.75379 41.9254 9.31818V15H40.5618V9.02273C40.5618 8.52652 40.4008 8.12689 40.0788 7.82386C39.7569 7.51705 39.3421 7.36364 38.8345 7.36364C38.486 7.36364 38.1603 7.45644 37.8572 7.64205C37.558 7.82765 37.3156 8.08523 37.13 8.41477C36.9482 8.74053 36.8572 9.11742 36.8572 9.54545V15H35.5163Z" fill="#F32851"/>
<path d="M59.5252 61.6195C59.8435 62.1626 59.8435 62.8374 59.5252 63.3805C58.6989 64.7909 57.7909 65.6989 56.3805 66.5252C55.8374 66.8435 55.1626 66.8435 54.6195 66.5252C53.2091 65.6989 52.3011 64.7909 51.4748 63.3805C51.1565 62.8374 51.1565 62.1626 51.4748 61.6195C52.3011 60.2091 53.2091 59.3011 54.6195 58.4748C55.1626 58.1565 55.8374 58.1565 56.3805 58.4748C57.7909 59.3011 58.6989 60.2091 59.5252 61.6195Z" fill="#F32851"/>
<path d="M43.5252 29.6195C43.8435 30.1626 43.8435 30.8374 43.5252 31.3805C42.6989 32.7909 41.7909 33.6989 40.3805 34.5252C39.8374 34.8435 39.1626 34.8435 38.6195 34.5252C37.2091 33.6989 36.3011 32.7909 35.4748 31.3805C35.1565 30.8374 35.1565 30.1626 35.4748 29.6195C36.3011 28.2091 37.2091 27.3011 38.6195 26.4748C39.1626 26.1565 39.8374 26.1565 40.3805 26.4748C41.7909 27.3011 42.6989 28.2091 43.5252 29.6195Z" fill="#F32851"/>
<path d="M8.52523 29.6195C8.84348 30.1626 8.84348 30.8374 8.52523 31.3805C7.69886 32.7909 6.79088 33.6989 5.38054 34.5252C4.83739 34.8435 4.16261 34.8435 3.61946 34.5252C2.20912 33.6989 1.30114 32.7909 0.474768 31.3805C0.15652 30.8374 0.15652 30.1626 0.474768 29.6195C1.30114 28.2091 2.20912 27.3011 3.61946 26.4748C4.16261 26.1565 4.83739 26.1565 5.38054 26.4748C6.79088 27.3011 7.69886 28.2091 8.52523 29.6195Z" fill="#F32851"/>
<path d="M20.407 17.2727L22.4979 20.8409L24.5888 17.2727H26.1342L23.3161 21.6364L26.1342 26H24.5888L22.4979 22.6136L20.407 26H18.8615L21.6342 21.6364L18.8615 17.2727H20.407Z" fill="#F32851"/>
</svg>
