<svg width="56" height="106" viewBox="0 0 56 106" fill="none" xmlns="http://www.w3.org/2000/svg">
<rect x="0.5" y="21.5" width="51" height="84" rx="1.5" stroke="#535353"/>
<line y1="37.4999" x2="52" y2="37.4999" stroke="#535353"/>
<line y1="53.5" x2="52" y2="53.5" stroke="#535353"/>
<path d="M0 88H51" stroke="#535353"/>
<path d="M0 71H51.5" stroke="#535353"/>
<line x1="18.5" y1="21" x2="18.5" y2="106" stroke="#535353"/>
<path d="M35.5 21L35.5 106" stroke="#535353"/>
<path d="M10.8153 15V3.36364H17.7926V4.61364H12.2244V8.54545H17.2699V9.79545H12.2244V15H10.8153ZM19.9304 15V6.27273H21.2259V7.63636H21.3395C21.5213 7.17045 21.8149 6.80871 22.2202 6.55114C22.6255 6.28977 23.1122 6.15909 23.6804 6.15909C24.2562 6.15909 24.7353 6.28977 25.1179 6.55114C25.5043 6.80871 25.8054 7.17045 26.0213 7.63636H26.1122C26.3357 7.18561 26.6709 6.82765 27.1179 6.5625C27.5649 6.29356 28.1009 6.15909 28.7259 6.15909C29.5062 6.15909 30.1444 6.40341 30.6406 6.89205C31.1368 7.37689 31.3849 8.13258 31.3849 9.15909V15H30.044V9.15909C30.044 8.51515 29.8679 8.05492 29.5156 7.77841C29.1634 7.50189 28.7486 7.36364 28.2713 7.36364C27.6577 7.36364 27.1823 7.54924 26.8452 7.92045C26.508 8.28788 26.3395 8.75379 26.3395 9.31818V15H24.9759V9.02273C24.9759 8.52652 24.8149 8.12689 24.4929 7.82386C24.1709 7.51705 23.7562 7.36364 23.2486 7.36364C22.9001 7.36364 22.5743 7.45644 22.2713 7.64205C21.9721 7.82765 21.7296 8.08523 21.544 8.41477C21.3622 8.74053 21.2713 9.11742 21.2713 9.54545V15H19.9304ZM37.5185 3.20455C37.9957 3.20833 38.473 3.29924 38.9503 3.47727C39.4276 3.6553 39.8632 3.95076 40.2571 4.36364C40.651 4.77273 40.9673 5.33144 41.206 6.03977C41.4446 6.74811 41.5639 7.63636 41.5639 8.70455C41.5639 9.73864 41.4654 10.6572 41.2685 11.4602C41.0753 12.2595 40.795 12.9337 40.4276 13.483C40.0639 14.0322 39.6207 14.4489 39.098 14.733C38.5791 15.017 37.992 15.1591 37.3366 15.1591C36.6851 15.1591 36.1037 15.0303 35.5923 14.7727C35.0848 14.5114 34.6681 14.1496 34.3423 13.6875C34.0204 13.2216 33.8139 12.6818 33.723 12.0682H35.1094C35.2344 12.6023 35.4825 13.0436 35.8537 13.392C36.2287 13.7367 36.723 13.9091 37.3366 13.9091C38.2344 13.9091 38.9427 13.517 39.4616 12.733C39.9844 11.9489 40.2457 10.8409 40.2457 9.40909H40.1548C39.9427 9.72727 39.6908 10.0019 39.3991 10.233C39.1075 10.464 38.7836 10.642 38.4276 10.767C38.0715 10.892 37.6927 10.9545 37.2912 10.9545C36.6245 10.9545 36.0128 10.7898 35.456 10.4602C34.9029 10.1269 34.4598 9.67045 34.1264 9.09091C33.7969 8.50758 33.6321 7.84091 33.6321 7.09091C33.6321 6.37879 33.7912 5.72727 34.1094 5.13636C34.4313 4.54167 34.8821 4.06818 35.4616 3.71591C36.045 3.36364 36.7306 3.19318 37.5185 3.20455ZM37.5185 4.45455C37.0412 4.45455 36.6113 4.57386 36.2287 4.8125C35.8499 5.04735 35.5488 5.36553 35.3253 5.76705C35.1056 6.16477 34.9957 6.60606 34.9957 7.09091C34.9957 7.57576 35.1018 8.01705 35.3139 8.41477C35.5298 8.80871 35.8234 9.12311 36.1946 9.35795C36.5696 9.58902 36.9957 9.70455 37.473 9.70455C37.8329 9.70455 38.1681 9.63447 38.4787 9.49432C38.7893 9.35038 39.0601 9.1553 39.2912 8.90909C39.526 8.65909 39.7098 8.37689 39.8423 8.0625C39.9749 7.74432 40.0412 7.41288 40.0412 7.06818C40.0412 6.61364 39.9313 6.1875 39.7116 5.78977C39.4957 5.39205 39.1965 5.07008 38.8139 4.82386C38.4351 4.57765 38.0033 4.45455 37.5185 4.45455Z" fill="#F32851"/>
<path d="M22.5252 44.6195C22.8435 45.1626 22.8435 45.8374 22.5252 46.3805C21.6989 47.7909 20.7909 48.6989 19.3805 49.5252C18.8374 49.8435 18.1626 49.8435 17.6195 49.5252C16.2091 48.6989 15.3011 47.7909 14.4748 46.3805C14.1565 45.8374 14.1565 45.1626 14.4748 44.6195C15.3011 43.2091 16.2091 42.3011 17.6195 41.4748C18.1626 41.1565 18.8374 41.1565 19.3805 41.4748C20.7909 42.3011 21.6989 43.2091 22.5252 44.6195Z" fill="#F32851"/>
<path d="M55.5252 61.6195C55.8435 62.1626 55.8435 62.8374 55.5252 63.3805C54.6989 64.7909 53.7909 65.6989 52.3805 66.5252C51.8374 66.8435 51.1626 66.8435 50.6195 66.5252C49.2091 65.6989 48.3011 64.7909 47.4748 63.3805C47.1565 62.8374 47.1565 62.1626 47.4748 61.6195C48.3011 60.2091 49.2091 59.3011 50.6195 58.4748C51.1626 58.1565 51.8374 58.1565 52.3805 58.4748C53.7909 59.3011 54.6989 60.2091 55.5252 61.6195Z" fill="#F32851"/>
<path d="M39.5252 29.6195C39.8435 30.1626 39.8435 30.8374 39.5252 31.3805C38.6989 32.7909 37.7909 33.6989 36.3805 34.5252C35.8374 34.8435 35.1626 34.8435 34.6195 34.5252C33.2091 33.6989 32.3011 32.7909 31.4748 31.3805C31.1565 30.8374 31.1565 30.1626 31.4748 29.6195C32.3011 28.2091 33.2091 27.3011 34.6195 26.4748C35.1626 26.1565 35.8374 26.1565 36.3805 26.4748C37.7909 27.3011 38.6989 28.2091 39.5252 29.6195Z" fill="#F32851"/>
</svg>
