<svg width="59" height="106" viewBox="0 0 59 106" fill="none" xmlns="http://www.w3.org/2000/svg">
<rect x="3.5" y="21.5" width="51" height="84" rx="1.5" stroke="#535353"/>
<line x1="3" y1="37.4999" x2="55" y2="37.4999" stroke="#535353"/>
<line x1="3" y1="53.5" x2="55" y2="53.5" stroke="#535353"/>
<path d="M3 88H54" stroke="#535353"/>
<path d="M3 71H54.5" stroke="#535353"/>
<line x1="21.5" y1="21" x2="21.5" y2="106" stroke="#535353"/>
<path d="M38.5 21L38.5 106" stroke="#535353"/>
<path d="M7.83097 15V3.36364H14.8082V4.61364H9.24006V8.54545H14.2855V9.79545H9.24006V15H7.83097ZM16.946 15V6.27273H18.2415V7.63636H18.3551C18.5369 7.17045 18.8305 6.80871 19.2358 6.55114C19.6411 6.28977 20.1278 6.15909 20.696 6.15909C21.2718 6.15909 21.7509 6.28977 22.1335 6.55114C22.5199 6.80871 22.821 7.17045 23.0369 7.63636H23.1278C23.3513 7.18561 23.6866 6.82765 24.1335 6.5625C24.5805 6.29356 25.1165 6.15909 25.7415 6.15909C26.5218 6.15909 27.16 6.40341 27.6562 6.89205C28.1525 7.37689 28.4006 8.13258 28.4006 9.15909V15H27.0597V9.15909C27.0597 8.51515 26.8835 8.05492 26.5312 7.77841C26.179 7.50189 25.7642 7.36364 25.2869 7.36364C24.6733 7.36364 24.1979 7.54924 23.8608 7.92045C23.5237 8.28788 23.3551 8.75379 23.3551 9.31818V15H21.9915V9.02273C21.9915 8.52652 21.8305 8.12689 21.5085 7.82386C21.1866 7.51705 20.7718 7.36364 20.2642 7.36364C19.9157 7.36364 19.59 7.45644 19.2869 7.64205C18.9877 7.82765 18.7453 8.08523 18.5597 8.41477C18.3778 8.74053 18.2869 9.11742 18.2869 9.54545V15H16.946ZM33.4205 15.2045C32.8674 15.2045 32.3655 15.1004 31.9148 14.892C31.464 14.6799 31.1061 14.375 30.8409 13.9773C30.5758 13.5758 30.4432 13.0909 30.4432 12.5227C30.4432 12.0227 30.5417 11.6174 30.7386 11.3068C30.9356 10.9924 31.1989 10.7462 31.5284 10.5682C31.858 10.3902 32.2216 10.2576 32.6193 10.1705C33.0208 10.0795 33.4242 10.0076 33.8295 9.95455C34.3598 9.88636 34.7898 9.83523 35.1193 9.80114C35.4527 9.76326 35.6951 9.70076 35.8466 9.61364C36.0019 9.52652 36.0795 9.375 36.0795 9.15909V9.11364C36.0795 8.55303 35.9261 8.11742 35.6193 7.80682C35.3163 7.49621 34.8561 7.34091 34.2386 7.34091C33.5985 7.34091 33.0966 7.48106 32.733 7.76136C32.3693 8.04167 32.1136 8.34091 31.9659 8.65909L30.6932 8.20455C30.9205 7.67424 31.2235 7.26136 31.6023 6.96591C31.9848 6.66667 32.4015 6.45833 32.8523 6.34091C33.3068 6.2197 33.7538 6.15909 34.1932 6.15909C34.4735 6.15909 34.7955 6.19318 35.1591 6.26136C35.5265 6.32576 35.8807 6.46023 36.2216 6.66477C36.5663 6.86932 36.8523 7.17803 37.0795 7.59091C37.3068 8.00379 37.4205 8.55682 37.4205 9.25V15H36.0795V13.8182H36.0114C35.9205 14.0076 35.7689 14.2102 35.5568 14.4261C35.3447 14.642 35.0625 14.8258 34.7102 14.9773C34.358 15.1288 33.928 15.2045 33.4205 15.2045ZM33.625 14C34.1553 14 34.6023 13.8958 34.9659 13.6875C35.3333 13.4792 35.6098 13.2102 35.7955 12.8807C35.9848 12.5511 36.0795 12.2045 36.0795 11.8409V10.6136C36.0227 10.6818 35.8977 10.7443 35.7045 10.8011C35.5152 10.8542 35.2955 10.9015 35.0455 10.9432C34.7992 10.9811 34.5587 11.0152 34.3239 11.0455C34.0928 11.072 33.9053 11.0947 33.7614 11.1136C33.4129 11.1591 33.0871 11.233 32.7841 11.3352C32.4848 11.4337 32.2424 11.5833 32.0568 11.7841C31.875 11.9811 31.7841 12.25 31.7841 12.5909C31.7841 13.0568 31.9564 13.4091 32.3011 13.6477C32.6496 13.8826 33.0909 14 33.625 14ZM39.8679 6.27273H41.2088V15.6364C41.2088 16.1742 41.116 16.6402 40.9304 17.0341C40.7486 17.428 40.4721 17.733 40.1009 17.9489C39.7334 18.1648 39.2694 18.2727 38.7088 18.2727C38.6634 18.2727 38.6179 18.2727 38.5724 18.2727C38.527 18.2727 38.4815 18.2727 38.4361 18.2727V17.0227C38.4815 17.0227 38.5232 17.0227 38.5611 17.0227C38.599 17.0227 38.6406 17.0227 38.6861 17.0227C39.0952 17.0227 39.3944 16.9015 39.5838 16.6591C39.7732 16.4205 39.8679 16.0795 39.8679 15.6364V6.27273ZM40.527 4.81818C40.2656 4.81818 40.0402 4.72917 39.8509 4.55114C39.6652 4.37311 39.5724 4.15909 39.5724 3.90909C39.5724 3.65909 39.6652 3.44508 39.8509 3.26705C40.0402 3.08902 40.2656 3 40.527 3C40.7884 3 41.0118 3.08902 41.1974 3.26705C41.3868 3.44508 41.4815 3.65909 41.4815 3.90909C41.4815 4.15909 41.3868 4.37311 41.1974 4.55114C41.0118 4.72917 40.7884 4.81818 40.527 4.81818ZM44.0057 15L49.2102 4.70455V4.61364H43.2102V3.36364H50.6648V4.68182L45.483 15H44.0057Z" fill="#F32851"/>
<path d="M58.5252 61.6195C58.8435 62.1626 58.8435 62.8374 58.5252 63.3805C57.6989 64.7909 56.7909 65.6989 55.3805 66.5252C54.8374 66.8435 54.1626 66.8435 53.6195 66.5252C52.2091 65.6989 51.3011 64.7909 50.4748 63.3805C50.1565 62.8374 50.1565 62.1626 50.4748 61.6195C51.3011 60.2091 52.2091 59.3011 53.6195 58.4748C54.1626 58.1565 54.8374 58.1565 55.3805 58.4748C56.7909 59.3011 57.6989 60.2091 58.5252 61.6195Z" fill="#F32851"/>
<path d="M3 29H55" stroke="#F32851" stroke-opacity="0.55" stroke-width="5" stroke-linecap="round"/>
<path d="M29.9737 35.1591C29.3071 35.1591 28.7067 35.0265 28.1726 34.7614C27.6385 34.4962 27.2105 34.1326 26.8885 33.6705C26.5665 33.2083 26.3904 32.6818 26.3601 32.0909H27.7237C27.7768 32.6174 28.0154 33.053 28.4396 33.3977C28.8677 33.7386 29.379 33.9091 29.9737 33.9091C30.451 33.9091 30.8752 33.7973 31.2464 33.5739C31.6214 33.3504 31.915 33.0436 32.1271 32.6534C32.343 32.2595 32.451 31.8144 32.451 31.3182C32.451 30.8106 32.3393 30.358 32.1158 29.9602C31.8961 29.5587 31.593 29.2424 31.2067 29.0114C30.8203 28.7803 30.379 28.6629 29.8828 28.6591C29.5268 28.6553 29.1612 28.7102 28.7862 28.8239C28.4112 28.9337 28.1025 29.0758 27.8601 29.25L26.5419 29.0909L27.2464 23.3636H33.2919V24.6136H28.4283L28.0192 28.0455H28.0874C28.326 27.8561 28.6252 27.6989 28.9851 27.5739C29.3449 27.4489 29.7199 27.3864 30.1101 27.3864C30.8222 27.3864 31.4567 27.5568 32.0135 27.8977C32.5741 28.2348 33.0135 28.697 33.3317 29.2841C33.6536 29.8712 33.8146 30.5417 33.8146 31.2955C33.8146 32.0379 33.648 32.7008 33.3146 33.2841C32.9851 33.8636 32.5305 34.322 31.951 34.6591C31.3714 34.9924 30.7124 35.1591 29.9737 35.1591Z" fill="#780000"/>
</svg>
