<svg width="60" height="106" viewBox="0 0 60 106" fill="none" xmlns="http://www.w3.org/2000/svg">
<rect x="4.5" y="21.5" width="51" height="84" rx="1.5" stroke="#535353"/>
<line x1="4" y1="37.4999" x2="56" y2="37.4999" stroke="#535353"/>
<line x1="4" y1="53.5" x2="56" y2="53.5" stroke="#535353"/>
<path d="M4 88H55" stroke="#535353"/>
<path d="M4 71H55.5" stroke="#535353"/>
<line x1="22.5" y1="21" x2="22.5" y2="106" stroke="#535353"/>
<path d="M39.5 21L39.5 106" stroke="#535353"/>
<path d="M16.6747 15V3.36364H23.652V4.61364H18.0838V8.54545H23.1293V9.79545H18.0838V15H16.6747ZM30.2244 15L32.1335 3.36364H33.2699L31.3608 15H30.2244ZM24.929 11.7727L25.1108 10.6364H33.7926L33.6108 11.7727H24.929ZM26.1335 15L28.0426 3.36364H29.179L27.2699 15H26.1335ZM25.6108 7.72727L25.7926 6.59091H34.4744L34.2926 7.72727H25.6108ZM39.6591 3.20455C40.1364 3.20833 40.6136 3.29924 41.0909 3.47727C41.5682 3.6553 42.0038 3.95076 42.3977 4.36364C42.7917 4.77273 43.108 5.33144 43.3466 6.03977C43.5852 6.74811 43.7045 7.63636 43.7045 8.70455C43.7045 9.73864 43.6061 10.6572 43.4091 11.4602C43.2159 12.2595 42.9356 12.9337 42.5682 13.483C42.2045 14.0322 41.7614 14.4489 41.2386 14.733C40.7197 15.017 40.1326 15.1591 39.4773 15.1591C38.8258 15.1591 38.2443 15.0303 37.733 14.7727C37.2254 14.5114 36.8087 14.1496 36.483 13.6875C36.161 13.2216 35.9545 12.6818 35.8636 12.0682H37.25C37.375 12.6023 37.6231 13.0436 37.9943 13.392C38.3693 13.7367 38.8636 13.9091 39.4773 13.9091C40.375 13.9091 41.0833 13.517 41.6023 12.733C42.125 11.9489 42.3864 10.8409 42.3864 9.40909H42.2955C42.0833 9.72727 41.8314 10.0019 41.5398 10.233C41.2481 10.464 40.9242 10.642 40.5682 10.767C40.2121 10.892 39.8333 10.9545 39.4318 10.9545C38.7652 10.9545 38.1534 10.7898 37.5966 10.4602C37.0436 10.1269 36.6004 9.67045 36.267 9.09091C35.9375 8.50758 35.7727 7.84091 35.7727 7.09091C35.7727 6.37879 35.9318 5.72727 36.25 5.13636C36.572 4.54167 37.0227 4.06818 37.6023 3.71591C38.1856 3.36364 38.8712 3.19318 39.6591 3.20455ZM39.6591 4.45455C39.1818 4.45455 38.7519 4.57386 38.3693 4.8125C37.9905 5.04735 37.6894 5.36553 37.4659 5.76705C37.2462 6.16477 37.1364 6.60606 37.1364 7.09091C37.1364 7.57576 37.2424 8.01705 37.4545 8.41477C37.6705 8.80871 37.964 9.12311 38.3352 9.35795C38.7102 9.58902 39.1364 9.70455 39.6136 9.70455C39.9735 9.70455 40.3087 9.63447 40.6193 9.49432C40.9299 9.35038 41.2008 9.1553 41.4318 8.90909C41.6667 8.65909 41.8504 8.37689 41.983 8.0625C42.1155 7.74432 42.1818 7.41288 42.1818 7.06818C42.1818 6.61364 42.072 6.1875 41.8523 5.78977C41.6364 5.39205 41.3371 5.07008 40.9545 4.82386C40.5758 4.57765 40.1439 4.45455 39.6591 4.45455Z" fill="#F32851"/>
<path d="M59.5252 28.6195C59.8435 29.1626 59.8435 29.8374 59.5252 30.3805C58.6989 31.7909 57.7909 32.6989 56.3805 33.5252C55.8374 33.8435 55.1626 33.8435 54.6195 33.5252C53.2091 32.6989 52.3011 31.7909 51.4748 30.3805C51.1565 29.8374 51.1565 29.1626 51.4748 28.6195C52.3011 27.2091 53.2091 26.3011 54.6195 25.4748C55.1626 25.1565 55.8374 25.1565 56.3805 25.4748C57.7909 26.3011 58.6989 27.2091 59.5252 28.6195Z" fill="#F32851"/>
<path d="M26.5252 79.6195C26.8435 80.1626 26.8435 80.8374 26.5252 81.3805C25.6989 82.7909 24.7909 83.6989 23.3805 84.5252C22.8374 84.8435 22.1626 84.8435 21.6195 84.5252C20.2091 83.6989 19.3011 82.7909 18.4748 81.3805C18.1565 80.8374 18.1565 80.1626 18.4748 79.6195C19.3011 78.2091 20.2091 77.3011 21.6195 76.4748C22.1626 76.1565 22.8374 76.1565 23.3805 76.4748C24.7909 77.3011 25.6989 78.2091 26.5252 79.6195Z" fill="#F32851"/>
<path d="M43.5252 44.6195C43.8435 45.1626 43.8435 45.8374 43.5252 46.3805C42.6989 47.7909 41.7909 48.6989 40.3805 49.5252C39.8374 49.8435 39.1626 49.8435 38.6195 49.5252C37.2091 48.6989 36.3011 47.7909 35.4748 46.3805C35.1565 45.8374 35.1565 45.1626 35.4748 44.6195C36.3011 43.2091 37.2091 42.3011 38.6195 41.4748C39.1626 41.1565 39.8374 41.1565 40.3805 41.4748C41.7909 42.3011 42.6989 43.2091 43.5252 44.6195Z" fill="#F32851"/>
<path d="M8.52523 28.6195C8.84348 29.1626 8.84348 29.8374 8.52523 30.3805C7.69886 31.7909 6.79088 32.6989 5.38054 33.5252C4.83739 33.8435 4.16261 33.8435 3.61946 33.5252C2.20912 32.6989 1.30114 31.7909 0.474768 30.3805C0.15652 29.8374 0.15652 29.1626 0.474768 28.6195C1.30114 27.2091 2.20912 26.3011 3.61946 25.4748C4.16261 25.1565 4.83739 25.1565 5.38054 25.4748C6.79088 26.3011 7.69886 27.2091 8.52523 28.6195Z" fill="#F32851"/>
</svg>
