<svg width="56" height="106" viewBox="0 0 56 106" fill="none" xmlns="http://www.w3.org/2000/svg">
<rect x="4.5" y="21.5" width="51" height="84" rx="1.5" stroke="#535353"/>
<line x1="4" y1="37.4999" x2="56" y2="37.4999" stroke="#535353"/>
<line x1="4" y1="53.5" x2="56" y2="53.5" stroke="#535353"/>
<path d="M4 88H55" stroke="#535353"/>
<path d="M4 71H55.5" stroke="#535353"/>
<line x1="22.5" y1="21" x2="22.5" y2="106" stroke="#535353"/>
<path d="M39.5 21L39.5 106" stroke="#535353"/>
<path d="M7.84659 15V3.36364H14.8239V4.61364H9.25568V8.54545H14.3011V9.79545H9.25568V15H7.84659ZM21.3963 15L23.3054 3.36364H24.4418L22.5327 15H21.3963ZM16.1009 11.7727L16.2827 10.6364H24.9645L24.7827 11.7727H16.1009ZM17.3054 15L19.2145 3.36364H20.3509L18.4418 15H17.3054ZM16.7827 7.72727L16.9645 6.59091H25.6463L25.4645 7.72727H16.7827ZM30.4446 15.1818C29.7173 15.1818 29.0753 14.9981 28.5185 14.6307C27.9616 14.2595 27.526 13.7367 27.2116 13.0625C26.8973 12.3845 26.7401 11.5833 26.7401 10.6591C26.7401 9.74242 26.8973 8.94697 27.2116 8.27273C27.526 7.59848 27.9635 7.07765 28.5241 6.71023C29.0848 6.3428 29.7325 6.15909 30.4673 6.15909C31.0355 6.15909 31.4844 6.25379 31.8139 6.44318C32.1473 6.62879 32.401 6.84091 32.5753 7.07955C32.7533 7.31439 32.8916 7.50758 32.9901 7.65909H33.1037V3.36364H34.4446V15H33.1491V13.6591H32.9901C32.8916 13.8182 32.7514 14.0189 32.5696 14.2614C32.3878 14.5 32.1283 14.714 31.7912 14.9034C31.4541 15.089 31.0052 15.1818 30.4446 15.1818ZM30.6264 13.9773C31.1643 13.9773 31.6188 13.8371 31.9901 13.5568C32.3613 13.2727 32.6435 12.8807 32.8366 12.3807C33.0298 11.8769 33.1264 11.2955 33.1264 10.6364C33.1264 9.98485 33.0317 9.41477 32.8423 8.92614C32.6529 8.43371 32.3726 8.05114 32.0014 7.77841C31.6302 7.50189 31.1719 7.36364 30.6264 7.36364C30.0582 7.36364 29.5848 7.50947 29.206 7.80114C28.831 8.08902 28.5488 8.48106 28.3594 8.97727C28.1738 9.4697 28.081 10.0227 28.081 10.6364C28.081 11.2576 28.1757 11.822 28.3651 12.3295C28.5582 12.8333 28.8423 13.2348 29.2173 13.5341C29.5961 13.8295 30.0658 13.9773 30.6264 13.9773ZM37.0866 15V6.27273H38.4276V15H37.0866ZM37.7685 4.81818C37.5071 4.81818 37.2817 4.72917 37.0923 4.55114C36.9067 4.37311 36.8139 4.15909 36.8139 3.90909C36.8139 3.65909 36.9067 3.44508 37.0923 3.26705C37.2817 3.08902 37.5071 3 37.7685 3C38.0298 3 38.2533 3.08902 38.4389 3.26705C38.6283 3.44508 38.723 3.65909 38.723 3.90909C38.723 4.15909 38.6283 4.37311 38.4389 4.55114C38.2533 4.72917 38.0298 4.81818 37.7685 4.81818ZM40.8835 15V6.27273H42.179V7.63636H42.2926C42.4744 7.17045 42.768 6.80871 43.1733 6.55114C43.5786 6.28977 44.0653 6.15909 44.6335 6.15909C45.2093 6.15909 45.6884 6.28977 46.071 6.55114C46.4574 6.80871 46.7585 7.17045 46.9744 7.63636H47.0653C47.2888 7.18561 47.6241 6.82765 48.071 6.5625C48.518 6.29356 49.054 6.15909 49.679 6.15909C50.4593 6.15909 51.0975 6.40341 51.5938 6.89205C52.09 7.37689 52.3381 8.13258 52.3381 9.15909V15H50.9972V9.15909C50.9972 8.51515 50.821 8.05492 50.4688 7.77841C50.1165 7.50189 49.7017 7.36364 49.2244 7.36364C48.6108 7.36364 48.1354 7.54924 47.7983 7.92045C47.4612 8.28788 47.2926 8.75379 47.2926 9.31818V15H45.929V9.02273C45.929 8.52652 45.768 8.12689 45.446 7.82386C45.1241 7.51705 44.7093 7.36364 44.2017 7.36364C43.8532 7.36364 43.5275 7.45644 43.2244 7.64205C42.9252 7.82765 42.6828 8.08523 42.4972 8.41477C42.3153 8.74053 42.2244 9.11742 42.2244 9.54545V15H40.8835Z" fill="#F32851"/>
<path d="M43.5252 44.6195C43.8435 45.1626 43.8435 45.8374 43.5252 46.3805C42.6989 47.7909 41.7909 48.6989 40.3805 49.5252C39.8374 49.8435 39.1626 49.8435 38.6195 49.5252C37.2091 48.6989 36.3011 47.7909 35.4748 46.3805C35.1565 45.8374 35.1565 45.1626 35.4748 44.6195C36.3011 43.2091 37.2091 42.3011 38.6195 41.4748C39.1626 41.1565 39.8374 41.1565 40.3805 41.4748C41.7909 42.3011 42.6989 43.2091 43.5252 44.6195Z" fill="#F32851"/>
<path d="M8.52523 44.6195C8.84348 45.1626 8.84348 45.8374 8.52523 46.3805C7.69886 47.7909 6.79088 48.6989 5.38054 49.5252C4.83739 49.8435 4.16261 49.8435 3.61946 49.5252C2.20912 48.6989 1.30114 47.7909 0.474768 46.3805C0.15652 45.8374 0.15652 45.1626 0.474768 44.6195C1.30114 43.2091 2.20912 42.3011 3.61946 41.4748C4.16261 41.1565 4.83739 41.1565 5.38054 41.4748C6.79088 42.3011 7.69886 43.2091 8.52523 44.6195Z" fill="#F32851"/>
</svg>
