<svg width="56" height="106" viewBox="0 0 56 106" fill="none" xmlns="http://www.w3.org/2000/svg">
<rect x="4.5" y="21.5" width="51" height="84" rx="1.5" stroke="#535353"/>
<line x1="4" y1="37.4999" x2="56" y2="37.4999" stroke="#535353"/>
<line x1="4" y1="53.5" x2="56" y2="53.5" stroke="#535353"/>
<path d="M4 88H55" stroke="#535353"/>
<path d="M4 71H55.5" stroke="#535353"/>
<line x1="22.5" y1="21" x2="22.5" y2="106" stroke="#535353"/>
<path d="M39.5 21L39.5 106" stroke="#535353"/>
<path d="M14.7138 15V3.36364H21.6911V4.61364H16.1229V8.54545H21.1683V9.79545H16.1229V15H14.7138ZM28.2635 15L30.1726 3.36364H31.3089L29.3999 15H28.2635ZM22.968 11.7727L23.1499 10.6364H31.8317L31.6499 11.7727H22.968ZM24.1726 15L26.0817 3.36364H27.218L25.3089 15H24.1726ZM23.6499 7.72727L23.8317 6.59091H32.5135L32.3317 7.72727H23.6499ZM34.0163 15V6.27273H35.3118V7.63636H35.4254C35.6072 7.17045 35.9008 6.80871 36.3061 6.55114C36.7114 6.28977 37.1982 6.15909 37.7663 6.15909C38.3421 6.15909 38.8213 6.28977 39.2038 6.55114C39.5902 6.80871 39.8913 7.17045 40.1072 7.63636H40.1982C40.4216 7.18561 40.7569 6.82765 41.2038 6.5625C41.6508 6.29356 42.1868 6.15909 42.8118 6.15909C43.5921 6.15909 44.2304 6.40341 44.7266 6.89205C45.2228 7.37689 45.4709 8.13258 45.4709 9.15909V15H44.13V9.15909C44.13 8.51515 43.9538 8.05492 43.6016 7.77841C43.2493 7.50189 42.8345 7.36364 42.3572 7.36364C41.7436 7.36364 41.2682 7.54924 40.9311 7.92045C40.594 8.28788 40.4254 8.75379 40.4254 9.31818V15H39.0618V9.02273C39.0618 8.52652 38.9008 8.12689 38.5788 7.82386C38.2569 7.51705 37.8421 7.36364 37.3345 7.36364C36.986 7.36364 36.6603 7.45644 36.3572 7.64205C36.058 7.82765 35.8156 8.08523 35.63 8.41477C35.4482 8.74053 35.3572 9.11742 35.3572 9.54545V15H34.0163Z" fill="#F32851"/>
<path d="M43.5252 44.6195C43.8435 45.1626 43.8435 45.8374 43.5252 46.3805C42.6989 47.7909 41.7909 48.6989 40.3805 49.5252C39.8374 49.8435 39.1626 49.8435 38.6195 49.5252C37.2091 48.6989 36.3011 47.7909 35.4748 46.3805C35.1565 45.8374 35.1565 45.1626 35.4748 44.6195C36.3011 43.2091 37.2091 42.3011 38.6195 41.4748C39.1626 41.1565 39.8374 41.1565 40.3805 41.4748C41.7909 42.3011 42.6989 43.2091 43.5252 44.6195Z" fill="#F32851"/>
<path d="M26.5252 28.6195C26.8435 29.1626 26.8435 29.8374 26.5252 30.3805C25.6989 31.7909 24.7909 32.6989 23.3805 33.5252C22.8374 33.8435 22.1626 33.8435 21.6195 33.5252C20.2091 32.6989 19.3011 31.7909 18.4748 30.3805C18.1565 29.8374 18.1565 29.1626 18.4748 28.6195C19.3011 27.2091 20.2091 26.3011 21.6195 25.4748C22.1626 25.1565 22.8374 25.1565 23.3805 25.4748C24.7909 26.3011 25.6989 27.2091 26.5252 28.6195Z" fill="#F32851"/>
<path d="M8.52523 44.6195C8.84348 45.1626 8.84348 45.8374 8.52523 46.3805C7.69886 47.7909 6.79088 48.6989 5.38054 49.5252C4.83739 49.8435 4.16261 49.8435 3.61946 49.5252C2.20912 48.6989 1.30114 47.7909 0.474768 46.3805C0.15652 45.8374 0.15652 45.1626 0.474768 44.6195C1.30114 43.2091 2.20912 42.3011 3.61946 41.4748C4.16261 41.1565 4.83739 41.1565 5.38054 41.4748C6.79088 42.3011 7.69886 43.2091 8.52523 44.6195Z" fill="#F32851"/>
</svg>
