<svg width="60" height="106" viewBox="0 0 60 106" fill="none" xmlns="http://www.w3.org/2000/svg">
<rect x="4.5" y="21.5" width="51" height="84" rx="1.5" stroke="#535353"/>
<line x1="4" y1="37.4999" x2="56" y2="37.4999" stroke="#535353"/>
<line x1="4" y1="53.5" x2="56" y2="53.5" stroke="#535353"/>
<path d="M4 88H55" stroke="#535353"/>
<path d="M4 71H55.5" stroke="#535353"/>
<line x1="22.5" y1="21" x2="22.5" y2="106" stroke="#535353"/>
<path d="M39.5 21L39.5 106" stroke="#535353"/>
<path d="M10.1435 15V3.36364H17.1207V4.61364H11.5526V8.54545H16.598V9.79545H11.5526V15H10.1435ZM23.6932 15L25.6023 3.36364H26.7386L24.8295 15H23.6932ZM18.3977 11.7727L18.5795 10.6364H27.2614L27.0795 11.7727H18.3977ZM19.6023 15L21.5114 3.36364H22.6477L20.7386 15H19.6023ZM19.0795 7.72727L19.2614 6.59091H27.9432L27.7614 7.72727H19.0795ZM29.446 15V6.27273H30.7415V7.63636H30.8551C31.0369 7.17045 31.3305 6.80871 31.7358 6.55114C32.1411 6.28977 32.6278 6.15909 33.196 6.15909C33.7718 6.15909 34.2509 6.28977 34.6335 6.55114C35.0199 6.80871 35.321 7.17045 35.5369 7.63636H35.6278C35.8513 7.18561 36.1866 6.82765 36.6335 6.5625C37.0805 6.29356 37.6165 6.15909 38.2415 6.15909C39.0218 6.15909 39.66 6.40341 40.1562 6.89205C40.6525 7.37689 40.9006 8.13258 40.9006 9.15909V15H39.5597V9.15909C39.5597 8.51515 39.3835 8.05492 39.0312 7.77841C38.679 7.50189 38.2642 7.36364 37.7869 7.36364C37.1733 7.36364 36.6979 7.54924 36.3608 7.92045C36.0237 8.28788 35.8551 8.75379 35.8551 9.31818V15H34.4915V9.02273C34.4915 8.52652 34.3305 8.12689 34.0085 7.82386C33.6866 7.51705 33.2718 7.36364 32.7642 7.36364C32.4157 7.36364 32.09 7.45644 31.7869 7.64205C31.4877 7.82765 31.2453 8.08523 31.0597 8.41477C30.8778 8.74053 30.7869 9.11742 30.7869 9.54545V15H29.446ZM43.6932 15L48.8977 4.70455V4.61364H42.8977V3.36364H50.3523V4.68182L45.1705 15H43.6932Z" fill="#F32851"/>
<path d="M26.5252 78.6195C26.8435 79.1626 26.8435 79.8374 26.5252 80.3805C25.6989 81.7909 24.7909 82.6989 23.3805 83.5252C22.8374 83.8435 22.1626 83.8435 21.6195 83.5252C20.2091 82.6989 19.3011 81.7909 18.4748 80.3805C18.1565 79.8374 18.1565 79.1626 18.4748 78.6195C19.3011 77.2091 20.2091 76.3011 21.6195 75.4748C22.1626 75.1565 22.8374 75.1565 23.3805 75.4748C24.7909 76.3011 25.6989 77.2091 26.5252 78.6195Z" fill="#F32851"/>
<path d="M59.5252 78.6195C59.8435 79.1626 59.8435 79.8374 59.5252 80.3805C58.6989 81.7909 57.7909 82.6989 56.3805 83.5252C55.8374 83.8435 55.1626 83.8435 54.6195 83.5252C53.2091 82.6989 52.3011 81.7909 51.4748 80.3805C51.1565 79.8374 51.1565 79.1626 51.4748 78.6195C52.3011 77.2091 53.2091 76.3011 54.6195 75.4748C55.1626 75.1565 55.8374 75.1565 56.3805 75.4748C57.7909 76.3011 58.6989 77.2091 59.5252 78.6195Z" fill="#F32851"/>
<path d="M8.52523 44.6195C8.84348 45.1626 8.84348 45.8374 8.52523 46.3805C7.69886 47.7909 6.79088 48.6989 5.38054 49.5252C4.83739 49.8435 4.16261 49.8435 3.61946 49.5252C2.20912 48.6989 1.30114 47.7909 0.474768 46.3805C0.15652 45.8374 0.15652 45.1626 0.474768 44.6195C1.30114 43.2091 2.20912 42.3011 3.61946 41.4748C4.16261 41.1565 4.83739 41.1565 5.38054 41.4748C6.79088 42.3011 7.69886 43.2091 8.52523 44.6195Z" fill="#F32851"/>
<path d="M43.5252 44.6195C43.8435 45.1626 43.8435 45.8374 43.5252 46.3805C42.6989 47.7909 41.7909 48.6989 40.3805 49.5252C39.8374 49.8435 39.1626 49.8435 38.6195 49.5252C37.2091 48.6989 36.3011 47.7909 35.4748 46.3805C35.1565 45.8374 35.1565 45.1626 35.4748 44.6195C36.3011 43.2091 37.2091 42.3011 38.6195 41.4748C39.1626 41.1565 39.8374 41.1565 40.3805 41.4748C41.7909 42.3011 42.6989 43.2091 43.5252 44.6195Z" fill="#F32851"/>
</svg>
