<svg width="56" height="106" viewBox="0 0 56 106" fill="none" xmlns="http://www.w3.org/2000/svg">
<rect x="4.5" y="21.5" width="51" height="84" rx="1.5" stroke="#535353"/>
<line x1="4" y1="37.4999" x2="56" y2="37.4999" stroke="#535353"/>
<line x1="4" y1="53.5" x2="56" y2="53.5" stroke="#535353"/>
<path d="M4 88H55" stroke="#535353"/>
<path d="M4 71H55.5" stroke="#535353"/>
<line x1="22.5" y1="21" x2="22.5" y2="106" stroke="#535353"/>
<path d="M39.5 21L39.5 106" stroke="#535353"/>
<path d="M9.72159 15V3.36364H16.6989V4.61364H11.1307V8.54545H16.1761V9.79545H11.1307V15H9.72159ZM23.2713 15L25.1804 3.36364H26.3168L24.4077 15H23.2713ZM17.9759 11.7727L18.1577 10.6364H26.8395L26.6577 11.7727H17.9759ZM19.1804 15L21.0895 3.36364H22.2259L20.3168 15H19.1804ZM18.6577 7.72727L18.8395 6.59091H27.5213L27.3395 7.72727H18.6577ZM29.0241 15V6.27273H30.3196V7.63636H30.4332C30.6151 7.17045 30.9086 6.80871 31.3139 6.55114C31.7192 6.28977 32.206 6.15909 32.7741 6.15909C33.3499 6.15909 33.8291 6.28977 34.2116 6.55114C34.598 6.80871 34.8991 7.17045 35.1151 7.63636H35.206C35.4295 7.18561 35.7647 6.82765 36.2116 6.5625C36.6586 6.29356 37.1946 6.15909 37.8196 6.15909C38.5999 6.15909 39.2382 6.40341 39.7344 6.89205C40.2306 7.37689 40.4787 8.13258 40.4787 9.15909V15H39.1378V9.15909C39.1378 8.51515 38.9616 8.05492 38.6094 7.77841C38.2571 7.50189 37.8423 7.36364 37.3651 7.36364C36.7514 7.36364 36.276 7.54924 35.9389 7.92045C35.6018 8.28788 35.4332 8.75379 35.4332 9.31818V15H34.0696V9.02273C34.0696 8.52652 33.9086 8.12689 33.5866 7.82386C33.2647 7.51705 32.8499 7.36364 32.3423 7.36364C31.9938 7.36364 31.6681 7.45644 31.3651 7.64205C31.0658 7.82765 30.8234 8.08523 30.6378 8.41477C30.456 8.74053 30.3651 9.11742 30.3651 9.54545V15H29.0241ZM46.6122 3.20455C47.0895 3.20833 47.5668 3.29924 48.044 3.47727C48.5213 3.6553 48.9569 3.95076 49.3509 4.36364C49.7448 4.77273 50.0611 5.33144 50.2997 6.03977C50.5384 6.74811 50.6577 7.63636 50.6577 8.70455C50.6577 9.73864 50.5592 10.6572 50.3622 11.4602C50.169 12.2595 49.8887 12.9337 49.5213 13.483C49.1577 14.0322 48.7145 14.4489 48.1918 14.733C47.6728 15.017 47.0857 15.1591 46.4304 15.1591C45.7789 15.1591 45.1974 15.0303 44.6861 14.7727C44.1785 14.5114 43.7618 14.1496 43.4361 13.6875C43.1141 13.2216 42.9077 12.6818 42.8168 12.0682H44.2031C44.3281 12.6023 44.5762 13.0436 44.9474 13.392C45.3224 13.7367 45.8168 13.9091 46.4304 13.9091C47.3281 13.9091 48.0365 13.517 48.5554 12.733C49.0781 11.9489 49.3395 10.8409 49.3395 9.40909H49.2486C49.0365 9.72727 48.7846 10.0019 48.4929 10.233C48.2012 10.464 47.8774 10.642 47.5213 10.767C47.1652 10.892 46.7865 10.9545 46.3849 10.9545C45.7183 10.9545 45.1065 10.7898 44.5497 10.4602C43.9967 10.1269 43.5535 9.67045 43.2202 9.09091C42.8906 8.50758 42.7259 7.84091 42.7259 7.09091C42.7259 6.37879 42.8849 5.72727 43.2031 5.13636C43.5251 4.54167 43.9759 4.06818 44.5554 3.71591C45.1387 3.36364 45.8243 3.19318 46.6122 3.20455ZM46.6122 4.45455C46.1349 4.45455 45.705 4.57386 45.3224 4.8125C44.9437 5.04735 44.6425 5.36553 44.419 5.76705C44.1993 6.16477 44.0895 6.60606 44.0895 7.09091C44.0895 7.57576 44.1955 8.01705 44.4077 8.41477C44.6236 8.80871 44.9171 9.12311 45.2884 9.35795C45.6634 9.58902 46.0895 9.70455 46.5668 9.70455C46.9266 9.70455 47.2618 9.63447 47.5724 9.49432C47.883 9.35038 48.1539 9.1553 48.3849 8.90909C48.6198 8.65909 48.8035 8.37689 48.9361 8.0625C49.0687 7.74432 49.1349 7.41288 49.1349 7.06818C49.1349 6.61364 49.0251 6.1875 48.8054 5.78977C48.5895 5.39205 48.2902 5.07008 47.9077 4.82386C47.5289 4.57765 47.0971 4.45455 46.6122 4.45455Z" fill="#F32851"/>
<path d="M43.5252 44.6195C43.8435 45.1626 43.8435 45.8374 43.5252 46.3805C42.6989 47.7909 41.7909 48.6989 40.3805 49.5252C39.8374 49.8435 39.1626 49.8435 38.6195 49.5252C37.2091 48.6989 36.3011 47.7909 35.4748 46.3805C35.1565 45.8374 35.1565 45.1626 35.4748 44.6195C36.3011 43.2091 37.2091 42.3011 38.6195 41.4748C39.1626 41.1565 39.8374 41.1565 40.3805 41.4748C41.7909 42.3011 42.6989 43.2091 43.5252 44.6195Z" fill="#F32851"/>
<path d="M26.5252 78.6195C26.8435 79.1626 26.8435 79.8374 26.5252 80.3805C25.6989 81.7909 24.7909 82.6989 23.3805 83.5252C22.8374 83.8435 22.1626 83.8435 21.6195 83.5252C20.2091 82.6989 19.3011 81.7909 18.4748 80.3805C18.1565 79.8374 18.1565 79.1626 18.4748 78.6195C19.3011 77.2091 20.2091 76.3011 21.6195 75.4748C22.1626 75.1565 22.8374 75.1565 23.3805 75.4748C24.7909 76.3011 25.6989 77.2091 26.5252 78.6195Z" fill="#F32851"/>
<path d="M8.52523 28.6195C8.84348 29.1626 8.84348 29.8374 8.52523 30.3805C7.69886 31.7909 6.79088 32.6989 5.38054 33.5252C4.83739 33.8435 4.16261 33.8435 3.61946 33.5252C2.20912 32.6989 1.30114 31.7909 0.474768 30.3805C0.15652 29.8374 0.15652 29.1626 0.474768 28.6195C1.30114 27.2091 2.20912 26.3011 3.61946 25.4748C4.16261 25.1565 4.83739 25.1565 5.38054 25.4748C6.79088 26.3011 7.69886 27.2091 8.52523 28.6195Z" fill="#F32851"/>
</svg>
