<svg width="60" height="106" viewBox="0 0 60 106" fill="none" xmlns="http://www.w3.org/2000/svg">
<rect x="4.5" y="21.5" width="51" height="84" rx="1.5" stroke="#535353"/>
<line x1="4" y1="37.4999" x2="56" y2="37.4999" stroke="#535353"/>
<line x1="4" y1="53.5" x2="56" y2="53.5" stroke="#535353"/>
<path d="M4 88H55" stroke="#535353"/>
<path d="M4 71H55.5" stroke="#535353"/>
<line x1="22.5" y1="21" x2="22.5" y2="106" stroke="#535353"/>
<path d="M39.5 21L39.5 106" stroke="#535353"/>
<path d="M6.83549 14V3.81818H12.9406V4.91193H8.06845V8.35227H12.4832V9.44602H8.06845V14H6.83549ZM18.6915 14L20.3619 3.81818H21.3563L19.6858 14H18.6915ZM14.058 11.1761L14.2171 10.1818H21.8137L21.6546 11.1761H14.058ZM15.1119 14L16.7824 3.81818H17.7767L16.1063 14H15.1119ZM14.6546 7.63636L14.8137 6.64205H22.4102L22.2512 7.63636H14.6546ZM29.1343 8.07386L28.0803 8.37216C28.0141 8.1965 27.9163 8.0258 27.787 7.86009C27.6611 7.69105 27.4887 7.55185 27.27 7.44247C27.0512 7.3331 26.7712 7.27841 26.4298 7.27841C25.9624 7.27841 25.573 7.38613 25.2615 7.60156C24.9532 7.81368 24.7991 8.08381 24.7991 8.41193C24.7991 8.7036 24.9052 8.93395 25.1173 9.10298C25.3294 9.27202 25.6608 9.41288 26.1116 9.52557L27.2451 9.80398C27.9279 9.9697 28.4366 10.2232 28.7714 10.5646C29.1061 10.9027 29.2735 11.3385 29.2735 11.8722C29.2735 12.3097 29.1476 12.7008 28.8957 13.0455C28.6471 13.3902 28.2991 13.6619 27.8517 13.8608C27.4042 14.0597 26.8838 14.1591 26.2906 14.1591C25.5117 14.1591 24.867 13.9901 24.3566 13.652C23.8462 13.3139 23.5231 12.8201 23.3872 12.1705L24.5008 11.892C24.6069 12.303 24.8074 12.6113 25.1024 12.8168C25.4007 13.0223 25.7901 13.125 26.2707 13.125C26.8176 13.125 27.2517 13.009 27.5732 12.777C27.8981 12.5417 28.0605 12.2599 28.0605 11.9318C28.0605 11.6667 27.9677 11.4446 27.782 11.2656C27.5964 11.0833 27.3114 10.9474 26.9269 10.858L25.6542 10.5597C24.9549 10.3939 24.4411 10.1371 24.113 9.78906C23.7882 9.43774 23.6258 8.99858 23.6258 8.47159C23.6258 8.04072 23.7468 7.65956 23.9887 7.32812C24.234 6.99669 24.5671 6.73651 24.988 6.54758C25.4123 6.35866 25.8928 6.2642 26.4298 6.2642C27.1855 6.2642 27.7787 6.42992 28.2096 6.76136C28.6438 7.0928 28.952 7.5303 29.1343 8.07386ZM35.8522 10.8778V6.36364H37.0255V14H35.8522V12.7074H35.7726C35.5937 13.0952 35.3153 13.425 34.9374 13.6967C34.5596 13.9652 34.0823 14.0994 33.5056 14.0994C33.0283 14.0994 32.6041 13.995 32.2329 13.7862C31.8617 13.5741 31.57 13.2559 31.3579 12.8317C31.1457 12.4041 31.0397 11.8655 31.0397 11.2159V6.36364H32.213V11.1364C32.213 11.6932 32.3688 12.1373 32.6803 12.4688C32.9952 12.8002 33.3962 12.9659 33.8834 12.9659C34.1751 12.9659 34.4717 12.8913 34.7733 12.7422C35.0783 12.593 35.3335 12.3643 35.539 12.0561C35.7478 11.7479 35.8522 11.3551 35.8522 10.8778ZM44.5835 8.07386L43.5296 8.37216C43.4633 8.1965 43.3655 8.0258 43.2362 7.86009C43.1103 7.69105 42.9379 7.55185 42.7192 7.44247C42.5004 7.3331 42.2204 7.27841 41.879 7.27841C41.4117 7.27841 41.0222 7.38613 40.7107 7.60156C40.4024 7.81368 40.2483 8.08381 40.2483 8.41193C40.2483 8.7036 40.3544 8.93395 40.5665 9.10298C40.7786 9.27202 41.1101 9.41288 41.5608 9.52557L42.6943 9.80398C43.3771 9.9697 43.8859 10.2232 44.2206 10.5646C44.5554 10.9027 44.7227 11.3385 44.7227 11.8722C44.7227 12.3097 44.5968 12.7008 44.3449 13.0455C44.0963 13.3902 43.7483 13.6619 43.3009 13.8608C42.8534 14.0597 42.3331 14.1591 41.7398 14.1591C40.9609 14.1591 40.3163 13.9901 39.8058 13.652C39.2954 13.3139 38.9723 12.8201 38.8364 12.1705L39.95 11.892C40.0561 12.303 40.2566 12.6113 40.5516 12.8168C40.8499 13.0223 41.2393 13.125 41.7199 13.125C42.2668 13.125 42.701 13.009 43.0225 12.777C43.3473 12.5417 43.5097 12.2599 43.5097 11.9318C43.5097 11.6667 43.4169 11.4446 43.2313 11.2656C43.0457 11.0833 42.7606 10.9474 42.3762 10.858L41.1034 10.5597C40.4041 10.3939 39.8904 10.1371 39.5622 9.78906C39.2374 9.43774 39.075 8.99858 39.075 8.47159C39.075 8.04072 39.196 7.65956 39.4379 7.32812C39.6832 6.99669 40.0163 6.73651 40.4372 6.54758C40.8615 6.35866 41.3421 6.2642 41.879 6.2642C42.6347 6.2642 43.228 6.42992 43.6588 6.76136C44.093 7.0928 44.4012 7.5303 44.5835 8.07386ZM46.2304 11.9119V10.8977L50.7048 3.81818H51.4406V5.3892H50.9434L47.5628 10.7386V10.8182H53.5883V11.9119H46.2304ZM51.023 14V11.6037V11.1314V3.81818H52.1963V14H51.023Z" fill="#F32851"/>
<path d="M26.5252 28.6195C26.8435 29.1626 26.8435 29.8374 26.5252 30.3805C25.6989 31.7909 24.7909 32.6989 23.3805 33.5252C22.8374 33.8435 22.1626 33.8435 21.6195 33.5252C20.2091 32.6989 19.3011 31.7909 18.4748 30.3805C18.1565 29.8374 18.1565 29.1626 18.4748 28.6195C19.3011 27.2091 20.2091 26.3011 21.6195 25.4748C22.1626 25.1565 22.8374 25.1565 23.3805 25.4748C24.7909 26.3011 25.6989 27.2091 26.5252 28.6195Z" fill="#F32851"/>
<path d="M59.5252 44.6195C59.8435 45.1626 59.8435 45.8374 59.5252 46.3805C58.6989 47.7909 57.7909 48.6989 56.3805 49.5252C55.8374 49.8435 55.1626 49.8435 54.6195 49.5252C53.2091 48.6989 52.3011 47.7909 51.4748 46.3805C51.1565 45.8374 51.1565 45.1626 51.4748 44.6195C52.3011 43.2091 53.2091 42.3011 54.6195 41.4748C55.1626 41.1565 55.8374 41.1565 56.3805 41.4748C57.7909 42.3011 58.6989 43.2091 59.5252 44.6195Z" fill="#F32851"/>
<path d="M43.5252 44.6195C43.8435 45.1626 43.8435 45.8374 43.5252 46.3805C42.6989 47.7909 41.7909 48.6989 40.3805 49.5252C39.8374 49.8435 39.1626 49.8435 38.6195 49.5252C37.2091 48.6989 36.3011 47.7909 35.4748 46.3805C35.1565 45.8374 35.1565 45.1626 35.4748 44.6195C36.3011 43.2091 37.2091 42.3011 38.6195 41.4748C39.1626 41.1565 39.8374 41.1565 40.3805 41.4748C41.7909 42.3011 42.6989 43.2091 43.5252 44.6195Z" fill="#F32851"/>
<path d="M8.52523 78.6195C8.84348 79.1626 8.84348 79.8374 8.52523 80.3805C7.69886 81.7909 6.79088 82.6989 5.38054 83.5252C4.83739 83.8435 4.16261 83.8435 3.61946 83.5252C2.20912 82.6989 1.30114 81.7909 0.474768 80.3805C0.15652 79.8374 0.15652 79.1626 0.474768 78.6195C1.30114 77.2091 2.20912 76.3011 3.61946 75.4748C4.16261 75.1565 4.83739 75.1565 5.38054 75.4748C6.79088 76.3011 7.69886 77.2091 8.52523 78.6195Z" fill="#F32851"/>
</svg>
