<svg width="56" height="106" viewBox="0 0 56 106" fill="none" xmlns="http://www.w3.org/2000/svg">
<rect x="0.5" y="21.5" width="51" height="84" rx="1.5" stroke="#535353"/>
<line y1="37.4999" x2="52" y2="37.4999" stroke="#535353"/>
<line y1="53.5" x2="52" y2="53.5" stroke="#535353"/>
<path d="M0 88H51" stroke="#535353"/>
<path d="M0 71H51.5" stroke="#535353"/>
<line x1="18.5" y1="21" x2="18.5" y2="106" stroke="#535353"/>
<path d="M35.5 21L35.5 106" stroke="#535353"/>
<path d="M29.4183 7C29.2933 6.61742 29.1286 6.27462 28.924 5.97159C28.7232 5.66477 28.4827 5.40341 28.2024 5.1875C27.9259 4.97159 27.6115 4.80682 27.2592 4.69318C26.907 4.57955 26.5206 4.52273 26.1001 4.52273C25.4107 4.52273 24.7839 4.70076 24.2195 5.05682C23.6551 5.41288 23.2062 5.9375 22.8729 6.63068C22.5395 7.32386 22.3729 8.17424 22.3729 9.18182C22.3729 10.1894 22.5414 11.0398 22.8786 11.733C23.2157 12.4261 23.6721 12.9508 24.2479 13.3068C24.8236 13.6629 25.4714 13.8409 26.1911 13.8409C26.8577 13.8409 27.4448 13.6989 27.9524 13.4148C28.4638 13.1269 28.8615 12.7216 29.1456 12.1989C29.4335 11.6723 29.5774 11.053 29.5774 10.3409L30.0092 10.4318H26.5092V9.18182H30.9411V10.4318C30.9411 11.3902 30.7365 12.2235 30.3274 12.9318C29.9221 13.6402 29.3615 14.1894 28.6456 14.5795C27.9335 14.9659 27.1153 15.1591 26.1911 15.1591C25.1607 15.1591 24.2554 14.9167 23.4751 14.4318C22.6986 13.947 22.0926 13.2576 21.657 12.3636C21.2251 11.4697 21.0092 10.4091 21.0092 9.18182C21.0092 8.26136 21.1323 7.43371 21.3786 6.69886C21.6286 5.96023 21.9808 5.33144 22.4354 4.8125C22.8899 4.29356 23.4278 3.89583 24.049 3.61932C24.6702 3.3428 25.3539 3.20455 26.1001 3.20455C26.7138 3.20455 27.2857 3.29735 27.8161 3.48295C28.3501 3.66477 28.8255 3.92424 29.2422 4.26136C29.6626 4.5947 30.013 4.99432 30.2933 5.46023C30.5736 5.92235 30.7668 6.43561 30.8729 7H29.4183Z" fill="#F32851"/>
<path d="M22.5252 44.6195C22.8435 45.1626 22.8435 45.8374 22.5252 46.3805C21.6989 47.7909 20.7909 48.6989 19.3805 49.5252C18.8374 49.8435 18.1626 49.8435 17.6195 49.5252C16.2091 48.6989 15.3011 47.7909 14.4748 46.3805C14.1565 45.8374 14.1565 45.1626 14.4748 44.6195C15.3011 43.2091 16.2091 42.3011 17.6195 41.4748C18.1626 41.1565 18.8374 41.1565 19.3805 41.4748C20.7909 42.3011 21.6989 43.2091 22.5252 44.6195Z" fill="#F32851"/>
<path d="M39.5252 61.6195C39.8435 62.1626 39.8435 62.8374 39.5252 63.3805C38.6989 64.7909 37.7909 65.6989 36.3805 66.5252C35.8374 66.8435 35.1626 66.8435 34.6195 66.5252C33.2091 65.6989 32.3011 64.7909 31.4748 63.3805C31.1565 62.8374 31.1565 62.1626 31.4748 61.6195C32.3011 60.2091 33.2091 59.3011 34.6195 58.4748C35.1626 58.1565 35.8374 58.1565 36.3805 58.4748C37.7909 59.3011 38.6989 60.2091 39.5252 61.6195Z" fill="#F32851"/>
<path d="M55.5252 44.6195C55.8435 45.1626 55.8435 45.8374 55.5252 46.3805C54.6989 47.7909 53.7909 48.6989 52.3805 49.5252C51.8374 49.8435 51.1626 49.8435 50.6195 49.5252C49.2091 48.6989 48.3011 47.7909 47.4748 46.3805C47.1565 45.8374 47.1565 45.1626 47.4748 44.6195C48.3011 43.2091 49.2091 42.3011 50.6195 41.4748C51.1626 41.1565 51.8374 41.1565 52.3805 41.4748C53.7909 42.3011 54.6989 43.2091 55.5252 44.6195Z" fill="#F32851"/>
</svg>
