<svg width="56" height="106" viewBox="0 0 56 106" fill="none" xmlns="http://www.w3.org/2000/svg">
<rect x="0.5" y="21.5" width="51" height="84" rx="1.5" stroke="#535353"/>
<line y1="37.4999" x2="52" y2="37.4999" stroke="#535353"/>
<line y1="53.5" x2="52" y2="53.5" stroke="#535353"/>
<path d="M0 88H51" stroke="#535353"/>
<path d="M0 71H51.5" stroke="#535353"/>
<line x1="18.5" y1="21" x2="18.5" y2="106" stroke="#535353"/>
<path d="M35.5 21L35.5 106" stroke="#535353"/>
<path d="M24.5511 7C24.4261 6.61742 24.2614 6.27462 24.0568 5.97159C23.8561 5.66477 23.6155 5.40341 23.3352 5.1875C23.0587 4.97159 22.7443 4.80682 22.392 4.69318C22.0398 4.57955 21.6534 4.52273 21.233 4.52273C20.5436 4.52273 19.9167 4.70076 19.3523 5.05682C18.7879 5.41288 18.339 5.9375 18.0057 6.63068C17.6723 7.32386 17.5057 8.17424 17.5057 9.18182C17.5057 10.1894 17.6742 11.0398 18.0114 11.733C18.3485 12.4261 18.8049 12.9508 19.3807 13.3068C19.9564 13.6629 20.6042 13.8409 21.3239 13.8409C21.9905 13.8409 22.5777 13.6989 23.0852 13.4148C23.5966 13.1269 23.9943 12.7216 24.2784 12.1989C24.5663 11.6723 24.7102 11.053 24.7102 10.3409L25.142 10.4318H21.642V9.18182H26.0739V10.4318C26.0739 11.3902 25.8693 12.2235 25.4602 12.9318C25.0549 13.6402 24.4943 14.1894 23.7784 14.5795C23.0663 14.9659 22.2481 15.1591 21.3239 15.1591C20.2936 15.1591 19.3883 14.9167 18.608 14.4318C17.8314 13.947 17.2254 13.2576 16.7898 12.3636C16.358 11.4697 16.142 10.4091 16.142 9.18182C16.142 8.26136 16.2652 7.43371 16.5114 6.69886C16.7614 5.96023 17.1136 5.33144 17.5682 4.8125C18.0227 4.29356 18.5606 3.89583 19.1818 3.61932C19.803 3.3428 20.4867 3.20455 21.233 3.20455C21.8466 3.20455 22.4186 3.29735 22.9489 3.48295C23.483 3.66477 23.9583 3.92424 24.375 4.26136C24.7955 4.5947 25.1458 4.99432 25.4261 5.46023C25.7064 5.92235 25.8996 6.43561 26.0057 7H24.5511ZM31.919 15.1591C31.2524 15.1591 30.652 15.0265 30.1179 14.7614C29.5838 14.4962 29.1558 14.1326 28.8338 13.6705C28.5118 13.2083 28.3357 12.6818 28.3054 12.0909H29.669C29.7221 12.6174 29.9607 13.053 30.3849 13.3977C30.813 13.7386 31.3243 13.9091 31.919 13.9091C32.3963 13.9091 32.8205 13.7973 33.1918 13.5739C33.5668 13.3504 33.8603 13.0436 34.0724 12.6534C34.2884 12.2595 34.3963 11.8144 34.3963 11.3182C34.3963 10.8106 34.2846 10.358 34.0611 9.96023C33.8414 9.55871 33.5384 9.24242 33.152 9.01136C32.7656 8.7803 32.3243 8.66288 31.8281 8.65909C31.4721 8.6553 31.1065 8.71023 30.7315 8.82386C30.3565 8.93371 30.0478 9.07576 29.8054 9.25L28.4872 9.09091L29.1918 3.36364H35.2372V4.61364H30.3736L29.9645 8.04545H30.0327C30.2713 7.85606 30.5705 7.69886 30.9304 7.57386C31.2902 7.44886 31.6652 7.38636 32.0554 7.38636C32.7675 7.38636 33.402 7.55682 33.9588 7.89773C34.5194 8.23485 34.9588 8.69697 35.277 9.28409C35.599 9.87121 35.7599 10.5417 35.7599 11.2955C35.7599 12.0379 35.5933 12.7008 35.2599 13.2841C34.9304 13.8636 34.4759 14.322 33.8963 14.6591C33.3168 14.9924 32.6577 15.1591 31.919 15.1591Z" fill="#F32851"/>
<path d="M39.5252 61.6195C39.8435 62.1626 39.8435 62.8374 39.5252 63.3805C38.6989 64.7909 37.7909 65.6989 36.3805 66.5252C35.8374 66.8435 35.1626 66.8435 34.6195 66.5252C33.2091 65.6989 32.3011 64.7909 31.4748 63.3805C31.1565 62.8374 31.1565 62.1626 31.4748 61.6195C32.3011 60.2091 33.2091 59.3011 34.6195 58.4748C35.1626 58.1565 35.8374 58.1565 36.3805 58.4748C37.7909 59.3011 38.6989 60.2091 39.5252 61.6195Z" fill="#F32851"/>
<path d="M55.5252 96.6195C55.8435 97.1626 55.8435 97.8374 55.5252 98.3805C54.6989 99.7909 53.7909 100.699 52.3805 101.525C51.8374 101.843 51.1626 101.843 50.6195 101.525C49.2091 100.699 48.3011 99.7909 47.4748 98.3805C47.1565 97.8374 47.1565 97.1626 47.4748 96.6195C48.3011 95.2091 49.2091 94.3011 50.6195 93.4748C51.1626 93.1565 51.8374 93.1565 52.3805 93.4748C53.7909 94.3011 54.6989 95.2091 55.5252 96.6195Z" fill="#F32851"/>
<path d="M22.5252 44.6195C22.8435 45.1626 22.8435 45.8374 22.5252 46.3805C21.6989 47.7909 20.7909 48.6989 19.3805 49.5252C18.8374 49.8435 18.1626 49.8435 17.6195 49.5252C16.2091 48.6989 15.3011 47.7909 14.4748 46.3805C14.1565 45.8374 14.1565 45.1626 14.4748 44.6195C15.3011 43.2091 16.2091 42.3011 17.6195 41.4748C18.1626 41.1565 18.8374 41.1565 19.3805 41.4748C20.7909 42.3011 21.6989 43.2091 22.5252 44.6195Z" fill="#F32851"/>
</svg>
