<svg width="56" height="106" viewBox="0 0 56 106" fill="none" xmlns="http://www.w3.org/2000/svg">
<rect x="0.5" y="21.5" width="51" height="84" rx="1.5" stroke="#535353"/>
<line y1="37.4999" x2="52" y2="37.4999" stroke="#535353"/>
<line y1="53.5" x2="52" y2="53.5" stroke="#535353"/>
<path d="M0 88H51" stroke="#535353"/>
<path d="M0 71H51.5" stroke="#535353"/>
<line x1="18.5" y1="21" x2="18.5" y2="106" stroke="#535353"/>
<path d="M35.5 21L35.5 106" stroke="#535353"/>
<path d="M24.848 7C24.723 6.61742 24.5582 6.27462 24.3537 5.97159C24.1529 5.66477 23.9124 5.40341 23.6321 5.1875C23.3556 4.97159 23.0412 4.80682 22.6889 4.69318C22.3366 4.57955 21.9503 4.52273 21.5298 4.52273C20.8404 4.52273 20.2135 4.70076 19.6491 5.05682C19.0848 5.41288 18.6359 5.9375 18.3026 6.63068C17.9692 7.32386 17.8026 8.17424 17.8026 9.18182C17.8026 10.1894 17.9711 11.0398 18.3082 11.733C18.6454 12.4261 19.1018 12.9508 19.6776 13.3068C20.2533 13.6629 20.901 13.8409 21.6207 13.8409C22.2874 13.8409 22.8745 13.6989 23.3821 13.4148C23.8935 13.1269 24.2912 12.7216 24.5753 12.1989C24.8632 11.6723 25.0071 11.053 25.0071 10.3409L25.4389 10.4318H21.9389V9.18182H26.3707V10.4318C26.3707 11.3902 26.1662 12.2235 25.7571 12.9318C25.3518 13.6402 24.7912 14.1894 24.0753 14.5795C23.3632 14.9659 22.545 15.1591 21.6207 15.1591C20.5904 15.1591 19.6851 14.9167 18.9048 14.4318C18.1283 13.947 17.5223 13.2576 17.0866 12.3636C16.6548 11.4697 16.4389 10.4091 16.4389 9.18182C16.4389 8.26136 16.562 7.43371 16.8082 6.69886C17.0582 5.96023 17.4105 5.33144 17.8651 4.8125C18.3196 4.29356 18.8575 3.89583 19.4787 3.61932C20.0999 3.3428 20.7836 3.20455 21.5298 3.20455C22.1435 3.20455 22.7154 3.29735 23.2457 3.48295C23.7798 3.66477 24.2552 3.92424 24.6719 4.26136C25.0923 4.5947 25.4427 4.99432 25.723 5.46023C26.0033 5.92235 26.1965 6.43561 26.3026 7H24.848ZM28.9432 15L34.1477 4.70455V4.61364H28.1477V3.36364H35.6023V4.68182L30.4205 15H28.9432Z" fill="#F32851"/>
<path d="M55.5252 44.6195C55.8435 45.1626 55.8435 45.8374 55.5252 46.3805C54.6989 47.7909 53.7909 48.6989 52.3805 49.5252C51.8374 49.8435 51.1626 49.8435 50.6195 49.5252C49.2091 48.6989 48.3011 47.7909 47.4748 46.3805C47.1565 45.8374 47.1565 45.1626 47.4748 44.6195C48.3011 43.2091 49.2091 42.3011 50.6195 41.4748C51.1626 41.1565 51.8374 41.1565 52.3805 41.4748C53.7909 42.3011 54.6989 43.2091 55.5252 44.6195Z" fill="#F32851"/>
<path d="M39.5252 28.6195C39.8435 29.1626 39.8435 29.8374 39.5252 30.3805C38.6989 31.7909 37.7909 32.6989 36.3805 33.5252C35.8374 33.8435 35.1626 33.8435 34.6195 33.5252C33.2091 32.6989 32.3011 31.7909 31.4748 30.3805C31.1565 29.8374 31.1565 29.1626 31.4748 28.6195C32.3011 27.2091 33.2091 26.3011 34.6195 25.4748C35.1626 25.1565 35.8374 25.1565 36.3805 25.4748C37.7909 26.3011 38.6989 27.2091 39.5252 28.6195Z" fill="#F32851"/>
<path d="M22.5252 44.6195C22.8435 45.1626 22.8435 45.8374 22.5252 46.3805C21.6989 47.7909 20.7909 48.6989 19.3805 49.5252C18.8374 49.8435 18.1626 49.8435 17.6195 49.5252C16.2091 48.6989 15.3011 47.7909 14.4748 46.3805C14.1565 45.8374 14.1565 45.1626 14.4748 44.6195C15.3011 43.2091 16.2091 42.3011 17.6195 41.4748C18.1626 41.1565 18.8374 41.1565 19.3805 41.4748C20.7909 42.3011 21.6989 43.2091 22.5252 44.6195Z" fill="#F32851"/>
</svg>
