<svg width="56" height="106" viewBox="0 0 56 106" fill="none" xmlns="http://www.w3.org/2000/svg">
<rect x="0.5" y="21.5" width="51" height="84" rx="1.5" stroke="#535353"/>
<line y1="37.4999" x2="52" y2="37.4999" stroke="#535353"/>
<line y1="53.5" x2="52" y2="53.5" stroke="#535353"/>
<path d="M0 88H51" stroke="#535353"/>
<path d="M0 71H51.5" stroke="#535353"/>
<line x1="18.5" y1="21" x2="18.5" y2="106" stroke="#535353"/>
<path d="M35.5 21L35.5 106" stroke="#535353"/>
<path d="M24.4261 7C24.3011 6.61742 24.1364 6.27462 23.9318 5.97159C23.7311 5.66477 23.4905 5.40341 23.2102 5.1875C22.9337 4.97159 22.6193 4.80682 22.267 4.69318C21.9148 4.57955 21.5284 4.52273 21.108 4.52273C20.4186 4.52273 19.7917 4.70076 19.2273 5.05682C18.6629 5.41288 18.214 5.9375 17.8807 6.63068C17.5473 7.32386 17.3807 8.17424 17.3807 9.18182C17.3807 10.1894 17.5492 11.0398 17.8864 11.733C18.2235 12.4261 18.6799 12.9508 19.2557 13.3068C19.8314 13.6629 20.4792 13.8409 21.1989 13.8409C21.8655 13.8409 22.4527 13.6989 22.9602 13.4148C23.4716 13.1269 23.8693 12.7216 24.1534 12.1989C24.4413 11.6723 24.5852 11.053 24.5852 10.3409L25.017 10.4318H21.517V9.18182H25.9489V10.4318C25.9489 11.3902 25.7443 12.2235 25.3352 12.9318C24.9299 13.6402 24.3693 14.1894 23.6534 14.5795C22.9413 14.9659 22.1231 15.1591 21.1989 15.1591C20.1686 15.1591 19.2633 14.9167 18.483 14.4318C17.7064 13.947 17.1004 13.2576 16.6648 12.3636C16.233 11.4697 16.017 10.4091 16.017 9.18182C16.017 8.26136 16.1402 7.43371 16.3864 6.69886C16.6364 5.96023 16.9886 5.33144 17.4432 4.8125C17.8977 4.29356 18.4356 3.89583 19.0568 3.61932C19.678 3.3428 20.3617 3.20455 21.108 3.20455C21.7216 3.20455 22.2936 3.29735 22.8239 3.48295C23.358 3.66477 23.8333 3.92424 24.25 4.26136C24.6705 4.5947 25.0208 4.99432 25.3011 5.46023C25.5814 5.92235 25.7746 6.43561 25.8807 7H24.4261ZM31.8622 3.20455C32.3395 3.20833 32.8168 3.29924 33.294 3.47727C33.7713 3.6553 34.2069 3.95076 34.6009 4.36364C34.9948 4.77273 35.3111 5.33144 35.5497 6.03977C35.7884 6.74811 35.9077 7.63636 35.9077 8.70455C35.9077 9.73864 35.8092 10.6572 35.6122 11.4602C35.419 12.2595 35.1387 12.9337 34.7713 13.483C34.4077 14.0322 33.9645 14.4489 33.4418 14.733C32.9228 15.017 32.3357 15.1591 31.6804 15.1591C31.0289 15.1591 30.4474 15.0303 29.9361 14.7727C29.4285 14.5114 29.0118 14.1496 28.6861 13.6875C28.3641 13.2216 28.1577 12.6818 28.0668 12.0682H29.4531C29.5781 12.6023 29.8262 13.0436 30.1974 13.392C30.5724 13.7367 31.0668 13.9091 31.6804 13.9091C32.5781 13.9091 33.2865 13.517 33.8054 12.733C34.3281 11.9489 34.5895 10.8409 34.5895 9.40909H34.4986C34.2865 9.72727 34.0346 10.0019 33.7429 10.233C33.4512 10.464 33.1274 10.642 32.7713 10.767C32.4152 10.892 32.0365 10.9545 31.6349 10.9545C30.9683 10.9545 30.3565 10.7898 29.7997 10.4602C29.2467 10.1269 28.8035 9.67045 28.4702 9.09091C28.1406 8.50758 27.9759 7.84091 27.9759 7.09091C27.9759 6.37879 28.1349 5.72727 28.4531 5.13636C28.7751 4.54167 29.2259 4.06818 29.8054 3.71591C30.3887 3.36364 31.0743 3.19318 31.8622 3.20455ZM31.8622 4.45455C31.3849 4.45455 30.955 4.57386 30.5724 4.8125C30.1937 5.04735 29.8925 5.36553 29.669 5.76705C29.4493 6.16477 29.3395 6.60606 29.3395 7.09091C29.3395 7.57576 29.4455 8.01705 29.6577 8.41477C29.8736 8.80871 30.1671 9.12311 30.5384 9.35795C30.9134 9.58902 31.3395 9.70455 31.8168 9.70455C32.1766 9.70455 32.5118 9.63447 32.8224 9.49432C33.133 9.35038 33.4039 9.1553 33.6349 8.90909C33.8698 8.65909 34.0535 8.37689 34.1861 8.0625C34.3187 7.74432 34.3849 7.41288 34.3849 7.06818C34.3849 6.61364 34.2751 6.1875 34.0554 5.78977C33.8395 5.39205 33.5402 5.07008 33.1577 4.82386C32.7789 4.57765 32.3471 4.45455 31.8622 4.45455Z" fill="#F32851"/>
<path d="M55.5252 44.6195C55.8435 45.1626 55.8435 45.8374 55.5252 46.3805C54.6989 47.7909 53.7909 48.6989 52.3805 49.5252C51.8374 49.8435 51.1626 49.8435 50.6195 49.5252C49.2091 48.6989 48.3011 47.7909 47.4748 46.3805C47.1565 45.8374 47.1565 45.1626 47.4748 44.6195C48.3011 43.2091 49.2091 42.3011 50.6195 41.4748C51.1626 41.1565 51.8374 41.1565 52.3805 41.4748C53.7909 42.3011 54.6989 43.2091 55.5252 44.6195Z" fill="#F32851"/>
<path d="M22.5252 95.6195C22.8435 96.1626 22.8435 96.8374 22.5252 97.3805C21.6989 98.7909 20.7909 99.6989 19.3805 100.525C18.8374 100.843 18.1626 100.843 17.6195 100.525C16.2091 99.6989 15.3011 98.7909 14.4748 97.3805C14.1565 96.8374 14.1565 96.1626 14.4748 95.6195C15.3011 94.2091 16.2091 93.3011 17.6195 92.4748C18.1626 92.1565 18.8374 92.1565 19.3805 92.4748C20.7909 93.3011 21.6989 94.2091 22.5252 95.6195Z" fill="#F32851"/>
<path d="M39.5252 95.6195C39.8435 96.1626 39.8435 96.8374 39.5252 97.3805C38.6989 98.7909 37.7909 99.6989 36.3805 100.525C35.8374 100.843 35.1626 100.843 34.6195 100.525C33.2091 99.6989 32.3011 98.7909 31.4748 97.3805C31.1565 96.8374 31.1565 96.1626 31.4748 95.6195C32.3011 94.2091 33.2091 93.3011 34.6195 92.4748C35.1626 92.1565 35.8374 92.1565 36.3805 92.4748C37.7909 93.3011 38.6989 94.2091 39.5252 95.6195Z" fill="#F32851"/>
</svg>
