<svg width="56" height="106" viewBox="0 0 56 106" fill="none" xmlns="http://www.w3.org/2000/svg">
<rect x="0.5" y="21.5" width="51" height="84" rx="1.5" stroke="#535353"/>
<line y1="37.4999" x2="52" y2="37.4999" stroke="#535353"/>
<line y1="53.5" x2="52" y2="53.5" stroke="#535353"/>
<path d="M0 88H51" stroke="#535353"/>
<path d="M0 71H51.5" stroke="#535353"/>
<line x1="18.5" y1="21" x2="18.5" y2="106" stroke="#535353"/>
<path d="M35.5 21L35.5 106" stroke="#535353"/>
<path d="M22.4652 7C22.3402 6.61742 22.1754 6.27462 21.9709 5.97159C21.7701 5.66477 21.5296 5.40341 21.2493 5.1875C20.9728 4.97159 20.6584 4.80682 20.3061 4.69318C19.9538 4.57955 19.5675 4.52273 19.147 4.52273C18.4576 4.52273 17.8307 4.70076 17.2663 5.05682C16.7019 5.41288 16.2531 5.9375 15.9197 6.63068C15.5864 7.32386 15.4197 8.17424 15.4197 9.18182C15.4197 10.1894 15.5883 11.0398 15.9254 11.733C16.2625 12.4261 16.719 12.9508 17.2947 13.3068C17.8705 13.6629 18.5182 13.8409 19.2379 13.8409C19.9046 13.8409 20.4917 13.6989 20.9993 13.4148C21.5107 13.1269 21.9084 12.7216 22.1925 12.1989C22.4804 11.6723 22.6243 11.053 22.6243 10.3409L23.0561 10.4318H19.5561V9.18182H23.9879V10.4318C23.9879 11.3902 23.7834 12.2235 23.3743 12.9318C22.969 13.6402 22.4084 14.1894 21.6925 14.5795C20.9804 14.9659 20.1622 15.1591 19.2379 15.1591C18.2076 15.1591 17.3023 14.9167 16.522 14.4318C15.7455 13.947 15.1394 13.2576 14.7038 12.3636C14.272 11.4697 14.0561 10.4091 14.0561 9.18182C14.0561 8.26136 14.1792 7.43371 14.4254 6.69886C14.6754 5.96023 15.0277 5.33144 15.4822 4.8125C15.9368 4.29356 16.4747 3.89583 17.0959 3.61932C17.7171 3.3428 18.4008 3.20455 19.147 3.20455C19.7607 3.20455 20.3326 3.29735 20.8629 3.48295C21.397 3.66477 21.8724 3.92424 22.2891 4.26136C22.7095 4.5947 23.0599 4.99432 23.3402 5.46023C23.6205 5.92235 23.8137 6.43561 23.9197 7H22.4652ZM26.2195 15V6.27273H27.5149V7.63636H27.6286C27.8104 7.17045 28.1039 6.80871 28.5092 6.55114C28.9145 6.28977 29.4013 6.15909 29.9695 6.15909C30.5452 6.15909 31.0244 6.28977 31.407 6.55114C31.7933 6.80871 32.0945 7.17045 32.3104 7.63636H32.4013C32.6248 7.18561 32.96 6.82765 33.407 6.5625C33.8539 6.29356 34.3899 6.15909 35.0149 6.15909C35.7952 6.15909 36.4335 6.40341 36.9297 6.89205C37.4259 7.37689 37.674 8.13258 37.674 9.15909V15H36.3331V9.15909C36.3331 8.51515 36.157 8.05492 35.8047 7.77841C35.4524 7.50189 35.0376 7.36364 34.5604 7.36364C33.9467 7.36364 33.4714 7.54924 33.1342 7.92045C32.7971 8.28788 32.6286 8.75379 32.6286 9.31818V15H31.2649V9.02273C31.2649 8.52652 31.1039 8.12689 30.782 7.82386C30.46 7.51705 30.0452 7.36364 29.5376 7.36364C29.1892 7.36364 28.8634 7.45644 28.5604 7.64205C28.2611 7.82765 28.0187 8.08523 27.8331 8.41477C27.6513 8.74053 27.5604 9.11742 27.5604 9.54545V15H26.2195Z" fill="#F32851"/>
<path d="M55.5252 28.6195C55.8435 29.1626 55.8435 29.8374 55.5252 30.3805C54.6989 31.7909 53.7909 32.6989 52.3805 33.5252C51.8374 33.8435 51.1626 33.8435 50.6195 33.5252C49.2091 32.6989 48.3011 31.7909 47.4748 30.3805C47.1565 29.8374 47.1565 29.1626 47.4748 28.6195C48.3011 27.2091 49.2091 26.3011 50.6195 25.4748C51.1626 25.1565 51.8374 25.1565 52.3805 25.4748C53.7909 26.3011 54.6989 27.2091 55.5252 28.6195Z" fill="#F32851"/>
<path d="M39.5252 61.6195C39.8435 62.1626 39.8435 62.8374 39.5252 63.3805C38.6989 64.7909 37.7909 65.6989 36.3805 66.5252C35.8374 66.8435 35.1626 66.8435 34.6195 66.5252C33.2091 65.6989 32.3011 64.7909 31.4748 63.3805C31.1565 62.8374 31.1565 62.1626 31.4748 61.6195C32.3011 60.2091 33.2091 59.3011 34.6195 58.4748C35.1626 58.1565 35.8374 58.1565 36.3805 58.4748C37.7909 59.3011 38.6989 60.2091 39.5252 61.6195Z" fill="#F32851"/>
<path d="M22.5252 44.6195C22.8435 45.1626 22.8435 45.8374 22.5252 46.3805C21.6989 47.7909 20.7909 48.6989 19.3805 49.5252C18.8374 49.8435 18.1626 49.8435 17.6195 49.5252C16.2091 48.6989 15.3011 47.7909 14.4748 46.3805C14.1565 45.8374 14.1565 45.1626 14.4748 44.6195C15.3011 43.2091 16.2091 42.3011 17.6195 41.4748C18.1626 41.1565 18.8374 41.1565 19.3805 41.4748C20.7909 42.3011 21.6989 43.2091 22.5252 44.6195Z" fill="#F32851"/>
</svg>
