<svg width="56" height="106" viewBox="0 0 56 106" fill="none" xmlns="http://www.w3.org/2000/svg">
<rect x="0.5" y="21.5" width="51" height="84" rx="1.5" stroke="#535353"/>
<line y1="37.4999" x2="52" y2="37.4999" stroke="#535353"/>
<line y1="53.5" x2="52" y2="53.5" stroke="#535353"/>
<path d="M0 88H51" stroke="#535353"/>
<path d="M0 71H51.5" stroke="#535353"/>
<line x1="18.5" y1="21" x2="18.5" y2="106" stroke="#535353"/>
<path d="M35.5 21L35.5 106" stroke="#535353"/>
<path d="M17.473 7C17.348 6.61742 17.1832 6.27462 16.9787 5.97159C16.7779 5.66477 16.5374 5.40341 16.2571 5.1875C15.9806 4.97159 15.6662 4.80682 15.3139 4.69318C14.9616 4.57955 14.5753 4.52273 14.1548 4.52273C13.4654 4.52273 12.8385 4.70076 12.2741 5.05682C11.7098 5.41288 11.2609 5.9375 10.9276 6.63068C10.5942 7.32386 10.4276 8.17424 10.4276 9.18182C10.4276 10.1894 10.5961 11.0398 10.9332 11.733C11.2704 12.4261 11.7268 12.9508 12.3026 13.3068C12.8783 13.6629 13.526 13.8409 14.2457 13.8409C14.9124 13.8409 15.4995 13.6989 16.0071 13.4148C16.5185 13.1269 16.9162 12.7216 17.2003 12.1989C17.4882 11.6723 17.6321 11.053 17.6321 10.3409L18.0639 10.4318H14.5639V9.18182H18.9957V10.4318C18.9957 11.3902 18.7912 12.2235 18.3821 12.9318C17.9768 13.6402 17.4162 14.1894 16.7003 14.5795C15.9882 14.9659 15.17 15.1591 14.2457 15.1591C13.2154 15.1591 12.3101 14.9167 11.5298 14.4318C10.7533 13.947 10.1473 13.2576 9.71165 12.3636C9.27983 11.4697 9.06392 10.4091 9.06392 9.18182C9.06392 8.26136 9.18703 7.43371 9.43324 6.69886C9.68324 5.96023 10.0355 5.33144 10.4901 4.8125C10.9446 4.29356 11.4825 3.89583 12.1037 3.61932C12.7249 3.3428 13.4086 3.20455 14.1548 3.20455C14.7685 3.20455 15.3404 3.29735 15.8707 3.48295C16.4048 3.66477 16.8802 3.92424 17.2969 4.26136C17.7173 4.5947 18.0677 4.99432 18.348 5.46023C18.6283 5.92235 18.8215 6.43561 18.9276 7H17.473ZM21.2273 15V6.27273H22.5227V7.63636H22.6364C22.8182 7.17045 23.1117 6.80871 23.517 6.55114C23.9223 6.28977 24.4091 6.15909 24.9773 6.15909C25.553 6.15909 26.0322 6.28977 26.4148 6.55114C26.8011 6.80871 27.1023 7.17045 27.3182 7.63636H27.4091C27.6326 7.18561 27.9678 6.82765 28.4148 6.5625C28.8617 6.29356 29.3977 6.15909 30.0227 6.15909C30.803 6.15909 31.4413 6.40341 31.9375 6.89205C32.4337 7.37689 32.6818 8.13258 32.6818 9.15909V15H31.3409V9.15909C31.3409 8.51515 31.1648 8.05492 30.8125 7.77841C30.4602 7.50189 30.0455 7.36364 29.5682 7.36364C28.9545 7.36364 28.4792 7.54924 28.142 7.92045C27.8049 8.28788 27.6364 8.75379 27.6364 9.31818V15H26.2727V9.02273C26.2727 8.52652 26.1117 8.12689 25.7898 7.82386C25.4678 7.51705 25.053 7.36364 24.5455 7.36364C24.197 7.36364 23.8712 7.45644 23.5682 7.64205C23.2689 7.82765 23.0265 8.08523 22.8409 8.41477C22.6591 8.74053 22.5682 9.11742 22.5682 9.54545V15H21.2273ZM38.9744 15.1591C38.4972 15.1515 38.0199 15.0606 37.5426 14.8864C37.0653 14.7121 36.6297 14.4186 36.2358 14.0057C35.8419 13.589 35.5256 13.0265 35.2869 12.3182C35.0483 11.6061 34.929 10.7121 34.929 9.63636C34.929 8.60606 35.0256 7.69318 35.2188 6.89773C35.4119 6.09848 35.6922 5.42614 36.0597 4.88068C36.4271 4.33144 36.8703 3.91477 37.3892 3.63068C37.9119 3.34659 38.5009 3.20455 39.1562 3.20455C39.8078 3.20455 40.3873 3.33523 40.8949 3.59659C41.4063 3.85417 41.8229 4.21401 42.1449 4.67614C42.4669 5.13826 42.6752 5.67045 42.7699 6.27273H41.3835C41.2547 5.75 41.0047 5.31629 40.6335 4.97159C40.2623 4.62689 39.7699 4.45455 39.1562 4.45455C38.2547 4.45455 37.5445 4.84659 37.0256 5.63068C36.5104 6.41477 36.2509 7.51515 36.2472 8.93182H36.3381C36.5502 8.60985 36.8021 8.33523 37.0938 8.10795C37.3892 7.87689 37.715 7.69886 38.071 7.57386C38.4271 7.44886 38.804 7.38636 39.2017 7.38636C39.8684 7.38636 40.4782 7.55303 41.0312 7.88636C41.5843 8.21591 42.0275 8.67235 42.3608 9.25568C42.6941 9.83523 42.8608 10.5 42.8608 11.25C42.8608 11.9697 42.6998 12.6288 42.3778 13.2273C42.0559 13.822 41.6032 14.2955 41.0199 14.6477C40.4403 14.9962 39.7585 15.1667 38.9744 15.1591ZM38.9744 13.9091C39.4517 13.9091 39.8797 13.7898 40.2585 13.5511C40.6411 13.3125 40.9422 12.9924 41.1619 12.5909C41.3854 12.1894 41.4972 11.7424 41.4972 11.25C41.4972 10.7689 41.3892 10.3314 41.1733 9.9375C40.9612 9.53977 40.6676 9.22348 40.2926 8.98864C39.9214 8.75379 39.4972 8.63636 39.0199 8.63636C38.66 8.63636 38.3248 8.70833 38.0142 8.85227C37.7036 8.99242 37.4309 9.18561 37.196 9.43182C36.965 9.67803 36.7831 9.96023 36.6506 10.2784C36.518 10.5928 36.4517 10.9242 36.4517 11.2727C36.4517 11.7348 36.5597 12.1667 36.7756 12.5682C36.9953 12.9697 37.2945 13.2936 37.6733 13.5398C38.0559 13.786 38.4896 13.9091 38.9744 13.9091Z" fill="#F32851"/>
<path d="M55.5252 28.6195C55.8435 29.1626 55.8435 29.8374 55.5252 30.3805C54.6989 31.7909 53.7909 32.6989 52.3805 33.5252C51.8374 33.8435 51.1626 33.8435 50.6195 33.5252C49.2091 32.6989 48.3011 31.7909 47.4748 30.3805C47.1565 29.8374 47.1565 29.1626 47.4748 28.6195C48.3011 27.2091 49.2091 26.3011 50.6195 25.4748C51.1626 25.1565 51.8374 25.1565 52.3805 25.4748C53.7909 26.3011 54.6989 27.2091 55.5252 28.6195Z" fill="#F32851"/>
<path d="M22.5252 44.6195C22.8435 45.1626 22.8435 45.8374 22.5252 46.3805C21.6989 47.7909 20.7909 48.6989 19.3805 49.5252C18.8374 49.8435 18.1626 49.8435 17.6195 49.5252C16.2091 48.6989 15.3011 47.7909 14.4748 46.3805C14.1565 45.8374 14.1565 45.1626 14.4748 44.6195C15.3011 43.2091 16.2091 42.3011 17.6195 41.4748C18.1626 41.1565 18.8374 41.1565 19.3805 41.4748C20.7909 42.3011 21.6989 43.2091 22.5252 44.6195Z" fill="#F32851"/>
</svg>
