<svg width="56" height="106" viewBox="0 0 56 106" fill="none" xmlns="http://www.w3.org/2000/svg">
<rect x="0.5" y="21.5" width="51" height="84" rx="1.5" stroke="#535353"/>
<line y1="37.4999" x2="52" y2="37.4999" stroke="#535353"/>
<line y1="53.5" x2="52" y2="53.5" stroke="#535353"/>
<path d="M0 88H51" stroke="#535353"/>
<path d="M0 71H51.5" stroke="#535353"/>
<line x1="18.5" y1="21" x2="18.5" y2="106" stroke="#535353"/>
<path d="M35.5 21L35.5 106" stroke="#535353"/>
<path d="M17.473 7C17.348 6.61742 17.1832 6.27462 16.9787 5.97159C16.7779 5.66477 16.5374 5.40341 16.2571 5.1875C15.9806 4.97159 15.6662 4.80682 15.3139 4.69318C14.9616 4.57955 14.5753 4.52273 14.1548 4.52273C13.4654 4.52273 12.8385 4.70076 12.2741 5.05682C11.7098 5.41288 11.2609 5.9375 10.9276 6.63068C10.5942 7.32386 10.4276 8.17424 10.4276 9.18182C10.4276 10.1894 10.5961 11.0398 10.9332 11.733C11.2704 12.4261 11.7268 12.9508 12.3026 13.3068C12.8783 13.6629 13.526 13.8409 14.2457 13.8409C14.9124 13.8409 15.4995 13.6989 16.0071 13.4148C16.5185 13.1269 16.9162 12.7216 17.2003 12.1989C17.4882 11.6723 17.6321 11.053 17.6321 10.3409L18.0639 10.4318H14.5639V9.18182H18.9957V10.4318C18.9957 11.3902 18.7912 12.2235 18.3821 12.9318C17.9768 13.6402 17.4162 14.1894 16.7003 14.5795C15.9882 14.9659 15.17 15.1591 14.2457 15.1591C13.2154 15.1591 12.3101 14.9167 11.5298 14.4318C10.7533 13.947 10.1473 13.2576 9.71165 12.3636C9.27983 11.4697 9.06392 10.4091 9.06392 9.18182C9.06392 8.26136 9.18703 7.43371 9.43324 6.69886C9.68324 5.96023 10.0355 5.33144 10.4901 4.8125C10.9446 4.29356 11.4825 3.89583 12.1037 3.61932C12.7249 3.3428 13.4086 3.20455 14.1548 3.20455C14.7685 3.20455 15.3404 3.29735 15.8707 3.48295C16.4048 3.66477 16.8802 3.92424 17.2969 4.26136C17.7173 4.5947 18.0677 4.99432 18.348 5.46023C18.6283 5.92235 18.8215 6.43561 18.9276 7H17.473ZM21.2273 15V6.27273H22.5227V7.63636H22.6364C22.8182 7.17045 23.1117 6.80871 23.517 6.55114C23.9223 6.28977 24.4091 6.15909 24.9773 6.15909C25.553 6.15909 26.0322 6.28977 26.4148 6.55114C26.8011 6.80871 27.1023 7.17045 27.3182 7.63636H27.4091C27.6326 7.18561 27.9678 6.82765 28.4148 6.5625C28.8617 6.29356 29.3977 6.15909 30.0227 6.15909C30.803 6.15909 31.4413 6.40341 31.9375 6.89205C32.4337 7.37689 32.6818 8.13258 32.6818 9.15909V15H31.3409V9.15909C31.3409 8.51515 31.1648 8.05492 30.8125 7.77841C30.4602 7.50189 30.0455 7.36364 29.5682 7.36364C28.9545 7.36364 28.4792 7.54924 28.142 7.92045C27.8049 8.28788 27.6364 8.75379 27.6364 9.31818V15H26.2727V9.02273C26.2727 8.52652 26.1117 8.12689 25.7898 7.82386C25.4678 7.51705 25.053 7.36364 24.5455 7.36364C24.197 7.36364 23.8712 7.45644 23.5682 7.64205C23.2689 7.82765 23.0265 8.08523 22.8409 8.41477C22.6591 8.74053 22.5682 9.11742 22.5682 9.54545V15H21.2273ZM38.8153 3.20455C39.2926 3.20833 39.7699 3.29924 40.2472 3.47727C40.7244 3.6553 41.16 3.95076 41.554 4.36364C41.9479 4.77273 42.2642 5.33144 42.5028 6.03977C42.7415 6.74811 42.8608 7.63636 42.8608 8.70455C42.8608 9.73864 42.7623 10.6572 42.5653 11.4602C42.3722 12.2595 42.0919 12.9337 41.7244 13.483C41.3608 14.0322 40.9176 14.4489 40.3949 14.733C39.8759 15.017 39.2888 15.1591 38.6335 15.1591C37.982 15.1591 37.4006 15.0303 36.8892 14.7727C36.3816 14.5114 35.965 14.1496 35.6392 13.6875C35.3172 13.2216 35.1108 12.6818 35.0199 12.0682H36.4062C36.5312 12.6023 36.7794 13.0436 37.1506 13.392C37.5256 13.7367 38.0199 13.9091 38.6335 13.9091C39.5313 13.9091 40.2396 13.517 40.7585 12.733C41.2813 11.9489 41.5426 10.8409 41.5426 9.40909H41.4517C41.2396 9.72727 40.9877 10.0019 40.696 10.233C40.4044 10.464 40.0805 10.642 39.7244 10.767C39.3684 10.892 38.9896 10.9545 38.5881 10.9545C37.9214 10.9545 37.3097 10.7898 36.7528 10.4602C36.1998 10.1269 35.7566 9.67045 35.4233 9.09091C35.0938 8.50758 34.929 7.84091 34.929 7.09091C34.929 6.37879 35.0881 5.72727 35.4062 5.13636C35.7282 4.54167 36.179 4.06818 36.7585 3.71591C37.3419 3.36364 38.0275 3.19318 38.8153 3.20455ZM38.8153 4.45455C38.3381 4.45455 37.9081 4.57386 37.5256 4.8125C37.1468 5.04735 36.8456 5.36553 36.6222 5.76705C36.4025 6.16477 36.2926 6.60606 36.2926 7.09091C36.2926 7.57576 36.3987 8.01705 36.6108 8.41477C36.8267 8.80871 37.1203 9.12311 37.4915 9.35795C37.8665 9.58902 38.2926 9.70455 38.7699 9.70455C39.1297 9.70455 39.465 9.63447 39.7756 9.49432C40.0862 9.35038 40.357 9.1553 40.5881 8.90909C40.8229 8.65909 41.0066 8.37689 41.1392 8.0625C41.2718 7.74432 41.3381 7.41288 41.3381 7.06818C41.3381 6.61364 41.2282 6.1875 41.0085 5.78977C40.7926 5.39205 40.4934 5.07008 40.1108 4.82386C39.732 4.57765 39.3002 4.45455 38.8153 4.45455Z" fill="#F32851"/>
<path d="M39.5252 95.6195C39.8435 96.1626 39.8435 96.8374 39.5252 97.3805C38.6989 98.7909 37.7909 99.6989 36.3805 100.525C35.8374 100.843 35.1626 100.843 34.6195 100.525C33.2091 99.6989 32.3011 98.7909 31.4748 97.3805C31.1565 96.8374 31.1565 96.1626 31.4748 95.6195C32.3011 94.2091 33.2091 93.3011 34.6195 92.4748C35.1626 92.1565 35.8374 92.1565 36.3805 92.4748C37.7909 93.3011 38.6989 94.2091 39.5252 95.6195Z" fill="#F32851"/>
<path d="M55.5252 28.6195C55.8435 29.1626 55.8435 29.8374 55.5252 30.3805C54.6989 31.7909 53.7909 32.6989 52.3805 33.5252C51.8374 33.8435 51.1626 33.8435 50.6195 33.5252C49.2091 32.6989 48.3011 31.7909 47.4748 30.3805C47.1565 29.8374 47.1565 29.1626 47.4748 28.6195C48.3011 27.2091 49.2091 26.3011 50.6195 25.4748C51.1626 25.1565 51.8374 25.1565 52.3805 25.4748C53.7909 26.3011 54.6989 27.2091 55.5252 28.6195Z" fill="#F32851"/>
<path d="M22.5252 95.6195C22.8435 96.1626 22.8435 96.8374 22.5252 97.3805C21.6989 98.7909 20.7909 99.6989 19.3805 100.525C18.8374 100.843 18.1626 100.843 17.6195 100.525C16.2091 99.6989 15.3011 98.7909 14.4748 97.3805C14.1565 96.8374 14.1565 96.1626 14.4748 95.6195C15.3011 94.2091 16.2091 93.3011 17.6195 92.4748C18.1626 92.1565 18.8374 92.1565 19.3805 92.4748C20.7909 93.3011 21.6989 94.2091 22.5252 95.6195Z" fill="#F32851"/>
</svg>
