<svg width="60" height="106" viewBox="0 0 60 106" fill="none" xmlns="http://www.w3.org/2000/svg">
<rect x="4.5" y="21.5" width="51" height="84" rx="1.5" stroke="#535353"/>
<line x1="4" y1="37.4998" x2="56" y2="37.4998" stroke="#535353"/>
<line x1="4" y1="53.5" x2="56" y2="53.5" stroke="#535353"/>
<path d="M4 88H55" stroke="#535353"/>
<path d="M4 71H55.5" stroke="#535353"/>
<line x1="22.5" y1="21" x2="22.5" y2="106" stroke="#535353"/>
<path d="M39.5 21L39.5 106" stroke="#535353"/>
<path d="M28.3714 7C28.2464 6.61742 28.0817 6.27462 27.8771 5.97159C27.6764 5.66477 27.4358 5.40341 27.1555 5.1875C26.879 4.97159 26.5646 4.80682 26.2124 4.69318C25.8601 4.57955 25.4737 4.52273 25.0533 4.52273C24.3639 4.52273 23.737 4.70076 23.1726 5.05682C22.6082 5.41288 22.1593 5.9375 21.826 6.63068C21.4927 7.32386 21.326 8.17424 21.326 9.18182C21.326 10.1894 21.4946 11.0398 21.8317 11.733C22.1688 12.4261 22.6252 12.9508 23.201 13.3068C23.7768 13.6629 24.4245 13.8409 25.1442 13.8409C25.8108 13.8409 26.398 13.6989 26.9055 13.4148C27.4169 13.1269 27.8146 12.7216 28.0987 12.1989C28.3866 11.6723 28.5305 11.053 28.5305 10.3409L28.9624 10.4318H25.4624V9.18182H29.8942V10.4318C29.8942 11.3902 29.6896 12.2235 29.2805 12.9318C28.8752 13.6402 28.3146 14.1894 27.5987 14.5795C26.8866 14.9659 26.0684 15.1591 25.1442 15.1591C24.1139 15.1591 23.2086 14.9167 22.4283 14.4318C21.6518 13.947 21.0457 13.2576 20.6101 12.3636C20.1783 11.4697 19.9624 10.4091 19.9624 9.18182C19.9624 8.26136 20.0855 7.43371 20.3317 6.69886C20.5817 5.96023 20.9339 5.33144 21.3885 4.8125C21.843 4.29356 22.3809 3.89583 23.0021 3.61932C23.6233 3.3428 24.3071 3.20455 25.0533 3.20455C25.6669 3.20455 26.2389 3.29735 26.7692 3.48295C27.3033 3.66477 27.7786 3.92424 28.1953 4.26136C28.6158 4.5947 28.9661 4.99432 29.2464 5.46023C29.5268 5.92235 29.7199 6.43561 29.826 7H28.3714ZM36.4666 15L38.3757 3.36364H39.5121L37.603 15H36.4666ZM31.1712 11.7727L31.353 10.6364H40.0348L39.853 11.7727H31.1712ZM32.3757 15L34.2848 3.36364H35.4212L33.5121 15H32.3757ZM31.853 7.72727L32.0348 6.59091H40.7166L40.5348 7.72727H31.853Z" fill="#F32851"/>
<path d="M43.5252 28.6195C43.8435 29.1626 43.8435 29.8374 43.5252 30.3805C42.6989 31.7909 41.7909 32.6989 40.3805 33.5252C39.8374 33.8435 39.1626 33.8435 38.6195 33.5252C37.2091 32.6989 36.3011 31.7909 35.4748 30.3805C35.1565 29.8374 35.1565 29.1626 35.4748 28.6195C36.3011 27.2091 37.2091 26.3011 38.6195 25.4748C39.1626 25.1565 39.8374 25.1565 40.3805 25.4748C41.7909 26.3011 42.6989 27.2091 43.5252 28.6195Z" fill="#F32851"/>
<path d="M8.52523 44.6195C8.84348 45.1626 8.84348 45.8374 8.52523 46.3805C7.69886 47.7909 6.79088 48.6989 5.38054 49.5252C4.83739 49.8435 4.16261 49.8435 3.61946 49.5252C2.20912 48.6989 1.30114 47.7909 0.474768 46.3805C0.15652 45.8374 0.15652 45.1626 0.474768 44.6195C1.30114 43.2091 2.20912 42.3011 3.61946 41.4748C4.16261 41.1565 4.83739 41.1565 5.38054 41.4748C6.79088 42.3011 7.69886 43.2091 8.52523 44.6195Z" fill="#F32851"/>
<path d="M59.5252 61.6195C59.8435 62.1626 59.8435 62.8374 59.5252 63.3805C58.6989 64.7909 57.7909 65.6989 56.3805 66.5252C55.8374 66.8435 55.1626 66.8435 54.6195 66.5252C53.2091 65.6989 52.3011 64.7909 51.4748 63.3805C51.1565 62.8374 51.1565 62.1626 51.4748 61.6195C52.3011 60.2091 53.2091 59.3011 54.6195 58.4748C55.1626 58.1565 55.8374 58.1565 56.3805 58.4748C57.7909 59.3011 58.6989 60.2091 59.5252 61.6195Z" fill="#F32851"/>
</svg>
