<svg width="60" height="106" viewBox="0 0 60 106" fill="none" xmlns="http://www.w3.org/2000/svg">
<rect x="4.5" y="21.5" width="51" height="84" rx="1.5" stroke="#535353"/>
<line x1="4" y1="37.4998" x2="56" y2="37.4998" stroke="#535353"/>
<line x1="4" y1="53.5" x2="56" y2="53.5" stroke="#535353"/>
<path d="M4 88H55" stroke="#535353"/>
<path d="M4 71H55.5" stroke="#535353"/>
<line x1="22.5" y1="21" x2="22.5" y2="106" stroke="#535353"/>
<path d="M39.5 21L39.5 106" stroke="#535353"/>
<path d="M23.5043 7C23.3793 6.61742 23.2145 6.27462 23.0099 5.97159C22.8092 5.66477 22.5687 5.40341 22.2884 5.1875C22.0118 4.97159 21.6974 4.80682 21.3452 4.69318C20.9929 4.57955 20.6065 4.52273 20.1861 4.52273C19.4967 4.52273 18.8698 4.70076 18.3054 5.05682C17.741 5.41288 17.2921 5.9375 16.9588 6.63068C16.6255 7.32386 16.4588 8.17424 16.4588 9.18182C16.4588 10.1894 16.6274 11.0398 16.9645 11.733C17.3016 12.4261 17.758 12.9508 18.3338 13.3068C18.9096 13.6629 19.5573 13.8409 20.277 13.8409C20.9437 13.8409 21.5308 13.6989 22.0384 13.4148C22.5497 13.1269 22.9474 12.7216 23.2315 12.1989C23.5194 11.6723 23.6634 11.053 23.6634 10.3409L24.0952 10.4318H20.5952V9.18182H25.027V10.4318C25.027 11.3902 24.8224 12.2235 24.4134 12.9318C24.008 13.6402 23.4474 14.1894 22.7315 14.5795C22.0194 14.9659 21.2012 15.1591 20.277 15.1591C19.2467 15.1591 18.3414 14.9167 17.5611 14.4318C16.7846 13.947 16.1785 13.2576 15.7429 12.3636C15.3111 11.4697 15.0952 10.4091 15.0952 9.18182C15.0952 8.26136 15.2183 7.43371 15.4645 6.69886C15.7145 5.96023 16.0668 5.33144 16.5213 4.8125C16.9759 4.29356 17.5137 3.89583 18.1349 3.61932C18.7562 3.3428 19.4399 3.20455 20.1861 3.20455C20.7997 3.20455 21.3717 3.29735 21.902 3.48295C22.4361 3.66477 22.9115 3.92424 23.3281 4.26136C23.7486 4.5947 24.099 4.99432 24.3793 5.46023C24.6596 5.92235 24.8527 6.43561 24.9588 7H23.5043ZM31.5994 15L33.5085 3.36364H34.6449L32.7358 15H31.5994ZM26.304 11.7727L26.4858 10.6364H35.1676L34.9858 11.7727H26.304ZM27.5085 15L29.4176 3.36364H30.554L28.6449 15H27.5085ZM26.9858 7.72727L27.1676 6.59091H35.8494L35.6676 7.72727H26.9858ZM40.9659 15.1591C40.2992 15.1591 39.6989 15.0265 39.1648 14.7614C38.6307 14.4962 38.2027 14.1326 37.8807 13.6705C37.5587 13.2083 37.3826 12.6818 37.3523 12.0909H38.7159C38.7689 12.6174 39.0076 13.053 39.4318 13.3977C39.8598 13.7386 40.3712 13.9091 40.9659 13.9091C41.4432 13.9091 41.8674 13.7973 42.2386 13.5739C42.6136 13.3504 42.9072 13.0436 43.1193 12.6534C43.3352 12.2595 43.4432 11.8144 43.4432 11.3182C43.4432 10.8106 43.3314 10.358 43.108 9.96023C42.8883 9.55871 42.5852 9.24242 42.1989 9.01136C41.8125 8.7803 41.3712 8.66288 40.875 8.65909C40.5189 8.6553 40.1534 8.71023 39.7784 8.82386C39.4034 8.93371 39.0947 9.07576 38.8523 9.25L37.5341 9.09091L38.2386 3.36364H44.2841V4.61364H39.4205L39.0114 8.04545H39.0795C39.3182 7.85606 39.6174 7.69886 39.9773 7.57386C40.3371 7.44886 40.7121 7.38636 41.1023 7.38636C41.8144 7.38636 42.4489 7.55682 43.0057 7.89773C43.5663 8.23485 44.0057 8.69697 44.3239 9.28409C44.6458 9.87121 44.8068 10.5417 44.8068 11.2955C44.8068 12.0379 44.6402 12.7008 44.3068 13.2841C43.9773 13.8636 43.5227 14.322 42.9432 14.6591C42.3636 14.9924 41.7045 15.1591 40.9659 15.1591Z" fill="#F32851"/>
<path d="M59.5252 61.6195C59.8435 62.1626 59.8435 62.8374 59.5252 63.3805C58.6989 64.7909 57.7909 65.6989 56.3805 66.5252C55.8374 66.8435 55.1626 66.8435 54.6195 66.5252C53.2091 65.6989 52.3011 64.7909 51.4748 63.3805C51.1565 62.8374 51.1565 62.1626 51.4748 61.6195C52.3011 60.2091 53.2091 59.3011 54.6195 58.4748C55.1626 58.1565 55.8374 58.1565 56.3805 58.4748C57.7909 59.3011 58.6989 60.2091 59.5252 61.6195Z" fill="#F32851"/>
<path d="M8.52523 28.6195C8.84348 29.1626 8.84348 29.8374 8.52523 30.3805C7.69886 31.7909 6.79088 32.6989 5.38054 33.5252C4.83739 33.8435 4.16261 33.8435 3.61946 33.5252C2.20912 32.6989 1.30114 31.7909 0.474768 30.3805C0.15652 29.8374 0.15652 29.1626 0.474768 28.6195C1.30114 27.2091 2.20912 26.3011 3.61946 25.4748C4.16261 25.1565 4.83739 25.1565 5.38054 25.4748C6.79088 26.3011 7.69886 27.2091 8.52523 28.6195Z" fill="#F32851"/>
</svg>
