<svg width="60" height="106" viewBox="0 0 60 106" fill="none" xmlns="http://www.w3.org/2000/svg">
<rect x="4.5" y="21.5" width="51" height="84" rx="1.5" stroke="#535353"/>
<line x1="4" y1="37.4998" x2="56" y2="37.4998" stroke="#535353"/>
<line x1="4" y1="53.5" x2="56" y2="53.5" stroke="#535353"/>
<path d="M4 88H55" stroke="#535353"/>
<path d="M4 71H55.5" stroke="#535353"/>
<line x1="22.5" y1="21" x2="22.5" y2="106" stroke="#535353"/>
<path d="M39.5 21L39.5 106" stroke="#535353"/>
<path d="M23.3793 7C23.2543 6.61742 23.0895 6.27462 22.8849 5.97159C22.6842 5.66477 22.4437 5.40341 22.1634 5.1875C21.8868 4.97159 21.5724 4.80682 21.2202 4.69318C20.8679 4.57955 20.4815 4.52273 20.0611 4.52273C19.3717 4.52273 18.7448 4.70076 18.1804 5.05682C17.616 5.41288 17.1671 5.9375 16.8338 6.63068C16.5005 7.32386 16.3338 8.17424 16.3338 9.18182C16.3338 10.1894 16.5024 11.0398 16.8395 11.733C17.1766 12.4261 17.633 12.9508 18.2088 13.3068C18.7846 13.6629 19.4323 13.8409 20.152 13.8409C20.8187 13.8409 21.4058 13.6989 21.9134 13.4148C22.4247 13.1269 22.8224 12.7216 23.1065 12.1989C23.3944 11.6723 23.5384 11.053 23.5384 10.3409L23.9702 10.4318H20.4702V9.18182H24.902V10.4318C24.902 11.3902 24.6974 12.2235 24.2884 12.9318C23.883 13.6402 23.3224 14.1894 22.6065 14.5795C21.8944 14.9659 21.0762 15.1591 20.152 15.1591C19.1217 15.1591 18.2164 14.9167 17.4361 14.4318C16.6596 13.947 16.0535 13.2576 15.6179 12.3636C15.1861 11.4697 14.9702 10.4091 14.9702 9.18182C14.9702 8.26136 15.0933 7.43371 15.3395 6.69886C15.5895 5.96023 15.9418 5.33144 16.3963 4.8125C16.8509 4.29356 17.3887 3.89583 18.0099 3.61932C18.6312 3.3428 19.3149 3.20455 20.0611 3.20455C20.6747 3.20455 21.2467 3.29735 21.777 3.48295C22.3111 3.66477 22.7865 3.92424 23.2031 4.26136C23.6236 4.5947 23.974 4.99432 24.2543 5.46023C24.5346 5.92235 24.7277 6.43561 24.8338 7H23.3793ZM31.4744 15L33.3835 3.36364H34.5199L32.6108 15H31.4744ZM26.179 11.7727L26.3608 10.6364H35.0426L34.8608 11.7727H26.179ZM27.3835 15L29.2926 3.36364H30.429L28.5199 15H27.3835ZM26.8608 7.72727L27.0426 6.59091H35.7244L35.5426 7.72727H26.8608ZM40.9091 3.20455C41.3864 3.20833 41.8636 3.29924 42.3409 3.47727C42.8182 3.6553 43.2538 3.95076 43.6477 4.36364C44.0417 4.77273 44.358 5.33144 44.5966 6.03977C44.8352 6.74811 44.9545 7.63636 44.9545 8.70455C44.9545 9.73864 44.8561 10.6572 44.6591 11.4602C44.4659 12.2595 44.1856 12.9337 43.8182 13.483C43.4545 14.0322 43.0114 14.4489 42.4886 14.733C41.9697 15.017 41.3826 15.1591 40.7273 15.1591C40.0758 15.1591 39.4943 15.0303 38.983 14.7727C38.4754 14.5114 38.0587 14.1496 37.733 13.6875C37.411 13.2216 37.2045 12.6818 37.1136 12.0682H38.5C38.625 12.6023 38.8731 13.0436 39.2443 13.392C39.6193 13.7367 40.1136 13.9091 40.7273 13.9091C41.625 13.9091 42.3333 13.517 42.8523 12.733C43.375 11.9489 43.6364 10.8409 43.6364 9.40909H43.5455C43.3333 9.72727 43.0814 10.0019 42.7898 10.233C42.4981 10.464 42.1742 10.642 41.8182 10.767C41.4621 10.892 41.0833 10.9545 40.6818 10.9545C40.0152 10.9545 39.4034 10.7898 38.8466 10.4602C38.2936 10.1269 37.8504 9.67045 37.517 9.09091C37.1875 8.50758 37.0227 7.84091 37.0227 7.09091C37.0227 6.37879 37.1818 5.72727 37.5 5.13636C37.822 4.54167 38.2727 4.06818 38.8523 3.71591C39.4356 3.36364 40.1212 3.19318 40.9091 3.20455ZM40.9091 4.45455C40.4318 4.45455 40.0019 4.57386 39.6193 4.8125C39.2405 5.04735 38.9394 5.36553 38.7159 5.76705C38.4962 6.16477 38.3864 6.60606 38.3864 7.09091C38.3864 7.57576 38.4924 8.01705 38.7045 8.41477C38.9205 8.80871 39.214 9.12311 39.5852 9.35795C39.9602 9.58902 40.3864 9.70455 40.8636 9.70455C41.2235 9.70455 41.5587 9.63447 41.8693 9.49432C42.1799 9.35038 42.4508 9.1553 42.6818 8.90909C42.9167 8.65909 43.1004 8.37689 43.233 8.0625C43.3655 7.74432 43.4318 7.41288 43.4318 7.06818C43.4318 6.61364 43.322 6.1875 43.1023 5.78977C42.8864 5.39205 42.5871 5.07008 42.2045 4.82386C41.8258 4.57765 41.3939 4.45455 40.9091 4.45455Z" fill="#F32851"/>
<path d="M59.5252 28.6195C59.8435 29.1626 59.8435 29.8374 59.5252 30.3805C58.6989 31.7909 57.7909 32.6989 56.3805 33.5252C55.8374 33.8435 55.1626 33.8435 54.6195 33.5252C53.2091 32.6989 52.3011 31.7909 51.4748 30.3805C51.1565 29.8374 51.1565 29.1626 51.4748 28.6195C52.3011 27.2091 53.2091 26.3011 54.6195 25.4748C55.1626 25.1565 55.8374 25.1565 56.3805 25.4748C57.7909 26.3011 58.6989 27.2091 59.5252 28.6195Z" fill="#F32851"/>
<path d="M8.52523 28.6195C8.84348 29.1626 8.84348 29.8374 8.52523 30.3805C7.69886 31.7909 6.79088 32.6989 5.38054 33.5252C4.83739 33.8435 4.16261 33.8435 3.61946 33.5252C2.20912 32.6989 1.30114 31.7909 0.474768 30.3805C0.15652 29.8374 0.15652 29.1626 0.474768 28.6195C1.30114 27.2091 2.20912 26.3011 3.61946 25.4748C4.16261 25.1565 4.83739 25.1565 5.38054 25.4748C6.79088 26.3011 7.69886 27.2091 8.52523 28.6195Z" fill="#F32851"/>
<path d="M43.5252 44.6195C43.8435 45.1626 43.8435 45.8374 43.5252 46.3805C42.6989 47.7909 41.7909 48.6989 40.3805 49.5252C39.8374 49.8435 39.1626 49.8435 38.6195 49.5252C37.2091 48.6989 36.3011 47.7909 35.4748 46.3805C35.1565 45.8374 35.1565 45.1626 35.4748 44.6195C36.3011 43.2091 37.2091 42.3011 38.6195 41.4748C39.1626 41.1565 39.8374 41.1565 40.3805 41.4748C41.7909 42.3011 42.6989 43.2091 43.5252 44.6195Z" fill="#F32851"/>
</svg>
