<svg width="60" height="106" viewBox="0 0 60 106" fill="none" xmlns="http://www.w3.org/2000/svg">
<rect x="4.5" y="21.5" width="51" height="84" rx="1.5" stroke="#535353"/>
<line x1="4" y1="37.4998" x2="56" y2="37.4998" stroke="#535353"/>
<line x1="4" y1="53.5" x2="56" y2="53.5" stroke="#535353"/>
<path d="M4 88H55" stroke="#535353"/>
<path d="M4 71H55.5" stroke="#535353"/>
<line x1="22.5" y1="21" x2="22.5" y2="106" stroke="#535353"/>
<path d="M39.5 21L39.5 106" stroke="#535353"/>
<path d="M14.5511 7C14.4261 6.61742 14.2614 6.27462 14.0568 5.97159C13.8561 5.66477 13.6155 5.40341 13.3352 5.1875C13.0587 4.97159 12.7443 4.80682 12.392 4.69318C12.0398 4.57955 11.6534 4.52273 11.233 4.52273C10.5436 4.52273 9.91667 4.70076 9.35227 5.05682C8.78788 5.41288 8.33902 5.9375 8.00568 6.63068C7.67235 7.32386 7.50568 8.17424 7.50568 9.18182C7.50568 10.1894 7.67424 11.0398 8.01136 11.733C8.34848 12.4261 8.80492 12.9508 9.38068 13.3068C9.95644 13.6629 10.6042 13.8409 11.3239 13.8409C11.9905 13.8409 12.5777 13.6989 13.0852 13.4148C13.5966 13.1269 13.9943 12.7216 14.2784 12.1989C14.5663 11.6723 14.7102 11.053 14.7102 10.3409L15.142 10.4318H11.642V9.18182H16.0739V10.4318C16.0739 11.3902 15.8693 12.2235 15.4602 12.9318C15.0549 13.6402 14.4943 14.1894 13.7784 14.5795C13.0663 14.9659 12.2481 15.1591 11.3239 15.1591C10.2936 15.1591 9.38826 14.9167 8.60795 14.4318C7.83144 13.947 7.22538 13.2576 6.78977 12.3636C6.35795 11.4697 6.14205 10.4091 6.14205 9.18182C6.14205 8.26136 6.26515 7.43371 6.51136 6.69886C6.76136 5.96023 7.11364 5.33144 7.56818 4.8125C8.02273 4.29356 8.56061 3.89583 9.18182 3.61932C9.80303 3.3428 10.4867 3.20455 11.233 3.20455C11.8466 3.20455 12.4186 3.29735 12.9489 3.48295C13.483 3.66477 13.9583 3.92424 14.375 4.26136C14.7955 4.5947 15.1458 4.99432 15.4261 5.46023C15.7064 5.92235 15.8996 6.43561 16.0057 7H14.5511ZM22.6463 15L24.5554 3.36364H25.6918L23.7827 15H22.6463ZM17.3509 11.7727L17.5327 10.6364H26.2145L26.0327 11.7727H17.3509ZM18.5554 15L20.4645 3.36364H21.6009L19.6918 15H18.5554ZM18.0327 7.72727L18.2145 6.59091H26.8963L26.7145 7.72727H18.0327ZM31.6946 15.1818C30.9673 15.1818 30.3253 14.9981 29.7685 14.6307C29.2116 14.2595 28.776 13.7367 28.4616 13.0625C28.1473 12.3845 27.9901 11.5833 27.9901 10.6591C27.9901 9.74242 28.1473 8.94697 28.4616 8.27273C28.776 7.59848 29.2135 7.07765 29.7741 6.71023C30.3348 6.3428 30.9825 6.15909 31.7173 6.15909C32.2855 6.15909 32.7344 6.25379 33.0639 6.44318C33.3973 6.62879 33.651 6.84091 33.8253 7.07955C34.0033 7.31439 34.1416 7.50758 34.2401 7.65909H34.3537V3.36364H35.6946V15H34.3991V13.6591H34.2401C34.1416 13.8182 34.0014 14.0189 33.8196 14.2614C33.6378 14.5 33.3783 14.714 33.0412 14.9034C32.7041 15.089 32.2552 15.1818 31.6946 15.1818ZM31.8764 13.9773C32.4143 13.9773 32.8688 13.8371 33.2401 13.5568C33.6113 13.2727 33.8935 12.8807 34.0866 12.3807C34.2798 11.8769 34.3764 11.2955 34.3764 10.6364C34.3764 9.98485 34.2817 9.41477 34.0923 8.92614C33.9029 8.43371 33.6226 8.05114 33.2514 7.77841C32.8802 7.50189 32.4219 7.36364 31.8764 7.36364C31.3082 7.36364 30.8348 7.50947 30.456 7.80114C30.081 8.08902 29.7988 8.48106 29.6094 8.97727C29.4238 9.4697 29.331 10.0227 29.331 10.6364C29.331 11.2576 29.4257 11.822 29.6151 12.3295C29.8082 12.8333 30.0923 13.2348 30.4673 13.5341C30.8461 13.8295 31.3158 13.9773 31.8764 13.9773ZM38.3366 15V6.27273H39.6776V15H38.3366ZM39.0185 4.81818C38.7571 4.81818 38.5317 4.72917 38.3423 4.55114C38.1567 4.37311 38.0639 4.15909 38.0639 3.90909C38.0639 3.65909 38.1567 3.44508 38.3423 3.26705C38.5317 3.08902 38.7571 3 39.0185 3C39.2798 3 39.5033 3.08902 39.6889 3.26705C39.8783 3.44508 39.973 3.65909 39.973 3.90909C39.973 4.15909 39.8783 4.37311 39.6889 4.55114C39.5033 4.72917 39.2798 4.81818 39.0185 4.81818ZM42.1335 15V6.27273H43.429V7.63636H43.5426C43.7244 7.17045 44.018 6.80871 44.4233 6.55114C44.8286 6.28977 45.3153 6.15909 45.8835 6.15909C46.4593 6.15909 46.9384 6.28977 47.321 6.55114C47.7074 6.80871 48.0085 7.17045 48.2244 7.63636H48.3153C48.5388 7.18561 48.8741 6.82765 49.321 6.5625C49.768 6.29356 50.304 6.15909 50.929 6.15909C51.7093 6.15909 52.3475 6.40341 52.8438 6.89205C53.34 7.37689 53.5881 8.13258 53.5881 9.15909V15H52.2472V9.15909C52.2472 8.51515 52.071 8.05492 51.7188 7.77841C51.3665 7.50189 50.9517 7.36364 50.4744 7.36364C49.8608 7.36364 49.3854 7.54924 49.0483 7.92045C48.7112 8.28788 48.5426 8.75379 48.5426 9.31818V15H47.179V9.02273C47.179 8.52652 47.018 8.12689 46.696 7.82386C46.3741 7.51705 45.9593 7.36364 45.4517 7.36364C45.1032 7.36364 44.7775 7.45644 44.4744 7.64205C44.1752 7.82765 43.9328 8.08523 43.7472 8.41477C43.5653 8.74053 43.4744 9.11742 43.4744 9.54545V15H42.1335Z" fill="#F32851"/>
<path d="M59.5252 44.6195C59.8435 45.1626 59.8435 45.8374 59.5252 46.3805C58.6989 47.7909 57.7909 48.6989 56.3805 49.5252C55.8374 49.8435 55.1626 49.8435 54.6195 49.5252C53.2091 48.6989 52.3011 47.7909 51.4748 46.3805C51.1565 45.8374 51.1565 45.1626 51.4748 44.6195C52.3011 43.2091 53.2091 42.3011 54.6195 41.4748C55.1626 41.1565 55.8374 41.1565 56.3805 41.4748C57.7909 42.3011 58.6989 43.2091 59.5252 44.6195Z" fill="#F32851"/>
<path d="M26.5252 44.6195C26.8435 45.1626 26.8435 45.8374 26.5252 46.3805C25.6989 47.7909 24.7909 48.6989 23.3805 49.5252C22.8374 49.8435 22.1626 49.8435 21.6195 49.5252C20.2091 48.6989 19.3011 47.7909 18.4748 46.3805C18.1565 45.8374 18.1565 45.1626 18.4748 44.6195C19.3011 43.2091 20.2091 42.3011 21.6195 41.4748C22.1626 41.1565 22.8374 41.1565 23.3805 41.4748C24.7909 42.3011 25.6989 43.2091 26.5252 44.6195Z" fill="#F32851"/>
<path d="M8.52523 28.6195C8.84348 29.1626 8.84348 29.8374 8.52523 30.3805C7.69886 31.7909 6.79088 32.6989 5.38054 33.5252C4.83739 33.8435 4.16261 33.8435 3.61946 33.5252C2.20912 32.6989 1.30114 31.7909 0.474768 30.3805C0.15652 29.8374 0.15652 29.1626 0.474768 28.6195C1.30114 27.2091 2.20912 26.3011 3.61946 25.4748C4.16261 25.1565 4.83739 25.1565 5.38054 25.4748C6.79088 26.3011 7.69886 27.2091 8.52523 28.6195Z" fill="#F32851"/>
<path d="M37.407 17.2727L39.4979 20.8409L41.5888 17.2727H43.1342L40.3161 21.6364L43.1342 26H41.5888L39.4979 22.6136L37.407 26H35.8615L38.6342 21.6364L35.8615 17.2727H37.407Z" fill="#F32851"/>
</svg>
