<svg width="60" height="106" viewBox="0 0 60 106" fill="none" xmlns="http://www.w3.org/2000/svg">
<rect x="4.5" y="21.5" width="51" height="84" rx="1.5" stroke="#535353"/>
<line x1="4" y1="37.4998" x2="56" y2="37.4998" stroke="#535353"/>
<line x1="4" y1="53.5" x2="56" y2="53.5" stroke="#535353"/>
<path d="M4 88H55" stroke="#535353"/>
<path d="M4 71H55.5" stroke="#535353"/>
<line x1="22.5" y1="21" x2="22.5" y2="106" stroke="#535353"/>
<path d="M39.5 21L39.5 106" stroke="#535353"/>
<path d="M21.4183 7C21.2933 6.61742 21.1286 6.27462 20.924 5.97159C20.7232 5.66477 20.4827 5.40341 20.2024 5.1875C19.9259 4.97159 19.6115 4.80682 19.2592 4.69318C18.907 4.57955 18.5206 4.52273 18.1001 4.52273C17.4107 4.52273 16.7839 4.70076 16.2195 5.05682C15.6551 5.41288 15.2062 5.9375 14.8729 6.63068C14.5395 7.32386 14.3729 8.17424 14.3729 9.18182C14.3729 10.1894 14.5414 11.0398 14.8786 11.733C15.2157 12.4261 15.6721 12.9508 16.2479 13.3068C16.8236 13.6629 17.4714 13.8409 18.1911 13.8409C18.8577 13.8409 19.4448 13.6989 19.9524 13.4148C20.4638 13.1269 20.8615 12.7216 21.1456 12.1989C21.4335 11.6723 21.5774 11.053 21.5774 10.3409L22.0092 10.4318H18.5092V9.18182H22.9411V10.4318C22.9411 11.3902 22.7365 12.2235 22.3274 12.9318C21.9221 13.6402 21.3615 14.1894 20.6456 14.5795C19.9335 14.9659 19.1153 15.1591 18.1911 15.1591C17.1607 15.1591 16.2554 14.9167 15.4751 14.4318C14.6986 13.947 14.0926 13.2576 13.657 12.3636C13.2251 11.4697 13.0092 10.4091 13.0092 9.18182C13.0092 8.26136 13.1323 7.43371 13.3786 6.69886C13.6286 5.96023 13.9808 5.33144 14.4354 4.8125C14.8899 4.29356 15.4278 3.89583 16.049 3.61932C16.6702 3.3428 17.3539 3.20455 18.1001 3.20455C18.7138 3.20455 19.2857 3.29735 19.8161 3.48295C20.3501 3.66477 20.8255 3.92424 21.2422 4.26136C21.6626 4.5947 22.013 4.99432 22.2933 5.46023C22.5736 5.92235 22.7668 6.43561 22.8729 7H21.4183ZM29.5135 15L31.4226 3.36364H32.5589L30.6499 15H29.5135ZM24.218 11.7727L24.3999 10.6364H33.0817L32.8999 11.7727H24.218ZM25.4226 15L27.3317 3.36364H28.468L26.5589 15H25.4226ZM24.8999 7.72727L25.0817 6.59091H33.7635L33.5817 7.72727H24.8999ZM35.2663 15V6.27273H36.5618V7.63636H36.6754C36.8572 7.17045 37.1508 6.80871 37.5561 6.55114C37.9614 6.28977 38.4482 6.15909 39.0163 6.15909C39.5921 6.15909 40.0713 6.28977 40.4538 6.55114C40.8402 6.80871 41.1413 7.17045 41.3572 7.63636H41.4482C41.6716 7.18561 42.0069 6.82765 42.4538 6.5625C42.9008 6.29356 43.4368 6.15909 44.0618 6.15909C44.8421 6.15909 45.4804 6.40341 45.9766 6.89205C46.4728 7.37689 46.7209 8.13258 46.7209 9.15909V15H45.38V9.15909C45.38 8.51515 45.2038 8.05492 44.8516 7.77841C44.4993 7.50189 44.0845 7.36364 43.6072 7.36364C42.9936 7.36364 42.5182 7.54924 42.1811 7.92045C41.844 8.28788 41.6754 8.75379 41.6754 9.31818V15H40.3118V9.02273C40.3118 8.52652 40.1508 8.12689 39.8288 7.82386C39.5069 7.51705 39.0921 7.36364 38.5845 7.36364C38.236 7.36364 37.9103 7.45644 37.6072 7.64205C37.308 7.82765 37.0656 8.08523 36.88 8.41477C36.6982 8.74053 36.6072 9.11742 36.6072 9.54545V15H35.2663Z" fill="#F32851"/>
<path d="M59.5252 44.6195C59.8435 45.1626 59.8435 45.8374 59.5252 46.3805C58.6989 47.7909 57.7909 48.6989 56.3805 49.5252C55.8374 49.8435 55.1626 49.8435 54.6195 49.5252C53.2091 48.6989 52.3011 47.7909 51.4748 46.3805C51.1565 45.8374 51.1565 45.1626 51.4748 44.6195C52.3011 43.2091 53.2091 42.3011 54.6195 41.4748C55.1626 41.1565 55.8374 41.1565 56.3805 41.4748C57.7909 42.3011 58.6989 43.2091 59.5252 44.6195Z" fill="#F32851"/>
<path d="M26.5252 61.6195C26.8435 62.1626 26.8435 62.8374 26.5252 63.3805C25.6989 64.7909 24.7909 65.6989 23.3805 66.5252C22.8374 66.8435 22.1626 66.8435 21.6195 66.5252C20.2091 65.6989 19.3011 64.7909 18.4748 63.3805C18.1565 62.8374 18.1565 62.1626 18.4748 61.6195C19.3011 60.2091 20.2091 59.3011 21.6195 58.4748C22.1626 58.1565 22.8374 58.1565 23.3805 58.4748C24.7909 59.3011 25.6989 60.2091 26.5252 61.6195Z" fill="#F32851"/>
<path d="M43.5252 78.6195C43.8435 79.1626 43.8435 79.8374 43.5252 80.3805C42.6989 81.7909 41.7909 82.6989 40.3805 83.5252C39.8374 83.8435 39.1626 83.8435 38.6195 83.5252C37.2091 82.6989 36.3011 81.7909 35.4748 80.3805C35.1565 79.8374 35.1565 79.1626 35.4748 78.6195C36.3011 77.2091 37.2091 76.3011 38.6195 75.4748C39.1626 75.1565 39.8374 75.1565 40.3805 75.4748C41.7909 76.3011 42.6989 77.2091 43.5252 78.6195Z" fill="#F32851"/>
<path d="M8.52523 28.6195C8.84348 29.1626 8.84348 29.8374 8.52523 30.3805C7.69886 31.7909 6.79088 32.6989 5.38054 33.5252C4.83739 33.8435 4.16261 33.8435 3.61946 33.5252C2.20912 32.6989 1.30114 31.7909 0.474768 30.3805C0.15652 29.8374 0.15652 29.1626 0.474768 28.6195C1.30114 27.2091 2.20912 26.3011 3.61946 25.4748C4.16261 25.1565 4.83739 25.1565 5.38054 25.4748C6.79088 26.3011 7.69886 27.2091 8.52523 28.6195Z" fill="#F32851"/>
</svg>
