<svg width="60" height="106" viewBox="0 0 60 106" fill="none" xmlns="http://www.w3.org/2000/svg">
<rect x="4.5" y="21.5" width="51" height="84" rx="1.5" stroke="#535353"/>
<line x1="4" y1="37.4998" x2="56" y2="37.4998" stroke="#535353"/>
<line x1="4" y1="53.5" x2="56" y2="53.5" stroke="#535353"/>
<path d="M4 88H55" stroke="#535353"/>
<path d="M4 71H55.5" stroke="#535353"/>
<line x1="22.5" y1="21" x2="22.5" y2="106" stroke="#535353"/>
<path d="M39.5 21L39.5 106" stroke="#535353"/>
<path d="M16.4261 7C16.3011 6.61742 16.1364 6.27462 15.9318 5.97159C15.7311 5.66477 15.4905 5.40341 15.2102 5.1875C14.9337 4.97159 14.6193 4.80682 14.267 4.69318C13.9148 4.57955 13.5284 4.52273 13.108 4.52273C12.4186 4.52273 11.7917 4.70076 11.2273 5.05682C10.6629 5.41288 10.214 5.9375 9.88068 6.63068C9.54735 7.32386 9.38068 8.17424 9.38068 9.18182C9.38068 10.1894 9.54924 11.0398 9.88636 11.733C10.2235 12.4261 10.6799 12.9508 11.2557 13.3068C11.8314 13.6629 12.4792 13.8409 13.1989 13.8409C13.8655 13.8409 14.4527 13.6989 14.9602 13.4148C15.4716 13.1269 15.8693 12.7216 16.1534 12.1989C16.4413 11.6723 16.5852 11.053 16.5852 10.3409L17.017 10.4318H13.517V9.18182H17.9489V10.4318C17.9489 11.3902 17.7443 12.2235 17.3352 12.9318C16.9299 13.6402 16.3693 14.1894 15.6534 14.5795C14.9413 14.9659 14.1231 15.1591 13.1989 15.1591C12.1686 15.1591 11.2633 14.9167 10.483 14.4318C9.70644 13.947 9.10038 13.2576 8.66477 12.3636C8.23295 11.4697 8.01705 10.4091 8.01705 9.18182C8.01705 8.26136 8.14015 7.43371 8.38636 6.69886C8.63636 5.96023 8.98864 5.33144 9.44318 4.8125C9.89773 4.29356 10.4356 3.89583 11.0568 3.61932C11.678 3.3428 12.3617 3.20455 13.108 3.20455C13.7216 3.20455 14.2936 3.29735 14.8239 3.48295C15.358 3.66477 15.8333 3.92424 16.25 4.26136C16.6705 4.5947 17.0208 4.99432 17.3011 5.46023C17.5814 5.92235 17.7746 6.43561 17.8807 7H16.4261ZM24.5213 15L26.4304 3.36364H27.5668L25.6577 15H24.5213ZM19.2259 11.7727L19.4077 10.6364H28.0895L27.9077 11.7727H19.2259ZM20.4304 15L22.3395 3.36364H23.4759L21.5668 15H20.4304ZM19.9077 7.72727L20.0895 6.59091H28.7713L28.5895 7.72727H19.9077ZM30.2741 15V6.27273H31.5696V7.63636H31.6832C31.8651 7.17045 32.1586 6.80871 32.5639 6.55114C32.9692 6.28977 33.456 6.15909 34.0241 6.15909C34.5999 6.15909 35.0791 6.28977 35.4616 6.55114C35.848 6.80871 36.1491 7.17045 36.3651 7.63636H36.456C36.6795 7.18561 37.0147 6.82765 37.4616 6.5625C37.9086 6.29356 38.4446 6.15909 39.0696 6.15909C39.8499 6.15909 40.4882 6.40341 40.9844 6.89205C41.4806 7.37689 41.7287 8.13258 41.7287 9.15909V15H40.3878V9.15909C40.3878 8.51515 40.2116 8.05492 39.8594 7.77841C39.5071 7.50189 39.0923 7.36364 38.6151 7.36364C38.0014 7.36364 37.526 7.54924 37.1889 7.92045C36.8518 8.28788 36.6832 8.75379 36.6832 9.31818V15H35.3196V9.02273C35.3196 8.52652 35.1586 8.12689 34.8366 7.82386C34.5147 7.51705 34.0999 7.36364 33.5923 7.36364C33.2438 7.36364 32.9181 7.45644 32.6151 7.64205C32.3158 7.82765 32.0734 8.08523 31.8878 8.41477C31.706 8.74053 31.6151 9.11742 31.6151 9.54545V15H30.2741ZM48.0213 15.1591C47.544 15.1515 47.0668 15.0606 46.5895 14.8864C46.1122 14.7121 45.6766 14.4186 45.2827 14.0057C44.8887 13.589 44.5724 13.0265 44.3338 12.3182C44.0952 11.6061 43.9759 10.7121 43.9759 9.63636C43.9759 8.60606 44.0724 7.69318 44.2656 6.89773C44.4588 6.09848 44.7391 5.42614 45.1065 4.88068C45.474 4.33144 45.9171 3.91477 46.4361 3.63068C46.9588 3.34659 47.5478 3.20455 48.2031 3.20455C48.8546 3.20455 49.4342 3.33523 49.9418 3.59659C50.4531 3.85417 50.8698 4.21401 51.1918 4.67614C51.5137 5.13826 51.7221 5.67045 51.8168 6.27273H50.4304C50.3016 5.75 50.0516 5.31629 49.6804 4.97159C49.3092 4.62689 48.8168 4.45455 48.2031 4.45455C47.3016 4.45455 46.5914 4.84659 46.0724 5.63068C45.5573 6.41477 45.2978 7.51515 45.294 8.93182H45.3849C45.5971 8.60985 45.849 8.33523 46.1406 8.10795C46.4361 7.87689 46.7618 7.69886 47.1179 7.57386C47.474 7.44886 47.8509 7.38636 48.2486 7.38636C48.9152 7.38636 49.5251 7.55303 50.0781 7.88636C50.6312 8.21591 51.0743 8.67235 51.4077 9.25568C51.741 9.83523 51.9077 10.5 51.9077 11.25C51.9077 11.9697 51.7467 12.6288 51.4247 13.2273C51.1027 13.822 50.6501 14.2955 50.0668 14.6477C49.4872 14.9962 48.8054 15.1667 48.0213 15.1591ZM48.0213 13.9091C48.4986 13.9091 48.9266 13.7898 49.3054 13.5511C49.688 13.3125 49.9891 12.9924 50.2088 12.5909C50.4323 12.1894 50.544 11.7424 50.544 11.25C50.544 10.7689 50.4361 10.3314 50.2202 9.9375C50.008 9.53977 49.7145 9.22348 49.3395 8.98864C48.9683 8.75379 48.544 8.63636 48.0668 8.63636C47.7069 8.63636 47.3717 8.70833 47.0611 8.85227C46.7505 8.99242 46.4777 9.18561 46.2429 9.43182C46.0118 9.67803 45.83 9.96023 45.6974 10.2784C45.5649 10.5928 45.4986 10.9242 45.4986 11.2727C45.4986 11.7348 45.6065 12.1667 45.8224 12.5682C46.0421 12.9697 46.3414 13.2936 46.7202 13.5398C47.1027 13.786 47.5365 13.9091 48.0213 13.9091Z" fill="#F32851"/>
<path d="M43.5252 28.6195C43.8435 29.1626 43.8435 29.8374 43.5252 30.3805C42.6989 31.7909 41.7909 32.6989 40.3805 33.5252C39.8374 33.8435 39.1626 33.8435 38.6195 33.5252C37.2091 32.6989 36.3011 31.7909 35.4748 30.3805C35.1565 29.8374 35.1565 29.1626 35.4748 28.6195C36.3011 27.2091 37.2091 26.3011 38.6195 25.4748C39.1626 25.1565 39.8374 25.1565 40.3805 25.4748C41.7909 26.3011 42.6989 27.2091 43.5252 28.6195Z" fill="#F32851"/>
<path d="M8.52523 28.6195C8.84348 29.1626 8.84348 29.8374 8.52523 30.3805C7.69886 31.7909 6.79088 32.6989 5.38054 33.5252C4.83739 33.8435 4.16261 33.8435 3.61946 33.5252C2.20912 32.6989 1.30114 31.7909 0.474768 30.3805C0.15652 29.8374 0.15652 29.1626 0.474768 28.6195C1.30114 27.2091 2.20912 26.3011 3.61946 25.4748C4.16261 25.1565 4.83739 25.1565 5.38054 25.4748C6.79088 26.3011 7.69886 27.2091 8.52523 28.6195Z" fill="#F32851"/>
<path d="M26.5252 61.6195C26.8435 62.1626 26.8435 62.8374 26.5252 63.3805C25.6989 64.7909 24.7909 65.6989 23.3805 66.5252C22.8374 66.8435 22.1626 66.8435 21.6195 66.5252C20.2091 65.6989 19.3011 64.7909 18.4748 63.3805C18.1565 62.8374 18.1565 62.1626 18.4748 61.6195C19.3011 60.2091 20.2091 59.3011 21.6195 58.4748C22.1626 58.1565 22.8374 58.1565 23.3805 58.4748C24.7909 59.3011 25.6989 60.2091 26.5252 61.6195Z" fill="#F32851"/>
<path d="M59.5252 44.6195C59.8435 45.1626 59.8435 45.8374 59.5252 46.3805C58.6989 47.7909 57.7909 48.6989 56.3805 49.5252C55.8374 49.8435 55.1626 49.8435 54.6195 49.5252C53.2091 48.6989 52.3011 47.7909 51.4748 46.3805C51.1565 45.8374 51.1565 45.1626 51.4748 44.6195C52.3011 43.2091 53.2091 42.3011 54.6195 41.4748C55.1626 41.1565 55.8374 41.1565 56.3805 41.4748C57.7909 42.3011 58.6989 43.2091 59.5252 44.6195Z" fill="#F32851"/>
</svg>
