<svg width="60" height="106" viewBox="0 0 60 106" fill="none" xmlns="http://www.w3.org/2000/svg">
<rect x="4.5" y="21.5" width="51" height="84" rx="1.5" stroke="#535353"/>
<line x1="4" y1="37.4998" x2="56" y2="37.4998" stroke="#535353"/>
<line x1="4" y1="53.5" x2="56" y2="53.5" stroke="#535353"/>
<path d="M4 88H55" stroke="#535353"/>
<path d="M4 71H55.5" stroke="#535353"/>
<line x1="22.5" y1="21" x2="22.5" y2="106" stroke="#535353"/>
<path d="M39.5 21L39.5 106" stroke="#535353"/>
<path d="M12.702 7C12.5926 6.66525 12.4484 6.36529 12.2694 6.10014C12.0938 5.83168 11.8833 5.60298 11.6381 5.41406C11.3961 5.22514 11.121 5.08097 10.8128 4.98153C10.5045 4.8821 10.1665 4.83239 9.79856 4.83239C9.19534 4.83239 8.64681 4.98816 8.15297 5.29972C7.65912 5.61127 7.26636 6.07031 6.9747 6.67685C6.68303 7.28338 6.5372 8.02746 6.5372 8.90909C6.5372 9.79072 6.68469 10.5348 6.97967 11.1413C7.27465 11.7479 7.67404 12.2069 8.17782 12.5185C8.68161 12.83 9.24837 12.9858 9.87811 12.9858C10.4614 12.9858 10.9752 12.8615 11.4193 12.6129C11.8667 12.361 12.2148 12.0064 12.4633 11.549C12.7152 11.0883 12.8412 10.5464 12.8412 9.9233L13.219 10.0028H10.1565V8.90909H14.0344V10.0028C14.0344 10.8414 13.8554 11.5705 13.4974 12.1903C13.1428 12.8101 12.6523 13.2907 12.0258 13.6321C11.4027 13.9702 10.6868 14.1392 9.87811 14.1392C8.97659 14.1392 8.18445 13.9271 7.50169 13.5028C6.82224 13.0786 6.29193 12.4754 5.91078 11.6932C5.53294 10.911 5.34402 9.98295 5.34402 8.90909C5.34402 8.10369 5.45173 7.3795 5.66717 6.73651C5.88592 6.0902 6.19416 5.54001 6.59189 5.08594C6.98961 4.63187 7.46026 4.28385 8.00382 4.0419C8.54738 3.79995 9.14563 3.67898 9.79856 3.67898C10.3355 3.67898 10.836 3.76018 11.3 3.92258C11.7673 4.08168 12.1833 4.30871 12.5479 4.60369C12.9157 4.89536 13.2223 5.24503 13.4676 5.6527C13.7129 6.05705 13.8819 6.50616 13.9747 7H12.702ZM19.7852 14L21.4557 3.81818H22.45L20.7796 14H19.7852ZM15.1517 11.1761L15.3108 10.1818H22.9074L22.7483 11.1761H15.1517ZM16.2057 14L17.8762 3.81818H18.8705L17.2 14H16.2057ZM15.7483 7.63636L15.9074 6.64205H23.504L23.3449 7.63636H15.7483ZM30.2281 8.07386L29.1741 8.37216C29.1078 8.1965 29.01 8.0258 28.8808 7.86009C28.7548 7.69105 28.5825 7.55185 28.3637 7.44247C28.145 7.3331 27.8649 7.27841 27.5235 7.27841C27.0562 7.27841 26.6668 7.38613 26.3552 7.60156C26.047 7.81368 25.8928 8.08381 25.8928 8.41193C25.8928 8.7036 25.9989 8.93395 26.211 9.10298C26.4231 9.27202 26.7546 9.41288 27.2053 9.52557L28.3389 9.80398C29.0216 9.9697 29.5304 10.2232 29.8651 10.5646C30.1999 10.9027 30.3673 11.3385 30.3673 11.8722C30.3673 12.3097 30.2413 12.7008 29.9894 13.0455C29.7409 13.3902 29.3928 13.6619 28.9454 13.8608C28.498 14.0597 27.9776 14.1591 27.3843 14.1591C26.6054 14.1591 25.9608 13.9901 25.4504 13.652C24.94 13.3139 24.6168 12.8201 24.4809 12.1705L25.5945 11.892C25.7006 12.303 25.9011 12.6113 26.1961 12.8168C26.4944 13.0223 26.8838 13.125 27.3644 13.125C27.9113 13.125 28.3455 13.009 28.667 12.777C28.9918 12.5417 29.1542 12.2599 29.1542 11.9318C29.1542 11.6667 29.0614 11.4446 28.8758 11.2656C28.6902 11.0833 28.4052 10.9474 28.0207 10.858L26.748 10.5597C26.0486 10.3939 25.5349 10.1371 25.2068 9.78906C24.882 9.43774 24.7195 8.99858 24.7195 8.47159C24.7195 8.04072 24.8405 7.65956 25.0825 7.32812C25.3277 6.99669 25.6608 6.73651 26.0818 6.54758C26.506 6.35866 26.9866 6.2642 27.5235 6.2642C28.2792 6.2642 28.8725 6.42992 29.3034 6.76136C29.7375 7.0928 30.0458 7.5303 30.2281 8.07386ZM36.9459 10.8778V6.36364H38.1192V14H36.9459V12.7074H36.8664C36.6874 13.0952 36.409 13.425 36.0312 13.6967C35.6533 13.9652 35.176 14.0994 34.5993 14.0994C34.1221 14.0994 33.6978 13.995 33.3266 13.7862C32.9554 13.5741 32.6637 13.2559 32.4516 12.8317C32.2395 12.4041 32.1334 11.8655 32.1334 11.2159V6.36364H33.3067V11.1364C33.3067 11.6932 33.4625 12.1373 33.7741 12.4688C34.0889 12.8002 34.49 12.9659 34.9772 12.9659C35.2689 12.9659 35.5655 12.8913 35.8671 12.7422C36.172 12.593 36.4272 12.3643 36.6327 12.0561C36.8415 11.7479 36.9459 11.3551 36.9459 10.8778ZM45.6773 8.07386L44.6233 8.37216C44.557 8.1965 44.4593 8.0258 44.33 7.86009C44.204 7.69105 44.0317 7.55185 43.8129 7.44247C43.5942 7.3331 43.3141 7.27841 42.9727 7.27841C42.5054 7.27841 42.116 7.38613 41.8044 7.60156C41.4962 7.81368 41.3421 8.08381 41.3421 8.41193C41.3421 8.7036 41.4481 8.93395 41.6602 9.10298C41.8724 9.27202 42.2038 9.41288 42.6546 9.52557L43.7881 9.80398C44.4709 9.9697 44.9796 10.2232 45.3144 10.5646C45.6491 10.9027 45.8165 11.3385 45.8165 11.8722C45.8165 12.3097 45.6905 12.7008 45.4387 13.0455C45.1901 13.3902 44.8421 13.6619 44.3946 13.8608C43.9472 14.0597 43.4268 14.1591 42.8335 14.1591C42.0547 14.1591 41.41 13.9901 40.8996 13.652C40.3892 13.3139 40.066 12.8201 39.9301 12.1705L41.0438 11.892C41.1498 12.303 41.3503 12.6113 41.6453 12.8168C41.9436 13.0223 42.3331 13.125 42.8137 13.125C43.3605 13.125 43.7947 13.009 44.1162 12.777C44.441 12.5417 44.6034 12.2599 44.6034 11.9318C44.6034 11.6667 44.5106 11.4446 44.325 11.2656C44.1394 11.0833 43.8544 10.9474 43.4699 10.858L42.1972 10.5597C41.4978 10.3939 40.9841 10.1371 40.656 9.78906C40.3312 9.43774 40.1688 8.99858 40.1688 8.47159C40.1688 8.04072 40.2897 7.65956 40.5317 7.32812C40.777 6.99669 41.1101 6.73651 41.531 6.54758C41.9552 6.35866 42.4358 6.2642 42.9727 6.2642C43.7284 6.2642 44.3217 6.42992 44.7526 6.76136C45.1868 7.0928 45.495 7.5303 45.6773 8.07386ZM47.3241 11.9119V10.8977L51.7986 3.81818H52.5344V5.3892H52.0372L48.6565 10.7386V10.8182H54.6821V11.9119H47.3241ZM52.1167 14V11.6037V11.1314V3.81818H53.29V14H52.1167Z" fill="#F32851"/>
<path d="M26.5252 61.6195C26.8435 62.1626 26.8435 62.8374 26.5252 63.3805C25.6989 64.7909 24.7909 65.6989 23.3805 66.5252C22.8374 66.8435 22.1626 66.8435 21.6195 66.5252C20.2091 65.6989 19.3011 64.7909 18.4748 63.3805C18.1565 62.8374 18.1565 62.1626 18.4748 61.6195C19.3011 60.2091 20.2091 59.3011 21.6195 58.4748C22.1626 58.1565 22.8374 58.1565 23.3805 58.4748C24.7909 59.3011 25.6989 60.2091 26.5252 61.6195Z" fill="#F32851"/>
<path d="M43.5252 78.6195C43.8435 79.1626 43.8435 79.8374 43.5252 80.3805C42.6989 81.7909 41.7909 82.6989 40.3805 83.5252C39.8374 83.8435 39.1626 83.8435 38.6195 83.5252C37.2091 82.6989 36.3011 81.7909 35.4748 80.3805C35.1565 79.8374 35.1565 79.1626 35.4748 78.6195C36.3011 77.2091 37.2091 76.3011 38.6195 75.4748C39.1626 75.1565 39.8374 75.1565 40.3805 75.4748C41.7909 76.3011 42.6989 77.2091 43.5252 78.6195Z" fill="#F32851"/>
<path d="M59.5252 78.6195C59.8435 79.1626 59.8435 79.8374 59.5252 80.3805C58.6989 81.7909 57.7909 82.6989 56.3805 83.5252C55.8374 83.8435 55.1626 83.8435 54.6195 83.5252C53.2091 82.6989 52.3011 81.7909 51.4748 80.3805C51.1565 79.8374 51.1565 79.1626 51.4748 78.6195C52.3011 77.2091 53.2091 76.3011 54.6195 75.4748C55.1626 75.1565 55.8374 75.1565 56.3805 75.4748C57.7909 76.3011 58.6989 77.2091 59.5252 78.6195Z" fill="#F32851"/>
<path d="M8.52523 28.6195C8.84348 29.1626 8.84348 29.8374 8.52523 30.3805C7.69886 31.7909 6.79088 32.6989 5.38054 33.5252C4.83739 33.8435 4.16261 33.8435 3.61946 33.5252C2.20912 32.6989 1.30114 31.7909 0.474768 30.3805C0.15652 29.8374 0.15652 29.1626 0.474768 28.6195C1.30114 27.2091 2.20912 26.3011 3.61946 25.4748C4.16261 25.1565 4.83739 25.1565 5.38054 25.4748C6.79088 26.3011 7.69886 27.2091 8.52523 28.6195Z" fill="#F32851"/>
</svg>
