<svg width="56" height="106" viewBox="0 0 56 106" fill="none" xmlns="http://www.w3.org/2000/svg">
<rect x="4.5" y="21.5" width="51" height="84" rx="1.5" stroke="#535353"/>
<line x1="4" y1="37.4999" x2="56" y2="37.4999" stroke="#535353"/>
<line x1="4" y1="53.5" x2="56" y2="53.5" stroke="#535353"/>
<path d="M4 88H55" stroke="#535353"/>
<path d="M4 71H55.5" stroke="#535353"/>
<line x1="22.5" y1="21" x2="22.5" y2="106" stroke="#535353"/>
<path d="M39.5 21L39.5 106" stroke="#535353"/>
<path d="M21.6129 15H20.1357L24.4084 3.36364H25.8629L30.1357 15H28.6584L25.1811 5.20455H25.0902L21.6129 15ZM22.1584 10.4545H28.1129V11.7045H22.1584V10.4545ZM35.38 15.1591C34.7133 15.1591 34.1129 15.0265 33.5788 14.7614C33.0447 14.4962 32.6167 14.1326 32.2947 13.6705C31.9728 13.2083 31.7966 12.6818 31.7663 12.0909H33.13C33.183 12.6174 33.4216 13.053 33.8459 13.3977C34.2739 13.7386 34.7853 13.9091 35.38 13.9091C35.8572 13.9091 36.2815 13.7973 36.6527 13.5739C37.0277 13.3504 37.3213 13.0436 37.5334 12.6534C37.7493 12.2595 37.8572 11.8144 37.8572 11.3182C37.8572 10.8106 37.7455 10.358 37.522 9.96023C37.3023 9.55871 36.9993 9.24242 36.6129 9.01136C36.2266 8.7803 35.7853 8.66288 35.2891 8.65909C34.933 8.6553 34.5675 8.71023 34.1925 8.82386C33.8175 8.93371 33.5088 9.07576 33.2663 9.25L31.9482 9.09091L32.6527 3.36364H38.6982V4.61364H33.8345L33.4254 8.04545H33.4936C33.7322 7.85606 34.0315 7.69886 34.3913 7.57386C34.7512 7.44886 35.1262 7.38636 35.5163 7.38636C36.2285 7.38636 36.8629 7.55682 37.4197 7.89773C37.9804 8.23485 38.4197 8.69697 38.7379 9.28409C39.0599 9.87121 39.2209 10.5417 39.2209 11.2955C39.2209 12.0379 39.0542 12.7008 38.7209 13.2841C38.3913 13.8636 37.9368 14.322 37.3572 14.6591C36.7777 14.9924 36.1186 15.1591 35.38 15.1591Z" fill="#F32851"/>
<path d="M26.5252 78.6195C26.8435 79.1626 26.8435 79.8374 26.5252 80.3805C25.6989 81.7909 24.7909 82.6989 23.3805 83.5252C22.8374 83.8435 22.1626 83.8435 21.6195 83.5252C20.2091 82.6989 19.3011 81.7909 18.4748 80.3805C18.1565 79.8374 18.1565 79.1626 18.4748 78.6195C19.3011 77.2091 20.2091 76.3011 21.6195 75.4748C22.1626 75.1565 22.8374 75.1565 23.3805 75.4748C24.7909 76.3011 25.6989 77.2091 26.5252 78.6195Z" fill="#F32851"/>
<path d="M8.52523 44.6195C8.84348 45.1626 8.84348 45.8374 8.52523 46.3805C7.69886 47.7909 6.79088 48.6989 5.38054 49.5252C4.83739 49.8435 4.16261 49.8435 3.61946 49.5252C2.20912 48.6989 1.30114 47.7909 0.474768 46.3805C0.15652 45.8374 0.15652 45.1626 0.474768 44.6195C1.30114 43.2091 2.20912 42.3011 3.61946 41.4748C4.16261 41.1565 4.83739 41.1565 5.38054 41.4748C6.79088 42.3011 7.69886 43.2091 8.52523 44.6195Z" fill="#F32851"/>
</svg>
