<svg width="60" height="106" viewBox="0 0 60 106" fill="none" xmlns="http://www.w3.org/2000/svg">
<rect x="4.5" y="21.5" width="51" height="84" rx="1.5" stroke="#535353"/>
<line x1="4" y1="37.4999" x2="56" y2="37.4999" stroke="#535353"/>
<line x1="4" y1="53.5" x2="56" y2="53.5" stroke="#535353"/>
<path d="M4 88H55" stroke="#535353"/>
<path d="M4 71H55.5" stroke="#535353"/>
<line x1="22.5" y1="21" x2="22.5" y2="106" stroke="#535353"/>
<path d="M39.5 21L39.5 106" stroke="#535353"/>
<path d="M21.4879 15H20.0107L24.2834 3.36364H25.7379L30.0107 15H28.5334L25.0561 5.20455H24.9652L21.4879 15ZM22.0334 10.4545H27.9879V11.7045H22.0334V10.4545ZM35.4822 15.1591C35.005 15.1515 34.5277 15.0606 34.0504 14.8864C33.5732 14.7121 33.1375 14.4186 32.7436 14.0057C32.3497 13.589 32.0334 13.0265 31.7947 12.3182C31.5561 11.6061 31.4368 10.7121 31.4368 9.63636C31.4368 8.60606 31.5334 7.69318 31.7266 6.89773C31.9197 6.09848 32.2 5.42614 32.5675 4.88068C32.9349 4.33144 33.3781 3.91477 33.897 3.63068C34.4197 3.34659 35.0088 3.20455 35.6641 3.20455C36.3156 3.20455 36.8951 3.33523 37.4027 3.59659C37.9141 3.85417 38.3307 4.21401 38.6527 4.67614C38.9747 5.13826 39.183 5.67045 39.2777 6.27273H37.8913C37.7625 5.75 37.5125 5.31629 37.1413 4.97159C36.7701 4.62689 36.2777 4.45455 35.6641 4.45455C34.7625 4.45455 34.0523 4.84659 33.5334 5.63068C33.0182 6.41477 32.7588 7.51515 32.755 8.93182H32.8459C33.058 8.60985 33.3099 8.33523 33.6016 8.10795C33.897 7.87689 34.2228 7.69886 34.5788 7.57386C34.9349 7.44886 35.3118 7.38636 35.7095 7.38636C36.3762 7.38636 36.986 7.55303 37.5391 7.88636C38.0921 8.21591 38.5353 8.67235 38.8686 9.25568C39.2019 9.83523 39.3686 10.5 39.3686 11.25C39.3686 11.9697 39.2076 12.6288 38.8857 13.2273C38.5637 13.822 38.111 14.2955 37.5277 14.6477C36.9482 14.9962 36.2663 15.1667 35.4822 15.1591ZM35.4822 13.9091C35.9595 13.9091 36.3875 13.7898 36.7663 13.5511C37.1489 13.3125 37.45 12.9924 37.6697 12.5909C37.8932 12.1894 38.005 11.7424 38.005 11.25C38.005 10.7689 37.897 10.3314 37.6811 9.9375C37.469 9.53977 37.1754 9.22348 36.8004 8.98864C36.4292 8.75379 36.005 8.63636 35.5277 8.63636C35.1679 8.63636 34.8326 8.70833 34.522 8.85227C34.2114 8.99242 33.9387 9.18561 33.7038 9.43182C33.4728 9.67803 33.291 9.96023 33.1584 10.2784C33.0258 10.5928 32.9595 10.9242 32.9595 11.2727C32.9595 11.7348 33.0675 12.1667 33.2834 12.5682C33.5031 12.9697 33.8023 13.2936 34.1811 13.5398C34.5637 13.786 34.9974 13.9091 35.4822 13.9091Z" fill="#F32851"/>
<path d="M43.5252 44.6195C43.8435 45.1626 43.8435 45.8374 43.5252 46.3805C42.6989 47.7909 41.7909 48.6989 40.3805 49.5252C39.8374 49.8435 39.1626 49.8435 38.6195 49.5252C37.2091 48.6989 36.3011 47.7909 35.4748 46.3805C35.1565 45.8374 35.1565 45.1626 35.4748 44.6195C36.3011 43.2091 37.2091 42.3011 38.6195 41.4748C39.1626 41.1565 39.8374 41.1565 40.3805 41.4748C41.7909 42.3011 42.6989 43.2091 43.5252 44.6195Z" fill="#F32851"/>
<path d="M26.5252 78.6195C26.8435 79.1626 26.8435 79.8374 26.5252 80.3805C25.6989 81.7909 24.7909 82.6989 23.3805 83.5252C22.8374 83.8435 22.1626 83.8435 21.6195 83.5252C20.2091 82.6989 19.3011 81.7909 18.4748 80.3805C18.1565 79.8374 18.1565 79.1626 18.4748 78.6195C19.3011 77.2091 20.2091 76.3011 21.6195 75.4748C22.1626 75.1565 22.8374 75.1565 23.3805 75.4748C24.7909 76.3011 25.6989 77.2091 26.5252 78.6195Z" fill="#F32851"/>
<path d="M59.5252 78.6195C59.8435 79.1626 59.8435 79.8374 59.5252 80.3805C58.6989 81.7909 57.7909 82.6989 56.3805 83.5252C55.8374 83.8435 55.1626 83.8435 54.6195 83.5252C53.2091 82.6989 52.3011 81.7909 51.4748 80.3805C51.1565 79.8374 51.1565 79.1626 51.4748 78.6195C52.3011 77.2091 53.2091 76.3011 54.6195 75.4748C55.1626 75.1565 55.8374 75.1565 56.3805 75.4748C57.7909 76.3011 58.6989 77.2091 59.5252 78.6195Z" fill="#F32851"/>
<path d="M8.52523 44.6195C8.84348 45.1626 8.84348 45.8374 8.52523 46.3805C7.69886 47.7909 6.79088 48.6989 5.38054 49.5252C4.83739 49.8435 4.16261 49.8435 3.61946 49.5252C2.20912 48.6989 1.30114 47.7909 0.474768 46.3805C0.15652 45.8374 0.15652 45.1626 0.474768 44.6195C1.30114 43.2091 2.20912 42.3011 3.61946 41.4748C4.16261 41.1565 4.83739 41.1565 5.38054 41.4748C6.79088 42.3011 7.69886 43.2091 8.52523 44.6195Z" fill="#F32851"/>
</svg>
