<svg width="56" height="106" viewBox="0 0 56 106" fill="none" xmlns="http://www.w3.org/2000/svg">
<rect x="0.5" y="21.5" width="51" height="84" rx="1.5" stroke="#535353"/>
<line y1="37.4999" x2="52" y2="37.4999" stroke="#535353"/>
<line y1="53.5" x2="52" y2="53.5" stroke="#535353"/>
<path d="M0 88H51" stroke="#535353"/>
<path d="M0 71H51.5" stroke="#535353"/>
<line x1="18.5" y1="21" x2="18.5" y2="106" stroke="#535353"/>
<path d="M35.5 21L35.5 106" stroke="#535353"/>
<path d="M10.5348 15H9.05753L13.3303 3.36364H14.7848L19.0575 15H17.5803L14.103 5.20455H14.0121L10.5348 15ZM11.0803 10.4545H17.0348V11.7045H11.0803V10.4545ZM20.6882 15V6.27273H21.9837V7.63636H22.0973C22.2791 7.17045 22.5727 6.80871 22.978 6.55114C23.3833 6.28977 23.87 6.15909 24.4382 6.15909C25.014 6.15909 25.4931 6.28977 25.8757 6.55114C26.2621 6.80871 26.5632 7.17045 26.7791 7.63636H26.87C27.0935 7.18561 27.4287 6.82765 27.8757 6.5625C28.3227 6.29356 28.8587 6.15909 29.4837 6.15909C30.264 6.15909 30.9022 6.40341 31.3984 6.89205C31.8947 7.37689 32.1428 8.13258 32.1428 9.15909V15H30.8018V9.15909C30.8018 8.51515 30.6257 8.05492 30.2734 7.77841C29.9212 7.50189 29.5064 7.36364 29.0291 7.36364C28.4155 7.36364 27.9401 7.54924 27.603 7.92045C27.2659 8.28788 27.0973 8.75379 27.0973 9.31818V15H25.7337V9.02273C25.7337 8.52652 25.5727 8.12689 25.2507 7.82386C24.9287 7.51705 24.514 7.36364 24.0064 7.36364C23.6579 7.36364 23.3321 7.45644 23.0291 7.64205C22.7299 7.82765 22.4875 8.08523 22.3018 8.41477C22.12 8.74053 22.0291 9.11742 22.0291 9.54545V15H20.6882ZM38.2763 3.20455C38.7536 3.20833 39.2308 3.29924 39.7081 3.47727C40.1854 3.6553 40.621 3.95076 41.0149 4.36364C41.4089 4.77273 41.7251 5.33144 41.9638 6.03977C42.2024 6.74811 42.3217 7.63636 42.3217 8.70455C42.3217 9.73864 42.2232 10.6572 42.0263 11.4602C41.8331 12.2595 41.5528 12.9337 41.1854 13.483C40.8217 14.0322 40.3786 14.4489 39.8558 14.733C39.3369 15.017 38.7498 15.1591 38.0945 15.1591C37.4429 15.1591 36.8615 15.0303 36.3501 14.7727C35.8426 14.5114 35.4259 14.1496 35.1001 13.6875C34.7782 13.2216 34.5717 12.6818 34.4808 12.0682H35.8672C35.9922 12.6023 36.2403 13.0436 36.6115 13.392C36.9865 13.7367 37.4808 13.9091 38.0945 13.9091C38.9922 13.9091 39.7005 13.517 40.2195 12.733C40.7422 11.9489 41.0036 10.8409 41.0036 9.40909H40.9126C40.7005 9.72727 40.4486 10.0019 40.157 10.233C39.8653 10.464 39.5414 10.642 39.1854 10.767C38.8293 10.892 38.4505 10.9545 38.049 10.9545C37.3823 10.9545 36.7706 10.7898 36.2138 10.4602C35.6607 10.1269 35.2176 9.67045 34.8842 9.09091C34.5547 8.50758 34.3899 7.84091 34.3899 7.09091C34.3899 6.37879 34.549 5.72727 34.8672 5.13636C35.1892 4.54167 35.6399 4.06818 36.2195 3.71591C36.8028 3.36364 37.4884 3.19318 38.2763 3.20455ZM38.2763 4.45455C37.799 4.45455 37.3691 4.57386 36.9865 4.8125C36.6077 5.04735 36.3066 5.36553 36.0831 5.76705C35.8634 6.16477 35.7536 6.60606 35.7536 7.09091C35.7536 7.57576 35.8596 8.01705 36.0717 8.41477C36.2876 8.80871 36.5812 9.12311 36.9524 9.35795C37.3274 9.58902 37.7536 9.70455 38.2308 9.70455C38.5907 9.70455 38.9259 9.63447 39.2365 9.49432C39.5471 9.35038 39.8179 9.1553 40.049 8.90909C40.2839 8.65909 40.4676 8.37689 40.6001 8.0625C40.7327 7.74432 40.799 7.41288 40.799 7.06818C40.799 6.61364 40.6892 6.1875 40.4695 5.78977C40.2536 5.39205 39.9543 5.07008 39.5717 4.82386C39.1929 4.57765 38.7611 4.45455 38.2763 4.45455Z" fill="#F32851"/>
<path d="M55.5252 44.6195C55.8435 45.1626 55.8435 45.8374 55.5252 46.3805C54.6989 47.7909 53.7909 48.6989 52.3805 49.5252C51.8374 49.8435 51.1626 49.8435 50.6195 49.5252C49.2091 48.6989 48.3011 47.7909 47.4748 46.3805C47.1565 45.8374 47.1565 45.1626 47.4748 44.6195C48.3011 43.2091 49.2091 42.3011 50.6195 41.4748C51.1626 41.1565 51.8374 41.1565 52.3805 41.4748C53.7909 42.3011 54.6989 43.2091 55.5252 44.6195Z" fill="#F32851"/>
<path d="M39.5252 95.6195C39.8435 96.1626 39.8435 96.8374 39.5252 97.3805C38.6989 98.7909 37.7909 99.6989 36.3805 100.525C35.8374 100.843 35.1626 100.843 34.6195 100.525C33.2091 99.6989 32.3011 98.7909 31.4748 97.3805C31.1565 96.8374 31.1565 96.1626 31.4748 95.6195C32.3011 94.2091 33.2091 93.3011 34.6195 92.4748C35.1626 92.1565 35.8374 92.1565 36.3805 92.4748C37.7909 93.3011 38.6989 94.2091 39.5252 95.6195Z" fill="#F32851"/>
</svg>
