<svg width="60" height="106" viewBox="0 0 60 106" fill="none" xmlns="http://www.w3.org/2000/svg">
<rect x="4.5" y="21.5" width="51" height="84" rx="1.5" stroke="#535353"/>
<line x1="4" y1="37.4999" x2="56" y2="37.4999" stroke="#535353"/>
<line x1="4" y1="53.5" x2="56" y2="53.5" stroke="#535353"/>
<path d="M4 88H55" stroke="#535353"/>
<path d="M4 71H55.5" stroke="#535353"/>
<line x1="22.5" y1="21" x2="22.5" y2="106" stroke="#535353"/>
<path d="M39.5 21L39.5 106" stroke="#535353"/>
<path d="M16.4411 15H14.9638L19.2365 3.36364H20.6911L24.9638 15H23.4865L20.0092 5.20455H19.9183L16.4411 15ZM16.9865 10.4545H22.9411V11.7045H16.9865V10.4545ZM30.9354 15L32.8445 3.36364H33.9808L32.0717 15H30.9354ZM25.6399 11.7727L25.8217 10.6364H34.5036L34.3217 11.7727H25.6399ZM26.8445 15L28.7536 3.36364H29.8899L27.9808 15H26.8445ZM26.3217 7.72727L26.5036 6.59091H35.1854L35.0036 7.72727H26.3217ZM40.37 3.20455C40.8473 3.20833 41.3246 3.29924 41.8018 3.47727C42.2791 3.6553 42.7147 3.95076 43.1087 4.36364C43.5026 4.77273 43.8189 5.33144 44.0575 6.03977C44.2962 6.74811 44.4155 7.63636 44.4155 8.70455C44.4155 9.73864 44.317 10.6572 44.12 11.4602C43.9268 12.2595 43.6465 12.9337 43.2791 13.483C42.9155 14.0322 42.4723 14.4489 41.9496 14.733C41.4306 15.017 40.8435 15.1591 40.1882 15.1591C39.5367 15.1591 38.9553 15.0303 38.4439 14.7727C37.9363 14.5114 37.5196 14.1496 37.1939 13.6875C36.8719 13.2216 36.6655 12.6818 36.5746 12.0682H37.9609C38.0859 12.6023 38.334 13.0436 38.7053 13.392C39.0803 13.7367 39.5746 13.9091 40.1882 13.9091C41.0859 13.9091 41.7943 13.517 42.3132 12.733C42.8359 11.9489 43.0973 10.8409 43.0973 9.40909H43.0064C42.7943 9.72727 42.5424 10.0019 42.2507 10.233C41.959 10.464 41.6352 10.642 41.2791 10.767C40.9231 10.892 40.5443 10.9545 40.1428 10.9545C39.4761 10.9545 38.8643 10.7898 38.3075 10.4602C37.7545 10.1269 37.3113 9.67045 36.978 9.09091C36.6484 8.50758 36.4837 7.84091 36.4837 7.09091C36.4837 6.37879 36.6428 5.72727 36.9609 5.13636C37.2829 4.54167 37.7337 4.06818 38.3132 3.71591C38.8965 3.36364 39.5821 3.19318 40.37 3.20455ZM40.37 4.45455C39.8928 4.45455 39.4628 4.57386 39.0803 4.8125C38.7015 5.04735 38.4003 5.36553 38.1768 5.76705C37.9571 6.16477 37.8473 6.60606 37.8473 7.09091C37.8473 7.57576 37.9534 8.01705 38.1655 8.41477C38.3814 8.80871 38.675 9.12311 39.0462 9.35795C39.4212 9.58902 39.8473 9.70455 40.3246 9.70455C40.6844 9.70455 41.0196 9.63447 41.3303 9.49432C41.6409 9.35038 41.9117 9.1553 42.1428 8.90909C42.3776 8.65909 42.5613 8.37689 42.6939 8.0625C42.8265 7.74432 42.8928 7.41288 42.8928 7.06818C42.8928 6.61364 42.7829 6.1875 42.5632 5.78977C42.3473 5.39205 42.0481 5.07008 41.6655 4.82386C41.2867 4.57765 40.8549 4.45455 40.37 4.45455Z" fill="#F32851"/>
<path d="M43.5252 78.6195C43.8435 79.1626 43.8435 79.8374 43.5252 80.3805C42.6989 81.7909 41.7909 82.6989 40.3805 83.5252C39.8374 83.8435 39.1626 83.8435 38.6195 83.5252C37.2091 82.6989 36.3011 81.7909 35.4748 80.3805C35.1565 79.8374 35.1565 79.1626 35.4748 78.6195C36.3011 77.2091 37.2091 76.3011 38.6195 75.4748C39.1626 75.1565 39.8374 75.1565 40.3805 75.4748C41.7909 76.3011 42.6989 77.2091 43.5252 78.6195Z" fill="#F32851"/>
<path d="M59.5252 95.6195C59.8435 96.1626 59.8435 96.8374 59.5252 97.3805C58.6989 98.7909 57.7909 99.6989 56.3805 100.525C55.8374 100.843 55.1626 100.843 54.6195 100.525C53.2091 99.6989 52.3011 98.7909 51.4748 97.3805C51.1565 96.8374 51.1565 96.1626 51.4748 95.6195C52.3011 94.2091 53.2091 93.3011 54.6195 92.4748C55.1626 92.1565 55.8374 92.1565 56.3805 92.4748C57.7909 93.3011 58.6989 94.2091 59.5252 95.6195Z" fill="#F32851"/>
<path d="M8.52523 61.6195C8.84348 62.1626 8.84348 62.8374 8.52523 63.3805C7.69886 64.7909 6.79088 65.6989 5.38054 66.5252C4.83739 66.8435 4.16261 66.8435 3.61946 66.5252C2.20912 65.6989 1.30114 64.7909 0.474768 63.3805C0.15652 62.8374 0.15652 62.1626 0.474768 61.6195C1.30114 60.2091 2.20912 59.3011 3.61946 58.4748C4.16261 58.1565 4.83739 58.1565 5.38054 58.4748C6.79088 59.3011 7.69886 60.2091 8.52523 61.6195Z" fill="#F32851"/>
</svg>
