<svg width="59" height="106" viewBox="0 0 59 106" fill="none" xmlns="http://www.w3.org/2000/svg">
<rect x="4.5" y="21.5" width="51" height="84" rx="1.5" stroke="#535353"/>
<line x1="4" y1="37.4999" x2="56" y2="37.4999" stroke="#535353"/>
<line x1="4" y1="53.5" x2="56" y2="53.5" stroke="#535353"/>
<path d="M4 88H55" stroke="#535353"/>
<path d="M4 71H55.5" stroke="#535353"/>
<line x1="22.5" y1="21" x2="22.5" y2="106" stroke="#535353"/>
<path d="M39.5 21L39.5 106" stroke="#535353"/>
<path d="M14.4801 15H13.0028L17.2756 3.36364H18.7301L23.0028 15H21.5256L18.0483 5.20455H17.9574L14.4801 15ZM15.0256 10.4545H20.9801V11.7045H15.0256V10.4545ZM28.9744 15L30.8835 3.36364H32.0199L30.1108 15H28.9744ZM23.679 11.7727L23.8608 10.6364H32.5426L32.3608 11.7727H23.679ZM24.8835 15L26.7926 3.36364H27.929L26.0199 15H24.8835ZM24.3608 7.72727L24.5426 6.59091H33.2244L33.0426 7.72727H24.3608ZM34.7273 15V6.27273H36.0227V7.63636H36.1364C36.3182 7.17045 36.6117 6.80871 37.017 6.55114C37.4223 6.28977 37.9091 6.15909 38.4773 6.15909C39.053 6.15909 39.5322 6.28977 39.9148 6.55114C40.3011 6.80871 40.6023 7.17045 40.8182 7.63636H40.9091C41.1326 7.18561 41.4678 6.82765 41.9148 6.5625C42.3617 6.29356 42.8977 6.15909 43.5227 6.15909C44.303 6.15909 44.9413 6.40341 45.4375 6.89205C45.9337 7.37689 46.1818 8.13258 46.1818 9.15909V15H44.8409V9.15909C44.8409 8.51515 44.6648 8.05492 44.3125 7.77841C43.9602 7.50189 43.5455 7.36364 43.0682 7.36364C42.4545 7.36364 41.9792 7.54924 41.642 7.92045C41.3049 8.28788 41.1364 8.75379 41.1364 9.31818V15H39.7727V9.02273C39.7727 8.52652 39.6117 8.12689 39.2898 7.82386C38.9678 7.51705 38.553 7.36364 38.0455 7.36364C37.697 7.36364 37.3712 7.45644 37.0682 7.64205C36.7689 7.82765 36.5265 8.08523 36.3409 8.41477C36.1591 8.74053 36.0682 9.11742 36.0682 9.54545V15H34.7273Z" fill="#F32851"/>
<path d="M8.52523 61.6195C8.84348 62.1626 8.84348 62.8374 8.52523 63.3805C7.69886 64.7909 6.79088 65.6989 5.38054 66.5252C4.83739 66.8435 4.16261 66.8435 3.61946 66.5252C2.20912 65.6989 1.30114 64.7909 0.474768 63.3805C0.15652 62.8374 0.15652 62.1626 0.474768 61.6195C1.30114 60.2091 2.20912 59.3011 3.61946 58.4748C4.16261 58.1565 4.83739 58.1565 5.38054 58.4748C6.79088 59.3011 7.69886 60.2091 8.52523 61.6195Z" fill="#F32851"/>
<path d="M4 29H56" stroke="#F32851" stroke-width="5" stroke-linecap="round"/>
</svg>
