<svg width="58" height="106" viewBox="0 0 58 106" fill="none" xmlns="http://www.w3.org/2000/svg">
<rect x="3.5" y="21.5" width="51" height="84" rx="1.5" stroke="#535353"/>
<line x1="3" y1="37.4999" x2="55" y2="37.4999" stroke="#535353"/>
<line x1="3" y1="53.5" x2="55" y2="53.5" stroke="#535353"/>
<path d="M3 88H54" stroke="#535353"/>
<path d="M3 71H54.5" stroke="#535353"/>
<line x1="21.5" y1="21" x2="21.5" y2="106" stroke="#535353"/>
<path d="M38.5 21L38.5 106" stroke="#535353"/>
<path d="M3 29H55" stroke="#F32851" stroke-width="5" stroke-linecap="round"/>
<path d="M8.9098 15H7.43253L11.7053 3.36364H13.1598L17.4325 15H15.9553L12.478 5.20455H12.3871L8.9098 15ZM9.45526 10.4545H15.4098V11.7045H9.45526V10.4545ZM23.4041 15L25.3132 3.36364H26.4496L24.5405 15H23.4041ZM18.1087 11.7727L18.2905 10.6364H26.9723L26.7905 11.7727H18.1087ZM19.3132 15L21.2223 3.36364H22.3587L20.4496 15H19.3132ZM18.7905 7.72727L18.9723 6.59091H27.6541L27.4723 7.72727H18.7905ZM29.157 15V6.27273H30.4524V7.63636H30.5661C30.7479 7.17045 31.0414 6.80871 31.4467 6.55114C31.852 6.28977 32.3388 6.15909 32.907 6.15909C33.4827 6.15909 33.9619 6.28977 34.3445 6.55114C34.7308 6.80871 35.032 7.17045 35.2479 7.63636H35.3388C35.5623 7.18561 35.8975 6.82765 36.3445 6.5625C36.7914 6.29356 37.3274 6.15909 37.9524 6.15909C38.7327 6.15909 39.371 6.40341 39.8672 6.89205C40.3634 7.37689 40.6115 8.13258 40.6115 9.15909V15H39.2706V9.15909C39.2706 8.51515 39.0945 8.05492 38.7422 7.77841C38.3899 7.50189 37.9751 7.36364 37.4979 7.36364C36.8842 7.36364 36.4089 7.54924 36.0717 7.92045C35.7346 8.28788 35.5661 8.75379 35.5661 9.31818V15H34.2024V9.02273C34.2024 8.52652 34.0414 8.12689 33.7195 7.82386C33.3975 7.51705 32.9827 7.36364 32.4751 7.36364C32.1267 7.36364 31.8009 7.45644 31.4979 7.64205C31.1986 7.82765 30.9562 8.08523 30.7706 8.41477C30.5888 8.74053 30.4979 9.11742 30.4979 9.54545V15H29.157ZM43.4041 15L48.6087 4.70455V4.61364H42.6087V3.36364H50.0632V4.68182L44.8814 15H43.4041Z" fill="#F32851"/>
</svg>
