<svg width="59" height="106" viewBox="0 0 59 106" fill="none" xmlns="http://www.w3.org/2000/svg">
<rect x="4.5" y="21.5" width="51" height="84" rx="1.5" stroke="#535353"/>
<line x1="4" y1="37.4999" x2="56" y2="37.4999" stroke="#535353"/>
<line x1="4" y1="53.5" x2="56" y2="53.5" stroke="#535353"/>
<path d="M4 88H55" stroke="#535353"/>
<path d="M4 71H55.5" stroke="#535353"/>
<line x1="22.5" y1="21" x2="22.5" y2="106" stroke="#535353"/>
<path d="M39.5 21L39.5 106" stroke="#535353"/>
<path d="M6.63104 14H5.33842L9.07706 3.81818H10.3498L14.0884 14H12.7958L9.7532 5.42898H9.67365L6.63104 14ZM7.10831 10.0227H12.3185V11.1165H7.10831V10.0227ZM19.3136 14L20.984 3.81818H21.9783L20.3079 14H19.3136ZM14.68 11.1761L14.8391 10.1818H22.4357L22.2766 11.1761H14.68ZM15.734 14L17.4045 3.81818H18.3988L16.7283 14H15.734ZM15.2766 7.63636L15.4357 6.64205H23.0323L22.8732 7.63636H15.2766ZM29.7564 8.07386L28.7024 8.37216C28.6361 8.1965 28.5384 8.0258 28.4091 7.86009C28.2831 7.69105 28.1108 7.55185 27.892 7.44247C27.6733 7.3331 27.3932 7.27841 27.0518 7.27841C26.5845 7.27841 26.1951 7.38613 25.8835 7.60156C25.5753 7.81368 25.4212 8.08381 25.4212 8.41193C25.4212 8.7036 25.5272 8.93395 25.7393 9.10298C25.9515 9.27202 26.2829 9.41288 26.7337 9.52557L27.8672 9.80398C28.55 9.9697 29.0587 10.2232 29.3935 10.5646C29.7282 10.9027 29.8956 11.3385 29.8956 11.8722C29.8956 12.3097 29.7696 12.7008 29.5178 13.0455C29.2692 13.3902 28.9212 13.6619 28.4737 13.8608C28.0263 14.0597 27.5059 14.1591 26.9126 14.1591C26.1338 14.1591 25.4891 13.9901 24.9787 13.652C24.4683 13.3139 24.1451 12.8201 24.0092 12.1705L25.1229 11.892C25.2289 12.303 25.4295 12.6113 25.7244 12.8168C26.0227 13.0223 26.4122 13.125 26.8928 13.125C27.4396 13.125 27.8738 13.009 28.1953 12.777C28.5201 12.5417 28.6825 12.2599 28.6825 11.9318C28.6825 11.6667 28.5897 11.4446 28.4041 11.2656C28.2185 11.0833 27.9335 10.9474 27.549 10.858L26.2763 10.5597C25.5769 10.3939 25.0632 10.1371 24.7351 9.78906C24.4103 9.43774 24.2479 8.99858 24.2479 8.47159C24.2479 8.04072 24.3688 7.65956 24.6108 7.32812C24.8561 6.99669 25.1892 6.73651 25.6101 6.54758C26.0343 6.35866 26.5149 6.2642 27.0518 6.2642C27.8075 6.2642 28.4008 6.42992 28.8317 6.76136C29.2659 7.0928 29.5741 7.5303 29.7564 8.07386ZM36.4743 10.8778V6.36364H37.6475V14H36.4743V12.7074H36.3947C36.2157 13.0952 35.9373 13.425 35.5595 13.6967C35.1816 13.9652 34.7044 14.0994 34.1277 14.0994C33.6504 14.0994 33.2261 13.995 32.8549 13.7862C32.4837 13.5741 32.1921 13.2559 31.9799 12.8317C31.7678 12.4041 31.6618 11.8655 31.6618 11.2159V6.36364H32.835V11.1364C32.835 11.6932 32.9908 12.1373 33.3024 12.4688C33.6172 12.8002 34.0183 12.9659 34.5055 12.9659C34.7972 12.9659 35.0938 12.8913 35.3954 12.7422C35.7003 12.593 35.9556 12.3643 36.161 12.0561C36.3699 11.7479 36.4743 11.3551 36.4743 10.8778ZM45.2056 8.07386L44.1516 8.37216C44.0853 8.1965 43.9876 8.0258 43.8583 7.86009C43.7324 7.69105 43.56 7.55185 43.3413 7.44247C43.1225 7.3331 42.8424 7.27841 42.5011 7.27841C42.0337 7.27841 41.6443 7.38613 41.3327 7.60156C41.0245 7.81368 40.8704 8.08381 40.8704 8.41193C40.8704 8.7036 40.9764 8.93395 41.1886 9.10298C41.4007 9.27202 41.7321 9.41288 42.1829 9.52557L43.3164 9.80398C43.9992 9.9697 44.5079 10.2232 44.8427 10.5646C45.1774 10.9027 45.3448 11.3385 45.3448 11.8722C45.3448 12.3097 45.2189 12.7008 44.967 13.0455C44.7184 13.3902 44.3704 13.6619 43.9229 13.8608C43.4755 14.0597 42.9551 14.1591 42.3619 14.1591C41.583 14.1591 40.9383 13.9901 40.4279 13.652C39.9175 13.3139 39.5943 12.8201 39.4585 12.1705L40.5721 11.892C40.6781 12.303 40.8787 12.6113 41.1737 12.8168C41.4719 13.0223 41.8614 13.125 42.342 13.125C42.8888 13.125 43.323 13.009 43.6445 12.777C43.9693 12.5417 44.1317 12.2599 44.1317 11.9318C44.1317 11.6667 44.0389 11.4446 43.8533 11.2656C43.6677 11.0833 43.3827 10.9474 42.9982 10.858L41.7255 10.5597C41.0262 10.3939 40.5124 10.1371 40.1843 9.78906C39.8595 9.43774 39.6971 8.99858 39.6971 8.47159C39.6971 8.04072 39.8181 7.65956 40.06 7.32812C40.3053 6.99669 40.6384 6.73651 41.0593 6.54758C41.4835 6.35866 41.9641 6.2642 42.5011 6.2642C43.2567 6.2642 43.85 6.42992 44.2809 6.76136C44.7151 7.0928 45.0233 7.5303 45.2056 8.07386ZM46.8525 11.9119V10.8977L51.3269 3.81818H52.0627V5.3892H51.5655L48.1848 10.7386V10.8182H54.2104V11.9119H46.8525ZM51.6451 14V11.6037V11.1314V3.81818H52.8184V14H51.6451Z" fill="#F32851"/>
<path d="M26.5252 61.6195C26.8435 62.1626 26.8435 62.8374 26.5252 63.3805C25.6989 64.7909 24.7909 65.6989 23.3805 66.5252C22.8374 66.8435 22.1626 66.8435 21.6195 66.5252C20.2091 65.6989 19.3011 64.7909 18.4748 63.3805C18.1565 62.8374 18.1565 62.1626 18.4748 61.6195C19.3011 60.2091 20.2091 59.3011 21.6195 58.4748C22.1626 58.1565 22.8374 58.1565 23.3805 58.4748C24.7909 59.3011 25.6989 60.2091 26.5252 61.6195Z" fill="#F32851"/>
<path d="M8.52523 61.6195C8.84348 62.1626 8.84348 62.8374 8.52523 63.3805C7.69886 64.7909 6.79088 65.6989 5.38054 66.5252C4.83739 66.8435 4.16261 66.8435 3.61946 66.5252C2.20912 65.6989 1.30114 64.7909 0.474768 63.3805C0.15652 62.8374 0.15652 62.1626 0.474768 61.6195C1.30114 60.2091 2.20912 59.3011 3.61946 58.4748C4.16261 58.1565 4.83739 58.1565 5.38054 58.4748C6.79088 59.3011 7.69886 60.2091 8.52523 61.6195Z" fill="#F32851"/>
<path d="M4 29H56" stroke="#F32851" stroke-width="5" stroke-linecap="round"/>
</svg>
