<svg width="56" height="106" viewBox="0 0 56 106" fill="none" xmlns="http://www.w3.org/2000/svg">
<rect x="4.5" y="21.5" width="51" height="84" rx="1.5" stroke="#535353"/>
<line x1="4" y1="37.4999" x2="56" y2="37.4999" stroke="#535353"/>
<line x1="4" y1="53.5" x2="56" y2="53.5" stroke="#535353"/>
<path d="M4 88H55" stroke="#535353"/>
<path d="M4 71H55.5" stroke="#535353"/>
<line x1="22.5" y1="21" x2="22.5" y2="106" stroke="#535353"/>
<path d="M39.5 21L39.5 106" stroke="#535353"/>
<path d="M8.33949 15H6.86222L11.1349 3.36364H12.5895L16.8622 15H15.3849L11.9077 5.20455H11.8168L8.33949 15ZM8.88494 10.4545H14.8395V11.7045H8.88494V10.4545ZM24.6747 8.22727L23.4702 8.56818C23.3944 8.36742 23.2827 8.17235 23.1349 7.98295C22.991 7.78977 22.794 7.63068 22.544 7.50568C22.294 7.38068 21.974 7.31818 21.5838 7.31818C21.0497 7.31818 20.6046 7.44129 20.2486 7.6875C19.8963 7.92992 19.7202 8.23864 19.7202 8.61364C19.7202 8.94697 19.8414 9.21023 20.0838 9.40341C20.3262 9.59659 20.705 9.75758 21.2202 9.88636L22.5156 10.2045C23.2959 10.3939 23.8774 10.6837 24.2599 11.0739C24.6425 11.4602 24.8338 11.9583 24.8338 12.5682C24.8338 13.0682 24.6899 13.5152 24.402 13.9091C24.1179 14.303 23.7202 14.6136 23.2088 14.8409C22.6974 15.0682 22.1027 15.1818 21.4247 15.1818C20.5346 15.1818 19.7978 14.9886 19.2145 14.6023C18.6312 14.2159 18.2618 13.6515 18.1065 12.9091L19.3793 12.5909C19.5005 13.0606 19.7296 13.4129 20.0668 13.6477C20.4077 13.8826 20.8527 14 21.402 14C22.027 14 22.5232 13.8674 22.8906 13.6023C23.2618 13.3333 23.4474 13.0114 23.4474 12.6364C23.4474 12.3333 23.3414 12.0795 23.1293 11.875C22.9171 11.6667 22.5914 11.5114 22.152 11.4091L20.6974 11.0682C19.8982 10.8788 19.3111 10.5852 18.9361 10.1875C18.5649 9.78598 18.3793 9.28409 18.3793 8.68182C18.3793 8.18939 18.5175 7.75379 18.794 7.375C19.0743 6.99621 19.455 6.69886 19.9361 6.48295C20.4209 6.26705 20.9702 6.15909 21.5838 6.15909C22.4474 6.15909 23.1255 6.34848 23.6179 6.72727C24.1141 7.10606 24.4664 7.60606 24.6747 8.22727ZM32.3523 11.4318V6.27273H33.6932V15H32.3523V13.5227H32.2614C32.0568 13.9659 31.7386 14.3428 31.3068 14.6534C30.875 14.9602 30.3295 15.1136 29.6705 15.1136C29.125 15.1136 28.6402 14.9943 28.2159 14.7557C27.7917 14.5133 27.4583 14.1496 27.2159 13.6648C26.9735 13.1761 26.8523 12.5606 26.8523 11.8182V6.27273H28.1932V11.7273C28.1932 12.3636 28.3712 12.8712 28.7273 13.25C29.0871 13.6288 29.5455 13.8182 30.1023 13.8182C30.4356 13.8182 30.7746 13.733 31.1193 13.5625C31.4678 13.392 31.7595 13.1307 31.9943 12.7784C32.233 12.4261 32.3523 11.9773 32.3523 11.4318ZM42.331 8.22727L41.1264 8.56818C41.0507 8.36742 40.9389 8.17235 40.7912 7.98295C40.6473 7.78977 40.4503 7.63068 40.2003 7.50568C39.9503 7.38068 39.6302 7.31818 39.2401 7.31818C38.706 7.31818 38.2609 7.44129 37.9048 7.6875C37.5526 7.92992 37.3764 8.23864 37.3764 8.61364C37.3764 8.94697 37.4976 9.21023 37.7401 9.40341C37.9825 9.59659 38.3613 9.75758 38.8764 9.88636L40.1719 10.2045C40.9522 10.3939 41.5336 10.6837 41.9162 11.0739C42.2988 11.4602 42.4901 11.9583 42.4901 12.5682C42.4901 13.0682 42.3461 13.5152 42.0582 13.9091C41.7741 14.303 41.3764 14.6136 40.8651 14.8409C40.3537 15.0682 39.759 15.1818 39.081 15.1818C38.1908 15.1818 37.4541 14.9886 36.8707 14.6023C36.2874 14.2159 35.9181 13.6515 35.7628 12.9091L37.0355 12.5909C37.1567 13.0606 37.3859 13.4129 37.723 13.6477C38.0639 13.8826 38.509 14 39.0582 14C39.6832 14 40.1795 13.8674 40.5469 13.6023C40.9181 13.3333 41.1037 13.0114 41.1037 12.6364C41.1037 12.3333 40.9976 12.0795 40.7855 11.875C40.5734 11.6667 40.2476 11.5114 39.8082 11.4091L38.3537 11.0682C37.5545 10.8788 36.9673 10.5852 36.5923 10.1875C36.2211 9.78598 36.0355 9.28409 36.0355 8.68182C36.0355 8.18939 36.1738 7.75379 36.4503 7.375C36.7306 6.99621 37.1113 6.69886 37.5923 6.48295C38.0772 6.26705 38.6264 6.15909 39.2401 6.15909C40.1037 6.15909 40.7817 6.34848 41.2741 6.72727C41.7704 7.10606 42.1226 7.60606 42.331 8.22727ZM44.2131 12.6136V11.4545L49.3267 3.36364H50.1676V5.15909H49.5994L45.7358 11.2727V11.3636H52.6222V12.6136H44.2131ZM49.6903 15V12.2614V11.7216V3.36364H51.0312V15H49.6903Z" fill="#F32851"/>
<path d="M26.5252 44.6195C26.8435 45.1626 26.8435 45.8374 26.5252 46.3805C25.6989 47.7909 24.7909 48.6989 23.3805 49.5252C22.8374 49.8435 22.1626 49.8435 21.6195 49.5252C20.2091 48.6989 19.3011 47.7909 18.4748 46.3805C18.1565 45.8374 18.1565 45.1626 18.4748 44.6195C19.3011 43.2091 20.2091 42.3011 21.6195 41.4748C22.1626 41.1565 22.8374 41.1565 23.3805 41.4748C24.7909 42.3011 25.6989 43.2091 26.5252 44.6195Z" fill="#F32851"/>
<path d="M8.52523 44.6195C8.84348 45.1626 8.84348 45.8374 8.52523 46.3805C7.69886 47.7909 6.79088 48.6989 5.38054 49.5252C4.83739 49.8435 4.16261 49.8435 3.61946 49.5252C2.20912 48.6989 1.30114 47.7909 0.474768 46.3805C0.15652 45.8374 0.15652 45.1626 0.474768 44.6195C1.30114 43.2091 2.20912 42.3011 3.61946 41.4748C4.16261 41.1565 4.83739 41.1565 5.38054 41.4748C6.79088 42.3011 7.69886 43.2091 8.52523 44.6195Z" fill="#F32851"/>
</svg>
