<svg width="59" height="106" viewBox="0 0 59 106" fill="none" xmlns="http://www.w3.org/2000/svg">
<rect x="4.5" y="21.5" width="51" height="84" rx="1.5" stroke="#535353"/>
<line x1="4" y1="37.4999" x2="56" y2="37.4999" stroke="#535353"/>
<line x1="4" y1="53.5" x2="56" y2="53.5" stroke="#535353"/>
<path d="M4 88H55" stroke="#535353"/>
<path d="M4 71H55.5" stroke="#535353"/>
<line x1="22.5" y1="21" x2="22.5" y2="106" stroke="#535353"/>
<path d="M39.5 21L39.5 106" stroke="#535353"/>
<path d="M26.206 15V3.36364H30.2741C31.0848 3.36364 31.7533 3.50379 32.2798 3.78409C32.8063 4.06061 33.1984 4.43371 33.456 4.90341C33.7135 5.36932 33.8423 5.88636 33.8423 6.45455C33.8423 6.95455 33.7533 7.36742 33.5753 7.69318C33.401 8.01894 33.17 8.27652 32.8821 8.46591C32.598 8.6553 32.2893 8.79545 31.956 8.88636V9C32.312 9.02273 32.67 9.14773 33.0298 9.375C33.3897 9.60227 33.6908 9.92803 33.9332 10.3523C34.1757 10.7765 34.2969 11.2955 34.2969 11.9091C34.2969 12.4924 34.1643 13.017 33.8991 13.483C33.634 13.9489 33.2154 14.3182 32.6435 14.5909C32.0715 14.8636 31.3272 15 30.4105 15H26.206ZM27.6151 13.75H30.4105C31.331 13.75 31.9844 13.572 32.3707 13.2159C32.7609 12.8561 32.956 12.4205 32.956 11.9091C32.956 11.5152 32.8556 11.1515 32.6548 10.8182C32.4541 10.4811 32.1681 10.2121 31.7969 10.0114C31.4257 9.80682 30.9863 9.70455 30.4787 9.70455H27.6151V13.75ZM27.6151 8.47727H30.2287C30.6529 8.47727 31.0355 8.39394 31.3764 8.22727C31.7211 8.06061 31.9938 7.82576 32.1946 7.52273C32.3991 7.2197 32.5014 6.86364 32.5014 6.45455C32.5014 5.94318 32.3234 5.50947 31.9673 5.15341C31.6113 4.79356 31.0469 4.61364 30.2741 4.61364H27.6151V8.47727Z" fill="#F32851"/>
<path d="M26.5252 61.6195C26.8435 62.1626 26.8435 62.8374 26.5252 63.3805C25.6989 64.7909 24.7909 65.6989 23.3805 66.5252C22.8374 66.8435 22.1626 66.8435 21.6195 66.5252C20.2091 65.6989 19.3011 64.7909 18.4748 63.3805C18.1565 62.8374 18.1565 62.1626 18.4748 61.6195C19.3011 60.2091 20.2091 59.3011 21.6195 58.4748C22.1626 58.1565 22.8374 58.1565 23.3805 58.4748C24.7909 59.3011 25.6989 60.2091 26.5252 61.6195Z" fill="#F32851"/>
<path d="M38 46L56 46" stroke="#F32851" stroke-width="5" stroke-linecap="round"/>
<path d="M8.52523 78.6195C8.84348 79.1626 8.84348 79.8374 8.52523 80.3805C7.69886 81.7909 6.79088 82.6989 5.38054 83.5252C4.83739 83.8435 4.16261 83.8435 3.61946 83.5252C2.20912 82.6989 1.30114 81.7909 0.474768 80.3805C0.15652 79.8374 0.15652 79.1626 0.474768 78.6195C1.30114 77.2091 2.20912 76.3011 3.61946 75.4748C4.16261 75.1565 4.83739 75.1565 5.38054 75.4748C6.79088 76.3011 7.69886 77.2091 8.52523 78.6195Z" fill="#F32851"/>
</svg>
