<svg width="59" height="106" viewBox="0 0 59 106" fill="none" xmlns="http://www.w3.org/2000/svg">
<rect x="4.5" y="21.5" width="51" height="84" rx="1.5" stroke="#535353"/>
<line x1="4" y1="37.4999" x2="56" y2="37.4999" stroke="#535353"/>
<line x1="4" y1="53.5" x2="56" y2="53.5" stroke="#535353"/>
<path d="M4 88H55" stroke="#535353"/>
<path d="M4 71H55.5" stroke="#535353"/>
<line x1="22.5" y1="21" x2="22.5" y2="106" stroke="#535353"/>
<path d="M39.5 21L39.5 106" stroke="#535353"/>
<path d="M21.3388 15V3.36364H25.407C26.2176 3.36364 26.8861 3.50379 27.4126 3.78409C27.9392 4.06061 28.3312 4.43371 28.5888 4.90341C28.8464 5.36932 28.9751 5.88636 28.9751 6.45455C28.9751 6.95455 28.8861 7.36742 28.7081 7.69318C28.5339 8.01894 28.3028 8.27652 28.0149 8.46591C27.7308 8.6553 27.4221 8.79545 27.0888 8.88636V9C27.4448 9.02273 27.8028 9.14773 28.1626 9.375C28.5225 9.60227 28.8236 9.92803 29.0661 10.3523C29.3085 10.7765 29.4297 11.2955 29.4297 11.9091C29.4297 12.4924 29.2971 13.017 29.032 13.483C28.7668 13.9489 28.3482 14.3182 27.7763 14.5909C27.2043 14.8636 26.46 15 25.5433 15H21.3388ZM22.7479 13.75H25.5433C26.4638 13.75 27.1172 13.572 27.5036 13.2159C27.8937 12.8561 28.0888 12.4205 28.0888 11.9091C28.0888 11.5152 27.9884 11.1515 27.7876 10.8182C27.5869 10.4811 27.3009 10.2121 26.9297 10.0114C26.5585 9.80682 26.1191 9.70455 25.6115 9.70455H22.7479V13.75ZM22.7479 8.47727H25.3615C25.7857 8.47727 26.1683 8.39394 26.5092 8.22727C26.8539 8.06061 27.1267 7.82576 27.3274 7.52273C27.532 7.2197 27.6342 6.86364 27.6342 6.45455C27.6342 5.94318 27.4562 5.50947 27.1001 5.15341C26.7441 4.79356 26.1797 4.61364 25.407 4.61364H22.7479V8.47727ZM35.1768 15.1591C34.5102 15.1591 33.9098 15.0265 33.3757 14.7614C32.8416 14.4962 32.4136 14.1326 32.0916 13.6705C31.7696 13.2083 31.5935 12.6818 31.5632 12.0909H32.9268C32.9799 12.6174 33.2185 13.053 33.6428 13.3977C34.0708 13.7386 34.5821 13.9091 35.1768 13.9091C35.6541 13.9091 36.0784 13.7973 36.4496 13.5739C36.8246 13.3504 37.1181 13.0436 37.3303 12.6534C37.5462 12.2595 37.6541 11.8144 37.6541 11.3182C37.6541 10.8106 37.5424 10.358 37.3189 9.96023C37.0992 9.55871 36.7962 9.24242 36.4098 9.01136C36.0234 8.7803 35.5821 8.66288 35.0859 8.65909C34.7299 8.6553 34.3643 8.71023 33.9893 8.82386C33.6143 8.93371 33.3056 9.07576 33.0632 9.25L31.745 9.09091L32.4496 3.36364H38.495V4.61364H33.6314L33.2223 8.04545H33.2905C33.5291 7.85606 33.8284 7.69886 34.1882 7.57386C34.5481 7.44886 34.9231 7.38636 35.3132 7.38636C36.0253 7.38636 36.6598 7.55682 37.2166 7.89773C37.7772 8.23485 38.2166 8.69697 38.5348 9.28409C38.8568 9.87121 39.0178 10.5417 39.0178 11.2955C39.0178 12.0379 38.8511 12.7008 38.5178 13.2841C38.1882 13.8636 37.7337 14.322 37.1541 14.6591C36.5746 14.9924 35.9155 15.1591 35.1768 15.1591Z" fill="#F32851"/>
<path d="M8.52523 78.6195C8.84348 79.1626 8.84348 79.8374 8.52523 80.3805C7.69886 81.7909 6.79088 82.6989 5.38054 83.5252C4.83739 83.8435 4.16261 83.8435 3.61946 83.5252C2.20912 82.6989 1.30114 81.7909 0.474768 80.3805C0.15652 79.8374 0.15652 79.1626 0.474768 78.6195C1.30114 77.2091 2.20912 76.3011 3.61946 75.4748C4.16261 75.1565 4.83739 75.1565 5.38054 75.4748C6.79088 76.3011 7.69886 77.2091 8.52523 78.6195Z" fill="#F32851"/>
<path d="M39 46L56 46" stroke="#F32851" stroke-width="5" stroke-linecap="round"/>
<path d="M20.407 17.2727L22.4979 20.8409L24.5888 17.2727H26.1342L23.3161 21.6364L26.1342 26H24.5888L22.4979 22.6136L20.407 26H18.8615L21.6342 21.6364L18.8615 17.2727H20.407Z" fill="#F32851"/>
</svg>
