<svg width="60" height="106" viewBox="0 0 60 106" fill="none" xmlns="http://www.w3.org/2000/svg">
<rect x="4.5" y="21.5" width="51" height="84" rx="1.5" stroke="#535353"/>
<line x1="4" y1="37.4999" x2="56" y2="37.4999" stroke="#535353"/>
<line x1="4" y1="53.5" x2="56" y2="53.5" stroke="#535353"/>
<path d="M4 88H55" stroke="#535353"/>
<path d="M4 71H55.5" stroke="#535353"/>
<line x1="22.5" y1="21" x2="22.5" y2="106" stroke="#535353"/>
<path d="M39.5 21L39.5 106" stroke="#535353"/>
<path d="M21.2138 15V3.36364H25.282C26.0926 3.36364 26.7611 3.50379 27.2876 3.78409C27.8142 4.06061 28.2062 4.43371 28.4638 4.90341C28.7214 5.36932 28.8501 5.88636 28.8501 6.45455C28.8501 6.95455 28.7611 7.36742 28.5831 7.69318C28.4089 8.01894 28.1778 8.27652 27.8899 8.46591C27.6058 8.6553 27.2971 8.79545 26.9638 8.88636V9C27.3198 9.02273 27.6778 9.14773 28.0376 9.375C28.3975 9.60227 28.6986 9.92803 28.9411 10.3523C29.1835 10.7765 29.3047 11.2955 29.3047 11.9091C29.3047 12.4924 29.1721 13.017 28.907 13.483C28.6418 13.9489 28.2232 14.3182 27.6513 14.5909C27.0793 14.8636 26.335 15 25.4183 15H21.2138ZM22.6229 13.75H25.4183C26.3388 13.75 26.9922 13.572 27.3786 13.2159C27.7687 12.8561 27.9638 12.4205 27.9638 11.9091C27.9638 11.5152 27.8634 11.1515 27.6626 10.8182C27.4619 10.4811 27.1759 10.2121 26.8047 10.0114C26.4335 9.80682 25.9941 9.70455 25.4865 9.70455H22.6229V13.75ZM22.6229 8.47727H25.2365C25.6607 8.47727 26.0433 8.39394 26.3842 8.22727C26.7289 8.06061 27.0017 7.82576 27.2024 7.52273C27.407 7.2197 27.5092 6.86364 27.5092 6.45455C27.5092 5.94318 27.3312 5.50947 26.9751 5.15341C26.6191 4.79356 26.0547 4.61364 25.282 4.61364H22.6229V8.47727ZM35.2791 15.1591C34.8018 15.1515 34.3246 15.0606 33.8473 14.8864C33.37 14.7121 32.9344 14.4186 32.5405 14.0057C32.1465 13.589 31.8303 13.0265 31.5916 12.3182C31.353 11.6061 31.2337 10.7121 31.2337 9.63636C31.2337 8.60606 31.3303 7.69318 31.5234 6.89773C31.7166 6.09848 31.9969 5.42614 32.3643 4.88068C32.7318 4.33144 33.175 3.91477 33.6939 3.63068C34.2166 3.34659 34.8056 3.20455 35.4609 3.20455C36.1125 3.20455 36.692 3.33523 37.1996 3.59659C37.7109 3.85417 38.1276 4.21401 38.4496 4.67614C38.7715 5.13826 38.9799 5.67045 39.0746 6.27273H37.6882C37.5594 5.75 37.3094 5.31629 36.9382 4.97159C36.567 4.62689 36.0746 4.45455 35.4609 4.45455C34.5594 4.45455 33.8492 4.84659 33.3303 5.63068C32.8151 6.41477 32.5556 7.51515 32.5518 8.93182H32.6428C32.8549 8.60985 33.1068 8.33523 33.3984 8.10795C33.6939 7.87689 34.0196 7.69886 34.3757 7.57386C34.7318 7.44886 35.1087 7.38636 35.5064 7.38636C36.1731 7.38636 36.7829 7.55303 37.3359 7.88636C37.889 8.21591 38.3321 8.67235 38.6655 9.25568C38.9988 9.83523 39.1655 10.5 39.1655 11.25C39.1655 11.9697 39.0045 12.6288 38.6825 13.2273C38.3606 13.822 37.9079 14.2955 37.3246 14.6477C36.745 14.9962 36.0632 15.1667 35.2791 15.1591ZM35.2791 13.9091C35.7564 13.9091 36.1844 13.7898 36.5632 13.5511C36.9458 13.3125 37.2469 12.9924 37.4666 12.5909C37.6901 12.1894 37.8018 11.7424 37.8018 11.25C37.8018 10.7689 37.6939 10.3314 37.478 9.9375C37.2659 9.53977 36.9723 9.22348 36.5973 8.98864C36.2261 8.75379 35.8018 8.63636 35.3246 8.63636C34.9647 8.63636 34.6295 8.70833 34.3189 8.85227C34.0083 8.99242 33.7356 9.18561 33.5007 9.43182C33.2696 9.67803 33.0878 9.96023 32.9553 10.2784C32.8227 10.5928 32.7564 10.9242 32.7564 11.2727C32.7564 11.7348 32.8643 12.1667 33.0803 12.5682C33.3 12.9697 33.5992 13.2936 33.978 13.5398C34.3606 13.786 34.7943 13.9091 35.2791 13.9091Z" fill="#F32851"/>
<path d="M26.5252 61.6195C26.8435 62.1626 26.8435 62.8374 26.5252 63.3805C25.6989 64.7909 24.7909 65.6989 23.3805 66.5252C22.8374 66.8435 22.1626 66.8435 21.6195 66.5252C20.2091 65.6989 19.3011 64.7909 18.4748 63.3805C18.1565 62.8374 18.1565 62.1626 18.4748 61.6195C19.3011 60.2091 20.2091 59.3011 21.6195 58.4748C22.1626 58.1565 22.8374 58.1565 23.3805 58.4748C24.7909 59.3011 25.6989 60.2091 26.5252 61.6195Z" fill="#F32851"/>
<path d="M8.52523 28.6195C8.84348 29.1626 8.84348 29.8374 8.52523 30.3805C7.69886 31.7909 6.79088 32.6989 5.38054 33.5252C4.83739 33.8435 4.16261 33.8435 3.61946 33.5252C2.20912 32.6989 1.30114 31.7909 0.474768 30.3805C0.15652 29.8374 0.15652 29.1626 0.474768 28.6195C1.30114 27.2091 2.20912 26.3011 3.61946 25.4748C4.16261 25.1565 4.83739 25.1565 5.38054 25.4748C6.79088 26.3011 7.69886 27.2091 8.52523 28.6195Z" fill="#F32851"/>
<path d="M38 46L57 46" stroke="#F32851" stroke-width="5" stroke-linecap="round"/>
</svg>
