<svg width="59" height="106" viewBox="0 0 59 106" fill="none" xmlns="http://www.w3.org/2000/svg">
<rect x="4.5" y="21.5" width="51" height="84" rx="1.5" stroke="#535353"/>
<line x1="4" y1="37.4999" x2="56" y2="37.4999" stroke="#535353"/>
<line x1="4" y1="53.5" x2="56" y2="53.5" stroke="#535353"/>
<path d="M4 88H55" stroke="#535353"/>
<path d="M4 71H55.5" stroke="#535353"/>
<line x1="22.5" y1="21" x2="22.5" y2="106" stroke="#535353"/>
<path d="M39.5 21L39.5 106" stroke="#535353"/>
<path d="M21.2372 15V3.36364H25.3054C26.116 3.36364 26.7846 3.50379 27.3111 3.78409C27.8376 4.06061 28.2296 4.43371 28.4872 4.90341C28.7448 5.36932 28.8736 5.88636 28.8736 6.45455C28.8736 6.95455 28.7846 7.36742 28.6065 7.69318C28.4323 8.01894 28.2012 8.27652 27.9134 8.46591C27.6293 8.6553 27.3205 8.79545 26.9872 8.88636V9C27.3433 9.02273 27.7012 9.14773 28.0611 9.375C28.4209 9.60227 28.7221 9.92803 28.9645 10.3523C29.2069 10.7765 29.3281 11.2955 29.3281 11.9091C29.3281 12.4924 29.1955 13.017 28.9304 13.483C28.6652 13.9489 28.2467 14.3182 27.6747 14.5909C27.1027 14.8636 26.3584 15 25.4418 15H21.2372ZM22.6463 13.75H25.4418C26.3622 13.75 27.0156 13.572 27.402 13.2159C27.7921 12.8561 27.9872 12.4205 27.9872 11.9091C27.9872 11.5152 27.8868 11.1515 27.6861 10.8182C27.4853 10.4811 27.1993 10.2121 26.8281 10.0114C26.4569 9.80682 26.0175 9.70455 25.5099 9.70455H22.6463V13.75ZM22.6463 8.47727H25.2599C25.6842 8.47727 26.0668 8.39394 26.4077 8.22727C26.7524 8.06061 27.0251 7.82576 27.2259 7.52273C27.4304 7.2197 27.5327 6.86364 27.5327 6.45455C27.5327 5.94318 27.3546 5.50947 26.9986 5.15341C26.6425 4.79356 26.0781 4.61364 25.3054 4.61364H22.6463V8.47727ZM31.6435 15V3.36364H32.9844V7.65909H33.098C33.1965 7.50758 33.3329 7.31439 33.5071 7.07955C33.6851 6.84091 33.9389 6.62879 34.2685 6.44318C34.6018 6.25379 35.0526 6.15909 35.6207 6.15909C36.3556 6.15909 37.0033 6.3428 37.5639 6.71023C38.1245 7.07765 38.562 7.59848 38.8764 8.27273C39.1908 8.94697 39.348 9.74242 39.348 10.6591C39.348 11.5833 39.1908 12.3845 38.8764 13.0625C38.562 13.7367 38.1264 14.2595 37.5696 14.6307C37.0128 14.9981 36.3707 15.1818 35.6435 15.1818C35.0829 15.1818 34.634 15.089 34.2969 14.9034C33.9598 14.714 33.7003 14.5 33.5185 14.2614C33.3366 14.0189 33.1965 13.8182 33.098 13.6591H32.9389V15H31.6435ZM32.9616 10.6364C32.9616 11.2955 33.0582 11.8769 33.2514 12.3807C33.4446 12.8807 33.7268 13.2727 34.098 13.5568C34.4692 13.8371 34.9238 13.9773 35.4616 13.9773C36.0223 13.9773 36.4901 13.8295 36.8651 13.5341C37.2438 13.2348 37.5279 12.8333 37.7173 12.3295C37.9105 11.822 38.0071 11.2576 38.0071 10.6364C38.0071 10.0227 37.9124 9.4697 37.723 8.97727C37.5374 8.48106 37.2552 8.08902 36.8764 7.80114C36.5014 7.50947 36.0298 7.36364 35.4616 7.36364C34.9162 7.36364 34.4579 7.50189 34.0866 7.77841C33.7154 8.05114 33.4351 8.43371 33.2457 8.92614C33.0563 9.41477 32.9616 9.98485 32.9616 10.6364Z" fill="#F32851"/>
<path d="M26.5252 44.6195C26.8435 45.1626 26.8435 45.8374 26.5252 46.3805C25.6989 47.7909 24.7909 48.6989 23.3805 49.5252C22.8374 49.8435 22.1626 49.8435 21.6195 49.5252C20.2091 48.6989 19.3011 47.7909 18.4748 46.3805C18.1565 45.8374 18.1565 45.1626 18.4748 44.6195C19.3011 43.2091 20.2091 42.3011 21.6195 41.4748C22.1626 41.1565 22.8374 41.1565 23.3805 41.4748C24.7909 42.3011 25.6989 43.2091 26.5252 44.6195Z" fill="#F32851"/>
<path d="M38 30L56 30" stroke="#F32851" stroke-width="5" stroke-linecap="round"/>
<path d="M8.52523 61.6195C8.84348 62.1626 8.84348 62.8374 8.52523 63.3805C7.69886 64.7909 6.79088 65.6989 5.38054 66.5252C4.83739 66.8435 4.16261 66.8435 3.61946 66.5252C2.20912 65.6989 1.30114 64.7909 0.474768 63.3805C0.15652 62.8374 0.15652 62.1626 0.474768 61.6195C1.30114 60.2091 2.20912 59.3011 3.61946 58.4748C4.16261 58.1565 4.83739 58.1565 5.38054 58.4748C6.79088 59.3011 7.69886 60.2091 8.52523 61.6195Z" fill="#F32851"/>
</svg>
