<svg width="60" height="106" viewBox="0 0 60 106" fill="none" xmlns="http://www.w3.org/2000/svg">
<rect x="4.5" y="21.5" width="51" height="84" rx="1.5" stroke="#535353"/>
<line x1="4" y1="37.4999" x2="56" y2="37.4999" stroke="#535353"/>
<line x1="4" y1="53.5" x2="56" y2="53.5" stroke="#535353"/>
<path d="M4 88H55" stroke="#535353"/>
<path d="M4 71H55.5" stroke="#535353"/>
<line x1="22.5" y1="21" x2="22.5" y2="106" stroke="#535353"/>
<path d="M39.5 21L39.5 106" stroke="#535353"/>
<path d="M12.3857 15V3.36364H16.4538C17.2644 3.36364 17.933 3.50379 18.4595 3.78409C18.986 4.06061 19.3781 4.43371 19.6357 4.90341C19.8932 5.36932 20.022 5.88636 20.022 6.45455C20.022 6.95455 19.933 7.36742 19.755 7.69318C19.5807 8.01894 19.3497 8.27652 19.0618 8.46591C18.7777 8.6553 18.469 8.79545 18.1357 8.88636V9C18.4917 9.02273 18.8497 9.14773 19.2095 9.375C19.5694 9.60227 19.8705 9.92803 20.1129 10.3523C20.3554 10.7765 20.4766 11.2955 20.4766 11.9091C20.4766 12.4924 20.344 13.017 20.0788 13.483C19.8137 13.9489 19.3951 14.3182 18.8232 14.5909C18.2512 14.8636 17.5069 15 16.5902 15H12.3857ZM13.7947 13.75H16.5902C17.5107 13.75 18.1641 13.572 18.5504 13.2159C18.9406 12.8561 19.1357 12.4205 19.1357 11.9091C19.1357 11.5152 19.0353 11.1515 18.8345 10.8182C18.6338 10.4811 18.3478 10.2121 17.9766 10.0114C17.6054 9.80682 17.166 9.70455 16.6584 9.70455H13.7947V13.75ZM13.7947 8.47727H16.4084C16.8326 8.47727 17.2152 8.39394 17.5561 8.22727C17.9008 8.06061 18.1735 7.82576 18.3743 7.52273C18.5788 7.2197 18.6811 6.86364 18.6811 6.45455C18.6811 5.94318 18.5031 5.50947 18.147 5.15341C17.791 4.79356 17.2266 4.61364 16.4538 4.61364H13.7947V8.47727ZM25.9055 15.1818C25.1783 15.1818 24.5362 14.9981 23.9794 14.6307C23.4226 14.2595 22.987 13.7367 22.6726 13.0625C22.3582 12.3845 22.201 11.5833 22.201 10.6591C22.201 9.74242 22.3582 8.94697 22.6726 8.27273C22.987 7.59848 23.4245 7.07765 23.9851 6.71023C24.5457 6.3428 25.1934 6.15909 25.9283 6.15909C26.4964 6.15909 26.9453 6.25379 27.2749 6.44318C27.6082 6.62879 27.862 6.84091 28.0362 7.07955C28.2143 7.31439 28.3525 7.50758 28.451 7.65909H28.5646V3.36364H29.9055V15H28.6101V13.6591H28.451C28.3525 13.8182 28.2124 14.0189 28.0305 14.2614C27.8487 14.5 27.5893 14.714 27.2521 14.9034C26.915 15.089 26.4661 15.1818 25.9055 15.1818ZM26.0874 13.9773C26.6252 13.9773 27.0798 13.8371 27.451 13.5568C27.8222 13.2727 28.1044 12.8807 28.2976 12.3807C28.4908 11.8769 28.5874 11.2955 28.5874 10.6364C28.5874 9.98485 28.4927 9.41477 28.3033 8.92614C28.1139 8.43371 27.8336 8.05114 27.4624 7.77841C27.0911 7.50189 26.6328 7.36364 26.0874 7.36364C25.5192 7.36364 25.0457 7.50947 24.6669 7.80114C24.2919 8.08902 24.0097 8.48106 23.8203 8.97727C23.6347 9.4697 23.5419 10.0227 23.5419 10.6364C23.5419 11.2576 23.6366 11.822 23.826 12.3295C24.0192 12.8333 24.3033 13.2348 24.6783 13.5341C25.0571 13.8295 25.5268 13.9773 26.0874 13.9773ZM32.5476 15V6.27273H33.8885V15H32.5476ZM33.2294 4.81818C32.968 4.81818 32.7427 4.72917 32.5533 4.55114C32.3677 4.37311 32.2749 4.15909 32.2749 3.90909C32.2749 3.65909 32.3677 3.44508 32.5533 3.26705C32.7427 3.08902 32.968 3 33.2294 3C33.4908 3 33.7143 3.08902 33.8999 3.26705C34.0893 3.44508 34.1839 3.65909 34.1839 3.90909C34.1839 4.15909 34.0893 4.37311 33.8999 4.55114C33.7143 4.72917 33.4908 4.81818 33.2294 4.81818ZM36.3445 15V6.27273H37.6399V7.63636H37.7536C37.9354 7.17045 38.2289 6.80871 38.6342 6.55114C39.0395 6.28977 39.5263 6.15909 40.0945 6.15909C40.6702 6.15909 41.1494 6.28977 41.532 6.55114C41.9183 6.80871 42.2195 7.17045 42.4354 7.63636H42.5263C42.7498 7.18561 43.085 6.82765 43.532 6.5625C43.9789 6.29356 44.5149 6.15909 45.1399 6.15909C45.9202 6.15909 46.5585 6.40341 47.0547 6.89205C47.5509 7.37689 47.799 8.13258 47.799 9.15909V15H46.4581V9.15909C46.4581 8.51515 46.282 8.05492 45.9297 7.77841C45.5774 7.50189 45.1626 7.36364 44.6854 7.36364C44.0717 7.36364 43.5964 7.54924 43.2592 7.92045C42.9221 8.28788 42.7536 8.75379 42.7536 9.31818V15H41.3899V9.02273C41.3899 8.52652 41.2289 8.12689 40.907 7.82386C40.585 7.51705 40.1702 7.36364 39.6626 7.36364C39.3142 7.36364 38.9884 7.45644 38.6854 7.64205C38.3861 7.82765 38.1437 8.08523 37.9581 8.41477C37.7763 8.74053 37.6854 9.11742 37.6854 9.54545V15H36.3445Z" fill="#F32851"/>
<path d="M43.5252 28.6195C43.8435 29.1626 43.8435 29.8374 43.5252 30.3805C42.6989 31.7909 41.7909 32.6989 40.3805 33.5252C39.8374 33.8435 39.1626 33.8435 38.6195 33.5252C37.2091 32.6989 36.3011 31.7909 35.4748 30.3805C35.1565 29.8374 35.1565 29.1626 35.4748 28.6195C36.3011 27.2091 37.2091 26.3011 38.6195 25.4748C39.1626 25.1565 39.8374 25.1565 40.3805 25.4748C41.7909 26.3011 42.6989 27.2091 43.5252 28.6195Z" fill="#F32851"/>
<path d="M8.52523 78.6195C8.84348 79.1626 8.84348 79.8374 8.52523 80.3805C7.69886 81.7909 6.79088 82.6989 5.38054 83.5252C4.83739 83.8435 4.16261 83.8435 3.61946 83.5252C2.20912 82.6989 1.30114 81.7909 0.474768 80.3805C0.15652 79.8374 0.15652 79.1626 0.474768 78.6195C1.30114 77.2091 2.20912 76.3011 3.61946 75.4748C4.16261 75.1565 4.83739 75.1565 5.38054 75.4748C6.79088 76.3011 7.69886 77.2091 8.52523 78.6195Z" fill="#F32851"/>
<path d="M59.5252 43.6195C59.8435 44.1626 59.8435 44.8374 59.5252 45.3805C58.6989 46.7909 57.7909 47.6989 56.3805 48.5252C55.8374 48.8435 55.1626 48.8435 54.6195 48.5252C53.2091 47.6989 52.3011 46.7909 51.4748 45.3805C51.1565 44.8374 51.1565 44.1626 51.4748 43.6195C52.3011 42.2091 53.2091 41.3011 54.6195 40.4748C55.1626 40.1565 55.8374 40.1565 56.3805 40.4748C57.7909 41.3011 58.6989 42.2091 59.5252 43.6195Z" fill="#F32851"/>
<path d="M26.5252 44.6195C26.8435 45.1626 26.8435 45.8374 26.5252 46.3805C25.6989 47.7909 24.7909 48.6989 23.3805 49.5252C22.8374 49.8435 22.1626 49.8435 21.6195 49.5252C20.2091 48.6989 19.3011 47.7909 18.4748 46.3805C18.1565 45.8374 18.1565 45.1626 18.4748 44.6195C19.3011 43.2091 20.2091 42.3011 21.6195 41.4748C22.1626 41.1565 22.8374 41.1565 23.3805 41.4748C24.7909 42.3011 25.6989 43.2091 26.5252 44.6195Z" fill="#F32851"/>
</svg>
