<svg width="59" height="106" viewBox="0 0 59 106" fill="none" xmlns="http://www.w3.org/2000/svg">
<rect x="4.5" y="21.5" width="51" height="84" rx="1.5" stroke="#535353"/>
<line x1="4" y1="37.4999" x2="56" y2="37.4999" stroke="#535353"/>
<line x1="4" y1="53.5" x2="56" y2="53.5" stroke="#535353"/>
<path d="M4 88H55" stroke="#535353"/>
<path d="M4 71H55.5" stroke="#535353"/>
<line x1="22.5" y1="21" x2="22.5" y2="106" stroke="#535353"/>
<path d="M39.5 21L39.5 106" stroke="#535353"/>
<path d="M19.2528 15V3.36364H23.321C24.1316 3.36364 24.8002 3.50379 25.3267 3.78409C25.8532 4.06061 26.2453 4.43371 26.5028 4.90341C26.7604 5.36932 26.8892 5.88636 26.8892 6.45455C26.8892 6.95455 26.8002 7.36742 26.6222 7.69318C26.4479 8.01894 26.2169 8.27652 25.929 8.46591C25.6449 8.6553 25.3362 8.79545 25.0028 8.88636V9C25.3589 9.02273 25.7169 9.14773 26.0767 9.375C26.4366 9.60227 26.7377 9.92803 26.9801 10.3523C27.2225 10.7765 27.3438 11.2955 27.3438 11.9091C27.3438 12.4924 27.2112 13.017 26.946 13.483C26.6809 13.9489 26.2623 14.3182 25.6903 14.5909C25.1184 14.8636 24.3741 15 23.4574 15H19.2528ZM20.6619 13.75H23.4574C24.3778 13.75 25.0313 13.572 25.4176 13.2159C25.8078 12.8561 26.0028 12.4205 26.0028 11.9091C26.0028 11.5152 25.9025 11.1515 25.7017 10.8182C25.5009 10.4811 25.215 10.2121 24.8438 10.0114C24.4725 9.80682 24.0331 9.70455 23.5256 9.70455H20.6619V13.75ZM20.6619 8.47727H23.2756C23.6998 8.47727 24.0824 8.39394 24.4233 8.22727C24.768 8.06061 25.0407 7.82576 25.2415 7.52273C25.446 7.2197 25.5483 6.86364 25.5483 6.45455C25.5483 5.94318 25.3703 5.50947 25.0142 5.15341C24.6581 4.79356 24.0938 4.61364 23.321 4.61364H20.6619V8.47727ZM29.4773 15V6.27273H30.7727V7.63636H30.8864C31.0682 7.17045 31.3617 6.80871 31.767 6.55114C32.1723 6.28977 32.6591 6.15909 33.2273 6.15909C33.803 6.15909 34.2822 6.28977 34.6648 6.55114C35.0511 6.80871 35.3523 7.17045 35.5682 7.63636H35.6591C35.8826 7.18561 36.2178 6.82765 36.6648 6.5625C37.1117 6.29356 37.6477 6.15909 38.2727 6.15909C39.053 6.15909 39.6913 6.40341 40.1875 6.89205C40.6837 7.37689 40.9318 8.13258 40.9318 9.15909V15H39.5909V9.15909C39.5909 8.51515 39.4148 8.05492 39.0625 7.77841C38.7102 7.50189 38.2955 7.36364 37.8182 7.36364C37.2045 7.36364 36.7292 7.54924 36.392 7.92045C36.0549 8.28788 35.8864 8.75379 35.8864 9.31818V15H34.5227V9.02273C34.5227 8.52652 34.3617 8.12689 34.0398 7.82386C33.7178 7.51705 33.303 7.36364 32.7955 7.36364C32.447 7.36364 32.1212 7.45644 31.8182 7.64205C31.5189 7.82765 31.2765 8.08523 31.0909 8.41477C30.9091 8.74053 30.8182 9.11742 30.8182 9.54545V15H29.4773Z" fill="#F32851"/>
<path d="M8.52523 78.6195C8.84348 79.1626 8.84348 79.8374 8.52523 80.3805C7.69886 81.7909 6.79088 82.6989 5.38054 83.5252C4.83739 83.8435 4.16261 83.8435 3.61946 83.5252C2.20912 82.6989 1.30114 81.7909 0.474768 80.3805C0.15652 79.8374 0.15652 79.1626 0.474768 78.6195C1.30114 77.2091 2.20912 76.3011 3.61946 75.4748C4.16261 75.1565 4.83739 75.1565 5.38054 75.4748C6.79088 76.3011 7.69886 77.2091 8.52523 78.6195Z" fill="#F32851"/>
<path d="M22 45L56 45" stroke="#F32851" stroke-width="5" stroke-linecap="round"/>
</svg>
