<svg width="60" height="106" viewBox="0 0 60 106" fill="none" xmlns="http://www.w3.org/2000/svg">
<rect x="4.5" y="21.5" width="51" height="84" rx="1.5" stroke="#535353"/>
<line x1="4" y1="37.4999" x2="56" y2="37.4999" stroke="#535353"/>
<line x1="4" y1="53.5" x2="56" y2="53.5" stroke="#535353"/>
<path d="M4 88H55" stroke="#535353"/>
<path d="M4 71H55.5" stroke="#535353"/>
<line x1="22.5" y1="21" x2="22.5" y2="106" stroke="#535353"/>
<path d="M39.5 21L39.5 106" stroke="#535353"/>
<path d="M14.2607 15V3.36364H18.3288C19.1394 3.36364 19.808 3.50379 20.3345 3.78409C20.861 4.06061 21.2531 4.43371 21.5107 4.90341C21.7682 5.36932 21.897 5.88636 21.897 6.45455C21.897 6.95455 21.808 7.36742 21.63 7.69318C21.4557 8.01894 21.2247 8.27652 20.9368 8.46591C20.6527 8.6553 20.344 8.79545 20.0107 8.88636V9C20.3667 9.02273 20.7247 9.14773 21.0845 9.375C21.4444 9.60227 21.7455 9.92803 21.9879 10.3523C22.2304 10.7765 22.3516 11.2955 22.3516 11.9091C22.3516 12.4924 22.219 13.017 21.9538 13.483C21.6887 13.9489 21.2701 14.3182 20.6982 14.5909C20.1262 14.8636 19.3819 15 18.4652 15H14.2607ZM15.6697 13.75H18.4652C19.3857 13.75 20.0391 13.572 20.4254 13.2159C20.8156 12.8561 21.0107 12.4205 21.0107 11.9091C21.0107 11.5152 20.9103 11.1515 20.7095 10.8182C20.5088 10.4811 20.2228 10.2121 19.8516 10.0114C19.4804 9.80682 19.041 9.70455 18.5334 9.70455H15.6697V13.75ZM15.6697 8.47727H18.2834C18.7076 8.47727 19.0902 8.39394 19.4311 8.22727C19.7758 8.06061 20.0485 7.82576 20.2493 7.52273C20.4538 7.2197 20.5561 6.86364 20.5561 6.45455C20.5561 5.94318 20.3781 5.50947 20.022 5.15341C19.666 4.79356 19.1016 4.61364 18.3288 4.61364H15.6697V8.47727ZM24.4851 15V6.27273H25.7805V7.63636H25.8942C26.076 7.17045 26.3696 6.80871 26.7749 6.55114C27.1802 6.28977 27.6669 6.15909 28.2351 6.15909C28.8108 6.15909 29.29 6.28977 29.6726 6.55114C30.0589 6.80871 30.3601 7.17045 30.576 7.63636H30.6669C30.8904 7.18561 31.2256 6.82765 31.6726 6.5625C32.1196 6.29356 32.6555 6.15909 33.2805 6.15909C34.0608 6.15909 34.6991 6.40341 35.1953 6.89205C35.6915 7.37689 35.9396 8.13258 35.9396 9.15909V15H34.5987V9.15909C34.5987 8.51515 34.4226 8.05492 34.0703 7.77841C33.718 7.50189 33.3033 7.36364 32.826 7.36364C32.2124 7.36364 31.737 7.54924 31.3999 7.92045C31.0627 8.28788 30.8942 8.75379 30.8942 9.31818V15H29.5305V9.02273C29.5305 8.52652 29.3696 8.12689 29.0476 7.82386C28.7256 7.51705 28.3108 7.36364 27.8033 7.36364C27.4548 7.36364 27.129 7.45644 26.826 7.64205C26.5268 7.82765 26.2843 8.08523 26.0987 8.41477C25.9169 8.74053 25.826 9.11742 25.826 9.54545V15H24.4851ZM42.2322 15.1591C41.755 15.1515 41.2777 15.0606 40.8004 14.8864C40.3232 14.7121 39.8875 14.4186 39.4936 14.0057C39.0997 13.589 38.7834 13.0265 38.5447 12.3182C38.3061 11.6061 38.1868 10.7121 38.1868 9.63636C38.1868 8.60606 38.2834 7.69318 38.4766 6.89773C38.6697 6.09848 38.95 5.42614 39.3175 4.88068C39.6849 4.33144 40.1281 3.91477 40.647 3.63068C41.1697 3.34659 41.7588 3.20455 42.4141 3.20455C43.0656 3.20455 43.6451 3.33523 44.1527 3.59659C44.6641 3.85417 45.0807 4.21401 45.4027 4.67614C45.7247 5.13826 45.933 5.67045 46.0277 6.27273H44.6413C44.5125 5.75 44.2625 5.31629 43.8913 4.97159C43.5201 4.62689 43.0277 4.45455 42.4141 4.45455C41.5125 4.45455 40.8023 4.84659 40.2834 5.63068C39.7682 6.41477 39.5088 7.51515 39.505 8.93182H39.5959C39.808 8.60985 40.0599 8.33523 40.3516 8.10795C40.647 7.87689 40.9728 7.69886 41.3288 7.57386C41.6849 7.44886 42.0618 7.38636 42.4595 7.38636C43.1262 7.38636 43.736 7.55303 44.2891 7.88636C44.8421 8.21591 45.2853 8.67235 45.6186 9.25568C45.9519 9.83523 46.1186 10.5 46.1186 11.25C46.1186 11.9697 45.9576 12.6288 45.6357 13.2273C45.3137 13.822 44.861 14.2955 44.2777 14.6477C43.6982 14.9962 43.0163 15.1667 42.2322 15.1591ZM42.2322 13.9091C42.7095 13.9091 43.1375 13.7898 43.5163 13.5511C43.8989 13.3125 44.2 12.9924 44.4197 12.5909C44.6432 12.1894 44.755 11.7424 44.755 11.25C44.755 10.7689 44.647 10.3314 44.4311 9.9375C44.219 9.53977 43.9254 9.22348 43.5504 8.98864C43.1792 8.75379 42.755 8.63636 42.2777 8.63636C41.9179 8.63636 41.5826 8.70833 41.272 8.85227C40.9614 8.99242 40.6887 9.18561 40.4538 9.43182C40.2228 9.67803 40.041 9.96023 39.9084 10.2784C39.7758 10.5928 39.7095 10.9242 39.7095 11.2727C39.7095 11.7348 39.8175 12.1667 40.0334 12.5682C40.2531 12.9697 40.5523 13.2936 40.9311 13.5398C41.3137 13.786 41.7474 13.9091 42.2322 13.9091Z" fill="#F32851"/>
<path d="M43.5252 44.6195C43.8435 45.1626 43.8435 45.8374 43.5252 46.3805C42.6989 47.7909 41.7909 48.6989 40.3805 49.5252C39.8374 49.8435 39.1626 49.8435 38.6195 49.5252C37.2091 48.6989 36.3011 47.7909 35.4748 46.3805C35.1565 45.8374 35.1565 45.1626 35.4748 44.6195C36.3011 43.2091 37.2091 42.3011 38.6195 41.4748C39.1626 41.1565 39.8374 41.1565 40.3805 41.4748C41.7909 42.3011 42.6989 43.2091 43.5252 44.6195Z" fill="#F32851"/>
<path d="M8.52523 28.6195C8.84348 29.1626 8.84348 29.8374 8.52523 30.3805C7.69886 31.7909 6.79088 32.6989 5.38054 33.5252C4.83739 33.8435 4.16261 33.8435 3.61946 33.5252C2.20912 32.6989 1.30114 31.7909 0.474768 30.3805C0.15652 29.8374 0.15652 29.1626 0.474768 28.6195C1.30114 27.2091 2.20912 26.3011 3.61946 25.4748C4.16261 25.1565 4.83739 25.1565 5.38054 25.4748C6.79088 26.3011 7.69886 27.2091 8.52523 28.6195Z" fill="#F32851"/>
<path d="M59.5252 44.6195C59.8435 45.1626 59.8435 45.8374 59.5252 46.3805C58.6989 47.7909 57.7909 48.6989 56.3805 49.5252C55.8374 49.8435 55.1626 49.8435 54.6195 49.5252C53.2091 48.6989 52.3011 47.7909 51.4748 46.3805C51.1565 45.8374 51.1565 45.1626 51.4748 44.6195C52.3011 43.2091 53.2091 42.3011 54.6195 41.4748C55.1626 41.1565 55.8374 41.1565 56.3805 41.4748C57.7909 42.3011 58.6989 43.2091 59.5252 44.6195Z" fill="#F32851"/>
<path d="M26.5252 44.6195C26.8435 45.1626 26.8435 45.8374 26.5252 46.3805C25.6989 47.7909 24.7909 48.6989 23.3805 49.5252C22.8374 49.8435 22.1626 49.8435 21.6195 49.5252C20.2091 48.6989 19.3011 47.7909 18.4748 46.3805C18.1565 45.8374 18.1565 45.1626 18.4748 44.6195C19.3011 43.2091 20.2091 42.3011 21.6195 41.4748C22.1626 41.1565 22.8374 41.1565 23.3805 41.4748C24.7909 42.3011 25.6989 43.2091 26.5252 44.6195Z" fill="#F32851"/>
</svg>
