<svg width="60" height="106" viewBox="0 0 60 106" fill="none" xmlns="http://www.w3.org/2000/svg">
<rect x="4.5" y="21.5" width="51" height="84" rx="1.5" stroke="#535353"/>
<line x1="4" y1="37.4999" x2="56" y2="37.4999" stroke="#535353"/>
<line x1="4" y1="53.5" x2="56" y2="53.5" stroke="#535353"/>
<path d="M4 88H55" stroke="#535353"/>
<path d="M4 71H55.5" stroke="#535353"/>
<line x1="22.5" y1="21" x2="22.5" y2="106" stroke="#535353"/>
<path d="M39.5 21L39.5 106" stroke="#535353"/>
<path d="M14.2607 15V3.36364H18.3288C19.1394 3.36364 19.808 3.50379 20.3345 3.78409C20.861 4.06061 21.2531 4.43371 21.5107 4.90341C21.7682 5.36932 21.897 5.88636 21.897 6.45455C21.897 6.95455 21.808 7.36742 21.63 7.69318C21.4557 8.01894 21.2247 8.27652 20.9368 8.46591C20.6527 8.6553 20.344 8.79545 20.0107 8.88636V9C20.3667 9.02273 20.7247 9.14773 21.0845 9.375C21.4444 9.60227 21.7455 9.92803 21.9879 10.3523C22.2304 10.7765 22.3516 11.2955 22.3516 11.9091C22.3516 12.4924 22.219 13.017 21.9538 13.483C21.6887 13.9489 21.2701 14.3182 20.6982 14.5909C20.1262 14.8636 19.3819 15 18.4652 15H14.2607ZM15.6697 13.75H18.4652C19.3857 13.75 20.0391 13.572 20.4254 13.2159C20.8156 12.8561 21.0107 12.4205 21.0107 11.9091C21.0107 11.5152 20.9103 11.1515 20.7095 10.8182C20.5088 10.4811 20.2228 10.2121 19.8516 10.0114C19.4804 9.80682 19.041 9.70455 18.5334 9.70455H15.6697V13.75ZM15.6697 8.47727H18.2834C18.7076 8.47727 19.0902 8.39394 19.4311 8.22727C19.7758 8.06061 20.0485 7.82576 20.2493 7.52273C20.4538 7.2197 20.5561 6.86364 20.5561 6.45455C20.5561 5.94318 20.3781 5.50947 20.022 5.15341C19.666 4.79356 19.1016 4.61364 18.3288 4.61364H15.6697V8.47727ZM24.4851 15V6.27273H25.7805V7.63636H25.8942C26.076 7.17045 26.3696 6.80871 26.7749 6.55114C27.1802 6.28977 27.6669 6.15909 28.2351 6.15909C28.8108 6.15909 29.29 6.28977 29.6726 6.55114C30.0589 6.80871 30.3601 7.17045 30.576 7.63636H30.6669C30.8904 7.18561 31.2256 6.82765 31.6726 6.5625C32.1196 6.29356 32.6555 6.15909 33.2805 6.15909C34.0608 6.15909 34.6991 6.40341 35.1953 6.89205C35.6915 7.37689 35.9396 8.13258 35.9396 9.15909V15H34.5987V9.15909C34.5987 8.51515 34.4226 8.05492 34.0703 7.77841C33.718 7.50189 33.3033 7.36364 32.826 7.36364C32.2124 7.36364 31.737 7.54924 31.3999 7.92045C31.0627 8.28788 30.8942 8.75379 30.8942 9.31818V15H29.5305V9.02273C29.5305 8.52652 29.3696 8.12689 29.0476 7.82386C28.7256 7.51705 28.3108 7.36364 27.8033 7.36364C27.4548 7.36364 27.129 7.45644 26.826 7.64205C26.5268 7.82765 26.2843 8.08523 26.0987 8.41477C25.9169 8.74053 25.826 9.11742 25.826 9.54545V15H24.4851ZM42.0732 3.20455C42.5504 3.20833 43.0277 3.29924 43.505 3.47727C43.9822 3.6553 44.4179 3.95076 44.8118 4.36364C45.2057 4.77273 45.522 5.33144 45.7607 6.03977C45.9993 6.74811 46.1186 7.63636 46.1186 8.70455C46.1186 9.73864 46.0201 10.6572 45.8232 11.4602C45.63 12.2595 45.3497 12.9337 44.9822 13.483C44.6186 14.0322 44.1754 14.4489 43.6527 14.733C43.1338 15.017 42.5466 15.1591 41.8913 15.1591C41.2398 15.1591 40.6584 15.0303 40.147 14.7727C39.6394 14.5114 39.2228 14.1496 38.897 13.6875C38.575 13.2216 38.3686 12.6818 38.2777 12.0682H39.6641C39.7891 12.6023 40.0372 13.0436 40.4084 13.392C40.7834 13.7367 41.2777 13.9091 41.8913 13.9091C42.7891 13.9091 43.4974 13.517 44.0163 12.733C44.5391 11.9489 44.8004 10.8409 44.8004 9.40909H44.7095C44.4974 9.72727 44.2455 10.0019 43.9538 10.233C43.6622 10.464 43.3383 10.642 42.9822 10.767C42.6262 10.892 42.2474 10.9545 41.8459 10.9545C41.1792 10.9545 40.5675 10.7898 40.0107 10.4602C39.4576 10.1269 39.0144 9.67045 38.6811 9.09091C38.3516 8.50758 38.1868 7.84091 38.1868 7.09091C38.1868 6.37879 38.3459 5.72727 38.6641 5.13636C38.986 4.54167 39.4368 4.06818 40.0163 3.71591C40.5997 3.36364 41.2853 3.19318 42.0732 3.20455ZM42.0732 4.45455C41.5959 4.45455 41.166 4.57386 40.7834 4.8125C40.4046 5.04735 40.1035 5.36553 39.88 5.76705C39.6603 6.16477 39.5504 6.60606 39.5504 7.09091C39.5504 7.57576 39.6565 8.01705 39.8686 8.41477C40.0845 8.80871 40.3781 9.12311 40.7493 9.35795C41.1243 9.58902 41.5504 9.70455 42.0277 9.70455C42.3875 9.70455 42.7228 9.63447 43.0334 9.49432C43.344 9.35038 43.6148 9.1553 43.8459 8.90909C44.0807 8.65909 44.2644 8.37689 44.397 8.0625C44.5296 7.74432 44.5959 7.41288 44.5959 7.06818C44.5959 6.61364 44.486 6.1875 44.2663 5.78977C44.0504 5.39205 43.7512 5.07008 43.3686 4.82386C42.9898 4.57765 42.558 4.45455 42.0732 4.45455Z" fill="#F32851"/>
<path d="M43.5252 95.6195C43.8435 96.1626 43.8435 96.8374 43.5252 97.3805C42.6989 98.7909 41.7909 99.6989 40.3805 100.525C39.8374 100.843 39.1626 100.843 38.6195 100.525C37.2091 99.6989 36.3011 98.7909 35.4748 97.3805C35.1565 96.8374 35.1565 96.1626 35.4748 95.6195C36.3011 94.2091 37.2091 93.3011 38.6195 92.4748C39.1626 92.1565 39.8374 92.1565 40.3805 92.4748C41.7909 93.3011 42.6989 94.2091 43.5252 95.6195Z" fill="#F32851"/>
<path d="M26.5252 28.6195C26.8435 29.1626 26.8435 29.8374 26.5252 30.3805C25.6989 31.7909 24.7909 32.6989 23.3805 33.5252C22.8374 33.8435 22.1626 33.8435 21.6195 33.5252C20.2091 32.6989 19.3011 31.7909 18.4748 30.3805C18.1565 29.8374 18.1565 29.1626 18.4748 28.6195C19.3011 27.2091 20.2091 26.3011 21.6195 25.4748C22.1626 25.1565 22.8374 25.1565 23.3805 25.4748C24.7909 26.3011 25.6989 27.2091 26.5252 28.6195Z" fill="#F32851"/>
<path d="M8.52523 78.6195C8.84348 79.1626 8.84348 79.8374 8.52523 80.3805C7.69886 81.7909 6.79088 82.6989 5.38054 83.5252C4.83739 83.8435 4.16261 83.8435 3.61946 83.5252C2.20912 82.6989 1.30114 81.7909 0.474768 80.3805C0.15652 79.8374 0.15652 79.1626 0.474768 78.6195C1.30114 77.2091 2.20912 76.3011 3.61946 75.4748C4.16261 75.1565 4.83739 75.1565 5.38054 75.4748C6.79088 76.3011 7.69886 77.2091 8.52523 78.6195Z" fill="#F32851"/>
<path d="M59.5252 95.6195C59.8435 96.1626 59.8435 96.8374 59.5252 97.3805C58.6989 98.7909 57.7909 99.6989 56.3805 100.525C55.8374 100.843 55.1626 100.843 54.6195 100.525C53.2091 99.6989 52.3011 98.7909 51.4748 97.3805C51.1565 96.8374 51.1565 96.1626 51.4748 95.6195C52.3011 94.2091 53.2091 93.3011 54.6195 92.4748C55.1626 92.1565 55.8374 92.1565 56.3805 92.4748C57.7909 93.3011 58.6989 94.2091 59.5252 95.6195Z" fill="#F32851"/>
</svg>
