<svg width="56" height="106" viewBox="0 0 56 106" fill="none" xmlns="http://www.w3.org/2000/svg">
<rect x="0.5" y="21.5" width="51" height="84" rx="1.5" stroke="#535353"/>
<line y1="37.4999" x2="52" y2="37.4999" stroke="#535353"/>
<line y1="53.5" x2="52" y2="53.5" stroke="#535353"/>
<path d="M0 88H51" stroke="#535353"/>
<path d="M0 71H51.5" stroke="#535353"/>
<line x1="18.5" y1="21" x2="18.5" y2="106" stroke="#535353"/>
<path d="M35.5 21L35.5 106" stroke="#535353"/>
<path d="M55.5252 61.6195C55.8435 62.1626 55.8435 62.8374 55.5252 63.3805C54.6989 64.7909 53.7909 65.6989 52.3805 66.5252C51.8374 66.8435 51.1626 66.8435 50.6195 66.5252C49.2091 65.6989 48.3011 64.7909 47.4748 63.3805C47.1565 62.8374 47.1565 62.1626 47.4748 61.6195C48.3011 60.2091 49.2091 59.3011 50.6195 58.4748C51.1626 58.1565 51.8374 58.1565 52.3805 58.4748C53.7909 59.3011 54.6989 60.2091 55.5252 61.6195Z" fill="#F32851"/>
<path d="M39.5252 61.6195C39.8435 62.1626 39.8435 62.8374 39.5252 63.3805C38.6989 64.7909 37.7909 65.6989 36.3805 66.5252C35.8374 66.8435 35.1626 66.8435 34.6195 66.5252C33.2091 65.6989 32.3011 64.7909 31.4748 63.3805C31.1565 62.8374 31.1565 62.1626 31.4748 61.6195C32.3011 60.2091 33.2091 59.3011 34.6195 58.4748C35.1626 58.1565 35.8374 58.1565 36.3805 58.4748C37.7909 59.3011 38.6989 60.2091 39.5252 61.6195Z" fill="#F32851"/>
<path d="M26.5852 7H25.1761C25.0928 6.5947 24.947 6.23864 24.7386 5.93182C24.5341 5.625 24.2841 5.36742 23.9886 5.15909C23.697 4.94697 23.3731 4.78788 23.017 4.68182C22.661 4.57576 22.2898 4.52273 21.9034 4.52273C21.1989 4.52273 20.5606 4.70076 19.9886 5.05682C19.4205 5.41288 18.9678 5.9375 18.6307 6.63068C18.2973 7.32386 18.1307 8.17424 18.1307 9.18182C18.1307 10.1894 18.2973 11.0398 18.6307 11.733C18.9678 12.4261 19.4205 12.9508 19.9886 13.3068C20.5606 13.6629 21.1989 13.8409 21.9034 13.8409C22.2898 13.8409 22.661 13.7879 23.017 13.6818C23.3731 13.5758 23.697 13.4186 23.9886 13.2102C24.2841 12.9981 24.5341 12.7386 24.7386 12.4318C24.947 12.1212 25.0928 11.7652 25.1761 11.3636H26.5852C26.4792 11.9583 26.286 12.4905 26.0057 12.9602C25.7254 13.4299 25.3769 13.8295 24.9602 14.1591C24.5436 14.4848 24.0758 14.733 23.5568 14.9034C23.0417 15.0739 22.4905 15.1591 21.9034 15.1591C20.911 15.1591 20.0284 14.9167 19.2557 14.4318C18.483 13.947 17.875 13.2576 17.4318 12.3636C16.9886 11.4697 16.767 10.4091 16.767 9.18182C16.767 7.95455 16.9886 6.89394 17.4318 6C17.875 5.10606 18.483 4.41667 19.2557 3.93182C20.0284 3.44697 20.911 3.20455 21.9034 3.20455C22.4905 3.20455 23.0417 3.28977 23.5568 3.46023C24.0758 3.63068 24.5436 3.88068 24.9602 4.21023C25.3769 4.53598 25.7254 4.93371 26.0057 5.40341C26.286 5.86932 26.4792 6.40151 26.5852 7ZM32.294 15.1591C31.6274 15.1591 31.027 15.0265 30.4929 14.7614C29.9588 14.4962 29.5308 14.1326 29.2088 13.6705C28.8868 13.2083 28.7107 12.6818 28.6804 12.0909H30.044C30.0971 12.6174 30.3357 13.053 30.7599 13.3977C31.188 13.7386 31.6993 13.9091 32.294 13.9091C32.7713 13.9091 33.1955 13.7973 33.5668 13.5739C33.9418 13.3504 34.2353 13.0436 34.4474 12.6534C34.6634 12.2595 34.7713 11.8144 34.7713 11.3182C34.7713 10.8106 34.6596 10.358 34.4361 9.96023C34.2164 9.55871 33.9134 9.24242 33.527 9.01136C33.1406 8.7803 32.6993 8.66288 32.2031 8.65909C31.8471 8.6553 31.4815 8.71023 31.1065 8.82386C30.7315 8.93371 30.4228 9.07576 30.1804 9.25L28.8622 9.09091L29.5668 3.36364H35.6122V4.61364H30.7486L30.3395 8.04545H30.4077C30.6463 7.85606 30.9455 7.69886 31.3054 7.57386C31.6652 7.44886 32.0402 7.38636 32.4304 7.38636C33.1425 7.38636 33.777 7.55682 34.3338 7.89773C34.8944 8.23485 35.3338 8.69697 35.652 9.28409C35.974 9.87121 36.1349 10.5417 36.1349 11.2955C36.1349 12.0379 35.9683 12.7008 35.6349 13.2841C35.3054 13.8636 34.8509 14.322 34.2713 14.6591C33.6918 14.9924 33.0327 15.1591 32.294 15.1591Z" fill="#F32851"/>
</svg>
