<svg width="60" height="106" viewBox="0 0 60 106" fill="none" xmlns="http://www.w3.org/2000/svg">
<rect x="4.5" y="21.5" width="51" height="84" rx="1.5" stroke="#535353"/>
<line x1="4" y1="37.4999" x2="56" y2="37.4999" stroke="#535353"/>
<line x1="4" y1="53.5" x2="56" y2="53.5" stroke="#535353"/>
<path d="M4 88H55" stroke="#535353"/>
<path d="M4 71H55.5" stroke="#535353"/>
<line x1="22.5" y1="21" x2="22.5" y2="106" stroke="#535353"/>
<path d="M39.5 21L39.5 106" stroke="#535353"/>
<path d="M59.5252 61.6195C59.8435 62.1626 59.8435 62.8374 59.5252 63.3805C58.6989 64.7909 57.7909 65.6989 56.3805 66.5252C55.8374 66.8435 55.1626 66.8435 54.6195 66.5252C53.2091 65.6989 52.3011 64.7909 51.4748 63.3805C51.1565 62.8374 51.1565 62.1626 51.4748 61.6195C52.3011 60.2091 53.2091 59.3011 54.6195 58.4748C55.1626 58.1565 55.8374 58.1565 56.3805 58.4748C57.7909 59.3011 58.6989 60.2091 59.5252 61.6195Z" fill="#F32851"/>
<path d="M8.52523 61.6195C8.84348 62.1626 8.84348 62.8374 8.52523 63.3805C7.69886 64.7909 6.79088 65.6989 5.38054 66.5252C4.83739 66.8435 4.16261 66.8435 3.61946 66.5252C2.20912 65.6989 1.30114 64.7909 0.474768 63.3805C0.15652 62.8374 0.15652 62.1626 0.474768 61.6195C1.30114 60.2091 2.20912 59.3011 3.61946 58.4748C4.16261 58.1565 4.83739 58.1565 5.38054 58.4748C6.79088 59.3011 7.69886 60.2091 8.52523 61.6195Z" fill="#F32851"/>
<path d="M26.5252 44.6195C26.8435 45.1626 26.8435 45.8374 26.5252 46.3805C25.6989 47.7909 24.7909 48.6989 23.3805 49.5252C22.8374 49.8435 22.1626 49.8435 21.6195 49.5252C20.2091 48.6989 19.3011 47.7909 18.4748 46.3805C18.1565 45.8374 18.1565 45.1626 18.4748 44.6195C19.3011 43.2091 20.2091 42.3011 21.6195 41.4748C22.1626 41.1565 22.8374 41.1565 23.3805 41.4748C24.7909 42.3011 25.6989 43.2091 26.5252 44.6195Z" fill="#F32851"/>
<path d="M30.4602 7H29.0511C28.9678 6.5947 28.822 6.23864 28.6136 5.93182C28.4091 5.625 28.1591 5.36742 27.8636 5.15909C27.572 4.94697 27.2481 4.78788 26.892 4.68182C26.536 4.57576 26.1648 4.52273 25.7784 4.52273C25.0739 4.52273 24.4356 4.70076 23.8636 5.05682C23.2955 5.41288 22.8428 5.9375 22.5057 6.63068C22.1723 7.32386 22.0057 8.17424 22.0057 9.18182C22.0057 10.1894 22.1723 11.0398 22.5057 11.733C22.8428 12.4261 23.2955 12.9508 23.8636 13.3068C24.4356 13.6629 25.0739 13.8409 25.7784 13.8409C26.1648 13.8409 26.536 13.7879 26.892 13.6818C27.2481 13.5758 27.572 13.4186 27.8636 13.2102C28.1591 12.9981 28.4091 12.7386 28.6136 12.4318C28.822 12.1212 28.9678 11.7652 29.0511 11.3636H30.4602C30.3542 11.9583 30.161 12.4905 29.8807 12.9602C29.6004 13.4299 29.2519 13.8295 28.8352 14.1591C28.4186 14.4848 27.9508 14.733 27.4318 14.9034C26.9167 15.0739 26.3655 15.1591 25.7784 15.1591C24.786 15.1591 23.9034 14.9167 23.1307 14.4318C22.358 13.947 21.75 13.2576 21.3068 12.3636C20.8636 11.4697 20.642 10.4091 20.642 9.18182C20.642 7.95455 20.8636 6.89394 21.3068 6C21.75 5.10606 22.358 4.41667 23.1307 3.93182C23.9034 3.44697 24.786 3.20455 25.7784 3.20455C26.3655 3.20455 26.9167 3.28977 27.4318 3.46023C27.9508 3.63068 28.4186 3.88068 28.8352 4.21023C29.2519 4.53598 29.6004 4.93371 29.8807 5.40341C30.161 5.86932 30.3542 6.40151 30.4602 7ZM36.2372 3.20455C36.7145 3.20833 37.1918 3.29924 37.669 3.47727C38.1463 3.6553 38.5819 3.95076 38.9759 4.36364C39.3698 4.77273 39.6861 5.33144 39.9247 6.03977C40.1634 6.74811 40.2827 7.63636 40.2827 8.70455C40.2827 9.73864 40.1842 10.6572 39.9872 11.4602C39.794 12.2595 39.5137 12.9337 39.1463 13.483C38.7827 14.0322 38.3395 14.4489 37.8168 14.733C37.2978 15.017 36.7107 15.1591 36.0554 15.1591C35.4039 15.1591 34.8224 15.0303 34.3111 14.7727C33.8035 14.5114 33.3868 14.1496 33.0611 13.6875C32.7391 13.2216 32.5327 12.6818 32.4418 12.0682H33.8281C33.9531 12.6023 34.2012 13.0436 34.5724 13.392C34.9474 13.7367 35.4418 13.9091 36.0554 13.9091C36.9531 13.9091 37.6615 13.517 38.1804 12.733C38.7031 11.9489 38.9645 10.8409 38.9645 9.40909H38.8736C38.6615 9.72727 38.4096 10.0019 38.1179 10.233C37.8262 10.464 37.5024 10.642 37.1463 10.767C36.7902 10.892 36.4115 10.9545 36.0099 10.9545C35.3433 10.9545 34.7315 10.7898 34.1747 10.4602C33.6217 10.1269 33.1785 9.67045 32.8452 9.09091C32.5156 8.50758 32.3509 7.84091 32.3509 7.09091C32.3509 6.37879 32.5099 5.72727 32.8281 5.13636C33.1501 4.54167 33.6009 4.06818 34.1804 3.71591C34.7637 3.36364 35.4493 3.19318 36.2372 3.20455ZM36.2372 4.45455C35.7599 4.45455 35.33 4.57386 34.9474 4.8125C34.5687 5.04735 34.2675 5.36553 34.044 5.76705C33.8243 6.16477 33.7145 6.60606 33.7145 7.09091C33.7145 7.57576 33.8205 8.01705 34.0327 8.41477C34.2486 8.80871 34.5421 9.12311 34.9134 9.35795C35.2884 9.58902 35.7145 9.70455 36.1918 9.70455C36.5516 9.70455 36.8868 9.63447 37.1974 9.49432C37.508 9.35038 37.7789 9.1553 38.0099 8.90909C38.2448 8.65909 38.4285 8.37689 38.5611 8.0625C38.6937 7.74432 38.7599 7.41288 38.7599 7.06818C38.7599 6.61364 38.6501 6.1875 38.4304 5.78977C38.2145 5.39205 37.9152 5.07008 37.5327 4.82386C37.1539 4.57765 36.7221 4.45455 36.2372 4.45455Z" fill="#F32851"/>
</svg>
