<svg width="60" height="106" viewBox="0 0 60 106" fill="none" xmlns="http://www.w3.org/2000/svg">
<rect x="4.5" y="21.5" width="51" height="84" rx="1.5" stroke="#535353"/>
<line x1="4" y1="37.4999" x2="56" y2="37.4999" stroke="#535353"/>
<line x1="4" y1="53.5" x2="56" y2="53.5" stroke="#535353"/>
<path d="M4 88H55" stroke="#535353"/>
<path d="M4 71H55.5" stroke="#535353"/>
<line x1="22.5" y1="21" x2="22.5" y2="106" stroke="#535353"/>
<path d="M39.5 21L39.5 106" stroke="#535353"/>
<path d="M59.5252 61.6195C59.8435 62.1626 59.8435 62.8374 59.5252 63.3805C58.6989 64.7909 57.7909 65.6989 56.3805 66.5252C55.8374 66.8435 55.1626 66.8435 54.6195 66.5252C53.2091 65.6989 52.3011 64.7909 51.4748 63.3805C51.1565 62.8374 51.1565 62.1626 51.4748 61.6195C52.3011 60.2091 53.2091 59.3011 54.6195 58.4748C55.1626 58.1565 55.8374 58.1565 56.3805 58.4748C57.7909 59.3011 58.6989 60.2091 59.5252 61.6195Z" fill="#F32851"/>
<path d="M43.5252 44.6195C43.8435 45.1626 43.8435 45.8374 43.5252 46.3805C42.6989 47.7909 41.7909 48.6989 40.3805 49.5252C39.8374 49.8435 39.1626 49.8435 38.6195 49.5252C37.2091 48.6989 36.3011 47.7909 35.4748 46.3805C35.1565 45.8374 35.1565 45.1626 35.4748 44.6195C36.3011 43.2091 37.2091 42.3011 38.6195 41.4748C39.1626 41.1565 39.8374 41.1565 40.3805 41.4748C41.7909 42.3011 42.6989 43.2091 43.5252 44.6195Z" fill="#F32851"/>
<path d="M26.5252 61.6195C26.8435 62.1626 26.8435 62.8374 26.5252 63.3805C25.6989 64.7909 24.7909 65.6989 23.3805 66.5252C22.8374 66.8435 22.1626 66.8435 21.6195 66.5252C20.2091 65.6989 19.3011 64.7909 18.4748 63.3805C18.1565 62.8374 18.1565 62.1626 18.4748 61.6195C19.3011 60.2091 20.2091 59.3011 21.6195 58.4748C22.1626 58.1565 22.8374 58.1565 23.3805 58.4748C24.7909 59.3011 25.6989 60.2091 26.5252 61.6195Z" fill="#F32851"/>
<path d="M21.1321 7H19.723C19.6397 6.5947 19.4938 6.23864 19.2855 5.93182C19.081 5.625 18.831 5.36742 18.5355 5.15909C18.2438 4.94697 17.92 4.78788 17.5639 4.68182C17.2079 4.57576 16.8366 4.52273 16.4503 4.52273C15.7457 4.52273 15.1075 4.70076 14.5355 5.05682C13.9673 5.41288 13.5147 5.9375 13.1776 6.63068C12.8442 7.32386 12.6776 8.17424 12.6776 9.18182C12.6776 10.1894 12.8442 11.0398 13.1776 11.733C13.5147 12.4261 13.9673 12.9508 14.5355 13.3068C15.1075 13.6629 15.7457 13.8409 16.4503 13.8409C16.8366 13.8409 17.2079 13.7879 17.5639 13.6818C17.92 13.5758 18.2438 13.4186 18.5355 13.2102C18.831 12.9981 19.081 12.7386 19.2855 12.4318C19.4938 12.1212 19.6397 11.7652 19.723 11.3636H21.1321C21.026 11.9583 20.8329 12.4905 20.5526 12.9602C20.2723 13.4299 19.9238 13.8295 19.5071 14.1591C19.0904 14.4848 18.6226 14.733 18.1037 14.9034C17.5885 15.0739 17.0374 15.1591 16.4503 15.1591C15.4579 15.1591 14.5753 14.9167 13.8026 14.4318C13.0298 13.947 12.4219 13.2576 11.9787 12.3636C11.5355 11.4697 11.3139 10.4091 11.3139 9.18182C11.3139 7.95455 11.5355 6.89394 11.9787 6C12.4219 5.10606 13.0298 4.41667 13.8026 3.93182C14.5753 3.44697 15.4579 3.20455 16.4503 3.20455C17.0374 3.20455 17.5885 3.28977 18.1037 3.46023C18.6226 3.63068 19.0904 3.88068 19.5071 4.21023C19.9238 4.53598 20.2723 4.93371 20.5526 5.40341C20.8329 5.86932 21.026 6.40151 21.1321 7ZM26.5227 15.1818C25.7955 15.1818 25.1534 14.9981 24.5966 14.6307C24.0398 14.2595 23.6042 13.7367 23.2898 13.0625C22.9754 12.3845 22.8182 11.5833 22.8182 10.6591C22.8182 9.74242 22.9754 8.94697 23.2898 8.27273C23.6042 7.59848 24.0417 7.07765 24.6023 6.71023C25.1629 6.3428 25.8106 6.15909 26.5455 6.15909C27.1136 6.15909 27.5625 6.25379 27.892 6.44318C28.2254 6.62879 28.4792 6.84091 28.6534 7.07955C28.8314 7.31439 28.9697 7.50758 29.0682 7.65909H29.1818V3.36364H30.5227V15H29.2273V13.6591H29.0682C28.9697 13.8182 28.8295 14.0189 28.6477 14.2614C28.4659 14.5 28.2064 14.714 27.8693 14.9034C27.5322 15.089 27.0833 15.1818 26.5227 15.1818ZM26.7045 13.9773C27.2424 13.9773 27.697 13.8371 28.0682 13.5568C28.4394 13.2727 28.7216 12.8807 28.9148 12.3807C29.108 11.8769 29.2045 11.2955 29.2045 10.6364C29.2045 9.98485 29.1098 9.41477 28.9205 8.92614C28.7311 8.43371 28.4508 8.05114 28.0795 7.77841C27.7083 7.50189 27.25 7.36364 26.7045 7.36364C26.1364 7.36364 25.6629 7.50947 25.2841 7.80114C24.9091 8.08902 24.6269 8.48106 24.4375 8.97727C24.2519 9.4697 24.1591 10.0227 24.1591 10.6364C24.1591 11.2576 24.2538 11.822 24.4432 12.3295C24.6364 12.8333 24.9205 13.2348 25.2955 13.5341C25.6742 13.8295 26.1439 13.9773 26.7045 13.9773ZM33.1648 15V6.27273H34.5057V15H33.1648ZM33.8466 4.81818C33.5852 4.81818 33.3598 4.72917 33.1705 4.55114C32.9848 4.37311 32.892 4.15909 32.892 3.90909C32.892 3.65909 32.9848 3.44508 33.1705 3.26705C33.3598 3.08902 33.5852 3 33.8466 3C34.108 3 34.3314 3.08902 34.517 3.26705C34.7064 3.44508 34.8011 3.65909 34.8011 3.90909C34.8011 4.15909 34.7064 4.37311 34.517 4.55114C34.3314 4.72917 34.108 4.81818 33.8466 4.81818ZM36.9616 15V6.27273H38.2571V7.63636H38.3707C38.5526 7.17045 38.8461 6.80871 39.2514 6.55114C39.6567 6.28977 40.1435 6.15909 40.7116 6.15909C41.2874 6.15909 41.7666 6.28977 42.1491 6.55114C42.5355 6.80871 42.8366 7.17045 43.0526 7.63636H43.1435C43.367 7.18561 43.7022 6.82765 44.1491 6.5625C44.5961 6.29356 45.1321 6.15909 45.7571 6.15909C46.5374 6.15909 47.1757 6.40341 47.6719 6.89205C48.1681 7.37689 48.4162 8.13258 48.4162 9.15909V15H47.0753V9.15909C47.0753 8.51515 46.8991 8.05492 46.5469 7.77841C46.1946 7.50189 45.7798 7.36364 45.3026 7.36364C44.6889 7.36364 44.2135 7.54924 43.8764 7.92045C43.5393 8.28788 43.3707 8.75379 43.3707 9.31818V15H42.0071V9.02273C42.0071 8.52652 41.8461 8.12689 41.5241 7.82386C41.2022 7.51705 40.7874 7.36364 40.2798 7.36364C39.9313 7.36364 39.6056 7.45644 39.3026 7.64205C39.0033 7.82765 38.7609 8.08523 38.5753 8.41477C38.3935 8.74053 38.3026 9.11742 38.3026 9.54545V15H36.9616Z" fill="#F32851"/>
<path d="M2.40696 17.2727L4.49787 20.8409L6.58878 17.2727H8.13423L5.31605 21.6364L8.13423 26H6.58878L4.49787 22.6136L2.40696 26H0.861506L3.63423 21.6364L0.861506 17.2727H2.40696Z" fill="#F32851"/>
</svg>
