<svg width="58" height="106" viewBox="0 0 58 106" fill="none" xmlns="http://www.w3.org/2000/svg">
<rect x="3.5" y="21.5" width="51" height="84" rx="1.5" stroke="#535353"/>
<line x1="3" y1="37.4999" x2="55" y2="37.4999" stroke="#535353"/>
<line x1="3" y1="53.5" x2="55" y2="53.5" stroke="#535353"/>
<path d="M3 88H54" stroke="#535353"/>
<path d="M3 71H54.5" stroke="#535353"/>
<line x1="21.5" y1="21" x2="21.5" y2="106" stroke="#535353"/>
<path d="M38.5 21L38.5 106" stroke="#535353"/>
<path d="M22.429 7H21.0199C20.9366 6.5947 20.7907 6.23864 20.5824 5.93182C20.3778 5.625 20.1278 5.36742 19.8324 5.15909C19.5407 4.94697 19.2169 4.78788 18.8608 4.68182C18.5047 4.57576 18.1335 4.52273 17.7472 4.52273C17.0426 4.52273 16.4044 4.70076 15.8324 5.05682C15.2642 5.41288 14.8116 5.9375 14.4744 6.63068C14.1411 7.32386 13.9744 8.17424 13.9744 9.18182C13.9744 10.1894 14.1411 11.0398 14.4744 11.733C14.8116 12.4261 15.2642 12.9508 15.8324 13.3068C16.4044 13.6629 17.0426 13.8409 17.7472 13.8409C18.1335 13.8409 18.5047 13.7879 18.8608 13.6818C19.2169 13.5758 19.5407 13.4186 19.8324 13.2102C20.1278 12.9981 20.3778 12.7386 20.5824 12.4318C20.7907 12.1212 20.9366 11.7652 21.0199 11.3636H22.429C22.3229 11.9583 22.1297 12.4905 21.8494 12.9602C21.5691 13.4299 21.2206 13.8295 20.804 14.1591C20.3873 14.4848 19.9195 14.733 19.4006 14.9034C18.8854 15.0739 18.3343 15.1591 17.7472 15.1591C16.7547 15.1591 15.8722 14.9167 15.0994 14.4318C14.3267 13.947 13.7188 13.2576 13.2756 12.3636C12.8324 11.4697 12.6108 10.4091 12.6108 9.18182C12.6108 7.95455 12.8324 6.89394 13.2756 6C13.7188 5.10606 14.3267 4.41667 15.0994 3.93182C15.8722 3.44697 16.7547 3.20455 17.7472 3.20455C18.3343 3.20455 18.8854 3.28977 19.4006 3.46023C19.9195 3.63068 20.3873 3.88068 20.804 4.21023C21.2206 4.53598 21.5691 4.93371 21.8494 5.40341C22.1297 5.86932 22.3229 6.40151 22.429 7ZM24.5241 15V6.27273H25.8196V7.63636H25.9332C26.1151 7.17045 26.4086 6.80871 26.8139 6.55114C27.2192 6.28977 27.706 6.15909 28.2741 6.15909C28.8499 6.15909 29.3291 6.28977 29.7116 6.55114C30.098 6.80871 30.3991 7.17045 30.6151 7.63636H30.706C30.9295 7.18561 31.2647 6.82765 31.7116 6.5625C32.1586 6.29356 32.6946 6.15909 33.3196 6.15909C34.0999 6.15909 34.7382 6.40341 35.2344 6.89205C35.7306 7.37689 35.9787 8.13258 35.9787 9.15909V15H34.6378V9.15909C34.6378 8.51515 34.4616 8.05492 34.1094 7.77841C33.7571 7.50189 33.3423 7.36364 32.8651 7.36364C32.2514 7.36364 31.776 7.54924 31.4389 7.92045C31.1018 8.28788 30.9332 8.75379 30.9332 9.31818V15H29.5696V9.02273C29.5696 8.52652 29.4086 8.12689 29.0866 7.82386C28.7647 7.51705 28.3499 7.36364 27.8423 7.36364C27.4938 7.36364 27.1681 7.45644 26.8651 7.64205C26.5658 7.82765 26.3234 8.08523 26.1378 8.41477C25.956 8.74053 25.8651 9.11742 25.8651 9.54545V15H24.5241ZM38.7713 15L43.9759 4.70455V4.61364H37.9759V3.36364H45.4304V4.68182L40.2486 15H38.7713Z" fill="#F32851"/>
<path d="M3 62.5H55" stroke="#F32851" stroke-width="5" stroke-linecap="round"/>
</svg>
