<svg width="56" height="106" viewBox="0 0 56 106" fill="none" xmlns="http://www.w3.org/2000/svg">
<rect x="0.5" y="21.5" width="51" height="84" rx="1.5" stroke="#535353"/>
<line y1="37.4999" x2="52" y2="37.4999" stroke="#535353"/>
<line y1="53.5" x2="52" y2="53.5" stroke="#535353"/>
<path d="M0 88H51" stroke="#535353"/>
<path d="M0 71H51.5" stroke="#535353"/>
<line x1="18.5" y1="21" x2="18.5" y2="106" stroke="#535353"/>
<path d="M35.5 21L35.5 106" stroke="#535353"/>
<path d="M55.5252 44.6195C55.8435 45.1626 55.8435 45.8374 55.5252 46.3805C54.6989 47.7909 53.7909 48.6989 52.3805 49.5252C51.8374 49.8435 51.1626 49.8435 50.6195 49.5252C49.2091 48.6989 48.3011 47.7909 47.4748 46.3805C47.1565 45.8374 47.1565 45.1626 47.4748 44.6195C48.3011 43.2091 49.2091 42.3011 50.6195 41.4748C51.1626 41.1565 51.8374 41.1565 52.3805 41.4748C53.7909 42.3011 54.6989 43.2091 55.5252 44.6195Z" fill="#F32851"/>
<path d="M13.0227 7H11.6136C11.5303 6.5947 11.3845 6.23864 11.1761 5.93182C10.9716 5.625 10.7216 5.36742 10.4261 5.15909C10.1345 4.94697 9.81061 4.78788 9.45455 4.68182C9.09849 4.57576 8.72727 4.52273 8.34091 4.52273C7.63636 4.52273 6.99811 4.70076 6.42614 5.05682C5.85795 5.41288 5.4053 5.9375 5.06818 6.63068C4.73485 7.32386 4.56818 8.17424 4.56818 9.18182C4.56818 10.1894 4.73485 11.0398 5.06818 11.733C5.4053 12.4261 5.85795 12.9508 6.42614 13.3068C6.99811 13.6629 7.63636 13.8409 8.34091 13.8409C8.72727 13.8409 9.09849 13.7879 9.45455 13.6818C9.81061 13.5758 10.1345 13.4186 10.4261 13.2102C10.7216 12.9981 10.9716 12.7386 11.1761 12.4318C11.3845 12.1212 11.5303 11.7652 11.6136 11.3636H13.0227C12.9167 11.9583 12.7235 12.4905 12.4432 12.9602C12.1629 13.4299 11.8144 13.8295 11.3977 14.1591C10.9811 14.4848 10.5133 14.733 9.99432 14.9034C9.47917 15.0739 8.92803 15.1591 8.34091 15.1591C7.34849 15.1591 6.46591 14.9167 5.69318 14.4318C4.92045 13.947 4.3125 13.2576 3.86932 12.3636C3.42614 11.4697 3.20455 10.4091 3.20455 9.18182C3.20455 7.95455 3.42614 6.89394 3.86932 6C4.3125 5.10606 4.92045 4.41667 5.69318 3.93182C6.46591 3.44697 7.34849 3.20455 8.34091 3.20455C8.92803 3.20455 9.47917 3.28977 9.99432 3.46023C10.5133 3.63068 10.9811 3.88068 11.3977 4.21023C11.8144 4.53598 12.1629 4.93371 12.4432 5.40341C12.7235 5.86932 12.9167 6.40151 13.0227 7ZM15.1179 15V6.27273H16.4134V7.63636H16.527C16.7088 7.17045 17.0024 6.80871 17.4077 6.55114C17.813 6.28977 18.2997 6.15909 18.8679 6.15909C19.4437 6.15909 19.9228 6.28977 20.3054 6.55114C20.6918 6.80871 20.9929 7.17045 21.2088 7.63636H21.2997C21.5232 7.18561 21.8584 6.82765 22.3054 6.5625C22.7524 6.29356 23.2884 6.15909 23.9134 6.15909C24.6937 6.15909 25.3319 6.40341 25.8281 6.89205C26.3243 7.37689 26.5724 8.13258 26.5724 9.15909V15H25.2315V9.15909C25.2315 8.51515 25.0554 8.05492 24.7031 7.77841C24.3509 7.50189 23.9361 7.36364 23.4588 7.36364C22.8452 7.36364 22.3698 7.54924 22.0327 7.92045C21.6955 8.28788 21.527 8.75379 21.527 9.31818V15H20.1634V9.02273C20.1634 8.52652 20.0024 8.12689 19.6804 7.82386C19.3584 7.51705 18.9437 7.36364 18.4361 7.36364C18.0876 7.36364 17.7618 7.45644 17.4588 7.64205C17.1596 7.82765 16.9171 8.08523 16.7315 8.41477C16.5497 8.74053 16.4588 9.11742 16.4588 9.54545V15H15.1179ZM31.5923 15.2045C31.0393 15.2045 30.5374 15.1004 30.0866 14.892C29.6359 14.6799 29.2779 14.375 29.0128 13.9773C28.7476 13.5758 28.6151 13.0909 28.6151 12.5227C28.6151 12.0227 28.7135 11.6174 28.9105 11.3068C29.1075 10.9924 29.3707 10.7462 29.7003 10.5682C30.0298 10.3902 30.3935 10.2576 30.7912 10.1705C31.1927 10.0795 31.5961 10.0076 32.0014 9.95455C32.5317 9.88636 32.9616 9.83523 33.2912 9.80114C33.6245 9.76326 33.867 9.70076 34.0185 9.61364C34.1738 9.52652 34.2514 9.375 34.2514 9.15909V9.11364C34.2514 8.55303 34.098 8.11742 33.7912 7.80682C33.4882 7.49621 33.0279 7.34091 32.4105 7.34091C31.7704 7.34091 31.2685 7.48106 30.9048 7.76136C30.5412 8.04167 30.2855 8.34091 30.1378 8.65909L28.8651 8.20455C29.0923 7.67424 29.3954 7.26136 29.7741 6.96591C30.1567 6.66667 30.5734 6.45833 31.0241 6.34091C31.4787 6.2197 31.9257 6.15909 32.3651 6.15909C32.6454 6.15909 32.9673 6.19318 33.331 6.26136C33.6984 6.32576 34.0526 6.46023 34.3935 6.66477C34.7382 6.86932 35.0241 7.17803 35.2514 7.59091C35.4787 8.00379 35.5923 8.55682 35.5923 9.25V15H34.2514V13.8182H34.1832C34.0923 14.0076 33.9408 14.2102 33.7287 14.4261C33.5166 14.642 33.2344 14.8258 32.8821 14.9773C32.5298 15.1288 32.0999 15.2045 31.5923 15.2045ZM31.7969 14C32.3272 14 32.7741 13.8958 33.1378 13.6875C33.5052 13.4792 33.7817 13.2102 33.9673 12.8807C34.1567 12.5511 34.2514 12.2045 34.2514 11.8409V10.6136C34.1946 10.6818 34.0696 10.7443 33.8764 10.8011C33.687 10.8542 33.4673 10.9015 33.2173 10.9432C32.9711 10.9811 32.7306 11.0152 32.4957 11.0455C32.2647 11.072 32.0772 11.0947 31.9332 11.1136C31.5848 11.1591 31.259 11.233 30.956 11.3352C30.6567 11.4337 30.4143 11.5833 30.2287 11.7841C30.0469 11.9811 29.956 12.25 29.956 12.5909C29.956 13.0568 30.1283 13.4091 30.473 13.6477C30.8215 13.8826 31.2628 14 31.7969 14ZM38.0398 6.27273H39.3807V15.6364C39.3807 16.1742 39.2879 16.6402 39.1023 17.0341C38.9205 17.428 38.6439 17.733 38.2727 17.9489C37.9053 18.1648 37.4413 18.2727 36.8807 18.2727C36.8352 18.2727 36.7898 18.2727 36.7443 18.2727C36.6989 18.2727 36.6534 18.2727 36.608 18.2727V17.0227C36.6534 17.0227 36.6951 17.0227 36.733 17.0227C36.7708 17.0227 36.8125 17.0227 36.858 17.0227C37.267 17.0227 37.5663 16.9015 37.7557 16.6591C37.9451 16.4205 38.0398 16.0795 38.0398 15.6364V6.27273ZM38.6989 4.81818C38.4375 4.81818 38.2121 4.72917 38.0227 4.55114C37.8371 4.37311 37.7443 4.15909 37.7443 3.90909C37.7443 3.65909 37.8371 3.44508 38.0227 3.26705C38.2121 3.08902 38.4375 3 38.6989 3C38.9602 3 39.1837 3.08902 39.3693 3.26705C39.5587 3.44508 39.6534 3.65909 39.6534 3.90909C39.6534 4.15909 39.5587 4.37311 39.3693 4.55114C39.1837 4.72917 38.9602 4.81818 38.6989 4.81818ZM42.1776 15L47.3821 4.70455V4.61364H41.3821V3.36364H48.8366V4.68182L43.6548 15H42.1776Z" fill="#F32851"/>
</svg>
