<svg width="58" height="106" viewBox="0 0 58 106" fill="none" xmlns="http://www.w3.org/2000/svg">
<rect x="3.5" y="21.5" width="51" height="84" rx="1.5" stroke="#535353"/>
<line x1="3" y1="37.4999" x2="55" y2="37.4999" stroke="#535353"/>
<line x1="3" y1="53.5" x2="55" y2="53.5" stroke="#535353"/>
<path d="M3 88H54" stroke="#535353"/>
<path d="M3 71H54.5" stroke="#535353"/>
<line x1="21.5" y1="21" x2="21.5" y2="106" stroke="#535353"/>
<path d="M38.5 21L38.5 106" stroke="#535353"/>
<path d="M23.9134 7H22.5043C22.4209 6.5947 22.2751 6.23864 22.0668 5.93182C21.8622 5.625 21.6122 5.36742 21.3168 5.15909C21.0251 4.94697 20.7012 4.78788 20.3452 4.68182C19.9891 4.57576 19.6179 4.52273 19.2315 4.52273C18.527 4.52273 17.8887 4.70076 17.3168 5.05682C16.7486 5.41288 16.2959 5.9375 15.9588 6.63068C15.6255 7.32386 15.4588 8.17424 15.4588 9.18182C15.4588 10.1894 15.6255 11.0398 15.9588 11.733C16.2959 12.4261 16.7486 12.9508 17.3168 13.3068C17.8887 13.6629 18.527 13.8409 19.2315 13.8409C19.6179 13.8409 19.9891 13.7879 20.3452 13.6818C20.7012 13.5758 21.0251 13.4186 21.3168 13.2102C21.6122 12.9981 21.8622 12.7386 22.0668 12.4318C22.2751 12.1212 22.4209 11.7652 22.5043 11.3636H23.9134C23.8073 11.9583 23.6141 12.4905 23.3338 12.9602C23.0535 13.4299 22.705 13.8295 22.2884 14.1591C21.8717 14.4848 21.4039 14.733 20.8849 14.9034C20.3698 15.0739 19.8187 15.1591 19.2315 15.1591C18.2391 15.1591 17.3565 14.9167 16.5838 14.4318C15.8111 13.947 15.2031 13.2576 14.7599 12.3636C14.3168 11.4697 14.0952 10.4091 14.0952 9.18182C14.0952 7.95455 14.3168 6.89394 14.7599 6C15.2031 5.10606 15.8111 4.41667 16.5838 3.93182C17.3565 3.44697 18.2391 3.20455 19.2315 3.20455C19.8187 3.20455 20.3698 3.28977 20.8849 3.46023C21.4039 3.63068 21.8717 3.88068 22.2884 4.21023C22.705 4.53598 23.0535 4.93371 23.3338 5.40341C23.6141 5.86932 23.8073 6.40151 23.9134 7ZM30.3494 15L32.2585 3.36364H33.3949L31.4858 15H30.3494ZM25.054 11.7727L25.2358 10.6364H33.9176L33.7358 11.7727H25.054ZM26.2585 15L28.1676 3.36364H29.304L27.3949 15H26.2585ZM25.7358 7.72727L25.9176 6.59091H34.5994L34.4176 7.72727H25.7358ZM39.9432 15.1591C39.4659 15.1515 38.9886 15.0606 38.5114 14.8864C38.0341 14.7121 37.5985 14.4186 37.2045 14.0057C36.8106 13.589 36.4943 13.0265 36.2557 12.3182C36.017 11.6061 35.8977 10.7121 35.8977 9.63636C35.8977 8.60606 35.9943 7.69318 36.1875 6.89773C36.3807 6.09848 36.661 5.42614 37.0284 4.88068C37.3958 4.33144 37.839 3.91477 38.358 3.63068C38.8807 3.34659 39.4697 3.20455 40.125 3.20455C40.7765 3.20455 41.3561 3.33523 41.8636 3.59659C42.375 3.85417 42.7917 4.21401 43.1136 4.67614C43.4356 5.13826 43.6439 5.67045 43.7386 6.27273H42.3523C42.2235 5.75 41.9735 5.31629 41.6023 4.97159C41.2311 4.62689 40.7386 4.45455 40.125 4.45455C39.2235 4.45455 38.5133 4.84659 37.9943 5.63068C37.4792 6.41477 37.2197 7.51515 37.2159 8.93182H37.3068C37.5189 8.60985 37.7708 8.33523 38.0625 8.10795C38.358 7.87689 38.6837 7.69886 39.0398 7.57386C39.3958 7.44886 39.7727 7.38636 40.1705 7.38636C40.8371 7.38636 41.447 7.55303 42 7.88636C42.553 8.21591 42.9962 8.67235 43.3295 9.25568C43.6629 9.83523 43.8295 10.5 43.8295 11.25C43.8295 11.9697 43.6686 12.6288 43.3466 13.2273C43.0246 13.822 42.572 14.2955 41.9886 14.6477C41.4091 14.9962 40.7273 15.1667 39.9432 15.1591ZM39.9432 13.9091C40.4205 13.9091 40.8485 13.7898 41.2273 13.5511C41.6098 13.3125 41.911 12.9924 42.1307 12.5909C42.3542 12.1894 42.4659 11.7424 42.4659 11.25C42.4659 10.7689 42.358 10.3314 42.142 9.9375C41.9299 9.53977 41.6364 9.22348 41.2614 8.98864C40.8902 8.75379 40.4659 8.63636 39.9886 8.63636C39.6288 8.63636 39.2936 8.70833 38.983 8.85227C38.6723 8.99242 38.3996 9.18561 38.1648 9.43182C37.9337 9.67803 37.7519 9.96023 37.6193 10.2784C37.4867 10.5928 37.4205 10.9242 37.4205 11.2727C37.4205 11.7348 37.5284 12.1667 37.7443 12.5682C37.964 12.9697 38.2633 13.2936 38.642 13.5398C39.0246 13.786 39.4583 13.9091 39.9432 13.9091Z" fill="#F32851"/>
<path d="M3 28H55" stroke="#F32851" stroke-width="5" stroke-linecap="round"/>
</svg>
