<svg width="59" height="106" viewBox="0 0 59 106" fill="none" xmlns="http://www.w3.org/2000/svg">
<rect x="3.5" y="21.5" width="51" height="84" rx="1.5" stroke="#535353"/>
<line x1="3" y1="37.4999" x2="55" y2="37.4999" stroke="#535353"/>
<line x1="3" y1="53.5" x2="55" y2="53.5" stroke="#535353"/>
<path d="M3 88H54" stroke="#535353"/>
<path d="M3 71H54.5" stroke="#535353"/>
<line x1="21.5" y1="21" x2="21.5" y2="106" stroke="#535353"/>
<path d="M38.5 21L38.5 106" stroke="#535353"/>
<path d="M24.3352 7H22.9261C22.8428 6.5947 22.697 6.23864 22.4886 5.93182C22.2841 5.625 22.0341 5.36742 21.7386 5.15909C21.447 4.94697 21.1231 4.78788 20.767 4.68182C20.411 4.57576 20.0398 4.52273 19.6534 4.52273C18.9489 4.52273 18.3106 4.70076 17.7386 5.05682C17.1705 5.41288 16.7178 5.9375 16.3807 6.63068C16.0473 7.32386 15.8807 8.17424 15.8807 9.18182C15.8807 10.1894 16.0473 11.0398 16.3807 11.733C16.7178 12.4261 17.1705 12.9508 17.7386 13.3068C18.3106 13.6629 18.9489 13.8409 19.6534 13.8409C20.0398 13.8409 20.411 13.7879 20.767 13.6818C21.1231 13.5758 21.447 13.4186 21.7386 13.2102C22.0341 12.9981 22.2841 12.7386 22.4886 12.4318C22.697 12.1212 22.8428 11.7652 22.9261 11.3636H24.3352C24.2292 11.9583 24.036 12.4905 23.7557 12.9602C23.4754 13.4299 23.1269 13.8295 22.7102 14.1591C22.2936 14.4848 21.8258 14.733 21.3068 14.9034C20.7917 15.0739 20.2405 15.1591 19.6534 15.1591C18.661 15.1591 17.7784 14.9167 17.0057 14.4318C16.233 13.947 15.625 13.2576 15.1818 12.3636C14.7386 11.4697 14.517 10.4091 14.517 9.18182C14.517 7.95455 14.7386 6.89394 15.1818 6C15.625 5.10606 16.233 4.41667 17.0057 3.93182C17.7784 3.44697 18.661 3.20455 19.6534 3.20455C20.2405 3.20455 20.7917 3.28977 21.3068 3.46023C21.8258 3.63068 22.2936 3.88068 22.7102 4.21023C23.1269 4.53598 23.4754 4.93371 23.7557 5.40341C24.036 5.86932 24.2292 6.40151 24.3352 7ZM30.7713 15L32.6804 3.36364H33.8168L31.9077 15H30.7713ZM25.4759 11.7727L25.6577 10.6364H34.3395L34.1577 11.7727H25.4759ZM26.6804 15L28.5895 3.36364H29.7259L27.8168 15H26.6804ZM26.1577 7.72727L26.3395 6.59091H35.0213L34.8395 7.72727H26.1577ZM36.8651 15L42.0696 4.70455V4.61364H36.0696V3.36364H43.5241V4.68182L38.3423 15H36.8651Z" fill="#F32851"/>
<path d="M3 28H55" stroke="#F32851" stroke-width="5" stroke-linecap="round"/>
<path d="M58.5252 44.6195C58.8435 45.1626 58.8435 45.8374 58.5252 46.3805C57.6989 47.7909 56.7909 48.6989 55.3805 49.5252C54.8374 49.8435 54.1626 49.8435 53.6195 49.5252C52.2091 48.6989 51.3011 47.7909 50.4748 46.3805C50.1565 45.8374 50.1565 45.1626 50.4748 44.6195C51.3011 43.2091 52.2091 42.3011 53.6195 41.4748C54.1626 41.1565 54.8374 41.1565 55.3805 41.4748C56.7909 42.3011 57.6989 43.2091 58.5252 44.6195Z" fill="#F32851"/>
</svg>
