<svg width="56" height="106" viewBox="0 0 56 106" fill="none" xmlns="http://www.w3.org/2000/svg">
<rect x="0.5" y="21.5" width="51" height="84" rx="1.5" stroke="#535353"/>
<line y1="37.4999" x2="52" y2="37.4999" stroke="#535353"/>
<line y1="53.5" x2="52" y2="53.5" stroke="#535353"/>
<path d="M0 88H51" stroke="#535353"/>
<path d="M0 71H51.5" stroke="#535353"/>
<line x1="18.5" y1="21" x2="18.5" y2="106" stroke="#535353"/>
<path d="M35.5 21L35.5 106" stroke="#535353"/>
<path d="M12.0852 7H10.6761C10.5928 6.5947 10.447 6.23864 10.2386 5.93182C10.0341 5.625 9.78409 5.36742 9.48864 5.15909C9.19697 4.94697 8.87311 4.78788 8.51705 4.68182C8.16099 4.57576 7.78977 4.52273 7.40341 4.52273C6.69886 4.52273 6.06061 4.70076 5.48864 5.05682C4.92045 5.41288 4.4678 5.9375 4.13068 6.63068C3.79735 7.32386 3.63068 8.17424 3.63068 9.18182C3.63068 10.1894 3.79735 11.0398 4.13068 11.733C4.4678 12.4261 4.92045 12.9508 5.48864 13.3068C6.06061 13.6629 6.69886 13.8409 7.40341 13.8409C7.78977 13.8409 8.16099 13.7879 8.51705 13.6818C8.87311 13.5758 9.19697 13.4186 9.48864 13.2102C9.78409 12.9981 10.0341 12.7386 10.2386 12.4318C10.447 12.1212 10.5928 11.7652 10.6761 11.3636H12.0852C11.9792 11.9583 11.786 12.4905 11.5057 12.9602C11.2254 13.4299 10.8769 13.8295 10.4602 14.1591C10.0436 14.4848 9.57576 14.733 9.05682 14.9034C8.54167 15.0739 7.99053 15.1591 7.40341 15.1591C6.41099 15.1591 5.52841 14.9167 4.75568 14.4318C3.98295 13.947 3.375 13.2576 2.93182 12.3636C2.48864 11.4697 2.26705 10.4091 2.26705 9.18182C2.26705 7.95455 2.48864 6.89394 2.93182 6C3.375 5.10606 3.98295 4.41667 4.75568 3.93182C5.52841 3.44697 6.41099 3.20455 7.40341 3.20455C7.99053 3.20455 8.54167 3.28977 9.05682 3.46023C9.57576 3.63068 10.0436 3.88068 10.4602 4.21023C10.8769 4.53598 11.2254 4.93371 11.5057 5.40341C11.786 5.86932 11.9792 6.40151 12.0852 7ZM18.5213 15L20.4304 3.36364H21.5668L19.6577 15H18.5213ZM13.2259 11.7727L13.4077 10.6364H22.0895L21.9077 11.7727H13.2259ZM14.4304 15L16.3395 3.36364H17.4759L15.5668 15H14.4304ZM13.9077 7.72727L14.0895 6.59091H22.7713L22.5895 7.72727H13.9077ZM27.5696 15.1818C26.8423 15.1818 26.2003 14.9981 25.6435 14.6307C25.0866 14.2595 24.651 13.7367 24.3366 13.0625C24.0223 12.3845 23.8651 11.5833 23.8651 10.6591C23.8651 9.74242 24.0223 8.94697 24.3366 8.27273C24.651 7.59848 25.0885 7.07765 25.6491 6.71023C26.2098 6.3428 26.8575 6.15909 27.5923 6.15909C28.1605 6.15909 28.6094 6.25379 28.9389 6.44318C29.2723 6.62879 29.526 6.84091 29.7003 7.07955C29.8783 7.31439 30.0166 7.50758 30.1151 7.65909H30.2287V3.36364H31.5696V15H30.2741V13.6591H30.1151C30.0166 13.8182 29.8764 14.0189 29.6946 14.2614C29.5128 14.5 29.2533 14.714 28.9162 14.9034C28.5791 15.089 28.1302 15.1818 27.5696 15.1818ZM27.7514 13.9773C28.2893 13.9773 28.7438 13.8371 29.1151 13.5568C29.4863 13.2727 29.7685 12.8807 29.9616 12.3807C30.1548 11.8769 30.2514 11.2955 30.2514 10.6364C30.2514 9.98485 30.1567 9.41477 29.9673 8.92614C29.7779 8.43371 29.4976 8.05114 29.1264 7.77841C28.7552 7.50189 28.2969 7.36364 27.7514 7.36364C27.1832 7.36364 26.7098 7.50947 26.331 7.80114C25.956 8.08902 25.6738 8.48106 25.4844 8.97727C25.2988 9.4697 25.206 10.0227 25.206 10.6364C25.206 11.2576 25.3007 11.822 25.4901 12.3295C25.6832 12.8333 25.9673 13.2348 26.3423 13.5341C26.7211 13.8295 27.1908 13.9773 27.7514 13.9773ZM34.2116 15V6.27273H35.5526V15H34.2116ZM34.8935 4.81818C34.6321 4.81818 34.4067 4.72917 34.2173 4.55114C34.0317 4.37311 33.9389 4.15909 33.9389 3.90909C33.9389 3.65909 34.0317 3.44508 34.2173 3.26705C34.4067 3.08902 34.6321 3 34.8935 3C35.1548 3 35.3783 3.08902 35.5639 3.26705C35.7533 3.44508 35.848 3.65909 35.848 3.90909C35.848 4.15909 35.7533 4.37311 35.5639 4.55114C35.3783 4.72917 35.1548 4.81818 34.8935 4.81818ZM38.0085 15V6.27273H39.304V7.63636H39.4176C39.5994 7.17045 39.893 6.80871 40.2983 6.55114C40.7036 6.28977 41.1903 6.15909 41.7585 6.15909C42.3343 6.15909 42.8134 6.28977 43.196 6.55114C43.5824 6.80871 43.8835 7.17045 44.0994 7.63636H44.1903C44.4138 7.18561 44.7491 6.82765 45.196 6.5625C45.643 6.29356 46.179 6.15909 46.804 6.15909C47.5843 6.15909 48.2225 6.40341 48.7188 6.89205C49.215 7.37689 49.4631 8.13258 49.4631 9.15909V15H48.1222V9.15909C48.1222 8.51515 47.946 8.05492 47.5938 7.77841C47.2415 7.50189 46.8267 7.36364 46.3494 7.36364C45.7358 7.36364 45.2604 7.54924 44.9233 7.92045C44.5862 8.28788 44.4176 8.75379 44.4176 9.31818V15H43.054V9.02273C43.054 8.52652 42.893 8.12689 42.571 7.82386C42.2491 7.51705 41.8343 7.36364 41.3267 7.36364C40.9782 7.36364 40.6525 7.45644 40.3494 7.64205C40.0502 7.82765 39.8078 8.08523 39.6222 8.41477C39.4403 8.74053 39.3494 9.11742 39.3494 9.54545V15H38.0085Z" fill="#F32851"/>
<path d="M22.5252 28.6195C22.8435 29.1626 22.8435 29.8374 22.5252 30.3805C21.6989 31.7909 20.7909 32.6989 19.3805 33.5252C18.8374 33.8435 18.1626 33.8435 17.6195 33.5252C16.2091 32.6989 15.3011 31.7909 14.4748 30.3805C14.1565 29.8374 14.1565 29.1626 14.4748 28.6195C15.3011 27.2091 16.2091 26.3011 17.6195 25.4748C18.1626 25.1565 18.8374 25.1565 19.3805 25.4748C20.7909 26.3011 21.6989 27.2091 22.5252 28.6195Z" fill="#F32851"/>
<path d="M55.5252 78.6195C55.8435 79.1626 55.8435 79.8374 55.5252 80.3805C54.6989 81.7909 53.7909 82.6989 52.3805 83.5252C51.8374 83.8435 51.1626 83.8435 50.6195 83.5252C49.2091 82.6989 48.3011 81.7909 47.4748 80.3805C47.1565 79.8374 47.1565 79.1626 47.4748 78.6195C48.3011 77.2091 49.2091 76.3011 50.6195 75.4748C51.1626 75.1565 51.8374 75.1565 52.3805 75.4748C53.7909 76.3011 54.6989 77.2091 55.5252 78.6195Z" fill="#F32851"/>
</svg>
