<svg width="60" height="106" viewBox="0 0 60 106" fill="none" xmlns="http://www.w3.org/2000/svg">
<rect x="4.5" y="21.5" width="51" height="84" rx="1.5" stroke="#535353"/>
<line x1="4" y1="37.4999" x2="56" y2="37.4999" stroke="#535353"/>
<line x1="4" y1="53.5" x2="56" y2="53.5" stroke="#535353"/>
<path d="M4 88H55" stroke="#535353"/>
<path d="M4 71H55.5" stroke="#535353"/>
<line x1="22.5" y1="21" x2="22.5" y2="106" stroke="#535353"/>
<path d="M39.5 21L39.5 106" stroke="#535353"/>
<path d="M22.9524 7H21.5433C21.46 6.5947 21.3142 6.23864 21.1058 5.93182C20.9013 5.625 20.6513 5.36742 20.3558 5.15909C20.0642 4.94697 19.7403 4.78788 19.3842 4.68182C19.0282 4.57576 18.657 4.52273 18.2706 4.52273C17.5661 4.52273 16.9278 4.70076 16.3558 5.05682C15.7876 5.41288 15.335 5.9375 14.9979 6.63068C14.6645 7.32386 14.4979 8.17424 14.4979 9.18182C14.4979 10.1894 14.6645 11.0398 14.9979 11.733C15.335 12.4261 15.7876 12.9508 16.3558 13.3068C16.9278 13.6629 17.5661 13.8409 18.2706 13.8409C18.657 13.8409 19.0282 13.7879 19.3842 13.6818C19.7403 13.5758 20.0642 13.4186 20.3558 13.2102C20.6513 12.9981 20.9013 12.7386 21.1058 12.4318C21.3142 12.1212 21.46 11.7652 21.5433 11.3636H22.9524C22.8464 11.9583 22.6532 12.4905 22.3729 12.9602C22.0926 13.4299 21.7441 13.8295 21.3274 14.1591C20.9107 14.4848 20.4429 14.733 19.924 14.9034C19.4089 15.0739 18.8577 15.1591 18.2706 15.1591C17.2782 15.1591 16.3956 14.9167 15.6229 14.4318C14.8501 13.947 14.2422 13.2576 13.799 12.3636C13.3558 11.4697 13.1342 10.4091 13.1342 9.18182C13.1342 7.95455 13.3558 6.89394 13.799 6C14.2422 5.10606 14.8501 4.41667 15.6229 3.93182C16.3956 3.44697 17.2782 3.20455 18.2706 3.20455C18.8577 3.20455 19.4089 3.28977 19.924 3.46023C20.4429 3.63068 20.9107 3.88068 21.3274 4.21023C21.7441 4.53598 22.0926 4.93371 22.3729 5.40341C22.6532 5.86932 22.8464 6.40151 22.9524 7ZM29.3885 15L31.2976 3.36364H32.4339L30.5249 15H29.3885ZM24.093 11.7727L24.2749 10.6364H32.9567L32.7749 11.7727H24.093ZM25.2976 15L27.2067 3.36364H28.343L26.4339 15H25.2976ZM24.7749 7.72727L24.9567 6.59091H33.6385L33.4567 7.72727H24.7749ZM35.1413 15V6.27273H36.4368V7.63636H36.5504C36.7322 7.17045 37.0258 6.80871 37.4311 6.55114C37.8364 6.28977 38.3232 6.15909 38.8913 6.15909C39.4671 6.15909 39.9463 6.28977 40.3288 6.55114C40.7152 6.80871 41.0163 7.17045 41.2322 7.63636H41.3232C41.5466 7.18561 41.8819 6.82765 42.3288 6.5625C42.7758 6.29356 43.3118 6.15909 43.9368 6.15909C44.7171 6.15909 45.3554 6.40341 45.8516 6.89205C46.3478 7.37689 46.5959 8.13258 46.5959 9.15909V15H45.255V9.15909C45.255 8.51515 45.0788 8.05492 44.7266 7.77841C44.3743 7.50189 43.9595 7.36364 43.4822 7.36364C42.8686 7.36364 42.3932 7.54924 42.0561 7.92045C41.719 8.28788 41.5504 8.75379 41.5504 9.31818V15H40.1868V9.02273C40.1868 8.52652 40.0258 8.12689 39.7038 7.82386C39.3819 7.51705 38.9671 7.36364 38.4595 7.36364C38.111 7.36364 37.7853 7.45644 37.4822 7.64205C37.183 7.82765 36.9406 8.08523 36.755 8.41477C36.5732 8.74053 36.4822 9.11742 36.4822 9.54545V15H35.1413Z" fill="#F32851"/>
<path d="M59.5252 61.6195C59.8435 62.1626 59.8435 62.8374 59.5252 63.3805C58.6989 64.7909 57.7909 65.6989 56.3805 66.5252C55.8374 66.8435 55.1626 66.8435 54.6195 66.5252C53.2091 65.6989 52.3011 64.7909 51.4748 63.3805C51.1565 62.8374 51.1565 62.1626 51.4748 61.6195C52.3011 60.2091 53.2091 59.3011 54.6195 58.4748C55.1626 58.1565 55.8374 58.1565 56.3805 58.4748C57.7909 59.3011 58.6989 60.2091 59.5252 61.6195Z" fill="#F32851"/>
<path d="M26.5252 28.6195C26.8435 29.1626 26.8435 29.8374 26.5252 30.3805C25.6989 31.7909 24.7909 32.6989 23.3805 33.5252C22.8374 33.8435 22.1626 33.8435 21.6195 33.5252C20.2091 32.6989 19.3011 31.7909 18.4748 30.3805C18.1565 29.8374 18.1565 29.1626 18.4748 28.6195C19.3011 27.2091 20.2091 26.3011 21.6195 25.4748C22.1626 25.1565 22.8374 25.1565 23.3805 25.4748C24.7909 26.3011 25.6989 27.2091 26.5252 28.6195Z" fill="#F32851"/>
<path d="M8.52523 28.6195C8.84348 29.1626 8.84348 29.8374 8.52523 30.3805C7.69886 31.7909 6.79088 32.6989 5.38054 33.5252C4.83739 33.8435 4.16261 33.8435 3.61946 33.5252C2.20912 32.6989 1.30114 31.7909 0.474768 30.3805C0.15652 29.8374 0.15652 29.1626 0.474768 28.6195C1.30114 27.2091 2.20912 26.3011 3.61946 25.4748C4.16261 25.1565 4.83739 25.1565 5.38054 25.4748C6.79088 26.3011 7.69886 27.2091 8.52523 28.6195Z" fill="#F32851"/>
</svg>
