<svg width="60" height="106" viewBox="0 0 60 106" fill="none" xmlns="http://www.w3.org/2000/svg">
<rect x="4.5" y="21.5" width="51" height="84" rx="1.5" stroke="#535353"/>
<line x1="4" y1="37.4999" x2="56" y2="37.4999" stroke="#535353"/>
<line x1="4" y1="53.5" x2="56" y2="53.5" stroke="#535353"/>
<path d="M4 88H55" stroke="#535353"/>
<path d="M4 71H55.5" stroke="#535353"/>
<line x1="22.5" y1="21" x2="22.5" y2="106" stroke="#535353"/>
<path d="M39.5 21L39.5 106" stroke="#535353"/>
<path d="M14.2289 7H12.9959C12.923 6.64536 12.7954 6.33381 12.6131 6.06534C12.4341 5.79688 12.2154 5.5715 11.9569 5.3892C11.7016 5.2036 11.4183 5.06439 11.1067 4.97159C10.7952 4.87879 10.4703 4.83239 10.1323 4.83239C9.5158 4.83239 8.95733 4.98816 8.45685 5.29972C7.95969 5.61127 7.56362 6.07031 7.26864 6.67685C6.97698 7.28338 6.83114 8.02746 6.83114 8.90909C6.83114 9.79072 6.97698 10.5348 7.26864 11.1413C7.56362 11.7479 7.95969 12.2069 8.45685 12.5185C8.95733 12.83 9.5158 12.9858 10.1323 12.9858C10.4703 12.9858 10.7952 12.9394 11.1067 12.8466C11.4183 12.7538 11.7016 12.6162 11.9569 12.4339C12.2154 12.2483 12.4341 12.0213 12.6131 11.7528C12.7954 11.4811 12.923 11.1695 12.9959 10.8182H14.2289C14.1361 11.3385 13.967 11.8042 13.7218 12.2152C13.4765 12.6262 13.1716 12.9759 12.807 13.2642C12.4424 13.5492 12.0331 13.7663 11.579 13.9155C11.1283 14.0646 10.646 14.1392 10.1323 14.1392C9.26391 14.1392 8.49166 13.9271 7.81552 13.5028C7.13938 13.0786 6.60742 12.4754 6.21964 11.6932C5.83185 10.911 5.63796 9.98295 5.63796 8.90909C5.63796 7.83523 5.83185 6.9072 6.21964 6.125C6.60742 5.3428 7.13938 4.73958 7.81552 4.31534C8.49166 3.8911 9.26391 3.67898 10.1323 3.67898C10.646 3.67898 11.1283 3.75355 11.579 3.9027C12.0331 4.05185 12.4424 4.2706 12.807 4.55895C13.1716 4.84399 13.4765 5.192 13.7218 5.60298C13.967 6.01065 14.1361 6.47633 14.2289 7ZM19.8604 14L21.5309 3.81818H22.5252L20.8548 14H19.8604ZM15.2269 11.1761L15.386 10.1818H22.9826L22.8235 11.1761H15.2269ZM16.2809 14L17.9513 3.81818H18.9457L17.2752 14H16.2809ZM15.8235 7.63636L15.9826 6.64205H23.5792L23.4201 7.63636H15.8235ZM24.8942 14V6.36364H26.0277V7.55682H26.1271C26.2862 7.14915 26.5431 6.83262 26.8977 6.60724C27.2524 6.37855 27.6783 6.2642 28.1754 6.2642C28.6792 6.2642 29.0985 6.37855 29.4332 6.60724C29.7713 6.83262 30.0348 7.14915 30.2237 7.55682H30.3033C30.4988 7.16241 30.7921 6.84919 31.1832 6.61719C31.5743 6.38187 32.0433 6.2642 32.5902 6.2642C33.273 6.2642 33.8314 6.47798 34.2656 6.90554C34.6998 7.32978 34.9169 7.991 34.9169 8.8892V14H33.7436V8.8892C33.7436 8.32576 33.5895 7.92306 33.2812 7.68111C32.973 7.43916 32.6101 7.31818 32.1925 7.31818C31.6555 7.31818 31.2396 7.48059 30.9446 7.8054C30.6496 8.12689 30.5021 8.53456 30.5021 9.02841V14H29.3089V8.76989C29.3089 8.3357 29.1681 7.98603 28.8864 7.72088C28.6046 7.45241 28.2417 7.31818 27.7976 7.31818C27.4927 7.31818 27.2076 7.39938 26.9425 7.56179C26.6806 7.72419 26.4685 7.94957 26.3061 8.23793C26.147 8.52296 26.0675 8.85275 26.0675 9.22727V14H24.8942ZM39.3093 14.179C38.8254 14.179 38.3862 14.0878 37.9918 13.9055C37.5974 13.7199 37.2842 13.4531 37.0522 13.1051C36.8202 12.7538 36.7042 12.3295 36.7042 11.8324C36.7042 11.3949 36.7904 11.0402 36.9627 10.7685C37.1351 10.4934 37.3654 10.2779 37.6538 10.1222C37.9421 9.96638 38.2603 9.85038 38.6083 9.77415C38.9596 9.6946 39.3126 9.63163 39.6673 9.58523C40.1313 9.52557 40.5075 9.48082 40.7958 9.45099C41.0875 9.41785 41.2996 9.36316 41.4322 9.28693C41.5681 9.2107 41.636 9.07812 41.636 8.8892V8.84943C41.636 8.3589 41.5018 7.97775 41.2333 7.70597C40.9682 7.43419 40.5655 7.2983 40.0252 7.2983C39.4651 7.2983 39.0259 7.42093 38.7077 7.66619C38.3896 7.91146 38.1658 8.1733 38.0366 8.4517L36.9229 8.05398C37.1218 7.58996 37.387 7.22869 37.7184 6.97017C38.0531 6.70833 38.4177 6.52604 38.8121 6.4233C39.2099 6.31723 39.601 6.2642 39.9854 6.2642C40.2307 6.2642 40.5124 6.29403 40.8306 6.35369C41.1521 6.41004 41.462 6.5277 41.7603 6.70668C42.0619 6.88565 42.3121 7.15578 42.511 7.51705C42.7099 7.87831 42.8093 8.36222 42.8093 8.96875V14H41.636V12.9659H41.5763C41.4968 13.1316 41.3642 13.3089 41.1786 13.4979C40.993 13.6868 40.7461 13.8475 40.4379 13.9801C40.1296 14.1127 39.7534 14.179 39.3093 14.179ZM39.4883 13.125C39.9523 13.125 40.3434 13.0339 40.6616 12.8516C40.9831 12.6693 41.225 12.4339 41.3874 12.1456C41.5531 11.8572 41.636 11.554 41.636 11.2358V10.1619C41.5863 10.2216 41.4769 10.2763 41.3079 10.326C41.1422 10.3724 40.9499 10.4138 40.7312 10.4503C40.5157 10.4834 40.3053 10.5133 40.0998 10.5398C39.8976 10.563 39.7335 10.5829 39.6076 10.5994C39.3027 10.6392 39.0176 10.7038 38.7525 10.7933C38.4906 10.8795 38.2785 11.0104 38.1161 11.1861C37.957 11.3584 37.8775 11.5937 37.8775 11.892C37.8775 12.2997 38.0283 12.608 38.3299 12.8168C38.6348 13.0223 39.021 13.125 39.4883 13.125ZM44.9508 6.36364H46.1241V14.5568C46.1241 15.0275 46.0429 15.4351 45.8805 15.7798C45.7214 16.1245 45.4795 16.3913 45.1547 16.5803C44.8332 16.7692 44.4271 16.8636 43.9366 16.8636C43.8968 16.8636 43.8571 16.8636 43.8173 16.8636C43.7775 16.8636 43.7377 16.8636 43.698 16.8636V15.7699C43.7377 15.7699 43.7742 15.7699 43.8074 15.7699C43.8405 15.7699 43.877 15.7699 43.9167 15.7699C44.2747 15.7699 44.5365 15.6638 44.7022 15.4517C44.868 15.2429 44.9508 14.9446 44.9508 14.5568V6.36364ZM45.5275 5.09091C45.2988 5.09091 45.1016 5.01302 44.9359 4.85724C44.7735 4.70147 44.6923 4.5142 44.6923 4.29545C44.6923 4.0767 44.7735 3.88944 44.9359 3.73366C45.1016 3.57789 45.2988 3.5 45.5275 3.5C45.7562 3.5 45.9518 3.57789 46.1142 3.73366C46.2799 3.88944 46.3627 4.0767 46.3627 4.29545C46.3627 4.5142 46.2799 4.70147 46.1142 4.85724C45.9518 5.01302 45.7562 5.09091 45.5275 5.09091ZM48.5714 14L53.1254 4.99148V4.91193H47.8754V3.81818H54.3981V4.97159L49.864 14H48.5714Z" fill="#F32851"/>
<path d="M59.5252 61.6195C59.8435 62.1626 59.8435 62.8374 59.5252 63.3805C58.6989 64.7909 57.7909 65.6989 56.3805 66.5252C55.8374 66.8435 55.1626 66.8435 54.6195 66.5252C53.2091 65.6989 52.3011 64.7909 51.4748 63.3805C51.1565 62.8374 51.1565 62.1626 51.4748 61.6195C52.3011 60.2091 53.2091 59.3011 54.6195 58.4748C55.1626 58.1565 55.8374 58.1565 56.3805 58.4748C57.7909 59.3011 58.6989 60.2091 59.5252 61.6195Z" fill="#F32851"/>
<path d="M43.5252 28.6195C43.8435 29.1626 43.8435 29.8374 43.5252 30.3805C42.6989 31.7909 41.7909 32.6989 40.3805 33.5252C39.8374 33.8435 39.1626 33.8435 38.6195 33.5252C37.2091 32.6989 36.3011 31.7909 35.4748 30.3805C35.1565 29.8374 35.1565 29.1626 35.4748 28.6195C36.3011 27.2091 37.2091 26.3011 38.6195 25.4748C39.1626 25.1565 39.8374 25.1565 40.3805 25.4748C41.7909 26.3011 42.6989 27.2091 43.5252 28.6195Z" fill="#F32851"/>
<path d="M8.52523 28.6195C8.84348 29.1626 8.84348 29.8374 8.52523 30.3805C7.69886 31.7909 6.79088 32.6989 5.38054 33.5252C4.83739 33.8435 4.16261 33.8435 3.61946 33.5252C2.20912 32.6989 1.30114 31.7909 0.474768 30.3805C0.15652 29.8374 0.15652 29.1626 0.474768 28.6195C1.30114 27.2091 2.20912 26.3011 3.61946 25.4748C4.16261 25.1565 4.83739 25.1565 5.38054 25.4748C6.79088 26.3011 7.69886 27.2091 8.52523 28.6195Z" fill="#F32851"/>
</svg>
