<svg width="59" height="106" viewBox="0 0 59 106" fill="none" xmlns="http://www.w3.org/2000/svg">
<rect x="3.5" y="21.5" width="51" height="84" rx="1.5" stroke="#535353"/>
<line x1="3" y1="37.4999" x2="55" y2="37.4999" stroke="#535353"/>
<line x1="3" y1="53.5" x2="55" y2="53.5" stroke="#535353"/>
<path d="M3 88H54" stroke="#535353"/>
<path d="M3 71H54.5" stroke="#535353"/>
<line x1="21.5" y1="21" x2="21.5" y2="106" stroke="#535353"/>
<path d="M38.5 21L38.5 106" stroke="#535353"/>
<path d="M13.0443 7H11.8113C11.7384 6.64536 11.6108 6.33381 11.4285 6.06534C11.2496 5.79688 11.0308 5.5715 10.7723 5.3892C10.5171 5.2036 10.2337 5.06439 9.92214 4.97159C9.61059 4.87879 9.28578 4.83239 8.94771 4.83239C8.33123 4.83239 7.77276 4.98816 7.27228 5.29972C6.77512 5.61127 6.37905 6.07031 6.08407 6.67685C5.79241 7.28338 5.64657 8.02746 5.64657 8.90909C5.64657 9.79072 5.79241 10.5348 6.08407 11.1413C6.37905 11.7479 6.77512 12.2069 7.27228 12.5185C7.77276 12.83 8.33123 12.9858 8.94771 12.9858C9.28578 12.9858 9.61059 12.9394 9.92214 12.8466C10.2337 12.7538 10.5171 12.6162 10.7723 12.4339C11.0308 12.2483 11.2496 12.0213 11.4285 11.7528C11.6108 11.4811 11.7384 11.1695 11.8113 10.8182H13.0443C12.9515 11.3385 12.7825 11.8042 12.5372 12.2152C12.2919 12.6262 11.987 12.9759 11.6224 13.2642C11.2578 13.5492 10.8485 13.7663 10.3944 13.9155C9.94369 14.0646 9.46144 14.1392 8.94771 14.1392C8.07934 14.1392 7.30708 13.9271 6.63095 13.5028C5.95481 13.0786 5.42285 12.4754 5.03507 11.6932C4.64728 10.911 4.45339 9.98295 4.45339 8.90909C4.45339 7.83523 4.64728 6.9072 5.03507 6.125C5.42285 5.3428 5.95481 4.73958 6.63095 4.31534C7.30708 3.8911 8.07934 3.67898 8.94771 3.67898C9.46144 3.67898 9.94369 3.75355 10.3944 3.9027C10.8485 4.05185 11.2578 4.2706 11.6224 4.55895C11.987 4.84399 12.2919 5.192 12.5372 5.60298C12.7825 6.01065 12.9515 6.47633 13.0443 7ZM18.6759 14L20.3463 3.81818H21.3406L19.6702 14H18.6759ZM14.0423 11.1761L14.2014 10.1818H21.798L21.6389 11.1761H14.0423ZM15.0963 14L16.7668 3.81818H17.7611L16.0906 14H15.0963ZM14.6389 7.63636L14.798 6.64205H22.3946L22.2355 7.63636H14.6389ZM29.1187 8.07386L28.0647 8.37216C27.9984 8.1965 27.9007 8.0258 27.7714 7.86009C27.6454 7.69105 27.4731 7.55185 27.2544 7.44247C27.0356 7.3331 26.7555 7.27841 26.4142 7.27841C25.9468 7.27841 25.5574 7.38613 25.2458 7.60156C24.9376 7.81368 24.7835 8.08381 24.7835 8.41193C24.7835 8.7036 24.8895 8.93395 25.1017 9.10298C25.3138 9.27202 25.6452 9.41288 26.096 9.52557L27.2295 9.80398C27.9123 9.9697 28.421 10.2232 28.7558 10.5646C29.0905 10.9027 29.2579 11.3385 29.2579 11.8722C29.2579 12.3097 29.132 12.7008 28.8801 13.0455C28.6315 13.3902 28.2835 13.6619 27.836 13.8608C27.3886 14.0597 26.8682 14.1591 26.2749 14.1591C25.4961 14.1591 24.8514 13.9901 24.341 13.652C23.8306 13.3139 23.5074 12.8201 23.3715 12.1705L24.4852 11.892C24.5912 12.303 24.7918 12.6113 25.0867 12.8168C25.385 13.0223 25.7745 13.125 26.2551 13.125C26.8019 13.125 27.2361 13.009 27.5576 12.777C27.8824 12.5417 28.0448 12.2599 28.0448 11.9318C28.0448 11.6667 27.952 11.4446 27.7664 11.2656C27.5808 11.0833 27.2958 10.9474 26.9113 10.858L25.6386 10.5597C24.9392 10.3939 24.4255 10.1371 24.0974 9.78906C23.7726 9.43774 23.6102 8.99858 23.6102 8.47159C23.6102 8.04072 23.7311 7.65956 23.9731 7.32812C24.2184 6.99669 24.5515 6.73651 24.9724 6.54758C25.3966 6.35866 25.8772 6.2642 26.4142 6.2642C27.1698 6.2642 27.7631 6.42992 28.194 6.76136C28.6282 7.0928 28.9364 7.5303 29.1187 8.07386ZM35.8366 10.8778V6.36364H37.0099V14H35.8366V12.7074H35.757C35.578 13.0952 35.2996 13.425 34.9218 13.6967C34.5439 13.9652 34.0667 14.0994 33.49 14.0994C33.0127 14.0994 32.5885 13.995 32.2172 13.7862C31.846 13.5741 31.5544 13.2559 31.3422 12.8317C31.1301 12.4041 31.0241 11.8655 31.0241 11.2159V6.36364H32.1974V11.1364C32.1974 11.6932 32.3531 12.1373 32.6647 12.4688C32.9796 12.8002 33.3806 12.9659 33.8678 12.9659C34.1595 12.9659 34.4561 12.8913 34.7577 12.7422C35.0626 12.593 35.3179 12.3643 35.5233 12.0561C35.7322 11.7479 35.8366 11.3551 35.8366 10.8778ZM44.5679 8.07386L43.5139 8.37216C43.4477 8.1965 43.3499 8.0258 43.2206 7.86009C43.0947 7.69105 42.9223 7.55185 42.7036 7.44247C42.4848 7.3331 42.2048 7.27841 41.8634 7.27841C41.396 7.27841 41.0066 7.38613 40.695 7.60156C40.3868 7.81368 40.2327 8.08381 40.2327 8.41193C40.2327 8.7036 40.3387 8.93395 40.5509 9.10298C40.763 9.27202 41.0944 9.41288 41.5452 9.52557L42.6787 9.80398C43.3615 9.9697 43.8702 10.2232 44.205 10.5646C44.5397 10.9027 44.7071 11.3385 44.7071 11.8722C44.7071 12.3097 44.5812 12.7008 44.3293 13.0455C44.0807 13.3902 43.7327 13.6619 43.2852 13.8608C42.8378 14.0597 42.3174 14.1591 41.7242 14.1591C40.9453 14.1591 40.3006 13.9901 39.7902 13.652C39.2798 13.3139 38.9566 12.8201 38.8208 12.1705L39.9344 11.892C40.0405 12.303 40.241 12.6113 40.536 12.8168C40.8343 13.0223 41.2237 13.125 41.7043 13.125C42.2512 13.125 42.6853 13.009 43.0068 12.777C43.3316 12.5417 43.4941 12.2599 43.4941 11.9318C43.4941 11.6667 43.4012 11.4446 43.2156 11.2656C43.03 11.0833 42.745 10.9474 42.3605 10.858L41.0878 10.5597C40.3885 10.3939 39.8747 10.1371 39.5466 9.78906C39.2218 9.43774 39.0594 8.99858 39.0594 8.47159C39.0594 8.04072 39.1804 7.65956 39.4223 7.32812C39.6676 6.99669 40.0007 6.73651 40.4216 6.54758C40.8459 6.35866 41.3264 6.2642 41.8634 6.2642C42.6191 6.2642 43.2123 6.42992 43.6432 6.76136C44.0774 7.0928 44.3856 7.5303 44.5679 8.07386ZM46.2148 11.9119V10.8977L50.6892 3.81818H51.425V5.3892H50.9278L47.5471 10.7386V10.8182H53.5727V11.9119H46.2148ZM51.0074 14V11.6037V11.1314V3.81818H52.1807V14H51.0074Z" fill="#F32851"/>
<path d="M3 29H55" stroke="#F32851" stroke-width="5" stroke-linecap="round"/>
<path d="M42.5252 44.6195C42.8435 45.1626 42.8435 45.8374 42.5252 46.3805C41.6989 47.7909 40.7909 48.6989 39.3805 49.5252C38.8374 49.8435 38.1626 49.8435 37.6195 49.5252C36.2091 48.6989 35.3011 47.7909 34.4748 46.3805C34.1565 45.8374 34.1565 45.1626 34.4748 44.6195C35.3011 43.2091 36.2091 42.3011 37.6195 41.4748C38.1626 41.1565 38.8374 41.1565 39.3805 41.4748C40.7909 42.3011 41.6989 43.2091 42.5252 44.6195Z" fill="#F32851"/>
<path d="M58.5252 78.6195C58.8435 79.1626 58.8435 79.8374 58.5252 80.3805C57.6989 81.7909 56.7909 82.6989 55.3805 83.5252C54.8374 83.8435 54.1626 83.8435 53.6195 83.5252C52.2091 82.6989 51.3011 81.7909 50.4748 80.3805C50.1565 79.8374 50.1565 79.1626 50.4748 78.6195C51.3011 77.2091 52.2091 76.3011 53.6195 75.4748C54.1626 75.1565 54.8374 75.1565 55.3805 75.4748C56.7909 76.3011 57.6989 77.2091 58.5252 78.6195Z" fill="#F32851"/>
</svg>
