<svg width="59" height="106" viewBox="0 0 59 106" fill="none" xmlns="http://www.w3.org/2000/svg">
<rect x="3.5" y="21.5" width="51" height="84" rx="1.5" stroke="#535353"/>
<line x1="3" y1="37.4999" x2="55" y2="37.4999" stroke="#535353"/>
<line x1="3" y1="53.5" x2="55" y2="53.5" stroke="#535353"/>
<path d="M3 88H54" stroke="#535353"/>
<path d="M3 71H54.5" stroke="#535353"/>
<line x1="21.5" y1="21" x2="21.5" y2="106" stroke="#535353"/>
<path d="M38.5 21L38.5 106" stroke="#535353"/>
<path d="M23.3828 15H19.7919V3.36364H23.5419C24.6707 3.36364 25.6366 3.59659 26.4396 4.0625C27.2427 4.52462 27.8582 5.18939 28.2862 6.05682C28.7143 6.92045 28.9283 7.95455 28.9283 9.15909C28.9283 10.3712 28.7124 11.4148 28.2805 12.2898C27.8487 13.161 27.2199 13.8314 26.3942 14.3011C25.5684 14.767 24.5646 15 23.3828 15ZM21.201 13.75H23.2919C24.254 13.75 25.0514 13.5644 25.6839 13.1932C26.3165 12.822 26.7881 12.2936 27.0987 11.608C27.4093 10.9223 27.5646 10.1061 27.5646 9.15909C27.5646 8.2197 27.4112 7.41098 27.1044 6.73295C26.7976 6.05114 26.3393 5.52841 25.7294 5.16477C25.1196 4.79735 24.3601 4.61364 23.451 4.61364H21.201V13.75ZM34.7237 15.1591C34.0571 15.1591 33.4567 15.0265 32.9226 14.7614C32.3885 14.4962 31.9605 14.1326 31.6385 13.6705C31.3165 13.2083 31.1404 12.6818 31.1101 12.0909H32.4737C32.5268 12.6174 32.7654 13.053 33.1896 13.3977C33.6177 13.7386 34.129 13.9091 34.7237 13.9091C35.201 13.9091 35.6252 13.7973 35.9964 13.5739C36.3714 13.3504 36.665 13.0436 36.8771 12.6534C37.093 12.2595 37.201 11.8144 37.201 11.3182C37.201 10.8106 37.0893 10.358 36.8658 9.96023C36.6461 9.55871 36.343 9.24242 35.9567 9.01136C35.5703 8.7803 35.129 8.66288 34.6328 8.65909C34.2768 8.6553 33.9112 8.71023 33.5362 8.82386C33.1612 8.93371 32.8525 9.07576 32.6101 9.25L31.2919 9.09091L31.9964 3.36364H38.0419V4.61364H33.1783L32.7692 8.04545H32.8374C33.076 7.85606 33.3752 7.69886 33.7351 7.57386C34.0949 7.44886 34.4699 7.38636 34.8601 7.38636C35.5722 7.38636 36.2067 7.55682 36.7635 7.89773C37.3241 8.23485 37.7635 8.69697 38.0817 9.28409C38.4036 9.87121 38.5646 10.5417 38.5646 11.2955C38.5646 12.0379 38.398 12.7008 38.0646 13.2841C37.7351 13.8636 37.2805 14.322 36.701 14.6591C36.1214 14.9924 35.4624 15.1591 34.7237 15.1591Z" fill="#F32851"/>
<path d="M3 45H55" stroke="#F32851" stroke-width="5" stroke-linecap="round"/>
<path d="M42.5252 95.6195C42.8435 96.1626 42.8435 96.8374 42.5252 97.3805C41.6989 98.7909 40.7909 99.6989 39.3805 100.525C38.8374 100.843 38.1626 100.843 37.6195 100.525C36.2091 99.6989 35.3011 98.7909 34.4748 97.3805C34.1565 96.8374 34.1565 96.1626 34.4748 95.6195C35.3011 94.2091 36.2091 93.3011 37.6195 92.4748C38.1626 92.1565 38.8374 92.1565 39.3805 92.4748C40.7909 93.3011 41.6989 94.2091 42.5252 95.6195Z" fill="#F32851"/>
<path d="M58.5252 95.6195C58.8435 96.1626 58.8435 96.8374 58.5252 97.3805C57.6989 98.7909 56.7909 99.6989 55.3805 100.525C54.8374 100.843 54.1626 100.843 53.6195 100.525C52.2091 99.6989 51.3011 98.7909 50.4748 97.3805C50.1565 96.8374 50.1565 96.1626 50.4748 95.6195C51.3011 94.2091 52.2091 93.3011 53.6195 92.4748C54.1626 92.1565 54.8374 92.1565 55.3805 92.4748C56.7909 93.3011 57.6989 94.2091 58.5252 95.6195Z" fill="#F32851"/>
</svg>
