<svg width="58" height="106" viewBox="0 0 58 106" fill="none" xmlns="http://www.w3.org/2000/svg">
<rect x="3.5" y="21.5" width="51" height="84" rx="1.5" stroke="#535353"/>
<line x1="3" y1="37.4999" x2="55" y2="37.4999" stroke="#535353"/>
<line x1="3" y1="53.5" x2="55" y2="53.5" stroke="#535353"/>
<path d="M3 88H54" stroke="#535353"/>
<path d="M3 71H54.5" stroke="#535353"/>
<line x1="21.5" y1="21" x2="21.5" y2="106" stroke="#535353"/>
<path d="M38.5 21L38.5 106" stroke="#535353"/>
<path d="M23.2578 15H19.6669V3.36364H23.4169C24.5457 3.36364 25.5116 3.59659 26.3146 4.0625C27.1177 4.52462 27.7332 5.18939 28.1612 6.05682C28.5893 6.92045 28.8033 7.95455 28.8033 9.15909C28.8033 10.3712 28.5874 11.4148 28.1555 12.2898C27.7237 13.161 27.0949 13.8314 26.2692 14.3011C25.4434 14.767 24.4396 15 23.2578 15ZM21.076 13.75H23.1669C24.129 13.75 24.9264 13.5644 25.5589 13.1932C26.1915 12.822 26.6631 12.2936 26.9737 11.608C27.2843 10.9223 27.4396 10.1061 27.4396 9.15909C27.4396 8.2197 27.2862 7.41098 26.9794 6.73295C26.6726 6.05114 26.2143 5.52841 25.6044 5.16477C24.9946 4.79735 24.2351 4.61364 23.326 4.61364H21.076V13.75ZM34.826 15.1591C34.3487 15.1515 33.8714 15.0606 33.3942 14.8864C32.9169 14.7121 32.4813 14.4186 32.0874 14.0057C31.6934 13.589 31.3771 13.0265 31.1385 12.3182C30.8999 11.6061 30.7805 10.7121 30.7805 9.63636C30.7805 8.60606 30.8771 7.69318 31.0703 6.89773C31.2635 6.09848 31.5438 5.42614 31.9112 4.88068C32.2786 4.33144 32.7218 3.91477 33.2408 3.63068C33.7635 3.34659 34.3525 3.20455 35.0078 3.20455C35.6593 3.20455 36.2389 3.33523 36.7464 3.59659C37.2578 3.85417 37.6745 4.21401 37.9964 4.67614C38.3184 5.13826 38.5268 5.67045 38.6214 6.27273H37.2351C37.1063 5.75 36.8563 5.31629 36.4851 4.97159C36.1139 4.62689 35.6214 4.45455 35.0078 4.45455C34.1063 4.45455 33.3961 4.84659 32.8771 5.63068C32.362 6.41477 32.1025 7.51515 32.0987 8.93182H32.1896C32.4018 8.60985 32.6536 8.33523 32.9453 8.10795C33.2408 7.87689 33.5665 7.69886 33.9226 7.57386C34.2786 7.44886 34.6555 7.38636 35.0533 7.38636C35.7199 7.38636 36.3298 7.55303 36.8828 7.88636C37.4358 8.21591 37.879 8.67235 38.2124 9.25568C38.5457 9.83523 38.7124 10.5 38.7124 11.25C38.7124 11.9697 38.5514 12.6288 38.2294 13.2273C37.9074 13.822 37.4548 14.2955 36.8714 14.6477C36.2919 14.9962 35.6101 15.1667 34.826 15.1591ZM34.826 13.9091C35.3033 13.9091 35.7313 13.7898 36.1101 13.5511C36.4927 13.3125 36.7938 12.9924 37.0135 12.5909C37.237 12.1894 37.3487 11.7424 37.3487 11.25C37.3487 10.7689 37.2408 10.3314 37.0249 9.9375C36.8127 9.53977 36.5192 9.22348 36.1442 8.98864C35.773 8.75379 35.3487 8.63636 34.8714 8.63636C34.5116 8.63636 34.1764 8.70833 33.8658 8.85227C33.5552 8.99242 33.2824 9.18561 33.0476 9.43182C32.8165 9.67803 32.6347 9.96023 32.5021 10.2784C32.3696 10.5928 32.3033 10.9242 32.3033 11.2727C32.3033 11.7348 32.4112 12.1667 32.6271 12.5682C32.8468 12.9697 33.1461 13.2936 33.5249 13.5398C33.9074 13.786 34.3411 13.9091 34.826 13.9091Z" fill="#F32851"/>
<path d="M3 45H55" stroke="#F32851" stroke-width="5" stroke-linecap="round"/>
</svg>
