<svg width="59" height="106" viewBox="0 0 59 106" fill="none" xmlns="http://www.w3.org/2000/svg">
<rect x="3.5" y="21.5" width="51" height="84" rx="1.5" stroke="#535353"/>
<line x1="3" y1="37.4999" x2="55" y2="37.4999" stroke="#535353"/>
<line x1="3" y1="53.5" x2="55" y2="53.5" stroke="#535353"/>
<path d="M3 88H54" stroke="#535353"/>
<path d="M3 71H54.5" stroke="#535353"/>
<line x1="21.5" y1="21" x2="21.5" y2="106" stroke="#535353"/>
<path d="M38.5 21L38.5 106" stroke="#535353"/>
<path d="M23.6797 15H20.0888V3.36364H23.8388C24.9676 3.36364 25.9335 3.59659 26.7365 4.0625C27.5395 4.52462 28.1551 5.18939 28.5831 6.05682C29.0111 6.92045 29.2251 7.95455 29.2251 9.15909C29.2251 10.3712 29.0092 11.4148 28.5774 12.2898C28.1456 13.161 27.5168 13.8314 26.6911 14.3011C25.8653 14.767 24.8615 15 23.6797 15ZM21.4979 13.75H23.5888C24.5509 13.75 25.3482 13.5644 25.9808 13.1932C26.6134 12.822 27.085 12.2936 27.3956 11.608C27.7062 10.9223 27.8615 10.1061 27.8615 9.15909C27.8615 8.2197 27.7081 7.41098 27.4013 6.73295C27.0945 6.05114 26.6361 5.52841 26.0263 5.16477C25.4164 4.79735 24.657 4.61364 23.7479 4.61364H21.4979V13.75ZM31.7479 15L36.9524 4.70455V4.61364H30.9524V3.36364H38.407V4.68182L33.2251 15H31.7479Z" fill="#F32851"/>
<path d="M3 45H55" stroke="#F32851" stroke-width="5" stroke-linecap="round"/>
<path d="M58.5252 61.6195C58.8435 62.1626 58.8435 62.8374 58.5252 63.3805C57.6989 64.7909 56.7909 65.6989 55.3805 66.5252C54.8374 66.8435 54.1626 66.8435 53.6195 66.5252C52.2091 65.6989 51.3011 64.7909 50.4748 63.3805C50.1565 62.8374 50.1565 62.1626 50.4748 61.6195C51.3011 60.2091 52.2091 59.3011 53.6195 58.4748C54.1626 58.1565 54.8374 58.1565 55.3805 58.4748C56.7909 59.3011 57.6989 60.2091 58.5252 61.6195Z" fill="#F32851"/>
</svg>
