<svg width="59" height="106" viewBox="0 0 59 106" fill="none" xmlns="http://www.w3.org/2000/svg">
<rect x="3.5" y="21.5" width="51" height="84" rx="1.5" stroke="#535353"/>
<line x1="3" y1="37.4999" x2="55" y2="37.4999" stroke="#535353"/>
<line x1="3" y1="53.5" x2="55" y2="53.5" stroke="#535353"/>
<path d="M3 88H54" stroke="#535353"/>
<path d="M3 71H54.5" stroke="#535353"/>
<line x1="21.5" y1="21" x2="21.5" y2="106" stroke="#535353"/>
<path d="M38.5 21L38.5 106" stroke="#535353"/>
<path d="M23.2578 15H19.6669V3.36364H23.4169C24.5457 3.36364 25.5116 3.59659 26.3146 4.0625C27.1177 4.52462 27.7332 5.18939 28.1612 6.05682C28.5893 6.92045 28.8033 7.95455 28.8033 9.15909C28.8033 10.3712 28.5874 11.4148 28.1555 12.2898C27.7237 13.161 27.0949 13.8314 26.2692 14.3011C25.4434 14.767 24.4396 15 23.2578 15ZM21.076 13.75H23.1669C24.129 13.75 24.9264 13.5644 25.5589 13.1932C26.1915 12.822 26.6631 12.2936 26.9737 11.608C27.2843 10.9223 27.4396 10.1061 27.4396 9.15909C27.4396 8.2197 27.2862 7.41098 26.9794 6.73295C26.6726 6.05114 26.2143 5.52841 25.6044 5.16477C24.9946 4.79735 24.2351 4.61364 23.326 4.61364H21.076V13.75ZM34.6669 3.20455C35.1442 3.20833 35.6214 3.29924 36.0987 3.47727C36.576 3.6553 37.0116 3.95076 37.4055 4.36364C37.7995 4.77273 38.1158 5.33144 38.3544 6.03977C38.593 6.74811 38.7124 7.63636 38.7124 8.70455C38.7124 9.73864 38.6139 10.6572 38.4169 11.4602C38.2237 12.2595 37.9434 12.9337 37.576 13.483C37.2124 14.0322 36.7692 14.4489 36.2464 14.733C35.7275 15.017 35.1404 15.1591 34.4851 15.1591C33.8336 15.1591 33.2521 15.0303 32.7408 14.7727C32.2332 14.5114 31.8165 14.1496 31.4908 13.6875C31.1688 13.2216 30.9624 12.6818 30.8714 12.0682H32.2578C32.3828 12.6023 32.6309 13.0436 33.0021 13.392C33.3771 13.7367 33.8714 13.9091 34.4851 13.9091C35.3828 13.9091 36.0911 13.517 36.6101 12.733C37.1328 11.9489 37.3942 10.8409 37.3942 9.40909H37.3033C37.0911 9.72727 36.8393 10.0019 36.5476 10.233C36.2559 10.464 35.9321 10.642 35.576 10.767C35.2199 10.892 34.8411 10.9545 34.4396 10.9545C33.773 10.9545 33.1612 10.7898 32.6044 10.4602C32.0514 10.1269 31.6082 9.67045 31.2749 9.09091C30.9453 8.50758 30.7805 7.84091 30.7805 7.09091C30.7805 6.37879 30.9396 5.72727 31.2578 5.13636C31.5798 4.54167 32.0305 4.06818 32.6101 3.71591C33.1934 3.36364 33.879 3.19318 34.6669 3.20455ZM34.6669 4.45455C34.1896 4.45455 33.7597 4.57386 33.3771 4.8125C32.9983 5.04735 32.6972 5.36553 32.4737 5.76705C32.254 6.16477 32.1442 6.60606 32.1442 7.09091C32.1442 7.57576 32.2502 8.01705 32.4624 8.41477C32.6783 8.80871 32.9718 9.12311 33.343 9.35795C33.718 9.58902 34.1442 9.70455 34.6214 9.70455C34.9813 9.70455 35.3165 9.63447 35.6271 9.49432C35.9377 9.35038 36.2086 9.1553 36.4396 8.90909C36.6745 8.65909 36.8582 8.37689 36.9908 8.0625C37.1233 7.74432 37.1896 7.41288 37.1896 7.06818C37.1896 6.61364 37.0798 6.1875 36.8601 5.78977C36.6442 5.39205 36.3449 5.07008 35.9624 4.82386C35.5836 4.57765 35.1518 4.45455 34.6669 4.45455Z" fill="#F32851"/>
<path d="M3 45H55" stroke="#F32851" stroke-width="5" stroke-linecap="round"/>
<path d="M58.5252 61.6195C58.8435 62.1626 58.8435 62.8374 58.5252 63.3805C57.6989 64.7909 56.7909 65.6989 55.3805 66.5252C54.8374 66.8435 54.1626 66.8435 53.6195 66.5252C52.2091 65.6989 51.3011 64.7909 50.4748 63.3805C50.1565 62.8374 50.1565 62.1626 50.4748 61.6195C51.3011 60.2091 52.2091 59.3011 53.6195 58.4748C54.1626 58.1565 54.8374 58.1565 55.3805 58.4748C56.7909 59.3011 57.6989 60.2091 58.5252 61.6195Z" fill="#F32851"/>
<path d="M25.5252 78.6195C25.8435 79.1626 25.8435 79.8374 25.5252 80.3805C24.6989 81.7909 23.7909 82.6989 22.3805 83.5252C21.8374 83.8435 21.1626 83.8435 20.6195 83.5252C19.2091 82.6989 18.3011 81.7909 17.4748 80.3805C17.1565 79.8374 17.1565 79.1626 17.4748 78.6195C18.3011 77.2091 19.2091 76.3011 20.6195 75.4748C21.1626 75.1565 21.8374 75.1565 22.3805 75.4748C23.7909 76.3011 24.6989 77.2091 25.5252 78.6195Z" fill="#F32851"/>
</svg>
