<svg width="60" height="106" viewBox="0 0 60 106" fill="none" xmlns="http://www.w3.org/2000/svg">
<rect x="4.5" y="21.5" width="51" height="84" rx="1.5" stroke="#535353"/>
<line x1="4" y1="37.4999" x2="56" y2="37.4999" stroke="#535353"/>
<line x1="4" y1="53.5" x2="56" y2="53.5" stroke="#535353"/>
<path d="M4 88H55" stroke="#535353"/>
<path d="M4 71H55.5" stroke="#535353"/>
<line x1="22.5" y1="21" x2="22.5" y2="106" stroke="#535353"/>
<path d="M39.5 21L39.5 106" stroke="#535353"/>
<path d="M15.4297 15H11.8388V3.36364H15.5888C16.7176 3.36364 17.6835 3.59659 18.4865 4.0625C19.2895 4.52462 19.9051 5.18939 20.3331 6.05682C20.7611 6.92045 20.9751 7.95455 20.9751 9.15909C20.9751 10.3712 20.7592 11.4148 20.3274 12.2898C19.8956 13.161 19.2668 13.8314 18.4411 14.3011C17.6153 14.767 16.6115 15 15.4297 15ZM13.2479 13.75H15.3388C16.3009 13.75 17.0982 13.5644 17.7308 13.1932C18.3634 12.822 18.835 12.2936 19.1456 11.608C19.4562 10.9223 19.6115 10.1061 19.6115 9.15909C19.6115 8.2197 19.4581 7.41098 19.1513 6.73295C18.8445 6.05114 18.3861 5.52841 17.7763 5.16477C17.1664 4.79735 16.407 4.61364 15.4979 4.61364H13.2479V13.75ZM26.4524 15.1818C25.7251 15.1818 25.0831 14.9981 24.5263 14.6307C23.9695 14.2595 23.5339 13.7367 23.2195 13.0625C22.9051 12.3845 22.7479 11.5833 22.7479 10.6591C22.7479 9.74242 22.9051 8.94697 23.2195 8.27273C23.5339 7.59848 23.9714 7.07765 24.532 6.71023C25.0926 6.3428 25.7403 6.15909 26.4751 6.15909C27.0433 6.15909 27.4922 6.25379 27.8217 6.44318C28.1551 6.62879 28.4089 6.84091 28.5831 7.07955C28.7611 7.31439 28.8994 7.50758 28.9979 7.65909H29.1115V3.36364H30.4524V15H29.157V13.6591H28.9979C28.8994 13.8182 28.7592 14.0189 28.5774 14.2614C28.3956 14.5 28.1361 14.714 27.799 14.9034C27.4619 15.089 27.013 15.1818 26.4524 15.1818ZM26.6342 13.9773C27.1721 13.9773 27.6267 13.8371 27.9979 13.5568C28.3691 13.2727 28.6513 12.8807 28.8445 12.3807C29.0376 11.8769 29.1342 11.2955 29.1342 10.6364C29.1342 9.98485 29.0395 9.41477 28.8501 8.92614C28.6607 8.43371 28.3804 8.05114 28.0092 7.77841C27.638 7.50189 27.1797 7.36364 26.6342 7.36364C26.0661 7.36364 25.5926 7.50947 25.2138 7.80114C24.8388 8.08902 24.5566 8.48106 24.3672 8.97727C24.1816 9.4697 24.0888 10.0227 24.0888 10.6364C24.0888 11.2576 24.1835 11.822 24.3729 12.3295C24.5661 12.8333 24.8501 13.2348 25.2251 13.5341C25.6039 13.8295 26.0736 13.9773 26.6342 13.9773ZM33.0945 15V6.27273H34.4354V15H33.0945ZM33.7763 4.81818C33.5149 4.81818 33.2895 4.72917 33.1001 4.55114C32.9145 4.37311 32.8217 4.15909 32.8217 3.90909C32.8217 3.65909 32.9145 3.44508 33.1001 3.26705C33.2895 3.08902 33.5149 3 33.7763 3C34.0376 3 34.2611 3.08902 34.4467 3.26705C34.6361 3.44508 34.7308 3.65909 34.7308 3.90909C34.7308 4.15909 34.6361 4.37311 34.4467 4.55114C34.2611 4.72917 34.0376 4.81818 33.7763 4.81818ZM36.8913 15V6.27273H38.1868V7.63636H38.3004C38.4822 7.17045 38.7758 6.80871 39.1811 6.55114C39.5864 6.28977 40.0732 6.15909 40.6413 6.15909C41.2171 6.15909 41.6963 6.28977 42.0788 6.55114C42.4652 6.80871 42.7663 7.17045 42.9822 7.63636H43.0732C43.2966 7.18561 43.6319 6.82765 44.0788 6.5625C44.5258 6.29356 45.0618 6.15909 45.6868 6.15909C46.4671 6.15909 47.1054 6.40341 47.6016 6.89205C48.0978 7.37689 48.3459 8.13258 48.3459 9.15909V15H47.005V9.15909C47.005 8.51515 46.8288 8.05492 46.4766 7.77841C46.1243 7.50189 45.7095 7.36364 45.2322 7.36364C44.6186 7.36364 44.1432 7.54924 43.8061 7.92045C43.469 8.28788 43.3004 8.75379 43.3004 9.31818V15H41.9368V9.02273C41.9368 8.52652 41.7758 8.12689 41.4538 7.82386C41.1319 7.51705 40.7171 7.36364 40.2095 7.36364C39.861 7.36364 39.5353 7.45644 39.2322 7.64205C38.933 7.82765 38.6906 8.08523 38.505 8.41477C38.3232 8.74053 38.2322 9.11742 38.2322 9.54545V15H36.8913Z" fill="#F32851"/>
<path d="M43.5252 29.6195C43.8435 30.1626 43.8435 30.8374 43.5252 31.3805C42.6989 32.7909 41.7909 33.6989 40.3805 34.5252C39.8374 34.8435 39.1626 34.8435 38.6195 34.5252C37.2091 33.6989 36.3011 32.7909 35.4748 31.3805C35.1565 30.8374 35.1565 30.1626 35.4748 29.6195C36.3011 28.2091 37.2091 27.3011 38.6195 26.4748C39.1626 26.1565 39.8374 26.1565 40.3805 26.4748C41.7909 27.3011 42.6989 28.2091 43.5252 29.6195Z" fill="#F32851"/>
<path d="M26.5252 44.6195C26.8435 45.1626 26.8435 45.8374 26.5252 46.3805C25.6989 47.7909 24.7909 48.6989 23.3805 49.5252C22.8374 49.8435 22.1626 49.8435 21.6195 49.5252C20.2091 48.6989 19.3011 47.7909 18.4748 46.3805C18.1565 45.8374 18.1565 45.1626 18.4748 44.6195C19.3011 43.2091 20.2091 42.3011 21.6195 41.4748C22.1626 41.1565 22.8374 41.1565 23.3805 41.4748C24.7909 42.3011 25.6989 43.2091 26.5252 44.6195Z" fill="#F32851"/>
<path d="M8.52523 29.6195C8.84348 30.1626 8.84348 30.8374 8.52523 31.3805C7.69886 32.7909 6.79088 33.6989 5.38054 34.5252C4.83739 34.8435 4.16261 34.8435 3.61946 34.5252C2.20912 33.6989 1.30114 32.7909 0.474768 31.3805C0.15652 30.8374 0.15652 30.1626 0.474768 29.6195C1.30114 28.2091 2.20912 27.3011 3.61946 26.4748C4.16261 26.1565 4.83739 26.1565 5.38054 26.4748C6.79088 27.3011 7.69886 28.2091 8.52523 29.6195Z" fill="#F32851"/>
<path d="M53.407 17.2727L55.4979 20.8409L57.5888 17.2727H59.1342L56.3161 21.6364L59.1342 26H57.5888L55.4979 22.6136L53.407 26H51.8615L54.6342 21.6364L51.8615 17.2727H53.407Z" fill="#F32851"/>
</svg>
