<svg width="60" height="106" viewBox="0 0 60 106" fill="none" xmlns="http://www.w3.org/2000/svg">
<rect x="4.5" y="21.5" width="51" height="84" rx="1.5" stroke="#535353"/>
<line x1="4" y1="37.4999" x2="56" y2="37.4999" stroke="#535353"/>
<line x1="4" y1="53.5" x2="56" y2="53.5" stroke="#535353"/>
<path d="M4 88H55" stroke="#535353"/>
<path d="M4 71H55.5" stroke="#535353"/>
<line x1="22.5" y1="21" x2="22.5" y2="106" stroke="#535353"/>
<path d="M39.5 21L39.5 106" stroke="#535353"/>
<path d="M17.3047 15H13.7138V3.36364H17.4638C18.5926 3.36364 19.5585 3.59659 20.3615 4.0625C21.1645 4.52462 21.7801 5.18939 22.2081 6.05682C22.6361 6.92045 22.8501 7.95455 22.8501 9.15909C22.8501 10.3712 22.6342 11.4148 22.2024 12.2898C21.7706 13.161 21.1418 13.8314 20.3161 14.3011C19.4903 14.767 18.4865 15 17.3047 15ZM15.1229 13.75H17.2138C18.1759 13.75 18.9732 13.5644 19.6058 13.1932C20.2384 12.822 20.71 12.2936 21.0206 11.608C21.3312 10.9223 21.4865 10.1061 21.4865 9.15909C21.4865 8.2197 21.3331 7.41098 21.0263 6.73295C20.7195 6.05114 20.2611 5.52841 19.6513 5.16477C19.0414 4.79735 18.282 4.61364 17.3729 4.61364H15.1229V13.75ZM25.032 15V6.27273H26.3274V7.63636H26.4411C26.6229 7.17045 26.9164 6.80871 27.3217 6.55114C27.727 6.28977 28.2138 6.15909 28.782 6.15909C29.3577 6.15909 29.8369 6.28977 30.2195 6.55114C30.6058 6.80871 30.907 7.17045 31.1229 7.63636H31.2138C31.4373 7.18561 31.7725 6.82765 32.2195 6.5625C32.6664 6.29356 33.2024 6.15909 33.8274 6.15909C34.6077 6.15909 35.246 6.40341 35.7422 6.89205C36.2384 7.37689 36.4865 8.13258 36.4865 9.15909V15H35.1456V9.15909C35.1456 8.51515 34.9695 8.05492 34.6172 7.77841C34.2649 7.50189 33.8501 7.36364 33.3729 7.36364C32.7592 7.36364 32.2839 7.54924 31.9467 7.92045C31.6096 8.28788 31.4411 8.75379 31.4411 9.31818V15H30.0774V9.02273C30.0774 8.52652 29.9164 8.12689 29.5945 7.82386C29.2725 7.51705 28.8577 7.36364 28.3501 7.36364C28.0017 7.36364 27.6759 7.45644 27.3729 7.64205C27.0736 7.82765 26.8312 8.08523 26.6456 8.41477C26.4638 8.74053 26.3729 9.11742 26.3729 9.54545V15H25.032ZM42.62 3.20455C43.0973 3.20833 43.5746 3.29924 44.0518 3.47727C44.5291 3.6553 44.9647 3.95076 45.3587 4.36364C45.7526 4.77273 46.0689 5.33144 46.3075 6.03977C46.5462 6.74811 46.6655 7.63636 46.6655 8.70455C46.6655 9.73864 46.567 10.6572 46.37 11.4602C46.1768 12.2595 45.8965 12.9337 45.5291 13.483C45.1655 14.0322 44.7223 14.4489 44.1996 14.733C43.6806 15.017 43.0935 15.1591 42.4382 15.1591C41.7867 15.1591 41.2053 15.0303 40.6939 14.7727C40.1863 14.5114 39.7696 14.1496 39.4439 13.6875C39.1219 13.2216 38.9155 12.6818 38.8246 12.0682H40.2109C40.3359 12.6023 40.584 13.0436 40.9553 13.392C41.3303 13.7367 41.8246 13.9091 42.4382 13.9091C43.3359 13.9091 44.0443 13.517 44.5632 12.733C45.0859 11.9489 45.3473 10.8409 45.3473 9.40909H45.2564C45.0443 9.72727 44.7924 10.0019 44.5007 10.233C44.209 10.464 43.8852 10.642 43.5291 10.767C43.1731 10.892 42.7943 10.9545 42.3928 10.9545C41.7261 10.9545 41.1143 10.7898 40.5575 10.4602C40.0045 10.1269 39.5613 9.67045 39.228 9.09091C38.8984 8.50758 38.7337 7.84091 38.7337 7.09091C38.7337 6.37879 38.8928 5.72727 39.2109 5.13636C39.5329 4.54167 39.9837 4.06818 40.5632 3.71591C41.1465 3.36364 41.8321 3.19318 42.62 3.20455ZM42.62 4.45455C42.1428 4.45455 41.7128 4.57386 41.3303 4.8125C40.9515 5.04735 40.6503 5.36553 40.4268 5.76705C40.2071 6.16477 40.0973 6.60606 40.0973 7.09091C40.0973 7.57576 40.2034 8.01705 40.4155 8.41477C40.6314 8.80871 40.925 9.12311 41.2962 9.35795C41.6712 9.58902 42.0973 9.70455 42.5746 9.70455C42.9344 9.70455 43.2696 9.63447 43.5803 9.49432C43.8909 9.35038 44.1617 9.1553 44.3928 8.90909C44.6276 8.65909 44.8113 8.37689 44.9439 8.0625C45.0765 7.74432 45.1428 7.41288 45.1428 7.06818C45.1428 6.61364 45.0329 6.1875 44.8132 5.78977C44.5973 5.39205 44.2981 5.07008 43.9155 4.82386C43.5367 4.57765 43.1049 4.45455 42.62 4.45455Z" fill="#F32851"/>
<path d="M26.5252 78.6195C26.8435 79.1626 26.8435 79.8374 26.5252 80.3805C25.6989 81.7909 24.7909 82.6989 23.3805 83.5252C22.8374 83.8435 22.1626 83.8435 21.6195 83.5252C20.2091 82.6989 19.3011 81.7909 18.4748 80.3805C18.1565 79.8374 18.1565 79.1626 18.4748 78.6195C19.3011 77.2091 20.2091 76.3011 21.6195 75.4748C22.1626 75.1565 22.8374 75.1565 23.3805 75.4748C24.7909 76.3011 25.6989 77.2091 26.5252 78.6195Z" fill="#F32851"/>
<path d="M43.5252 29.6195C43.8435 30.1626 43.8435 30.8374 43.5252 31.3805C42.6989 32.7909 41.7909 33.6989 40.3805 34.5252C39.8374 34.8435 39.1626 34.8435 38.6195 34.5252C37.2091 33.6989 36.3011 32.7909 35.4748 31.3805C35.1565 30.8374 35.1565 30.1626 35.4748 29.6195C36.3011 28.2091 37.2091 27.3011 38.6195 26.4748C39.1626 26.1565 39.8374 26.1565 40.3805 26.4748C41.7909 27.3011 42.6989 28.2091 43.5252 29.6195Z" fill="#F32851"/>
<path d="M59.5252 95.6195C59.8435 96.1626 59.8435 96.8374 59.5252 97.3805C58.6989 98.7909 57.7909 99.6989 56.3805 100.525C55.8374 100.843 55.1626 100.843 54.6195 100.525C53.2091 99.6989 52.3011 98.7909 51.4748 97.3805C51.1565 96.8374 51.1565 96.1626 51.4748 95.6195C52.3011 94.2091 53.2091 93.3011 54.6195 92.4748C55.1626 92.1565 55.8374 92.1565 56.3805 92.4748C57.7909 93.3011 58.6989 94.2091 59.5252 95.6195Z" fill="#F32851"/>
<path d="M8.52523 95.6195C8.84348 96.1626 8.84348 96.8374 8.52523 97.3805C7.69886 98.7909 6.79088 99.6989 5.38054 100.525C4.83739 100.843 4.16261 100.843 3.61946 100.525C2.20912 99.6989 1.30114 98.7909 0.474768 97.3805C0.15652 96.8374 0.15652 96.1626 0.474768 95.6195C1.30114 94.2091 2.20912 93.3011 3.61946 92.4748C4.16261 92.1565 4.83739 92.1565 5.38054 92.4748C6.79088 93.3011 7.69886 94.2091 8.52523 95.6195Z" fill="#F32851"/>
</svg>
