<svg width="60" height="106" viewBox="0 0 60 106" fill="none" xmlns="http://www.w3.org/2000/svg">
<rect x="4.5" y="21.5" width="51" height="84" rx="1.5" stroke="#535353"/>
<line x1="4" y1="37.4999" x2="56" y2="37.4999" stroke="#535353"/>
<line x1="4" y1="53.5" x2="56" y2="53.5" stroke="#535353"/>
<path d="M4 88H55" stroke="#535353"/>
<path d="M4 71H55.5" stroke="#535353"/>
<line x1="22.5" y1="21" x2="22.5" y2="106" stroke="#535353"/>
<path d="M39.5 21L39.5 106" stroke="#535353"/>
<path d="M11.3203 15H7.7294V3.36364H11.4794C12.6082 3.36364 13.5741 3.59659 14.3771 4.0625C15.1802 4.52462 15.7957 5.18939 16.2237 6.05682C16.6518 6.92045 16.8658 7.95455 16.8658 9.15909C16.8658 10.3712 16.6499 11.4148 16.218 12.2898C15.7862 13.161 15.1574 13.8314 14.3317 14.3011C13.5059 14.767 12.5021 15 11.3203 15ZM9.13849 13.75H11.2294C12.1915 13.75 12.9889 13.5644 13.6214 13.1932C14.254 12.822 14.7256 12.2936 15.0362 11.608C15.3468 10.9223 15.5021 10.1061 15.5021 9.15909C15.5021 8.2197 15.3487 7.41098 15.0419 6.73295C14.7351 6.05114 14.2768 5.52841 13.6669 5.16477C13.0571 4.79735 12.2976 4.61364 11.3885 4.61364H9.13849V13.75ZM19.0476 15V6.27273H20.343V7.63636H20.4567C20.6385 7.17045 20.9321 6.80871 21.3374 6.55114C21.7427 6.28977 22.2294 6.15909 22.7976 6.15909C23.3733 6.15909 23.8525 6.28977 24.2351 6.55114C24.6214 6.80871 24.9226 7.17045 25.1385 7.63636H25.2294C25.4529 7.18561 25.7881 6.82765 26.2351 6.5625C26.6821 6.29356 27.218 6.15909 27.843 6.15909C28.6233 6.15909 29.2616 6.40341 29.7578 6.89205C30.254 7.37689 30.5021 8.13258 30.5021 9.15909V15H29.1612V9.15909C29.1612 8.51515 28.9851 8.05492 28.6328 7.77841C28.2805 7.50189 27.8658 7.36364 27.3885 7.36364C26.7749 7.36364 26.2995 7.54924 25.9624 7.92045C25.6252 8.28788 25.4567 8.75379 25.4567 9.31818V15H24.093V9.02273C24.093 8.52652 23.9321 8.12689 23.6101 7.82386C23.2881 7.51705 22.8733 7.36364 22.3658 7.36364C22.0173 7.36364 21.6915 7.45644 21.3885 7.64205C21.0893 7.82765 20.8468 8.08523 20.6612 8.41477C20.4794 8.74053 20.3885 9.11742 20.3885 9.54545V15H19.0476ZM35.522 15.2045C34.969 15.2045 34.4671 15.1004 34.0163 14.892C33.5656 14.6799 33.2076 14.375 32.9425 13.9773C32.6773 13.5758 32.5447 13.0909 32.5447 12.5227C32.5447 12.0227 32.6432 11.6174 32.8402 11.3068C33.0372 10.9924 33.3004 10.7462 33.63 10.5682C33.9595 10.3902 34.3232 10.2576 34.7209 10.1705C35.1224 10.0795 35.5258 10.0076 35.9311 9.95455C36.4614 9.88636 36.8913 9.83523 37.2209 9.80114C37.5542 9.76326 37.7966 9.70076 37.9482 9.61364C38.1035 9.52652 38.1811 9.375 38.1811 9.15909V9.11364C38.1811 8.55303 38.0277 8.11742 37.7209 7.80682C37.4179 7.49621 36.9576 7.34091 36.3402 7.34091C35.7 7.34091 35.1982 7.48106 34.8345 7.76136C34.4709 8.04167 34.2152 8.34091 34.0675 8.65909L32.7947 8.20455C33.022 7.67424 33.325 7.26136 33.7038 6.96591C34.0864 6.66667 34.5031 6.45833 34.9538 6.34091C35.4084 6.2197 35.8554 6.15909 36.2947 6.15909C36.575 6.15909 36.897 6.19318 37.2607 6.26136C37.6281 6.32576 37.9822 6.46023 38.3232 6.66477C38.6679 6.86932 38.9538 7.17803 39.1811 7.59091C39.4084 8.00379 39.522 8.55682 39.522 9.25V15H38.1811V13.8182H38.1129C38.022 14.0076 37.8705 14.2102 37.6584 14.4261C37.4463 14.642 37.1641 14.8258 36.8118 14.9773C36.4595 15.1288 36.0296 15.2045 35.522 15.2045ZM35.7266 14C36.2569 14 36.7038 13.8958 37.0675 13.6875C37.4349 13.4792 37.7114 13.2102 37.897 12.8807C38.0864 12.5511 38.1811 12.2045 38.1811 11.8409V10.6136C38.1243 10.6818 37.9993 10.7443 37.8061 10.8011C37.6167 10.8542 37.397 10.9015 37.147 10.9432C36.9008 10.9811 36.6603 11.0152 36.4254 11.0455C36.1944 11.072 36.0069 11.0947 35.8629 11.1136C35.5144 11.1591 35.1887 11.233 34.8857 11.3352C34.5864 11.4337 34.344 11.5833 34.1584 11.7841C33.9766 11.9811 33.8857 12.25 33.8857 12.5909C33.8857 13.0568 34.058 13.4091 34.4027 13.6477C34.7512 13.8826 35.1925 14 35.7266 14ZM41.9695 6.27273H43.3104V15.6364C43.3104 16.1742 43.2176 16.6402 43.032 17.0341C42.8501 17.428 42.5736 17.733 42.2024 17.9489C41.835 18.1648 41.371 18.2727 40.8104 18.2727C40.7649 18.2727 40.7195 18.2727 40.674 18.2727C40.6286 18.2727 40.5831 18.2727 40.5376 18.2727V17.0227C40.5831 17.0227 40.6248 17.0227 40.6626 17.0227C40.7005 17.0227 40.7422 17.0227 40.7876 17.0227C41.1967 17.0227 41.496 16.9015 41.6854 16.6591C41.8748 16.4205 41.9695 16.0795 41.9695 15.6364V6.27273ZM42.6286 4.81818C42.3672 4.81818 42.1418 4.72917 41.9524 4.55114C41.7668 4.37311 41.674 4.15909 41.674 3.90909C41.674 3.65909 41.7668 3.44508 41.9524 3.26705C42.1418 3.08902 42.3672 3 42.6286 3C42.8899 3 43.1134 3.08902 43.299 3.26705C43.4884 3.44508 43.5831 3.65909 43.5831 3.90909C43.5831 4.15909 43.4884 4.37311 43.299 4.55114C43.1134 4.72917 42.8899 4.81818 42.6286 4.81818ZM46.1072 15L51.3118 4.70455V4.61364H45.3118V3.36364H52.7663V4.68182L47.5845 15H46.1072Z" fill="#F32851"/>
<path d="M59.5252 96.6195C59.8435 97.1626 59.8435 97.8374 59.5252 98.3805C58.6989 99.7909 57.7909 100.699 56.3805 101.525C55.8374 101.843 55.1626 101.843 54.6195 101.525C53.2091 100.699 52.3011 99.7909 51.4748 98.3805C51.1565 97.8374 51.1565 97.1626 51.4748 96.6195C52.3011 95.2091 53.2091 94.3011 54.6195 93.4748C55.1626 93.1565 55.8374 93.1565 56.3805 93.4748C57.7909 94.3011 58.6989 95.2091 59.5252 96.6195Z" fill="#F32851"/>
<path d="M43.5252 44.6195C43.8435 45.1626 43.8435 45.8374 43.5252 46.3805C42.6989 47.7909 41.7909 48.6989 40.3805 49.5252C39.8374 49.8435 39.1626 49.8435 38.6195 49.5252C37.2091 48.6989 36.3011 47.7909 35.4748 46.3805C35.1565 45.8374 35.1565 45.1626 35.4748 44.6195C36.3011 43.2091 37.2091 42.3011 38.6195 41.4748C39.1626 41.1565 39.8374 41.1565 40.3805 41.4748C41.7909 42.3011 42.6989 43.2091 43.5252 44.6195Z" fill="#F32851"/>
<path d="M26.5252 27.6195C26.8435 28.1626 26.8435 28.8374 26.5252 29.3805C25.6989 30.7909 24.7909 31.6989 23.3805 32.5252C22.8374 32.8435 22.1626 32.8435 21.6195 32.5252C20.2091 31.6989 19.3011 30.7909 18.4748 29.3805C18.1565 28.8374 18.1565 28.1626 18.4748 27.6195C19.3011 26.2091 20.2091 25.3011 21.6195 24.4748C22.1626 24.1565 22.8374 24.1565 23.3805 24.4748C24.7909 25.3011 25.6989 26.2091 26.5252 27.6195Z" fill="#F32851"/>
<path d="M8.52523 44.6195C8.84348 45.1626 8.84348 45.8374 8.52523 46.3805C7.69886 47.7909 6.79088 48.6989 5.38054 49.5252C4.83739 49.8435 4.16261 49.8435 3.61946 49.5252C2.20912 48.6989 1.30114 47.7909 0.474768 46.3805C0.15652 45.8374 0.15652 45.1626 0.474768 44.6195C1.30114 43.2091 2.20912 42.3011 3.61946 41.4748C4.16261 41.1565 4.83739 41.1565 5.38054 41.4748C6.79088 42.3011 7.69886 43.2091 8.52523 44.6195Z" fill="#F32851"/>
</svg>
