<svg width="58" height="106" viewBox="0 0 58 106" fill="none" xmlns="http://www.w3.org/2000/svg">
<rect x="3.5" y="21.5" width="51" height="84" rx="1.5" stroke="#535353"/>
<line x1="3" y1="37.4999" x2="55" y2="37.4999" stroke="#535353"/>
<line x1="3" y1="53.5" x2="55" y2="53.5" stroke="#535353"/>
<path d="M3 88H54" stroke="#535353"/>
<path d="M3 71H54.5" stroke="#535353"/>
<line x1="21.5" y1="21" x2="21.5" y2="106" stroke="#535353"/>
<path d="M38.5 21L38.5 106" stroke="#535353"/>
<path d="M18.2109 15H14.62V3.36364H18.37C19.4988 3.36364 20.4647 3.59659 21.2678 4.0625C22.0708 4.52462 22.6863 5.18939 23.1143 6.05682C23.5424 6.92045 23.7564 7.95455 23.7564 9.15909C23.7564 10.3712 23.5405 11.4148 23.1087 12.2898C22.6768 13.161 22.0481 13.8314 21.2223 14.3011C20.3965 14.767 19.3928 15 18.2109 15ZM16.0291 13.75H18.12C19.0821 13.75 19.8795 13.5644 20.5121 13.1932C21.1446 12.822 21.6162 12.2936 21.9268 11.608C22.2375 10.9223 22.3928 10.1061 22.3928 9.15909C22.3928 8.2197 22.2393 7.41098 21.9325 6.73295C21.6257 6.05114 21.1674 5.52841 20.5575 5.16477C19.9477 4.79735 19.1882 4.61364 18.2791 4.61364H16.0291V13.75ZM30.2791 15L32.1882 3.36364H33.3246L31.4155 15H30.2791ZM24.9837 11.7727L25.1655 10.6364H33.8473L33.6655 11.7727H24.9837ZM26.1882 15L28.0973 3.36364H29.2337L27.3246 15H26.1882ZM25.6655 7.72727L25.8473 6.59091H34.5291L34.3473 7.72727H25.6655ZM39.8729 15.1591C39.3956 15.1515 38.9183 15.0606 38.4411 14.8864C37.9638 14.7121 37.5282 14.4186 37.1342 14.0057C36.7403 13.589 36.424 13.0265 36.1854 12.3182C35.9467 11.6061 35.8274 10.7121 35.8274 9.63636C35.8274 8.60606 35.924 7.69318 36.1172 6.89773C36.3104 6.09848 36.5907 5.42614 36.9581 4.88068C37.3255 4.33144 37.7687 3.91477 38.2876 3.63068C38.8104 3.34659 39.3994 3.20455 40.0547 3.20455C40.7062 3.20455 41.2857 3.33523 41.7933 3.59659C42.3047 3.85417 42.7214 4.21401 43.0433 4.67614C43.3653 5.13826 43.5736 5.67045 43.6683 6.27273H42.282C42.1532 5.75 41.9032 5.31629 41.532 4.97159C41.1607 4.62689 40.6683 4.45455 40.0547 4.45455C39.1532 4.45455 38.4429 4.84659 37.924 5.63068C37.4089 6.41477 37.1494 7.51515 37.1456 8.93182H37.2365C37.4486 8.60985 37.7005 8.33523 37.9922 8.10795C38.2876 7.87689 38.6134 7.69886 38.9695 7.57386C39.3255 7.44886 39.7024 7.38636 40.1001 7.38636C40.7668 7.38636 41.3767 7.55303 41.9297 7.88636C42.4827 8.21591 42.9259 8.67235 43.2592 9.25568C43.5926 9.83523 43.7592 10.5 43.7592 11.25C43.7592 11.9697 43.5982 12.6288 43.2763 13.2273C42.9543 13.822 42.5017 14.2955 41.9183 14.6477C41.3388 14.9962 40.657 15.1667 39.8729 15.1591ZM39.8729 13.9091C40.3501 13.9091 40.7782 13.7898 41.157 13.5511C41.5395 13.3125 41.8407 12.9924 42.0604 12.5909C42.2839 12.1894 42.3956 11.7424 42.3956 11.25C42.3956 10.7689 42.2876 10.3314 42.0717 9.9375C41.8596 9.53977 41.5661 9.22348 41.1911 8.98864C40.8198 8.75379 40.3956 8.63636 39.9183 8.63636C39.5585 8.63636 39.2232 8.70833 38.9126 8.85227C38.602 8.99242 38.3293 9.18561 38.0945 9.43182C37.8634 9.67803 37.6816 9.96023 37.549 10.2784C37.4164 10.5928 37.3501 10.9242 37.3501 11.2727C37.3501 11.7348 37.4581 12.1667 37.674 12.5682C37.8937 12.9697 38.1929 13.2936 38.5717 13.5398C38.9543 13.786 39.388 13.9091 39.8729 13.9091Z" fill="#F32851"/>
<path d="M3 63H55" stroke="#F32851" stroke-width="5" stroke-linecap="round"/>
</svg>
