<svg width="56" height="106" viewBox="0 0 56 106" fill="none" xmlns="http://www.w3.org/2000/svg">
<rect x="0.5" y="21.5" width="51" height="84" rx="1.5" stroke="#535353"/>
<line y1="37.4999" x2="52" y2="37.4999" stroke="#535353"/>
<line y1="53.5" x2="52" y2="53.5" stroke="#535353"/>
<path d="M0 88H51" stroke="#535353"/>
<path d="M0 71H51.5" stroke="#535353"/>
<line x1="18.5" y1="21" x2="18.5" y2="106" stroke="#535353"/>
<path d="M35.5 21L35.5 106" stroke="#535353"/>
<path d="M15.2109 15H11.62V3.36364H15.37C16.4988 3.36364 17.4647 3.59659 18.2678 4.0625C19.0708 4.52462 19.6863 5.18939 20.1143 6.05682C20.5424 6.92045 20.7564 7.95455 20.7564 9.15909C20.7564 10.3712 20.5405 11.4148 20.1087 12.2898C19.6768 13.161 19.0481 13.8314 18.2223 14.3011C17.3965 14.767 16.3928 15 15.2109 15ZM13.0291 13.75H15.12C16.0821 13.75 16.8795 13.5644 17.5121 13.1932C18.1446 12.822 18.6162 12.2936 18.9268 11.608C19.2375 10.9223 19.3928 10.1061 19.3928 9.15909C19.3928 8.2197 19.2393 7.41098 18.9325 6.73295C18.6257 6.05114 18.1674 5.52841 17.5575 5.16477C16.9477 4.79735 16.1882 4.61364 15.2791 4.61364H13.0291V13.75ZM27.2791 15L29.1882 3.36364H30.3246L28.4155 15H27.2791ZM21.9837 11.7727L22.1655 10.6364H30.8473L30.6655 11.7727H21.9837ZM23.1882 15L25.0973 3.36364H26.2337L24.3246 15H23.1882ZM22.6655 7.72727L22.8473 6.59091H31.5291L31.3473 7.72727H22.6655ZM36.7138 3.20455C37.1911 3.20833 37.6683 3.29924 38.1456 3.47727C38.6229 3.6553 39.0585 3.95076 39.4524 4.36364C39.8464 4.77273 40.1626 5.33144 40.4013 6.03977C40.6399 6.74811 40.7592 7.63636 40.7592 8.70455C40.7592 9.73864 40.6607 10.6572 40.4638 11.4602C40.2706 12.2595 39.9903 12.9337 39.6229 13.483C39.2592 14.0322 38.8161 14.4489 38.2933 14.733C37.7744 15.017 37.1873 15.1591 36.532 15.1591C35.8804 15.1591 35.299 15.0303 34.7876 14.7727C34.2801 14.5114 33.8634 14.1496 33.5376 13.6875C33.2157 13.2216 33.0092 12.6818 32.9183 12.0682H34.3047C34.4297 12.6023 34.6778 13.0436 35.049 13.392C35.424 13.7367 35.9183 13.9091 36.532 13.9091C37.4297 13.9091 38.138 13.517 38.657 12.733C39.1797 11.9489 39.4411 10.8409 39.4411 9.40909H39.3501C39.138 9.72727 38.8861 10.0019 38.5945 10.233C38.3028 10.464 37.9789 10.642 37.6229 10.767C37.2668 10.892 36.888 10.9545 36.4865 10.9545C35.8198 10.9545 35.2081 10.7898 34.6513 10.4602C34.0982 10.1269 33.6551 9.67045 33.3217 9.09091C32.9922 8.50758 32.8274 7.84091 32.8274 7.09091C32.8274 6.37879 32.9865 5.72727 33.3047 5.13636C33.6267 4.54167 34.0774 4.06818 34.657 3.71591C35.2403 3.36364 35.9259 3.19318 36.7138 3.20455ZM36.7138 4.45455C36.2365 4.45455 35.8066 4.57386 35.424 4.8125C35.0452 5.04735 34.7441 5.36553 34.5206 5.76705C34.3009 6.16477 34.1911 6.60606 34.1911 7.09091C34.1911 7.57576 34.2971 8.01705 34.5092 8.41477C34.7251 8.80871 35.0187 9.12311 35.3899 9.35795C35.7649 9.58902 36.1911 9.70455 36.6683 9.70455C37.0282 9.70455 37.3634 9.63447 37.674 9.49432C37.9846 9.35038 38.2554 9.1553 38.4865 8.90909C38.7214 8.65909 38.9051 8.37689 39.0376 8.0625C39.1702 7.74432 39.2365 7.41288 39.2365 7.06818C39.2365 6.61364 39.1267 6.1875 38.907 5.78977C38.6911 5.39205 38.3918 5.07008 38.0092 4.82386C37.6304 4.57765 37.1986 4.45455 36.7138 4.45455Z" fill="#F32851"/>
<path d="M55.5252 78.6195C55.8435 79.1626 55.8435 79.8374 55.5252 80.3805C54.6989 81.7909 53.7909 82.6989 52.3805 83.5252C51.8374 83.8435 51.1626 83.8435 50.6195 83.5252C49.2091 82.6989 48.3011 81.7909 47.4748 80.3805C47.1565 79.8374 47.1565 79.1626 47.4748 78.6195C48.3011 77.2091 49.2091 76.3011 50.6195 75.4748C51.1626 75.1565 51.8374 75.1565 52.3805 75.4748C53.7909 76.3011 54.6989 77.2091 55.5252 78.6195Z" fill="#F32851"/>
<path d="M22.5252 61.6195C22.8435 62.1626 22.8435 62.8374 22.5252 63.3805C21.6989 64.7909 20.7909 65.6989 19.3805 66.5252C18.8374 66.8435 18.1626 66.8435 17.6195 66.5252C16.2091 65.6989 15.3011 64.7909 14.4748 63.3805C14.1565 62.8374 14.1565 62.1626 14.4748 61.6195C15.3011 60.2091 16.2091 59.3011 17.6195 58.4748C18.1626 58.1565 18.8374 58.1565 19.3805 58.4748C20.7909 59.3011 21.6989 60.2091 22.5252 61.6195Z" fill="#F32851"/>
<path d="M39.5252 27.6195C39.8435 28.1626 39.8435 28.8374 39.5252 29.3805C38.6989 30.7909 37.7909 31.6989 36.3805 32.5252C35.8374 32.8435 35.1626 32.8435 34.6195 32.5252C33.2091 31.6989 32.3011 30.7909 31.4748 29.3805C31.1565 28.8374 31.1565 28.1626 31.4748 27.6195C32.3011 26.2091 33.2091 25.3011 34.6195 24.4748C35.1626 24.1565 35.8374 24.1565 36.3805 24.4748C37.7909 25.3011 38.6989 26.2091 39.5252 27.6195Z" fill="#F32851"/>
</svg>
