<svg width="56" height="106" viewBox="0 0 56 106" fill="none" xmlns="http://www.w3.org/2000/svg">
<rect x="4.5" y="21.5" width="51" height="84" rx="1.5" stroke="#535353"/>
<line x1="4" y1="37.4999" x2="56" y2="37.4999" stroke="#535353"/>
<line x1="4" y1="53.5" x2="56" y2="53.5" stroke="#535353"/>
<path d="M4 88H55" stroke="#535353"/>
<path d="M4 71H55.5" stroke="#535353"/>
<line x1="22.5" y1="21" x2="22.5" y2="106" stroke="#535353"/>
<path d="M39.5 21L39.5 106" stroke="#535353"/>
<path d="M10.3828 15H6.7919V3.36364H10.5419C11.6707 3.36364 12.6366 3.59659 13.4396 4.0625C14.2427 4.52462 14.8582 5.18939 15.2862 6.05682C15.7143 6.92045 15.9283 7.95455 15.9283 9.15909C15.9283 10.3712 15.7124 11.4148 15.2805 12.2898C14.8487 13.161 14.2199 13.8314 13.3942 14.3011C12.5684 14.767 11.5646 15 10.3828 15ZM8.20099 13.75H10.2919C11.254 13.75 12.0514 13.5644 12.6839 13.1932C13.3165 12.822 13.7881 12.2936 14.0987 11.608C14.4093 10.9223 14.5646 10.1061 14.5646 9.15909C14.5646 8.2197 14.4112 7.41098 14.1044 6.73295C13.7976 6.05114 13.3393 5.52841 12.7294 5.16477C12.1196 4.79735 11.3601 4.61364 10.451 4.61364H8.20099V13.75ZM22.451 15L24.3601 3.36364H25.4964L23.5874 15H22.451ZM17.1555 11.7727L17.3374 10.6364H26.0192L25.8374 11.7727H17.1555ZM18.3601 15L20.2692 3.36364H21.4055L19.4964 15H18.3601ZM17.8374 7.72727L18.0192 6.59091H26.701L26.5192 7.72727H17.8374ZM31.4993 15.1818C30.772 15.1818 30.13 14.9981 29.5732 14.6307C29.0163 14.2595 28.5807 13.7367 28.2663 13.0625C27.9519 12.3845 27.7947 11.5833 27.7947 10.6591C27.7947 9.74242 27.9519 8.94697 28.2663 8.27273C28.5807 7.59848 29.0182 7.07765 29.5788 6.71023C30.1394 6.3428 30.7872 6.15909 31.522 6.15909C32.0902 6.15909 32.5391 6.25379 32.8686 6.44318C33.2019 6.62879 33.4557 6.84091 33.63 7.07955C33.808 7.31439 33.9463 7.50758 34.0447 7.65909H34.1584V3.36364H35.4993V15H34.2038V13.6591H34.0447C33.9463 13.8182 33.8061 14.0189 33.6243 14.2614C33.4425 14.5 33.183 14.714 32.8459 14.9034C32.5088 15.089 32.0599 15.1818 31.4993 15.1818ZM31.6811 13.9773C32.219 13.9773 32.6735 13.8371 33.0447 13.5568C33.416 13.2727 33.6982 12.8807 33.8913 12.3807C34.0845 11.8769 34.1811 11.2955 34.1811 10.6364C34.1811 9.98485 34.0864 9.41477 33.897 8.92614C33.7076 8.43371 33.4273 8.05114 33.0561 7.77841C32.6849 7.50189 32.2266 7.36364 31.6811 7.36364C31.1129 7.36364 30.6394 7.50947 30.2607 7.80114C29.8857 8.08902 29.6035 8.48106 29.4141 8.97727C29.2285 9.4697 29.1357 10.0227 29.1357 10.6364C29.1357 11.2576 29.2304 11.822 29.4197 12.3295C29.6129 12.8333 29.897 13.2348 30.272 13.5341C30.6508 13.8295 31.1205 13.9773 31.6811 13.9773ZM38.1413 15V6.27273H39.4822V15H38.1413ZM38.8232 4.81818C38.5618 4.81818 38.3364 4.72917 38.147 4.55114C37.9614 4.37311 37.8686 4.15909 37.8686 3.90909C37.8686 3.65909 37.9614 3.44508 38.147 3.26705C38.3364 3.08902 38.5618 3 38.8232 3C39.0845 3 39.308 3.08902 39.4936 3.26705C39.683 3.44508 39.7777 3.65909 39.7777 3.90909C39.7777 4.15909 39.683 4.37311 39.4936 4.55114C39.308 4.72917 39.0845 4.81818 38.8232 4.81818ZM41.9382 15V6.27273H43.2337V7.63636H43.3473C43.5291 7.17045 43.8227 6.80871 44.228 6.55114C44.6333 6.28977 45.12 6.15909 45.6882 6.15909C46.264 6.15909 46.7431 6.28977 47.1257 6.55114C47.5121 6.80871 47.8132 7.17045 48.0291 7.63636H48.12C48.3435 7.18561 48.6787 6.82765 49.1257 6.5625C49.5727 6.29356 50.1087 6.15909 50.7337 6.15909C51.514 6.15909 52.1522 6.40341 52.6484 6.89205C53.1447 7.37689 53.3928 8.13258 53.3928 9.15909V15H52.0518V9.15909C52.0518 8.51515 51.8757 8.05492 51.5234 7.77841C51.1712 7.50189 50.7564 7.36364 50.2791 7.36364C49.6655 7.36364 49.1901 7.54924 48.853 7.92045C48.5159 8.28788 48.3473 8.75379 48.3473 9.31818V15H46.9837V9.02273C46.9837 8.52652 46.8227 8.12689 46.5007 7.82386C46.1787 7.51705 45.764 7.36364 45.2564 7.36364C44.9079 7.36364 44.5821 7.45644 44.2791 7.64205C43.9799 7.82765 43.7375 8.08523 43.5518 8.41477C43.37 8.74053 43.2791 9.11742 43.2791 9.54545V15H41.9382Z" fill="#F32851"/>
<path d="M26.5252 61.6195C26.8435 62.1626 26.8435 62.8374 26.5252 63.3805C25.6989 64.7909 24.7909 65.6989 23.3805 66.5252C22.8374 66.8435 22.1626 66.8435 21.6195 66.5252C20.2091 65.6989 19.3011 64.7909 18.4748 63.3805C18.1565 62.8374 18.1565 62.1626 18.4748 61.6195C19.3011 60.2091 20.2091 59.3011 21.6195 58.4748C22.1626 58.1565 22.8374 58.1565 23.3805 58.4748C24.7909 59.3011 25.6989 60.2091 26.5252 61.6195Z" fill="#F32851"/>
<path d="M43.5252 44.6195C43.8435 45.1626 43.8435 45.8374 43.5252 46.3805C42.6989 47.7909 41.7909 48.6989 40.3805 49.5252C39.8374 49.8435 39.1626 49.8435 38.6195 49.5252C37.2091 48.6989 36.3011 47.7909 35.4748 46.3805C35.1565 45.8374 35.1565 45.1626 35.4748 44.6195C36.3011 43.2091 37.2091 42.3011 38.6195 41.4748C39.1626 41.1565 39.8374 41.1565 40.3805 41.4748C41.7909 42.3011 42.6989 43.2091 43.5252 44.6195Z" fill="#F32851"/>
<path d="M8.52523 44.6195C8.84348 45.1626 8.84348 45.8374 8.52523 46.3805C7.69886 47.7909 6.79088 48.6989 5.38054 49.5252C4.83739 49.8435 4.16261 49.8435 3.61946 49.5252C2.20912 48.6989 1.30114 47.7909 0.474768 46.3805C0.15652 45.8374 0.15652 45.1626 0.474768 44.6195C1.30114 43.2091 2.20912 42.3011 3.61946 41.4748C4.16261 41.1565 4.83739 41.1565 5.38054 41.4748C6.79088 42.3011 7.69886 43.2091 8.52523 44.6195Z" fill="#F32851"/>
</svg>
