<svg width="60" height="106" viewBox="0 0 60 106" fill="none" xmlns="http://www.w3.org/2000/svg">
<rect x="4.5" y="21.5" width="51" height="84" rx="1.5" stroke="#535353"/>
<line x1="4" y1="37.4999" x2="56" y2="37.4999" stroke="#535353"/>
<line x1="4" y1="53.5" x2="56" y2="53.5" stroke="#535353"/>
<path d="M4 88H55" stroke="#535353"/>
<path d="M4 71H55.5" stroke="#535353"/>
<line x1="22.5" y1="21" x2="22.5" y2="106" stroke="#535353"/>
<path d="M39.5 21L39.5 106" stroke="#535353"/>
<path d="M12.2578 15H8.6669V3.36364H12.4169C13.5457 3.36364 14.5116 3.59659 15.3146 4.0625C16.1177 4.52462 16.7332 5.18939 17.1612 6.05682C17.5893 6.92045 17.8033 7.95455 17.8033 9.15909C17.8033 10.3712 17.5874 11.4148 17.1555 12.2898C16.7237 13.161 16.0949 13.8314 15.2692 14.3011C14.4434 14.767 13.4396 15 12.2578 15ZM10.076 13.75H12.1669C13.129 13.75 13.9264 13.5644 14.5589 13.1932C15.1915 12.822 15.6631 12.2936 15.9737 11.608C16.2843 10.9223 16.4396 10.1061 16.4396 9.15909C16.4396 8.2197 16.2862 7.41098 15.9794 6.73295C15.6726 6.05114 15.2143 5.52841 14.6044 5.16477C13.9946 4.79735 13.2351 4.61364 12.326 4.61364H10.076V13.75ZM24.326 15L26.2351 3.36364H27.3714L25.4624 15H24.326ZM19.0305 11.7727L19.2124 10.6364H27.8942L27.7124 11.7727H19.0305ZM20.2351 15L22.1442 3.36364H23.2805L21.3714 15H20.2351ZM19.7124 7.72727L19.8942 6.59091H28.576L28.3942 7.72727H19.7124ZM30.0788 15V6.27273H31.3743V7.63636H31.4879C31.6697 7.17045 31.9633 6.80871 32.3686 6.55114C32.7739 6.28977 33.2607 6.15909 33.8288 6.15909C34.4046 6.15909 34.8838 6.28977 35.2663 6.55114C35.6527 6.80871 35.9538 7.17045 36.1697 7.63636H36.2607C36.4841 7.18561 36.8194 6.82765 37.2663 6.5625C37.7133 6.29356 38.2493 6.15909 38.8743 6.15909C39.6546 6.15909 40.2929 6.40341 40.7891 6.89205C41.2853 7.37689 41.5334 8.13258 41.5334 9.15909V15H40.1925V9.15909C40.1925 8.51515 40.0163 8.05492 39.6641 7.77841C39.3118 7.50189 38.897 7.36364 38.4197 7.36364C37.8061 7.36364 37.3307 7.54924 36.9936 7.92045C36.6565 8.28788 36.4879 8.75379 36.4879 9.31818V15H35.1243V9.02273C35.1243 8.52652 34.9633 8.12689 34.6413 7.82386C34.3194 7.51705 33.9046 7.36364 33.397 7.36364C33.0485 7.36364 32.7228 7.45644 32.4197 7.64205C32.1205 7.82765 31.8781 8.08523 31.6925 8.41477C31.5107 8.74053 31.4197 9.11742 31.4197 9.54545V15H30.0788ZM47.826 15.1591C47.3487 15.1515 46.8714 15.0606 46.3942 14.8864C45.9169 14.7121 45.4813 14.4186 45.0874 14.0057C44.6934 13.589 44.3771 13.0265 44.1385 12.3182C43.8999 11.6061 43.7805 10.7121 43.7805 9.63636C43.7805 8.60606 43.8771 7.69318 44.0703 6.89773C44.2635 6.09848 44.5438 5.42614 44.9112 4.88068C45.2786 4.33144 45.7218 3.91477 46.2408 3.63068C46.7635 3.34659 47.3525 3.20455 48.0078 3.20455C48.6593 3.20455 49.2389 3.33523 49.7464 3.59659C50.2578 3.85417 50.6745 4.21401 50.9964 4.67614C51.3184 5.13826 51.5268 5.67045 51.6214 6.27273H50.2351C50.1063 5.75 49.8563 5.31629 49.4851 4.97159C49.1139 4.62689 48.6214 4.45455 48.0078 4.45455C47.1063 4.45455 46.3961 4.84659 45.8771 5.63068C45.362 6.41477 45.1025 7.51515 45.0987 8.93182H45.1896C45.4018 8.60985 45.6536 8.33523 45.9453 8.10795C46.2408 7.87689 46.5665 7.69886 46.9226 7.57386C47.2786 7.44886 47.6555 7.38636 48.0533 7.38636C48.7199 7.38636 49.3298 7.55303 49.8828 7.88636C50.4358 8.21591 50.879 8.67235 51.2124 9.25568C51.5457 9.83523 51.7124 10.5 51.7124 11.25C51.7124 11.9697 51.5514 12.6288 51.2294 13.2273C50.9074 13.822 50.4548 14.2955 49.8714 14.6477C49.2919 14.9962 48.6101 15.1667 47.826 15.1591ZM47.826 13.9091C48.3033 13.9091 48.7313 13.7898 49.1101 13.5511C49.4927 13.3125 49.7938 12.9924 50.0135 12.5909C50.237 12.1894 50.3487 11.7424 50.3487 11.25C50.3487 10.7689 50.2408 10.3314 50.0249 9.9375C49.8127 9.53977 49.5192 9.22348 49.1442 8.98864C48.773 8.75379 48.3487 8.63636 47.8714 8.63636C47.5116 8.63636 47.1764 8.70833 46.8658 8.85227C46.5552 8.99242 46.2824 9.18561 46.0476 9.43182C45.8165 9.67803 45.6347 9.96023 45.5021 10.2784C45.3696 10.5928 45.3033 10.9242 45.3033 11.2727C45.3033 11.7348 45.4112 12.1667 45.6271 12.5682C45.8468 12.9697 46.1461 13.2936 46.5249 13.5398C46.9074 13.786 47.3411 13.9091 47.826 13.9091Z" fill="#F32851"/>
<path d="M59.5252 61.6195C59.8435 62.1626 59.8435 62.8374 59.5252 63.3805C58.6989 64.7909 57.7909 65.6989 56.3805 66.5252C55.8374 66.8435 55.1626 66.8435 54.6195 66.5252C53.2091 65.6989 52.3011 64.7909 51.4748 63.3805C51.1565 62.8374 51.1565 62.1626 51.4748 61.6195C52.3011 60.2091 53.2091 59.3011 54.6195 58.4748C55.1626 58.1565 55.8374 58.1565 56.3805 58.4748C57.7909 59.3011 58.6989 60.2091 59.5252 61.6195Z" fill="#F32851"/>
<path d="M43.5252 44.6195C43.8435 45.1626 43.8435 45.8374 43.5252 46.3805C42.6989 47.7909 41.7909 48.6989 40.3805 49.5252C39.8374 49.8435 39.1626 49.8435 38.6195 49.5252C37.2091 48.6989 36.3011 47.7909 35.4748 46.3805C35.1565 45.8374 35.1565 45.1626 35.4748 44.6195C36.3011 43.2091 37.2091 42.3011 38.6195 41.4748C39.1626 41.1565 39.8374 41.1565 40.3805 41.4748C41.7909 42.3011 42.6989 43.2091 43.5252 44.6195Z" fill="#F32851"/>
<path d="M26.5252 61.6195C26.8435 62.1626 26.8435 62.8374 26.5252 63.3805C25.6989 64.7909 24.7909 65.6989 23.3805 66.5252C22.8374 66.8435 22.1626 66.8435 21.6195 66.5252C20.2091 65.6989 19.3011 64.7909 18.4748 63.3805C18.1565 62.8374 18.1565 62.1626 18.4748 61.6195C19.3011 60.2091 20.2091 59.3011 21.6195 58.4748C22.1626 58.1565 22.8374 58.1565 23.3805 58.4748C24.7909 59.3011 25.6989 60.2091 26.5252 61.6195Z" fill="#F32851"/>
<path d="M8.52523 61.6195C8.84348 62.1626 8.84348 62.8374 8.52523 63.3805C7.69886 64.7909 6.79088 65.6989 5.38054 66.5252C4.83739 66.8435 4.16261 66.8435 3.61946 66.5252C2.20912 65.6989 1.30114 64.7909 0.474768 63.3805C0.15652 62.8374 0.15652 62.1626 0.474768 61.6195C1.30114 60.2091 2.20912 59.3011 3.61946 58.4748C4.16261 58.1565 4.83739 58.1565 5.38054 58.4748C6.79088 59.3011 7.69886 60.2091 8.52523 61.6195Z" fill="#F32851"/>
</svg>
