<svg width="60" height="106" viewBox="0 0 60 106" fill="none" xmlns="http://www.w3.org/2000/svg">
<rect x="4.5" y="21.5" width="51" height="84" rx="1.5" stroke="#535353"/>
<line x1="4" y1="37.4999" x2="56" y2="37.4999" stroke="#535353"/>
<line x1="4" y1="53.5" x2="56" y2="53.5" stroke="#535353"/>
<path d="M4 88H55" stroke="#535353"/>
<path d="M4 71H55.5" stroke="#535353"/>
<line x1="22.5" y1="21" x2="22.5" y2="106" stroke="#535353"/>
<path d="M39.5 21L39.5 106" stroke="#535353"/>
<path d="M12.6797 15H9.08878V3.36364H12.8388C13.9676 3.36364 14.9335 3.59659 15.7365 4.0625C16.5395 4.52462 17.1551 5.18939 17.5831 6.05682C18.0111 6.92045 18.2251 7.95455 18.2251 9.15909C18.2251 10.3712 18.0092 11.4148 17.5774 12.2898C17.1456 13.161 16.5168 13.8314 15.6911 14.3011C14.8653 14.767 13.8615 15 12.6797 15ZM10.4979 13.75H12.5888C13.5509 13.75 14.3482 13.5644 14.9808 13.1932C15.6134 12.822 16.085 12.2936 16.3956 11.608C16.7062 10.9223 16.8615 10.1061 16.8615 9.15909C16.8615 8.2197 16.7081 7.41098 16.4013 6.73295C16.0945 6.05114 15.6361 5.52841 15.0263 5.16477C14.4164 4.79735 13.657 4.61364 12.7479 4.61364H10.4979V13.75ZM24.7479 15L26.657 3.36364H27.7933L25.8842 15H24.7479ZM19.4524 11.7727L19.6342 10.6364H28.3161L28.1342 11.7727H19.4524ZM20.657 15L22.5661 3.36364H23.7024L21.7933 15H20.657ZM20.1342 7.72727L20.3161 6.59091H28.9979L28.8161 7.72727H20.1342ZM30.5007 15V6.27273H31.7962V7.63636H31.9098C32.0916 7.17045 32.3852 6.80871 32.7905 6.55114C33.1958 6.28977 33.6825 6.15909 34.2507 6.15909C34.8265 6.15909 35.3056 6.28977 35.6882 6.55114C36.0746 6.80871 36.3757 7.17045 36.5916 7.63636H36.6825C36.906 7.18561 37.2412 6.82765 37.6882 6.5625C38.1352 6.29356 38.6712 6.15909 39.2962 6.15909C40.0765 6.15909 40.7147 6.40341 41.2109 6.89205C41.7072 7.37689 41.9553 8.13258 41.9553 9.15909V15H40.6143V9.15909C40.6143 8.51515 40.4382 8.05492 40.0859 7.77841C39.7337 7.50189 39.3189 7.36364 38.8416 7.36364C38.228 7.36364 37.7526 7.54924 37.4155 7.92045C37.0784 8.28788 36.9098 8.75379 36.9098 9.31818V15H35.5462V9.02273C35.5462 8.52652 35.3852 8.12689 35.0632 7.82386C34.7412 7.51705 34.3265 7.36364 33.8189 7.36364C33.4704 7.36364 33.1446 7.45644 32.8416 7.64205C32.5424 7.82765 32.3 8.08523 32.1143 8.41477C31.9325 8.74053 31.8416 9.11742 31.8416 9.54545V15H30.5007ZM44.7479 15L49.9524 4.70455V4.61364H43.9524V3.36364H51.407V4.68182L46.2251 15H44.7479Z" fill="#F32851"/>
<path d="M59.5252 78.6195C59.8435 79.1626 59.8435 79.8374 59.5252 80.3805C58.6989 81.7909 57.7909 82.6989 56.3805 83.5252C55.8374 83.8435 55.1626 83.8435 54.6195 83.5252C53.2091 82.6989 52.3011 81.7909 51.4748 80.3805C51.1565 79.8374 51.1565 79.1626 51.4748 78.6195C52.3011 77.2091 53.2091 76.3011 54.6195 75.4748C55.1626 75.1565 55.8374 75.1565 56.3805 75.4748C57.7909 76.3011 58.6989 77.2091 59.5252 78.6195Z" fill="#F32851"/>
<path d="M43.5252 44.6195C43.8435 45.1626 43.8435 45.8374 43.5252 46.3805C42.6989 47.7909 41.7909 48.6989 40.3805 49.5252C39.8374 49.8435 39.1626 49.8435 38.6195 49.5252C37.2091 48.6989 36.3011 47.7909 35.4748 46.3805C35.1565 45.8374 35.1565 45.1626 35.4748 44.6195C36.3011 43.2091 37.2091 42.3011 38.6195 41.4748C39.1626 41.1565 39.8374 41.1565 40.3805 41.4748C41.7909 42.3011 42.6989 43.2091 43.5252 44.6195Z" fill="#F32851"/>
<path d="M26.5252 60.6195C26.8435 61.1626 26.8435 61.8374 26.5252 62.3805C25.6989 63.7909 24.7909 64.6989 23.3805 65.5252C22.8374 65.8435 22.1626 65.8435 21.6195 65.5252C20.2091 64.6989 19.3011 63.7909 18.4748 62.3805C18.1565 61.8374 18.1565 61.1626 18.4748 60.6195C19.3011 59.2091 20.2091 58.3011 21.6195 57.4748C22.1626 57.1565 22.8374 57.1565 23.3805 57.4748C24.7909 58.3011 25.6989 59.2091 26.5252 60.6195Z" fill="#F32851"/>
<path d="M8.52523 61.6195C8.84348 62.1626 8.84348 62.8374 8.52523 63.3805C7.69886 64.7909 6.79088 65.6989 5.38054 66.5252C4.83739 66.8435 4.16261 66.8435 3.61946 66.5252C2.20912 65.6989 1.30114 64.7909 0.474768 63.3805C0.15652 62.8374 0.15652 62.1626 0.474768 61.6195C1.30114 60.2091 2.20912 59.3011 3.61946 58.4748C4.16261 58.1565 4.83739 58.1565 5.38054 58.4748C6.79088 59.3011 7.69886 60.2091 8.52523 61.6195Z" fill="#F32851"/>
</svg>
