<svg width="52" height="106" viewBox="0 0 52 106" fill="none" xmlns="http://www.w3.org/2000/svg">
<rect x="0.5" y="21.5" width="51" height="84" rx="1.5" stroke="#535353"/>
<line y1="37.4999" x2="52" y2="37.4999" stroke="#535353"/>
<line y1="53.5" x2="52" y2="53.5" stroke="#535353"/>
<path d="M0 88H51" stroke="#535353"/>
<path d="M0 71H51.5" stroke="#535353"/>
<line x1="18.5" y1="21" x2="18.5" y2="106" stroke="#535353"/>
<path d="M35.5 21L35.5 106" stroke="#535353"/>
<path d="M7.10938 15H3.51847V3.36364H7.26847C8.39725 3.36364 9.36316 3.59659 10.1662 4.0625C10.9692 4.52462 11.5848 5.18939 12.0128 6.05682C12.4408 6.92045 12.6548 7.95455 12.6548 9.15909C12.6548 10.3712 12.4389 11.4148 12.0071 12.2898C11.5753 13.161 10.9465 13.8314 10.1207 14.3011C9.29498 14.767 8.29119 15 7.10938 15ZM4.92756 13.75H7.01847C7.98059 13.75 8.77794 13.5644 9.41051 13.1932C10.0431 12.822 10.5147 12.2936 10.8253 11.608C11.1359 10.9223 11.2912 10.1061 11.2912 9.15909C11.2912 8.2197 11.1378 7.41098 10.831 6.73295C10.5241 6.05114 10.0658 5.52841 9.45597 5.16477C8.84612 4.79735 8.08665 4.61364 7.17756 4.61364H4.92756V13.75ZM21.0185 8.22727L19.8139 8.56818C19.7382 8.36742 19.6264 8.17235 19.4787 7.98295C19.3348 7.78977 19.1378 7.63068 18.8878 7.50568C18.6378 7.38068 18.3177 7.31818 17.9276 7.31818C17.3935 7.31818 16.9484 7.44129 16.5923 7.6875C16.2401 7.92992 16.0639 8.23864 16.0639 8.61364C16.0639 8.94697 16.1851 9.21023 16.4276 9.40341C16.67 9.59659 17.0488 9.75758 17.5639 9.88636L18.8594 10.2045C19.6397 10.3939 20.2211 10.6837 20.6037 11.0739C20.9863 11.4602 21.1776 11.9583 21.1776 12.5682C21.1776 13.0682 21.0336 13.5152 20.7457 13.9091C20.4616 14.303 20.0639 14.6136 19.5526 14.8409C19.0412 15.0682 18.4465 15.1818 17.7685 15.1818C16.8783 15.1818 16.1416 14.9886 15.5582 14.6023C14.9749 14.2159 14.6056 13.6515 14.4503 12.9091L15.723 12.5909C15.8442 13.0606 16.0734 13.4129 16.4105 13.6477C16.7514 13.8826 17.1965 14 17.7457 14C18.3707 14 18.867 13.8674 19.2344 13.6023C19.6056 13.3333 19.7912 13.0114 19.7912 12.6364C19.7912 12.3333 19.6851 12.0795 19.473 11.875C19.2609 11.6667 18.9351 11.5114 18.4957 11.4091L17.0412 11.0682C16.242 10.8788 15.6548 10.5852 15.2798 10.1875C14.9086 9.78598 14.723 9.28409 14.723 8.68182C14.723 8.18939 14.8613 7.75379 15.1378 7.375C15.4181 6.99621 15.7988 6.69886 16.2798 6.48295C16.7647 6.26705 17.3139 6.15909 17.9276 6.15909C18.7912 6.15909 19.4692 6.34848 19.9616 6.72727C20.4579 7.10606 20.8101 7.60606 21.0185 8.22727ZM28.696 11.4318V6.27273H30.0369V15H28.696V13.5227H28.6051C28.4006 13.9659 28.0824 14.3428 27.6506 14.6534C27.2188 14.9602 26.6733 15.1136 26.0142 15.1136C25.4688 15.1136 24.9839 14.9943 24.5597 14.7557C24.1354 14.5133 23.8021 14.1496 23.5597 13.6648C23.3172 13.1761 23.196 12.5606 23.196 11.8182V6.27273H24.5369V11.7273C24.5369 12.3636 24.715 12.8712 25.071 13.25C25.4309 13.6288 25.8892 13.8182 26.446 13.8182C26.7794 13.8182 27.1184 13.733 27.4631 13.5625C27.8116 13.392 28.1032 13.1307 28.3381 12.7784C28.5767 12.4261 28.696 11.9773 28.696 11.4318ZM38.6747 8.22727L37.4702 8.56818C37.3944 8.36742 37.2827 8.17235 37.1349 7.98295C36.991 7.78977 36.794 7.63068 36.544 7.50568C36.294 7.38068 35.974 7.31818 35.5838 7.31818C35.0497 7.31818 34.6046 7.44129 34.2486 7.6875C33.8963 7.92992 33.7202 8.23864 33.7202 8.61364C33.7202 8.94697 33.8414 9.21023 34.0838 9.40341C34.3262 9.59659 34.705 9.75758 35.2202 9.88636L36.5156 10.2045C37.2959 10.3939 37.8774 10.6837 38.2599 11.0739C38.6425 11.4602 38.8338 11.9583 38.8338 12.5682C38.8338 13.0682 38.6899 13.5152 38.402 13.9091C38.1179 14.303 37.7202 14.6136 37.2088 14.8409C36.6974 15.0682 36.1027 15.1818 35.4247 15.1818C34.5346 15.1818 33.7978 14.9886 33.2145 14.6023C32.6312 14.2159 32.2618 13.6515 32.1065 12.9091L33.3793 12.5909C33.5005 13.0606 33.7296 13.4129 34.0668 13.6477C34.4077 13.8826 34.8527 14 35.402 14C36.027 14 36.5232 13.8674 36.8906 13.6023C37.2618 13.3333 37.4474 13.0114 37.4474 12.6364C37.4474 12.3333 37.3414 12.0795 37.1293 11.875C36.9171 11.6667 36.5914 11.5114 36.152 11.4091L34.6974 11.0682C33.8982 10.8788 33.3111 10.5852 32.9361 10.1875C32.5649 9.78598 32.3793 9.28409 32.3793 8.68182C32.3793 8.18939 32.5175 7.75379 32.794 7.375C33.0743 6.99621 33.455 6.69886 33.9361 6.48295C34.4209 6.26705 34.9702 6.15909 35.5838 6.15909C36.4474 6.15909 37.1255 6.34848 37.6179 6.72727C38.1141 7.10606 38.4664 7.60606 38.6747 8.22727ZM40.5568 12.6136V11.4545L45.6705 3.36364H46.5114V5.15909H45.9432L42.0795 11.2727V11.3636H48.9659V12.6136H40.5568ZM46.0341 15V12.2614V11.7216V3.36364H47.375V15H46.0341Z" fill="#F32851"/>
<path d="M39.5252 61.6195C39.8435 62.1626 39.8435 62.8374 39.5252 63.3805C38.6989 64.7909 37.7909 65.6989 36.3805 66.5252C35.8374 66.8435 35.1626 66.8435 34.6195 66.5252C33.2091 65.6989 32.3011 64.7909 31.4748 63.3805C31.1565 62.8374 31.1565 62.1626 31.4748 61.6195C32.3011 60.2091 33.2091 59.3011 34.6195 58.4748C35.1626 58.1565 35.8374 58.1565 36.3805 58.4748C37.7909 59.3011 38.6989 60.2091 39.5252 61.6195Z" fill="#F32851"/>
<path d="M22.5252 44.6195C22.8435 45.1626 22.8435 45.8374 22.5252 46.3805C21.6989 47.7909 20.7909 48.6989 19.3805 49.5252C18.8374 49.8435 18.1626 49.8435 17.6195 49.5252C16.2091 48.6989 15.3011 47.7909 14.4748 46.3805C14.1565 45.8374 14.1565 45.1626 14.4748 44.6195C15.3011 43.2091 16.2091 42.3011 17.6195 41.4748C18.1626 41.1565 18.8374 41.1565 19.3805 41.4748C20.7909 42.3011 21.6989 43.2091 22.5252 44.6195Z" fill="#F32851"/>
</svg>
