<svg width="60" height="106" viewBox="0 0 60 106" fill="none" xmlns="http://www.w3.org/2000/svg">
<rect x="4.5" y="21.5" width="51" height="84" rx="1.5" stroke="#535353"/>
<line x1="4" y1="37.4999" x2="56" y2="37.4999" stroke="#535353"/>
<line x1="4" y1="53.5" x2="56" y2="53.5" stroke="#535353"/>
<path d="M4 88H55" stroke="#535353"/>
<path d="M4 71H55.5" stroke="#535353"/>
<line x1="22.5" y1="21" x2="22.5" y2="106" stroke="#535353"/>
<path d="M39.5 21L39.5 106" stroke="#535353"/>
<path d="M21.7607 15V3.36364H28.7834V4.61364H23.1697V8.54545H28.4197V9.79545H23.1697V13.75H28.8743V15H21.7607ZM34.755 15.1591C34.0883 15.1591 33.4879 15.0265 32.9538 14.7614C32.4197 14.4962 31.9917 14.1326 31.6697 13.6705C31.3478 13.2083 31.1716 12.6818 31.1413 12.0909H32.505C32.558 12.6174 32.7966 13.053 33.2209 13.3977C33.6489 13.7386 34.1603 13.9091 34.755 13.9091C35.2322 13.9091 35.6565 13.7973 36.0277 13.5739C36.4027 13.3504 36.6963 13.0436 36.9084 12.6534C37.1243 12.2595 37.2322 11.8144 37.2322 11.3182C37.2322 10.8106 37.1205 10.358 36.897 9.96023C36.6773 9.55871 36.3743 9.24242 35.9879 9.01136C35.6016 8.7803 35.1603 8.66288 34.6641 8.65909C34.308 8.6553 33.9425 8.71023 33.5675 8.82386C33.1925 8.93371 32.8838 9.07576 32.6413 9.25L31.3232 9.09091L32.0277 3.36364H38.0732V4.61364H33.2095L32.8004 8.04545H32.8686C33.1072 7.85606 33.4065 7.69886 33.7663 7.57386C34.1262 7.44886 34.5012 7.38636 34.8913 7.38636C35.6035 7.38636 36.2379 7.55682 36.7947 7.89773C37.3554 8.23485 37.7947 8.69697 38.1129 9.28409C38.4349 9.87121 38.5959 10.5417 38.5959 11.2955C38.5959 12.0379 38.4292 12.7008 38.0959 13.2841C37.7663 13.8636 37.3118 14.322 36.7322 14.6591C36.1527 14.9924 35.4936 15.1591 34.755 15.1591Z" fill="#F32851"/>
<path d="M59.5252 44.6195C59.8435 45.1626 59.8435 45.8374 59.5252 46.3805C58.6989 47.7909 57.7909 48.6989 56.3805 49.5252C55.8374 49.8435 55.1626 49.8435 54.6195 49.5252C53.2091 48.6989 52.3011 47.7909 51.4748 46.3805C51.1565 45.8374 51.1565 45.1626 51.4748 44.6195C52.3011 43.2091 53.2091 42.3011 54.6195 41.4748C55.1626 41.1565 55.8374 41.1565 56.3805 41.4748C57.7909 42.3011 58.6989 43.2091 59.5252 44.6195Z" fill="#F32851"/>
<path d="M26.5252 78.6195C26.8435 79.1626 26.8435 79.8374 26.5252 80.3805C25.6989 81.7909 24.7909 82.6989 23.3805 83.5252C22.8374 83.8435 22.1626 83.8435 21.6195 83.5252C20.2091 82.6989 19.3011 81.7909 18.4748 80.3805C18.1565 79.8374 18.1565 79.1626 18.4748 78.6195C19.3011 77.2091 20.2091 76.3011 21.6195 75.4748C22.1626 75.1565 22.8374 75.1565 23.3805 75.4748C24.7909 76.3011 25.6989 77.2091 26.5252 78.6195Z" fill="#F32851"/>
<path d="M8.52523 78.6195C8.84348 79.1626 8.84348 79.8374 8.52523 80.3805C7.69886 81.7909 6.79088 82.6989 5.38054 83.5252C4.83739 83.8435 4.16261 83.8435 3.61946 83.5252C2.20912 82.6989 1.30114 81.7909 0.474768 80.3805C0.15652 79.8374 0.15652 79.1626 0.474768 78.6195C1.30114 77.2091 2.20912 76.3011 3.61946 75.4748C4.16261 75.1565 4.83739 75.1565 5.38054 75.4748C6.79088 76.3011 7.69886 77.2091 8.52523 78.6195Z" fill="#F32851"/>
</svg>
