<svg width="59" height="106" viewBox="0 0 59 106" fill="none" xmlns="http://www.w3.org/2000/svg">
<rect x="3.5" y="21.5" width="51" height="84" rx="1.5" stroke="#535353"/>
<line x1="3" y1="37.4999" x2="55" y2="37.4999" stroke="#535353"/>
<line x1="3" y1="53.5" x2="55" y2="53.5" stroke="#535353"/>
<path d="M3 88H54" stroke="#535353"/>
<path d="M3 71H54.5" stroke="#535353"/>
<line x1="21.5" y1="21" x2="21.5" y2="106" stroke="#535353"/>
<path d="M38.5 21L38.5 106" stroke="#535353"/>
<path d="M21.0575 15V3.36364H28.0803V4.61364H22.4666V8.54545H27.7166V9.79545H22.4666V13.75H28.1712V15H21.0575ZM30.7791 15L35.9837 4.70455V4.61364H29.9837V3.36364H37.4382V4.68182L32.2564 15H30.7791Z" fill="#F32851"/>
<path d="M58.5252 45.6195C58.8435 46.1626 58.8435 46.8374 58.5252 47.3805C57.6989 48.7909 56.7909 49.6989 55.3805 50.5252C54.8374 50.8435 54.1626 50.8435 53.6195 50.5252C52.2091 49.6989 51.3011 48.7909 50.4748 47.3805C50.1565 46.8374 50.1565 46.1626 50.4748 45.6195C51.3011 44.2091 52.2091 43.3011 53.6195 42.4748C54.1626 42.1565 54.8374 42.1565 55.3805 42.4748C56.7909 43.3011 57.6989 44.2091 58.5252 45.6195Z" fill="#F32851"/>
<path d="M25.5252 44.6195C25.8435 45.1626 25.8435 45.8374 25.5252 46.3805C24.6989 47.7909 23.7909 48.6989 22.3805 49.5252C21.8374 49.8435 21.1626 49.8435 20.6195 49.5252C19.2091 48.6989 18.3011 47.7909 17.4748 46.3805C17.1565 45.8374 17.1565 45.1626 17.4748 44.6195C18.3011 43.2091 19.2091 42.3011 20.6195 41.4748C21.1626 41.1565 21.8374 41.1565 22.3805 41.4748C23.7909 42.3011 24.6989 43.2091 25.5252 44.6195Z" fill="#F32851"/>
<path d="M8.52523 28.6195C8.84348 29.1626 8.84348 29.8374 8.52523 30.3805C7.69886 31.7909 6.79088 32.6989 5.38054 33.5252C4.83739 33.8435 4.16261 33.8435 3.61946 33.5252C2.20912 32.6989 1.30114 31.7909 0.474768 30.3805C0.15652 29.8374 0.15652 29.1626 0.474768 28.6195C1.30114 27.2091 2.20912 26.3011 3.61946 25.4748C4.16261 25.1565 4.83739 25.1565 5.38054 25.4748C6.79088 26.3011 7.69886 27.2091 8.52523 28.6195Z" fill="#F32851"/>
</svg>
