<svg width="56" height="106" viewBox="0 0 56 106" fill="none" xmlns="http://www.w3.org/2000/svg">
<rect x="0.5" y="21.5" width="51" height="84" rx="1.5" stroke="#535353"/>
<line y1="37.4999" x2="52" y2="37.4999" stroke="#535353"/>
<line y1="53.5" x2="52" y2="53.5" stroke="#535353"/>
<path d="M0 88H51" stroke="#535353"/>
<path d="M0 71H51.5" stroke="#535353"/>
<line x1="18.5" y1="21" x2="18.5" y2="106" stroke="#535353"/>
<path d="M35.5 21L35.5 106" stroke="#535353"/>
<path d="M8.80753 15V3.36364H15.8303V4.61364H10.2166V8.54545H15.4666V9.79545H10.2166V13.75H15.9212V15H8.80753ZM21.4837 15.1818C20.7564 15.1818 20.1143 14.9981 19.5575 14.6307C19.0007 14.2595 18.5651 13.7367 18.2507 13.0625C17.9363 12.3845 17.7791 11.5833 17.7791 10.6591C17.7791 9.74242 17.9363 8.94697 18.2507 8.27273C18.5651 7.59848 19.0026 7.07765 19.5632 6.71023C20.1238 6.3428 20.7715 6.15909 21.5064 6.15909C22.0746 6.15909 22.5234 6.25379 22.853 6.44318C23.1863 6.62879 23.4401 6.84091 23.6143 7.07955C23.7924 7.31439 23.9306 7.50758 24.0291 7.65909H24.1428V3.36364H25.4837V15H24.1882V13.6591H24.0291C23.9306 13.8182 23.7905 14.0189 23.6087 14.2614C23.4268 14.5 23.1674 14.714 22.8303 14.9034C22.4931 15.089 22.0443 15.1818 21.4837 15.1818ZM21.6655 13.9773C22.2034 13.9773 22.6579 13.8371 23.0291 13.5568C23.4003 13.2727 23.6825 12.8807 23.8757 12.3807C24.0689 11.8769 24.1655 11.2955 24.1655 10.6364C24.1655 9.98485 24.0708 9.41477 23.8814 8.92614C23.692 8.43371 23.4117 8.05114 23.0405 7.77841C22.6693 7.50189 22.2109 7.36364 21.6655 7.36364C21.0973 7.36364 20.6238 7.50947 20.245 7.80114C19.87 8.08902 19.5878 8.48106 19.3984 8.97727C19.2128 9.4697 19.12 10.0227 19.12 10.6364C19.12 11.2576 19.2147 11.822 19.4041 12.3295C19.5973 12.8333 19.8814 13.2348 20.2564 13.5341C20.6352 13.8295 21.1049 13.9773 21.6655 13.9773ZM28.1257 15V6.27273H29.4666V15H28.1257ZM28.8075 4.81818C28.5462 4.81818 28.3208 4.72917 28.1314 4.55114C27.9458 4.37311 27.853 4.15909 27.853 3.90909C27.853 3.65909 27.9458 3.44508 28.1314 3.26705C28.3208 3.08902 28.5462 3 28.8075 3C29.0689 3 29.2924 3.08902 29.478 3.26705C29.6674 3.44508 29.7621 3.65909 29.7621 3.90909C29.7621 4.15909 29.6674 4.37311 29.478 4.55114C29.2924 4.72917 29.0689 4.81818 28.8075 4.81818ZM31.9226 15V6.27273H33.218V7.63636H33.3317C33.5135 7.17045 33.8071 6.80871 34.2124 6.55114C34.6177 6.28977 35.1044 6.15909 35.6726 6.15909C36.2483 6.15909 36.7275 6.28977 37.1101 6.55114C37.4964 6.80871 37.7976 7.17045 38.0135 7.63636H38.1044C38.3279 7.18561 38.6631 6.82765 39.1101 6.5625C39.5571 6.29356 40.093 6.15909 40.718 6.15909C41.4983 6.15909 42.1366 6.40341 42.6328 6.89205C43.129 7.37689 43.3771 8.13258 43.3771 9.15909V15H42.0362V9.15909C42.0362 8.51515 41.8601 8.05492 41.5078 7.77841C41.1555 7.50189 40.7408 7.36364 40.2635 7.36364C39.6499 7.36364 39.1745 7.54924 38.8374 7.92045C38.5002 8.28788 38.3317 8.75379 38.3317 9.31818V15H36.968V9.02273C36.968 8.52652 36.8071 8.12689 36.4851 7.82386C36.1631 7.51705 35.7483 7.36364 35.2408 7.36364C34.8923 7.36364 34.5665 7.45644 34.2635 7.64205C33.9643 7.82765 33.7218 8.08523 33.5362 8.41477C33.3544 8.74053 33.2635 9.11742 33.2635 9.54545V15H31.9226Z" fill="#F32851"/>
<path d="M55.5252 28.6195C55.8435 29.1626 55.8435 29.8374 55.5252 30.3805C54.6989 31.7909 53.7909 32.6989 52.3805 33.5252C51.8374 33.8435 51.1626 33.8435 50.6195 33.5252C49.2091 32.6989 48.3011 31.7909 47.4748 30.3805C47.1565 29.8374 47.1565 29.1626 47.4748 28.6195C48.3011 27.2091 49.2091 26.3011 50.6195 25.4748C51.1626 25.1565 51.8374 25.1565 52.3805 25.4748C53.7909 26.3011 54.6989 27.2091 55.5252 28.6195Z" fill="#F32851"/>
<path d="M22.5252 78.6195C22.8435 79.1626 22.8435 79.8374 22.5252 80.3805C21.6989 81.7909 20.7909 82.6989 19.3805 83.5252C18.8374 83.8435 18.1626 83.8435 17.6195 83.5252C16.2091 82.6989 15.3011 81.7909 14.4748 80.3805C14.1565 79.8374 14.1565 79.1626 14.4748 78.6195C15.3011 77.2091 16.2091 76.3011 17.6195 75.4748C18.1626 75.1565 18.8374 75.1565 19.3805 75.4748C20.7909 76.3011 21.6989 77.2091 22.5252 78.6195Z" fill="#F32851"/>
</svg>
