<svg width="56" height="106" viewBox="0 0 56 106" fill="none" xmlns="http://www.w3.org/2000/svg">
<rect x="0.5" y="21.5" width="51" height="84" rx="1.5" stroke="#535353"/>
<line y1="37.4999" x2="52" y2="37.4999" stroke="#535353"/>
<line y1="53.5" x2="52" y2="53.5" stroke="#535353"/>
<path d="M0 88H51" stroke="#535353"/>
<path d="M0 71H51.5" stroke="#535353"/>
<line x1="18.5" y1="21" x2="18.5" y2="106" stroke="#535353"/>
<path d="M35.5 21L35.5 106" stroke="#535353"/>
<path d="M15.6747 15V3.36364H22.6974V4.61364H17.0838V8.54545H22.3338V9.79545H17.0838V13.75H22.7884V15H15.6747ZM25.0554 15V6.27273H26.3509V7.63636H26.4645C26.6463 7.17045 26.9399 6.80871 27.3452 6.55114C27.7505 6.28977 28.2372 6.15909 28.8054 6.15909C29.3812 6.15909 29.8603 6.28977 30.2429 6.55114C30.6293 6.80871 30.9304 7.17045 31.1463 7.63636H31.2372C31.4607 7.18561 31.7959 6.82765 32.2429 6.5625C32.6899 6.29356 33.2259 6.15909 33.8509 6.15909C34.6312 6.15909 35.2694 6.40341 35.7656 6.89205C36.2618 7.37689 36.5099 8.13258 36.5099 9.15909V15H35.169V9.15909C35.169 8.51515 34.9929 8.05492 34.6406 7.77841C34.2884 7.50189 33.8736 7.36364 33.3963 7.36364C32.7827 7.36364 32.3073 7.54924 31.9702 7.92045C31.633 8.28788 31.4645 8.75379 31.4645 9.31818V15H30.1009V9.02273C30.1009 8.52652 29.9399 8.12689 29.6179 7.82386C29.2959 7.51705 28.8812 7.36364 28.3736 7.36364C28.0251 7.36364 27.6993 7.45644 27.3963 7.64205C27.0971 7.82765 26.8546 8.08523 26.669 8.41477C26.4872 8.74053 26.3963 9.11742 26.3963 9.54545V15H25.0554Z" fill="#F32851"/>
<path d="M22.5252 78.6195C22.8435 79.1626 22.8435 79.8374 22.5252 80.3805C21.6989 81.7909 20.7909 82.6989 19.3805 83.5252C18.8374 83.8435 18.1626 83.8435 17.6195 83.5252C16.2091 82.6989 15.3011 81.7909 14.4748 80.3805C14.1565 79.8374 14.1565 79.1626 14.4748 78.6195C15.3011 77.2091 16.2091 76.3011 17.6195 75.4748C18.1626 75.1565 18.8374 75.1565 19.3805 75.4748C20.7909 76.3011 21.6989 77.2091 22.5252 78.6195Z" fill="#F32851"/>
<path d="M39.5252 61.6195C39.8435 62.1626 39.8435 62.8374 39.5252 63.3805C38.6989 64.7909 37.7909 65.6989 36.3805 66.5252C35.8374 66.8435 35.1626 66.8435 34.6195 66.5252C33.2091 65.6989 32.3011 64.7909 31.4748 63.3805C31.1565 62.8374 31.1565 62.1626 31.4748 61.6195C32.3011 60.2091 33.2091 59.3011 34.6195 58.4748C35.1626 58.1565 35.8374 58.1565 36.3805 58.4748C37.7909 59.3011 38.6989 60.2091 39.5252 61.6195Z" fill="#F32851"/>
<path d="M55.5252 44.6195C55.8435 45.1626 55.8435 45.8374 55.5252 46.3805C54.6989 47.7909 53.7909 48.6989 52.3805 49.5252C51.8374 49.8435 51.1626 49.8435 50.6195 49.5252C49.2091 48.6989 48.3011 47.7909 47.4748 46.3805C47.1565 45.8374 47.1565 45.1626 47.4748 44.6195C48.3011 43.2091 49.2091 42.3011 50.6195 41.4748C51.1626 41.1565 51.8374 41.1565 52.3805 41.4748C53.7909 42.3011 54.6989 43.2091 55.5252 44.6195Z" fill="#F32851"/>
</svg>
