<svg width="60" height="106" viewBox="0 0 60 106" fill="none" xmlns="http://www.w3.org/2000/svg">
<rect x="4.5" y="21.5" width="51" height="84" rx="1.5" stroke="#535353"/>
<line x1="4" y1="37.4999" x2="56" y2="37.4999" stroke="#535353"/>
<line x1="4" y1="53.5" x2="56" y2="53.5" stroke="#535353"/>
<path d="M4 88H55" stroke="#535353"/>
<path d="M4 71H55.5" stroke="#535353"/>
<line x1="22.5" y1="21" x2="22.5" y2="106" stroke="#535353"/>
<path d="M39.5 21L39.5 106" stroke="#535353"/>
<path d="M8.69815 15V3.36364H15.7209V4.61364H10.1072V8.54545H15.3572V9.79545H10.1072V13.75H15.8118V15H8.69815ZM18.0788 15V6.27273H19.3743V7.63636H19.4879C19.6697 7.17045 19.9633 6.80871 20.3686 6.55114C20.7739 6.28977 21.2607 6.15909 21.8288 6.15909C22.4046 6.15909 22.8838 6.28977 23.2663 6.55114C23.6527 6.80871 23.9538 7.17045 24.1697 7.63636H24.2607C24.4841 7.18561 24.8194 6.82765 25.2663 6.5625C25.7133 6.29356 26.2493 6.15909 26.8743 6.15909C27.6546 6.15909 28.2929 6.40341 28.7891 6.89205C29.2853 7.37689 29.5334 8.13258 29.5334 9.15909V15H28.1925V9.15909C28.1925 8.51515 28.0163 8.05492 27.6641 7.77841C27.3118 7.50189 26.897 7.36364 26.4197 7.36364C25.8061 7.36364 25.3307 7.54924 24.9936 7.92045C24.6565 8.28788 24.4879 8.75379 24.4879 9.31818V15H23.1243V9.02273C23.1243 8.52652 22.9633 8.12689 22.6413 7.82386C22.3194 7.51705 21.9046 7.36364 21.397 7.36364C21.0485 7.36364 20.7228 7.45644 20.4197 7.64205C20.1205 7.82765 19.8781 8.08523 19.6925 8.41477C19.5107 8.74053 19.4197 9.11742 19.4197 9.54545V15H18.0788ZM34.5533 15.2045C34.0002 15.2045 33.4983 15.1004 33.0476 14.892C32.5968 14.6799 32.2389 14.375 31.9737 13.9773C31.7086 13.5758 31.576 13.0909 31.576 12.5227C31.576 12.0227 31.6745 11.6174 31.8714 11.3068C32.0684 10.9924 32.3317 10.7462 32.6612 10.5682C32.9908 10.3902 33.3544 10.2576 33.7521 10.1705C34.1536 10.0795 34.5571 10.0076 34.9624 9.95455C35.4927 9.88636 35.9226 9.83523 36.2521 9.80114C36.5855 9.76326 36.8279 9.70076 36.9794 9.61364C37.1347 9.52652 37.2124 9.375 37.2124 9.15909V9.11364C37.2124 8.55303 37.0589 8.11742 36.7521 7.80682C36.4491 7.49621 35.9889 7.34091 35.3714 7.34091C34.7313 7.34091 34.2294 7.48106 33.8658 7.76136C33.5021 8.04167 33.2464 8.34091 33.0987 8.65909L31.826 8.20455C32.0533 7.67424 32.3563 7.26136 32.7351 6.96591C33.1177 6.66667 33.5343 6.45833 33.9851 6.34091C34.4396 6.2197 34.8866 6.15909 35.326 6.15909C35.6063 6.15909 35.9283 6.19318 36.2919 6.26136C36.6593 6.32576 37.0135 6.46023 37.3544 6.66477C37.6991 6.86932 37.9851 7.17803 38.2124 7.59091C38.4396 8.00379 38.5533 8.55682 38.5533 9.25V15H37.2124V13.8182H37.1442C37.0533 14.0076 36.9018 14.2102 36.6896 14.4261C36.4775 14.642 36.1953 14.8258 35.843 14.9773C35.4908 15.1288 35.0608 15.2045 34.5533 15.2045ZM34.7578 14C35.2881 14 35.7351 13.8958 36.0987 13.6875C36.4661 13.4792 36.7427 13.2102 36.9283 12.8807C37.1177 12.5511 37.2124 12.2045 37.2124 11.8409V10.6136C37.1555 10.6818 37.0305 10.7443 36.8374 10.8011C36.648 10.8542 36.4283 10.9015 36.1783 10.9432C35.9321 10.9811 35.6915 11.0152 35.4567 11.0455C35.2256 11.072 35.0381 11.0947 34.8942 11.1136C34.5457 11.1591 34.2199 11.233 33.9169 11.3352C33.6177 11.4337 33.3752 11.5833 33.1896 11.7841C33.0078 11.9811 32.9169 12.25 32.9169 12.5909C32.9169 13.0568 33.0893 13.4091 33.4339 13.6477C33.7824 13.8826 34.2237 14 34.7578 14ZM41.0007 6.27273H42.3416V15.6364C42.3416 16.1742 42.2488 16.6402 42.0632 17.0341C41.8814 17.428 41.6049 17.733 41.2337 17.9489C40.8662 18.1648 40.4022 18.2727 39.8416 18.2727C39.7962 18.2727 39.7507 18.2727 39.7053 18.2727C39.6598 18.2727 39.6143 18.2727 39.5689 18.2727V17.0227C39.6143 17.0227 39.656 17.0227 39.6939 17.0227C39.7318 17.0227 39.7734 17.0227 39.8189 17.0227C40.228 17.0227 40.5272 16.9015 40.7166 16.6591C40.906 16.4205 41.0007 16.0795 41.0007 15.6364V6.27273ZM41.6598 4.81818C41.3984 4.81818 41.1731 4.72917 40.9837 4.55114C40.7981 4.37311 40.7053 4.15909 40.7053 3.90909C40.7053 3.65909 40.7981 3.44508 40.9837 3.26705C41.1731 3.08902 41.3984 3 41.6598 3C41.9212 3 42.1446 3.08902 42.3303 3.26705C42.5196 3.44508 42.6143 3.65909 42.6143 3.90909C42.6143 4.15909 42.5196 4.37311 42.3303 4.55114C42.1446 4.72917 41.9212 4.81818 41.6598 4.81818ZM45.1385 15L50.343 4.70455V4.61364H44.343V3.36364H51.7976V4.68182L46.6158 15H45.1385Z" fill="#F32851"/>
<path d="M26.5252 62.6195C26.8435 63.1626 26.8435 63.8374 26.5252 64.3805C25.6989 65.7909 24.7909 66.6989 23.3805 67.5252C22.8374 67.8435 22.1626 67.8435 21.6195 67.5252C20.2091 66.6989 19.3011 65.7909 18.4748 64.3805C18.1565 63.8374 18.1565 63.1626 18.4748 62.6195C19.3011 61.2091 20.2091 60.3011 21.6195 59.4748C22.1626 59.1565 22.8374 59.1565 23.3805 59.4748C24.7909 60.3011 25.6989 61.2091 26.5252 62.6195Z" fill="#F32851"/>
<path d="M59.5252 44.6195C59.8435 45.1626 59.8435 45.8374 59.5252 46.3805C58.6989 47.7909 57.7909 48.6989 56.3805 49.5252C55.8374 49.8435 55.1626 49.8435 54.6195 49.5252C53.2091 48.6989 52.3011 47.7909 51.4748 46.3805C51.1565 45.8374 51.1565 45.1626 51.4748 44.6195C52.3011 43.2091 53.2091 42.3011 54.6195 41.4748C55.1626 41.1565 55.8374 41.1565 56.3805 41.4748C57.7909 42.3011 58.6989 43.2091 59.5252 44.6195Z" fill="#F32851"/>
<path d="M8.52523 27.6195C8.84348 28.1626 8.84348 28.8374 8.52523 29.3805C7.69886 30.7909 6.79088 31.6989 5.38054 32.5252C4.83739 32.8435 4.16261 32.8435 3.61946 32.5252C2.20912 31.6989 1.30114 30.7909 0.474768 29.3805C0.15652 28.8374 0.15652 28.1626 0.474768 27.6195C1.30114 26.2091 2.20912 25.3011 3.61946 24.4748C4.16261 24.1565 4.83739 24.1565 5.38054 24.4748C6.79088 25.3011 7.69886 26.2091 8.52523 27.6195Z" fill="#F32851"/>
</svg>
