<svg width="60" height="106" viewBox="0 0 60 106" fill="none" xmlns="http://www.w3.org/2000/svg">
<rect x="4.5" y="21.5" width="51" height="84" rx="1.5" stroke="#535353"/>
<line x1="4" y1="37.4999" x2="56" y2="37.4999" stroke="#535353"/>
<line x1="4" y1="53.5" x2="56" y2="53.5" stroke="#535353"/>
<path d="M4 88H55" stroke="#535353"/>
<path d="M4 71H55.5" stroke="#535353"/>
<line x1="22.5" y1="21" x2="22.5" y2="106" stroke="#535353"/>
<path d="M39.5 21L39.5 106" stroke="#535353"/>
<path d="M8.48722 15V3.36364H15.5099V4.61364H9.89631V8.54545H15.1463V9.79545H9.89631V13.75H15.6009V15H8.48722ZM24.0497 8.22727L22.8452 8.56818C22.7694 8.36742 22.6577 8.17235 22.5099 7.98295C22.366 7.78977 22.169 7.63068 21.919 7.50568C21.669 7.38068 21.349 7.31818 20.9588 7.31818C20.4247 7.31818 19.9796 7.44129 19.6236 7.6875C19.2713 7.92992 19.0952 8.23864 19.0952 8.61364C19.0952 8.94697 19.2164 9.21023 19.4588 9.40341C19.7012 9.59659 20.08 9.75758 20.5952 9.88636L21.8906 10.2045C22.6709 10.3939 23.2524 10.6837 23.6349 11.0739C24.0175 11.4602 24.2088 11.9583 24.2088 12.5682C24.2088 13.0682 24.0649 13.5152 23.777 13.9091C23.4929 14.303 23.0952 14.6136 22.5838 14.8409C22.0724 15.0682 21.4777 15.1818 20.7997 15.1818C19.9096 15.1818 19.1728 14.9886 18.5895 14.6023C18.0062 14.2159 17.6368 13.6515 17.4815 12.9091L18.7543 12.5909C18.8755 13.0606 19.1046 13.4129 19.4418 13.6477C19.7827 13.8826 20.2277 14 20.777 14C21.402 14 21.8982 13.8674 22.2656 13.6023C22.6368 13.3333 22.8224 13.0114 22.8224 12.6364C22.8224 12.3333 22.7164 12.0795 22.5043 11.875C22.2921 11.6667 21.9664 11.5114 21.527 11.4091L20.0724 11.0682C19.2732 10.8788 18.6861 10.5852 18.3111 10.1875C17.9399 9.78598 17.7543 9.28409 17.7543 8.68182C17.7543 8.18939 17.8925 7.75379 18.169 7.375C18.4493 6.99621 18.83 6.69886 19.3111 6.48295C19.7959 6.26705 20.3452 6.15909 20.9588 6.15909C21.8224 6.15909 22.5005 6.34848 22.9929 6.72727C23.4891 7.10606 23.8414 7.60606 24.0497 8.22727ZM31.7273 11.4318V6.27273H33.0682V15H31.7273V13.5227H31.6364C31.4318 13.9659 31.1136 14.3428 30.6818 14.6534C30.25 14.9602 29.7045 15.1136 29.0455 15.1136C28.5 15.1136 28.0152 14.9943 27.5909 14.7557C27.1667 14.5133 26.8333 14.1496 26.5909 13.6648C26.3485 13.1761 26.2273 12.5606 26.2273 11.8182V6.27273H27.5682V11.7273C27.5682 12.3636 27.7462 12.8712 28.1023 13.25C28.4621 13.6288 28.9205 13.8182 29.4773 13.8182C29.8106 13.8182 30.1496 13.733 30.4943 13.5625C30.8428 13.392 31.1345 13.1307 31.3693 12.7784C31.608 12.4261 31.7273 11.9773 31.7273 11.4318ZM41.706 8.22727L40.5014 8.56818C40.4257 8.36742 40.3139 8.17235 40.1662 7.98295C40.0223 7.78977 39.8253 7.63068 39.5753 7.50568C39.3253 7.38068 39.0052 7.31818 38.6151 7.31818C38.081 7.31818 37.6359 7.44129 37.2798 7.6875C36.9276 7.92992 36.7514 8.23864 36.7514 8.61364C36.7514 8.94697 36.8726 9.21023 37.1151 9.40341C37.3575 9.59659 37.7363 9.75758 38.2514 9.88636L39.5469 10.2045C40.3272 10.3939 40.9086 10.6837 41.2912 11.0739C41.6738 11.4602 41.8651 11.9583 41.8651 12.5682C41.8651 13.0682 41.7211 13.5152 41.4332 13.9091C41.1491 14.303 40.7514 14.6136 40.2401 14.8409C39.7287 15.0682 39.134 15.1818 38.456 15.1818C37.5658 15.1818 36.8291 14.9886 36.2457 14.6023C35.6624 14.2159 35.2931 13.6515 35.1378 12.9091L36.4105 12.5909C36.5317 13.0606 36.7609 13.4129 37.098 13.6477C37.4389 13.8826 37.884 14 38.4332 14C39.0582 14 39.5545 13.8674 39.9219 13.6023C40.2931 13.3333 40.4787 13.0114 40.4787 12.6364C40.4787 12.3333 40.3726 12.0795 40.1605 11.875C39.9484 11.6667 39.6226 11.5114 39.1832 11.4091L37.7287 11.0682C36.9295 10.8788 36.3423 10.5852 35.9673 10.1875C35.5961 9.78598 35.4105 9.28409 35.4105 8.68182C35.4105 8.18939 35.5488 7.75379 35.8253 7.375C36.1056 6.99621 36.4863 6.69886 36.9673 6.48295C37.4522 6.26705 38.0014 6.15909 38.6151 6.15909C39.4787 6.15909 40.1567 6.34848 40.6491 6.72727C41.1454 7.10606 41.4976 7.60606 41.706 8.22727ZM43.5881 12.6136V11.4545L48.7017 3.36364H49.5426V5.15909H48.9744L45.1108 11.2727V11.3636H51.9972V12.6136H43.5881ZM49.0653 15V12.2614V11.7216V3.36364H50.4062V15H49.0653Z" fill="#F32851"/>
<path d="M26.5252 78.6195C26.8435 79.1626 26.8435 79.8374 26.5252 80.3805C25.6989 81.7909 24.7909 82.6989 23.3805 83.5252C22.8374 83.8435 22.1626 83.8435 21.6195 83.5252C20.2091 82.6989 19.3011 81.7909 18.4748 80.3805C18.1565 79.8374 18.1565 79.1626 18.4748 78.6195C19.3011 77.2091 20.2091 76.3011 21.6195 75.4748C22.1626 75.1565 22.8374 75.1565 23.3805 75.4748C24.7909 76.3011 25.6989 77.2091 26.5252 78.6195Z" fill="#F32851"/>
<path d="M59.5252 44.6195C59.8435 45.1626 59.8435 45.8374 59.5252 46.3805C58.6989 47.7909 57.7909 48.6989 56.3805 49.5252C55.8374 49.8435 55.1626 49.8435 54.6195 49.5252C53.2091 48.6989 52.3011 47.7909 51.4748 46.3805C51.1565 45.8374 51.1565 45.1626 51.4748 44.6195C52.3011 43.2091 53.2091 42.3011 54.6195 41.4748C55.1626 41.1565 55.8374 41.1565 56.3805 41.4748C57.7909 42.3011 58.6989 43.2091 59.5252 44.6195Z" fill="#F32851"/>
<path d="M8.52523 44.6195C8.84348 45.1626 8.84348 45.8374 8.52523 46.3805C7.69886 47.7909 6.79088 48.6989 5.38054 49.5252C4.83739 49.8435 4.16261 49.8435 3.61946 49.5252C2.20912 48.6989 1.30114 47.7909 0.474768 46.3805C0.15652 45.8374 0.15652 45.1626 0.474768 44.6195C1.30114 43.2091 2.20912 42.3011 3.61946 41.4748C4.16261 41.1565 4.83739 41.1565 5.38054 41.4748C6.79088 42.3011 7.69886 43.2091 8.52523 44.6195Z" fill="#F32851"/>
</svg>
