<svg width="60" height="106" viewBox="0 0 60 106" fill="none" xmlns="http://www.w3.org/2000/svg">
<rect x="4.5" y="21.5" width="51" height="84" rx="1.5" stroke="#535353"/>
<line x1="4" y1="37.4999" x2="56" y2="37.4999" stroke="#535353"/>
<line x1="4" y1="53.5" x2="56" y2="53.5" stroke="#535353"/>
<path d="M4 88H55" stroke="#535353"/>
<path d="M4 71H55.5" stroke="#535353"/>
<line x1="22.5" y1="21" x2="22.5" y2="106" stroke="#535353"/>
<path d="M39.5 21L39.5 106" stroke="#535353"/>
<path d="M21.8466 15V3.36364H28.8239V4.61364H23.2557V8.54545H28.3011V9.79545H23.2557V15H21.8466ZM34.669 15.1591C34.0024 15.1591 33.402 15.0265 32.8679 14.7614C32.3338 14.4962 31.9058 14.1326 31.5838 13.6705C31.2618 13.2083 31.0857 12.6818 31.0554 12.0909H32.419C32.4721 12.6174 32.7107 13.053 33.1349 13.3977C33.563 13.7386 34.0743 13.9091 34.669 13.9091C35.1463 13.9091 35.5705 13.7973 35.9418 13.5739C36.3168 13.3504 36.6103 13.0436 36.8224 12.6534C37.0384 12.2595 37.1463 11.8144 37.1463 11.3182C37.1463 10.8106 37.0346 10.358 36.8111 9.96023C36.5914 9.55871 36.2884 9.24242 35.902 9.01136C35.5156 8.7803 35.0743 8.66288 34.5781 8.65909C34.2221 8.6553 33.8565 8.71023 33.4815 8.82386C33.1065 8.93371 32.7978 9.07576 32.5554 9.25L31.2372 9.09091L31.9418 3.36364H37.9872V4.61364H33.1236L32.7145 8.04545H32.7827C33.0213 7.85606 33.3205 7.69886 33.6804 7.57386C34.0402 7.44886 34.4152 7.38636 34.8054 7.38636C35.5175 7.38636 36.152 7.55682 36.7088 7.89773C37.2694 8.23485 37.7088 8.69697 38.027 9.28409C38.349 9.87121 38.5099 10.5417 38.5099 11.2955C38.5099 12.0379 38.3433 12.7008 38.0099 13.2841C37.6804 13.8636 37.2259 14.322 36.6463 14.6591C36.0668 14.9924 35.4077 15.1591 34.669 15.1591Z" fill="#F32851"/>
<path d="M8.52523 44.6195C8.84348 45.1626 8.84348 45.8374 8.52523 46.3805C7.69886 47.7909 6.79088 48.6989 5.38054 49.5252C4.83739 49.8435 4.16261 49.8435 3.61946 49.5252C2.20912 48.6989 1.30114 47.7909 0.474768 46.3805C0.15652 45.8374 0.15652 45.1626 0.474768 44.6195C1.30114 43.2091 2.20912 42.3011 3.61946 41.4748C4.16261 41.1565 4.83739 41.1565 5.38054 41.4748C6.79088 42.3011 7.69886 43.2091 8.52523 44.6195Z" fill="#F32851"/>
<path d="M59.5252 95.6195C59.8435 96.1626 59.8435 96.8374 59.5252 97.3805C58.6989 98.7909 57.7909 99.6989 56.3805 100.525C55.8374 100.843 55.1626 100.843 54.6195 100.525C53.2091 99.6989 52.3011 98.7909 51.4748 97.3805C51.1565 96.8374 51.1565 96.1626 51.4748 95.6195C52.3011 94.2091 53.2091 93.3011 54.6195 92.4748C55.1626 92.1565 55.8374 92.1565 56.3805 92.4748C57.7909 93.3011 58.6989 94.2091 59.5252 95.6195Z" fill="#F32851"/>
<path d="M43.5252 95.6195C43.8435 96.1626 43.8435 96.8374 43.5252 97.3805C42.6989 98.7909 41.7909 99.6989 40.3805 100.525C39.8374 100.843 39.1626 100.843 38.6195 100.525C37.2091 99.6989 36.3011 98.7909 35.4748 97.3805C35.1565 96.8374 35.1565 96.1626 35.4748 95.6195C36.3011 94.2091 37.2091 93.3011 38.6195 92.4748C39.1626 92.1565 39.8374 92.1565 40.3805 92.4748C41.7909 93.3011 42.6989 94.2091 43.5252 95.6195Z" fill="#F32851"/>
<path d="M30.9737 35.1591C30.3071 35.1591 29.7067 35.0265 29.1726 34.7614C28.6385 34.4962 28.2105 34.1326 27.8885 33.6705C27.5665 33.2083 27.3904 32.6818 27.3601 32.0909H28.7237C28.7768 32.6174 29.0154 33.053 29.4396 33.3977C29.8677 33.7386 30.379 33.9091 30.9737 33.9091C31.451 33.9091 31.8752 33.7973 32.2464 33.5739C32.6214 33.3504 32.915 33.0436 33.1271 32.6534C33.343 32.2595 33.451 31.8144 33.451 31.3182C33.451 30.8106 33.3393 30.358 33.1158 29.9602C32.8961 29.5587 32.593 29.2424 32.2067 29.0114C31.8203 28.7803 31.379 28.6629 30.8828 28.6591C30.5268 28.6553 30.1612 28.7102 29.7862 28.8239C29.4112 28.9337 29.1025 29.0758 28.8601 29.25L27.5419 29.0909L28.2464 23.3636H34.2919V24.6136H29.4283L29.0192 28.0455H29.0874C29.326 27.8561 29.6252 27.6989 29.9851 27.5739C30.3449 27.4489 30.7199 27.3864 31.1101 27.3864C31.8222 27.3864 32.4567 27.5568 33.0135 27.8977C33.5741 28.2348 34.0135 28.697 34.3317 29.2841C34.6536 29.8712 34.8146 30.5417 34.8146 31.2955C34.8146 32.0379 34.648 32.7008 34.3146 33.2841C33.9851 33.8636 33.5305 34.322 32.951 34.6591C32.3714 34.9924 31.7124 35.1591 30.9737 35.1591Z" fill="#780000"/>
</svg>
