<svg width="60" height="106" viewBox="0 0 60 106" fill="none" xmlns="http://www.w3.org/2000/svg">
<rect x="4.5" y="21.5" width="51" height="84" rx="1.5" stroke="#535353"/>
<line x1="4" y1="37.4999" x2="56" y2="37.4999" stroke="#535353"/>
<line x1="4" y1="53.5" x2="56" y2="53.5" stroke="#535353"/>
<path d="M4 88H55" stroke="#535353"/>
<path d="M4 71H55.5" stroke="#535353"/>
<line x1="22.5" y1="21" x2="22.5" y2="106" stroke="#535353"/>
<path d="M39.5 21L39.5 106" stroke="#535353"/>
<path d="M21.7216 15V3.36364H28.6989V4.61364H23.1307V8.54545H28.1761V9.79545H23.1307V15H21.7216ZM34.7713 15.1591C34.294 15.1515 33.8168 15.0606 33.3395 14.8864C32.8622 14.7121 32.4266 14.4186 32.0327 14.0057C31.6387 13.589 31.3224 13.0265 31.0838 12.3182C30.8452 11.6061 30.7259 10.7121 30.7259 9.63636C30.7259 8.60606 30.8224 7.69318 31.0156 6.89773C31.2088 6.09848 31.4891 5.42614 31.8565 4.88068C32.224 4.33144 32.6671 3.91477 33.1861 3.63068C33.7088 3.34659 34.2978 3.20455 34.9531 3.20455C35.6046 3.20455 36.1842 3.33523 36.6918 3.59659C37.2031 3.85417 37.6198 4.21401 37.9418 4.67614C38.2637 5.13826 38.4721 5.67045 38.5668 6.27273H37.1804C37.0516 5.75 36.8016 5.31629 36.4304 4.97159C36.0592 4.62689 35.5668 4.45455 34.9531 4.45455C34.0516 4.45455 33.3414 4.84659 32.8224 5.63068C32.3073 6.41477 32.0478 7.51515 32.044 8.93182H32.1349C32.3471 8.60985 32.599 8.33523 32.8906 8.10795C33.1861 7.87689 33.5118 7.69886 33.8679 7.57386C34.224 7.44886 34.6009 7.38636 34.9986 7.38636C35.6652 7.38636 36.2751 7.55303 36.8281 7.88636C37.3812 8.21591 37.8243 8.67235 38.1577 9.25568C38.491 9.83523 38.6577 10.5 38.6577 11.25C38.6577 11.9697 38.4967 12.6288 38.1747 13.2273C37.8527 13.822 37.4001 14.2955 36.8168 14.6477C36.2372 14.9962 35.5554 15.1667 34.7713 15.1591ZM34.7713 13.9091C35.2486 13.9091 35.6766 13.7898 36.0554 13.5511C36.438 13.3125 36.7391 12.9924 36.9588 12.5909C37.1823 12.1894 37.294 11.7424 37.294 11.25C37.294 10.7689 37.1861 10.3314 36.9702 9.9375C36.758 9.53977 36.4645 9.22348 36.0895 8.98864C35.7183 8.75379 35.294 8.63636 34.8168 8.63636C34.4569 8.63636 34.1217 8.70833 33.8111 8.85227C33.5005 8.99242 33.2277 9.18561 32.9929 9.43182C32.7618 9.67803 32.58 9.96023 32.4474 10.2784C32.3149 10.5928 32.2486 10.9242 32.2486 11.2727C32.2486 11.7348 32.3565 12.1667 32.5724 12.5682C32.7921 12.9697 33.0914 13.2936 33.4702 13.5398C33.8527 13.786 34.2865 13.9091 34.7713 13.9091Z" fill="#F32851"/>
<path d="M43.5252 28.6195C43.8435 29.1626 43.8435 29.8374 43.5252 30.3805C42.6989 31.7909 41.7909 32.6989 40.3805 33.5252C39.8374 33.8435 39.1626 33.8435 38.6195 33.5252C37.2091 32.6989 36.3011 31.7909 35.4748 30.3805C35.1565 29.8374 35.1565 29.1626 35.4748 28.6195C36.3011 27.2091 37.2091 26.3011 38.6195 25.4748C39.1626 25.1565 39.8374 25.1565 40.3805 25.4748C41.7909 26.3011 42.6989 27.2091 43.5252 28.6195Z" fill="#F32851"/>
<path d="M59.5252 96.6195C59.8435 97.1626 59.8435 97.8374 59.5252 98.3805C58.6989 99.7909 57.7909 100.699 56.3805 101.525C55.8374 101.843 55.1626 101.843 54.6195 101.525C53.2091 100.699 52.3011 99.7909 51.4748 98.3805C51.1565 97.8374 51.1565 97.1626 51.4748 96.6195C52.3011 95.2091 53.2091 94.3011 54.6195 93.4748C55.1626 93.1565 55.8374 93.1565 56.3805 93.4748C57.7909 94.3011 58.6989 95.2091 59.5252 96.6195Z" fill="#F32851"/>
<path d="M8.52523 44.6195C8.84348 45.1626 8.84348 45.8374 8.52523 46.3805C7.69886 47.7909 6.79088 48.6989 5.38054 49.5252C4.83739 49.8435 4.16261 49.8435 3.61946 49.5252C2.20912 48.6989 1.30114 47.7909 0.474768 46.3805C0.15652 45.8374 0.15652 45.1626 0.474768 44.6195C1.30114 43.2091 2.20912 42.3011 3.61946 41.4748C4.16261 41.1565 4.83739 41.1565 5.38054 41.4748C6.79088 42.3011 7.69886 43.2091 8.52523 44.6195Z" fill="#F32851"/>
</svg>
