<svg width="60" height="106" viewBox="0 0 60 106" fill="none" xmlns="http://www.w3.org/2000/svg">
<rect x="4.5" y="21.5" width="51" height="84" rx="1.5" stroke="#535353"/>
<line x1="4" y1="37.4999" x2="56" y2="37.4999" stroke="#535353"/>
<line x1="4" y1="53.5" x2="56" y2="53.5" stroke="#535353"/>
<path d="M4 88H55" stroke="#535353"/>
<path d="M4 71H55.5" stroke="#535353"/>
<line x1="22.5" y1="21" x2="22.5" y2="106" stroke="#535353"/>
<path d="M39.5 21L39.5 106" stroke="#535353"/>
<path d="M22.1435 15V3.36364H29.1207V4.61364H23.5526V8.54545H28.598V9.79545H23.5526V15H22.1435ZM31.6932 15L36.8977 4.70455V4.61364H30.8977V3.36364H38.3523V4.68182L33.1705 15H31.6932Z" fill="#F32851"/>
<path d="M59.5252 61.6195C59.8435 62.1626 59.8435 62.8374 59.5252 63.3805C58.6989 64.7909 57.7909 65.6989 56.3805 66.5252C55.8374 66.8435 55.1626 66.8435 54.6195 66.5252C53.2091 65.6989 52.3011 64.7909 51.4748 63.3805C51.1565 62.8374 51.1565 62.1626 51.4748 61.6195C52.3011 60.2091 53.2091 59.3011 54.6195 58.4748C55.1626 58.1565 55.8374 58.1565 56.3805 58.4748C57.7909 59.3011 58.6989 60.2091 59.5252 61.6195Z" fill="#F32851"/>
<path d="M43.5252 28.6195C43.8435 29.1626 43.8435 29.8374 43.5252 30.3805C42.6989 31.7909 41.7909 32.6989 40.3805 33.5252C39.8374 33.8435 39.1626 33.8435 38.6195 33.5252C37.2091 32.6989 36.3011 31.7909 35.4748 30.3805C35.1565 29.8374 35.1565 29.1626 35.4748 28.6195C36.3011 27.2091 37.2091 26.3011 38.6195 25.4748C39.1626 25.1565 39.8374 25.1565 40.3805 25.4748C41.7909 26.3011 42.6989 27.2091 43.5252 28.6195Z" fill="#F32851"/>
<path d="M8.52523 44.6195C8.84348 45.1626 8.84348 45.8374 8.52523 46.3805C7.69886 47.7909 6.79088 48.6989 5.38054 49.5252C4.83739 49.8435 4.16261 49.8435 3.61946 49.5252C2.20912 48.6989 1.30114 47.7909 0.474768 46.3805C0.15652 45.8374 0.15652 45.1626 0.474768 44.6195C1.30114 43.2091 2.20912 42.3011 3.61946 41.4748C4.16261 41.1565 4.83739 41.1565 5.38054 41.4748C6.79088 42.3011 7.69886 43.2091 8.52523 44.6195Z" fill="#F32851"/>
<path d="M26.5252 61.6195C26.8435 62.1626 26.8435 62.8374 26.5252 63.3805C25.6989 64.7909 24.7909 65.6989 23.3805 66.5252C22.8374 66.8435 22.1626 66.8435 21.6195 66.5252C20.2091 65.6989 19.3011 64.7909 18.4748 63.3805C18.1565 62.8374 18.1565 62.1626 18.4748 61.6195C19.3011 60.2091 20.2091 59.3011 21.6195 58.4748C22.1626 58.1565 22.8374 58.1565 23.3805 58.4748C24.7909 59.3011 25.6989 60.2091 26.5252 61.6195Z" fill="#F32851"/>
</svg>
