<svg width="52" height="106" viewBox="0 0 52 106" fill="none" xmlns="http://www.w3.org/2000/svg">
<rect x="0.5" y="21.5" width="51" height="84" rx="1.5" stroke="#535353"/>
<line y1="37.4999" x2="52" y2="37.4999" stroke="#535353"/>
<line y1="53.5" x2="52" y2="53.5" stroke="#535353"/>
<path d="M0 88H51" stroke="#535353"/>
<path d="M0 71H51.5" stroke="#535353"/>
<line x1="18.5" y1="21" x2="18.5" y2="106" stroke="#535353"/>
<path d="M35.5 21L35.5 106" stroke="#535353"/>
<path d="M17.7216 15V3.36364H24.6989V4.61364H19.1307V8.54545H24.1761V9.79545H19.1307V15H17.7216ZM30.6122 3.20455C31.0895 3.20833 31.5668 3.29924 32.044 3.47727C32.5213 3.6553 32.9569 3.95076 33.3509 4.36364C33.7448 4.77273 34.0611 5.33144 34.2997 6.03977C34.5384 6.74811 34.6577 7.63636 34.6577 8.70455C34.6577 9.73864 34.5592 10.6572 34.3622 11.4602C34.169 12.2595 33.8887 12.9337 33.5213 13.483C33.1577 14.0322 32.7145 14.4489 32.1918 14.733C31.6728 15.017 31.0857 15.1591 30.4304 15.1591C29.7789 15.1591 29.1974 15.0303 28.6861 14.7727C28.1785 14.5114 27.7618 14.1496 27.4361 13.6875C27.1141 13.2216 26.9077 12.6818 26.8168 12.0682H28.2031C28.3281 12.6023 28.5762 13.0436 28.9474 13.392C29.3224 13.7367 29.8168 13.9091 30.4304 13.9091C31.3281 13.9091 32.0365 13.517 32.5554 12.733C33.0781 11.9489 33.3395 10.8409 33.3395 9.40909H33.2486C33.0365 9.72727 32.7846 10.0019 32.4929 10.233C32.2012 10.464 31.8774 10.642 31.5213 10.767C31.1652 10.892 30.7865 10.9545 30.3849 10.9545C29.7183 10.9545 29.1065 10.7898 28.5497 10.4602C27.9967 10.1269 27.5535 9.67045 27.2202 9.09091C26.8906 8.50758 26.7259 7.84091 26.7259 7.09091C26.7259 6.37879 26.8849 5.72727 27.2031 5.13636C27.5251 4.54167 27.9759 4.06818 28.5554 3.71591C29.1387 3.36364 29.8243 3.19318 30.6122 3.20455ZM30.6122 4.45455C30.1349 4.45455 29.705 4.57386 29.3224 4.8125C28.9437 5.04735 28.6425 5.36553 28.419 5.76705C28.1993 6.16477 28.0895 6.60606 28.0895 7.09091C28.0895 7.57576 28.1955 8.01705 28.4077 8.41477C28.6236 8.80871 28.9171 9.12311 29.2884 9.35795C29.6634 9.58902 30.0895 9.70455 30.5668 9.70455C30.9266 9.70455 31.2618 9.63447 31.5724 9.49432C31.883 9.35038 32.1539 9.1553 32.3849 8.90909C32.6198 8.65909 32.8035 8.37689 32.9361 8.0625C33.0687 7.74432 33.1349 7.41288 33.1349 7.06818C33.1349 6.61364 33.0251 6.1875 32.8054 5.78977C32.5895 5.39205 32.2902 5.07008 31.9077 4.82386C31.5289 4.57765 31.0971 4.45455 30.6122 4.45455Z" fill="#F32851"/>
<path d="M39.5252 28.6195C39.8435 29.1626 39.8435 29.8374 39.5252 30.3805C38.6989 31.7909 37.7909 32.6989 36.3805 33.5252C35.8374 33.8435 35.1626 33.8435 34.6195 33.5252C33.2091 32.6989 32.3011 31.7909 31.4748 30.3805C31.1565 29.8374 31.1565 29.1626 31.4748 28.6195C32.3011 27.2091 33.2091 26.3011 34.6195 25.4748C35.1626 25.1565 35.8374 25.1565 36.3805 25.4748C37.7909 26.3011 38.6989 27.2091 39.5252 28.6195Z" fill="#F32851"/>
<path d="M22.5252 61.6195C22.8435 62.1626 22.8435 62.8374 22.5252 63.3805C21.6989 64.7909 20.7909 65.6989 19.3805 66.5252C18.8374 66.8435 18.1626 66.8435 17.6195 66.5252C16.2091 65.6989 15.3011 64.7909 14.4748 63.3805C14.1565 62.8374 14.1565 62.1626 14.4748 61.6195C15.3011 60.2091 16.2091 59.3011 17.6195 58.4748C18.1626 58.1565 18.8374 58.1565 19.3805 58.4748C20.7909 59.3011 21.6989 60.2091 22.5252 61.6195Z" fill="#F32851"/>
</svg>
