<svg width="60" height="106" viewBox="0 0 60 106" fill="none" xmlns="http://www.w3.org/2000/svg">
<rect x="4.5" y="21.5" width="51" height="84" rx="1.5" stroke="#535353"/>
<line x1="4" y1="37.4999" x2="56" y2="37.4999" stroke="#535353"/>
<line x1="4" y1="53.5" x2="56" y2="53.5" stroke="#535353"/>
<path d="M4 88H55" stroke="#535353"/>
<path d="M4 71H55.5" stroke="#535353"/>
<line x1="22.5" y1="21" x2="22.5" y2="106" stroke="#535353"/>
<path d="M39.5 21L39.5 106" stroke="#535353"/>
<path d="M19.8075 15V3.36364H26.7848V4.61364H21.2166V8.54545H26.2621V9.79545H21.2166V15H19.8075ZM28.9226 15V6.27273H30.218V7.63636H30.3317C30.5135 7.17045 30.8071 6.80871 31.2124 6.55114C31.6177 6.28977 32.1044 6.15909 32.6726 6.15909C33.2483 6.15909 33.7275 6.28977 34.1101 6.55114C34.4964 6.80871 34.7976 7.17045 35.0135 7.63636H35.1044C35.3279 7.18561 35.6631 6.82765 36.1101 6.5625C36.5571 6.29356 37.093 6.15909 37.718 6.15909C38.4983 6.15909 39.1366 6.40341 39.6328 6.89205C40.129 7.37689 40.3771 8.13258 40.3771 9.15909V15H39.0362V9.15909C39.0362 8.51515 38.8601 8.05492 38.5078 7.77841C38.1555 7.50189 37.7408 7.36364 37.2635 7.36364C36.6499 7.36364 36.1745 7.54924 35.8374 7.92045C35.5002 8.28788 35.3317 8.75379 35.3317 9.31818V15H33.968V9.02273C33.968 8.52652 33.8071 8.12689 33.4851 7.82386C33.1631 7.51705 32.7483 7.36364 32.2408 7.36364C31.8923 7.36364 31.5665 7.45644 31.2635 7.64205C30.9643 7.82765 30.7218 8.08523 30.5362 8.41477C30.3544 8.74053 30.2635 9.11742 30.2635 9.54545V15H28.9226Z" fill="#F32851"/>
<path d="M8.52523 28.6195C8.84348 29.1626 8.84348 29.8374 8.52523 30.3805C7.69886 31.7909 6.79088 32.6989 5.38054 33.5252C4.83739 33.8435 4.16261 33.8435 3.61946 33.5252C2.20912 32.6989 1.30114 31.7909 0.474768 30.3805C0.15652 29.8374 0.15652 29.1626 0.474768 28.6195C1.30114 27.2091 2.20912 26.3011 3.61946 25.4748C4.16261 25.1565 4.83739 25.1565 5.38054 25.4748C6.79088 26.3011 7.69886 27.2091 8.52523 28.6195Z" fill="#F32851"/>
<path d="M43.5252 28.6195C43.8435 29.1626 43.8435 29.8374 43.5252 30.3805C42.6989 31.7909 41.7909 32.6989 40.3805 33.5252C39.8374 33.8435 39.1626 33.8435 38.6195 33.5252C37.2091 32.6989 36.3011 31.7909 35.4748 30.3805C35.1565 29.8374 35.1565 29.1626 35.4748 28.6195C36.3011 27.2091 37.2091 26.3011 38.6195 25.4748C39.1626 25.1565 39.8374 25.1565 40.3805 25.4748C41.7909 26.3011 42.6989 27.2091 43.5252 28.6195Z" fill="#F32851"/>
<path d="M59.5252 61.6195C59.8435 62.1626 59.8435 62.8374 59.5252 63.3805C58.6989 64.7909 57.7909 65.6989 56.3805 66.5252C55.8374 66.8435 55.1626 66.8435 54.6195 66.5252C53.2091 65.6989 52.3011 64.7909 51.4748 63.3805C51.1565 62.8374 51.1565 62.1626 51.4748 61.6195C52.3011 60.2091 53.2091 59.3011 54.6195 58.4748C55.1626 58.1565 55.8374 58.1565 56.3805 58.4748C57.7909 59.3011 58.6989 60.2091 59.5252 61.6195Z" fill="#F32851"/>
</svg>
