<svg width="60" height="106" viewBox="0 0 60 106" fill="none" xmlns="http://www.w3.org/2000/svg">
<rect x="4.5" y="21.5" width="51" height="84" rx="1.5" stroke="#535353"/>
<line x1="4" y1="37.4999" x2="56" y2="37.4999" stroke="#535353"/>
<line x1="4" y1="53.5" x2="56" y2="53.5" stroke="#535353"/>
<path d="M4 88H55" stroke="#535353"/>
<path d="M4 71H55.5" stroke="#535353"/>
<line x1="22.5" y1="21" x2="22.5" y2="106" stroke="#535353"/>
<path d="M39.5 21L39.5 106" stroke="#535353"/>
<path d="M14.8153 15V3.36364H21.7926V4.61364H16.2244V8.54545H21.2699V9.79545H16.2244V15H14.8153ZM23.9304 15V6.27273H25.2259V7.63636H25.3395C25.5213 7.17045 25.8149 6.80871 26.2202 6.55114C26.6255 6.28977 27.1122 6.15909 27.6804 6.15909C28.2562 6.15909 28.7353 6.28977 29.1179 6.55114C29.5043 6.80871 29.8054 7.17045 30.0213 7.63636H30.1122C30.3357 7.18561 30.6709 6.82765 31.1179 6.5625C31.5649 6.29356 32.1009 6.15909 32.7259 6.15909C33.5062 6.15909 34.1444 6.40341 34.6406 6.89205C35.1368 7.37689 35.3849 8.13258 35.3849 9.15909V15H34.044V9.15909C34.044 8.51515 33.8679 8.05492 33.5156 7.77841C33.1634 7.50189 32.7486 7.36364 32.2713 7.36364C31.6577 7.36364 31.1823 7.54924 30.8452 7.92045C30.508 8.28788 30.3395 8.75379 30.3395 9.31818V15H28.9759V9.02273C28.9759 8.52652 28.8149 8.12689 28.4929 7.82386C28.1709 7.51705 27.7562 7.36364 27.2486 7.36364C26.9001 7.36364 26.5743 7.45644 26.2713 7.64205C25.9721 7.82765 25.7296 8.08523 25.544 8.41477C25.3622 8.74053 25.2713 9.11742 25.2713 9.54545V15H23.9304ZM41.6776 15.1591C41.2003 15.1515 40.723 15.0606 40.2457 14.8864C39.7685 14.7121 39.3329 14.4186 38.9389 14.0057C38.545 13.589 38.2287 13.0265 37.9901 12.3182C37.7514 11.6061 37.6321 10.7121 37.6321 9.63636C37.6321 8.60606 37.7287 7.69318 37.9219 6.89773C38.1151 6.09848 38.3954 5.42614 38.7628 4.88068C39.1302 4.33144 39.5734 3.91477 40.0923 3.63068C40.6151 3.34659 41.2041 3.20455 41.8594 3.20455C42.5109 3.20455 43.0904 3.33523 43.598 3.59659C44.1094 3.85417 44.526 4.21401 44.848 4.67614C45.17 5.13826 45.3783 5.67045 45.473 6.27273H44.0866C43.9579 5.75 43.7079 5.31629 43.3366 4.97159C42.9654 4.62689 42.473 4.45455 41.8594 4.45455C40.9579 4.45455 40.2476 4.84659 39.7287 5.63068C39.2135 6.41477 38.9541 7.51515 38.9503 8.93182H39.0412C39.2533 8.60985 39.5052 8.33523 39.7969 8.10795C40.0923 7.87689 40.4181 7.69886 40.7741 7.57386C41.1302 7.44886 41.5071 7.38636 41.9048 7.38636C42.5715 7.38636 43.1813 7.55303 43.7344 7.88636C44.2874 8.21591 44.7306 8.67235 45.0639 9.25568C45.3973 9.83523 45.5639 10.5 45.5639 11.25C45.5639 11.9697 45.4029 12.6288 45.081 13.2273C44.759 13.822 44.3063 14.2955 43.723 14.6477C43.1435 14.9962 42.4616 15.1667 41.6776 15.1591ZM41.6776 13.9091C42.1548 13.9091 42.5829 13.7898 42.9616 13.5511C43.3442 13.3125 43.6454 12.9924 43.8651 12.5909C44.0885 12.1894 44.2003 11.7424 44.2003 11.25C44.2003 10.7689 44.0923 10.3314 43.8764 9.9375C43.6643 9.53977 43.3707 9.22348 42.9957 8.98864C42.6245 8.75379 42.2003 8.63636 41.723 8.63636C41.3632 8.63636 41.0279 8.70833 40.7173 8.85227C40.4067 8.99242 40.134 9.18561 39.8991 9.43182C39.6681 9.67803 39.4863 9.96023 39.3537 10.2784C39.2211 10.5928 39.1548 10.9242 39.1548 11.2727C39.1548 11.7348 39.2628 12.1667 39.4787 12.5682C39.6984 12.9697 39.9976 13.2936 40.3764 13.5398C40.759 13.786 41.1927 13.9091 41.6776 13.9091Z" fill="#F32851"/>
<path d="M59.5252 95.6195C59.8435 96.1626 59.8435 96.8374 59.5252 97.3805C58.6989 98.7909 57.7909 99.6989 56.3805 100.525C55.8374 100.843 55.1626 100.843 54.6195 100.525C53.2091 99.6989 52.3011 98.7909 51.4748 97.3805C51.1565 96.8374 51.1565 96.1626 51.4748 95.6195C52.3011 94.2091 53.2091 93.3011 54.6195 92.4748C55.1626 92.1565 55.8374 92.1565 56.3805 92.4748C57.7909 93.3011 58.6989 94.2091 59.5252 95.6195Z" fill="#F32851"/>
<path d="M43.5252 28.6195C43.8435 29.1626 43.8435 29.8374 43.5252 30.3805C42.6989 31.7909 41.7909 32.6989 40.3805 33.5252C39.8374 33.8435 39.1626 33.8435 38.6195 33.5252C37.2091 32.6989 36.3011 31.7909 35.4748 30.3805C35.1565 29.8374 35.1565 29.1626 35.4748 28.6195C36.3011 27.2091 37.2091 26.3011 38.6195 25.4748C39.1626 25.1565 39.8374 25.1565 40.3805 25.4748C41.7909 26.3011 42.6989 27.2091 43.5252 28.6195Z" fill="#F32851"/>
<path d="M8.52523 28.6195C8.84348 29.1626 8.84348 29.8374 8.52523 30.3805C7.69886 31.7909 6.79088 32.6989 5.38054 33.5252C4.83739 33.8435 4.16261 33.8435 3.61946 33.5252C2.20912 32.6989 1.30114 31.7909 0.474768 30.3805C0.15652 29.8374 0.15652 29.1626 0.474768 28.6195C1.30114 27.2091 2.20912 26.3011 3.61946 25.4748C4.16261 25.1565 4.83739 25.1565 5.38054 25.4748C6.79088 26.3011 7.69886 27.2091 8.52523 28.6195Z" fill="#F32851"/>
</svg>
