<svg width="60" height="106" viewBox="0 0 60 106" fill="none" xmlns="http://www.w3.org/2000/svg">
<rect x="4.5" y="21.5" width="51" height="84" rx="1.5" stroke="#535353"/>
<line x1="4" y1="37.4999" x2="56" y2="37.4999" stroke="#535353"/>
<line x1="4" y1="53.5" x2="56" y2="53.5" stroke="#535353"/>
<path d="M4 88H55" stroke="#535353"/>
<path d="M4 71H55.5" stroke="#535353"/>
<line x1="22.5" y1="21" x2="22.5" y2="106" stroke="#535353"/>
<path d="M39.5 21L39.5 106" stroke="#535353"/>
<path d="M15.2372 15V3.36364H22.2145V4.61364H16.6463V8.54545H21.6918V9.79545H16.6463V15H15.2372ZM24.3523 15V6.27273H25.6477V7.63636H25.7614C25.9432 7.17045 26.2367 6.80871 26.642 6.55114C27.0473 6.28977 27.5341 6.15909 28.1023 6.15909C28.678 6.15909 29.1572 6.28977 29.5398 6.55114C29.9261 6.80871 30.2273 7.17045 30.4432 7.63636H30.5341C30.7576 7.18561 31.0928 6.82765 31.5398 6.5625C31.9867 6.29356 32.5227 6.15909 33.1477 6.15909C33.928 6.15909 34.5663 6.40341 35.0625 6.89205C35.5587 7.37689 35.8068 8.13258 35.8068 9.15909V15H34.4659V9.15909C34.4659 8.51515 34.2898 8.05492 33.9375 7.77841C33.5852 7.50189 33.1705 7.36364 32.6932 7.36364C32.0795 7.36364 31.6042 7.54924 31.267 7.92045C30.9299 8.28788 30.7614 8.75379 30.7614 9.31818V15H29.3977V9.02273C29.3977 8.52652 29.2367 8.12689 28.9148 7.82386C28.5928 7.51705 28.178 7.36364 27.6705 7.36364C27.322 7.36364 26.9962 7.45644 26.6932 7.64205C26.3939 7.82765 26.1515 8.08523 25.9659 8.41477C25.7841 8.74053 25.6932 9.11742 25.6932 9.54545V15H24.3523ZM38.5994 15L43.804 4.70455V4.61364H37.804V3.36364H45.2585V4.68182L40.0767 15H38.5994Z" fill="#F32851"/>
<path d="M59.5252 61.6195C59.8435 62.1626 59.8435 62.8374 59.5252 63.3805C58.6989 64.7909 57.7909 65.6989 56.3805 66.5252C55.8374 66.8435 55.1626 66.8435 54.6195 66.5252C53.2091 65.6989 52.3011 64.7909 51.4748 63.3805C51.1565 62.8374 51.1565 62.1626 51.4748 61.6195C52.3011 60.2091 53.2091 59.3011 54.6195 58.4748C55.1626 58.1565 55.8374 58.1565 56.3805 58.4748C57.7909 59.3011 58.6989 60.2091 59.5252 61.6195Z" fill="#F32851"/>
<path d="M26.5252 61.6195C26.8435 62.1626 26.8435 62.8374 26.5252 63.3805C25.6989 64.7909 24.7909 65.6989 23.3805 66.5252C22.8374 66.8435 22.1626 66.8435 21.6195 66.5252C20.2091 65.6989 19.3011 64.7909 18.4748 63.3805C18.1565 62.8374 18.1565 62.1626 18.4748 61.6195C19.3011 60.2091 20.2091 59.3011 21.6195 58.4748C22.1626 58.1565 22.8374 58.1565 23.3805 58.4748C24.7909 59.3011 25.6989 60.2091 26.5252 61.6195Z" fill="#F32851"/>
<path d="M43.5252 28.6195C43.8435 29.1626 43.8435 29.8374 43.5252 30.3805C42.6989 31.7909 41.7909 32.6989 40.3805 33.5252C39.8374 33.8435 39.1626 33.8435 38.6195 33.5252C37.2091 32.6989 36.3011 31.7909 35.4748 30.3805C35.1565 29.8374 35.1565 29.1626 35.4748 28.6195C36.3011 27.2091 37.2091 26.3011 38.6195 25.4748C39.1626 25.1565 39.8374 25.1565 40.3805 25.4748C41.7909 26.3011 42.6989 27.2091 43.5252 28.6195Z" fill="#F32851"/>
<path d="M8.52523 28.6195C8.84348 29.1626 8.84348 29.8374 8.52523 30.3805C7.69886 31.7909 6.79088 32.6989 5.38054 33.5252C4.83739 33.8435 4.16261 33.8435 3.61946 33.5252C2.20912 32.6989 1.30114 31.7909 0.474768 30.3805C0.15652 29.8374 0.15652 29.1626 0.474768 28.6195C1.30114 27.2091 2.20912 26.3011 3.61946 25.4748C4.16261 25.1565 4.83739 25.1565 5.38054 25.4748C6.79088 26.3011 7.69886 27.2091 8.52523 28.6195Z" fill="#F32851"/>
</svg>
