<svg width="59" height="106" viewBox="0 0 59 106" fill="none" xmlns="http://www.w3.org/2000/svg">
<rect x="4.5" y="21.5" width="51" height="84" rx="1.5" stroke="#535353"/>
<line x1="4" y1="37.4999" x2="56" y2="37.4999" stroke="#535353"/>
<line x1="4" y1="53.5" x2="56" y2="53.5" stroke="#535353"/>
<path d="M4 88H55" stroke="#535353"/>
<path d="M4 71H55.5" stroke="#535353"/>
<line x1="22.5" y1="21" x2="22.5" y2="106" stroke="#535353"/>
<path d="M39.5 21L39.5 106" stroke="#535353"/>
<path d="M21.6669 15V3.36364H28.6442V4.61364H23.076V8.54545H28.1214V9.79545H23.076V15H21.6669ZM35.2166 15L37.1257 3.36364H38.2621L36.353 15H35.2166ZM29.9212 11.7727L30.103 10.6364H38.7848L38.603 11.7727H29.9212ZM31.1257 15L33.0348 3.36364H34.1712L32.2621 15H31.1257ZM30.603 7.72727L30.7848 6.59091H39.4666L39.2848 7.72727H30.603Z" fill="#F32851"/>
<path d="M43.5252 44.6195C43.8435 45.1626 43.8435 45.8374 43.5252 46.3805C42.6989 47.7909 41.7909 48.6989 40.3805 49.5252C39.8374 49.8435 39.1626 49.8435 38.6195 49.5252C37.2091 48.6989 36.3011 47.7909 35.4748 46.3805C35.1565 45.8374 35.1565 45.1626 35.4748 44.6195C36.3011 43.2091 37.2091 42.3011 38.6195 41.4748C39.1626 41.1565 39.8374 41.1565 40.3805 41.4748C41.7909 42.3011 42.6989 43.2091 43.5252 44.6195Z" fill="#F32851"/>
<path d="M8.52523 61.6195C8.84348 62.1626 8.84348 62.8374 8.52523 63.3805C7.69886 64.7909 6.79088 65.6989 5.38054 66.5252C4.83739 66.8435 4.16261 66.8435 3.61946 66.5252C2.20912 65.6989 1.30114 64.7909 0.474768 63.3805C0.15652 62.8374 0.15652 62.1626 0.474768 61.6195C1.30114 60.2091 2.20912 59.3011 3.61946 58.4748C4.16261 58.1565 4.83739 58.1565 5.38054 58.4748C6.79088 59.3011 7.69886 60.2091 8.52523 61.6195Z" fill="#F32851"/>
<path d="M58.5252 28.6195C58.8435 29.1626 58.8435 29.8374 58.5252 30.3805C57.6989 31.7909 56.7909 32.6989 55.3805 33.5252C54.8374 33.8435 54.1626 33.8435 53.6195 33.5252C52.2091 32.6989 51.3011 31.7909 50.4748 30.3805C50.1565 29.8374 50.1565 29.1626 50.4748 28.6195C51.3011 27.2091 52.2091 26.3011 53.6195 25.4748C54.1626 25.1565 54.8374 25.1565 55.3805 25.4748C56.7909 26.3011 57.6989 27.2091 58.5252 28.6195Z" fill="#F32851"/>
<path d="M26.5252 28.6195C26.8435 29.1626 26.8435 29.8374 26.5252 30.3805C25.6989 31.7909 24.7909 32.6989 23.3805 33.5252C22.8374 33.8435 22.1626 33.8435 21.6195 33.5252C20.2091 32.6989 19.3011 31.7909 18.4748 30.3805C18.1565 29.8374 18.1565 29.1626 18.4748 28.6195C19.3011 27.2091 20.2091 26.3011 21.6195 25.4748C22.1626 25.1565 22.8374 25.1565 23.3805 25.4748C24.7909 26.3011 25.6989 27.2091 26.5252 28.6195Z" fill="#F32851"/>
</svg>
