<svg width="60" height="106" viewBox="0 0 60 106" fill="none" xmlns="http://www.w3.org/2000/svg">
<rect x="4.5" y="21.5" width="51" height="84" rx="1.5" stroke="#535353"/>
<line x1="4" y1="37.4999" x2="56" y2="37.4999" stroke="#535353"/>
<line x1="4" y1="53.5" x2="56" y2="53.5" stroke="#535353"/>
<path d="M4 88H55" stroke="#535353"/>
<path d="M4 71H55.5" stroke="#535353"/>
<line x1="22.5" y1="21" x2="22.5" y2="106" stroke="#535353"/>
<path d="M39.5 21L39.5 106" stroke="#535353"/>
<path d="M16.7997 15V3.36364H23.777V4.61364H18.2088V8.54545H23.2543V9.79545H18.2088V15H16.7997ZM30.3494 15L32.2585 3.36364H33.3949L31.4858 15H30.3494ZM25.054 11.7727L25.2358 10.6364H33.9176L33.7358 11.7727H25.054ZM26.2585 15L28.1676 3.36364H29.304L27.3949 15H26.2585ZM25.7358 7.72727L25.9176 6.59091H34.5994L34.4176 7.72727H25.7358ZM39.7159 15.1591C39.0492 15.1591 38.4489 15.0265 37.9148 14.7614C37.3807 14.4962 36.9527 14.1326 36.6307 13.6705C36.3087 13.2083 36.1326 12.6818 36.1023 12.0909H37.4659C37.5189 12.6174 37.7576 13.053 38.1818 13.3977C38.6098 13.7386 39.1212 13.9091 39.7159 13.9091C40.1932 13.9091 40.6174 13.7973 40.9886 13.5739C41.3636 13.3504 41.6572 13.0436 41.8693 12.6534C42.0852 12.2595 42.1932 11.8144 42.1932 11.3182C42.1932 10.8106 42.0814 10.358 41.858 9.96023C41.6383 9.55871 41.3352 9.24242 40.9489 9.01136C40.5625 8.7803 40.1212 8.66288 39.625 8.65909C39.2689 8.6553 38.9034 8.71023 38.5284 8.82386C38.1534 8.93371 37.8447 9.07576 37.6023 9.25L36.2841 9.09091L36.9886 3.36364H43.0341V4.61364H38.1705L37.7614 8.04545H37.8295C38.0682 7.85606 38.3674 7.69886 38.7273 7.57386C39.0871 7.44886 39.4621 7.38636 39.8523 7.38636C40.5644 7.38636 41.1989 7.55682 41.7557 7.89773C42.3163 8.23485 42.7557 8.69697 43.0739 9.28409C43.3958 9.87121 43.5568 10.5417 43.5568 11.2955C43.5568 12.0379 43.3902 12.7008 43.0568 13.2841C42.7273 13.8636 42.2727 14.322 41.6932 14.6591C41.1136 14.9924 40.4545 15.1591 39.7159 15.1591Z" fill="#F32851"/>
<path d="M43.5252 44.6195C43.8435 45.1626 43.8435 45.8374 43.5252 46.3805C42.6989 47.7909 41.7909 48.6989 40.3805 49.5252C39.8374 49.8435 39.1626 49.8435 38.6195 49.5252C37.2091 48.6989 36.3011 47.7909 35.4748 46.3805C35.1565 45.8374 35.1565 45.1626 35.4748 44.6195C36.3011 43.2091 37.2091 42.3011 38.6195 41.4748C39.1626 41.1565 39.8374 41.1565 40.3805 41.4748C41.7909 42.3011 42.6989 43.2091 43.5252 44.6195Z" fill="#F32851"/>
<path d="M26.5252 28.6195C26.8435 29.1626 26.8435 29.8374 26.5252 30.3805C25.6989 31.7909 24.7909 32.6989 23.3805 33.5252C22.8374 33.8435 22.1626 33.8435 21.6195 33.5252C20.2091 32.6989 19.3011 31.7909 18.4748 30.3805C18.1565 29.8374 18.1565 29.1626 18.4748 28.6195C19.3011 27.2091 20.2091 26.3011 21.6195 25.4748C22.1626 25.1565 22.8374 25.1565 23.3805 25.4748C24.7909 26.3011 25.6989 27.2091 26.5252 28.6195Z" fill="#F32851"/>
<path d="M59.5252 78.6195C59.8435 79.1626 59.8435 79.8374 59.5252 80.3805C58.6989 81.7909 57.7909 82.6989 56.3805 83.5252C55.8374 83.8435 55.1626 83.8435 54.6195 83.5252C53.2091 82.6989 52.3011 81.7909 51.4748 80.3805C51.1565 79.8374 51.1565 79.1626 51.4748 78.6195C52.3011 77.2091 53.2091 76.3011 54.6195 75.4748C55.1626 75.1565 55.8374 75.1565 56.3805 75.4748C57.7909 76.3011 58.6989 77.2091 59.5252 78.6195Z" fill="#F32851"/>
<path d="M2.40696 17.2727L4.49787 20.8409L6.58878 17.2727H8.13423L5.31605 21.6364L8.13423 26H6.58878L4.49787 22.6136L2.40696 26H0.861506L3.63423 21.6364L0.861506 17.2727H2.40696Z" fill="#F32851"/>
</svg>
