<svg width="60" height="106" viewBox="0 0 60 106" fill="none" xmlns="http://www.w3.org/2000/svg">
<rect x="4.5" y="21.5" width="51" height="84" rx="1.5" stroke="#535353"/>
<line x1="4" y1="37.4999" x2="56" y2="37.4999" stroke="#535353"/>
<line x1="4" y1="53.5" x2="56" y2="53.5" stroke="#535353"/>
<path d="M4 88H55" stroke="#535353"/>
<path d="M4 71H55.5" stroke="#535353"/>
<line x1="22.5" y1="21" x2="22.5" y2="106" stroke="#535353"/>
<path d="M39.5 21L39.5 106" stroke="#535353"/>
<path d="M16.6747 15V3.36364H23.652V4.61364H18.0838V8.54545H23.1293V9.79545H18.0838V15H16.6747ZM30.2244 15L32.1335 3.36364H33.2699L31.3608 15H30.2244ZM24.929 11.7727L25.1108 10.6364H33.7926L33.6108 11.7727H24.929ZM26.1335 15L28.0426 3.36364H29.179L27.2699 15H26.1335ZM25.6108 7.72727L25.7926 6.59091H34.4744L34.2926 7.72727H25.6108ZM39.8182 15.1591C39.3409 15.1515 38.8636 15.0606 38.3864 14.8864C37.9091 14.7121 37.4735 14.4186 37.0795 14.0057C36.6856 13.589 36.3693 13.0265 36.1307 12.3182C35.892 11.6061 35.7727 10.7121 35.7727 9.63636C35.7727 8.60606 35.8693 7.69318 36.0625 6.89773C36.2557 6.09848 36.536 5.42614 36.9034 4.88068C37.2708 4.33144 37.714 3.91477 38.233 3.63068C38.7557 3.34659 39.3447 3.20455 40 3.20455C40.6515 3.20455 41.2311 3.33523 41.7386 3.59659C42.25 3.85417 42.6667 4.21401 42.9886 4.67614C43.3106 5.13826 43.5189 5.67045 43.6136 6.27273H42.2273C42.0985 5.75 41.8485 5.31629 41.4773 4.97159C41.1061 4.62689 40.6136 4.45455 40 4.45455C39.0985 4.45455 38.3883 4.84659 37.8693 5.63068C37.3542 6.41477 37.0947 7.51515 37.0909 8.93182H37.1818C37.3939 8.60985 37.6458 8.33523 37.9375 8.10795C38.233 7.87689 38.5587 7.69886 38.9148 7.57386C39.2708 7.44886 39.6477 7.38636 40.0455 7.38636C40.7121 7.38636 41.322 7.55303 41.875 7.88636C42.428 8.21591 42.8712 8.67235 43.2045 9.25568C43.5379 9.83523 43.7045 10.5 43.7045 11.25C43.7045 11.9697 43.5436 12.6288 43.2216 13.2273C42.8996 13.822 42.447 14.2955 41.8636 14.6477C41.2841 14.9962 40.6023 15.1667 39.8182 15.1591ZM39.8182 13.9091C40.2955 13.9091 40.7235 13.7898 41.1023 13.5511C41.4848 13.3125 41.786 12.9924 42.0057 12.5909C42.2292 12.1894 42.3409 11.7424 42.3409 11.25C42.3409 10.7689 42.233 10.3314 42.017 9.9375C41.8049 9.53977 41.5114 9.22348 41.1364 8.98864C40.7652 8.75379 40.3409 8.63636 39.8636 8.63636C39.5038 8.63636 39.1686 8.70833 38.858 8.85227C38.5473 8.99242 38.2746 9.18561 38.0398 9.43182C37.8087 9.67803 37.6269 9.96023 37.4943 10.2784C37.3617 10.5928 37.2955 10.9242 37.2955 11.2727C37.2955 11.7348 37.4034 12.1667 37.6193 12.5682C37.839 12.9697 38.1383 13.2936 38.517 13.5398C38.8996 13.786 39.3333 13.9091 39.8182 13.9091Z" fill="#F32851"/>
<path d="M43.5252 44.6195C43.8435 45.1626 43.8435 45.8374 43.5252 46.3805C42.6989 47.7909 41.7909 48.6989 40.3805 49.5252C39.8374 49.8435 39.1626 49.8435 38.6195 49.5252C37.2091 48.6989 36.3011 47.7909 35.4748 46.3805C35.1565 45.8374 35.1565 45.1626 35.4748 44.6195C36.3011 43.2091 37.2091 42.3011 38.6195 41.4748C39.1626 41.1565 39.8374 41.1565 40.3805 41.4748C41.7909 42.3011 42.6989 43.2091 43.5252 44.6195Z" fill="#F32851"/>
<path d="M59.5252 78.6195C59.8435 79.1626 59.8435 79.8374 59.5252 80.3805C58.6989 81.7909 57.7909 82.6989 56.3805 83.5252C55.8374 83.8435 55.1626 83.8435 54.6195 83.5252C53.2091 82.6989 52.3011 81.7909 51.4748 80.3805C51.1565 79.8374 51.1565 79.1626 51.4748 78.6195C52.3011 77.2091 53.2091 76.3011 54.6195 75.4748C55.1626 75.1565 55.8374 75.1565 56.3805 75.4748C57.7909 76.3011 58.6989 77.2091 59.5252 78.6195Z" fill="#F32851"/>
<path d="M26.5252 61.6195C26.8435 62.1626 26.8435 62.8374 26.5252 63.3805C25.6989 64.7909 24.7909 65.6989 23.3805 66.5252C22.8374 66.8435 22.1626 66.8435 21.6195 66.5252C20.2091 65.6989 19.3011 64.7909 18.4748 63.3805C18.1565 62.8374 18.1565 62.1626 18.4748 61.6195C19.3011 60.2091 20.2091 59.3011 21.6195 58.4748C22.1626 58.1565 22.8374 58.1565 23.3805 58.4748C24.7909 59.3011 25.6989 60.2091 26.5252 61.6195Z" fill="#F32851"/>
<path d="M8.52523 61.6195C8.84348 62.1626 8.84348 62.8374 8.52523 63.3805C7.69886 64.7909 6.79088 65.6989 5.38054 66.5252C4.83739 66.8435 4.16261 66.8435 3.61946 66.5252C2.20912 65.6989 1.30114 64.7909 0.474768 63.3805C0.15652 62.8374 0.15652 62.1626 0.474768 61.6195C1.30114 60.2091 2.20912 59.3011 3.61946 58.4748C4.16261 58.1565 4.83739 58.1565 5.38054 58.4748C6.79088 59.3011 7.69886 60.2091 8.52523 61.6195Z" fill="#F32851"/>
</svg>
