<svg width="60" height="106" viewBox="0 0 60 106" fill="none" xmlns="http://www.w3.org/2000/svg">
<rect x="4.5" y="21.5" width="51" height="84" rx="1.5" stroke="#535353"/>
<line x1="4" y1="37.4999" x2="56" y2="37.4999" stroke="#535353"/>
<line x1="4" y1="53.5" x2="56" y2="53.5" stroke="#535353"/>
<path d="M4 88H55" stroke="#535353"/>
<path d="M4 71H55.5" stroke="#535353"/>
<line x1="22.5" y1="21" x2="22.5" y2="106" stroke="#535353"/>
<path d="M39.5 21L39.5 106" stroke="#535353"/>
<path d="M9.72159 15V3.36364H16.6989V4.61364H11.1307V8.54545H16.1761V9.79545H11.1307V15H9.72159ZM23.2713 15L25.1804 3.36364H26.3168L24.4077 15H23.2713ZM17.9759 11.7727L18.1577 10.6364H26.8395L26.6577 11.7727H17.9759ZM19.1804 15L21.0895 3.36364H22.2259L20.3168 15H19.1804ZM18.6577 7.72727L18.8395 6.59091H27.5213L27.3395 7.72727H18.6577ZM29.0241 15V6.27273H30.3196V7.63636H30.4332C30.6151 7.17045 30.9086 6.80871 31.3139 6.55114C31.7192 6.28977 32.206 6.15909 32.7741 6.15909C33.3499 6.15909 33.8291 6.28977 34.2116 6.55114C34.598 6.80871 34.8991 7.17045 35.1151 7.63636H35.206C35.4295 7.18561 35.7647 6.82765 36.2116 6.5625C36.6586 6.29356 37.1946 6.15909 37.8196 6.15909C38.5999 6.15909 39.2382 6.40341 39.7344 6.89205C40.2306 7.37689 40.4787 8.13258 40.4787 9.15909V15H39.1378V9.15909C39.1378 8.51515 38.9616 8.05492 38.6094 7.77841C38.2571 7.50189 37.8423 7.36364 37.3651 7.36364C36.7514 7.36364 36.276 7.54924 35.9389 7.92045C35.6018 8.28788 35.4332 8.75379 35.4332 9.31818V15H34.0696V9.02273C34.0696 8.52652 33.9086 8.12689 33.5866 7.82386C33.2647 7.51705 32.8499 7.36364 32.3423 7.36364C31.9938 7.36364 31.6681 7.45644 31.3651 7.64205C31.0658 7.82765 30.8234 8.08523 30.6378 8.41477C30.456 8.74053 30.3651 9.11742 30.3651 9.54545V15H29.0241ZM46.7713 15.1591C46.294 15.1515 45.8168 15.0606 45.3395 14.8864C44.8622 14.7121 44.4266 14.4186 44.0327 14.0057C43.6387 13.589 43.3224 13.0265 43.0838 12.3182C42.8452 11.6061 42.7259 10.7121 42.7259 9.63636C42.7259 8.60606 42.8224 7.69318 43.0156 6.89773C43.2088 6.09848 43.4891 5.42614 43.8565 4.88068C44.224 4.33144 44.6671 3.91477 45.1861 3.63068C45.7088 3.34659 46.2978 3.20455 46.9531 3.20455C47.6046 3.20455 48.1842 3.33523 48.6918 3.59659C49.2031 3.85417 49.6198 4.21401 49.9418 4.67614C50.2637 5.13826 50.4721 5.67045 50.5668 6.27273H49.1804C49.0516 5.75 48.8016 5.31629 48.4304 4.97159C48.0592 4.62689 47.5668 4.45455 46.9531 4.45455C46.0516 4.45455 45.3414 4.84659 44.8224 5.63068C44.3073 6.41477 44.0478 7.51515 44.044 8.93182H44.1349C44.3471 8.60985 44.599 8.33523 44.8906 8.10795C45.1861 7.87689 45.5118 7.69886 45.8679 7.57386C46.224 7.44886 46.6009 7.38636 46.9986 7.38636C47.6652 7.38636 48.2751 7.55303 48.8281 7.88636C49.3812 8.21591 49.8243 8.67235 50.1577 9.25568C50.491 9.83523 50.6577 10.5 50.6577 11.25C50.6577 11.9697 50.4967 12.6288 50.1747 13.2273C49.8527 13.822 49.4001 14.2955 48.8168 14.6477C48.2372 14.9962 47.5554 15.1667 46.7713 15.1591ZM46.7713 13.9091C47.2486 13.9091 47.6766 13.7898 48.0554 13.5511C48.438 13.3125 48.7391 12.9924 48.9588 12.5909C49.1823 12.1894 49.294 11.7424 49.294 11.25C49.294 10.7689 49.1861 10.3314 48.9702 9.9375C48.758 9.53977 48.4645 9.22348 48.0895 8.98864C47.7183 8.75379 47.294 8.63636 46.8168 8.63636C46.4569 8.63636 46.1217 8.70833 45.8111 8.85227C45.5005 8.99242 45.2277 9.18561 44.9929 9.43182C44.7618 9.67803 44.58 9.96023 44.4474 10.2784C44.3149 10.5928 44.2486 10.9242 44.2486 11.2727C44.2486 11.7348 44.3565 12.1667 44.5724 12.5682C44.7921 12.9697 45.0914 13.2936 45.4702 13.5398C45.8527 13.786 46.2865 13.9091 46.7713 13.9091Z" fill="#F32851"/>
<path d="M43.5252 44.6195C43.8435 45.1626 43.8435 45.8374 43.5252 46.3805C42.6989 47.7909 41.7909 48.6989 40.3805 49.5252C39.8374 49.8435 39.1626 49.8435 38.6195 49.5252C37.2091 48.6989 36.3011 47.7909 35.4748 46.3805C35.1565 45.8374 35.1565 45.1626 35.4748 44.6195C36.3011 43.2091 37.2091 42.3011 38.6195 41.4748C39.1626 41.1565 39.8374 41.1565 40.3805 41.4748C41.7909 42.3011 42.6989 43.2091 43.5252 44.6195Z" fill="#F32851"/>
<path d="M8.52523 44.6195C8.84348 45.1626 8.84348 45.8374 8.52523 46.3805C7.69886 47.7909 6.79088 48.6989 5.38054 49.5252C4.83739 49.8435 4.16261 49.8435 3.61946 49.5252C2.20912 48.6989 1.30114 47.7909 0.474768 46.3805C0.15652 45.8374 0.15652 45.1626 0.474768 44.6195C1.30114 43.2091 2.20912 42.3011 3.61946 41.4748C4.16261 41.1565 4.83739 41.1565 5.38054 41.4748C6.79088 42.3011 7.69886 43.2091 8.52523 44.6195Z" fill="#F32851"/>
<path d="M26.5252 61.6195C26.8435 62.1626 26.8435 62.8374 26.5252 63.3805C25.6989 64.7909 24.7909 65.6989 23.3805 66.5252C22.8374 66.8435 22.1626 66.8435 21.6195 66.5252C20.2091 65.6989 19.3011 64.7909 18.4748 63.3805C18.1565 62.8374 18.1565 62.1626 18.4748 61.6195C19.3011 60.2091 20.2091 59.3011 21.6195 58.4748C22.1626 58.1565 22.8374 58.1565 23.3805 58.4748C24.7909 59.3011 25.6989 60.2091 26.5252 61.6195Z" fill="#F32851"/>
<path d="M59.5252 78.6195C59.8435 79.1626 59.8435 79.8374 59.5252 80.3805C58.6989 81.7909 57.7909 82.6989 56.3805 83.5252C55.8374 83.8435 55.1626 83.8435 54.6195 83.5252C53.2091 82.6989 52.3011 81.7909 51.4748 80.3805C51.1565 79.8374 51.1565 79.1626 51.4748 78.6195C52.3011 77.2091 53.2091 76.3011 54.6195 75.4748C55.1626 75.1565 55.8374 75.1565 56.3805 75.4748C57.7909 76.3011 58.6989 77.2091 59.5252 78.6195Z" fill="#F32851"/>
</svg>
