<svg width="60" height="106" viewBox="0 0 60 106" fill="none" xmlns="http://www.w3.org/2000/svg">
<rect x="4.5" y="21.5" width="51" height="84" rx="1.5" stroke="#535353"/>
<line x1="4" y1="37.4999" x2="56" y2="37.4999" stroke="#535353"/>
<line x1="4" y1="53.5" x2="56" y2="53.5" stroke="#535353"/>
<path d="M4 88H55" stroke="#535353"/>
<path d="M4 71H55.5" stroke="#535353"/>
<line x1="22.5" y1="21" x2="22.5" y2="106" stroke="#535353"/>
<path d="M39.5 21L39.5 106" stroke="#535353"/>
<path d="M7.02006 14V3.81818H13.1252V4.91193H8.25302V8.35227H12.6678V9.44602H8.25302V14H7.02006ZM18.8761 14L20.5465 3.81818H21.5408L19.8704 14H18.8761ZM14.2425 11.1761L14.4016 10.1818H21.9982L21.8391 11.1761H14.2425ZM15.2965 14L16.967 3.81818H17.9613L16.2908 14H15.2965ZM14.8391 7.63636L14.9982 6.64205H22.5948L22.4357 7.63636H14.8391ZM23.9098 14V6.36364H25.0433V7.55682H25.1428C25.3018 7.14915 25.5587 6.83262 25.9134 6.60724C26.268 6.37855 26.6939 6.2642 27.1911 6.2642C27.6948 6.2642 28.1141 6.37855 28.4489 6.60724C28.7869 6.83262 29.0504 7.14915 29.2393 7.55682H29.3189C29.5144 7.16241 29.8078 6.84919 30.1989 6.61719C30.59 6.38187 31.0589 6.2642 31.6058 6.2642C32.2886 6.2642 32.8471 6.47798 33.2812 6.90554C33.7154 7.32978 33.9325 7.991 33.9325 8.8892V14H32.7592V8.8892C32.7592 8.32576 32.6051 7.92306 32.2969 7.68111C31.9886 7.43916 31.6257 7.31818 31.2081 7.31818C30.6712 7.31818 30.2552 7.48059 29.9602 7.8054C29.6652 8.12689 29.5178 8.53456 29.5178 9.02841V14H28.3246V8.76989C28.3246 8.3357 28.1837 7.98603 27.902 7.72088C27.6203 7.45241 27.2573 7.31818 26.8132 7.31818C26.5083 7.31818 26.2232 7.39938 25.9581 7.56179C25.6963 7.72419 25.4841 7.94957 25.3217 8.23793C25.1626 8.52296 25.0831 8.85275 25.0831 9.22727V14H23.9098ZM38.3249 14.179C37.841 14.179 37.4019 14.0878 37.0075 13.9055C36.613 13.7199 36.2998 13.4531 36.0678 13.1051C35.8358 12.7538 35.7198 12.3295 35.7198 11.8324C35.7198 11.3949 35.806 11.0402 35.9783 10.7685C36.1507 10.4934 36.381 10.2779 36.6694 10.1222C36.9577 9.96638 37.2759 9.85038 37.6239 9.77415C37.9753 9.6946 38.3282 9.63163 38.6829 9.58523C39.1469 9.52557 39.5231 9.48082 39.8114 9.45099C40.1031 9.41785 40.3152 9.36316 40.4478 9.28693C40.5837 9.2107 40.6516 9.07812 40.6516 8.8892V8.84943C40.6516 8.3589 40.5174 7.97775 40.2489 7.70597C39.9838 7.43419 39.5811 7.2983 39.0408 7.2983C38.4807 7.2983 38.0415 7.42093 37.7234 7.66619C37.4052 7.91146 37.1815 8.1733 37.0522 8.4517L35.9386 8.05398C36.1374 7.58996 36.4026 7.22869 36.734 6.97017C37.0688 6.70833 37.4334 6.52604 37.8278 6.4233C38.2255 6.31723 38.6166 6.2642 39.0011 6.2642C39.2463 6.2642 39.5281 6.29403 39.8462 6.35369C40.1677 6.41004 40.4776 6.5277 40.7759 6.70668C41.0775 6.88565 41.3278 7.15578 41.5266 7.51705C41.7255 7.87831 41.8249 8.36222 41.8249 8.96875V14H40.6516V12.9659H40.592C40.5124 13.1316 40.3799 13.3089 40.1942 13.4979C40.0086 13.6868 39.7617 13.8475 39.4535 13.9801C39.1452 14.1127 38.7691 14.179 38.3249 14.179ZM38.5039 13.125C38.9679 13.125 39.359 13.0339 39.6772 12.8516C39.9987 12.6693 40.2406 12.4339 40.4031 12.1456C40.5688 11.8572 40.6516 11.554 40.6516 11.2358V10.1619C40.6019 10.2216 40.4925 10.2763 40.3235 10.326C40.1578 10.3724 39.9656 10.4138 39.7468 10.4503C39.5314 10.4834 39.3209 10.5133 39.1154 10.5398C38.9132 10.563 38.7492 10.5829 38.6232 10.5994C38.3183 10.6392 38.0333 10.7038 37.7681 10.7933C37.5063 10.8795 37.2942 11.0104 37.1317 11.1861C36.9727 11.3584 36.8931 11.5937 36.8931 11.892C36.8931 12.2997 37.0439 12.608 37.3455 12.8168C37.6504 13.0223 38.0366 13.125 38.5039 13.125ZM43.9664 6.36364H45.1397V14.5568C45.1397 15.0275 45.0585 15.4351 44.8961 15.7798C44.737 16.1245 44.4951 16.3913 44.1703 16.5803C43.8488 16.7692 43.4428 16.8636 42.9522 16.8636C42.9125 16.8636 42.8727 16.8636 42.8329 16.8636C42.7931 16.8636 42.7534 16.8636 42.7136 16.8636V15.7699C42.7534 15.7699 42.7898 15.7699 42.823 15.7699C42.8561 15.7699 42.8926 15.7699 42.9324 15.7699C43.2903 15.7699 43.5521 15.6638 43.7179 15.4517C43.8836 15.2429 43.9664 14.9446 43.9664 14.5568V6.36364ZM44.5431 5.09091C44.3145 5.09091 44.1172 5.01302 43.9515 4.85724C43.7891 4.70147 43.7079 4.5142 43.7079 4.29545C43.7079 4.0767 43.7891 3.88944 43.9515 3.73366C44.1172 3.57789 44.3145 3.5 44.5431 3.5C44.7718 3.5 44.9674 3.57789 45.1298 3.73366C45.2955 3.88944 45.3784 4.0767 45.3784 4.29545C45.3784 4.5142 45.2955 4.70147 45.1298 4.85724C44.9674 5.01302 44.7718 5.09091 44.5431 5.09091ZM47.587 14L52.141 4.99148V4.91193H46.891V3.81818H53.4137V4.97159L48.8796 14H47.587Z" fill="#F32851"/>
<path d="M43.5252 44.6195C43.8435 45.1626 43.8435 45.8374 43.5252 46.3805C42.6989 47.7909 41.7909 48.6989 40.3805 49.5252C39.8374 49.8435 39.1626 49.8435 38.6195 49.5252C37.2091 48.6989 36.3011 47.7909 35.4748 46.3805C35.1565 45.8374 35.1565 45.1626 35.4748 44.6195C36.3011 43.2091 37.2091 42.3011 38.6195 41.4748C39.1626 41.1565 39.8374 41.1565 40.3805 41.4748C41.7909 42.3011 42.6989 43.2091 43.5252 44.6195Z" fill="#F32851"/>
<path d="M8.52523 62.6195C8.84348 63.1626 8.84348 63.8374 8.52523 64.3805C7.69886 65.7909 6.79088 66.6989 5.38054 67.5252C4.83739 67.8435 4.16261 67.8435 3.61946 67.5252C2.20912 66.6989 1.30114 65.7909 0.474768 64.3805C0.15652 63.8374 0.15652 63.1626 0.474768 62.6195C1.30114 61.2091 2.20912 60.3011 3.61946 59.4748C4.16261 59.1565 4.83739 59.1565 5.38054 59.4748C6.79088 60.3011 7.69886 61.2091 8.52523 62.6195Z" fill="#F32851"/>
<path d="M59.5252 78.6195C59.8435 79.1626 59.8435 79.8374 59.5252 80.3805C58.6989 81.7909 57.7909 82.6989 56.3805 83.5252C55.8374 83.8435 55.1626 83.8435 54.6195 83.5252C53.2091 82.6989 52.3011 81.7909 51.4748 80.3805C51.1565 79.8374 51.1565 79.1626 51.4748 78.6195C52.3011 77.2091 53.2091 76.3011 54.6195 75.4748C55.1626 75.1565 55.8374 75.1565 56.3805 75.4748C57.7909 76.3011 58.6989 77.2091 59.5252 78.6195Z" fill="#F32851"/>
<path d="M26.5252 95.6195C26.8435 96.1626 26.8435 96.8374 26.5252 97.3805C25.6989 98.7909 24.7909 99.6989 23.3805 100.525C22.8374 100.843 22.1626 100.843 21.6195 100.525C20.2091 99.6989 19.3011 98.7909 18.4748 97.3805C18.1565 96.8374 18.1565 96.1626 18.4748 95.6195C19.3011 94.2091 20.2091 93.3011 21.6195 92.4748C22.1626 92.1565 22.8374 92.1565 23.3805 92.4748C24.7909 93.3011 25.6989 94.2091 26.5252 95.6195Z" fill="#F32851"/>
</svg>
