<svg width="60" height="106" viewBox="0 0 60 106" fill="none" xmlns="http://www.w3.org/2000/svg">
<rect x="4.5" y="21.5" width="51" height="84" rx="1.5" stroke="#535353"/>
<line x1="4" y1="37.4999" x2="56" y2="37.4999" stroke="#535353"/>
<line x1="4" y1="53.5" x2="56" y2="53.5" stroke="#535353"/>
<path d="M4 88H55" stroke="#535353"/>
<path d="M4 71H55.5" stroke="#535353"/>
<line x1="22.5" y1="21" x2="22.5" y2="106" stroke="#535353"/>
<path d="M39.5 21L39.5 106" stroke="#535353"/>
<path d="M8.57315 15V3.36364H15.5504V4.61364H9.98224V8.54545H15.0277V9.79545H9.98224V15H8.57315ZM23.9638 8.22727L22.7592 8.56818C22.6835 8.36742 22.5717 8.17235 22.424 7.98295C22.2801 7.78977 22.0831 7.63068 21.8331 7.50568C21.5831 7.38068 21.263 7.31818 20.8729 7.31818C20.3388 7.31818 19.8937 7.44129 19.5376 7.6875C19.1854 7.92992 19.0092 8.23864 19.0092 8.61364C19.0092 8.94697 19.1304 9.21023 19.3729 9.40341C19.6153 9.59659 19.9941 9.75758 20.5092 9.88636L21.8047 10.2045C22.585 10.3939 23.1664 10.6837 23.549 11.0739C23.9316 11.4602 24.1229 11.9583 24.1229 12.5682C24.1229 13.0682 23.9789 13.5152 23.6911 13.9091C23.407 14.303 23.0092 14.6136 22.4979 14.8409C21.9865 15.0682 21.3918 15.1818 20.7138 15.1818C19.8236 15.1818 19.0869 14.9886 18.5036 14.6023C17.9202 14.2159 17.5509 13.6515 17.3956 12.9091L18.6683 12.5909C18.7895 13.0606 19.0187 13.4129 19.3558 13.6477C19.6967 13.8826 20.1418 14 20.6911 14C21.3161 14 21.8123 13.8674 22.1797 13.6023C22.5509 13.3333 22.7365 13.0114 22.7365 12.6364C22.7365 12.3333 22.6304 12.0795 22.4183 11.875C22.2062 11.6667 21.8804 11.5114 21.4411 11.4091L19.9865 11.0682C19.1873 10.8788 18.6001 10.5852 18.2251 10.1875C17.8539 9.78598 17.6683 9.28409 17.6683 8.68182C17.6683 8.18939 17.8066 7.75379 18.0831 7.375C18.3634 6.99621 18.7441 6.69886 19.2251 6.48295C19.71 6.26705 20.2592 6.15909 20.8729 6.15909C21.7365 6.15909 22.4145 6.34848 22.907 6.72727C23.4032 7.10606 23.7554 7.60606 23.9638 8.22727ZM31.6413 11.4318V6.27273H32.9822V15H31.6413V13.5227H31.5504C31.3459 13.9659 31.0277 14.3428 30.5959 14.6534C30.1641 14.9602 29.6186 15.1136 28.9595 15.1136C28.4141 15.1136 27.9292 14.9943 27.505 14.7557C27.0807 14.5133 26.7474 14.1496 26.505 13.6648C26.2625 13.1761 26.1413 12.5606 26.1413 11.8182V6.27273H27.4822V11.7273C27.4822 12.3636 27.6603 12.8712 28.0163 13.25C28.3762 13.6288 28.8345 13.8182 29.3913 13.8182C29.7247 13.8182 30.0637 13.733 30.4084 13.5625C30.7569 13.392 31.0485 13.1307 31.2834 12.7784C31.522 12.4261 31.6413 11.9773 31.6413 11.4318ZM41.62 8.22727L40.4155 8.56818C40.3397 8.36742 40.228 8.17235 40.0803 7.98295C39.9363 7.78977 39.7393 7.63068 39.4893 7.50568C39.2393 7.38068 38.9193 7.31818 38.5291 7.31818C37.995 7.31818 37.55 7.44129 37.1939 7.6875C36.8416 7.92992 36.6655 8.23864 36.6655 8.61364C36.6655 8.94697 36.7867 9.21023 37.0291 9.40341C37.2715 9.59659 37.6503 9.75758 38.1655 9.88636L39.4609 10.2045C40.2412 10.3939 40.8227 10.6837 41.2053 11.0739C41.5878 11.4602 41.7791 11.9583 41.7791 12.5682C41.7791 13.0682 41.6352 13.5152 41.3473 13.9091C41.0632 14.303 40.6655 14.6136 40.1541 14.8409C39.6428 15.0682 39.0481 15.1818 38.37 15.1818C37.4799 15.1818 36.7431 14.9886 36.1598 14.6023C35.5765 14.2159 35.2071 13.6515 35.0518 12.9091L36.3246 12.5909C36.4458 13.0606 36.675 13.4129 37.0121 13.6477C37.353 13.8826 37.7981 14 38.3473 14C38.9723 14 39.4685 13.8674 39.8359 13.6023C40.2071 13.3333 40.3928 13.0114 40.3928 12.6364C40.3928 12.3333 40.2867 12.0795 40.0746 11.875C39.8625 11.6667 39.5367 11.5114 39.0973 11.4091L37.6428 11.0682C36.8435 10.8788 36.2564 10.5852 35.8814 10.1875C35.5102 9.78598 35.3246 9.28409 35.3246 8.68182C35.3246 8.18939 35.4628 7.75379 35.7393 7.375C36.0196 6.99621 36.4003 6.69886 36.8814 6.48295C37.3662 6.26705 37.9155 6.15909 38.5291 6.15909C39.3928 6.15909 40.0708 6.34848 40.5632 6.72727C41.0594 7.10606 41.4117 7.60606 41.62 8.22727ZM43.5021 12.6136V11.4545L48.6158 3.36364H49.4567V5.15909H48.8885L45.0249 11.2727V11.3636H51.9112V12.6136H43.5021ZM48.9794 15V12.2614V11.7216V3.36364H50.3203V15H48.9794Z" fill="#F32851"/>
<path d="M43.5252 28.6195C43.8435 29.1626 43.8435 29.8374 43.5252 30.3805C42.6989 31.7909 41.7909 32.6989 40.3805 33.5252C39.8374 33.8435 39.1626 33.8435 38.6195 33.5252C37.2091 32.6989 36.3011 31.7909 35.4748 30.3805C35.1565 29.8374 35.1565 29.1626 35.4748 28.6195C36.3011 27.2091 37.2091 26.3011 38.6195 25.4748C39.1626 25.1565 39.8374 25.1565 40.3805 25.4748C41.7909 26.3011 42.6989 27.2091 43.5252 28.6195Z" fill="#F32851"/>
<path d="M59.5252 28.6195C59.8435 29.1626 59.8435 29.8374 59.5252 30.3805C58.6989 31.7909 57.7909 32.6989 56.3805 33.5252C55.8374 33.8435 55.1626 33.8435 54.6195 33.5252C53.2091 32.6989 52.3011 31.7909 51.4748 30.3805C51.1565 29.8374 51.1565 29.1626 51.4748 28.6195C52.3011 27.2091 53.2091 26.3011 54.6195 25.4748C55.1626 25.1565 55.8374 25.1565 56.3805 25.4748C57.7909 26.3011 58.6989 27.2091 59.5252 28.6195Z" fill="#F32851"/>
<path d="M8.52523 61.6195C8.84348 62.1626 8.84348 62.8374 8.52523 63.3805C7.69886 64.7909 6.79088 65.6989 5.38054 66.5252C4.83739 66.8435 4.16261 66.8435 3.61946 66.5252C2.20912 65.6989 1.30114 64.7909 0.474768 63.3805C0.15652 62.8374 0.15652 62.1626 0.474768 61.6195C1.30114 60.2091 2.20912 59.3011 3.61946 58.4748C4.16261 58.1565 4.83739 58.1565 5.38054 58.4748C6.79088 59.3011 7.69886 60.2091 8.52523 61.6195Z" fill="#F32851"/>
</svg>
