<svg width="56" height="106" viewBox="0 0 56 106" fill="none" xmlns="http://www.w3.org/2000/svg">
<rect x="0.5" y="21.5" width="51" height="84" rx="1.5" stroke="#535353"/>
<line y1="37.4999" x2="52" y2="37.4999" stroke="#535353"/>
<line y1="53.5" x2="52" y2="53.5" stroke="#535353"/>
<path d="M0 88H51" stroke="#535353"/>
<path d="M0 71H51.5" stroke="#535353"/>
<line x1="18.5" y1="21" x2="18.5" y2="106" stroke="#535353"/>
<path d="M35.5 21L35.5 106" stroke="#535353"/>
<path d="M24.4261 7C24.3011 6.61742 24.1364 6.27462 23.9318 5.97159C23.7311 5.66477 23.4905 5.40341 23.2102 5.1875C22.9337 4.97159 22.6193 4.80682 22.267 4.69318C21.9148 4.57955 21.5284 4.52273 21.108 4.52273C20.4186 4.52273 19.7917 4.70076 19.2273 5.05682C18.6629 5.41288 18.214 5.9375 17.8807 6.63068C17.5473 7.32386 17.3807 8.17424 17.3807 9.18182C17.3807 10.1894 17.5492 11.0398 17.8864 11.733C18.2235 12.4261 18.6799 12.9508 19.2557 13.3068C19.8314 13.6629 20.4792 13.8409 21.1989 13.8409C21.8655 13.8409 22.4527 13.6989 22.9602 13.4148C23.4716 13.1269 23.8693 12.7216 24.1534 12.1989C24.4413 11.6723 24.5852 11.053 24.5852 10.3409L25.017 10.4318H21.517V9.18182H25.9489V10.4318C25.9489 11.3902 25.7443 12.2235 25.3352 12.9318C24.9299 13.6402 24.3693 14.1894 23.6534 14.5795C22.9413 14.9659 22.1231 15.1591 21.1989 15.1591C20.1686 15.1591 19.2633 14.9167 18.483 14.4318C17.7064 13.947 17.1004 13.2576 16.6648 12.3636C16.233 11.4697 16.017 10.4091 16.017 9.18182C16.017 8.26136 16.1402 7.43371 16.3864 6.69886C16.6364 5.96023 16.9886 5.33144 17.4432 4.8125C17.8977 4.29356 18.4356 3.89583 19.0568 3.61932C19.678 3.3428 20.3617 3.20455 21.108 3.20455C21.7216 3.20455 22.2936 3.29735 22.8239 3.48295C23.358 3.66477 23.8333 3.92424 24.25 4.26136C24.6705 4.5947 25.0208 4.99432 25.3011 5.46023C25.5814 5.92235 25.7746 6.43561 25.8807 7H24.4261ZM32.0213 15.1591C31.544 15.1515 31.0668 15.0606 30.5895 14.8864C30.1122 14.7121 29.6766 14.4186 29.2827 14.0057C28.8887 13.589 28.5724 13.0265 28.3338 12.3182C28.0952 11.6061 27.9759 10.7121 27.9759 9.63636C27.9759 8.60606 28.0724 7.69318 28.2656 6.89773C28.4588 6.09848 28.7391 5.42614 29.1065 4.88068C29.474 4.33144 29.9171 3.91477 30.4361 3.63068C30.9588 3.34659 31.5478 3.20455 32.2031 3.20455C32.8546 3.20455 33.4342 3.33523 33.9418 3.59659C34.4531 3.85417 34.8698 4.21401 35.1918 4.67614C35.5137 5.13826 35.7221 5.67045 35.8168 6.27273H34.4304C34.3016 5.75 34.0516 5.31629 33.6804 4.97159C33.3092 4.62689 32.8168 4.45455 32.2031 4.45455C31.3016 4.45455 30.5914 4.84659 30.0724 5.63068C29.5573 6.41477 29.2978 7.51515 29.294 8.93182H29.3849C29.5971 8.60985 29.849 8.33523 30.1406 8.10795C30.4361 7.87689 30.7618 7.69886 31.1179 7.57386C31.474 7.44886 31.8509 7.38636 32.2486 7.38636C32.9152 7.38636 33.5251 7.55303 34.0781 7.88636C34.6312 8.21591 35.0743 8.67235 35.4077 9.25568C35.741 9.83523 35.9077 10.5 35.9077 11.25C35.9077 11.9697 35.7467 12.6288 35.4247 13.2273C35.1027 13.822 34.6501 14.2955 34.0668 14.6477C33.4872 14.9962 32.8054 15.1667 32.0213 15.1591ZM32.0213 13.9091C32.4986 13.9091 32.9266 13.7898 33.3054 13.5511C33.688 13.3125 33.9891 12.9924 34.2088 12.5909C34.4323 12.1894 34.544 11.7424 34.544 11.25C34.544 10.7689 34.4361 10.3314 34.2202 9.9375C34.008 9.53977 33.7145 9.22348 33.3395 8.98864C32.9683 8.75379 32.544 8.63636 32.0668 8.63636C31.7069 8.63636 31.3717 8.70833 31.0611 8.85227C30.7505 8.99242 30.4777 9.18561 30.2429 9.43182C30.0118 9.67803 29.83 9.96023 29.6974 10.2784C29.5649 10.5928 29.4986 10.9242 29.4986 11.2727C29.4986 11.7348 29.6065 12.1667 29.8224 12.5682C30.0421 12.9697 30.3414 13.2936 30.7202 13.5398C31.1027 13.786 31.5365 13.9091 32.0213 13.9091Z" fill="#F32851"/>
<path d="M55.5252 44.6195C55.8435 45.1626 55.8435 45.8374 55.5252 46.3805C54.6989 47.7909 53.7909 48.6989 52.3805 49.5252C51.8374 49.8435 51.1626 49.8435 50.6195 49.5252C49.2091 48.6989 48.3011 47.7909 47.4748 46.3805C47.1565 45.8374 47.1565 45.1626 47.4748 44.6195C48.3011 43.2091 49.2091 42.3011 50.6195 41.4748C51.1626 41.1565 51.8374 41.1565 52.3805 41.4748C53.7909 42.3011 54.6989 43.2091 55.5252 44.6195Z" fill="#F32851"/>
<path d="M22.5252 44.6195C22.8435 45.1626 22.8435 45.8374 22.5252 46.3805C21.6989 47.7909 20.7909 48.6989 19.3805 49.5252C18.8374 49.8435 18.1626 49.8435 17.6195 49.5252C16.2091 48.6989 15.3011 47.7909 14.4748 46.3805C14.1565 45.8374 14.1565 45.1626 14.4748 44.6195C15.3011 43.2091 16.2091 42.3011 17.6195 41.4748C18.1626 41.1565 18.8374 41.1565 19.3805 41.4748C20.7909 42.3011 21.6989 43.2091 22.5252 44.6195Z" fill="#F32851"/>
</svg>
