<svg width="56" height="106" viewBox="0 0 56 106" fill="none" xmlns="http://www.w3.org/2000/svg">
<rect x="0.5" y="21.5" width="51" height="84" rx="1.5" stroke="#535353"/>
<line y1="37.4999" x2="52" y2="37.4999" stroke="#535353"/>
<line y1="53.5" x2="52" y2="53.5" stroke="#535353"/>
<path d="M0 88H51" stroke="#535353"/>
<path d="M0 71H51.5" stroke="#535353"/>
<line x1="18.5" y1="21" x2="18.5" y2="106" stroke="#535353"/>
<path d="M35.5 21L35.5 106" stroke="#535353"/>
<path d="M15.598 7C15.473 6.61742 15.3082 6.27462 15.1037 5.97159C14.9029 5.66477 14.6624 5.40341 14.3821 5.1875C14.1056 4.97159 13.7912 4.80682 13.4389 4.69318C13.0866 4.57955 12.7003 4.52273 12.2798 4.52273C11.5904 4.52273 10.9635 4.70076 10.3991 5.05682C9.83475 5.41288 9.38589 5.9375 9.05256 6.63068C8.71922 7.32386 8.55256 8.17424 8.55256 9.18182C8.55256 10.1894 8.72112 11.0398 9.05824 11.733C9.39536 12.4261 9.8518 12.9508 10.4276 13.3068C11.0033 13.6629 11.651 13.8409 12.3707 13.8409C13.0374 13.8409 13.6245 13.6989 14.1321 13.4148C14.6435 13.1269 15.0412 12.7216 15.3253 12.1989C15.6132 11.6723 15.7571 11.053 15.7571 10.3409L16.1889 10.4318H12.6889V9.18182H17.1207V10.4318C17.1207 11.3902 16.9162 12.2235 16.5071 12.9318C16.1018 13.6402 15.5412 14.1894 14.8253 14.5795C14.1132 14.9659 13.295 15.1591 12.3707 15.1591C11.3404 15.1591 10.4351 14.9167 9.65483 14.4318C8.87831 13.947 8.27225 13.2576 7.83665 12.3636C7.40483 11.4697 7.18892 10.4091 7.18892 9.18182C7.18892 8.26136 7.31203 7.43371 7.55824 6.69886C7.80824 5.96023 8.16051 5.33144 8.61506 4.8125C9.0696 4.29356 9.60748 3.89583 10.2287 3.61932C10.8499 3.3428 11.5336 3.20455 12.2798 3.20455C12.8935 3.20455 13.4654 3.29735 13.9957 3.48295C14.5298 3.66477 15.0052 3.92424 15.4219 4.26136C15.8423 4.5947 16.1927 4.99432 16.473 5.46023C16.7533 5.92235 16.9465 6.43561 17.0526 7H15.598ZM22.6477 15.1818C21.9205 15.1818 21.2784 14.9981 20.7216 14.6307C20.1648 14.2595 19.7292 13.7367 19.4148 13.0625C19.1004 12.3845 18.9432 11.5833 18.9432 10.6591C18.9432 9.74242 19.1004 8.94697 19.4148 8.27273C19.7292 7.59848 20.1667 7.07765 20.7273 6.71023C21.2879 6.3428 21.9356 6.15909 22.6705 6.15909C23.2386 6.15909 23.6875 6.25379 24.017 6.44318C24.3504 6.62879 24.6042 6.84091 24.7784 7.07955C24.9564 7.31439 25.0947 7.50758 25.1932 7.65909H25.3068V3.36364H26.6477V15H25.3523V13.6591H25.1932C25.0947 13.8182 24.9545 14.0189 24.7727 14.2614C24.5909 14.5 24.3314 14.714 23.9943 14.9034C23.6572 15.089 23.2083 15.1818 22.6477 15.1818ZM22.8295 13.9773C23.3674 13.9773 23.822 13.8371 24.1932 13.5568C24.5644 13.2727 24.8466 12.8807 25.0398 12.3807C25.233 11.8769 25.3295 11.2955 25.3295 10.6364C25.3295 9.98485 25.2348 9.41477 25.0455 8.92614C24.8561 8.43371 24.5758 8.05114 24.2045 7.77841C23.8333 7.50189 23.375 7.36364 22.8295 7.36364C22.2614 7.36364 21.7879 7.50947 21.4091 7.80114C21.0341 8.08902 20.7519 8.48106 20.5625 8.97727C20.3769 9.4697 20.2841 10.0227 20.2841 10.6364C20.2841 11.2576 20.3788 11.822 20.5682 12.3295C20.7614 12.8333 21.0455 13.2348 21.4205 13.5341C21.7992 13.8295 22.2689 13.9773 22.8295 13.9773ZM29.2898 15V6.27273H30.6307V15H29.2898ZM29.9716 4.81818C29.7102 4.81818 29.4848 4.72917 29.2955 4.55114C29.1098 4.37311 29.017 4.15909 29.017 3.90909C29.017 3.65909 29.1098 3.44508 29.2955 3.26705C29.4848 3.08902 29.7102 3 29.9716 3C30.233 3 30.4564 3.08902 30.642 3.26705C30.8314 3.44508 30.9261 3.65909 30.9261 3.90909C30.9261 4.15909 30.8314 4.37311 30.642 4.55114C30.4564 4.72917 30.233 4.81818 29.9716 4.81818ZM33.0866 15V6.27273H34.3821V7.63636H34.4957C34.6776 7.17045 34.9711 6.80871 35.3764 6.55114C35.7817 6.28977 36.2685 6.15909 36.8366 6.15909C37.4124 6.15909 37.8916 6.28977 38.2741 6.55114C38.6605 6.80871 38.9616 7.17045 39.1776 7.63636H39.2685C39.492 7.18561 39.8272 6.82765 40.2741 6.5625C40.7211 6.29356 41.2571 6.15909 41.8821 6.15909C42.6624 6.15909 43.3007 6.40341 43.7969 6.89205C44.2931 7.37689 44.5412 8.13258 44.5412 9.15909V15H43.2003V9.15909C43.2003 8.51515 43.0241 8.05492 42.6719 7.77841C42.3196 7.50189 41.9048 7.36364 41.4276 7.36364C40.8139 7.36364 40.3385 7.54924 40.0014 7.92045C39.6643 8.28788 39.4957 8.75379 39.4957 9.31818V15H38.1321V9.02273C38.1321 8.52652 37.9711 8.12689 37.6491 7.82386C37.3272 7.51705 36.9124 7.36364 36.4048 7.36364C36.0563 7.36364 35.7306 7.45644 35.4276 7.64205C35.1283 7.82765 34.8859 8.08523 34.7003 8.41477C34.5185 8.74053 34.4276 9.11742 34.4276 9.54545V15H33.0866Z" fill="#F32851"/>
<path d="M55.5252 28.6195C55.8435 29.1626 55.8435 29.8374 55.5252 30.3805C54.6989 31.7909 53.7909 32.6989 52.3805 33.5252C51.8374 33.8435 51.1626 33.8435 50.6195 33.5252C49.2091 32.6989 48.3011 31.7909 47.4748 30.3805C47.1565 29.8374 47.1565 29.1626 47.4748 28.6195C48.3011 27.2091 49.2091 26.3011 50.6195 25.4748C51.1626 25.1565 51.8374 25.1565 52.3805 25.4748C53.7909 26.3011 54.6989 27.2091 55.5252 28.6195Z" fill="#F32851"/>
<path d="M22.5252 28.6195C22.8435 29.1626 22.8435 29.8374 22.5252 30.3805C21.6989 31.7909 20.7909 32.6989 19.3805 33.5252C18.8374 33.8435 18.1626 33.8435 17.6195 33.5252C16.2091 32.6989 15.3011 31.7909 14.4748 30.3805C14.1565 29.8374 14.1565 29.1626 14.4748 28.6195C15.3011 27.2091 16.2091 26.3011 17.6195 25.4748C18.1626 25.1565 18.8374 25.1565 19.3805 25.4748C20.7909 26.3011 21.6989 27.2091 22.5252 28.6195Z" fill="#F32851"/>
<path d="M39.5252 62.6195C39.8435 63.1626 39.8435 63.8374 39.5252 64.3805C38.6989 65.7909 37.7909 66.6989 36.3805 67.5252C35.8374 67.8435 35.1626 67.8435 34.6195 67.5252C33.2091 66.6989 32.3011 65.7909 31.4748 64.3805C31.1565 63.8374 31.1565 63.1626 31.4748 62.6195C32.3011 61.2091 33.2091 60.3011 34.6195 59.4748C35.1626 59.1565 35.8374 59.1565 36.3805 59.4748C37.7909 60.3011 38.6989 61.2091 39.5252 62.6195Z" fill="#F32851"/>
</svg>
