<svg width="56" height="106" viewBox="0 0 56 106" fill="none" xmlns="http://www.w3.org/2000/svg">
<rect x="0.5" y="21.5" width="51" height="84" rx="1.5" stroke="#535353"/>
<line y1="37.4999" x2="52" y2="37.4999" stroke="#535353"/>
<line y1="53.5" x2="52" y2="53.5" stroke="#535353"/>
<path d="M0 88H51" stroke="#535353"/>
<path d="M0 71H51.5" stroke="#535353"/>
<line x1="18.5" y1="21" x2="18.5" y2="106" stroke="#535353"/>
<path d="M35.5 21L35.5 106" stroke="#535353"/>
<path d="M17.8949 7C17.7699 6.61742 17.6051 6.27462 17.4006 5.97159C17.1998 5.66477 16.9593 5.40341 16.679 5.1875C16.4025 4.97159 16.0881 4.80682 15.7358 4.69318C15.3835 4.57955 14.9972 4.52273 14.5767 4.52273C13.8873 4.52273 13.2604 4.70076 12.696 5.05682C12.1316 5.41288 11.6828 5.9375 11.3494 6.63068C11.0161 7.32386 10.8494 8.17424 10.8494 9.18182C10.8494 10.1894 11.018 11.0398 11.3551 11.733C11.6922 12.4261 12.1487 12.9508 12.7244 13.3068C13.3002 13.6629 13.9479 13.8409 14.6676 13.8409C15.3343 13.8409 15.9214 13.6989 16.429 13.4148C16.9403 13.1269 17.3381 12.7216 17.6222 12.1989C17.91 11.6723 18.054 11.053 18.054 10.3409L18.4858 10.4318H14.9858V9.18182H19.4176V10.4318C19.4176 11.3902 19.2131 12.2235 18.804 12.9318C18.3987 13.6402 17.8381 14.1894 17.1222 14.5795C16.41 14.9659 15.5919 15.1591 14.6676 15.1591C13.6373 15.1591 12.732 14.9167 11.9517 14.4318C11.1752 13.947 10.5691 13.2576 10.1335 12.3636C9.7017 11.4697 9.4858 10.4091 9.4858 9.18182C9.4858 8.26136 9.6089 7.43371 9.85511 6.69886C10.1051 5.96023 10.4574 5.33144 10.9119 4.8125C11.3665 4.29356 11.9044 3.89583 12.5256 3.61932C13.1468 3.3428 13.8305 3.20455 14.5767 3.20455C15.1903 3.20455 15.7623 3.29735 16.2926 3.48295C16.8267 3.66477 17.3021 3.92424 17.7188 4.26136C18.1392 4.5947 18.4896 4.99432 18.7699 5.46023C19.0502 5.92235 19.2434 6.43561 19.3494 7H17.8949ZM21.6491 15V6.27273H22.9446V7.63636H23.0582C23.2401 7.17045 23.5336 6.80871 23.9389 6.55114C24.3442 6.28977 24.831 6.15909 25.3991 6.15909C25.9749 6.15909 26.4541 6.28977 26.8366 6.55114C27.223 6.80871 27.5241 7.17045 27.7401 7.63636H27.831C28.0545 7.18561 28.3897 6.82765 28.8366 6.5625C29.2836 6.29356 29.8196 6.15909 30.4446 6.15909C31.2249 6.15909 31.8632 6.40341 32.3594 6.89205C32.8556 7.37689 33.1037 8.13258 33.1037 9.15909V15H31.7628V9.15909C31.7628 8.51515 31.5866 8.05492 31.2344 7.77841C30.8821 7.50189 30.4673 7.36364 29.9901 7.36364C29.3764 7.36364 28.901 7.54924 28.5639 7.92045C28.2268 8.28788 28.0582 8.75379 28.0582 9.31818V15H26.6946V9.02273C26.6946 8.52652 26.5336 8.12689 26.2116 7.82386C25.8897 7.51705 25.4749 7.36364 24.9673 7.36364C24.6188 7.36364 24.2931 7.45644 23.9901 7.64205C23.6908 7.82765 23.4484 8.08523 23.2628 8.41477C23.081 8.74053 22.9901 9.11742 22.9901 9.54545V15H21.6491ZM35.8963 15L41.1009 4.70455V4.61364H35.1009V3.36364H42.5554V4.68182L37.3736 15H35.8963Z" fill="#F32851"/>
<path d="M39.5252 28.6195C39.8435 29.1626 39.8435 29.8374 39.5252 30.3805C38.6989 31.7909 37.7909 32.6989 36.3805 33.5252C35.8374 33.8435 35.1626 33.8435 34.6195 33.5252C33.2091 32.6989 32.3011 31.7909 31.4748 30.3805C31.1565 29.8374 31.1565 29.1626 31.4748 28.6195C32.3011 27.2091 33.2091 26.3011 34.6195 25.4748C35.1626 25.1565 35.8374 25.1565 36.3805 25.4748C37.7909 26.3011 38.6989 27.2091 39.5252 28.6195Z" fill="#F32851"/>
<path d="M22.5252 44.6195C22.8435 45.1626 22.8435 45.8374 22.5252 46.3805C21.6989 47.7909 20.7909 48.6989 19.3805 49.5252C18.8374 49.8435 18.1626 49.8435 17.6195 49.5252C16.2091 48.6989 15.3011 47.7909 14.4748 46.3805C14.1565 45.8374 14.1565 45.1626 14.4748 44.6195C15.3011 43.2091 16.2091 42.3011 17.6195 41.4748C18.1626 41.1565 18.8374 41.1565 19.3805 41.4748C20.7909 42.3011 21.6989 43.2091 22.5252 44.6195Z" fill="#F32851"/>
<path d="M55.5252 28.6195C55.8435 29.1626 55.8435 29.8374 55.5252 30.3805C54.6989 31.7909 53.7909 32.6989 52.3805 33.5252C51.8374 33.8435 51.1626 33.8435 50.6195 33.5252C49.2091 32.6989 48.3011 31.7909 47.4748 30.3805C47.1565 29.8374 47.1565 29.1626 47.4748 28.6195C48.3011 27.2091 49.2091 26.3011 50.6195 25.4748C51.1626 25.1565 51.8374 25.1565 52.3805 25.4748C53.7909 26.3011 54.6989 27.2091 55.5252 28.6195Z" fill="#F32851"/>
</svg>
