<svg width="56" height="106" viewBox="0 0 56 106" fill="none" xmlns="http://www.w3.org/2000/svg">
<rect x="0.5" y="21.5" width="51" height="84" rx="1.5" stroke="#535353"/>
<line y1="37.4999" x2="52" y2="37.4999" stroke="#535353"/>
<line y1="53.5" x2="52" y2="53.5" stroke="#535353"/>
<path d="M0 88H51" stroke="#535353"/>
<path d="M0 71H51.5" stroke="#535353"/>
<line x1="18.5" y1="21" x2="18.5" y2="106" stroke="#535353"/>
<path d="M35.5 21L35.5 106" stroke="#535353"/>
<path d="M13.3026 7C13.1932 6.66525 13.049 6.36529 12.87 6.10014C12.6944 5.83168 12.4839 5.60298 12.2386 5.41406C11.9967 5.22514 11.7216 5.08097 11.4134 4.98153C11.1051 4.8821 10.767 4.83239 10.3991 4.83239C9.79593 4.83239 9.2474 4.98816 8.75355 5.29972C8.25971 5.61127 7.86695 6.07031 7.57528 6.67685C7.28362 7.28338 7.13778 8.02746 7.13778 8.90909C7.13778 9.79072 7.28527 10.5348 7.58026 11.1413C7.87524 11.7479 8.27462 12.2069 8.77841 12.5185C9.2822 12.83 9.84896 12.9858 10.4787 12.9858C11.062 12.9858 11.5758 12.8615 12.0199 12.6129C12.4673 12.361 12.8153 12.0064 13.0639 11.549C13.3158 11.0883 13.4418 10.5464 13.4418 9.9233L13.8196 10.0028H10.7571V8.90909H14.6349V10.0028C14.6349 10.8414 14.456 11.5705 14.098 12.1903C13.7434 12.8101 13.2528 13.2907 12.6264 13.6321C12.0033 13.9702 11.2874 14.1392 10.4787 14.1392C9.57718 14.1392 8.78504 13.9271 8.10227 13.5028C7.42282 13.0786 6.89252 12.4754 6.51136 11.6932C6.13352 10.911 5.9446 9.98295 5.9446 8.90909C5.9446 8.10369 6.05232 7.3795 6.26776 6.73651C6.48651 6.0902 6.79474 5.54001 7.19247 5.08594C7.5902 4.63187 8.06084 4.28385 8.6044 4.0419C9.14796 3.79995 9.74621 3.67898 10.3991 3.67898C10.9361 3.67898 11.4366 3.76018 11.9006 3.92258C12.3679 4.08168 12.7839 4.30871 13.1484 4.60369C13.5163 4.89536 13.8229 5.24503 14.0682 5.6527C14.3134 6.05705 14.4825 6.50616 14.5753 7H13.3026ZM16.5875 14V6.36364H17.7211V7.55682H17.8205C17.9796 7.14915 18.2364 6.83262 18.5911 6.60724C18.9457 6.37855 19.3716 6.2642 19.8688 6.2642C20.3726 6.2642 20.7918 6.37855 21.1266 6.60724C21.4647 6.83262 21.7282 7.14915 21.9171 7.55682H21.9966C22.1922 7.16241 22.4855 6.84919 22.8766 6.61719C23.2677 6.38187 23.7367 6.2642 24.2836 6.2642C24.9663 6.2642 25.5248 6.47798 25.959 6.90554C26.3932 7.32978 26.6103 7.991 26.6103 8.8892V14H25.437V8.8892C25.437 8.32576 25.2828 7.92306 24.9746 7.68111C24.6664 7.43916 24.3034 7.31818 23.8858 7.31818C23.3489 7.31818 22.9329 7.48059 22.638 7.8054C22.343 8.12689 22.1955 8.53456 22.1955 9.02841V14H21.0023V8.76989C21.0023 8.3357 20.8614 7.98603 20.5797 7.72088C20.298 7.45241 19.9351 7.31818 19.4909 7.31818C19.186 7.31818 18.901 7.39938 18.6358 7.56179C18.374 7.72419 18.1619 7.94957 17.9995 8.23793C17.8404 8.52296 17.7608 8.85275 17.7608 9.22727V14H16.5875ZM31.0027 14.179C30.5188 14.179 30.0796 14.0878 29.6852 13.9055C29.2908 13.7199 28.9776 13.4531 28.7456 13.1051C28.5136 12.7538 28.3975 12.3295 28.3975 11.8324C28.3975 11.3949 28.4837 11.0402 28.6561 10.7685C28.8284 10.4934 29.0588 10.2779 29.3471 10.1222C29.6355 9.96638 29.9537 9.85038 30.3017 9.77415C30.653 9.6946 31.006 9.63163 31.3606 9.58523C31.8246 9.52557 32.2008 9.48082 32.4892 9.45099C32.7808 9.41785 32.993 9.36316 33.1255 9.28693C33.2614 9.2107 33.3294 9.07812 33.3294 8.8892V8.84943C33.3294 8.3589 33.1951 7.97775 32.9267 7.70597C32.6615 7.43419 32.2588 7.2983 31.7186 7.2983C31.1584 7.2983 30.7193 7.42093 30.4011 7.66619C30.0829 7.91146 29.8592 8.1733 29.7299 8.4517L28.6163 8.05398C28.8152 7.58996 29.0803 7.22869 29.4118 6.97017C29.7465 6.70833 30.1111 6.52604 30.5055 6.4233C30.9032 6.31723 31.2943 6.2642 31.6788 6.2642C31.9241 6.2642 32.2058 6.29403 32.524 6.35369C32.8455 6.41004 33.1554 6.5277 33.4537 6.70668C33.7553 6.88565 34.0055 7.15578 34.2044 7.51705C34.4032 7.87831 34.5027 8.36222 34.5027 8.96875V14H33.3294V12.9659H33.2697C33.1902 13.1316 33.0576 13.3089 32.872 13.4979C32.6864 13.6868 32.4395 13.8475 32.1312 13.9801C31.823 14.1127 31.4468 14.179 31.0027 14.179ZM31.1816 13.125C31.6457 13.125 32.0368 13.0339 32.3549 12.8516C32.6764 12.6693 32.9184 12.4339 33.0808 12.1456C33.2465 11.8572 33.3294 11.554 33.3294 11.2358V10.1619C33.2797 10.2216 33.1703 10.2763 33.0012 10.326C32.8355 10.3724 32.6433 10.4138 32.4245 10.4503C32.2091 10.4834 31.9986 10.5133 31.7931 10.5398C31.591 10.563 31.4269 10.5829 31.301 10.5994C30.996 10.6392 30.711 10.7038 30.4458 10.7933C30.184 10.8795 29.9719 11.0104 29.8095 11.1861C29.6504 11.3584 29.5708 11.5937 29.5708 11.892C29.5708 12.2997 29.7217 12.608 30.0233 12.8168C30.3282 13.0223 30.7143 13.125 31.1816 13.125ZM36.6442 6.36364H37.8175V14.5568C37.8175 15.0275 37.7363 15.4351 37.5739 15.7798C37.4148 16.1245 37.1728 16.3913 36.848 16.5803C36.5265 16.7692 36.1205 16.8636 35.63 16.8636C35.5902 16.8636 35.5504 16.8636 35.5107 16.8636C35.4709 16.8636 35.4311 16.8636 35.3913 16.8636V15.7699C35.4311 15.7699 35.4676 15.7699 35.5007 15.7699C35.5339 15.7699 35.5703 15.7699 35.6101 15.7699C35.968 15.7699 36.2299 15.6638 36.3956 15.4517C36.5613 15.2429 36.6442 14.9446 36.6442 14.5568V6.36364ZM37.2209 5.09091C36.9922 5.09091 36.795 5.01302 36.6293 4.85724C36.4669 4.70147 36.3857 4.5142 36.3857 4.29545C36.3857 4.0767 36.4669 3.88944 36.6293 3.73366C36.795 3.57789 36.9922 3.5 37.2209 3.5C37.4496 3.5 37.6451 3.57789 37.8075 3.73366C37.9732 3.88944 38.0561 4.0767 38.0561 4.29545C38.0561 4.5142 37.9732 4.70147 37.8075 4.85724C37.6451 5.01302 37.4496 5.09091 37.2209 5.09091ZM40.2647 14L44.8187 4.99148V4.91193H39.5687V3.81818H46.0914V4.97159L41.5574 14H40.2647Z" fill="#F32851"/>
<path d="M39.5252 44.6195C39.8435 45.1626 39.8435 45.8374 39.5252 46.3805C38.6989 47.7909 37.7909 48.6989 36.3805 49.5252C35.8374 49.8435 35.1626 49.8435 34.6195 49.5252C33.2091 48.6989 32.3011 47.7909 31.4748 46.3805C31.1565 45.8374 31.1565 45.1626 31.4748 44.6195C32.3011 43.2091 33.2091 42.3011 34.6195 41.4748C35.1626 41.1565 35.8374 41.1565 36.3805 41.4748C37.7909 42.3011 38.6989 43.2091 39.5252 44.6195Z" fill="#F32851"/>
<path d="M55.5252 44.6195C55.8435 45.1626 55.8435 45.8374 55.5252 46.3805C54.6989 47.7909 53.7909 48.6989 52.3805 49.5252C51.8374 49.8435 51.1626 49.8435 50.6195 49.5252C49.2091 48.6989 48.3011 47.7909 47.4748 46.3805C47.1565 45.8374 47.1565 45.1626 47.4748 44.6195C48.3011 43.2091 49.2091 42.3011 50.6195 41.4748C51.1626 41.1565 51.8374 41.1565 52.3805 41.4748C53.7909 42.3011 54.6989 43.2091 55.5252 44.6195Z" fill="#F32851"/>
<path d="M22.5252 44.6195C22.8435 45.1626 22.8435 45.8374 22.5252 46.3805C21.6989 47.7909 20.7909 48.6989 19.3805 49.5252C18.8374 49.8435 18.1626 49.8435 17.6195 49.5252C16.2091 48.6989 15.3011 47.7909 14.4748 46.3805C14.1565 45.8374 14.1565 45.1626 14.4748 44.6195C15.3011 43.2091 16.2091 42.3011 17.6195 41.4748C18.1626 41.1565 18.8374 41.1565 19.3805 41.4748C20.7909 42.3011 21.6989 43.2091 22.5252 44.6195Z" fill="#F32851"/>
</svg>
