<svg width="60" height="106" viewBox="0 0 60 106" fill="none" xmlns="http://www.w3.org/2000/svg">
<rect x="4.5" y="21.5" width="51" height="84" rx="1.5" stroke="#535353"/>
<line x1="4" y1="37.4998" x2="56" y2="37.4998" stroke="#535353"/>
<line x1="4" y1="53.5" x2="56" y2="53.5" stroke="#535353"/>
<path d="M4 88H55" stroke="#535353"/>
<path d="M4 71H55.5" stroke="#535353"/>
<line x1="22.5" y1="21" x2="22.5" y2="106" stroke="#535353"/>
<path d="M39.5 21L39.5 106" stroke="#535353"/>
<path d="M23.3793 7C23.2543 6.61742 23.0895 6.27462 22.8849 5.97159C22.6842 5.66477 22.4437 5.40341 22.1634 5.1875C21.8868 4.97159 21.5724 4.80682 21.2202 4.69318C20.8679 4.57955 20.4815 4.52273 20.0611 4.52273C19.3717 4.52273 18.7448 4.70076 18.1804 5.05682C17.616 5.41288 17.1671 5.9375 16.8338 6.63068C16.5005 7.32386 16.3338 8.17424 16.3338 9.18182C16.3338 10.1894 16.5024 11.0398 16.8395 11.733C17.1766 12.4261 17.633 12.9508 18.2088 13.3068C18.7846 13.6629 19.4323 13.8409 20.152 13.8409C20.8187 13.8409 21.4058 13.6989 21.9134 13.4148C22.4247 13.1269 22.8224 12.7216 23.1065 12.1989C23.3944 11.6723 23.5384 11.053 23.5384 10.3409L23.9702 10.4318H20.4702V9.18182H24.902V10.4318C24.902 11.3902 24.6974 12.2235 24.2884 12.9318C23.883 13.6402 23.3224 14.1894 22.6065 14.5795C21.8944 14.9659 21.0762 15.1591 20.152 15.1591C19.1217 15.1591 18.2164 14.9167 17.4361 14.4318C16.6596 13.947 16.0535 13.2576 15.6179 12.3636C15.1861 11.4697 14.9702 10.4091 14.9702 9.18182C14.9702 8.26136 15.0933 7.43371 15.3395 6.69886C15.5895 5.96023 15.9418 5.33144 16.3963 4.8125C16.8509 4.29356 17.3887 3.89583 18.0099 3.61932C18.6312 3.3428 19.3149 3.20455 20.0611 3.20455C20.6747 3.20455 21.2467 3.29735 21.777 3.48295C22.3111 3.66477 22.7865 3.92424 23.2031 4.26136C23.6236 4.5947 23.974 4.99432 24.2543 5.46023C24.5346 5.92235 24.7277 6.43561 24.8338 7H23.3793ZM31.4744 15L33.3835 3.36364H34.5199L32.6108 15H31.4744ZM26.179 11.7727L26.3608 10.6364H35.0426L34.8608 11.7727H26.179ZM27.3835 15L29.2926 3.36364H30.429L28.5199 15H27.3835ZM26.8608 7.72727L27.0426 6.59091H35.7244L35.5426 7.72727H26.8608ZM41.0682 15.1591C40.5909 15.1515 40.1136 15.0606 39.6364 14.8864C39.1591 14.7121 38.7235 14.4186 38.3295 14.0057C37.9356 13.589 37.6193 13.0265 37.3807 12.3182C37.142 11.6061 37.0227 10.7121 37.0227 9.63636C37.0227 8.60606 37.1193 7.69318 37.3125 6.89773C37.5057 6.09848 37.786 5.42614 38.1534 4.88068C38.5208 4.33144 38.964 3.91477 39.483 3.63068C40.0057 3.34659 40.5947 3.20455 41.25 3.20455C41.9015 3.20455 42.4811 3.33523 42.9886 3.59659C43.5 3.85417 43.9167 4.21401 44.2386 4.67614C44.5606 5.13826 44.7689 5.67045 44.8636 6.27273H43.4773C43.3485 5.75 43.0985 5.31629 42.7273 4.97159C42.3561 4.62689 41.8636 4.45455 41.25 4.45455C40.3485 4.45455 39.6383 4.84659 39.1193 5.63068C38.6042 6.41477 38.3447 7.51515 38.3409 8.93182H38.4318C38.6439 8.60985 38.8958 8.33523 39.1875 8.10795C39.483 7.87689 39.8087 7.69886 40.1648 7.57386C40.5208 7.44886 40.8977 7.38636 41.2955 7.38636C41.9621 7.38636 42.572 7.55303 43.125 7.88636C43.678 8.21591 44.1212 8.67235 44.4545 9.25568C44.7879 9.83523 44.9545 10.5 44.9545 11.25C44.9545 11.9697 44.7936 12.6288 44.4716 13.2273C44.1496 13.822 43.697 14.2955 43.1136 14.6477C42.5341 14.9962 41.8523 15.1667 41.0682 15.1591ZM41.0682 13.9091C41.5455 13.9091 41.9735 13.7898 42.3523 13.5511C42.7348 13.3125 43.036 12.9924 43.2557 12.5909C43.4792 12.1894 43.5909 11.7424 43.5909 11.25C43.5909 10.7689 43.483 10.3314 43.267 9.9375C43.0549 9.53977 42.7614 9.22348 42.3864 8.98864C42.0152 8.75379 41.5909 8.63636 41.1136 8.63636C40.7538 8.63636 40.4186 8.70833 40.108 8.85227C39.7973 8.99242 39.5246 9.18561 39.2898 9.43182C39.0587 9.67803 38.8769 9.96023 38.7443 10.2784C38.6117 10.5928 38.5455 10.9242 38.5455 11.2727C38.5455 11.7348 38.6534 12.1667 38.8693 12.5682C39.089 12.9697 39.3883 13.2936 39.767 13.5398C40.1496 13.786 40.5833 13.9091 41.0682 13.9091Z" fill="#F32851"/>
<path d="M43.5252 28.6195C43.8435 29.1626 43.8435 29.8374 43.5252 30.3805C42.6989 31.7909 41.7909 32.6989 40.3805 33.5252C39.8374 33.8435 39.1626 33.8435 38.6195 33.5252C37.2091 32.6989 36.3011 31.7909 35.4748 30.3805C35.1565 29.8374 35.1565 29.1626 35.4748 28.6195C36.3011 27.2091 37.2091 26.3011 38.6195 25.4748C39.1626 25.1565 39.8374 25.1565 40.3805 25.4748C41.7909 26.3011 42.6989 27.2091 43.5252 28.6195Z" fill="#F32851"/>
<path d="M8.52523 28.6195C8.84348 29.1626 8.84348 29.8374 8.52523 30.3805C7.69886 31.7909 6.79088 32.6989 5.38054 33.5252C4.83739 33.8435 4.16261 33.8435 3.61946 33.5252C2.20912 32.6989 1.30114 31.7909 0.474768 30.3805C0.15652 29.8374 0.15652 29.1626 0.474768 28.6195C1.30114 27.2091 2.20912 26.3011 3.61946 25.4748C4.16261 25.1565 4.83739 25.1565 5.38054 25.4748C6.79088 26.3011 7.69886 27.2091 8.52523 28.6195Z" fill="#F32851"/>
<path d="M26.5252 61.6195C26.8435 62.1626 26.8435 62.8374 26.5252 63.3805C25.6989 64.7909 24.7909 65.6989 23.3805 66.5252C22.8374 66.8435 22.1626 66.8435 21.6195 66.5252C20.2091 65.6989 19.3011 64.7909 18.4748 63.3805C18.1565 62.8374 18.1565 62.1626 18.4748 61.6195C19.3011 60.2091 20.2091 59.3011 21.6195 58.4748C22.1626 58.1565 22.8374 58.1565 23.3805 58.4748C24.7909 59.3011 25.6989 60.2091 26.5252 61.6195Z" fill="#F32851"/>
<path d="M59.5252 61.6195C59.8435 62.1626 59.8435 62.8374 59.5252 63.3805C58.6989 64.7909 57.7909 65.6989 56.3805 66.5252C55.8374 66.8435 55.1626 66.8435 54.6195 66.5252C53.2091 65.6989 52.3011 64.7909 51.4748 63.3805C51.1565 62.8374 51.1565 62.1626 51.4748 61.6195C52.3011 60.2091 53.2091 59.3011 54.6195 58.4748C55.1626 58.1565 55.8374 58.1565 56.3805 58.4748C57.7909 59.3011 58.6989 60.2091 59.5252 61.6195Z" fill="#F32851"/>
</svg>
