<svg width="60" height="106" viewBox="0 0 60 106" fill="none" xmlns="http://www.w3.org/2000/svg">
<rect x="4.5" y="21.5" width="51" height="84" rx="1.5" stroke="#535353"/>
<line x1="4" y1="37.4998" x2="56" y2="37.4998" stroke="#535353"/>
<line x1="4" y1="53.5" x2="56" y2="53.5" stroke="#535353"/>
<path d="M4 88H55" stroke="#535353"/>
<path d="M4 71H55.5" stroke="#535353"/>
<line x1="22.5" y1="21" x2="22.5" y2="106" stroke="#535353"/>
<path d="M39.5 21L39.5 106" stroke="#535353"/>
<path d="M23.8011 7C23.6761 6.61742 23.5114 6.27462 23.3068 5.97159C23.1061 5.66477 22.8655 5.40341 22.5852 5.1875C22.3087 4.97159 21.9943 4.80682 21.642 4.69318C21.2898 4.57955 20.9034 4.52273 20.483 4.52273C19.7936 4.52273 19.1667 4.70076 18.6023 5.05682C18.0379 5.41288 17.589 5.9375 17.2557 6.63068C16.9223 7.32386 16.7557 8.17424 16.7557 9.18182C16.7557 10.1894 16.9242 11.0398 17.2614 11.733C17.5985 12.4261 18.0549 12.9508 18.6307 13.3068C19.2064 13.6629 19.8542 13.8409 20.5739 13.8409C21.2405 13.8409 21.8277 13.6989 22.3352 13.4148C22.8466 13.1269 23.2443 12.7216 23.5284 12.1989C23.8163 11.6723 23.9602 11.053 23.9602 10.3409L24.392 10.4318H20.892V9.18182H25.3239V10.4318C25.3239 11.3902 25.1193 12.2235 24.7102 12.9318C24.3049 13.6402 23.7443 14.1894 23.0284 14.5795C22.3163 14.9659 21.4981 15.1591 20.5739 15.1591C19.5436 15.1591 18.6383 14.9167 17.858 14.4318C17.0814 13.947 16.4754 13.2576 16.0398 12.3636C15.608 11.4697 15.392 10.4091 15.392 9.18182C15.392 8.26136 15.5152 7.43371 15.7614 6.69886C16.0114 5.96023 16.3636 5.33144 16.8182 4.8125C17.2727 4.29356 17.8106 3.89583 18.4318 3.61932C19.053 3.3428 19.7367 3.20455 20.483 3.20455C21.0966 3.20455 21.6686 3.29735 22.1989 3.48295C22.733 3.66477 23.2083 3.92424 23.625 4.26136C24.0455 4.5947 24.3958 4.99432 24.6761 5.46023C24.9564 5.92235 25.1496 6.43561 25.2557 7H23.8011ZM31.8963 15L33.8054 3.36364H34.9418L33.0327 15H31.8963ZM26.6009 11.7727L26.7827 10.6364H35.4645L35.2827 11.7727H26.6009ZM27.8054 15L29.7145 3.36364H30.8509L28.9418 15H27.8054ZM27.2827 7.72727L27.4645 6.59091H36.1463L35.9645 7.72727H27.2827ZM37.9901 15L43.1946 4.70455V4.61364H37.1946V3.36364H44.6491V4.68182L39.4673 15H37.9901Z" fill="#F32851"/>
<path d="M43.5252 44.6195C43.8435 45.1626 43.8435 45.8374 43.5252 46.3805C42.6989 47.7909 41.7909 48.6989 40.3805 49.5252C39.8374 49.8435 39.1626 49.8435 38.6195 49.5252C37.2091 48.6989 36.3011 47.7909 35.4748 46.3805C35.1565 45.8374 35.1565 45.1626 35.4748 44.6195C36.3011 43.2091 37.2091 42.3011 38.6195 41.4748C39.1626 41.1565 39.8374 41.1565 40.3805 41.4748C41.7909 42.3011 42.6989 43.2091 43.5252 44.6195Z" fill="#F32851"/>
<path d="M59.5252 61.6195C59.8435 62.1626 59.8435 62.8374 59.5252 63.3805C58.6989 64.7909 57.7909 65.6989 56.3805 66.5252C55.8374 66.8435 55.1626 66.8435 54.6195 66.5252C53.2091 65.6989 52.3011 64.7909 51.4748 63.3805C51.1565 62.8374 51.1565 62.1626 51.4748 61.6195C52.3011 60.2091 53.2091 59.3011 54.6195 58.4748C55.1626 58.1565 55.8374 58.1565 56.3805 58.4748C57.7909 59.3011 58.6989 60.2091 59.5252 61.6195Z" fill="#F32851"/>
<path d="M8.52523 28.6195C8.84348 29.1626 8.84348 29.8374 8.52523 30.3805C7.69886 31.7909 6.79088 32.6989 5.38054 33.5252C4.83739 33.8435 4.16261 33.8435 3.61946 33.5252C2.20912 32.6989 1.30114 31.7909 0.474768 30.3805C0.15652 29.8374 0.15652 29.1626 0.474768 28.6195C1.30114 27.2091 2.20912 26.3011 3.61946 25.4748C4.16261 25.1565 4.83739 25.1565 5.38054 25.4748C6.79088 26.3011 7.69886 27.2091 8.52523 28.6195Z" fill="#F32851"/>
<path d="M26.5252 61.6195C26.8435 62.1626 26.8435 62.8374 26.5252 63.3805C25.6989 64.7909 24.7909 65.6989 23.3805 66.5252C22.8374 66.8435 22.1626 66.8435 21.6195 66.5252C20.2091 65.6989 19.3011 64.7909 18.4748 63.3805C18.1565 62.8374 18.1565 62.1626 18.4748 61.6195C19.3011 60.2091 20.2091 59.3011 21.6195 58.4748C22.1626 58.1565 22.8374 58.1565 23.3805 58.4748C24.7909 59.3011 25.6989 60.2091 26.5252 61.6195Z" fill="#F32851"/>
</svg>
