<svg width="60" height="106" viewBox="0 0 60 106" fill="none" xmlns="http://www.w3.org/2000/svg">
<rect x="4.5" y="21.5" width="51" height="84" rx="1.5" stroke="#535353"/>
<line x1="4" y1="37.4998" x2="56" y2="37.4998" stroke="#535353"/>
<line x1="4" y1="53.5" x2="56" y2="53.5" stroke="#535353"/>
<path d="M4 88H55" stroke="#535353"/>
<path d="M4 71H55.5" stroke="#535353"/>
<line x1="22.5" y1="21" x2="22.5" y2="106" stroke="#535353"/>
<path d="M39.5 21L39.5 106" stroke="#535353"/>
<path d="M16.848 7C16.723 6.61742 16.5582 6.27462 16.3537 5.97159C16.1529 5.66477 15.9124 5.40341 15.6321 5.1875C15.3556 4.97159 15.0412 4.80682 14.6889 4.69318C14.3366 4.57955 13.9503 4.52273 13.5298 4.52273C12.8404 4.52273 12.2135 4.70076 11.6491 5.05682C11.0848 5.41288 10.6359 5.9375 10.3026 6.63068C9.96922 7.32386 9.80256 8.17424 9.80256 9.18182C9.80256 10.1894 9.97112 11.0398 10.3082 11.733C10.6454 12.4261 11.1018 12.9508 11.6776 13.3068C12.2533 13.6629 12.901 13.8409 13.6207 13.8409C14.2874 13.8409 14.8745 13.6989 15.3821 13.4148C15.8935 13.1269 16.2912 12.7216 16.5753 12.1989C16.8632 11.6723 17.0071 11.053 17.0071 10.3409L17.4389 10.4318H13.9389V9.18182H18.3707V10.4318C18.3707 11.3902 18.1662 12.2235 17.7571 12.9318C17.3518 13.6402 16.7912 14.1894 16.0753 14.5795C15.3632 14.9659 14.545 15.1591 13.6207 15.1591C12.5904 15.1591 11.6851 14.9167 10.9048 14.4318C10.1283 13.947 9.52225 13.2576 9.08665 12.3636C8.65483 11.4697 8.43892 10.4091 8.43892 9.18182C8.43892 8.26136 8.56203 7.43371 8.80824 6.69886C9.05824 5.96023 9.41051 5.33144 9.86506 4.8125C10.3196 4.29356 10.8575 3.89583 11.4787 3.61932C12.0999 3.3428 12.7836 3.20455 13.5298 3.20455C14.1435 3.20455 14.7154 3.29735 15.2457 3.48295C15.7798 3.66477 16.2552 3.92424 16.6719 4.26136C17.0923 4.5947 17.4427 4.99432 17.723 5.46023C18.0033 5.92235 18.1965 6.43561 18.3026 7H16.848ZM24.9432 15L26.8523 3.36364H27.9886L26.0795 15H24.9432ZM19.6477 11.7727L19.8295 10.6364H28.5114L28.3295 11.7727H19.6477ZM20.8523 15L22.7614 3.36364H23.8977L21.9886 15H20.8523ZM20.3295 7.72727L20.5114 6.59091H29.1932L29.0114 7.72727H20.3295ZM30.696 15V6.27273H31.9915V7.63636H32.1051C32.2869 7.17045 32.5805 6.80871 32.9858 6.55114C33.3911 6.28977 33.8778 6.15909 34.446 6.15909C35.0218 6.15909 35.5009 6.28977 35.8835 6.55114C36.2699 6.80871 36.571 7.17045 36.7869 7.63636H36.8778C37.1013 7.18561 37.4366 6.82765 37.8835 6.5625C38.3305 6.29356 38.8665 6.15909 39.4915 6.15909C40.2718 6.15909 40.91 6.40341 41.4062 6.89205C41.9025 7.37689 42.1506 8.13258 42.1506 9.15909V15H40.8097V9.15909C40.8097 8.51515 40.6335 8.05492 40.2812 7.77841C39.929 7.50189 39.5142 7.36364 39.0369 7.36364C38.4233 7.36364 37.9479 7.54924 37.6108 7.92045C37.2737 8.28788 37.1051 8.75379 37.1051 9.31818V15H35.7415V9.02273C35.7415 8.52652 35.5805 8.12689 35.2585 7.82386C34.9366 7.51705 34.5218 7.36364 34.0142 7.36364C33.6657 7.36364 33.34 7.45644 33.0369 7.64205C32.7377 7.82765 32.4953 8.08523 32.3097 8.41477C32.1278 8.74053 32.0369 9.11742 32.0369 9.54545V15H30.696ZM44.9432 15L50.1477 4.70455V4.61364H44.1477V3.36364H51.6023V4.68182L46.4205 15H44.9432Z" fill="#F32851"/>
<path d="M26.5252 61.6195C26.8435 62.1626 26.8435 62.8374 26.5252 63.3805C25.6989 64.7909 24.7909 65.6989 23.3805 66.5252C22.8374 66.8435 22.1626 66.8435 21.6195 66.5252C20.2091 65.6989 19.3011 64.7909 18.4748 63.3805C18.1565 62.8374 18.1565 62.1626 18.4748 61.6195C19.3011 60.2091 20.2091 59.3011 21.6195 58.4748C22.1626 58.1565 22.8374 58.1565 23.3805 58.4748C24.7909 59.3011 25.6989 60.2091 26.5252 61.6195Z" fill="#F32851"/>
<path d="M43.5252 44.6195C43.8435 45.1626 43.8435 45.8374 43.5252 46.3805C42.6989 47.7909 41.7909 48.6989 40.3805 49.5252C39.8374 49.8435 39.1626 49.8435 38.6195 49.5252C37.2091 48.6989 36.3011 47.7909 35.4748 46.3805C35.1565 45.8374 35.1565 45.1626 35.4748 44.6195C36.3011 43.2091 37.2091 42.3011 38.6195 41.4748C39.1626 41.1565 39.8374 41.1565 40.3805 41.4748C41.7909 42.3011 42.6989 43.2091 43.5252 44.6195Z" fill="#F32851"/>
<path d="M59.5252 44.6195C59.8435 45.1626 59.8435 45.8374 59.5252 46.3805C58.6989 47.7909 57.7909 48.6989 56.3805 49.5252C55.8374 49.8435 55.1626 49.8435 54.6195 49.5252C53.2091 48.6989 52.3011 47.7909 51.4748 46.3805C51.1565 45.8374 51.1565 45.1626 51.4748 44.6195C52.3011 43.2091 53.2091 42.3011 54.6195 41.4748C55.1626 41.1565 55.8374 41.1565 56.3805 41.4748C57.7909 42.3011 58.6989 43.2091 59.5252 44.6195Z" fill="#F32851"/>
<path d="M8.52523 28.6195C8.84348 29.1626 8.84348 29.8374 8.52523 30.3805C7.69886 31.7909 6.79088 32.6989 5.38054 33.5252C4.83739 33.8435 4.16261 33.8435 3.61946 33.5252C2.20912 32.6989 1.30114 31.7909 0.474768 30.3805C0.15652 29.8374 0.15652 29.1626 0.474768 28.6195C1.30114 27.2091 2.20912 26.3011 3.61946 25.4748C4.16261 25.1565 4.83739 25.1565 5.38054 25.4748C6.79088 26.3011 7.69886 27.2091 8.52523 28.6195Z" fill="#F32851"/>
</svg>
