<svg width="60" height="106" viewBox="0 0 60 106" fill="none" xmlns="http://www.w3.org/2000/svg">
<rect x="4.5" y="21.5" width="51" height="84" rx="1.5" stroke="#535353"/>
<line x1="4" y1="37.4998" x2="56" y2="37.4998" stroke="#535353"/>
<line x1="4" y1="53.5" x2="56" y2="53.5" stroke="#535353"/>
<path d="M4 88H55" stroke="#535353"/>
<path d="M4 71H55.5" stroke="#535353"/>
<line x1="22.5" y1="21" x2="22.5" y2="106" stroke="#535353"/>
<path d="M39.5 21L39.5 106" stroke="#535353"/>
<path d="M16.4261 7C16.3011 6.61742 16.1364 6.27462 15.9318 5.97159C15.7311 5.66477 15.4905 5.40341 15.2102 5.1875C14.9337 4.97159 14.6193 4.80682 14.267 4.69318C13.9148 4.57955 13.5284 4.52273 13.108 4.52273C12.4186 4.52273 11.7917 4.70076 11.2273 5.05682C10.6629 5.41288 10.214 5.9375 9.88068 6.63068C9.54735 7.32386 9.38068 8.17424 9.38068 9.18182C9.38068 10.1894 9.54924 11.0398 9.88636 11.733C10.2235 12.4261 10.6799 12.9508 11.2557 13.3068C11.8314 13.6629 12.4792 13.8409 13.1989 13.8409C13.8655 13.8409 14.4527 13.6989 14.9602 13.4148C15.4716 13.1269 15.8693 12.7216 16.1534 12.1989C16.4413 11.6723 16.5852 11.053 16.5852 10.3409L17.017 10.4318H13.517V9.18182H17.9489V10.4318C17.9489 11.3902 17.7443 12.2235 17.3352 12.9318C16.9299 13.6402 16.3693 14.1894 15.6534 14.5795C14.9413 14.9659 14.1231 15.1591 13.1989 15.1591C12.1686 15.1591 11.2633 14.9167 10.483 14.4318C9.70644 13.947 9.10038 13.2576 8.66477 12.3636C8.23295 11.4697 8.01705 10.4091 8.01705 9.18182C8.01705 8.26136 8.14015 7.43371 8.38636 6.69886C8.63636 5.96023 8.98864 5.33144 9.44318 4.8125C9.89773 4.29356 10.4356 3.89583 11.0568 3.61932C11.678 3.3428 12.3617 3.20455 13.108 3.20455C13.7216 3.20455 14.2936 3.29735 14.8239 3.48295C15.358 3.66477 15.8333 3.92424 16.25 4.26136C16.6705 4.5947 17.0208 4.99432 17.3011 5.46023C17.5814 5.92235 17.7746 6.43561 17.8807 7H16.4261ZM24.5213 15L26.4304 3.36364H27.5668L25.6577 15H24.5213ZM19.2259 11.7727L19.4077 10.6364H28.0895L27.9077 11.7727H19.2259ZM20.4304 15L22.3395 3.36364H23.4759L21.5668 15H20.4304ZM19.9077 7.72727L20.0895 6.59091H28.7713L28.5895 7.72727H19.9077ZM30.2741 15V6.27273H31.5696V7.63636H31.6832C31.8651 7.17045 32.1586 6.80871 32.5639 6.55114C32.9692 6.28977 33.456 6.15909 34.0241 6.15909C34.5999 6.15909 35.0791 6.28977 35.4616 6.55114C35.848 6.80871 36.1491 7.17045 36.3651 7.63636H36.456C36.6795 7.18561 37.0147 6.82765 37.4616 6.5625C37.9086 6.29356 38.4446 6.15909 39.0696 6.15909C39.8499 6.15909 40.4882 6.40341 40.9844 6.89205C41.4806 7.37689 41.7287 8.13258 41.7287 9.15909V15H40.3878V9.15909C40.3878 8.51515 40.2116 8.05492 39.8594 7.77841C39.5071 7.50189 39.0923 7.36364 38.6151 7.36364C38.0014 7.36364 37.526 7.54924 37.1889 7.92045C36.8518 8.28788 36.6832 8.75379 36.6832 9.31818V15H35.3196V9.02273C35.3196 8.52652 35.1586 8.12689 34.8366 7.82386C34.5147 7.51705 34.0999 7.36364 33.5923 7.36364C33.2438 7.36364 32.9181 7.45644 32.6151 7.64205C32.3158 7.82765 32.0734 8.08523 31.8878 8.41477C31.706 8.74053 31.6151 9.11742 31.6151 9.54545V15H30.2741ZM47.8622 3.20455C48.3395 3.20833 48.8168 3.29924 49.294 3.47727C49.7713 3.6553 50.2069 3.95076 50.6009 4.36364C50.9948 4.77273 51.3111 5.33144 51.5497 6.03977C51.7884 6.74811 51.9077 7.63636 51.9077 8.70455C51.9077 9.73864 51.8092 10.6572 51.6122 11.4602C51.419 12.2595 51.1387 12.9337 50.7713 13.483C50.4077 14.0322 49.9645 14.4489 49.4418 14.733C48.9228 15.017 48.3357 15.1591 47.6804 15.1591C47.0289 15.1591 46.4474 15.0303 45.9361 14.7727C45.4285 14.5114 45.0118 14.1496 44.6861 13.6875C44.3641 13.2216 44.1577 12.6818 44.0668 12.0682H45.4531C45.5781 12.6023 45.8262 13.0436 46.1974 13.392C46.5724 13.7367 47.0668 13.9091 47.6804 13.9091C48.5781 13.9091 49.2865 13.517 49.8054 12.733C50.3281 11.9489 50.5895 10.8409 50.5895 9.40909H50.4986C50.2865 9.72727 50.0346 10.0019 49.7429 10.233C49.4512 10.464 49.1274 10.642 48.7713 10.767C48.4152 10.892 48.0365 10.9545 47.6349 10.9545C46.9683 10.9545 46.3565 10.7898 45.7997 10.4602C45.2467 10.1269 44.8035 9.67045 44.4702 9.09091C44.1406 8.50758 43.9759 7.84091 43.9759 7.09091C43.9759 6.37879 44.1349 5.72727 44.4531 5.13636C44.7751 4.54167 45.2259 4.06818 45.8054 3.71591C46.3887 3.36364 47.0743 3.19318 47.8622 3.20455ZM47.8622 4.45455C47.3849 4.45455 46.955 4.57386 46.5724 4.8125C46.1937 5.04735 45.8925 5.36553 45.669 5.76705C45.4493 6.16477 45.3395 6.60606 45.3395 7.09091C45.3395 7.57576 45.4455 8.01705 45.6577 8.41477C45.8736 8.80871 46.1671 9.12311 46.5384 9.35795C46.9134 9.58902 47.3395 9.70455 47.8168 9.70455C48.1766 9.70455 48.5118 9.63447 48.8224 9.49432C49.133 9.35038 49.4039 9.1553 49.6349 8.90909C49.8698 8.65909 50.0535 8.37689 50.1861 8.0625C50.3187 7.74432 50.3849 7.41288 50.3849 7.06818C50.3849 6.61364 50.2751 6.1875 50.0554 5.78977C49.8395 5.39205 49.5402 5.07008 49.1577 4.82386C48.7789 4.57765 48.3471 4.45455 47.8622 4.45455Z" fill="#F32851"/>
<path d="M43.5252 62.6195C43.8435 63.1626 43.8435 63.8374 43.5252 64.3805C42.6989 65.7909 41.7909 66.6989 40.3805 67.5252C39.8374 67.8435 39.1626 67.8435 38.6195 67.5252C37.2091 66.6989 36.3011 65.7909 35.4748 64.3805C35.1565 63.8374 35.1565 63.1626 35.4748 62.6195C36.3011 61.2091 37.2091 60.3011 38.6195 59.4748C39.1626 59.1565 39.8374 59.1565 40.3805 59.4748C41.7909 60.3011 42.6989 61.2091 43.5252 62.6195Z" fill="#F32851"/>
<path d="M8.52523 44.6195C8.84348 45.1626 8.84348 45.8374 8.52523 46.3805C7.69886 47.7909 6.79088 48.6989 5.38054 49.5252C4.83739 49.8435 4.16261 49.8435 3.61946 49.5252C2.20912 48.6989 1.30114 47.7909 0.474768 46.3805C0.15652 45.8374 0.15652 45.1626 0.474768 44.6195C1.30114 43.2091 2.20912 42.3011 3.61946 41.4748C4.16261 41.1565 4.83739 41.1565 5.38054 41.4748C6.79088 42.3011 7.69886 43.2091 8.52523 44.6195Z" fill="#F32851"/>
<path d="M26.5252 96.6195C26.8435 97.1626 26.8435 97.8374 26.5252 98.3805C25.6989 99.7909 24.7909 100.699 23.3805 101.525C22.8374 101.843 22.1626 101.843 21.6195 101.525C20.2091 100.699 19.3011 99.7909 18.4748 98.3805C18.1565 97.8374 18.1565 97.1626 18.4748 96.6195C19.3011 95.2091 20.2091 94.3011 21.6195 93.4748C22.1626 93.1565 22.8374 93.1565 23.3805 93.4748C24.7909 94.3011 25.6989 95.2091 26.5252 96.6195Z" fill="#F32851"/>
<path d="M59.5252 28.6195C59.8435 29.1626 59.8435 29.8374 59.5252 30.3805C58.6989 31.7909 57.7909 32.6989 56.3805 33.5252C55.8374 33.8435 55.1626 33.8435 54.6195 33.5252C53.2091 32.6989 52.3011 31.7909 51.4748 30.3805C51.1565 29.8374 51.1565 29.1626 51.4748 28.6195C52.3011 27.2091 53.2091 26.3011 54.6195 25.4748C55.1626 25.1565 55.8374 25.1565 56.3805 25.4748C57.7909 26.3011 58.6989 27.2091 59.5252 28.6195Z" fill="#F32851"/>
</svg>
