<svg width="56" height="106" viewBox="0 0 56 106" fill="none" xmlns="http://www.w3.org/2000/svg">
<rect x="0.5" y="21.5" width="51" height="84" rx="1.5" stroke="#535353"/>
<line y1="37.4998" x2="52" y2="37.4998" stroke="#535353"/>
<line y1="53.5" x2="52" y2="53.5" stroke="#535353"/>
<path d="M0 88H51" stroke="#535353"/>
<path d="M0 71H51.5" stroke="#535353"/>
<line x1="18.5" y1="21" x2="18.5" y2="106" stroke="#535353"/>
<path d="M35.5 21L35.5 106" stroke="#535353"/>
<path d="M8.88654 7C8.77717 6.66525 8.63299 6.36529 8.45401 6.10014C8.27835 5.83168 8.06789 5.60298 7.82262 5.41406C7.58067 5.22514 7.30558 5.08097 6.99734 4.98153C6.6891 4.8821 6.35103 4.83239 5.98313 4.83239C5.37991 4.83239 4.83138 4.98816 4.33754 5.29972C3.84369 5.61127 3.45094 6.07031 3.15927 6.67685C2.8676 7.28338 2.72177 8.02746 2.72177 8.90909C2.72177 9.79072 2.86926 10.5348 3.16424 11.1413C3.45922 11.7479 3.85861 12.2069 4.36239 12.5185C4.86618 12.83 5.43294 12.9858 6.06268 12.9858C6.64601 12.9858 7.15974 12.8615 7.60387 12.6129C8.05131 12.361 8.39933 12.0064 8.6479 11.549C8.8998 11.0883 9.02575 10.5464 9.02575 9.9233L9.40359 10.0028H6.34109V8.90909H10.2189V10.0028C10.2189 10.8414 10.04 11.5705 9.682 12.1903C9.32736 12.8101 8.83683 13.2907 8.2104 13.6321C7.5873 13.9702 6.87139 14.1392 6.06268 14.1392C5.16116 14.1392 4.36902 13.9271 3.68626 13.5028C3.00681 13.0786 2.4765 12.4754 2.09535 11.6932C1.71751 10.911 1.52859 9.98295 1.52859 8.90909C1.52859 8.10369 1.6363 7.3795 1.85174 6.73651C2.07049 6.0902 2.37873 5.54001 2.77646 5.08594C3.17418 4.63187 3.64483 4.28385 4.18839 4.0419C4.73195 3.79995 5.3302 3.67898 5.98313 3.67898C6.52006 3.67898 7.02054 3.76018 7.48455 3.92258C7.95188 4.08168 8.36784 4.30871 8.73242 4.60369C9.10032 4.89536 9.4069 5.24503 9.65217 5.6527C9.89743 6.05705 10.0665 6.50616 10.1593 7H8.88654ZM15.9698 14L17.6403 3.81818H18.6346L16.9641 14H15.9698ZM11.3363 11.1761L11.4954 10.1818H19.092L18.9329 11.1761H11.3363ZM12.3903 14L14.0607 3.81818H15.055L13.3846 14H12.3903ZM11.9329 7.63636L12.092 6.64205H19.6886L19.5295 7.63636H11.9329ZM21.0036 14V6.36364H22.1371V7.55682H22.2365C22.3956 7.14915 22.6525 6.83262 23.0071 6.60724C23.3617 6.37855 23.7876 6.2642 24.2848 6.2642C24.7886 6.2642 25.2079 6.37855 25.5426 6.60724C25.8807 6.83262 26.1442 7.14915 26.3331 7.55682H26.4126C26.6082 7.16241 26.9015 6.84919 27.2926 6.61719C27.6837 6.38187 28.1527 6.2642 28.6996 6.2642C29.3823 6.2642 29.9408 6.47798 30.375 6.90554C30.8092 7.32978 31.0263 7.991 31.0263 8.8892V14H29.853V8.8892C29.853 8.32576 29.6989 7.92306 29.3906 7.68111C29.0824 7.43916 28.7195 7.31818 28.3018 7.31818C27.7649 7.31818 27.349 7.48059 27.054 7.8054C26.759 8.12689 26.6115 8.53456 26.6115 9.02841V14H25.4183V8.76989C25.4183 8.3357 25.2775 7.98603 24.9957 7.72088C24.714 7.45241 24.3511 7.31818 23.907 7.31818C23.602 7.31818 23.317 7.39938 23.0518 7.56179C22.79 7.72419 22.5779 7.94957 22.4155 8.23793C22.2564 8.52296 22.1768 8.85275 22.1768 9.22727V14H21.0036ZM35.4187 14.179C34.9348 14.179 34.4956 14.0878 34.1012 13.9055C33.7068 13.7199 33.3936 13.4531 33.1616 13.1051C32.9296 12.7538 32.8136 12.3295 32.8136 11.8324C32.8136 11.3949 32.8997 11.0402 33.0721 10.7685C33.2444 10.4934 33.4748 10.2779 33.7631 10.1222C34.0515 9.96638 34.3697 9.85038 34.7177 9.77415C35.069 9.6946 35.422 9.63163 35.7766 9.58523C36.2406 9.52557 36.6168 9.48082 36.9052 9.45099C37.1969 9.41785 37.409 9.36316 37.5415 9.28693C37.6774 9.2107 37.7454 9.07812 37.7454 8.8892V8.84943C37.7454 8.3589 37.6112 7.97775 37.3427 7.70597C37.0775 7.43419 36.6748 7.2983 36.1346 7.2983C35.5745 7.2983 35.1353 7.42093 34.8171 7.66619C34.4989 7.91146 34.2752 8.1733 34.146 8.4517L33.0323 8.05398C33.2312 7.58996 33.4963 7.22869 33.8278 6.97017C34.1625 6.70833 34.5271 6.52604 34.9215 6.4233C35.3192 6.31723 35.7103 6.2642 36.0948 6.2642C36.3401 6.2642 36.6218 6.29403 36.94 6.35369C37.2615 6.41004 37.5714 6.5277 37.8697 6.70668C38.1713 6.88565 38.4215 7.15578 38.6204 7.51705C38.8192 7.87831 38.9187 8.36222 38.9187 8.96875V14H37.7454V12.9659H37.6857C37.6062 13.1316 37.4736 13.3089 37.288 13.4979C37.1024 13.6868 36.8555 13.8475 36.5472 13.9801C36.239 14.1127 35.8628 14.179 35.4187 14.179ZM35.5977 13.125C36.0617 13.125 36.4528 13.0339 36.771 12.8516C37.0924 12.6693 37.3344 12.4339 37.4968 12.1456C37.6625 11.8572 37.7454 11.554 37.7454 11.2358V10.1619C37.6957 10.2216 37.5863 10.2763 37.4173 10.326C37.2515 10.3724 37.0593 10.4138 36.8406 10.4503C36.6251 10.4834 36.4147 10.5133 36.2092 10.5398C36.007 10.563 35.8429 10.5829 35.717 10.5994C35.4121 10.6392 35.127 10.7038 34.8619 10.7933C34.6 10.8795 34.3879 11.0104 34.2255 11.1861C34.0664 11.3584 33.9869 11.5937 33.9869 11.892C33.9869 12.2997 34.1377 12.608 34.4393 12.8168C34.7442 13.0223 35.1303 13.125 35.5977 13.125ZM41.0602 6.36364H42.2335V14.5568C42.2335 15.0275 42.1523 15.4351 41.9899 15.7798C41.8308 16.1245 41.5888 16.3913 41.264 16.5803C40.9425 16.7692 40.5365 16.8636 40.046 16.8636C40.0062 16.8636 39.9664 16.8636 39.9267 16.8636C39.8869 16.8636 39.8471 16.8636 39.8074 16.8636V15.7699C39.8471 15.7699 39.8836 15.7699 39.9167 15.7699C39.9499 15.7699 39.9863 15.7699 40.0261 15.7699C40.3841 15.7699 40.6459 15.6638 40.8116 15.4517C40.9773 15.2429 41.0602 14.9446 41.0602 14.5568V6.36364ZM41.6369 5.09091C41.4082 5.09091 41.211 5.01302 41.0453 4.85724C40.8829 4.70147 40.8017 4.5142 40.8017 4.29545C40.8017 4.0767 40.8829 3.88944 41.0453 3.73366C41.211 3.57789 41.4082 3.5 41.6369 3.5C41.8656 3.5 42.0611 3.57789 42.2235 3.73366C42.3893 3.88944 42.4721 4.0767 42.4721 4.29545C42.4721 4.5142 42.3893 4.70147 42.2235 4.85724C42.0611 5.01302 41.8656 5.09091 41.6369 5.09091ZM44.6808 14L49.2347 4.99148V4.91193H43.9847V3.81818H50.5075V4.97159L45.9734 14H44.6808Z" fill="#F32851"/>
<path d="M55.5252 61.6195C55.8435 62.1626 55.8435 62.8374 55.5252 63.3805C54.6989 64.7909 53.7909 65.6989 52.3805 66.5252C51.8374 66.8435 51.1626 66.8435 50.6195 66.5252C49.2091 65.6989 48.3011 64.7909 47.4748 63.3805C47.1565 62.8374 47.1565 62.1626 47.4748 61.6195C48.3011 60.2091 49.2091 59.3011 50.6195 58.4748C51.1626 58.1565 51.8374 58.1565 52.3805 58.4748C53.7909 59.3011 54.6989 60.2091 55.5252 61.6195Z" fill="#F32851"/>
<path d="M22.5252 61.6195C22.8435 62.1626 22.8435 62.8374 22.5252 63.3805C21.6989 64.7909 20.7909 65.6989 19.3805 66.5252C18.8374 66.8435 18.1626 66.8435 17.6195 66.5252C16.2091 65.6989 15.3011 64.7909 14.4748 63.3805C14.1565 62.8374 14.1565 62.1626 14.4748 61.6195C15.3011 60.2091 16.2091 59.3011 17.6195 58.4748C18.1626 58.1565 18.8374 58.1565 19.3805 58.4748C20.7909 59.3011 21.6989 60.2091 22.5252 61.6195Z" fill="#F32851"/>
<path d="M39.5252 78.6195C39.8435 79.1626 39.8435 79.8374 39.5252 80.3805C38.6989 81.7909 37.7909 82.6989 36.3805 83.5252C35.8374 83.8435 35.1626 83.8435 34.6195 83.5252C33.2091 82.6989 32.3011 81.7909 31.4748 80.3805C31.1565 79.8374 31.1565 79.1626 31.4748 78.6195C32.3011 77.2091 33.2091 76.3011 34.6195 75.4748C35.1626 75.1565 35.8374 75.1565 36.3805 75.4748C37.7909 76.3011 38.6989 77.2091 39.5252 78.6195Z" fill="#F32851"/>
</svg>
