<svg width="56" height="106" viewBox="0 0 56 106" fill="none" xmlns="http://www.w3.org/2000/svg">
<rect x="0.5" y="21.5" width="51" height="84" rx="1.5" stroke="#535353"/>
<line y1="37.4999" x2="52" y2="37.4999" stroke="#535353"/>
<line y1="53.5" x2="52" y2="53.5" stroke="#535353"/>
<path d="M0 88H51" stroke="#535353"/>
<path d="M0 71H51.5" stroke="#535353"/>
<line x1="18.5" y1="21" x2="18.5" y2="106" stroke="#535353"/>
<path d="M35.5 21L35.5 106" stroke="#535353"/>
<path d="M11.2777 7C11.1527 6.61742 10.9879 6.27462 10.7834 5.97159C10.5826 5.66477 10.3421 5.40341 10.0618 5.1875C9.78528 4.97159 9.47088 4.80682 9.11861 4.69318C8.76634 4.57955 8.37997 4.52273 7.95952 4.52273C7.27012 4.52273 6.64323 4.70076 6.07884 5.05682C5.51444 5.41288 5.06558 5.9375 4.73224 6.63068C4.39891 7.32386 4.23224 8.17424 4.23224 9.18182C4.23224 10.1894 4.40081 11.0398 4.73793 11.733C5.07505 12.4261 5.53149 12.9508 6.10724 13.3068C6.683 13.6629 7.33073 13.8409 8.05043 13.8409C8.71709 13.8409 9.30421 13.6989 9.81179 13.4148C10.3232 13.1269 10.7209 12.7216 11.005 12.1989C11.2929 11.6723 11.4368 11.053 11.4368 10.3409L11.8686 10.4318H8.36861V9.18182H12.8004V10.4318C12.8004 11.3902 12.5959 12.2235 12.1868 12.9318C11.7815 13.6402 11.2209 14.1894 10.505 14.5795C9.79285 14.9659 8.97467 15.1591 8.05043 15.1591C7.02012 15.1591 6.11482 14.9167 5.33452 14.4318C4.558 13.947 3.95194 13.2576 3.51634 12.3636C3.08452 11.4697 2.86861 10.4091 2.86861 9.18182C2.86861 8.26136 2.99171 7.43371 3.23793 6.69886C3.48793 5.96023 3.8402 5.33144 4.29474 4.8125C4.74929 4.29356 5.28717 3.89583 5.90838 3.61932C6.52959 3.3428 7.2133 3.20455 7.95952 3.20455C8.57315 3.20455 9.14512 3.29735 9.67543 3.48295C10.2095 3.66477 10.6849 3.92424 11.1016 4.26136C11.522 4.5947 11.8724 4.99432 12.1527 5.46023C12.433 5.92235 12.6262 6.43561 12.7322 7H11.2777ZM21.2138 8.22727L20.0092 8.56818C19.9335 8.36742 19.8217 8.17235 19.674 7.98295C19.5301 7.78977 19.3331 7.63068 19.0831 7.50568C18.8331 7.38068 18.513 7.31818 18.1229 7.31818C17.5888 7.31818 17.1437 7.44129 16.7876 7.6875C16.4354 7.92992 16.2592 8.23864 16.2592 8.61364C16.2592 8.94697 16.3804 9.21023 16.6229 9.40341C16.8653 9.59659 17.2441 9.75758 17.7592 9.88636L19.0547 10.2045C19.835 10.3939 20.4164 10.6837 20.799 11.0739C21.1816 11.4602 21.3729 11.9583 21.3729 12.5682C21.3729 13.0682 21.2289 13.5152 20.9411 13.9091C20.657 14.303 20.2592 14.6136 19.7479 14.8409C19.2365 15.0682 18.6418 15.1818 17.9638 15.1818C17.0736 15.1818 16.3369 14.9886 15.7536 14.6023C15.1702 14.2159 14.8009 13.6515 14.6456 12.9091L15.9183 12.5909C16.0395 13.0606 16.2687 13.4129 16.6058 13.6477C16.9467 13.8826 17.3918 14 17.9411 14C18.5661 14 19.0623 13.8674 19.4297 13.6023C19.8009 13.3333 19.9865 13.0114 19.9865 12.6364C19.9865 12.3333 19.8804 12.0795 19.6683 11.875C19.4562 11.6667 19.1304 11.5114 18.6911 11.4091L17.2365 11.0682C16.4373 10.8788 15.8501 10.5852 15.4751 10.1875C15.1039 9.78598 14.9183 9.28409 14.9183 8.68182C14.9183 8.18939 15.0566 7.75379 15.3331 7.375C15.6134 6.99621 15.9941 6.69886 16.4751 6.48295C16.96 6.26705 17.5092 6.15909 18.1229 6.15909C18.9865 6.15909 19.6645 6.34848 20.157 6.72727C20.6532 7.10606 21.0054 7.60606 21.2138 8.22727ZM28.8913 11.4318V6.27273H30.2322V15H28.8913V13.5227H28.8004C28.5959 13.9659 28.2777 14.3428 27.8459 14.6534C27.4141 14.9602 26.8686 15.1136 26.2095 15.1136C25.6641 15.1136 25.1792 14.9943 24.755 14.7557C24.3307 14.5133 23.9974 14.1496 23.755 13.6648C23.5125 13.1761 23.3913 12.5606 23.3913 11.8182V6.27273H24.7322V11.7273C24.7322 12.3636 24.9103 12.8712 25.2663 13.25C25.6262 13.6288 26.0845 13.8182 26.6413 13.8182C26.9747 13.8182 27.3137 13.733 27.6584 13.5625C28.0069 13.392 28.2985 13.1307 28.5334 12.7784C28.772 12.4261 28.8913 11.9773 28.8913 11.4318ZM38.87 8.22727L37.6655 8.56818C37.5897 8.36742 37.478 8.17235 37.3303 7.98295C37.1863 7.78977 36.9893 7.63068 36.7393 7.50568C36.4893 7.38068 36.1693 7.31818 35.7791 7.31818C35.245 7.31818 34.8 7.44129 34.4439 7.6875C34.0916 7.92992 33.9155 8.23864 33.9155 8.61364C33.9155 8.94697 34.0367 9.21023 34.2791 9.40341C34.5215 9.59659 34.9003 9.75758 35.4155 9.88636L36.7109 10.2045C37.4912 10.3939 38.0727 10.6837 38.4553 11.0739C38.8378 11.4602 39.0291 11.9583 39.0291 12.5682C39.0291 13.0682 38.8852 13.5152 38.5973 13.9091C38.3132 14.303 37.9155 14.6136 37.4041 14.8409C36.8928 15.0682 36.2981 15.1818 35.62 15.1818C34.7299 15.1818 33.9931 14.9886 33.4098 14.6023C32.8265 14.2159 32.4571 13.6515 32.3018 12.9091L33.5746 12.5909C33.6958 13.0606 33.925 13.4129 34.2621 13.6477C34.603 13.8826 35.0481 14 35.5973 14C36.2223 14 36.7185 13.8674 37.0859 13.6023C37.4571 13.3333 37.6428 13.0114 37.6428 12.6364C37.6428 12.3333 37.5367 12.0795 37.3246 11.875C37.1125 11.6667 36.7867 11.5114 36.3473 11.4091L34.8928 11.0682C34.0935 10.8788 33.5064 10.5852 33.1314 10.1875C32.7602 9.78598 32.5746 9.28409 32.5746 8.68182C32.5746 8.18939 32.7128 7.75379 32.9893 7.375C33.2696 6.99621 33.6503 6.69886 34.1314 6.48295C34.6162 6.26705 35.1655 6.15909 35.7791 6.15909C36.6428 6.15909 37.3208 6.34848 37.8132 6.72727C38.3094 7.10606 38.6617 7.60606 38.87 8.22727ZM40.7521 12.6136V11.4545L45.8658 3.36364H46.7067V5.15909H46.1385L42.2749 11.2727V11.3636H49.1612V12.6136H40.7521ZM46.2294 15V12.2614V11.7216V3.36364H47.5703V15H46.2294Z" fill="#F32851"/>
<path d="M39.5252 61.6195C39.8435 62.1626 39.8435 62.8374 39.5252 63.3805C38.6989 64.7909 37.7909 65.6989 36.3805 66.5252C35.8374 66.8435 35.1626 66.8435 34.6195 66.5252C33.2091 65.6989 32.3011 64.7909 31.4748 63.3805C31.1565 62.8374 31.1565 62.1626 31.4748 61.6195C32.3011 60.2091 33.2091 59.3011 34.6195 58.4748C35.1626 58.1565 35.8374 58.1565 36.3805 58.4748C37.7909 59.3011 38.6989 60.2091 39.5252 61.6195Z" fill="#F32851"/>
<path d="M55.5252 95.6195C55.8435 96.1626 55.8435 96.8374 55.5252 97.3805C54.6989 98.7909 53.7909 99.6989 52.3805 100.525C51.8374 100.843 51.1626 100.843 50.6195 100.525C49.2091 99.6989 48.3011 98.7909 47.4748 97.3805C47.1565 96.8374 47.1565 96.1626 47.4748 95.6195C48.3011 94.2091 49.2091 93.3011 50.6195 92.4748C51.1626 92.1565 51.8374 92.1565 52.3805 92.4748C53.7909 93.3011 54.6989 94.2091 55.5252 95.6195Z" fill="#F32851"/>
</svg>
